<svg xmlns="http://www.w3.org/2000/svg" xmlns:xlink="http://www.w3.org/1999/xlink" viewBox="0 0 458.56 748"><defs><style>.cls-1{isolation:isolate;}.cls-2{fill:#fff;}.cls-11,.cls-15,.cls-2,.cls-6{mix-blend-mode:screen;}.cls-3{fill:#94122e;}.cls-4{fill:url(#Áåçûìÿííûé_ãðàäèåíò_8);}.cls-5{fill:url(#Áåçûìÿííûé_ãðàäèåíò_107);}.cls-6{fill:url(#Áåçûìÿííûé_ãðàäèåíò_171);}.cls-7{fill:#d97973;}.cls-8{fill:url(#Áåçûìÿííûé_ãðàäèåíò_27);}.cls-9{fill:#00ebaa;}.cls-10{fill:#131f49;}.cls-11{fill:url(#Áåçûìÿííûé_ãðàäèåíò_15);}.cls-12{fill:url(#Áåçûìÿííûé_ãðàäèåíò_8-2);}.cls-13{fill:url(#Áåçûìÿííûé_ãðàäèåíò_8-3);}.cls-14{fill:url(#Áåçûìÿííûé_ãðàäèåíò_2);}.cls-15{fill:url(#Áåçûìÿííûé_ãðàäèåíò_171-2);}</style><linearGradient id="Áåçûìÿííûé_ãðàäèåíò_8" x1="445.14" y1="379.62" x2="130.2" y2="632.53" gradientUnits="userSpaceOnUse"><stop offset="0.04" stop-color="#ffefbc"/><stop offset="0.18" stop-color="#feebba"/><stop offset="0.32" stop-color="#fadfb4"/><stop offset="0.47" stop-color="#f4cbab"/><stop offset="0.61" stop-color="#ebaf9d"/><stop offset="0.64" stop-color="#e8a699"/><stop offset="0.72" stop-color="#e49b91"/><stop offset="0.89" stop-color="#dd8582"/><stop offset="1" stop-color="#da7d7d"/></linearGradient><linearGradient id="Áåçûìÿííûé_ãðàäèåíò_107" x1="432.58" y1="421.34" x2="156.6" y2="563.7" gradientUnits="userSpaceOnUse"><stop offset="0" stop-color="#ff8759"/><stop offset="1" stop-color="#ab1535"/></linearGradient><linearGradient id="Áåçûìÿííûé_ãðàäèåíò_171" x1="452.86" y1="337.58" x2="192.79" y2="595.26" gradientUnits="userSpaceOnUse"><stop offset="0" stop-color="#c4bfaa"/><stop offset="0.5" stop-color="#646157"/><stop offset="1"/></linearGradient><linearGradient id="Áåçûìÿííûé_ãðàäèåíò_27" x1="303.84" y1="570.15" x2="280.77" y2="716.49" gradientUnits="userSpaceOnUse"><stop offset="0.01" stop-color="#22567d"/><stop offset="0.25" stop-color="#204e76"/><stop offset="0.63" stop-color="#1a3a62"/><stop offset="1" stop-color="#131f49"/></linearGradient><linearGradient id="Áåçûìÿííûé_ãðàäèåíò_15" x1="308.17" y1="543.65" x2="293.06" y2="688.4" gradientUnits="userSpaceOnUse"><stop offset="0" stop-color="#5d696b"/><stop offset="0.89" stop-color="#0a0c0c"/><stop offset="1"/></linearGradient><linearGradient id="Áåçûìÿííûé_ãðàäèåíò_8-2" x1="285.28" y1="358.69" x2="156.44" y2="383.35" xlink:href="#Áåçûìÿííûé_ãðàäèåíò_8"/><linearGradient id="Áåçûìÿííûé_ãðàäèåíò_8-3" x1="473" y1="-1.56" x2="33.98" y2="287.14" xlink:href="#Áåçûìÿííûé_ãðàäèåíò_8"/><radialGradient id="Áåçûìÿííûé_ãðàäèåíò_2" cx="237.33" cy="353.63" r="273.32" xlink:href="#Áåçûìÿííûé_ãðàäèåíò_27"/><linearGradient id="Áåçûìÿííûé_ãðàäèåíò_171-2" x1="404.67" y1="9.76" x2="135.05" y2="260.29" xlink:href="#Áåçûìÿííûé_ãðàäèåíò_171"/></defs><g class="cls-1"><g id="Layer_2" data-name="Layer 2"><g id="Layer_1-2" data-name="Layer 1"><path class="cls-2" d="M446.69,416c0-15.36-90.48-27.79-202-27.79-4.2,0,7.26,0,3.13.06-13.11-14.5-25.77-21.07-25.11-21.74C224,365.31,249,329.68,249,329.68c55.43-4.44,100.69-30.75,128.33-70l.4-.15c14.65-6.24,24.8-12.72,32.39-27.05,19.45-36.8,23.55-81.26,9.9-120.6C409.15,80.45,387.21,53,359.27,34.29,274.49-22.55,137-4.36,59.5,56.81,21.71,86.64-4,131.68.51,179.84c3.8,40.9,28.59,79.9,70.08,92.62.3.29.65.58,1,.88,33.93,29.45,69.09,47.37,112,50.3v.05L156,372.05l18.77,18.38c-85,0-130.31,22.88-130.31,35.53,0,0-49.74,249.23,163.36,281.89,4.8,15.26,13.44,25.25,23.84,31.49,23.89,14.33,56.94,8.53,73-.58,12.1-12,21.35-24.23,27.94-36.71,71.94-19.89,104.63-68.88,118.07-120.2v-.05C470.49,506.34,446.69,416,446.69,416ZM52.3,218.3a6.84,6.84,0,0,1-1.1,2.25,13.84,13.84,0,0,0,1.1-2.25c.1-.34.25-.68.35-1A4.86,4.86,0,0,1,52.3,218.3Z"/><path class="cls-3" d="M114.11,439.64C79.49,434.78,58,428.1,58,420.67,58,406,142.61,394,247,394S435.81,406,435.81,420.67c0,5.56-12,10.65-32.38,14.95-33.92,7.06-91.35,11.73-156.48,11.73-17,0-33.41-.33-49.06-.93C165.79,445.25,137.05,442.86,114.11,439.64Z"/><path class="cls-4" d="M251.81,598.65c-3,1-6,2.05-9.07,3.17-1.21,27.48-4,49.72-8.83,65.09C212.42,663.36,193,651,178.22,635.09c-15-16-25.61-35.56-34.3-55.65a363.67,363.67,0,0,1-29.81-139.8c22.94,3.22,51.68,5.61,83.78,6.78a186.8,186.8,0,0,0,.84,38.26c1.49,12.34,3.41,27,8.78,38.36,9.21,19.54,33.08,33.46,52.8,39.58,21.64,6.68,45,6.64,67.24,2.38,17-3.22,34-9.15,48-19.62,14.9-11.07,23.27-28.18,27.14-46.17,4.49-20.79,2.9-42.37.75-63.59,20.42-4.3,32.38-9.39,32.38-14.95,0,0,20.42,77.05,1.92,149.38v.05a218.21,218.21,0,0,1-102,94.1c5.75-20.23,5.19-41.07-.56-62.38C316.1,583.69,285.92,587.29,251.81,598.65Z"/><path class="cls-5" d="M403.43,435.62c2.15,21.22,3.74,42.8-.75,63.59-3.87,18-12.24,35.1-27.14,46.17-14,10.47-31,16.4-48,19.62-22.24,4.26-45.6,4.3-67.24-2.38-19.72-6.12-43.59-20-52.8-39.58-5.37-11.35-7.29-26-8.78-38.36a186.8,186.8,0,0,1-.84-38.26c15.65.6,32.1.93,49.06.93C312.08,447.35,369.51,442.68,403.43,435.62Zm-84.57,79.15c14.06-6.07,16.68-25.27,8.22-37.14a24.24,24.24,0,0,0-17.66-9.77,26.75,26.75,0,0,0-23.92,11.59c-5.7,8.5-5.75,20.51.23,28.92C292.51,517.81,308.77,519.17,318.86,514.77Zm-10.47,29.77a7.72,7.72,0,0,0,4.44-8.18c-.61-3.27-3.78-5.7-7.1-6.17a8.4,8.4,0,0,0-7.24,2.39C292.18,539.45,300.92,548,308.39,544.54Z"/><path class="cls-6" d="M431.91,569.74C318.67,580,205.47,531.32,127.13,448.92c99.35,7.45,212.68,5.71,306.14-16C448.57,472.61,441.48,528.34,431.91,569.74Z"/><path class="cls-7" d="M335.77,664.2a218.21,218.21,0,0,0,102-94.1c-12.57,49.2-43.13,96.16-110.37,115.22A106.49,106.49,0,0,0,335.77,664.2Z"/><path class="cls-8" d="M335.77,664.2a106.49,106.49,0,0,1-8.41,21.12c-6.17,12-14.81,23.69-26.12,35.18-15,8.74-45.88,14.3-68.22.57,15.89-10.75,22.11-31.82,24.07-51.22a204.28,204.28,0,0,0-5.28-71.2c34.11-11.36,64.29-15,83.4,3.17C341,623.13,341.52,644,335.77,664.2Z"/><path class="cls-3" d="M327.08,477.63c8.46,11.87,5.84,31.07-8.22,37.14-10.09,4.4-26.35,3-33.13-6.4-6-8.41-5.93-20.42-.23-28.92a26.75,26.75,0,0,1,23.92-11.59A24.24,24.24,0,0,1,327.08,477.63ZM314.7,508.42c10.89-4.72,12.9-19.62,6.35-28.83a18.59,18.59,0,0,0-13.69-7.52,20.55,20.55,0,0,0-18.5,8.92,20.12,20.12,0,0,0,.19,22.43C294.28,510.76,306.85,511.78,314.7,508.42Z"/><path class="cls-9" d="M321.05,479.59c6.55,9.21,4.54,24.11-6.35,28.83-7.85,3.36-20.42,2.34-25.65-5a20.12,20.12,0,0,1-.19-22.43,20.55,20.55,0,0,1,18.5-8.92A18.59,18.59,0,0,1,321.05,479.59Z"/><path class="cls-3" d="M312.83,536.36a7.72,7.72,0,0,1-4.44,8.18c-7.47,3.41-16.21-5.09-9.9-12a8.4,8.4,0,0,1,7.24-2.39C309.05,530.66,312.22,533.09,312.83,536.36Z"/><path class="cls-10" d="M233.91,666.91c4.81-15.37,7.62-37.61,8.83-65.09,3-1.12,6.08-2.15,9.07-3.17a204.28,204.28,0,0,1,5.28,71.2c-2,19.4-8.18,40.47-24.07,51.22-9.71-6-17.8-15.56-22.28-30.19h.18C221.3,692,228.73,683.36,233.91,666.91Z"/><path class="cls-7" d="M233.91,666.91c-5.18,16.45-12.61,25.09-23,24h-.18C11.55,659.58,58,420.67,58,420.67c0,7.43,21.45,14.11,56.07,19a363.67,363.67,0,0,0,29.81,139.8c8.69,20.09,19.34,39.62,34.3,55.65C193,651,212.42,663.36,233.91,666.91Z"/><path class="cls-10" d="M335.76,604.12c-.19-.77-.34-1.53-.55-2.3-19.11-18.13-49.29-14.53-83.4-3.17,1.45,5.67,2.65,11.42,3.6,17.2A102.73,102.73,0,0,1,335.76,604.12Z"/><path class="cls-11" d="M329.06,674.14c-21.36,7.41-47.15,6.17-67.36-4a293.79,293.79,0,0,0,.69-51.71c21.27-10.77,46.76-14.58,70-9.39C338.09,629.92,336.73,654,329.06,674.14Z"/><path class="cls-12" d="M256.48,417.91q-17.87,7.15-37.38,0L165,369l23-46.35a241.43,241.43,0,0,0,55.32,1.92s-31.4,38.87-32.61,40S256.48,417.91,256.48,417.91Z"/><polygon class="cls-7" points="233.91 336.23 197.28 341.4 192.29 369.73 232.05 421.49 219.1 417.91 165.04 368.99 188.03 322.64 243.35 324.56 233.91 336.23"/><path class="cls-7" d="M53.93,221.15c3.55,2.95,7.33,3.84,10.37,2.62-2.9,5.14-8.78,5.19-14.06.75a29.67,29.67,0,0,1-10.75-19.35c-.33-3.13-.09-6.49,1.82-9a8.79,8.79,0,0,1,6.26-3.23,10.28,10.28,0,0,0-3.08.84,13,13,0,0,0-1.26,8A29.38,29.38,0,0,0,53.93,221.15Z"/><path class="cls-10" d="M63,204.61c2.19,4.44,3.83,9.44,3,14.3a14.94,14.94,0,0,1-.37,1.73c-.1.33-.24.65-.33,1a13,13,0,0,1-1,2.15c-3,1.22-6.82.33-10.37-2.62a29.38,29.38,0,0,1-10.7-19.34,13,13,0,0,1,1.26-8,10.28,10.28,0,0,1,3.08-.84,12.17,12.17,0,0,1,6.5,1.26C58.23,196.34,61,200.41,63,204.61Z"/><path class="cls-13" d="M64.3,223.77a6.59,6.59,0,0,0,1-2.15,5.35,5.35,0,0,0,.33-1,14.94,14.94,0,0,0,.37-1.73c.84-4.86-.8-9.86-3-14.3-2.06-4.2-4.81-8.27-9-10.42a12.17,12.17,0,0,0-6.5-1.26,8.79,8.79,0,0,0-6.26,3.23c-1.91,2.52-2.15,5.88-1.82,9a29.67,29.67,0,0,0,10.75,19.35C55.52,229,61.4,228.91,64.3,223.77Zm344.78-104.2c12.76,37.71,8.93,80.32-9.25,115.6-7.1,13.74-16.58,20-30.27,25.93,8.5-21.68,14.2-45.41,14.25-67.89,0-27.14-4.68-56.07-21.26-78.31-10.7-14.25-26.12-24.48-42.71-30.93S285.5,74.62,267.74,73C229.57,69.67,190,72.57,155,88.27a150.4,150.4,0,0,0-15.88,8.36c-21.17,12.8-39.49,31.17-50.47,53.55A84.79,84.79,0,0,0,82,167.37c-.46,2.06-1.91,6.31-1.63,8.32.32,2.8,3.74,6.68,5.09,9.21,6.92,12.85,12.57,26.63,14.11,41.25,1.82,17.53-3.18,36.5-16.21,48.22-.28-.28-.61-.56-.89-.84-38.78-12.19-62-49.57-65.51-88.77-4.2-46.17,19.81-89.34,55.14-117.94C144.48,8.18,273-9.25,352.27,45.23,378.39,63.18,398.9,89.48,409.08,119.57Z"/><path class="cls-9" d="M199.9,177.75c2.38,5.51,3.78,11.63,2.85,17.57s-4.49,11.63-10,14.11c-6.58,3-14.2.88-21.44.65-6-.23-12.29.84-18-1.21-17.29-6.22-17.48-37.43-4.53-48.13C167.05,145.6,191.67,158.78,199.9,177.75Z"/><path class="cls-9" d="M334,160.74c10.93,10.7,10.79,41.91-3.83,48.13-4.81,2-10.14,1-15.23,1.21-6.12.23-12.53,2.34-18.13-.65-4.63-2.48-7.62-8.18-8.41-14.11s.42-12.06,2.43-17.57C297.69,158.78,318.53,145.6,334,160.74Z"/><path class="cls-14" d="M362.55,114.9c16.58,22.24,21.3,51.17,21.26,78.31-.05,22.48-5.75,46.21-14.25,67.89-.14,0-.24.1-.38.14-25.84,37.66-74,59.06-125.83,63.32A241.43,241.43,0,0,1,188,322.64v-.05c-39.2-6-76.82-21.91-104.71-48.22,13-11.72,18-30.69,16.21-48.22-1.54-14.62-7.19-28.4-14.11-41.25-1.35-2.53-4.77-6.41-5.09-9.21-.28-2,1.17-6.26,1.63-8.32a84.79,84.79,0,0,1,6.68-17.19c11-22.38,29.3-40.75,50.47-53.55A150.4,150.4,0,0,1,155,88.27c35-15.7,74.58-18.6,112.75-15.23,17.76,1.58,35.51,4.48,52.1,10.93S351.85,100.65,362.55,114.9Zm-32.43,94c14.62-6.22,14.76-37.43,3.83-48.13-15.42-15.14-36.26-2-43.17,17-2,5.51-3.23,11.63-2.43,17.57s3.78,11.63,8.41,14.11c5.6,3,12,.88,18.13.65C320,209.85,325.31,210.92,330.12,208.87ZM202.75,195.32c.93-5.94-.47-12.06-2.85-17.57-8.23-19-32.85-32.15-51.07-17-13,10.7-12.76,41.91,4.53,48.13,5.7,2,12,1,18,1.21,7.24.23,14.86,2.34,21.44-.65C198.26,207,201.81,201.25,202.75,195.32Z"/><path class="cls-15" d="M319.84,84c-16.59-6.45-34.34-9.35-52.1-10.93C229.57,69.67,190,72.57,155,88.27a150.4,150.4,0,0,0-15.88,8.36c-21.17,12.8-39.49,31.17-50.47,53.55A84.79,84.79,0,0,0,82,167.37c-.47,2.06-1.91,6.31-1.63,8.32.32,2.8,3.74,6.68,5.09,9.21A148.09,148.09,0,0,1,94.17,204C186.59,237,300.7,239,383.81,193.17c0-27.13-4.68-56-21.26-78.27C351.85,100.65,336.43,90.42,319.84,84Z"/></g></g></g></svg>