<svg xmlns="http://www.w3.org/2000/svg" viewBox="0 0 136 115.92"><defs><style>.cls-1{opacity:0.2;}.cls-2{fill:#263238;}.cls-3{fill:none;stroke:#263238;stroke-miterlimit:10;stroke-width:2px;}</style></defs><g id="Layer_2" data-name="Layer 2"><g id="Layer_1-2" data-name="Layer 1"><g class="cls-1"><path class="cls-2" d="M0,68.82C0,39.76,15.57,17.45,48.52,2.92L59.67,26c-20,8.3-29.83,20-29.83,37.36l.26,26.46L14.27,67.26C19.2,63.37,27.76,60,34.51,60c15,0,25.68,10.11,25.68,25.68,0,17.38-11.41,28.54-27,28.54C11.68,114.22,0,97.35,0,68.82Z"/></g><path class="cls-3" d="M39.26,59.57c15.36,0,26.22,10.33,26.22,26.22,0,17.74-11.65,29.13-27.54,29.13C16,114.92,4,97.7,4,68.57,4,38.91,19.93,16.14,53.56,1.3L65,24.87C44.56,33.35,34.5,45.27,34.5,63"/><g class="cls-1"><path class="cls-2" d="M69.52,68.82c0-29.06,15.57-51.37,48.52-65.9L129.19,26c-20,8.3-29.83,20-29.83,37.36l.26,26.46L83.79,67.26C88.72,63.37,97.28,60,104,60c15,0,25.68,10.11,25.68,25.68,0,17.38-11.41,28.54-27,28.54C81.19,114.22,69.52,97.35,69.52,68.82Z"/></g><path class="cls-3" d="M108.78,59.57C124.14,59.57,135,69.9,135,85.79c0,17.74-11.65,29.13-27.54,29.13-22,0-33.9-17.22-33.9-46.35,0-29.66,15.89-52.43,49.52-67.27l11.39,23.57C114.08,33.35,104,45.27,104,63"/></g></g></svg>