<svg xmlns="http://www.w3.org/2000/svg" viewBox="0 0 532.75 119.42"><defs><style>.cls-1{fill:#002ea0;}.cls-2{fill:#09b3ff;}</style></defs><g id="Layer_2" data-name="Layer 2"><g id="Layer_1-2" data-name="Layer 1"><path class="cls-1" d="M77.68,140.63H60l3.7-20.26H42.13l-9.77,20.26H16.24l55-111.7H96.92ZM49.4,105.21H66.31L76.62,48.72Z" transform="translate(-11.24 -22.65)"/><path class="cls-1" d="M151.65,28.93,123,115.1c-2.65,8-.09,10.85,5.49,10.85s10.05-2.87,12.7-10.85l28.63-86.17h16.6L158.18,114c-5.94,17.88-18.27,28.09-35.5,28.09S99.9,131.86,105.84,114L134.1,28.93Z" transform="translate(-11.24 -22.65)"/><path class="cls-1" d="M205.26,28.93h54.26l-5.3,16H235.87l-31.81,95.74H186.51l31.8-95.74H200Z" transform="translate(-11.24 -22.65)"/><path class="cls-1" d="M268.8,55.74c5.94-17.87,18.75-28.09,36-28.09S328,37.87,322.1,55.74l-19.3,58.09c-5.94,17.87-18.74,28.08-36,28.08s-23.25-10.21-17.32-28.08Zm-2.11,59.2c-2.66,8-.15,11,5.43,11s10.11-3,12.76-11l20-60.32c2.65-8,.14-11-5.44-11s-10.1,3-12.76,11Z" transform="translate(-11.24 -22.65)"/><path class="cls-1" d="M353.89,140.63c0-2.87-.06-4.62,3-13.72l5.83-17.55c3.44-10.38,1.21-14.21-6.77-14.21h-6.07l-15.11,45.48H317.19L354.3,28.93h26.49c18.19,0,23.2,8.46,17.48,25.69l-2.92,8.78c-3.82,11.49-10,19-19,22.66,7.56,3.67,7.62,12.13,3.75,23.77l-5.72,17.24c-1.81,5.42-3,9.41-2.59,13.56Zm12.66-95.74L355.15,79.2H362c6.54,0,11.48-2.88,14.45-11.81l3.66-11c2.65-8,1.1-11.49-5.12-11.49Z" transform="translate(-11.24 -22.65)"/><path class="cls-1" d="M432.33,76h24.09l-5.3,16H427l-10.87,32.72h30.32l-5.3,15.95H393.3l37.11-111.7h47.88l-5.3,16H442.67Z" transform="translate(-11.24 -22.65)"/><path class="cls-1" d="M525.14,27.65c17.08,0,22.46,10.22,16.52,28.09l-1.16,3.51H523.9l1.54-4.63c2.65-8,.47-11-5.12-11s-9.78,3-12.43,11c-7.64,23,25.24,27.29,14.64,59.21-5.94,17.87-18.27,28.08-35.5,28.08s-22.78-10.21-16.84-28.08l2.28-6.87h16.59l-2.65,8c-2.65,8-.09,10.85,5.49,10.85s10.05-2.87,12.7-10.85c7.64-23-25.24-27.29-14.64-59.2C495.9,37.87,508.07,27.65,525.14,27.65Z" transform="translate(-11.24 -22.65)"/><path class="cls-2" d="M72.68,135.63H55l3.7-20.26H37.13l-9.77,20.26H11.24l55-111.7H91.92ZM44.4,100.21H61.31L71.62,43.72Z" transform="translate(-11.24 -22.65)"/><path class="cls-2" d="M146.65,23.93,118,110.1c-2.65,8-.09,10.85,5.49,10.85s10-2.87,12.7-10.85l28.63-86.17h16.6L153.18,109c-5.94,17.88-18.27,28.09-35.5,28.09S94.9,126.86,100.84,109L129.1,23.93Z" transform="translate(-11.24 -22.65)"/><path class="cls-2" d="M200.26,23.93h54.26l-5.3,16H230.87l-31.81,95.74H181.51l31.8-95.74H195Z" transform="translate(-11.24 -22.65)"/><path class="cls-2" d="M263.8,50.74c5.94-17.87,18.75-28.09,36-28.09S323,32.87,317.1,50.74l-19.3,58.09c-5.94,17.87-18.74,28.08-36,28.08s-23.25-10.21-17.32-28.08Zm-2.11,59.2c-2.66,8-.15,11,5.43,11s10.11-3,12.76-11l20-60.32c2.65-8,.14-11-5.44-11s-10.1,3-12.76,11Z" transform="translate(-11.24 -22.65)"/><path class="cls-2" d="M348.89,135.63c0-2.87-.06-4.62,3-13.72l5.83-17.55c3.44-10.38,1.21-14.21-6.77-14.21h-6.07l-15.11,45.48H312.19L349.3,23.93h26.49c18.19,0,23.2,8.46,17.48,25.69l-2.92,8.78c-3.82,11.49-10,19-19,22.66,7.56,3.67,7.62,12.13,3.75,23.77l-5.72,17.24c-1.81,5.42-3,9.41-2.59,13.56Zm12.66-95.74L350.15,74.2H357c6.54,0,11.48-2.88,14.45-11.81l3.66-11c2.65-8,1.1-11.49-5.12-11.49Z" transform="translate(-11.24 -22.65)"/><path class="cls-2" d="M427.33,71h24.09l-5.3,16H422l-10.87,32.72h30.32l-5.3,15.95H388.3l37.11-111.7h47.88l-5.3,16H437.67Z" transform="translate(-11.24 -22.65)"/><path class="cls-2" d="M520.14,22.65c17.08,0,22.46,10.22,16.52,28.09l-1.16,3.51H518.9l1.54-4.63c2.65-8,.47-11-5.12-11s-9.78,3-12.43,11c-7.64,23,25.24,27.29,14.64,59.21-5.94,17.87-18.27,28.08-35.5,28.08s-22.78-10.21-16.84-28.08l2.28-6.87h16.59l-2.65,8c-2.65,8-.09,10.85,5.49,10.85s10.05-2.87,12.7-10.85c7.64-23-25.24-27.29-14.64-59.2C490.9,32.87,503.07,22.65,520.14,22.65Z" transform="translate(-11.24 -22.65)"/></g></g></svg>