<svg xmlns="http://www.w3.org/2000/svg" xmlns:xlink="http://www.w3.org/1999/xlink" viewBox="0 0 613.82 353.46"><defs><style>.cls-1,.cls-35,.cls-36{fill:none;}.cls-2{isolation:isolate;}.cls-3{clip-path:url(#clip-path);}.cls-4{fill:url(#linear-gradient);}.cls-5{fill:#000446;}.cls-10,.cls-13,.cls-14,.cls-15,.cls-17,.cls-18,.cls-22,.cls-23,.cls-5,.cls-6,.cls-7,.cls-9{fill-rule:evenodd;}.cls-11,.cls-26,.cls-33,.cls-6{fill:#fff;}.cls-7{fill:#fff8ee;opacity:0.5;}.cls-23,.cls-8{fill:#9bc6e9;}.cls-9{fill:#ac0303;}.cls-10,.cls-21{fill:red;}.cls-12,.cls-22{fill:#93c1e7;}.cls-13{fill:#336698;}.cls-14{fill:#f7aaac;}.cls-15{fill:#e15f66;}.cls-16{fill:#268643;}.cls-17,.cls-19{fill:#0c1570;}.cls-18{fill:#acd1ee;}.cls-20{fill:#cbcbcb;}.cls-24{fill:#7a3b3b;}.cls-25{fill:#c65d58;}.cls-26{opacity:0.4;mix-blend-mode:soft-light;}.cls-27{opacity:0.05;mix-blend-mode:multiply;}.cls-28{fill:#00dfbf;}.cls-29{fill:#af4141;}.cls-30{fill:#f98a8a;}.cls-31{fill:#d36666;}.cls-32,.cls-33{opacity:0.2;}.cls-34{opacity:0.8;}.cls-35,.cls-36{stroke:#842323;stroke-linecap:round;stroke-miterlimit:10;}.cls-35{stroke-width:0.75px;}.cls-36{stroke-width:0.71px;}</style><clipPath id="clip-path"><path class="cls-1" d="M174.45,186.36c22.66,18.43,96.78,32.46,139.82,20,18.18-5.25,43.18-31.95,39.53-50.77-10.8,4.27-21,10-32,13.67s-23.46,5.27-34.31,1.12c-3-1.13-6.26-4-4.82-6.68a5.58,5.58,0,0,1,2.35-2c5.46-3,12-3.57,18.24-4.18,18.94-1.87,39-5.32,53-17.56a24.2,24.2,0,0,0,6.51-8.18c4.56-10.35-2.92-21.58-5.38-32.55-9.43,18.91-29.82,32.46-51.75,34.37-2.87.25-6.43-.05-7.63-2.53-1.66-3.42,2.69-6.55,6.26-8.17a159.45,159.45,0,0,0,36.07-22.6,27.43,27.43,0,0,0,6.41-6.86c5.15-8.86-.34-19.7-5.75-28.42-8.75,10.27-17.74,20.74-29.58,27.68-5.55,3.26-12.22,5.72-18.53,4.12a3.38,3.38,0,0,1-2.11-1.22,2.9,2.9,0,0,1-.13-2.28c1.68-6.39,9.05-9.44,15-12.78,13-7.26,25.73-11,28.69-25,.82-3.88-2.91-14.8-6.2-19.65a66,66,0,0,1-16.73,19.51c-3.79,3-9.19,5.63-13.35,3.15.44-6.75,6.81-11.5,12.16-16s10.55-11.16,7.88-17.42c-1.59-3.72-5.5-6-8.39-8.9A19.86,19.86,0,0,1,304,2c-2.25,4.88-9,6-14.59,5.68S277.61,6.43,273,9.5c-5.91,4-5.9,12.25-4.31,19s5.54,14.66,1.23,20.18c-1.9,2.44-14.26-7.7-6.67-33.84,0,0-27.67,3.73-17.5,24.83s19.09,27.21,10.63,34.72S226.79,41.21,236,24.47c0,0-37,5.11-29,28.51s39.52,36.37,34.71,48.49-45.7-11-49.06-48.06c0,0-33.66,25.84-24.32,39.83s25.55,27.42,51.44,33.84c10.72,2.65,6.13,19.18-11.07,11.55s-38.24-13.71-51.07-43.25c0,0-28.81,39.67,11.08,49.33,6.26,1.51,32.14,5.09,29.95,15.08s-32.73,1.83-46.92-10.62c0,0-8.39,21.05,22.68,37.19"/></clipPath><linearGradient id="linear-gradient" x1="318.74" y1="182.63" x2="157.58" y2="17.85" gradientUnits="userSpaceOnUse"><stop offset="0" stop-color="#007c40"/><stop offset="1" stop-color="#b1d360"/></linearGradient></defs><g class="cls-2"><g id="Layer_2" data-name="Layer 2"><g id="Layer_1-2" data-name="Layer 1"><g class="cls-3"><rect class="cls-4" x="128.85" y="1.95" width="238.48" height="216.87"/></g><path class="cls-5" d="M330.18,79.68H36.24A19.21,19.21,0,0,0,17.08,98.84V275.67a19.21,19.21,0,0,0,19.16,19.16H330.18a19.21,19.21,0,0,0,19.16-19.16V98.84a19.21,19.21,0,0,0-19.16-19.16"/><path class="cls-6" d="M17.08,270.17v5.5a19.21,19.21,0,0,0,19.16,19.16H330.18a19.21,19.21,0,0,0,19.16-19.16v-5.5Z"/><path class="cls-6" d="M335.47,92.1H31a1.46,1.46,0,0,0-1.46,1.45V256.3A1.47,1.47,0,0,0,31,257.76H335.47a1.47,1.47,0,0,0,1.46-1.46V93.55a1.46,1.46,0,0,0-1.46-1.45"/><path class="cls-7" d="M337.32,318.81c-152.7,0-276.49,7.76-276.49,17.32s123.79,17.33,276.49,17.33,276.5-7.76,276.5-17.33S490,318.81,337.32,318.81"/><path class="cls-6" d="M203.36,291.69c1.07,24,3.9,30,23.54,43.68h-87c19.63-13.66,22.47-19.72,23.54-43.68l20-1.95Z"/><rect class="cls-8" x="41.05" y="102.09" width="188.23" height="109.09"/><path class="cls-9" d="M75.34,26.32A75.35,75.35,0,1,1,0,101.66,75.34,75.34,0,0,1,75.34,26.32"/><path class="cls-10" d="M75.34,17.55A75.34,75.34,0,1,1,0,92.89,75.34,75.34,0,0,1,75.34,17.55"/><polygon class="cls-9" points="45.72 54.34 121.92 92.13 45.72 130.54 45.72 54.34"/><polygon class="cls-6" points="113.26 96.5 48.92 128.93 48.92 64.58 113.26 96.5"/><rect class="cls-8" x="41.05" y="213.04" width="188.23" height="9.92"/><rect class="cls-11" x="66.66" y="199.22" width="105.91" height="4.33"/><rect class="cls-12" x="252.11" y="112.18" width="73.33" height="34.62"/><path class="cls-5" d="M188.11,133.74c-7.71,17.11-17.28,33.09-39.35,36.41-17.89,2.7-61.56-31.27-61.56-38.48s10.5-18.48,10.5-18.48,38.43,23.2,43.21,21.61c3.6-1.2,21.13-17.77,31.9-27.61,2.29-2.09,18.62,19.19,15.3,26.55"/><path class="cls-5" d="M194,99h41.85c10.12,0,24.7,5.08,30.83,12.26,8.78,10.28,5.36,125.32,2.68,141.35l-3.07,2.18c0,1,0,2,0,2.95H200.37l-1.06-2.33L173,253.32l-15.13-1.59L172.8,107.19A32.83,32.83,0,0,1,194,99"/><path class="cls-13" d="M194,99h41.85c1.12,0,2.29.07,3.51.19a72.78,72.78,0,0,1-5.62,18.57c-5.25,11.74-16.11,16.7-28.85,14.18-21.88-4.33-13.59-32.81-13.59-32.81.89-.08,1.79-.13,2.7-.13"/><path class="cls-5" d="M241.07,136.76c-4.14-8.62-.95-25.5,7.83-29.29,2.32-1,7.17-2.86,11.65-.88,12.22,5.42,29,24.87,35.66,69.45,1.7,11.37-11.89,17.65-38.53,6.62S245,145,241.07,136.76"/><path class="cls-6" d="M194,99c-10,37.56,36.66,42,41.85,0l-24.69-1c-4.28,0-13.51.5-17.16,1"/><path class="cls-14" d="M187,78.35c-1.47,9.76,9.73,17.19,17.34,16.54v4.47l-.39.55c-2.15,5.56,2.79,16.38,13.07,10.74,4.08-2.24,8.72-5.75,8.89-11.63h-.49V82.25a7,7,0,0,0,1.68-.73c1.67-1,2.33-3.52,1.88-6.09s-4-.84-4-.84h0C228.07,67,232,60.38,224,56.14s-24.11-3.92-24.11-3.92l-9.66-1c2.61,4.16-2.29,20.66-3.26,27.13"/><path class="cls-15" d="M218.63,87.44c-3.39,9.1-6.62,12.48-14.28,13.53v-6.2c2.92-.28,10.09-2.77,14.28-7.33"/><polygon class="cls-5" points="169.43 252.84 219.69 252.65 219.46 257.76 169.66 257.76 169.43 252.84"/><path class="cls-6" d="M98.24,116.58c.71,4.4-4.61,11.33-8.09,14-.52-.91-6.13-7.63-6.13-7.63.7-4.65,4.81-9.59,7.56-10.87Z"/><path class="cls-14" d="M89.32,109.84C89,107.69,87.48,99.19,86,97.7c-.73-.76-.92-.44-1.28,0a4,4,0,0,0-.56,2.21,35.79,35.79,0,0,0,.36,3.85c-4.41-2.69-8.5-8.72-11.63-12.86-1.28-1.68-4.13-.39-3,2.56.31.79,5.66,8,5.67,8.86.09,4.13-13,10.3,10.84,21.56A16.4,16.4,0,0,0,92,114.36Z"/><path class="cls-14" d="M364.81,174.1a3.21,3.21,0,0,0-1.53,2c0,.31.27,4.65.27,4.65l-10-.56a2.52,2.52,0,0,0,1.62,3.06,56.86,56.86,0,0,1,6.61,3.37l-8.92-1.06a1.81,1.81,0,0,0,.69,2.35c1.42.82,6.52,3.13,6.52,3.13l-8.3.31a16.49,16.49,0,0,0,4.9,2.32,20.37,20.37,0,0,1,3.51,1l-7,1.49s6.81,1.5,7,1.5c7.43,0,11.7-3.72,11.7-10.23,0-2-6.07-13.84-7.14-13.32"/><path class="cls-5" d="M191.84,56.39c7.62,1.27,20.89-.27,26.83,5.31,2.94,2.76,2.92,6.31.79,13.45-.63,2.1-1.61,3.7,1.6,1.75,1.47-.89,3.92-2.19,4.87-1.58,2.13,1.35,1.52,4.77.09,6-.64.55-1.87,1.41-1.87,1.41a9.51,9.51,0,0,0,7.84-2c3.75-3,15-12.22,12.53-25.31-5.37-28.84-36.73-31.91-52.38-21.28-9.55,6.49-14.77,19.81-.3,22.21"/><path class="cls-16" d="M570.53,310.9c-9.3-3.42-19.38-2.56-29.14-1.67a101.18,101.18,0,0,0,25.23-33.67,127.32,127.32,0,0,0-27.31,12.24c-3.69,2.21-7.42,4.75-9.68,8.68a104.84,104.84,0,0,0,13.12-38.87,121.27,121.27,0,0,0-29.91,27.47,182.65,182.65,0,0,0,5-40.06A113.4,113.4,0,0,0,496.9,274.1a83.38,83.38,0,0,0-2.85-22.27,70.73,70.73,0,0,0-8.24,13.59v62.67c32,0,65.23,10.2,84.72-17.19"/><path class="cls-6" d="M249.37,156.36H488.68A10.35,10.35,0,0,1,499,166.68v157.9a10.35,10.35,0,0,1-10.32,10.32H249.37A10.35,10.35,0,0,1,239,324.58V166.68a10.35,10.35,0,0,1,10.33-10.32"/><path class="cls-17" d="M247.62,162.43H490.44a2.5,2.5,0,0,1,2.49,2.5V309.37a2.51,2.51,0,0,1-2.49,2.5H247.62a2.51,2.51,0,0,1-2.5-2.5V164.93a2.5,2.5,0,0,1,2.5-2.5"/><path class="cls-17" d="M213.53,321.53h311v8.67a8.7,8.7,0,0,1-8.68,8.67H222.21a8.7,8.7,0,0,1-8.68-8.67Z"/><path class="cls-18" d="M213.53,321.52h311v4.83a8.71,8.71,0,0,1-8.68,8.68H222.21a8.71,8.71,0,0,1-8.68-8.68Z"/><rect class="cls-19" x="333.05" y="325.84" width="71.94" height="3.05"/><rect class="cls-20" x="252.23" y="303.08" width="236.34" height="4.57"/><rect class="cls-21" x="256.14" y="191.88" width="142.4" height="80.79"/><path class="cls-22" d="M293.29,170.24h40.63a6,6,0,0,1,6,6h0a6,6,0,0,1-6,6H293.29a6,6,0,0,1-6-6h0a6,6,0,0,1,6-6"/><rect class="cls-12" x="407.91" y="192.48" width="73.33" height="34.62"/><rect class="cls-12" x="408.03" y="232.87" width="32.7" height="18.27"/><path class="cls-22" d="M445.65,234.19h30.06a1.32,1.32,0,1,1,0,2.64H445.65a1.32,1.32,0,0,1,0-2.64"/><path class="cls-22" d="M445.65,240.08h30.06a1.32,1.32,0,1,1,0,2.64H445.65a1.32,1.32,0,0,1,0-2.64"/><path class="cls-22" d="M445.65,246h16.84a1.32,1.32,0,1,1,0,2.63H445.65a1.32,1.32,0,0,1,0-2.63"/><rect class="cls-12" x="408.03" y="254.02" width="32.7" height="18.27"/><path class="cls-22" d="M445.65,255.35h30.06a1.32,1.32,0,0,1,0,2.64H445.65a1.32,1.32,0,0,1,0-2.64"/><path class="cls-22" d="M445.65,261.24h30.06a1.32,1.32,0,1,1,0,2.63H445.65a1.32,1.32,0,0,1,0-2.63"/><path class="cls-22" d="M445.65,267.12h16.84a1.32,1.32,0,0,1,0,2.64H445.65a1.32,1.32,0,0,1,0-2.64"/><path class="cls-10" d="M262.09,170.24h12.14a6,6,0,0,1,6,6h0a6,6,0,0,1-6,6H262.09a6,6,0,0,1-6-6h0a6,6,0,0,1,6-6"/><rect class="cls-12" x="408.03" y="275.42" width="32.7" height="18.27"/><path class="cls-22" d="M445.65,276.75h30.06a1.32,1.32,0,1,1,0,2.63H445.65a1.32,1.32,0,0,1,0-2.63"/><path class="cls-22" d="M445.65,282.63h30.06a1.32,1.32,0,0,1,0,2.64H445.65a1.32,1.32,0,0,1,0-2.64"/><path class="cls-22" d="M445.65,288.52h16.84a1.32,1.32,0,1,1,0,2.64H445.65a1.32,1.32,0,0,1,0-2.64"/><rect x="260.41" y="267.14" width="132.48" height="2.89"/><path class="cls-6" d="M327.33,215.63a10.73,10.73,0,1,1-10.72,10.72,10.72,10.72,0,0,1,10.72-10.72"/><polygon class="cls-10" points="323.01 220.82 334.07 226.35 323.01 231.88 323.01 220.82"/><rect class="cls-11" x="468.51" y="171.85" width="12.62" height="1.38"/><rect class="cls-11" x="468.51" y="174.8" width="12.62" height="1.38"/><rect class="cls-11" x="468.51" y="177.74" width="12.62" height="1.38"/><rect class="cls-21" x="41.54" y="228.07" width="23.32" height="23.08"/><rect class="cls-21" x="69.91" y="228.07" width="34.62" height="10.34"/><rect class="cls-8" x="69.91" y="241.17" width="34.62" height="3.61"/><rect class="cls-8" x="69.91" y="247.55" width="14.79" height="3.61"/><rect class="cls-11" x="48.63" y="190.2" width="14.91" height="13.46"/><rect class="cls-21" x="375.98" y="277.39" width="22.6" height="5.29"/><path class="cls-22" d="M312.79,101.76h12.62v1.38H312.79Zm0-3h12.62v1.38H312.79Zm0,5.89h12.62v1.38H312.79Z"/><path class="cls-23" d="M181.75,274.8a6.25,6.25,0,1,1-6.25,6.25,6.25,6.25,0,0,1,6.25-6.25"/><rect class="cls-20" x="162.52" y="294.83" width="41.66" height="8.11"/><rect class="cls-12" x="256.39" y="278.27" width="74.05" height="2.94"/><path class="cls-24" d="M504.05,62A35.9,35.9,0,1,1,480.6,38.39,35.91,35.91,0,0,1,504.05,62Z"/><path class="cls-25" d="M467.92,41.74c-1.64-.11-3.79.3-2.34,1.36s2.41,1.21,2.32,2.42-1,2.41-.65,3.3.87,1.94,1.52,1.7,2.5-2,3.47-1.84,4.27.58,4.84-.46,1.05-.93,1.94-2.07,1-2.75,0-2.84-1.13.32-2.74.07S474,42,472.42,42.16A26.52,26.52,0,0,1,467.92,41.74Z"/><path class="cls-25" d="M461.8,41.67c-1.94.85-6,2-7.74,1.38-.88-.33-1.92-.77-3.05-1.08a36.06,36.06,0,0,0-15.53,19.8,12,12,0,0,0,1.41,2.63c1.29,1.78,2.74,2.11,4.5,2.6s1.13,1.46,1.93,2.59A7.87,7.87,0,0,0,445.4,72c1,.65-.49,1.61-1,2.74s-.65,1.76,0,4.18,2.88,4.53,3.52,5.5-.65,1.93-.5,3.86-.35,7,1.25,10,2.72,2.75,2.73.82-.47-3.8.76-5.15,3.45-.79,4.43-3.37,1.46-2.41,2.76-3.2.8-1.62,2.1-3.56,1.79-3.84.18-4.82-2.73-1-4-3.07a18.51,18.51,0,0,0-5.36-5.5c-2-1.3-5.41-.19-6.7-.68s-1.92-3.06-1.76-4-.79-1.29-1.76-1.13-1.45-.49-1.61-1.78,1.95-2.73,3.56-2.73,2.42.82,2.57,2.91a4,4,0,0,0,2.88,3.72c1.45.49.65-1.12-.31-2.26s-1-2.09,0-4.35,2.91-1.92,4.53-3.93,1.78-.39,3.22-.06,1.3-.48,1.94-1.77,2.42,0,4-1-1.44-2.9-1.11-4.35,1.78-1.28,1.14-3.54.49-2.25,1.14-3S463.73,40.83,461.8,41.67Zm-2.6,5.18c-.57,1-1,.81-1.86,1.93a4.48,4.48,0,0,1-3,1.72c-.81,0-2-1.5-2-2.38s1.29-1,2.74-1.12a8.1,8.1,0,0,0,4.11-1.51C460.3,44.76,459.77,45.81,459.2,46.85Z"/><path class="cls-25" d="M505.65,72.79v.1a2.56,2.56,0,0,0-1.53,1.3c-1,1.93-1.06,1-3.08,2.24s-1.37,2.33-1.38,3.7-2.35,2.73-3.48,3.13-1.86,3.45-1.63,5-1.62,2-2.83,3.29-2,3.53-2.84,4.57a3.4,3.4,0,0,1-3.47,1.28c-1.29-.33-2.33-2.59-2.88-4.52a11,11,0,0,1-.06-6.05c.58-2,.41-1.76.18-5a5.07,5.07,0,0,0-3.6-4.76c-1.21-.42-3.3.14-4.35-.59s-1.44-1.7-1.91-4.76,1.06-3.62,2.36-5.14A11.25,11.25,0,0,1,481,63.13a6.12,6.12,0,0,1,4.67,1c1.2.73,1.68,2.18,2.57,2.35s1.69-.23,2.57,0,1.45.73,2.34.65.41-1.12.33-1.69-.89-.48-1.93-.57a1.55,1.55,0,0,1-1.61-1.13c-.32-.73-1-.17-1.45-.49s-.48,1-.57,1.46-.4-.42-.4-.42-.48.64-.65.32.33-1,.34-1.82-1.13-.68-1.77-1.33a2.67,2.67,0,0,0-2.58-.57c-1,.24-1.12,0-1.61.8s-2.59,1.19-3.23,1-.07-1.45.58-2.57,1.77-.64,2.58-1.77-.15-1.36-.8-1.61-.8-.89,0-2.34,1.7-1,2-.23a2.34,2.34,0,0,0,2,1.22c.88.08.73-.56.81-1.85a2.41,2.41,0,0,1,1.94-2.33,17,17,0,0,0,4-1.67c.8-.65,2.09-.08,2.73.73s2.17,1.22,3.78,1.63a1.37,1.37,0,0,0,1.19-.29A35.72,35.72,0,0,1,505.65,72.79Z"/><path class="cls-25" d="M497.53,89.87c-.86-.22-.81.07-1.38.72s-1.37,1.36-1.29,2.09.07,1.61.72,1.13.48-1.13,1.37-1.45S498.81,90.2,497.53,89.87Z"/><path class="cls-26" d="M480.33,39.61c-22.27-8.42-27.78,6.78-16.48,17.55s31.74,15.67,35,9.43S496.89,45.87,480.33,39.61Z"/><path class="cls-27" d="M458.58,89.78c-16.54-16-13.71-44.14,2.55-52h0c-.67.16-1.34.34-2,.55a35.92,35.92,0,1,0,42.52,50.8C496.07,95.66,475.12,105.74,458.58,89.78Z"/><path class="cls-28" d="M555.37,45.8c-1.14-.79-2.79-.82-4.7.08a14.65,14.65,0,0,0-7.52,10.9c-.17,2.11.46,3.65,1.6,4.43L547,62.74c1.14.79,2.79.82,4.7-.08a14.65,14.65,0,0,0,7.52-10.89c.17-2.11-.45-3.64-1.59-4.43"/><path class="cls-29" d="M552.9,47.43a14.6,14.6,0,0,0-7.52,10.89c-.34,4.21,2.48,6.15,6.29,4.34a14.65,14.65,0,0,0,7.52-10.89C559.52,47.56,556.71,45.62,552.9,47.43Z"/><path class="cls-28" d="M555.79,57.05l0,.48a10.61,10.61,0,0,1-4,3.52,3.69,3.69,0,0,1-3.67.1l.08-1a6.49,6.49,0,0,1,3.38-4.9l1-.48a2.31,2.31,0,0,1,2.34,0A2.42,2.42,0,0,1,555.79,57.05Z"/><path class="cls-30" d="M555.37,45.8l2.23,1.54c-1.14-.78-2.8-.82-4.7.09a14.35,14.35,0,0,0-6.19,6.45l-2.23-1.55a14.45,14.45,0,0,1,6.19-6.45C552.58,45,554.23,45,555.37,45.8Z"/><path class="cls-25" d="M546.88,62.69l-2.13-1.48c-1.14-.78-1.77-2.32-1.6-4.43l2.23,1.54C545.22,60.37,545.8,61.88,546.88,62.69Z"/><path class="cls-31" d="M544.48,52.33l2.23,1.55a12.22,12.22,0,0,0-1.33,4.44h0l-2.23-1.54A12.4,12.4,0,0,1,544.48,52.33Z"/><path class="cls-11" d="M551.5,54.46a1.29,1.29,0,0,1-.63-.22,1.57,1.57,0,0,1-.57-1.48,4.11,4.11,0,0,1,2.15-3.11h0a1.41,1.41,0,0,1,2.16,1.49,4.1,4.1,0,0,1-2.14,3.11A1.9,1.9,0,0,1,551.5,54.46Z"/><path class="cls-11" d="M554.93,54.78a2.31,2.31,0,0,0-2.34,0l-1,.48a6.49,6.49,0,0,0-3.38,4.9l-.08,1a3.69,3.69,0,0,0,3.67-.1,10.61,10.61,0,0,0,4-3.52l0-.48A2.42,2.42,0,0,0,554.93,54.78Z"/><path class="cls-29" d="M516.93,99.92a11.9,11.9,0,0,0,1.41-4.77,8.6,8.6,0,0,0,1-1.57,5.65,5.65,0,0,1-1,.83,4.51,4.51,0,0,0,.88-1.61A6.5,6.5,0,0,1,518,93.88a1,1,0,0,0-1.23-.1,4,4,0,0,0-1.93,3.56,2.76,2.76,0,0,1-3.44-.62c-.54,1.23-.43,2.44.3,2.74a1.2,1.2,0,0,1-.77.09c-.11,1,.4,1.75,1.23,1.56a2.29,2.29,0,0,1-.8.42,1,1,0,0,0,1.52.77,5.9,5.9,0,0,1-2.68,2.17,3.42,3.42,0,0,0,2.62-.28,9.68,9.68,0,0,0,4.12-4.27"/><path class="cls-28" d="M389.18,83.51c1.25-.59,2.89-.36,4.63.84a14.64,14.64,0,0,1,5.67,12c-.17,2.11-1,3.53-2.29,4.12l-2.44,1.16c-1.24.59-2.89.36-4.62-.84a14.64,14.64,0,0,1-5.68-12c.17-2.1,1-3.52,2.28-4.11"/><path class="cls-29" d="M391.36,85.52a14.62,14.62,0,0,1,5.67,12c-.34,4.21-3.43,5.68-6.9,3.28a14.64,14.64,0,0,1-5.68-12C384.8,84.59,387.89,83.12,391.36,85.52Z"/><path class="cls-11" d="M390.45,90.92c-.77-.53-1.47-.09-1.55,1a3.53,3.53,0,0,0,1.24,2.92c.77.53,1.46.09,1.55-1A3.52,3.52,0,0,0,390.45,90.92Zm-.26,3.22a2.26,2.26,0,0,1-.8-1.89c.05-.7.51-1,1-.64a2.26,2.26,0,0,1,.8,1.89C391.14,94.2,390.69,94.49,390.19,94.14Z"/><path class="cls-11" d="M392.54,91.89c0,.25-.19.35-.37.23a.83.83,0,0,1-.29-.68c0-.26.19-.36.37-.24a.84.84,0,0,1,.29.69"/><path class="cls-11" d="M393.27,90.19l-4.84-3.35c-.34-.23-.65,0-.69.44l-.55,6.78a1.57,1.57,0,0,0,.55,1.29l1.74,1.2,1.44,1,1.67,1.15c.34.24.65,0,.68-.43l.55-6.78A1.55,1.55,0,0,0,393.27,90.19Zm-.6,7.67L388,94.67a.53.53,0,0,1-.22-.48l.52-6.52,4.63,3.2a.52.52,0,0,1,.23.47Z"/><path class="cls-30" d="M389.18,83.51l-2.45,1.17c1.25-.6,2.89-.37,4.63.83a14.42,14.42,0,0,1,5.07,7.37l2.45-1.17a14.41,14.41,0,0,0-5.08-7.36C392.07,83.15,390.43,82.92,389.18,83.51Z"/><path class="cls-25" d="M394.85,101.54l2.34-1.11c1.25-.59,2.12-2,2.29-4.12L397,97.47C396.87,99.52,396,100.92,394.85,101.54Z"/><path class="cls-31" d="M398.88,91.71l-2.45,1.17a12.17,12.17,0,0,1,.6,4.59h0l2.45-1.16A12.22,12.22,0,0,0,398.88,91.71Z"/><path class="cls-28" d="M520.75,10.48c-1.13-.79-2.79-.82-4.7.09a14.61,14.61,0,0,0-7.52,10.89c-.17,2.11.46,3.65,1.61,4.43l2.21,1.54c1.14.78,2.8.82,4.7-.09a14.63,14.63,0,0,0,7.52-10.89c.17-2.1-.45-3.64-1.59-4.42"/><path class="cls-29" d="M518.28,12.11A14.65,14.65,0,0,0,510.76,23c-.34,4.21,2.48,6.15,6.29,4.34a14.63,14.63,0,0,0,7.52-10.89C524.91,12.24,522.09,10.3,518.28,12.11Z"/><path class="cls-30" d="M520.75,10.48,523,12c-1.14-.79-2.79-.83-4.7.08a14.45,14.45,0,0,0-6.19,6.45L509.86,17a14.35,14.35,0,0,1,6.19-6.45C518,9.66,519.62,9.69,520.75,10.48Z"/><path class="cls-25" d="M512.27,27.37l-2.13-1.48c-1.15-.78-1.78-2.32-1.61-4.43L510.76,23C510.6,25.05,511.18,26.57,512.27,27.37Z"/><path class="cls-31" d="M509.86,17l2.23,1.54A12.41,12.41,0,0,0,510.76,23h0l-2.23-1.54A12.35,12.35,0,0,1,509.86,17Z"/><g id="Facebook"><path class="cls-11" d="M516.1,26.06l1.75-.84.46-5.6,1.22-.58.28-1.94-1.35.64.08-1.07c0-.44.12-.65.46-.8l1-.46.16-1.94-1.22.57a3.44,3.44,0,0,0-2.07,3l-.12,1.5-.91.43-.16,1.9.92-.43Z"/></g><path class="cls-28" d="M492.59,122.84c-1.14-.78-2.8-.82-4.7.09a14.6,14.6,0,0,0-7.52,10.89c-.17,2.11.45,3.65,1.6,4.43l2.21,1.54c1.14.79,2.8.82,4.71-.09a14.6,14.6,0,0,0,7.51-10.89c.17-2.1-.45-3.64-1.58-4.42"/><path class="cls-29" d="M490.11,124.47a14.61,14.61,0,0,0-7.51,10.89c-.34,4.21,2.47,6.15,6.29,4.34a14.57,14.57,0,0,0,7.51-10.89C496.74,124.6,493.92,122.66,490.11,124.47Z"/><path class="cls-30" d="M492.59,122.84l2.23,1.55c-1.14-.79-2.8-.83-4.71.08a14.5,14.5,0,0,0-6.19,6.45l-2.23-1.54a14.37,14.37,0,0,1,6.2-6.45C489.79,122,491.45,122.06,492.59,122.84Z"/><path class="cls-25" d="M484.1,139.73,482,138.25c-1.15-.78-1.77-2.32-1.6-4.43l2.23,1.55C482.43,137.42,483,138.93,484.1,139.73Z"/><path class="cls-31" d="M481.69,129.38l2.23,1.54a12.19,12.19,0,0,0-1.32,4.44h0l-2.23-1.55A12.19,12.19,0,0,1,481.69,129.38Z"/><path class="cls-11" d="M488,131.57s1.27-2.37,1.4-2.72a10,10,0,0,0,.13-1.83c0-.24,1.05-.81,1.31-.11a3.56,3.56,0,0,1,0,2.28L493.3,128c.52-.25.7.18.67.5a1.72,1.72,0,0,1-.46,1s.48-.1.44.53a1.7,1.7,0,0,1-.67,1.12s.14.13.11.57a1.82,1.82,0,0,1-.76,1.13,1.33,1.33,0,0,1,.06.57,1.82,1.82,0,0,1-1,1.3l-4.1,2Z"/><polygon class="cls-11" points="485.18 138.51 486.97 137.65 487.42 131.7 485.63 132.56 485.18 138.51"/><path class="cls-29" d="M415.76,55.28h1.1c1.44,0,3.2-.43,3.36-2.47a4.82,4.82,0,0,0-1.87-4c-.89-.62-1.71-.46-2.08.29a4.85,4.85,0,0,0-1.82-3c-1.14-.79-2.16-.31-2.28,1.08-.16,2,1.34,4.69,2.62,6.59Z"/><path class="cls-28" d="M436.31,116.88c1.25-.6,2.89-.37,4.63.83a14.64,14.64,0,0,1,5.67,12c-.17,2.11-1,3.53-2.29,4.12L441.89,135c-1.25.59-2.89.36-4.63-.84a14.62,14.62,0,0,1-5.67-12c.17-2.1,1-3.51,2.28-4.11"/><path class="cls-29" d="M438.49,118.88a14.62,14.62,0,0,1,5.68,12c-.34,4.2-3.43,5.67-6.91,3.27a14.62,14.62,0,0,1-5.67-12C431.93,118,435,116.48,438.49,118.88Z"/><path class="cls-30" d="M436.31,116.88,433.87,118c1.25-.59,2.89-.36,4.62.84a14.41,14.41,0,0,1,5.08,7.36l2.45-1.17a14.41,14.41,0,0,0-5.08-7.36C439.2,116.51,437.56,116.28,436.31,116.88Z"/><path class="cls-25" d="M442,134.91l2.34-1.12c1.26-.59,2.12-2,2.29-4.12l-2.44,1.17C444,132.89,443.18,134.29,442,134.91Z"/><path class="cls-31" d="M446,125.07l-2.45,1.17a12.45,12.45,0,0,1,.6,4.6h0l2.44-1.17A12.23,12.23,0,0,0,446,125.07Z"/><path class="cls-11" d="M436.14,122.14l-.52,6.39c0,.48.13.84.37.82l4.49-.5c.24,0,.17-.46-.15-1l-3.54-5.68C436.47,121.69,436.18,121.66,436.14,122.14Z"/><path class="cls-28" d="M389.6,29.06c1.25-.6,2.89-.36,4.62.84a14.6,14.6,0,0,1,5.68,12c-.17,2.11-1,3.53-2.29,4.12l-2.44,1.16c-1.24.6-2.89.37-4.62-.83a14.62,14.62,0,0,1-5.68-12c.17-2.1,1-3.52,2.28-4.11"/><path class="cls-29" d="M391.78,31.06a14.64,14.64,0,0,1,5.67,12c-.34,4.21-3.43,5.67-6.9,3.28a14.63,14.63,0,0,1-5.68-12C385.22,30.13,388.31,28.67,391.78,31.06Z"/><path class="cls-30" d="M389.6,29.06l-2.45,1.17c1.25-.6,2.89-.37,4.63.83a14.4,14.4,0,0,1,5.07,7.36l2.45-1.16a14.37,14.37,0,0,0-5.08-7.36C392.49,28.7,390.85,28.46,389.6,29.06Z"/><path class="cls-25" d="M395.27,47.09,397.61,46c1.25-.59,2.12-2,2.29-4.12L397.45,43C397.28,45.07,396.46,46.47,395.27,47.09Z"/><path class="cls-31" d="M399.3,37.26l-2.45,1.16a12.24,12.24,0,0,1,.6,4.6h0l2.45-1.17A12.17,12.17,0,0,0,399.3,37.26Z"/><path class="cls-11" d="M390.08,32.91l-.53,6.56a2.33,2.33,0,0,0-.41-.37c-.47-.33-.91,0-1,.79a2.4,2.4,0,0,0,.75,2c.47.33,1.09.09,1.15-.68l.49-6,2.75,1.92-.38,4.71a2.33,2.33,0,0,0-.41-.37c-.47-.33-.75.13-.81.89a2.37,2.37,0,0,0,.75,2c.47.33.9,0,1-.79h0l.63-7.86Z"/><path class="cls-28" d="M548.06,99.13c-1.14-.79-2.8-.82-4.7.08a14.62,14.62,0,0,0-7.52,10.9c-.17,2.11.45,3.65,1.6,4.43l2.21,1.54c1.14.78,2.8.82,4.71-.09a14.62,14.62,0,0,0,7.51-10.89c.17-2.1-.45-3.64-1.58-4.42"/><path class="cls-29" d="M545.58,100.76a14.61,14.61,0,0,0-7.51,10.89c-.34,4.21,2.47,6.15,6.29,4.34a14.59,14.59,0,0,0,7.51-10.89C552.21,100.89,549.39,99,545.58,100.76Z"/><path class="cls-30" d="M548.06,99.13l2.23,1.55c-1.14-.79-2.8-.83-4.71.08a14.45,14.45,0,0,0-6.19,6.45l-2.23-1.54a14.45,14.45,0,0,1,6.2-6.46C545.26,98.31,546.92,98.34,548.06,99.13Z"/><path class="cls-25" d="M539.57,116l-2.13-1.48c-1.15-.78-1.77-2.32-1.6-4.43l2.23,1.54C537.9,113.7,538.49,115.22,539.57,116Z"/><path class="cls-31" d="M537.16,105.67l2.23,1.54a12.19,12.19,0,0,0-1.32,4.44h0l-2.23-1.54A12.14,12.14,0,0,1,537.16,105.67Z"/><path class="cls-11" d="M541.85,105.87l-.67,8.29c0,.25.15.36.37.25l6.09-2.89a.84.84,0,0,0,.45-.64l.66-8.29c0-.24-.14-.36-.37-.25l-6.08,2.89A.84.84,0,0,0,541.85,105.87Zm5.45,5.27L542,113.67c-.22.1-.39,0-.37-.26l.58-7.16a.87.87,0,0,1,.44-.64l5.32-2.52c.23-.11.39,0,.37.25l-.57,7.16A.84.84,0,0,1,547.3,111.14Z"/><polygon class="cls-11" points="541.58 113.86 541.77 111.53 543.9 108.13 545.65 110.39 545.32 109.34 546.2 108 547.84 109.33 547.71 110.95 541.58 113.86"/><path class="cls-11" d="M546.72,105.13c.24-.12.42.08.39.44a1.1,1.1,0,0,1-.5.86c-.24.12-.42-.08-.39-.44A1.11,1.11,0,0,1,546.72,105.13Z"/><path class="cls-28" d="M434.25,23.24l-1.11-2.56,1.3-2.95.15-1.85-3.36,1.6-.15,1.85,1.18,2.5a.26.26,0,0,0,.09.09h0Z"/><path class="cls-25" d="M434.25,23.24l-1.11-2.56,1.3-2.95.15-1.85-3.36,1.6-.15,1.85,1.18,2.5a.26.26,0,0,0,.09.09h0Z"/><path class="cls-29" d="M449.81,2.58A2.13,2.13,0,0,0,449,.83l-.75-.51a2.13,2.13,0,0,0-1.92-.16l-19,9a2.11,2.11,0,0,0-1.1,1.59l-.76,9.39a2.12,2.12,0,0,0,.83,1.74l.75.52a2.1,2.1,0,0,0,1.92.15L433,20.66l1.18,2.5a.21.21,0,0,0,.38,0l1.79-4.08L448,13.56a2.15,2.15,0,0,0,1.1-1.59Z"/><path class="cls-32" d="M425.45,20.17a2.12,2.12,0,0,0,.83,1.74l.75.52a2.17,2.17,0,0,0,1.75.22c-.47.13-.79-.15-.75-.7l.76-9.39a2,2,0,0,1,.36-.93l-2.58-1.78a1.92,1.92,0,0,0-.36.93Z"/><path class="cls-33" d="M449.8,2.3c-.08-.42-.44-.58-.91-.36l-19,9a1.93,1.93,0,0,0-.74.66l-2.58-1.78a1.93,1.93,0,0,1,.74-.66l19-9a2.13,2.13,0,0,1,1.92.16l.75.51A2.11,2.11,0,0,1,449.8,2.3Z"/><path class="cls-11" d="M434.08,13.14a2.85,2.85,0,0,0-1.46,2.12c-.07.82.48,1.2,1.22.84A2.84,2.84,0,0,0,435.31,14C435.37,13.16,434.83,12.78,434.08,13.14Z"/><path class="cls-11" d="M439,10.78a2.83,2.83,0,0,0-1.46,2.12c-.07.82.48,1.2,1.22.85a2.9,2.9,0,0,0,1.47-2.13C440.33,10.8,439.78,10.43,439,10.78Z"/><path class="cls-11" d="M444,8.42a2.83,2.83,0,0,0-1.46,2.12c-.07.82.48,1.2,1.22.85a2.83,2.83,0,0,0,1.46-2.12C445.29,8.45,444.74,8.07,444,8.42Z"/><path class="cls-29" d="M519.88,62.37l8.72-4.14a.66.66,0,0,0,.33-.53l.61-7.5c0-.21-.1-.32-.27-.24l-8.72,4.14a.71.71,0,0,0-.34.53l-.6,7.5C519.59,62.34,519.71,62.45,519.88,62.37Z"/><path class="cls-11" d="M519.61,62.13V62l3.91-5.43-3.25-2.16,0-.06,4.09,2.11c.09,0,.21,0,.31-.15L529.48,50l0,0-3.86,5.54,3.31,2,0,.14a.8.8,0,0,1-.11.34l-3.38-2.21-.57.82c-.23.32-.51.45-.7.33l-.48-.32-4,5.71A.28.28,0,0,1,519.61,62.13Z"/><path class="cls-29" d="M422.7,85.39a5.28,5.28,0,0,1,.62.94,6.91,6.91,0,0,1,.45,1,7.14,7.14,0,0,1,.27,1,4.35,4.35,0,0,1,.07.91.34.34,0,0,1-.08.2s-.08,0-.12,0l-1.07-.74a.58.58,0,0,1-.17-.18,1.46,1.46,0,0,1-.13-.28s0-.11-.07-.21a2.4,2.4,0,0,0-.13-.32,2.2,2.2,0,0,0-.23-.37,1.59,1.59,0,0,0-.35-.33,1.46,1.46,0,0,0-.3-.16.65.65,0,0,0-.26-.06A.28.28,0,0,0,421,87a.56.56,0,0,0-.1.33,1,1,0,0,0,0,.43,1.86,1.86,0,0,0,.24.46,5.74,5.74,0,0,0,.46.58l.73.8a8,8,0,0,1,.74,1,4.86,4.86,0,0,1,.51,1,5.92,5.92,0,0,1,.26,1.14,8.11,8.11,0,0,1,0,1.31,3.86,3.86,0,0,1-.23,1.08,1.82,1.82,0,0,1-.44.69,1.07,1.07,0,0,1-.62.28,1.54,1.54,0,0,1-.77-.11l-.08,1.08a.38.38,0,0,1-.09.24.11.11,0,0,1-.16,0l-1.07-.74a.4.4,0,0,1-.14-.23.75.75,0,0,1,0-.33l.09-1.12a5,5,0,0,1-.67-1,7.8,7.8,0,0,1-.48-1.07,6.3,6.3,0,0,1-.27-1.1,4.5,4.5,0,0,1-.06-1,.34.34,0,0,1,.07-.2.09.09,0,0,1,.13,0l1.06.73a.52.52,0,0,1,.18.18.9.9,0,0,1,.11.24l.09.27a2.25,2.25,0,0,0,.15.4,2.46,2.46,0,0,0,.25.44,1.53,1.53,0,0,0,.41.39,1.59,1.59,0,0,0,.73.32c.2,0,.31-.13.34-.43a1,1,0,0,0-.08-.45,2.44,2.44,0,0,0-.29-.5c-.14-.18-.31-.39-.52-.62l-.75-.84a5.21,5.21,0,0,1-1.13-2,6.09,6.09,0,0,1-.22-2.34,3.72,3.72,0,0,1,.19-.95,2.05,2.05,0,0,1,.37-.69,1.27,1.27,0,0,1,.55-.38,1.33,1.33,0,0,1,.69,0l.09-1.12a.38.38,0,0,1,.09-.24.11.11,0,0,1,.16,0l1.07.74a.53.53,0,0,1,.14.23.75.75,0,0,1,0,.33Z"/><path class="cls-25" d="M480.35,11.48l-1.46-1h0a2.69,2.69,0,0,0-2.89-.06,9.29,9.29,0,0,0-4.62,7l-.05.63c-.22,2.74,3.23,6,3.23,6L476,25s-.83-1.11-.71-1.31c1.15-1.95,4.3-7.45,4.48-9.69l.05-.62a4.61,4.61,0,0,0-.06-1.36l.16.12Zm-4.91,5.93c-1.16.55-2,0-1.92-1.33.61,0,2.32-2.49,2.3-3.33,1.16-.55,2,0,1.92,1.33A4.44,4.44,0,0,1,475.44,17.41Z"/><path class="cls-29" d="M481.36,14.45c.22-2.74-1.49-4.07-3.82-3a9.23,9.23,0,0,0-4.62,7l-.05.63c-.17,2.11,2,4.75,3,5.85a.54.54,0,0,0,.87-.09c1.11-1.86,4.35-7.5,4.53-9.77Zm-4.38,4c-1.17.55-2,0-1.92-1.33a4.49,4.49,0,0,1,2.29-3.33c1.17-.55,2,0,1.93,1.33A4.49,4.49,0,0,1,477,18.47Z"/><g id="Lines" class="cls-34"><line class="cls-35" x1="521.6" y1="21.64" x2="549.42" y2="48.27"/><line class="cls-35" x1="549.55" y1="62.1" x2="544.76" y2="99.67"/><line class="cls-35" x1="541.9" y1="101.76" x2="525.18" y2="63.09"/><line class="cls-35" x1="530.63" y1="53.92" x2="545.63" y2="52.18"/><line class="cls-35" x1="515.37" y1="27.62" x2="523.25" y2="50.62"/><line class="cls-35" x1="513.25" y1="15.24" x2="481.17" y2="17.86"/><line class="cls-35" x1="480.59" y1="21.26" x2="520.82" y2="51.9"/><line class="cls-35" x1="523.03" y1="62.92" x2="517.45" y2="91.54"/><line class="cls-35" x1="537.09" y1="110.98" x2="494.73" y2="131.27"/><line class="cls-35" x1="519.7" y1="99.36" x2="538.24" y2="106.41"/><line class="cls-35" x1="510.72" y1="106.27" x2="494.82" y2="124.39"/><line class="cls-35" x1="425.03" y1="96.49" x2="439.22" y2="118.03"/><line class="cls-35" x1="397.94" y1="94.82" x2="415.64" y2="89.37"/><line class="cls-35" x1="420.95" y1="80.13" x2="417.44" y2="58.19"/><line class="cls-35" x1="412.68" y1="54.62" x2="393.65" y2="85.95"/><line class="cls-35" x1="391.43" y1="84.61" x2="390.85" y2="45.31"/><line class="cls-35" x1="396.83" y1="100.03" x2="434.41" y2="125.97"/><line class="cls-35" x1="417.94" y1="46.63" x2="430.37" y2="23.49"/><line class="cls-35" x1="451.15" y1="10.27" x2="470.67" y2="16.79"/><line class="cls-35" x1="424.18" y1="16.74" x2="395.84" y2="33.92"/><line class="cls-35" x1="398.92" y1="39.65" x2="410.91" y2="46.49"/><line class="cls-35" x1="468.68" y1="20.98" x2="420.78" y2="49.66"/><line class="cls-36" x1="445.19" y1="126.74" x2="482.36" y2="129.77"/></g></g></g></g></svg>