<svg xmlns="http://www.w3.org/2000/svg" xmlns:xlink="http://www.w3.org/1999/xlink" viewBox="0 0 1532 559.97"><defs><style>.cls-1{fill:none;}.cls-2{isolation:isolate;}.cls-3{clip-path:url(#clip-path);}.cls-4,.cls-5{opacity:0.2;}.cls-4{mix-blend-mode:color-burn;fill:url(#linear-gradient);}.cls-6{fill:#fff;}</style><clipPath id="clip-path"><rect class="cls-1" x="128" width="1276" height="558"/></clipPath><linearGradient id="linear-gradient" x1="777.03" y1="660.6" x2="777.03" y2="149.41" gradientUnits="userSpaceOnUse"><stop offset="0.21" stop-color="#9e28b5" stop-opacity="0"/><stop offset="1" stop-color="#9e28b5" stop-opacity="0.5"/></linearGradient></defs><g class="cls-2"><g id="Layer_2" data-name="Layer 2"><g id="Layer_1-2" data-name="Layer 1"><g class="cls-3"><polygon class="cls-4" points="945.84 558 1268 0 286.07 0 608.23 558 945.84 558"/><g class="cls-5"><polygon class="cls-6" points="438.83 536.22 579.59 555.8 582 559.97 441.24 540.4 438.83 536.22"/><polygon class="cls-6" points="426.45 514.77 567.21 534.35 569.62 538.52 428.86 518.95 426.45 514.77"/><polygon class="cls-6" points="414.07 493.33 554.83 512.9 557.24 517.08 416.48 497.5 414.07 493.33"/><polygon class="cls-6" points="401.7 471.88 542.45 491.45 544.86 495.62 404.11 476.06 401.7 471.88"/><polygon class="cls-6" points="389.31 450.43 530.07 470 532.48 474.18 391.72 454.6 389.31 450.43"/><polygon class="cls-6" points="376.94 428.99 517.69 448.55 520.1 452.73 379.35 433.16 376.94 428.99"/><polygon class="cls-6" points="364.55 407.53 505.31 427.11 507.72 431.28 366.96 411.71 364.55 407.53"/><polygon class="cls-6" points="352.17 386.09 492.93 405.66 495.34 409.84 354.58 390.26 352.17 386.09"/><polygon class="cls-6" points="339.79 364.64 480.55 384.21 482.96 388.39 342.2 368.81 339.79 364.64"/><polygon class="cls-6" points="327.41 343.19 468.17 362.77 470.58 366.94 329.82 347.37 327.41 343.19"/><polygon class="cls-6" points="315.03 321.74 455.79 341.31 458.2 345.49 317.44 325.91 315.03 321.74"/><polygon class="cls-6" points="302.65 300.3 443.41 319.87 445.82 324.05 305.06 304.47 302.65 300.3"/><polygon class="cls-6" points="290.27 278.85 431.03 298.42 433.44 302.59 292.68 283.03 290.27 278.85"/><polygon class="cls-6" points="277.89 257.4 418.65 276.97 421.06 281.15 280.3 261.57 277.89 257.4"/><polygon class="cls-6" points="265.51 235.96 406.27 255.52 408.68 259.7 267.92 240.13 265.51 235.96"/><polygon class="cls-6" points="253.13 214.5 393.89 234.08 396.3 238.25 255.54 218.68 253.13 214.5"/><polygon class="cls-6" points="240.75 193.06 381.51 212.63 383.92 216.81 243.16 197.23 240.75 193.06"/><polygon class="cls-6" points="228.37 171.61 369.13 191.18 371.54 195.35 230.78 175.78 228.37 171.61"/><polygon class="cls-6" points="215.99 150.16 356.75 169.74 359.16 173.91 218.4 154.34 215.99 150.16"/><polygon class="cls-6" points="203.62 128.72 344.37 148.28 346.78 152.46 206.02 132.89 203.62 128.72"/><polygon class="cls-6" points="191.23 107.27 331.99 126.84 334.4 131.01 193.64 111.44 191.23 107.27"/><polygon class="cls-6" points="178.85 85.82 319.61 105.39 322.01 109.56 181.26 90 178.85 85.82"/><polygon class="cls-6" points="166.47 64.37 307.23 83.94 309.64 88.12 168.88 68.54 166.47 64.37"/><polygon class="cls-6" points="154.09 42.92 294.85 62.5 297.26 66.67 156.5 47.1 154.09 42.92"/><polygon class="cls-6" points="141.71 21.47 282.47 41.05 284.88 45.22 144.12 25.65 141.71 21.47"/><polygon class="cls-6" points="129.33 0.03 270.09 19.6 272.5 23.78 131.74 4.2 129.33 0.03"/></g><g class="cls-5"><polygon class="cls-6" points="1115.5 536.22 974.74 555.8 972.33 559.97 1113.09 540.4 1115.5 536.22"/><polygon class="cls-6" points="1127.88 514.77 987.13 534.35 984.72 538.52 1125.47 518.95 1127.88 514.77"/><polygon class="cls-6" points="1140.26 493.33 999.5 512.9 997.09 517.08 1137.85 497.5 1140.26 493.33"/><polygon class="cls-6" points="1152.64 471.88 1011.89 491.45 1009.48 495.62 1150.23 476.06 1152.64 471.88"/><polygon class="cls-6" points="1165.02 450.43 1024.26 470 1021.85 474.18 1162.61 454.6 1165.02 450.43"/><polygon class="cls-6" points="1177.4 428.99 1036.65 448.55 1034.24 452.73 1174.99 433.16 1177.4 428.99"/><polygon class="cls-6" points="1189.78 407.53 1049.02 427.11 1046.62 431.28 1187.37 411.71 1189.78 407.53"/><polygon class="cls-6" points="1202.16 386.09 1061.4 405.66 1058.99 409.84 1199.75 390.26 1202.16 386.09"/><polygon class="cls-6" points="1214.54 364.64 1073.79 384.21 1071.38 388.39 1212.13 368.81 1214.54 364.64"/><polygon class="cls-6" points="1226.92 343.19 1086.16 362.77 1083.75 366.94 1224.51 347.37 1226.92 343.19"/><polygon class="cls-6" points="1239.3 321.74 1098.55 341.31 1096.14 345.49 1236.89 325.91 1239.3 321.74"/><polygon class="cls-6" points="1251.68 300.3 1110.92 319.87 1108.51 324.05 1249.27 304.47 1251.68 300.3"/><polygon class="cls-6" points="1264.06 278.85 1123.31 298.42 1120.9 302.59 1261.65 283.03 1264.06 278.85"/><polygon class="cls-6" points="1276.44 257.4 1135.68 276.97 1133.28 281.15 1274.03 261.57 1276.44 257.4"/><polygon class="cls-6" points="1288.82 235.96 1148.07 255.52 1145.66 259.7 1286.41 240.13 1288.82 235.96"/><polygon class="cls-6" points="1301.2 214.5 1160.44 234.08 1158.04 238.25 1298.79 218.68 1301.2 214.5"/><polygon class="cls-6" points="1313.58 193.06 1172.82 212.63 1170.41 216.81 1311.17 197.23 1313.58 193.06"/><polygon class="cls-6" points="1325.96 171.61 1185.21 191.18 1182.8 195.35 1323.55 175.78 1325.96 171.61"/><polygon class="cls-6" points="1338.34 150.16 1197.58 169.74 1195.17 173.91 1335.93 154.34 1338.34 150.16"/><polygon class="cls-6" points="1350.72 128.72 1209.97 148.28 1207.56 152.46 1348.31 132.89 1350.72 128.72"/><polygon class="cls-6" points="1363.1 107.27 1222.35 126.84 1219.93 131.01 1360.69 111.44 1363.1 107.27"/><polygon class="cls-6" points="1375.48 85.82 1234.73 105.39 1232.32 109.56 1373.07 90 1375.48 85.82"/><polygon class="cls-6" points="1387.86 64.37 1247.11 83.94 1244.7 88.12 1385.45 68.54 1387.86 64.37"/><polygon class="cls-6" points="1400.24 42.92 1259.48 62.5 1257.07 66.67 1397.83 47.1 1400.24 42.92"/><polygon class="cls-6" points="1412.62 21.47 1271.87 41.05 1269.46 45.22 1410.21 25.65 1412.62 21.47"/><polygon class="cls-6" points="1425 0.03 1284.24 19.6 1281.83 23.78 1422.59 4.2 1425 0.03"/></g></g><rect class="cls-1" width="1532" height="558"/></g></g></g></svg>