<svg xmlns="http://www.w3.org/2000/svg" viewBox="0 0 205.14 79.17"><defs><style>.cls-1{fill:#fff;}</style></defs><g id="Layer_2" data-name="Layer 2"><g id="Layer_1-2" data-name="Layer 1"><path class="cls-1" d="M48.48,51.24a5,5,0,0,1-2.21-2,5.8,5.8,0,0,1-.75-3,8.46,8.46,0,0,1,1-4.15,7.59,7.59,0,0,1,2.93-3A8.52,8.52,0,0,1,53.87,38a7.84,7.84,0,0,1,2.92.52,4.39,4.39,0,0,1,2,1.48l-1,.9a4.84,4.84,0,0,0-4-1.6,6.79,6.79,0,0,0-3.57.93,6.38,6.38,0,0,0-2.39,2.5A7.16,7.16,0,0,0,47,46.18a4.23,4.23,0,0,0,1.32,3.27A5.38,5.38,0,0,0,52,50.67,6,6,0,0,0,56.4,49l.84,1A6,6,0,0,1,55,51.45a8.74,8.74,0,0,1-3,.51A7.64,7.64,0,0,1,48.48,51.24Z" transform="translate(-0.16)"/><path class="cls-1" d="M62.18,37.3h1.39l-2.9,14.54H59.28Z" transform="translate(-0.16)"/><path class="cls-1" d="M66.59,41.53H68l-2,10.31H64.55ZM67.21,39a.89.89,0,0,1-.27-.64,1,1,0,0,1,.31-.76,1,1,0,0,1,.77-.3,1,1,0,0,1,.69.26.84.84,0,0,1,.27.62,1.06,1.06,0,0,1-.31.78,1.07,1.07,0,0,1-.79.32A.86.86,0,0,1,67.21,39Z" transform="translate(-0.16)"/><path class="cls-1" d="M81.29,41.53,78.47,55.64H77.08l1-5.35a4.69,4.69,0,0,1-1.72,1.23,5.64,5.64,0,0,1-2.2.42,5,5,0,0,1-2.33-.53,3.82,3.82,0,0,1-1.59-1.52,4.56,4.56,0,0,1-.56-2.32,6.53,6.53,0,0,1,.75-3.14,5.55,5.55,0,0,1,2.09-2.18,5.71,5.71,0,0,1,3-.8,4.85,4.85,0,0,1,2.5.61,3.52,3.52,0,0,1,1.46,1.72L80,41.53ZM76.8,50.09a4.32,4.32,0,0,0,1.6-1.73A5.33,5.33,0,0,0,79,45.88a3.14,3.14,0,0,0-.89-2.36,3.48,3.48,0,0,0-2.5-.85,4.38,4.38,0,0,0-2.3.62A4.32,4.32,0,0,0,71.7,45a5.21,5.21,0,0,0-.58,2.48A3,3,0,0,0,72,49.86a3.5,3.5,0,0,0,2.5.84A4.34,4.34,0,0,0,76.8,50.09Z" transform="translate(-0.16)"/><path class="cls-1" d="M94.46,41.53l-2,10.31H91.07l.34-1.64a4.92,4.92,0,0,1-4,1.74,3.87,3.87,0,0,1-2.7-.89,3.2,3.2,0,0,1-1-2.48,6,6,0,0,1,.12-1.16l1.17-5.88h1.4l-1.18,5.88a5,5,0,0,0-.1.92,2.27,2.27,0,0,0,.66,1.75,2.83,2.83,0,0,0,2,.61,4,4,0,0,0,2.72-.93A4.61,4.61,0,0,0,92,47.08l1.1-5.55Z" transform="translate(-0.16)"/><path class="cls-1" d="M97.6,47.08a3.81,3.81,0,0,0,0,.41,3.1,3.1,0,0,0,.89,2.39,3.8,3.8,0,0,0,2.66.82,5.26,5.26,0,0,0,1.91-.34,3.86,3.86,0,0,0,1.46-1l.63,1a5.07,5.07,0,0,1-1.82,1.13,6.51,6.51,0,0,1-2.3.4,5,5,0,0,1-3.52-1.18,4.14,4.14,0,0,1-1.28-3.21,6.59,6.59,0,0,1,.73-3.12,5.53,5.53,0,0,1,5-3,4.54,4.54,0,0,1,3.28,1.17,4.22,4.22,0,0,1,1.21,3.2,6.64,6.64,0,0,1-.14,1.26Zm1.63-3.53A4.52,4.52,0,0,0,97.74,46h7.35a3.41,3.41,0,0,0,0-.37,2.9,2.9,0,0,0-.88-2.25,3.4,3.4,0,0,0-2.36-.79A4,4,0,0,0,99.23,43.55Z" transform="translate(-0.16)"/><path class="cls-1" d="M123.07,42.34a3.18,3.18,0,0,1,1,2.46,6.3,6.3,0,0,1-.12,1.18l-1.17,5.86h-1.39L122.53,46a5,5,0,0,0,.1-.94A2.16,2.16,0,0,0,122,43.3a3,3,0,0,0-2-.59,4.08,4.08,0,0,0-2.74.91,4.63,4.63,0,0,0-1.45,2.69l-1.1,5.53h-1.39l2-10.31h1.33l-.33,1.65a5,5,0,0,1,4-1.73A3.86,3.86,0,0,1,123.07,42.34Z" transform="translate(-0.16)"/><path class="cls-1" d="M128.71,51.4a3.91,3.91,0,0,1-1.64-1.53,4.54,4.54,0,0,1-.58-2.3,6.43,6.43,0,0,1,.77-3.14,5.62,5.62,0,0,1,2.12-2.18,6,6,0,0,1,3.07-.8,4.79,4.79,0,0,1,3.42,1.18,4.09,4.09,0,0,1,1.27,3.17,6.44,6.44,0,0,1-.77,3.15,5.68,5.68,0,0,1-2.12,2.2,6.1,6.1,0,0,1-3.07.79A5.35,5.35,0,0,1,128.71,51.4Zm4.86-1.31a4.32,4.32,0,0,0,1.6-1.73,5.33,5.33,0,0,0,.58-2.48,3.1,3.1,0,0,0-.9-2.36,3.44,3.44,0,0,0-2.5-.85,4.34,4.34,0,0,0-2.29.62,4.41,4.41,0,0,0-1.6,1.74,5.33,5.33,0,0,0-.58,2.48,3.05,3.05,0,0,0,.9,2.35,3.48,3.48,0,0,0,2.5.84A4.34,4.34,0,0,0,133.57,50.09Z" transform="translate(-0.16)"/><path class="cls-1" d="M153.42,42A3.86,3.86,0,0,1,155,43.49a4.52,4.52,0,0,1,.57,2.31,6.55,6.55,0,0,1-.75,3.15,5.67,5.67,0,0,1-2.09,2.2,5.84,5.84,0,0,1-3,.79,4.83,4.83,0,0,1-2.47-.58,3.3,3.3,0,0,1-1.45-1.67l-1.18,6h-1.39l2.81-14.11h1.33l-.33,1.65a5,5,0,0,1,1.76-1.29,5.68,5.68,0,0,1,2.25-.44A5.11,5.11,0,0,1,153.42,42ZM152,50.09a4.26,4.26,0,0,0,1.59-1.72,5.2,5.2,0,0,0,.58-2.49,3.14,3.14,0,0,0-.89-2.36,3.48,3.48,0,0,0-2.5-.85A4.22,4.22,0,0,0,146.91,45a5.27,5.27,0,0,0-.58,2.5,3.08,3.08,0,0,0,.89,2.35,3.52,3.52,0,0,0,2.5.84A4.28,4.28,0,0,0,152,50.09Z" transform="translate(-0.16)"/><path class="cls-1" d="M160.21,37.3h1.39l-2.9,14.54h-1.39Z" transform="translate(-0.16)"/><path class="cls-1" d="M174.05,41.53,172,51.84h-1.33l.33-1.63a5.28,5.28,0,0,1-1.76,1.28,5.56,5.56,0,0,1-2.26.45,5,5,0,0,1-2.33-.53,3.82,3.82,0,0,1-1.59-1.52,4.56,4.56,0,0,1-.57-2.32,6.43,6.43,0,0,1,.76-3.14,5.59,5.59,0,0,1,2.08-2.18,5.73,5.73,0,0,1,3-.8,4.91,4.91,0,0,1,2.47.58,3.36,3.36,0,0,1,1.45,1.66l.44-2.16Zm-4.49,8.56a4.32,4.32,0,0,0,1.6-1.73,5.33,5.33,0,0,0,.57-2.48,3.1,3.1,0,0,0-.89-2.36,3.46,3.46,0,0,0-2.5-.85,4.34,4.34,0,0,0-2.29.62,4.41,4.41,0,0,0-1.6,1.74,5.33,5.33,0,0,0-.58,2.48,3.05,3.05,0,0,0,.9,2.35,3.48,3.48,0,0,0,2.5.84A4.36,4.36,0,0,0,169.56,50.09Z" transform="translate(-0.16)"/><path class="cls-1" d="M186.59,41.53l-7.52,11.64a7,7,0,0,1-1.77,2,3.35,3.35,0,0,1-2,.56,4.09,4.09,0,0,1-1.41-.24,2.55,2.55,0,0,1-1-.68l.75-1a2.38,2.38,0,0,0,1.82.75,2.11,2.11,0,0,0,1.23-.38,4.27,4.27,0,0,0,1.14-1.29l.73-1.1L176,41.53h1.41l2.14,8.78,5.62-8.78Z" transform="translate(-0.16)"/><path class="cls-1" d="M187.49,47.08a3.81,3.81,0,0,0,0,.41,3.07,3.07,0,0,0,.9,2.39,3.77,3.77,0,0,0,2.65.82,5.22,5.22,0,0,0,1.91-.34,3.71,3.71,0,0,0,1.46-1l.63,1a5,5,0,0,1-1.81,1.13,6.55,6.55,0,0,1-2.3.4,5,5,0,0,1-3.52-1.18,4.12,4.12,0,0,1-1.29-3.21,6.59,6.59,0,0,1,.74-3.12,5.53,5.53,0,0,1,5-3,4.52,4.52,0,0,1,3.27,1.17,4.23,4.23,0,0,1,1.22,3.2,6.64,6.64,0,0,1-.14,1.26Zm1.63-3.53A4.57,4.57,0,0,0,187.63,46H195a2,2,0,0,0,0-.37,2.87,2.87,0,0,0-.88-2.25,3.38,3.38,0,0,0-2.35-.79A4,4,0,0,0,189.12,43.55Z" transform="translate(-0.16)"/><path class="cls-1" d="M202.78,41.93a6,6,0,0,1,2.51-.48L205,42.8l-.39,0a4,4,0,0,0-2.74,1,5,5,0,0,0-1.44,2.86l-1,5.23H198l2-10.31h1.33l-.35,1.88A4.28,4.28,0,0,1,202.78,41.93Z" transform="translate(-0.16)"/><path class="cls-1" d="M10.32,65.5A3.89,3.89,0,0,1,11.92,67a4.56,4.56,0,0,1,.57,2.32,6.54,6.54,0,0,1-.76,3.14,5.54,5.54,0,0,1-2.09,2.2,5.69,5.69,0,0,1-3,.79,4.8,4.8,0,0,1-2.47-.58,3.36,3.36,0,0,1-1.46-1.67l-1.17,6H.16L3,65.05H4.29L4,66.7a4.93,4.93,0,0,1,1.76-1.28A5.53,5.53,0,0,1,8,65,5.1,5.1,0,0,1,10.32,65.5ZM8.91,73.61a4.34,4.34,0,0,0,1.59-1.72,5.31,5.31,0,0,0,.58-2.48,3.11,3.11,0,0,0-.9-2.37,3.44,3.44,0,0,0-2.5-.85,4.28,4.28,0,0,0-2.28.62,4.34,4.34,0,0,0-1.59,1.72A5.39,5.39,0,0,0,3.23,71a3.05,3.05,0,0,0,.9,2.35,3.44,3.44,0,0,0,2.5.85A4.28,4.28,0,0,0,8.91,73.61Z" transform="translate(-0.16)"/><path class="cls-1" d="M25.68,65.05,23.62,75.36H22.29l.33-1.62A5.15,5.15,0,0,1,20.86,75a5.53,5.53,0,0,1-2.26.45,4.91,4.91,0,0,1-2.33-.53,3.82,3.82,0,0,1-1.59-1.52,4.56,4.56,0,0,1-.57-2.32A6.43,6.43,0,0,1,14.87,68,5.62,5.62,0,0,1,17,65.77a5.68,5.68,0,0,1,3-.8,4.93,4.93,0,0,1,2.47.58,3.46,3.46,0,0,1,1.45,1.66l.43-2.16Zm-4.49,8.56a4.32,4.32,0,0,0,1.6-1.73,5.29,5.29,0,0,0,.58-2.47,3.11,3.11,0,0,0-.9-2.37,3.44,3.44,0,0,0-2.5-.85,4.29,4.29,0,0,0-2.29.63,4.38,4.38,0,0,0-1.6,1.73A5.36,5.36,0,0,0,15.5,71a3.05,3.05,0,0,0,.9,2.35,3.44,3.44,0,0,0,2.5.85A4.34,4.34,0,0,0,21.19,73.61Z" transform="translate(-0.16)"/><path class="cls-1" d="M32.25,65.45a5.9,5.9,0,0,1,2.5-.48l-.25,1.36-.39,0a4,4,0,0,0-2.74,1,5,5,0,0,0-1.44,2.86l-1,5.23H27.5l2-10.31h1.33l-.35,1.89A4.27,4.27,0,0,1,32.25,65.45Z" transform="translate(-0.16)"/><path class="cls-1" d="M46.57,65.05l-2,10.31H43.18l.34-1.62A5.19,5.19,0,0,1,41.75,75a5.51,5.51,0,0,1-2.25.45,4.85,4.85,0,0,1-2.33-.53,3.82,3.82,0,0,1-1.59-1.52A4.56,4.56,0,0,1,35,71.09,6.53,6.53,0,0,1,35.76,68a5.68,5.68,0,0,1,5.07-3,4.93,4.93,0,0,1,2.47.58,3.36,3.36,0,0,1,1.45,1.66l.43-2.16Zm-4.48,8.56a4.23,4.23,0,0,0,1.59-1.73,5.17,5.17,0,0,0,.58-2.47A3.14,3.14,0,0,0,43.37,67a3.48,3.48,0,0,0-2.5-.85,4.26,4.26,0,0,0-2.29.63A4.31,4.31,0,0,0,37,68.55,5.24,5.24,0,0,0,36.4,71a3.08,3.08,0,0,0,.89,2.35,3.48,3.48,0,0,0,2.5.85A4.38,4.38,0,0,0,42.09,73.61Z" transform="translate(-0.16)"/><path class="cls-1" d="M55.65,74.92A3.91,3.91,0,0,1,54,73.39a4.51,4.51,0,0,1-.57-2.3A6.43,6.43,0,0,1,54.2,68a5.65,5.65,0,0,1,2.13-2.18,5.94,5.94,0,0,1,3.06-.8,4.83,4.83,0,0,1,3.42,1.18,4.11,4.11,0,0,1,1.27,3.18,6.43,6.43,0,0,1-.77,3.14,5.48,5.48,0,0,1-2.12,2.2,6,6,0,0,1-3.07.79A5.38,5.38,0,0,1,55.65,74.92Zm4.86-1.31a4.32,4.32,0,0,0,1.6-1.73,5.29,5.29,0,0,0,.58-2.47A3.14,3.14,0,0,0,61.8,67a3.48,3.48,0,0,0-2.5-.85,4.28,4.28,0,0,0-3.89,2.36A5.24,5.24,0,0,0,54.83,71a3,3,0,0,0,.89,2.35,3.46,3.46,0,0,0,2.5.85A4.34,4.34,0,0,0,60.51,73.61Z" transform="translate(-0.16)"/><path class="cls-1" d="M77.17,65.05l-2,10.31H73.78l.34-1.64a4.92,4.92,0,0,1-4,1.74,3.87,3.87,0,0,1-2.7-.89,3.18,3.18,0,0,1-1-2.48,6,6,0,0,1,.12-1.16l1.17-5.88h1.4L68,70.93a6.17,6.17,0,0,0-.1.93,2.25,2.25,0,0,0,.66,1.74,2.83,2.83,0,0,0,2,.61,4,4,0,0,0,2.72-.92,4.63,4.63,0,0,0,1.45-2.69l1.1-5.55Z" transform="translate(-0.16)"/><path class="cls-1" d="M89.74,65.05,83.11,75.36H81.68L79.13,65.05h1.4l2.13,8.8,5.63-8.8Z" transform="translate(-0.16)"/><path class="cls-1" d="M91.68,65.05h1.39L91,75.36H89.64Zm.62-2.53a.87.87,0,0,1-.27-.64,1,1,0,0,1,.31-.76,1,1,0,0,1,.77-.3,1,1,0,0,1,.69.26.86.86,0,0,1,.27.62,1.08,1.08,0,0,1-.31.79,1.1,1.1,0,0,1-.79.31A.86.86,0,0,1,92.3,62.52Z" transform="translate(-0.16)"/><path class="cls-1" d="M99.66,65.45a6,6,0,0,1,2.51-.48l-.26,1.36-.39,0a3.92,3.92,0,0,0-2.73,1,5,5,0,0,0-1.45,2.86l-1,5.23h-1.4l2-10.31h1.34l-.36,1.89A4.27,4.27,0,0,1,99.66,65.45Z" transform="translate(-0.16)"/><path class="cls-1" d="M110,74.92a3.86,3.86,0,0,1-1.64-1.53,4.42,4.42,0,0,1-.58-2.3,6.43,6.43,0,0,1,.77-3.14,5.62,5.62,0,0,1,2.12-2.18,6,6,0,0,1,3.07-.8,4.83,4.83,0,0,1,3.42,1.18,4.15,4.15,0,0,1,1.27,3.18,6.43,6.43,0,0,1-.77,3.14,5.57,5.57,0,0,1-2.13,2.2,5.94,5.94,0,0,1-3.06.79A5.35,5.35,0,0,1,110,74.92Zm4.86-1.31a4.23,4.23,0,0,0,1.59-1.73,5.17,5.17,0,0,0,.58-2.47,3.11,3.11,0,0,0-.89-2.37,3.46,3.46,0,0,0-2.5-.85,4.26,4.26,0,0,0-2.29.63,4.38,4.38,0,0,0-1.6,1.73A5.36,5.36,0,0,0,109.2,71a3.08,3.08,0,0,0,.89,2.35,3.48,3.48,0,0,0,2.5.85A4.38,4.38,0,0,0,114.89,73.61Z" transform="translate(-0.16)"/><path class="cls-1" d="M134.73,65.5a3.89,3.89,0,0,1,1.6,1.51,4.56,4.56,0,0,1,.57,2.32,6.53,6.53,0,0,1-.75,3.14,5.61,5.61,0,0,1-2.09,2.2,5.75,5.75,0,0,1-3,.79,4.83,4.83,0,0,1-2.47-.58,3.3,3.3,0,0,1-1.45-1.67l-1.18,6h-1.39l2.8-14.12h1.34l-.34,1.65a5,5,0,0,1,1.77-1.28,5.51,5.51,0,0,1,2.25-.45A5,5,0,0,1,134.73,65.5Zm-1.41,8.11a4.2,4.2,0,0,0,1.59-1.72,5.19,5.19,0,0,0,.58-2.48A3.14,3.14,0,0,0,134.6,67a3.48,3.48,0,0,0-2.5-.85,4.34,4.34,0,0,0-2.29.62,4.24,4.24,0,0,0-1.58,1.72,5.27,5.27,0,0,0-.58,2.5,3.08,3.08,0,0,0,.89,2.35,3.46,3.46,0,0,0,2.5.85A4.28,4.28,0,0,0,133.32,73.61Z" transform="translate(-0.16)"/><path class="cls-1" d="M140.74,74.92a3.89,3.89,0,0,1-1.63-1.53,4.42,4.42,0,0,1-.58-2.3,6.43,6.43,0,0,1,.76-3.14,5.65,5.65,0,0,1,2.13-2.18,6,6,0,0,1,3.07-.8,4.87,4.87,0,0,1,3.42,1.18,4.14,4.14,0,0,1,1.26,3.18,6.43,6.43,0,0,1-.76,3.14,5.57,5.57,0,0,1-2.13,2.2,6,6,0,0,1-3.07.79A5.38,5.38,0,0,1,140.74,74.92Zm4.86-1.31a4.25,4.25,0,0,0,1.6-1.73,5.17,5.17,0,0,0,.58-2.47,3.14,3.14,0,0,0-.89-2.37,3.48,3.48,0,0,0-2.5-.85,4.24,4.24,0,0,0-2.29.63,4.31,4.31,0,0,0-1.6,1.73,5.24,5.24,0,0,0-.58,2.48,3.08,3.08,0,0,0,.89,2.35,3.48,3.48,0,0,0,2.5.85A4.34,4.34,0,0,0,145.6,73.61Z" transform="translate(-0.16)"/><path class="cls-1" d="M163.23,60.82l-2.9,14.54H159l.34-1.62A5.19,5.19,0,0,1,157.56,75a5.51,5.51,0,0,1-2.25.45,4.92,4.92,0,0,1-2.34-.53,3.8,3.8,0,0,1-1.58-1.52,4.56,4.56,0,0,1-.57-2.32,6.53,6.53,0,0,1,.75-3.14,5.68,5.68,0,0,1,5.07-3,4.92,4.92,0,0,1,2.46.58,3.38,3.38,0,0,1,1.46,1.66l1.27-6.39ZM157.9,73.61a4.29,4.29,0,0,0,1.59-1.73,5.17,5.17,0,0,0,.58-2.47,3.14,3.14,0,0,0-.89-2.37,3.48,3.48,0,0,0-2.5-.85,4.26,4.26,0,0,0-2.29.63,4.31,4.31,0,0,0-1.6,1.73,5.24,5.24,0,0,0-.58,2.48,3.08,3.08,0,0,0,.89,2.35,3.48,3.48,0,0,0,2.5.85A4.38,4.38,0,0,0,157.9,73.61Z" transform="translate(-0.16)"/><path class="cls-1" d="M166.34,74.92a3.82,3.82,0,0,1-1.65-1.53,4.42,4.42,0,0,1-.58-2.3,6.43,6.43,0,0,1,.76-3.14A5.6,5.6,0,0,1,167,65.77a6.07,6.07,0,0,1,3.1-.8,5.51,5.51,0,0,1,2.46.52A3.69,3.69,0,0,1,174.16,67l-1.17.69a3.18,3.18,0,0,0-3-1.53,4.36,4.36,0,0,0-3.91,2.35A5.2,5.2,0,0,0,165.5,71a3.08,3.08,0,0,0,.89,2.35,3.53,3.53,0,0,0,2.54.85,4.38,4.38,0,0,0,1.85-.39,3.46,3.46,0,0,0,1.4-1.1l1,.76a4.4,4.4,0,0,1-1.83,1.44,5.86,5.86,0,0,1-2.48.52A5.58,5.58,0,0,1,166.34,74.92Z" transform="translate(-0.16)"/><path class="cls-1" d="M186.53,65.05l-2.05,10.31h-1.34l.34-1.62A5.19,5.19,0,0,1,181.71,75a5.51,5.51,0,0,1-2.25.45,4.92,4.92,0,0,1-2.34-.53,3.8,3.8,0,0,1-1.58-1.52,4.56,4.56,0,0,1-.57-2.32,6.53,6.53,0,0,1,.75-3.14,5.68,5.68,0,0,1,5.07-3,4.93,4.93,0,0,1,2.47.58,3.36,3.36,0,0,1,1.45,1.66l.43-2.16ZM182,73.61a4.25,4.25,0,0,0,1.6-1.73,5.17,5.17,0,0,0,.58-2.47,3.14,3.14,0,0,0-.89-2.37,3.48,3.48,0,0,0-2.5-.85,4.26,4.26,0,0,0-2.29.63,4.31,4.31,0,0,0-1.6,1.73,5.24,5.24,0,0,0-.58,2.48,3.08,3.08,0,0,0,.89,2.35,3.48,3.48,0,0,0,2.5.85A4.32,4.32,0,0,0,182,73.61Z" transform="translate(-0.16)"/><path class="cls-1" d="M189,75.11a4.74,4.74,0,0,1-1.73-.9l.67-1.1a4.39,4.39,0,0,0,1.54.82,6.47,6.47,0,0,0,2,.32,4.43,4.43,0,0,0,2.27-.48,1.51,1.51,0,0,0,.79-1.37,1,1,0,0,0-.32-.78,2.09,2.09,0,0,0-.8-.45,12.44,12.44,0,0,0-1.37-.35,16.88,16.88,0,0,1-1.74-.47,2.77,2.77,0,0,1-1.14-.75,2,2,0,0,1-.47-1.41,2.73,2.73,0,0,1,1.21-2.34,5.5,5.5,0,0,1,3.26-.88,7.06,7.06,0,0,1,1.95.27,4.79,4.79,0,0,1,1.54.7l-.59,1.11a4.4,4.4,0,0,0-1.38-.65,6,6,0,0,0-1.64-.23,4,4,0,0,0-2.19.51,1.56,1.56,0,0,0-.79,1.37,1.1,1.1,0,0,0,.33.83,2.36,2.36,0,0,0,.84.47c.33.1.78.21,1.36.33a17.38,17.38,0,0,1,1.72.46,2.79,2.79,0,0,1,1.12.73,1.93,1.93,0,0,1,.47,1.38,2.71,2.71,0,0,1-1.24,2.36,5.77,5.77,0,0,1-3.32.85A8,8,0,0,1,189,75.11Z" transform="translate(-0.16)"/><path class="cls-1" d="M200.18,72.25a3.77,3.77,0,0,0-.08.64c0,.92.49,1.38,1.49,1.38a2.6,2.6,0,0,0,1.59-.53l.33,1.06a3.72,3.72,0,0,1-2.29.66,2.58,2.58,0,0,1-1.84-.63,2.22,2.22,0,0,1-.67-1.72,4,4,0,0,1,.07-.8l1.2-6.08h-1.82l.21-1.18h1.85l.45-2.25h1.39l-.45,2.25h3.13l-.23,1.18h-3.14Z" transform="translate(-0.16)"/><path class="cls-1" d="M38.92,46a44,44,0,0,1-16.16-3A29,29,0,0,1,9.61,33,24.38,24.38,0,0,1,6.05,25.5a30.27,30.27,0,0,1-1.19-8.23A47.43,47.43,0,0,1,5.54,9c.27-1.35.58-2.69.88-4L7.57,1l.07,0a56.39,56.39,0,0,0-2,16.2,31.29,31.29,0,0,0,1.27,8,23.74,23.74,0,0,0,3.5,7.23A25.71,25.71,0,0,0,16,38.24a34.92,34.92,0,0,0,7,4,44.48,44.48,0,0,0,7.76,2.51A49.16,49.16,0,0,0,38.92,46Z" transform="translate(-0.16)"/><polygon class="cls-1" points="10.54 5.32 9.66 5.79 7.37 1.42 3.18 4.01 2.65 3.16 7.76 0 10.54 5.32"/></g></g></svg>