<svg xmlns="http://www.w3.org/2000/svg" viewBox="0 0 1209.06 1219.5"><defs><style>.cls-1{opacity:0.7;}.cls-2,.cls-4,.cls-5{fill:none;stroke:#fff;stroke-miterlimit:10;}.cls-2{stroke-width:0.75px;}.cls-3{opacity:0.9;}.cls-4{stroke-width:0.5px;}.cls-5{stroke-width:0.46px;}.cls-6{opacity:0.5;}.cls-7{opacity:0.4;}</style></defs><g id="Layer_2" data-name="Layer 2"><g id="Layer_1-2" data-name="Layer 1"><g class="cls-1"><path class="cls-2" d="M191.71,617.27c0-123.63,54.85-234.46,141.55-309.46"/><path class="cls-2" d="M623.93,1025.68q-11.5.64-23.16.65c-151.41,0-283.6-82.26-354.33-204.52"/><path class="cls-2" d="M977.68,776.5a410.43,410.43,0,0,1-228.2,222"/><path class="cls-2" d="M600.77,208.22c192.31,0,353.62,132.71,397.36,311.54"/></g><g class="cls-1"><path class="cls-2" d="M375.92,992.51C260.86,925.36,187.51,814.12,164.8,692.7"/><path class="cls-2" d="M990.76,812.11q-5.65,11.05-12,21.9C896.54,974.91,748.19,1053.26,596,1052.67"/><path class="cls-2" d="M951,347.55a442.25,442.25,0,0,1,82.61,332.93"/><path class="cls-2" d="M217.42,389.65c104.45-179,315.57-257,505.76-200.58"/></g><g class="cls-3"><path class="cls-4" d="M292.13,1136.07C133.06,1043.22,31.65,889.43.25,721.55"/><path class="cls-4" d="M1142.19,886.65q-7.8,15.27-16.56,30.28c-113.7,194.81-318.81,303.13-529.23,302.32"/><path class="cls-4" d="M1087.22,244.36a611.44,611.44,0,0,1,114.22,460.3"/><path class="cls-4" d="M73,302.57C217.41,55.13,509.3-52.77,772.25,25.25"/></g><g class="cls-3"><path class="cls-5" d="M691,1159.85c-166.37,29.45-328.56-18-450.15-116.76"/><path class="cls-5" d="M1137.59,481q3.6,15.33,6.39,31c36.06,203.74-43.14,401.22-190.82,525.52"/><path class="cls-5" d="M718,64.29a560.92,560.92,0,0,1,353,254.21"/><path class="cls-5" d="M43.08,706.84C-2.72,448.05,137.43,199.37,367.66,97.92"/></g><g class="cls-6"><path class="cls-5" d="M649.21,861.69A249.77,249.77,0,0,1,447.6,809.4"/><path class="cls-5" d="M849.25,557.63q1.61,6.87,2.86,13.89a250.28,250.28,0,0,1-85.47,235.37"/><path class="cls-5" d="M661.33,371A251.19,251.19,0,0,1,819.44,484.87"/><path class="cls-5" d="M359,658.8C338.52,542.89,401.3,431.51,504.41,386.08"/></g><g class="cls-7"><path class="cls-2" d="M369,387.22a326.39,326.39,0,0,1,255.87-92.63"/><path class="cls-2" d="M378.15,862.64q-6.81-6.2-13.34-12.85C280,763.41,252.85,641.9,283,533"/><path class="cls-2" d="M718.53,924.86A328.18,328.18,0,0,1,464,919"/><path class="cls-2" d="M831.58,391.43C939.33,501.15,954,667.54,876.46,792.69"/></g></g></g></svg>