<svg xmlns="http://www.w3.org/2000/svg" viewBox="0 0 175.87 551.48"><defs><style>.cls-1{fill:#211d1b;}.cls-1,.cls-10,.cls-11,.cls-12,.cls-13,.cls-14,.cls-15,.cls-16,.cls-17,.cls-18,.cls-19,.cls-2,.cls-20,.cls-22,.cls-3,.cls-4,.cls-5,.cls-6,.cls-7,.cls-8,.cls-9{fill-rule:evenodd;}.cls-2{fill:#9a715e;}.cls-3{fill:#7c5947;}.cls-4{fill:#babbba;}.cls-5{fill:#793f3b;}.cls-6{fill:#706f70;}.cls-7{fill:#9f5b58;}.cls-8{fill:#708491;}.cls-9{fill:#475d69;}.cls-10{fill:#283556;}.cls-11{fill:#1f2b44;}.cls-12{fill:#302724;}.cls-13{fill:#241d1b;}.cls-14{fill:#fff;}.cls-15{fill:#874741;}.cls-16{fill:#211b1c;}.cls-17{fill:#919191;}.cls-18{fill:#cc9b84;}.cls-19{fill:#d4d2d1;}.cls-20{fill:#8a6a47;}.cls-21{fill:#d0a070;}.cls-22{fill:#40322c;}</style></defs><title>avatar-marilia-acess</title><g id="Camada_2" data-name="Camada 2"><g id="Camada_1-2" data-name="Camada 1"><path class="cls-1" d="M28.19,208.63a50.12,50.12,0,0,1,2,7.51c.38,1.74.72,3.49,1.13,5.23a23.83,23.83,0,0,0,1.18,4,1.11,1.11,0,0,1,.07.65c-.35,1.83-.64,3.67-1,5.5a1.06,1.06,0,0,1-.1.3l-3.95,7.85a1.12,1.12,0,0,1-2,.11A109.41,109.41,0,0,1,13.22,212a1.2,1.2,0,0,1,0-.65,179,179,0,0,1,19.34-44.16.93.93,0,0,1,.35-.36c.89-.58,1.78-1.16,2.68-1.73a1.13,1.13,0,0,1,1.74,1q-.19,10.53-.4,21a1.08,1.08,0,0,1-.15.55A95.58,95.58,0,0,0,28.19,208.63Z"/><path class="cls-2" d="M33.52,167.74a177.59,177.59,0,0,0-19.21,43.89c3.54,11.7,7.7,20.49,12.23,27.5,1.31-2.62,2.63-5.23,3.95-7.85.44-2.35.53-3.15,1-5.5C29.84,221.94,29,213.46,27,208.69a96.41,96.41,0,0,1,8.81-21.64q.2-10.52.4-21Z"/><path class="cls-3" d="M30.78,229.69c.22-1.29.36-2.18.68-3.91C29.84,221.94,29,213.46,27,208.69c1-3.47,2.13-6.93,3.47-10.39l-2.16-6.87-6,18.18Z"/><path class="cls-4" d="M88.77,545c35.05,0,63.47,1.42,63.47,3.19s-28.42,3.18-63.47,3.18S25.3,550,25.3,548.19,53.71,545,88.77,545Z"/><path class="cls-1" d="M26.49,541.1A16,16,0,0,1,42,532.4a9.76,9.76,0,0,0,4-1.92,4.38,4.38,0,0,1,0-1.27,1.22,1.22,0,0,1,.28-.48c.74-.74,1.59-1.47,2.38-2.16q1.82-1.61,3.66-3.19c1.85-1.59,3.72-3.18,5.54-4.8a1.08,1.08,0,0,1,.75-.29c10.81,0,21.59,1.21,32.39,1.18a1.11,1.11,0,0,1,1.12.95c.24,1.49-2.65,4.78-3.55,5.86-2.48,3-5.13,5.88-7.79,8.71-2.39,2.55-4.83,5.08-7.32,7.56a62.27,62.27,0,0,1-4.81,4.53,1.14,1.14,0,0,1-.32.18,39.84,39.84,0,0,1-8.64,1.55c-4.06.42-8.16.64-12.24.78-4.33.14-8.68.19-13,.1-1.69,0-3.39-.1-5.08-.21a28.45,28.45,0,0,1-3.45-.39,1.13,1.13,0,0,1-.91-1,31.58,31.58,0,0,1,0-5.67,1.12,1.12,0,0,1,.65-.9Z"/><path class="cls-4" d="M91,520.6c.35,2.21-19.53,22.8-23.06,25.59-7.17,2.58-36,2.94-41.81,1.78a33.93,33.93,0,0,1,0-5.43l1.22-.57c3.14-5.89,8.12-8.7,14.76-8.43a11.22,11.22,0,0,0,5-2.51,10.11,10.11,0,0,1,0-1.5c1.49-1.51,9.1-7.95,11.52-10.1C69.14,519.4,80.4,520.63,91,520.6Z"/><path class="cls-5" d="M42.58,533.4A10.85,10.85,0,0,0,47.09,531a10.11,10.11,0,0,1,0-1.5c.92-.94,4.21-3.77,7.14-6.3l2.35.49,5.9.57,6.85-.47,1.36-.24.56,1.08,2.11,1.22,3.18.84-.89,2.72.8.85L74.21,532l-4.74,8.21-8.06,1.87-9.84.85-1.32-3.57-2.43-3.56-3-1.69Z"/><path class="cls-4" d="M47.05,530.41a4.15,4.15,0,0,1,0-.88c.92-.94,4.21-3.77,7.14-6.3l2.35.49,5.54.53-6.21,5.38-2.53,1.68-5-1Z"/><path class="cls-1" d="M63.43,541.37a13,13,0,0,1,9.24-8.94c.87-.74,1.83-1.4,2.67-2.17a1.1,1.1,0,0,1-.18-1,32.8,32.8,0,0,1,4.18-9,1.09,1.09,0,0,1,.93-.5l31.69-.1a1.11,1.11,0,0,1,1.12,1,44.18,44.18,0,0,1,0,14.24,1,1,0,0,1-.3.6,150.43,150.43,0,0,1-15,13.41,1,1,0,0,1-.32.18c-7.67,2.76-27.13,3.53-34.66.45a1.11,1.11,0,0,1-.69-.91,32.62,32.62,0,0,1-.05-5.93,1.1,1.1,0,0,1,.65-1Z"/><path class="cls-4" d="M112,520.79a43,43,0,0,1,0,13.87A149.26,149.26,0,0,1,97.06,548c-7.18,2.58-26.45,3.5-33.85.47a32.21,32.21,0,0,1,0-5.72c.4-.18.86-.37,1.26-.56.56-3.91,4.85-8.07,8.75-8.67a38.45,38.45,0,0,0,3.72-3.19c-.25-.29-.4-.43-.65-.72a31.56,31.56,0,0,1,4-8.7Z"/><path class="cls-6" d="M112,520.79a43,43,0,0,1,0,13.87,130.55,130.55,0,0,1-9.6,9v-2.14c0-4.78-4.7-10.71-9.66-11.37a54.56,54.56,0,0,1-15.23-4c.15-.36.3-.72.46-1.07L107,520.8Z"/><path class="cls-7" d="M112.33,523.71a46.12,46.12,0,0,1,.19,5.1L98.3,540.55l-1-1.64-2.48-2.48-5.72-2.86-9-1.27-6,.45a20.28,20.28,0,0,0,2.83-2.45c-.25-.29-.4-.43-.65-.72.26-.9.56-1.77.89-2.62l9.91.75,9.56-.38,11.11-2.06Z"/><path class="cls-5" d="M112.33,523.71a46.12,46.12,0,0,1,.19,5.1l-11,9c-1.54-3.74-5.13-7.23-8.87-7.73A61.15,61.15,0,0,1,80,527.18l7,.53,9.56-.38,11.11-2.06Z"/><path class="cls-4" d="M76.85,530.24c-.22-.25-.37-.39-.6-.66.26-.9.56-1.77.89-2.62l1.69.13,4.93.66,3.26,0h.14l3.63,0,2.42-.19,3.4-.14h.1l-1.37,2.21L94,531.17l-7.6-1.59-6,0Z"/><path class="cls-6" d="M80.29,527.29l3.47.46,3.26,0h.14l3.63,0,2.42-.19,3.4-.14h.1l-1.37,2.21-.84,1.05a8.21,8.21,0,0,0-1.8-.46A61.88,61.88,0,0,1,80.29,527.29Z"/><path class="cls-1" d="M77.44,387.16a17.1,17.1,0,0,1,1.83,6.38v.11l-.18,6.79c16.33,38.53,30.8,77.66,38.6,118.91a2.77,2.77,0,0,1-1.4,3.14c-2.52,1.69-6.58,2.83-9.51,3.53a87.41,87.41,0,0,1-13.84,2.08c-6.34.45-15.22.39-21-2.38a3,3,0,0,1-1.46-1.36c-6.15.57-15.24.91-20.44-2.23a2.57,2.57,0,0,1-1.12-1.93c-.13-24.94,0-50.2-3-75-2-16.31-4.86-32.49-7.82-48.64-3.13-17.1-6.33-34.18-8.87-51.38-2.32-15.71-4.25-31.51-4.67-47.41-.43-16.23.73-32.6,4.72-48.39a1.12,1.12,0,0,1,1-.85c16.3-1,32.64-1.21,48.94-2.21a1.07,1.07,0,0,1,.53.1l9,4a.92.92,0,0,1,.34.24c14.38,14.41,11.29,43.29,7.4,61.27C91,337.26,82,361.64,77.44,387.16Z"/><path class="cls-8" d="M30.32,249.67c-8,31.52-4.52,64.92,0,95.35,5.29,35.81,12.79,67.75,16.7,100.05,2.88,23.82,2.87,48.17,3,75.13a1.45,1.45,0,0,0,.56,1c4.33,2.61,12,2.86,20.67,2a1.84,1.84,0,0,0,1.13,1.56c11,5.21,36.75,1.23,43.29-3.15a1.66,1.66,0,0,0,.91-2c-7.88-41.69-22.4-80.65-38.62-118.91l.18-7a16,16,0,0,0-1.87-6.28c4.59-26,13.59-50.19,19.09-75.61s4.48-48.63-7.09-60.23l-9-4C63.2,248.45,46.38,248.69,30.32,249.67Z"/><path class="cls-9" d="M30.22,250.06q-.51,2.06-1,4.11c12.93,8.48,28.14,12.26,47.63,13.33,3.46,26.3-15,87.44-16.33,121-.31,7.58-9.58,6.38-12.64,4.23l-1.5-9.1L45.1,357.59q.61-14.62,1.22-29.25,1-12.55,2.06-25.12l1.32-12.85q-1.37-2-2.72-3.94l-3.75-3.56c2,4.59,2.94,7.84,2.42,12.9-2.83,27.86-4,51.81-4.43,80-.13,8.42.19,19.12-3,15.67,3.35,18.23,6.58,35.87,8.73,53.62,2.88,23.82,2.87,48.17,3,75.13a1.45,1.45,0,0,0,.56,1c4.33,2.61,12,2.86,20.67,2a1.84,1.84,0,0,0,1.13,1.56c11,5.21,36.75,1.23,43.29-3.15a1.66,1.66,0,0,0,.91-2c-7.88-41.69-22.4-80.65-38.62-118.91l.18-7a16,16,0,0,0-1.87-6.28c4.59-26,13.59-50.19,19.09-75.61s4.48-48.63-7.09-60.23l-7.43-3.33-42.66,3.2Z"/><path class="cls-1" d="M29.57,176.32c-2-1.54-5.25-4.88-3.6-6.58,3-3,4.62-6.11,6.56-9.79,1.4-2.65,3.58-5,6.62-5.58,1.19-.24,2.4-.43,3.58-.7a25.72,25.72,0,0,0,5.29-2,1.18,1.18,0,0,1-.09-.72c.55-2.94,1.26-6.88,2.77-9.46a1.14,1.14,0,0,1,.65-.51,91.44,91.44,0,0,0,15.94-6.38.85.85,0,0,1,.38-.12c5.11-.64,21-4.88,23.79,1.09l2.88,6.26a1.2,1.2,0,0,1,.11.46,7.56,7.56,0,0,1-.35,2.37,78.24,78.24,0,0,0,10.71,8.13,57,57,0,0,0,11.5,4.69,6.22,6.22,0,0,1,3,2.45c3.64.8,6,3.58,7.45,6.91a90.47,90.47,0,0,1,4.11,11.76,94,94,0,0,0,3.31,10.24c.34.81.7,1.6,1.09,2.38,1.17,2.3,1.16,3.46-.64,5.48-2.95,3.29-10.22,5-14.44,5.77-3.94.68-12,1.58-15.76,0-1.32-.54-3.27-1.53-2.87-3.27a32.42,32.42,0,0,0,1.05-6.53,66.36,66.36,0,0,1-6.88,4.59,68.45,68.45,0,0,1-6.42,13.05,9.38,9.38,0,0,1,.07,4.93c-.44,1.71-1,3.39-1.43,5.08,0,3.31-.06,6.64,0,10a58.92,58.92,0,0,0,.59,7.51,47.88,47.88,0,0,0,2,7.92c.81,2.4,2.08,4.74,3,7.12A1.14,1.14,0,0,1,93,254.3c-7,2.85-15.08,5.61-22.6,6.21-14.68,1.16-32.57-.17-44.25-10.06a1.12,1.12,0,0,1-.34-1.25,42.57,42.57,0,0,0,1.69-8.07c.53-3.82.88-7.68,1.12-11.52.26-4,.42-8.05.4-12.07a47.22,47.22,0,0,0-.54-8.24,16.24,16.24,0,0,1-.46-4.62c.07-1.09.14-2.19.2-3.28a19.22,19.22,0,0,1-4.51-14.87,1.12,1.12,0,0,1,.15-.42Z"/><path class="cls-10" d="M67.81,135.56A92.61,92.61,0,0,1,51.68,142c-1.39,2.36-2.12,6.33-2.64,9.09,1.34-.43,2.94-1.44,4.28-1.87,0,.53,0,.41,0,.94-3.2,1.57-6.86,3.77-10.32,4.58-1.17.27-2.37.46-3.62.72-2.6.52-4.54,2.53-5.84,5-1.92,3.63-3.54,6.75-6.75,10.05-.71.73,2,4.16,4.3,5.46l-6.22,10.69A18,18,0,0,0,29.41,201l-.24,3.77a15,15,0,0,0,.44,4.33c1.42,7,0,32.92-2.71,40.5,11.25,9.53,28.62,11,43.43,9.8,7.3-.58,15.51-3.37,22.26-6.13-1.22-3.05-2.3-4.93-3.06-7.17-2.89-8.53-2.72-13.44-2.68-25.92.49-1.74,1-3.46,1.47-5.2a7.83,7.83,0,0,0-.24-4.8c3-4.23,4.89-9,6.78-13.68a62.18,62.18,0,0,0,8.52-5.85c.83,1.65.31,4.52-.68,8.82-.15.69.6,1.32,2.2,2,5.1,2.1,24.27-.32,28.92-5.52,1.58-1.76,1.35-2.49.48-4.21-3.63-7.17-4.42-15.19-8.54-24.43-1.46-3.27-3.66-5.75-7-6.33-.92-1.05-1.45-2-2.79-2.41C104.82,155,102.29,153,92.76,145a6.24,6.24,0,0,0,.55-2.7L90.43,136C88.13,131,72.69,135,67.81,135.56Z"/><path class="cls-11" d="M102.85,191.06l.53-.43c.83,1.65.31,4.52-.68,8.82-.15.69.6,1.32,2.2,2,5.1,2.1,24.27-.32,28.92-5.52,1.58-1.76,1.35-2.49.48-4.21-3.63-7.17-4.42-15.19-8.54-24.43-1.46-3.27-3.66-5.75-7-6.33l-.39-.46-3,.29-3,3.61c6.33,1.09,7.45,5.21,9,10.42,1.46,5,3.7,13.52,6.32,17.64l-.31,1-7.4,1-10.22,1.92-3.52,1.17c-.07-1.05-.12-1.94-.18-2.71-.27-3.21-1.69-7.25-4.83-8.63l1.08,4Z"/><path class="cls-11" d="M50.23,150.64a32.65,32.65,0,0,1,3.09-1.39,2.49,2.49,0,0,1,0,.52l.31-.12c-.33-1.66-.93-8.89-2.28-4.07C50.87,147.29,50.58,148.81,50.23,150.64Z"/><path class="cls-11" d="M65.36,136.79a93.53,93.53,0,0,1-11.57,4.58C55,145,55.31,148,55.5,153.14l10.08-6.42Z"/><path class="cls-11" d="M69.87,259.41l.46,0c7.3-.58,15.51-3.37,22.26-6.13-1.22-3.05-2.3-4.93-3.06-7.17-2.89-8.53-2.72-13.44-2.68-25.92.49-1.74,1-3.46,1.47-5.2a7.83,7.83,0,0,0-.24-4.8c3-4.23,4.89-9,6.78-13.68a62.32,62.32,0,0,0,8.14-5.54l-.68-3.51.28-.66c-1-1-1.76-2.34-2.07-5.09-13.57,9.22-17.91,16.31-25,21-4.06,2.66-9.21,3.84-13.91,4.26,8.45,12.52,9.1,15,8.44,24.65s-.32,22.71-.19,27.86Zm50.73-98a12.85,12.85,0,0,0-1.85-.47c-.92-1.05-1.45-2-2.79-2.41C104.82,155,102.29,153,92.76,145a6.24,6.24,0,0,0,.55-2.7L90.43,136c-.93-2-4-2.57-7.65-2.48L77.66,145,74.14,147c1.82,0,3-.06,4,1.8,1.9,3.38,3.68,9.39,4.77,13.53-.86.92-1.88,2.2-2.5.29l-2-6.11-2.58-5.81L75,149.9l-.75.09c-2.4,3.09-4.57,5.7-7.22,8.58,4.1,1.14,8.71,1.77,12.8,2.91.72,2.3,1.58,2.92,3.7.26,3,.22,9.37,0,13.55-2.51,2.66,1.66,6.3,3.87,9,5.53a26.19,26.19,0,0,0-2.25,6.38c2.92-4.62,7.22-7.23,11.25-6.4l1.1-1.68Z"/><path class="cls-1" d="M3.49,41.91c-.05-.45-.13-.93-.17-1.34A2.38,2.38,0,0,1,4,38.29c1.23-1,2.3.29,4.42-2.15.15-.27-.18-1,.41-1.74A2,2,0,0,1,11,34.11a7.26,7.26,0,0,0-.76-1.38,1.81,1.81,0,0,1-.32-2.2,1.61,1.61,0,0,1,1.34-.62,7.27,7.27,0,0,1-.31-.69c-.32-.79-.65-1.88.14-2.53a1.29,1.29,0,0,1,.49-.26c1.4-.5,2.89-1.16,4.33-1.61.36-1.51,1.52-3.22,3.07-3.2a4.71,4.71,0,0,0,1.23-2.69c0-1.37.72-4.6,2.48-4.51a2,2,0,0,0,.53,0,.43.43,0,0,1,0-.05c.16-.64.05-1.13.59-1.68.78-.8,2-.43,2.9,0a1.66,1.66,0,0,1,.27-.75c1-1.45,3.39-.22,4.54.35.92.45,3.48-.13,4.38-.52a16,16,0,0,0,3.71-2.35,9.74,9.74,0,0,1,3.28-2,4,4,0,0,1,.69-.14c.52-1,1.15-2.61,2.43-2.72a1.57,1.57,0,0,1,1,.24c.09-.21.17-.41.24-.54C48.28,2.13,50,1.43,51.91,3a1.64,1.64,0,0,0,.29.2,11.07,11.07,0,0,0,1-.87A6.18,6.18,0,0,1,56.07.93,12.46,12.46,0,0,0,57.76.46,7.27,7.27,0,0,1,59.12.07C60.45-.1,61.9.73,63,1.37A3.24,3.24,0,0,0,63.46,1a3,3,0,0,1,2-1,2,2,0,0,1,1.61,1.11,24.14,24.14,0,0,0,3,1.25C72.65.17,74.41,2.08,77.07,1A3.23,3.23,0,0,1,79.55,1a5.75,5.75,0,0,1,2.07,1.66c.31.35,1,1.15,1.47,1.2A13.67,13.67,0,0,1,85.8,4.89c.3.13.93.43,1.43.61.15-.25.3-.47.4-.61.51-.71,1.26-1.59,2.25-1.32a1.34,1.34,0,0,1,.79.57A1.31,1.31,0,0,0,92,4.87a10,10,0,0,1,2.12-.12,3.27,3.27,0,0,1,2.47,2l.16.07a3.06,3.06,0,0,1,2-1.25,2.47,2.47,0,0,1,2.56.39,9,9,0,0,1,.8,1l.1-.09a13.74,13.74,0,0,1,3.52-.7c.87-.12,2.83-.41,3.61,0,2.16,1.16,3.5,3.66,5.89,4.84a6.83,6.83,0,0,1,2.37,1.89,5.72,5.72,0,0,1,1.92,1.93c.11.18.43.81.59,1a5.7,5.7,0,0,0,1.27-.51,1.14,1.14,0,0,1,1.13,0c2.11,1.32.49,4.63,1,5.26a1.38,1.38,0,0,1,.52.47c.29.48.14.62.19,1,.12.23.86.56,1.07.65,1.16.48,2.42,1.26,2.63,2.61a2.34,2.34,0,0,1,0,.75,1.35,1.35,0,0,1,1.05.57A1.44,1.44,0,0,1,129,28.3c.75.48,1.54,1.7,2.09,1.78a1.41,1.41,0,0,1,1.22.62c.76,1.16-.74,1.28,1.29,2.61a1.73,1.73,0,0,1,1,1.73c-.2,1.14-1.36,1.21-1.71,1.66a3.61,3.61,0,0,0,.73,1,1,1,0,0,1,1.09.18c.75.6.33,1.47,0,2.18l.24.08a4.53,4.53,0,0,1,1.59.89c1.54,1.36,1.87,3.66,1.9,5.6a24.76,24.76,0,0,0,1.93,2.94c.79,1.16,2.55,3.54,1.76,5a1.92,1.92,0,0,0,.35,2.06c3.24.76,4,3.41,3.66,6.62-.08.81-.84,1.29-1.51,1.67a1.27,1.27,0,0,1,.43.37c.47.65.16,1.26,0,1.93A3.33,3.33,0,0,0,145.2,69a3.62,3.62,0,0,1,.22,1.17c0,.55,0,1.11,0,1.65a5,5,0,0,0,1,2.09,4.32,4.32,0,0,1,.62,1.3c.57,2-.4,4.24-1.4,6a29.84,29.84,0,0,1-2.07,3l-.47.61a2,2,0,0,1,.7.43c1.11,1.07.38,3.35,0,4.62a10.85,10.85,0,0,1-1.4,3.39,3.82,3.82,0,0,1-.8.84c.09.32.27.77.35,1,.31.83.6,1.89-.19,2.58-1.15,1-1.79-.45-2,1.42-.17,1.41-2.86,4.75-3.79,5.89s-1.89,2.3-2.89,3.39c-.56.61-1.61,1.91-2.52,1.82l-.81-.08a4.24,4.24,0,0,1-2.3,1.75c-1,.43-2.33,1.64-3.53,1.73,0,.2,0,.42,0,.53a1.13,1.13,0,0,1-.85,1.06,3,3,0,0,0-.39.13.75.75,0,0,1-.07.12,2.47,2.47,0,0,1-2.16.71,1.4,1.4,0,0,1,0,.89c-.26,1-1.38,1.25-2.29,1.32-1.61.11-2.31,1.67-3.76,1.75a1.92,1.92,0,0,1-1-.23,1.92,1.92,0,0,1-1.89,1.11,28.08,28.08,0,0,0-3.51-.18c-.72.61-1.64.25-2.3,1.73a1.08,1.08,0,0,1-.87.66,13.82,13.82,0,0,1-2.65,0c-.37,0-.92-.08-1.42-.09,0,.13,0,.28-.08.42a2.72,2.72,0,0,1-2.86,2.06c-.86,0-2,4.11-5.48,1.56a4.06,4.06,0,0,0-1-.59c-.34.05-.7.25-1.15.3a7.36,7.36,0,0,1-3.11-.48L40.83,110.9c0,.19,0,.37,0,.48.06,1.15.12,3-1.44,3.2-1.78.18-3.29,1.22-5.15.13-.35-.2-.8-.35-1.17-.52A3.44,3.44,0,0,1,31,112.13l-.67,0c-1,0-3,.1-2.86-1.42,0,0,0,0,0-.06-.71.69-1.87,1.42-2.74.67s-.41-1.59,0-2.25a4.44,4.44,0,0,0,.18-.71h-.13c-.79,0-2.63.28-2.58-1.16V107a2.24,2.24,0,0,1-.85-.54,4.48,4.48,0,0,1-1-2.33c-.16-.79-.69-1-1.4-1.29-.56-.22-.9.27-1.43-.62a1.18,1.18,0,0,1,.14-1.36l.12-.16a6.09,6.09,0,0,0,.43-.75h0c-1.09,0-1.59.15-2.6-.59l0,0a3.15,3.15,0,0,1-1.86-1.72c-1.12-2.11-.08-1.91-2.27-3.3-.56-.36-.53-1-.57-1.54s-.06-1-.08-1.5c0-.3,0-.59,0-.89a1.51,1.51,0,0,1,0-.52c0-.18,0-.37.06-.56-.17-.15-.37-.3-.47-.37-1.48-1-.79-2.58-2.72-3.91a2.38,2.38,0,0,1-.72-2.35c0-.07,0-.16,0-.26a2,2,0,0,1-1-.75,3.35,3.35,0,0,1,0-3c.07-.19.17-.41.27-.63l-.54-.13a3.59,3.59,0,0,1-2.53-1.78A2.22,2.22,0,0,1,3,74.61l-.09,0a4.07,4.07,0,0,1-1.38-1C.28,72.09.61,70,1.15,68.31a4.53,4.53,0,0,0,.1-2.45C1.06,65,.73,64.18.49,63.35A11.16,11.16,0,0,1,0,59.86a6.54,6.54,0,0,1,1-3.18,9.1,9.1,0,0,0,1-1.94,1.73,1.73,0,0,0-.16-1.24,3.23,3.23,0,0,1,1.61-4.14c.31-1-.47-4.44-.86-5.26a1.1,1.1,0,0,1,0-1A3.54,3.54,0,0,1,3.49,41.91Z"/><path class="cls-12" d="M40.06,109.45c-.92-.3.27,3.9-.75,4-1.45.15-3.1,1.08-4.47.28-1-.59-2.84-.82-2.85-2.45,0-.61-3.46.07-3.41-.52s-.86-2.66-1.34-1.7c-.59,1.19-2.59,2.29-1.56.57a8.59,8.59,0,0,0,.47-2.39c-.31,0-2.86,0-2.86,0,.06-2.12-1.29-.14-1.92-3.31-.24-1.2-1-1.7-2.1-2.13s-1,.66,0-1.69c.5-1.11.28-1.23-1.19-1.28-.77,0-1.24.17-2-.36-.44-.33-.92-.13-1.57-1.37-1.05-2-.08-2.07-2.66-3.71,0,0-.16-1.83-.13-3.08a.33.33,0,0,1,0-.24,1.63,1.63,0,0,1,.19-.91l0,0a3.18,3.18,0,0,0-1.1-1.1c-1.09-.77-.4-2.32-2.73-3.92-.69-.48.27-2.72-.51-2.71-2.66,0,.4-4.27-.08-4.32C6.28,77,3,76.44,4.36,74.34c.67-1-4,0-2.13-5.68,1-3.28-1.2-5-1.09-8.77.08-2.9,3-4.18,1.75-6.87-.53-1.11.24-2.26,1.41-2.82l.06-.09c.77-1.11-.15-5.3-.72-6.5,1.09-2.32,1.27,1.13.8-3.16-.31-2.83,1.64.06,4.78-3.57.87-1-.69-2.62,2.13-1.43,1.82.77.88-2-.16-3.4-1.78-2.36,3.9.56,1.4-2.15-.11-.12-1.22-2.29-.65-2.38,0,0,4.1-1.58,5-1.82,0-1,.95-3,2.1-2.94s2.3-2.39,2.32-3.82c0-.72.55-3.43,1.29-3.39,3.38.16,0-3.75,4.16-1.58,3.25,1.71-1.82-3.68,4.24-.7,1.3.65,4.14,0,5.33-.49,4-1.71,5.33-4.58,7.9-4.45.94-1.56,1.56-3.75,2.58-2.13S48,1.3,51.19,3.91C53.08,5.49,53.29,2.65,56.3,2c3.28-.66,2.58-1.71,6.29.38,1.39.78,2.59-2.77,3.65-.53.12.24,5.18,2.44,4.48,1.48,2.19-2.09,3.64-.05,6.77-1.32C80.14,1,80.9,4.73,83,4.93c.57.06,4.81,2.32,4.88,1.76,0-.05,1.4-2.6,1.87-1.92,2,3,4.33-.8,5.92,2.65.18.38,1.95,1.12,2.12-.14,0-.27,2.17-1.14,2.7-.56,1.66,1.83.69,2.5,2.46,1.06,0,0,5.22-.93,5.87-.58,1.76.94,3.34,3.57,5.92,4.86a5.59,5.59,0,0,1,2.11,1.73c3,1.73,1.4,4.5,5.07,2.6,1.56,1-.68,4.41,1,5.3.41.22-.67,1.14,1.86,2.19,4.36,1.82-.42,3.87,2.85,3.46,1.11-.14-.79,1.66.71,1.9.23,0,1.6,2,2.7,2s-.92,1.18,1.9,3c2.08,1.37-3.65.82,0,4.42.89.9,1.55-1,.46,1.35-1,2.11,3.75-.72,3.84,6.73,0,1.05,4.52,6,3.83,7.28a3.1,3.1,0,0,0,.74,3.63c2,.37,3.54,1.55,3.13,5.48-.08.8-4.77,2-1,2.75.58.11-.63,1.21.21,3.5.52,1.43-.59,2.48,1.35,5.19,2.68,3.76-4.87,10.77-4.11,11,1.77.46,2.43,0,1.36,4-1.49,5.65-3.12,2.41-1.82,5.89,1.11,3-1.83-.24-2.28,3.47-.2,1.66-7.4,10.17-8,10.11-3.62-.34,0,.18-3.66,1.76-1.65.71-2.88,2-3.49,1.55-.31.07-.71.2-.76,1.71-2.13.56.35,1.14-3.74.82-.72,1,1.77,2.13-.9,2.31-3,.2-3.38,3.55-5.29.43-.68-1.12.49,2.26-1.28,2.21-1.28,0-3.68-.51-4.25.06a4.13,4.13,0,0,0-2.62,2.16c-1.06.15-3.86-.27-4.87-.09-.83-1.6,1.09,2.41-2,2.42-2,0-2.09,3.8-4.81,1.79s-1.38.45-5.55-.93Z"/><path class="cls-13" d="M106.87,7.2a5.53,5.53,0,0,1,1.93,0c1.76.94,3.34,3.57,5.92,4.86a5.59,5.59,0,0,1,2.11,1.73c3,1.73,1.4,4.5,5.07,2.6,1.56,1-.68,4.41,1,5.3.41.22-.67,1.14,1.86,2.19,4.36,1.82-.42,3.87,2.85,3.46,1.11-.14-.79,1.66.71,1.9.23,0,1.6,2,2.7,2s-.92,1.18,1.9,3c2.08,1.37-3.65.82,0,4.42.89.9,1.55-1,.46,1.35-1,2.11,3.75-.72,3.84,6.73,0,1.05,4.52,6,3.83,7.28a3.1,3.1,0,0,0,.74,3.63c2,.37,3.54,1.55,3.13,5.48-.08.8-4.77,2-1,2.75.58.11-.63,1.21.21,3.5.52,1.43-.59,2.48,1.35,5.19,2.68,3.76-4.87,10.77-4.11,11,1.77.46,2.43,0,1.36,4-1.49,5.65-3.12,2.41-1.82,5.89,1.11,3-1.83-.24-2.28,3.47-.2,1.66-7.4,10.17-8,10.11-3.62-.34,0,.18-3.66,1.76-1.65.71-2.88,2-3.49,1.55-.31.07-.71.2-.76,1.71-2.13.56.35,1.14-3.74.82-.72,1,1.77,2.13-.9,2.31-3,.2-3.38,3.55-5.29.43-.68-1.12.49,2.26-1.28,2.21-1.28,0-3.68-.51-4.25.06a4.13,4.13,0,0,0-2.62,2.16c-1.06.15-3.86-.27-4.87-.09-.83-1.6,1.09,2.41-2,2.42-2,0-2.09,3.8-4.81,1.79s-1.38.45-5.55-.93l-7.54-2.51C81.58,109.66,88.6,91,88.87,85.51c.46-9.35-2.42-16.46-2.42-25.41,0-1.89,8.46,6.89,9.75,6.12,2.5-1.49,6,5.25,6.85,2.14,2.61-10,2.12-3.43,4.17-2.71,3.67,1.29,3.67-8.39,6.79-5.5,1.63,1.51,2.81.66,2.81-3.55,0-4.79.4-4.24,2.53-4.79,2.83-.74.08-1.67.83-3.29,1.41-3,2.15-5,1.4-6.71-1-2.33-2.34-1.61-2-3.38,1.6-10-2.69-4.58-1.56-8,.35-1.08-.81-1.08-.54-2.57.23-1.26,1.69-3,1.14-3.46-1.33-1.19-4.13-1.38-4-2.7.58-6.47-1.94,1.5-2.22-4.3-.06-1.2-5.76,2.05-3.45-3.81,1-2.46-8.45-2-3.08-4.5C107.11,8.49,107.26,7.83,106.87,7.2Z"/><path class="cls-1" d="M68.64,116.73l20.15-18.4a1.1,1.1,0,0,1,1.11-.25l4.83,1.55a1.13,1.13,0,0,1,.75,1.35c-1.47,6.12-3.25,12.18-4.78,18.3-.91,3.68-1.78,7.41-2.44,11.15a46.08,46.08,0,0,0-.87,9.07,1.15,1.15,0,0,1-.12.54c-2.16,4.39-7.14,6.67-11.8,7.23a4,4,0,0,0-3,1.43,53.28,53.28,0,0,1-7.13,8.57c-3.08,2.9-7.22,5.41-10.61,7.92-.37.27-.71.5-1.09.25-.18-.13-.21-.77-.18-1.22a59.63,59.63,0,0,1,2.65-14.92,1.07,1.07,0,0,1,.41-.57c2.84-2,4.54-3,6-6.34,3.43-7.69,4.89-16.61,5.71-24.94A1.09,1.09,0,0,1,68.64,116.73Z"/><path class="cls-2" d="M69.41,117.56c-1,10-2.72,18.37-5.8,25.29-1.6,3.58-3.39,4.67-6.4,6.81a57.89,57.89,0,0,0-2.59,14.65C63,158.13,66,156.07,71.57,148.06a5,5,0,0,1,3.77-1.92c4.51-.54,9-2.73,10.91-6.6-.32-9.63,5.67-28.63,8.13-38.83l-4.83-1.55Z"/><path class="cls-3" d="M59.85,147.74c-.77.61-1.64,1.2-2.64,1.92a44,44,0,0,0-1.59,6.18A48.47,48.47,0,0,1,59.85,147.74Z"/><path class="cls-3" d="M68.92,121.88a99.33,99.33,0,0,1-2,11.15,32.51,32.51,0,0,0,14-2.52A88.8,88.8,0,0,0,80,145a11.67,11.67,0,0,0,6.3-5.43c-.32-9.63,5.67-28.63,8.13-38.83l-4.83-1.55-7.35,6.72a34.73,34.73,0,0,1-2.8,6.44C77.41,115.86,73.4,119.11,68.92,121.88Z"/><path class="cls-1" d="M96.76,88.54a32.22,32.22,0,0,1,2.76-2.14c2.43-1.64,5.78-3,8-.26a9.33,9.33,0,0,1,.93,9.52,38.33,38.33,0,0,1-4.23,6.25c-2.62,3.2-5.94,3.58-9.31,1.93-2.93,6.58-5.72,11.26-12,15.43-8.14,5.4-19.3,8.89-28.77,11.13-4.06,1-10.28,1.62-12.15-3.21-1.62-4.18-3.74-8.26-5.74-12.27-2.55-5.11-5.65-11.21-6.75-16.82-1.07-5.44.31-9.85,1.81-15,.51-1.74-1-6.13-1.68-7.82a5,5,0,0,1,0-3.73,103.35,103.35,0,0,1,8.7-19.77l.18-.31.33-.15c6.2-2.8,15.15-3.67,21.9-3.7,6.91,0,16.66.84,22.73,4.38l.3.18.16.31A53.07,53.07,0,0,0,96.39,69.65l.35.32v.47a65.63,65.63,0,0,1-1.24,16.67Z"/><path class="cls-2" d="M39.32,52.32a101,101,0,0,0-8.61,19.56,3.91,3.91,0,0,0,0,2.93c1.08,2.52,2.28,6.69,1.73,8.58-1.87,6.44-2.71,9.81-1.79,14.49,1.7,8.63,8.92,19.79,12.44,28.9,1.56,4,7.1,3.4,10.83,2.51,9-2.13,20.39-5.65,28.41-11,6-4,8.66-8.2,12.08-16.08,3.33,2.08,6.47,2,9-1a37,37,0,0,0,4.11-6.06,8.23,8.23,0,0,0-.81-8.28c-2.71-3.33-7.82,1.43-10,3.27l-2.36-2.7a63.64,63.64,0,0,0,1.34-16.94A53.8,53.8,0,0,1,82.91,53C73.06,47.2,49.71,47.64,39.32,52.32Z"/><path class="cls-3" d="M30.55,74.38a4.43,4.43,0,0,0,.15.43c.08.2.17.4.25.62,3.81-.36,8.45-.14,10.68.64.81.28,1.36,1.91,1.52,3.21A67.76,67.76,0,0,1,43.5,88a35.53,35.53,0,0,0,.7-9.32c-.24-1.35-.87-3.13-2.18-3.59-2.47-.86-7.43-1.09-11.47-.67ZM30.5,91.22c-.06.4-.11.79-.14,1.18a1.89,1.89,0,0,0,.34.09c3.21.51,7.53,1.16,10.88.71A4.47,4.47,0,0,0,42.35,92l-.56.1c-3.09.52-7.46-.11-10.9-.65A.77.77,0,0,1,30.5,91.22Z"/><path class="cls-3" d="M53.6,129.37l.31-.08c9-2.13,20.39-5.65,28.41-11,6-4,8.66-8.2,12.08-16.08,3.33,2.08,6.47,2,9-1a37,37,0,0,0,4.11-6.06,8.23,8.23,0,0,0-.81-8.28c-2.71-3.33-7.82,1.43-10,3.27l-2.36-2.7a63.64,63.64,0,0,0,1.34-16.94A53.8,53.8,0,0,1,82.91,53l-.1-.06a47,47,0,0,1-2.06,19.4C77.6,71.07,67.86,66,62.6,67c-1.53.3,14.09,3.74,16.27,13.72.13.58-22.77,5.47-16.49,4.7l9.94,1.88c5.55.87,8.36,2.84,9.76,5.36,3,5.52.49,14-2.68,19.67C75,120.07,61,126.43,53.6,129.37Z"/><path class="cls-3" d="M38.28,98.25c1.89,2.32,6.56,1.22,10,1.35a4.86,4.86,0,0,1,2.35.45,1.63,1.63,0,0,0,1.11.35c.7-.06,2-1.39.66-3.25,1.41.59,2.7,1.75,2.74,3s-1.49,2-3.39,2.34l-5.26,1c-2.08.59-3.19.86-5.14-1L38.3,99.31Z"/><path class="cls-12" d="M51.63,101.43c1.93-1.06,2-3,.08-4.83C54.9,98.13,54.8,101.23,51.63,101.43Z"/><path class="cls-14" d="M73.7,83l-5.55-4.25L66,78.23c-5.46,1.32-7.29,4.55-8.54,7.56-.29.69.31.62.75.61,2.53-.07,10.47,3.19,16.21.55.92-.53,1-.89,1.91-1.42C77.25,84.34,72.79,84.19,73.7,83Z"/><path class="cls-12" d="M44.48,101a10.7,10.7,0,0,1,4-1c1.28,0,1.38,1.17.25,1.18C47.18,101.22,46,100.92,44.48,101Z"/><path class="cls-12" d="M39.14,111.37A4.47,4.47,0,0,1,38,110.09a.84.84,0,0,1,0-.89,8.45,8.45,0,0,1,1.59-1.57c.75-.58,2-1.47,3-.75a2.85,2.85,0,0,0,2.09.8,20.88,20.88,0,0,0,3.09-1.4c2.41-1,6.6,1.18,8.82,2.21,2.41,1.12,3.55,2.11,6.32,1.27a.86.86,0,0,1,.93.31.84.84,0,0,1,0,1,14.77,14.77,0,0,1-11.59,6.56c-3.83.31-8.42-.58-11.55-2.92A3.55,3.55,0,0,1,39.14,111.37Z"/><path class="cls-15" d="M38.71,109.65c.29-.47,2.61-2.64,3.31-2.1,2.63,2,3.6.49,6-.48,2.06-.83,6.3,1.33,8.14,2.19,2.45,1.14,3.82,2.26,6.93,1.32-5.14,8-16.74,7.31-21.92,3.42A2.87,2.87,0,0,1,40,111,3.93,3.93,0,0,1,38.71,109.65Z"/><path class="cls-16" d="M65.34,78.37a6.92,6.92,0,0,0,.86,8c2.55,2.6,6.37,1.52,8.47.33,1.65-.94,1.61-1.77,3.35-2.26C74.43,79.7,70.8,78.47,65.34,78.37Z"/><path class="cls-12" d="M76.15,85.1l1.21-1.18-1.09-1.17-.63-.52-1.18-.94c-.25,3.14-4.25,4.57-6,1.25-.82-1.9-3.37-1.7-3.17.89a4.88,4.88,0,0,0,1.95,3.35C69.13,88.24,73.46,87.86,76.15,85.1Z"/><path class="cls-14" d="M68.34,79.51c1.33.25,2.32,1,2.22,1.77s-1.27,1.12-2.6.87-2.32-1-2.22-1.77S67,79.26,68.34,79.51Z"/><path class="cls-14" d="M39.18,80.3,34.54,81,32,84.14c2,2.42,4.68,2.68,10.9,2.3a3.65,3.65,0,0,0-.13-.5C42.23,83.35,40.86,82.29,39.18,80.3Z"/><path class="cls-16" d="M42.9,86.46C42,80,36.54,76.25,32.58,81.39a4,4,0,0,1-2.67-.57,8.8,8.8,0,0,0,4.06,5,6.24,6.24,0,0,1-.79-2.34C36.61,78.65,40.65,82.36,42.9,86.46Z"/><path class="cls-16" d="M35.57,80.91l-.08.26a4.78,4.78,0,0,0,3.94,5.12,17,17,0,0,0,3.49.17C42.25,82.92,40,78.47,35.57,80.91Z"/><path class="cls-12" d="M42.45,86.19a6.34,6.34,0,0,0-.92-2,2.21,2.21,0,0,1-3.39-1.12.72.72,0,0,0-1.34-.24c-.4.58,0,1.47.38,1.87a3.92,3.92,0,0,0,.76.63A8,8,0,0,0,42.45,86.19Z"/><path class="cls-14" d="M37.72,80.6c.81,0,1.44.32,1.4.76s-.71.82-1.52.84-1.43-.32-1.4-.77S36.92,80.62,37.72,80.6Z"/><path class="cls-12" d="M65.11,112.56c-.12-1.55-.64-3.58-2.47-4.35-.82-.34-1.61.55-.77,1.17A7,7,0,0,1,65.11,112.56Z"/><path class="cls-7" d="M51.09,113.21c1.41-.14,2.66.3,2.78,1s-.92,1.34-2.33,1.48-2.66-.3-2.78-1S49.67,113.34,51.09,113.21Z"/><path class="cls-12" d="M55.15,112.46a40.79,40.79,0,0,0,7.3-1.85c1.58-.53,1.29.55.73.81a9.08,9.08,0,0,1-2.08.67,28.86,28.86,0,0,1-5.71.66c-.61,0-1-.12-1-.16A4.54,4.54,0,0,1,55.15,112.46Z"/><path class="cls-12" d="M42.4,112.12a14.28,14.28,0,0,1-3.06-1.61c-.88-.58-.43.79.22,1.09a12.54,12.54,0,0,0,3.06.91c.61.1.56-.05.5-.11A4.33,4.33,0,0,0,42.4,112.12Z"/><path class="cls-14" d="M73.37,82.85a.68.68,0,0,1,0,1.36.68.68,0,0,1,0-1.36Z"/><path class="cls-14" d="M40.1,84.15a.26.26,0,0,1,.3.27.37.37,0,0,1-.32.34.26.26,0,0,1-.3-.27A.37.37,0,0,1,40.1,84.15Z"/><path class="cls-17" d="M24.69,75.88c.24-.38,1.07-1.42,1.57-1.41.34.09-1.18,1.39-.88,1.5,1.61.64,3.43,1.27,5.23,1.94.22.73.43,1.5.58,2.23a59.71,59.71,0,0,0-5.75-1.72c-.19-.38-.19,0-.39-.39C24.23,77.4,24.71,76.2,24.69,75.88Z"/><path class="cls-12" d="M59.79,68.85a41.39,41.39,0,0,1,22.07,5.38l2.8.41a36.82,36.82,0,0,0-19.43-8.86C62.4,65.45,61,66.65,59.79,68.85Z"/><path class="cls-12" d="M40.69,73.2c-2.5-1.19-8.25.27-10.18,1a3.83,3.83,0,0,1,0-1.78,23.76,23.76,0,0,1,7.81-1.76A2.86,2.86,0,0,1,40.69,73.2Z"/><path class="cls-12" d="M41.86,92.83a12.15,12.15,0,0,1-3,4.36c-.35.38-.23,1.14.15,1.8A12.31,12.31,0,0,0,42,101.45c-1.83-.78-3.87-1.45-4.57-3.5-.22-.63.07-1.26.85-1.81A13.08,13.08,0,0,0,41.86,92.83Z"/><path class="cls-18" d="M41,95.54a3.61,3.61,0,0,1-.69.81c-1,.92,1.44.89,1.41-.67C41.69,95.26,41.38,95,41,95.54Z"/><path class="cls-18" d="M43.08,93.09a10.29,10.29,0,0,0,.27-3.64,19,19,0,0,1-1,3.45c-.53,1.19-.66,1.64-.56,1.82C42,95.09,42.7,94.47,43.08,93.09Z"/><path class="cls-12" d="M96.66,99.66A26.41,26.41,0,0,1,101,92.32a28.87,28.87,0,0,1,1.59,3.77,15.6,15.6,0,0,0-1.09-4.32l.46-.45c2.49-2.32,3.39-1.77,4.16.37.49-3.14-1.67-4.13-4.62-1C98.15,94.21,97.06,97.09,96.66,99.66Z"/><path class="cls-19" d="M43.87,81.21c2.4-1.22,5.87-.72,8.11.6.27.15-.1.35-.26.62s0,.51-.31.35c-1.95-1.14-5.13-1.63-7.19-.48C43.92,82.47,43.35,81.47,43.87,81.21Z"/><path class="cls-16" d="M58.74,83.54C62.94,79,68.05,78,74,81c.67.34,1.56,1.16,2.25,1.6-.42,2-2,4.29-5.56,5.34,5.4.24,11.7-4.22,12.39-8.21a7.35,7.35,0,0,1-4.23.21c-6.66-5.54-16.42-4.35-20.19,2.88C58.29,83.57,58.25,84.07,58.74,83.54Z"/><path class="cls-1" d="M40.07,532.45a12.2,12.2,0,0,1,12,10.32c.06.31-.14.22-.45.28s-.6.25-.66-.06a11.08,11.08,0,0,0-11-9.41.57.57,0,0,1,0-1.13Z"/><path class="cls-1" d="M67.05,535.52c6.42-6.87,27.37-4,31.5,4.44a.58.58,0,0,1-.26.76.57.57,0,0,1-.76-.26c-3.77-7.73-23.77-10.45-29.65-4.16a.57.57,0,0,1-.83-.78Z"/><path class="cls-1" d="M73,407.4a33.17,33.17,0,0,1,4.18,5l.61.89a.5.5,0,0,1,.09.33c0,1.16-.7,5.42-.38,6.14,15.3,33.51,25.34,68.81,31.46,105.09.06.31-.18.33-.48.38s-.58.12-.63-.19c-6-35.54-15.77-70.15-30.58-103,0,0-.12-1.62-.11-1.8.06-2.1.27-3.34.33-5.44-.09-.14-1.25-1.71-1.34-1.85a22.65,22.65,0,0,0-3.55-4.14c-.21-.21.44-3.77.51-4.24-.16-.33-.76-1.71-.9-2.07-2.4-6.08-2.18-15.75-1.18-21.79,2-12,4.65-24,7.3-35.86,1.92-8.63,3.87-17.27,5.63-25.93,4.65-22.95,7.3-40.13-.33-61.63-.25-.69,1-.47,1.06-.38,7.72,21.71,5.08,39.07.38,62.23-1.76,8.68-3.71,17.32-5.64,26-2.63,11.86-5.29,23.8-7.28,35.79-1,6.2-1.24,16.6,1.61,22.31a.53.53,0,0,1,.05.33C73.56,404.83,73.15,406,73,407.4Z"/><path class="cls-1" d="M49.12,290.65a26.13,26.13,0,0,0-5.48-7.08c-1.2-1-.08-.92.43-.5a28.33,28.33,0,0,1,6.07,7,.53.53,0,0,1,.13.44c-2,16.26-3.47,32.62-4.07,49a343.48,343.48,0,0,0,1.12,46,52.35,52.35,0,0,0,1.83,10.3,539.1,539.1,0,0,1,16.07,70.91,536,536,0,0,1,6.14,56.53c0,.09,0,.54,0,.64,0,.3-1.09.72-1.15-.38A535.37,535.37,0,0,0,64.1,467a538.62,538.62,0,0,0-16-70.75,52.4,52.4,0,0,1-1.87-10.52,344.06,344.06,0,0,1-1.13-46.19C45.67,323.17,47.14,306.86,49.12,290.65Z"/><path class="cls-1" d="M112.93,529.34c-2.44,2-4.89,4.06-7.37,6-1.65,1.33-8.66,7.09-10.42,7.55-6.44,1.68-24,2.79-30.5-.11-.19-.08-.94-.46-1.1-.55-.38-.2.27-1.09.8-.81.1.06.52.22.63.27,6,2.85,23.69,1.72,29.88.1,1.44-.37,8.57-6.18,10-7.33q4.07-3.28,8.07-6.64C113.36,527.5,113.51,528.86,112.93,529.34Z"/><path class="cls-1" d="M63.79,542.1l-1.1.23a83.94,83.94,0,0,1-11,1c-3.94.21-7.91.31-11.86.28a77,77,0,0,1-11.7-.78l-2.56-.46c-.16,0,.63-1.08,1.6-.88l.48.1a70.3,70.3,0,0,0,12.19.88c3.93,0,7.87-.07,11.79-.27a81.67,81.67,0,0,0,10.83-1c.48-.09,1-.19,1.44-.31S64.32,542,63.79,542.1Z"/><path class="cls-1" d="M42.27,258.34a120.4,120.4,0,0,1,.85,17.94,32.37,32.37,0,0,1,4.64,6.19,198.77,198.77,0,0,0,.77-23c0-1,1.11-.47,1.13,0a203.54,203.54,0,0,1-.77,23c0,.5-.18,2-.67,2.14S47,283.46,46.77,283a30.53,30.53,0,0,0-4.46-5.95,1.08,1.08,0,0,1-.32-.83,123,123,0,0,0-.9-18.31C41,257,42.17,257.45,42.27,258.34Z"/><path class="cls-1" d="M75.83,271.15a65.09,65.09,0,0,0,13,7.33.56.56,0,0,1-.44,1A66.23,66.23,0,0,1,75,272a.52.52,0,0,1-.2-.28c-1.26-3.75-2.37-7.54-3.38-11.36-.12-.45,1-.66,1-.55C73.47,263.6,74.57,267.4,75.83,271.15Z"/><path class="cls-1" d="M32.9,254.53a64.09,64.09,0,0,0-5.93,13,.57.57,0,0,1-.72.36.56.56,0,0,1-.36-.71,65.79,65.79,0,0,1,5.95-13.13l.35.22Z"/><path class="cls-1" d="M76.22,387.56c-1.69,7.89-3.07,15.14-4.47,23.23-.45,2.6.53.57.7-.35,1.43-8,2.74-13.52,4.67-21.67C78.68,382.23,77.1,383.42,76.22,387.56Z"/><path class="cls-1" d="M78.07,398c-.29,8.23-1.1,19.38-1.37,27.59-.09,2.63.6.49.64-.45.33-8.07,1.45-18.2,1.79-25.79C79.26,396.46,78.22,393.69,78.07,398Z"/><path class="cls-1" d="M44.3,174.58l4.22,1.07c3.63-5.92,6.54-8.73,11.18-13.73-6.41,4.21-10.39,6.72-15.4,12.66Zm-.87-.74a49.49,49.49,0,0,1,7.3-7.1c2.41-1.89,5-3.57,7.55-5.25a47.76,47.76,0,0,0,5.81-4.08c.82-.73,1.56-1,1.49-.84-.94,2.36-4.66,5.7-5,6.12-2,2.13-4,4.23-5.9,6.44a56.21,56.21,0,0,0-5.14,7.12,1.12,1.12,0,0,1-1.25.5L44,175.67a1.09,1.09,0,0,1-.8-.75A1.12,1.12,0,0,1,43.43,173.84Z"/><path class="cls-1" d="M52.63,143.25c1.76,5.37,1.64,11.85,2.09,17.48,0,.31-.47,2.36-.78,2.39s-.33-2-.35-2.3c-.4-4.94-.11-11.15-1.35-16,0-.12-.13-.24-.22-.18-.35.22-1.05,1.61-1,1.17a11.09,11.09,0,0,1,.76-2.26C52.18,142.89,52.51,142.88,52.63,143.25Z"/><path class="cls-1" d="M75.71,149.75a48.46,48.46,0,0,1,5.15,12.31c0,.17.24.78.46.82s1.11-.76,1.31-1c4.21-4.94,8.56-11.85,10.47-18.1a.57.57,0,1,1,1.09.33c-2,6.41-6.38,13.44-10.7,18.51-1.3,1.53-3,2.27-3.73-.26A47.66,47.66,0,0,0,75,150.48a.36.36,0,0,0-.48-.11c-.56.26-1.53,1-2.32,1.5a13.41,13.41,0,0,1,1.76-2.3A1.1,1.1,0,0,1,75.71,149.75Z"/><path class="cls-1" d="M119.38,161c-5.07-.85-9.77,2.07-12.7,5.88-.6.78-1.13.61-.38-.36,3.2-4.16,7.75-7.56,13.27-6.64a.58.58,0,0,1,.46.66A.56.56,0,0,1,119.38,161Z"/><path class="cls-1" d="M103.31,192.19l-.23-.23c-4.86-5-3.08-13-1-18.13.18-.42.82-.87.46.16-1.84,5.23-3.11,12.16,1,16.82C103.7,191,103.9,192.76,103.31,192.19Z"/><path class="cls-1" d="M96.9,196.53a39.16,39.16,0,0,1-7.2,3.05c-.59.16-1-.1.4-.78a53,53,0,0,0,6.3-3.23.48.48,0,0,1,.71.09A.7.7,0,0,1,96.9,196.53Z"/><path class="cls-1" d="M90.86,207.76A38.6,38.6,0,0,1,86,213.91c-.43.42-1,.42,0-.87A53.78,53.78,0,0,0,90,207.16a.49.49,0,0,1,.67-.26A.68.68,0,0,1,90.86,207.76Z"/><path class="cls-1" d="M30.24,177.42a42.57,42.57,0,0,0,3.43-7.25c.18-.58-.06-1-.79.38a75,75,0,0,1-4.19,7.34C27.47,179.69,29.58,178.36,30.24,177.42Z"/><polygon class="cls-1" points="112.74 532.82 99.3 544.8 99.25 543.37 112.73 531.53 112.74 532.82"/><path class="cls-1" d="M62.2,546.08a69.92,69.92,0,0,1-10.09.9l-.56,0,0-1.14h.57a67.62,67.62,0,0,0,10-.91C62.66,544.84,62.77,546,62.2,546.08Z"/><path class="cls-19" d="M43.15,78.63a74.16,74.16,0,0,1,.35,9.08A38.82,38.82,0,0,0,44.2,78c-.24-1.42-.87-3.28-2.18-3.76-3.64-1.34-12.73-1.21-16.26.38-.63.29-1.21.56-1.37,1.16a7,7,0,0,0,.25,2.82A40.8,40.8,0,0,0,28.27,89.7c.54,1,1.23,2.56,2.43,2.75,3.21.53,7.53,1.21,10.88.74a4.59,4.59,0,0,0,.77-1.29l-.56.11c-3.09.55-7.46-.11-10.9-.68-.51-.08-.93-.94-1.63-2.18-1.87-3.35-3.08-8.61-3.5-10.79-.22-1.1-.27-2.4.47-2.73,3.24-1.47,12-1.59,15.4-.35C42.44,75.57,43,77.27,43.15,78.63Z"/><path class="cls-1" d="M53.3,530.78a57.32,57.32,0,0,0,8.36-6.95.57.57,0,1,1,.8.8,57.88,57.88,0,0,1-8.76,7.25.57.57,0,0,1-.49.06c-2.37-.77-4.09-1.24-6.58-.64a.57.57,0,1,1-.27-1.11A11.65,11.65,0,0,1,53.3,530.78Z"/><path class="cls-1" d="M93.71,530.55a23.56,23.56,0,0,0,2.51-3.45c.16-.27.77-.17,1,0s.09.33-.08.59a22.9,22.9,0,0,1-2.88,3.89.56.56,0,0,1-.56.16c-5.78-1.61-11.56-2.34-17.48-1.07a.57.57,0,1,1-.23-1.11C82,528.27,87.86,529,93.71,530.55Z"/><path class="cls-1" d="M100.83,103.18c-.4.64-.94,2.37-.48,3.07a.62.62,0,0,0,.52.28c.95,0,.55-2,.41-2.4a1.13,1.13,0,0,1,.31-1.17l1.06-1a1.1,1.1,0,0,1,.9-.29,1.12,1.12,0,0,1,.81.48,8.06,8.06,0,0,1,1.25,6.14A5.28,5.28,0,0,1,97,110.89a5.94,5.94,0,0,1-1.83-4.22,9.17,9.17,0,0,1,2.14-5.76A2.1,2.1,0,1,1,100.83,103.18Z"/><path class="cls-20" d="M99.86,102.58c-.64,1-1.21,3.16-.45,4.3,1.09,1.62,4.14.81,3-3.08l1.06-1a6.91,6.91,0,0,1,1.09,5.22,4.14,4.14,0,0,1-6.74,2c-1.66-1.54-2.41-4.76.44-8.46C99.3,100.19,100.49,101.58,99.86,102.58Z"/><ellipse class="cls-21" cx="97.48" cy="106.31" rx="0.77" ry="1.59"/><path class="cls-1" d="M47.75,527.54A8,8,0,0,1,54,531.13c.19.37-.78,1-1,.51a7,7,0,0,0-5.19-3,.56.56,0,0,1-.59-.54A.56.56,0,0,1,47.75,527.54Z"/><path class="cls-1" d="M50,525.62a8,8,0,0,1,6.25,3.59.57.57,0,0,1-1,.51,7,7,0,0,0-5.19-3,.57.57,0,0,1-.59-.54A.56.56,0,0,1,50,525.62Z"/><path class="cls-1" d="M52.9,523.25a8,8,0,0,1,6.25,3.59.57.57,0,0,1-1,.51,7,7,0,0,0-5.19-3,.57.57,0,1,1-.05-1.13Z"/><path class="cls-1" d="M89.55,527.26a8.17,8.17,0,0,1,4.92,3.45.57.57,0,0,1-1,.51,7.12,7.12,0,0,0-4.82-3C87.67,528.18,89,527.14,89.55,527.26Z"/><path class="cls-1" d="M79.59,527a7.5,7.5,0,0,0-3.88,2.18.58.58,0,0,0,.1.8.57.57,0,0,0,.8-.1,7.16,7.16,0,0,1,5.31-2C83.22,528,80.19,526.8,79.59,527Z"/><path class="cls-3" d="M52.06,78.13A4.17,4.17,0,0,1,55.29,74c10.43-2.37,21.15-1.53,31.43,1.14,1.67.43,2.37.86,2.55,1.55.34,1.31-.45,3.53-.77,4.5-.27.81-.61,1.63-.91,2.35-.73,1.73-1.56,3.45-2.45,5.1a33.92,33.92,0,0,1-3.79,5.81,5,5,0,0,1-3.95,2,92.32,92.32,0,0,1-20.46-1.4c-2-.35-3.31-2.21-3.77-4.06a48.71,48.71,0,0,1-1.11-12.86Zm1.13.08a50.54,50.54,0,0,0,1.08,12.51,4,4,0,0,0,2.86,3.21,90.94,90.94,0,0,0,20.21,1.39,3.82,3.82,0,0,0,3.14-1.59C83.69,90,87.29,82,87.79,79.5c.26-1.26.2-2.85-1.35-3.25-10.32-2.68-20.78-3.43-30.89-1.14A3.05,3.05,0,0,0,53.19,78.21Z"/><path class="cls-17" d="M85.07,74.35a15.57,15.57,0,0,1,3.28,1c4.07,3.4,7.15,7.54,10.46,11.54-.29.21-.57.43-.85.65-3.22-3.25-6.24-6.5-10.34-9,0-.64-.05-1.28-.08-1.92C86.8,75.2,85.57,74.89,85.07,74.35Z"/><path class="cls-19" d="M51.22,77.48a4.17,4.17,0,0,1,3.23-4.13C64.87,71,75.6,71.82,85.88,74.5c1.67.43,2.37.86,2.55,1.55.34,1.3-.45,3.52-.77,4.49-.28.81-.61,1.63-.92,2.35C86,84.63,85.19,86.34,84.3,88a34,34,0,0,1-3.8,5.81,5,5,0,0,1-4,2,92.32,92.32,0,0,1-20.46-1.4c-2-.34-3.3-2.2-3.76-4a48.33,48.33,0,0,1-1.11-12.86Zm1.13.07a50,50,0,0,0,1.08,12.51,4,4,0,0,0,2.86,3.21A90.86,90.86,0,0,0,76.5,94.66a3.82,3.82,0,0,0,3.14-1.59c3.21-3.76,6.8-11.69,7.31-14.22.25-1.27.2-2.85-1.36-3.26-10.31-2.68-20.78-3.43-30.89-1.13A3,3,0,0,0,52.35,77.55Z"/><path class="cls-11" d="M41.9,201.81c-5.39-1.78-9.08-.69-6.3.74,3.88,2,10.29,2,16,6,.73.51,2.62,1.56.4-.54A26.66,26.66,0,0,0,41.9,201.81Z"/><path class="cls-14" d="M64.87,187.67a7.44,7.44,0,0,0,4.7-.13,8.73,8.73,0,0,0,4.17-2.94l2-2.7c.69-.91,1.38-1.84,2.08-2.78l4.7-1.73,4.95-1.81-.74-.21L82.44,177l-4.13,1.53.46-.62,7.26-2.7-.73-.2-6.06,2.27.54-.72,4.69-1.77-.71-.2-3.5,1.33.53-.71,2.17-.83-.71-.19-1,.37.3-.39-4-1.08-2.9,4-6.14,2.36,2.54-3.64L73.72,172,70,171q-1.81,2.67-3.54,5.23l-3.36,5q-.15.23-.27.45L59.17,183l-3.48,1.33.56.19,3.08-1.17,3.21-1.23q-.12.27-.21.54l-5.47,2.08.56.19,4.79-1.81a4.61,4.61,0,0,0-.07.5l-4.08,1.53.56.19,3.5-1.3c0,.14,0,.27,0,.4l-3,1.1.56.19,2.45-.9a3.86,3.86,0,0,0,2.67,2.81Zm5.21-4.24h0a2.83,2.83,0,0,1-2.94,1h0a1.24,1.24,0,0,1-.93-1.09l5.3-1.94-1.43,2Zm-2-3.41h0l6.1-2.33c-.16.23-.33.45-.49.67l-6.07,2.3c.16-.21.31-.43.46-.64Zm-.86,1.23h0l6-2.27c-.17.22-.33.45-.49.68l-6,2.24.46-.65Zm-.85,1.22h0l6-2.21-.43.59L66.23,183A2,2,0,0,1,66.42,182.47Z"/><path class="cls-1" d="M29,249.66l.22.29a5.19,5.19,0,0,1,1.15,2.79,2.36,2.36,0,0,1-1.11,2.3,2.48,2.48,0,0,1-2.94-.71L24,252c-2.94-2.89-1.44-5.62.65-5.83l-.7-.71c-3-3-2-5.33-.2-6-1.53-1.22-3.22-3.29-1.8-5.19a3,3,0,0,1,2.58-1.16c-2.81-4.17,2.27-6.4,4.37-3.66l2.85,3.84a5.19,5.19,0,0,1,1.15,2.8,2.37,2.37,0,0,1-1.12,2.3,2.22,2.22,0,0,1-.32.14c2.64,3,.72,6.19-2,5l.61.82a5.28,5.28,0,0,1,1.16,2.8,2.39,2.39,0,0,1-1.13,2.3A1.89,1.89,0,0,1,29,249.66Z"/><path class="cls-2" d="M30.86,234,28,230.14c-1.36-1.78-5.33-.31-1.57,3.48l3.23,3.26C31.35,238.57,32.79,236.53,30.86,234Z"/><path class="cls-2" d="M30.18,238.83l-4.3-4c-1.77-1.68-5.8.6-1.08,4l4.6,3.32C31.52,243.69,32.72,241.23,30.18,238.83Z"/><path class="cls-2" d="M29.19,245l-2.86-3.85c-1.35-1.77-5.32-.31-1.57,3.48L28,247.91C29.68,249.6,31.13,247.56,29.19,245Z"/><path class="cls-2" d="M28.34,250.64l-1.77-2.37c-1.75-2.36-4.82-.09-1.76,2.91l2.33,2.35C28.83,255.22,30.27,253.17,28.34,250.64Z"/><path class="cls-1" d="M105.42,198.67c-.24.32,1.1.57,1.51.58.95,0,.95.59,0,.57a6.48,6.48,0,0,1-2.22-.42c-.8-.36-1-.89-.31-1.41,1.3-1,5.9-2.32,7.65-2.67a.57.57,0,0,1,.66.45.57.57,0,0,1-.44.67A31.77,31.77,0,0,0,105.42,198.67Z"/><path class="cls-1" d="M130.83,194.23c.34.21-.84.9-1.22,1.05-.89.34-.7.88.17.54a6.42,6.42,0,0,0,2-1.14c.63-.6.61-1.16-.19-1.43-1.58-.53-6.33-.2-8.1.06a.57.57,0,0,0,.17,1.12A32.41,32.41,0,0,1,130.83,194.23Z"/><path class="cls-1" d="M145.13,139.53a.77.77,0,0,0,.24-.46,131.67,131.67,0,0,0,1.27-20.43c-.07-5.19,6.89-5,7.38.27a134.76,134.76,0,0,1,.39,20.39.92.92,0,0,0,0,.37.36.36,0,0,0,.18,0c3.08-4.48,5.43-9.83,7.75-14.75,1.8-3.82,6.82-1.57,5,4-1.76,5.35-3.56,11.09-6.14,16.09,0,.08-.08.26,0,.33a.67.67,0,0,0,.28,0c3.51-.89,6.75-3,10-4.59,1.15-.57,2.63-.89,3.66.11a3.3,3.3,0,0,1,.55,3.34,6.11,6.11,0,0,1-2.21,3.12c-2.75,2-5.72,3.68-8.65,5.42-1.14,4.19-3,12.09-5.57,15.05l-2.3,2.69a3.86,3.86,0,0,0-1.14,2.82c-.23,4.18-.66,8.41-1.12,12.58-.71,6.47-1.6,12.94-2.74,19.35-1.26,7.11-2.88,14.8-5.47,21.53-1.47,3.82-4.41,10.39-9.14,10.85-3.74.36-7.79-4.72-9.77-7.35a125.53,125.53,0,0,1-10.06-16.5c-2.86-5.38-5.53-10.88-8.07-16.42a1.19,1.19,0,0,1,.88-1.63c.19-.06.39-.11.58-.15.64-.16,1.28-.29,1.93-.43q2.89-.6,5.82-1.11c1.1-.19,2.2-.38,3.31-.55,1.3-.19,2.61-.34,3.91-.43.76-.06,2.21-.32,2.65.56,1.81,3.66,3.44,7.38,5.19,11.06,1.52-5.36,3.43-10.59,5.13-15.91,1.76-5.54,3.34-11.39,3.3-17.25a.83.83,0,0,0-.51-.61,17.74,17.74,0,0,1-7.26-4.93c-1.56-1.78-2.66-4.51-3.69-6.65a23.2,23.2,0,0,0-2.26-3.89c-1.27-1.66-3.81-2.58-5.82-2.77a1.12,1.12,0,0,1-1-.79,3.71,3.71,0,0,1-.16-1.24c.12-2.69,2.9-4,5.21-4.38,2.46-.39,4.91,1.25,6.4,3.07a17.61,17.61,0,0,0,4.58,4.33c.17.09.63.3.83.17.49-.32.46-1.64.36-2.14A140.86,140.86,0,0,0,132,127.24c-.6-1.49-.76-3.38.67-4.47,2.1-1.59,5,.11,6.11,2.16C141.23,129.64,143.11,134.6,145.13,139.53Z"/><path class="cls-2" d="M127.48,194.13c2.84,5.72,3.66,8.07,6.51,13.77,3.32-13.16,9.34-24.79,9.27-36.39a1.93,1.93,0,0,0-1.29-1.67,16.53,16.53,0,0,1-6.77-4.61c-2.15-2.46-3.5-7.34-5.9-10.48a9.64,9.64,0,0,0-6.62-3.21c-.54-1.74.84-3.63,4.15-4.16,2.06-.32,4.16,1.22,5.35,2.67a18.12,18.12,0,0,0,4.92,4.61c2.42,1.27,3.22-1.27,2.84-3.19A144,144,0,0,0,133,126.82c-1.69-4.25,3-4.57,4.73-1.36,2.49,4.73,4.34,9.63,6.37,14.6.49,1.19,2.16.64,2.38-.83a132.79,132.79,0,0,0,1.27-20.6c-.05-3.75,4.77-3.4,5.12.38a136.7,136.7,0,0,1,.39,20.22,1.3,1.3,0,0,0,2.2,1.19c3-4.27,5.48-9.86,7.91-15,1.2-2.55,4.26-1,2.88,3.2-1.7,5.18-3.66,11.25-6.07,15.92a1.3,1.3,0,0,0,1.54,1.93c3.6-.91,6.68-2.92,10.21-4.68s3.49,2.7.83,4.65c-2.83,2.08-5.8,3.7-8.95,5.59-1,3.74-3.08,12.26-5.47,15.06-.76.89-1.52,1.79-2.29,2.68a4.9,4.9,0,0,0-1.41,3.5c-.55,9.69-5.37,62.08-17.45,63.24-7.09.68-20-24.76-26.76-39.61,0-.13,6.68-1.52,11.66-2.28A36.39,36.39,0,0,1,127.48,194.13Z"/><path class="cls-3" d="M127.48,194.13c2.71,5.46,3.58,7.86,6.14,13l-.8,3.87q-3.56-5.67-7.12-11.35a27,27,0,0,0-13,1.91c-.79-1.65-1.52-3.23-2.2-4.7,0-.13,6.68-1.52,11.66-2.28a36.39,36.39,0,0,1,5.37-.48Zm8-70.66a4.12,4.12,0,0,1,2.25,2c2.49,4.73,4.34,9.63,6.37,14.6.38.92,1.46.8,2,0-.31,1.72-1.7,3.86-3,1l-7.69-17.59ZM149.94,116a3.05,3.05,0,0,1,2.95,3,136.7,136.7,0,0,1,.39,20.22c-.09,1.5,1,1.74,1.73,1.5l-.1.17c-.8,1.42-3.15,1.17-3.16-.65,0-6.58-.06-13-.43-19.54-.13-2.44-.2-4-1.38-4.72Zm16.14,8.77a12.94,12.94,0,0,1-1.18,3.94q-1.87,4.89-3.77,9.77-1.4,3.51-2.81,7c-.48,1.5,3,2.74,3,5.49-.06,6.4-3.75,16-10.55,20.57.22,12.64-2.82,35.78-8.32,51.26-3,8.55-4.28,10.17-9.58,11.67,1.6,1.39,3.09,2.13,4.38,2,12.08-1.16,16.9-53.55,17.45-63.24a4.9,4.9,0,0,1,1.41-3.5c.77-.89,1.53-1.79,2.29-2.68,2.39-2.8,4.43-11.32,5.47-15.06,3.15-1.89,6.12-3.51,8.95-5.59,2.66-2,2.81-6.45-.83-4.65s-6.61,3.77-10.21,4.68a1.3,1.3,0,0,1-1.54-1.93c2.41-4.67,4.37-10.74,6.07-15.92C166.87,126.79,166.64,125.47,166.08,124.76Z"/><path class="cls-1" d="M133.31,206.14a41.5,41.5,0,0,0-1,8c0,.61.38,1,.63-.61a76.77,76.77,0,0,1,1.64-8.29C135.21,203.11,133.64,205,133.31,206.14Z"/><path class="cls-22" d="M150.28,171.75c4.54-5.8.55-12.55.73-20.15C152.05,159.47,157.21,167,150.28,171.75Z"/></g></g></svg>