<svg xmlns="http://www.w3.org/2000/svg" xmlns:xlink="http://www.w3.org/1999/xlink" viewBox="0 0 525.04 470"><defs><style>.cls-1{fill:none;}.cls-2{isolation:isolate;}.cls-21,.cls-22,.cls-23,.cls-24,.cls-26,.cls-29,.cls-3,.cls-30,.cls-33,.cls-35,.cls-36,.cls-8{fill:#fff;}.cls-26,.cls-3{opacity:0.5;}.cls-4{fill:#173d7a;}.cls-5{fill:#396caa;}.cls-6{fill:#274f89;}.cls-7{fill:#d4ecff;}.cls-9{fill:#5793ce;}.cls-10{fill:#ff2c9c;}.cls-11,.cls-24{opacity:0.3;}.cls-12{clip-path:url(#clip-path);}.cls-13{fill:#79b1e0;}.cls-14{fill:#d3008d;}.cls-15{fill:#416015;}.cls-16{fill:#e573b5;}.cls-17,.cls-25,.cls-28,.cls-32{fill:#acd780;}.cls-18{clip-path:url(#clip-path-2);}.cls-19{fill:#6c933b;}.cls-20,.cls-32{opacity:0.15;}.cls-21{opacity:0.7;}.cls-22{opacity:0.9;}.cls-23{opacity:0.8;}.cls-24,.cls-26,.cls-33{mix-blend-mode:lighten;}.cls-25,.cls-35{opacity:0.1;}.cls-27{fill:#00dfbf;}.cls-28,.cls-30{opacity:0.2;}.cls-29,.cls-33{opacity:0.6;}.cls-31{fill:#265c2e;opacity:0.05;mix-blend-mode:multiply;}.cls-34{fill:#375a64;}.cls-36{opacity:0.35;}.cls-37{fill:#eaffc5;}</style><clipPath id="clip-path"><path class="cls-1" d="M426.93,248.22l30.61-125L341.87,54.69l66.76-30.77L494.52,57s.52,151.33,0,152.86-31.82,52.29-31.82,52.29Z"/></clipPath><clipPath id="clip-path-2"><path class="cls-1" d="M426.93,248.22l30.61-125L341.87,54.69l-141,52.45L309.07,248.36s89.35,50.92,88.83,52.44,64.8-38.62,64.8-38.62Z"/></clipPath></defs><g class="cls-2"><g id="Layer_2" data-name="Layer 2"><g id="Layer_1-2" data-name="Layer 1"><path class="cls-3" d="M309.85,419.83l-192.21-111c-5.44-3.14-4.76-8.63,1.52-12.25l130.89-75.54c6.27-3.63,15.77-4,21.21-.88l192.21,111c5.44,3.14,4.76,8.63-1.52,12.25L331.07,419C324.79,422.58,315.29,423,309.85,419.83Z"/><path class="cls-4" d="M517.33,116.71,317.32,1.24a8.07,8.07,0,0,0-6.78-.83l0,0-.37.14a.2.2,0,0,0-.08,0l-7.23,2.76,6.48,3.18c0,.12-.06.23-.09.35L276.69,155.14c-1.63,7.43,1.64,16.09,7.3,19.36L479.18,287.2l-.69,8.27,7.9-3.06c2.65-1.25,4.78-4.05,5.66-8.05l32.57-148.3C526.25,128.64,523,120,517.33,116.71Z"/><path class="cls-5" d="M517.33,116.71,317.32,1.24a8.07,8.07,0,0,0-6.78-.83l0,0-.37.14a.2.2,0,0,0-.08,0l-7.23,2.76,6.48,3.18c0,.12-.06.23-.09.35L287.8,104.59l97.86,76.24,138-56.15A15.57,15.57,0,0,0,517.33,116.71Z"/><path class="cls-6" d="M509.79,139.51,525,133c.27-5.9-2.17-12-6.17-15.25l-24.1,10.14Z"/><path class="cls-7" d="M471.54,294.68l-200-115.47c-5.66-3.27-8.92-11.94-7.29-19.36L296.82,11.56C298.45,4.14,304.36.77,310,4L510,119.51c5.66,3.27,8.93,11.93,7.3,19.35l-32.58,148.3C483.11,294.58,477.2,298,471.54,294.68Z"/><path class="cls-8" d="M511.94,118.81,311.93,3.33A7.9,7.9,0,0,0,304.06,3,8.21,8.21,0,0,1,310,4L510,119.51c5.66,3.27,8.93,11.93,7.3,19.35l-32.58,148.3c-.84,3.82-2.83,6.54-5.32,7.86,3.37-.74,6.19-3.8,7.24-8.56l32.58-148.3C520.87,130.74,517.6,122.08,511.94,118.81Z"/><path class="cls-8" d="M467.2,283.65,279.1,175.1c-5.18-3-8.17-10.92-6.67-17.71l29.81-135.7c1.49-6.79,6.9-9.87,12.07-6.88L502.42,123.36c5.18,3,8.16,10.91,6.67,17.7L479.28,276.77C477.79,283.56,472.38,286.64,467.2,283.65Z"/><path class="cls-4" d="M467.2,283.65,279.1,175.1c-5.18-3-8.17-10.92-6.67-17.71l29.81-135.7c1.49-6.79,6.9-9.87,12.07-6.88L502.42,123.36c5.18,3,8.16,10.91,6.67,17.7L479.28,276.77C477.79,283.56,472.38,286.64,467.2,283.65Z"/><path class="cls-9" d="M468.84,283,280.74,174.43c-5.18-3-8.17-10.91-6.67-17.7L303.88,21c.75-3.43,2.51-5.91,4.74-7.14-3,.77-5.45,3.56-6.38,7.81l-29.81,135.7c-1.5,6.79,1.49,14.72,6.67,17.71L467.2,283.65a7.23,7.23,0,0,0,7.34.26A7.51,7.51,0,0,1,468.84,283Z"/><path class="cls-4" d="M474.3,299.71,447,296.1,270.48,194.21c-5.66-3.27-15.54-2.86-22.08.91l-125,72.18-16.53-2.19v9.38h0c-.11,2.16,1.13,4.25,3.8,5.79l200,115.48c5.65,3.26,15.54,2.85,22.07-.92l136.19-78.6c3.68-2.13,5.51-4.86,5.4-7.43h0Z"/><path class="cls-5" d="M341.7,235.33l-12.54-7.24H191.31l-68,39.21-16.53-2.19v9.38h0c-.11,2.16,1.13,4.25,3.8,5.79l200,115.48c3,1.72,7.16,2.41,11.39,2.13Z"/><path class="cls-9" d="M114.15,266.08l-7.33-1v9.38h0c-.11,2.16,1.13,4.25,3.8,5.79l3.52,2Z"/><path class="cls-6" d="M312.65,396.7c5.36,2,13,1.59,18.76-1.16V374.61H312.65Z"/><path class="cls-7" d="M310.64,386.4l-200-115.48c-5.66-3.27-4.95-9,1.58-12.74L248.4,179.57c6.54-3.77,16.42-4.18,22.08-.91l200,115.47c5.65,3.27,4.94,9-1.59,12.75l-136.19,78.6C326.18,389.25,316.29,389.66,310.64,386.4Z"/><path class="cls-8" d="M468.9,303.45,332.71,382.06c-6.53,3.77-16.42,4.18-22.07.91l-200-115.47a7.45,7.45,0,0,1-3.52-3.85c-.89,2.67.24,5.38,3.52,7.27l200,115.48c5.65,3.26,15.54,2.85,22.07-.92l136.19-78.6c4.39-2.54,6.14-5.94,5.1-8.9C473.36,299.93,471.65,301.86,468.9,303.45Z"/><path class="cls-9" d="M195.69,232.69l-9.05-5.22c-.72-.42-.63-1.16.21-1.64l10.68-6.17a3.15,3.15,0,0,1,2.83-.11l9,5.22c.73.42.64,1.15-.2,1.64l-10.68,6.16A3.14,3.14,0,0,1,195.69,232.69Z"/><path class="cls-9" d="M209.67,240.76l-9-5.22c-.73-.42-.64-1.16.2-1.64l10.68-6.17a3.21,3.21,0,0,1,2.84-.12l9,5.23c.73.42.63,1.15-.2,1.64l-10.69,6.16A3.12,3.12,0,0,1,209.67,240.76Z"/><path class="cls-9" d="M223.64,248.83l-9-5.23c-.72-.42-.63-1.15.21-1.63l10.68-6.17a3.15,3.15,0,0,1,2.83-.12l9.05,5.23c.73.42.64,1.15-.2,1.63l-10.68,6.17A3.14,3.14,0,0,1,223.64,248.83Z"/><path class="cls-9" d="M243,242.17l-9.05-5.23c-.72-.42-.63-1.15.21-1.64l9-5.17a3.14,3.14,0,0,1,2.84-.12l9,5.22c.72.42.63,1.16-.21,1.64l-9,5.18A3.17,3.17,0,0,1,243,242.17Z"/><path class="cls-9" d="M257,250.23l-9-5.22c-.73-.42-.64-1.15.2-1.64l9-5.17a3.12,3.12,0,0,1,2.83-.12L269,243.3c.73.42.64,1.16-.2,1.64l-9,5.18A3.15,3.15,0,0,1,257,250.23Z"/><path class="cls-9" d="M270.92,258.3l-9.05-5.22c-.72-.42-.63-1.15.21-1.64l9-5.18a3.17,3.17,0,0,1,2.84-.11l9.05,5.22c.73.42.63,1.15-.21,1.64l-9,5.18A3.17,3.17,0,0,1,270.92,258.3Z"/><path class="cls-9" d="M284.9,266.37l-9-5.22c-.73-.42-.64-1.16.2-1.64l9-5.18a3.15,3.15,0,0,1,2.83-.11l9,5.22c.73.42.64,1.15-.2,1.64l-9,5.17A3.12,3.12,0,0,1,284.9,266.37Z"/><path class="cls-9" d="M298.87,274.44l-9.05-5.22c-.72-.42-.63-1.16.21-1.64l9-5.18a3.21,3.21,0,0,1,2.84-.12l9.05,5.23c.73.42.63,1.15-.2,1.64l-9,5.17A3.14,3.14,0,0,1,298.87,274.44Z"/><path class="cls-9" d="M312.85,282.51l-9.05-5.23c-.73-.42-.64-1.15.2-1.63l9-5.18a3.15,3.15,0,0,1,2.83-.12l9.05,5.23c.73.42.64,1.15-.2,1.63l-9,5.18A3.12,3.12,0,0,1,312.85,282.51Z"/><path class="cls-9" d="M326.82,290.58l-9-5.23c-.73-.42-.64-1.15.2-1.63l9-5.18a3.15,3.15,0,0,1,2.83-.12l9.05,5.23c.73.42.64,1.15-.2,1.63l-9,5.18A3.17,3.17,0,0,1,326.82,290.58Z"/><path class="cls-9" d="M340.8,298.65l-9.05-5.23c-.73-.42-.63-1.15.2-1.63l9-5.18a3.14,3.14,0,0,1,2.84-.12l9.05,5.23c.72.41.63,1.15-.21,1.63l-9,5.18A3.15,3.15,0,0,1,340.8,298.65Z"/><path class="cls-9" d="M354.78,306.72l-9-5.23c-.73-.42-.64-1.15.2-1.64l9-5.17a3.12,3.12,0,0,1,2.83-.12l9,5.22c.73.42.64,1.16-.2,1.64l-9,5.18A3.19,3.19,0,0,1,354.78,306.72Z"/><path class="cls-9" d="M368.75,314.78l-9.05-5.22c-.73-.42-.63-1.15.2-1.64l9-5.17a3.14,3.14,0,0,1,2.84-.12l9.05,5.22c.72.42.63,1.15-.21,1.64l-9,5.18A3.17,3.17,0,0,1,368.75,314.78Z"/><path class="cls-9" d="M263.56,238.35l-9-5.23c-.73-.42-.64-1.15.2-1.64l9-5.17a3.12,3.12,0,0,1,2.83-.12l9.05,5.22c.73.42.64,1.16-.2,1.64l-9,5.18A3.17,3.17,0,0,1,263.56,238.35Z"/><path class="cls-9" d="M249.38,230.16l-9-5.23c-.73-.42-.63-1.15.2-1.63l9-5.18a3.14,3.14,0,0,1,2.84-.12l9,5.23c.72.42.63,1.15-.21,1.63l-9,5.18A3.17,3.17,0,0,1,249.38,230.16Z"/><path class="cls-9" d="M235.17,222,215.68,210.7c-.72-.42-.63-1.15.21-1.64l9-5.17a3.14,3.14,0,0,1,2.84-.12L247.18,215c.73.42.63,1.16-.2,1.64l-9,5.18A3.17,3.17,0,0,1,235.17,222Z"/><path class="cls-9" d="M245.1,212l-15.81-9.13c-.73-.42-.64-1.16.2-1.64l9-5.18a3.15,3.15,0,0,1,2.83-.11l15.82,9.13c.73.42.63,1.15-.2,1.63l-9,5.18A3.14,3.14,0,0,1,245.1,212Z"/><path class="cls-9" d="M277.54,246.41l-9.05-5.22c-.73-.42-.64-1.15.2-1.64l9-5.17a3.14,3.14,0,0,1,2.84-.12l9,5.22c.73.42.64,1.16-.2,1.64l-9,5.18A3.15,3.15,0,0,1,277.54,246.41Z"/><path class="cls-9" d="M291.52,254.48l-9-5.22c-.73-.42-.64-1.15.2-1.64l9-5.18a3.15,3.15,0,0,1,2.83-.11l9,5.22c.73.42.64,1.15-.2,1.64l-9,5.18A3.15,3.15,0,0,1,291.52,254.48Z"/><path class="cls-9" d="M305.49,262.55l-9.05-5.22c-.73-.42-.63-1.16.2-1.64l9-5.18a3.17,3.17,0,0,1,2.84-.11l9.05,5.22c.72.42.63,1.15-.21,1.64l-9,5.17A3.14,3.14,0,0,1,305.49,262.55Z"/><path class="cls-9" d="M319.47,270.62l-9.05-5.22c-.73-.42-.64-1.16.2-1.64l9-5.18a3.19,3.19,0,0,1,2.83-.12l9.05,5.23c.73.42.64,1.15-.2,1.64l-9,5.17A3.12,3.12,0,0,1,319.47,270.62Z"/><path class="cls-9" d="M333.44,278.69l-9.05-5.23c-.73-.42-.63-1.15.21-1.63l9-5.18a3.17,3.17,0,0,1,2.84-.12l9.05,5.23c.72.42.63,1.15-.21,1.63l-9,5.18A3.14,3.14,0,0,1,333.44,278.69Z"/><path class="cls-9" d="M347.42,286.76l-9.05-5.23c-.73-.42-.64-1.15.2-1.63l9-5.18a3.15,3.15,0,0,1,2.83-.12l9.05,5.23c.73.42.64,1.15-.2,1.63l-9,5.18A3.15,3.15,0,0,1,347.42,286.76Z"/><path class="cls-9" d="M361.39,294.83l-9.05-5.23c-.72-.42-.63-1.15.21-1.64l9-5.17a3.14,3.14,0,0,1,2.84-.12l9,5.23c.72.41.63,1.15-.21,1.63l-9,5.18A3.17,3.17,0,0,1,361.39,294.83Z"/><path class="cls-9" d="M375.37,302.9l-9.05-5.23c-.73-.42-.64-1.15.2-1.64l9-5.17a3.12,3.12,0,0,1,2.83-.12l9.05,5.22c.73.42.64,1.16-.2,1.64l-9,5.18A3.19,3.19,0,0,1,375.37,302.9Z"/><path class="cls-9" d="M389.34,311l-9-5.22c-.72-.42-.63-1.15.21-1.64l9-5.17a3.14,3.14,0,0,1,2.84-.12l9.05,5.22c.72.42.63,1.15-.21,1.64l-9,5.18A3.17,3.17,0,0,1,389.34,311Z"/><path class="cls-9" d="M414.19,325.31l-19.75-11.4c-.72-.42-.63-1.15.21-1.64l9-5.18a3.17,3.17,0,0,1,2.84-.11l19.74,11.4c.73.42.64,1.15-.2,1.63l-9,5.18A3.15,3.15,0,0,1,414.19,325.31Z"/><path class="cls-9" d="M441.4,309.6,424.73,300c-.73-.42-.64-1.15.2-1.64l9-5.18a3.15,3.15,0,0,1,2.83-.11l16.67,9.62c.73.42.64,1.15-.2,1.63l-9,5.18A3.12,3.12,0,0,1,441.4,309.6Z"/><path class="cls-9" d="M302,244.84,293,239.61c-.72-.42-.63-1.15.21-1.64l9-5.17a3.14,3.14,0,0,1,2.84-.12l9,5.22c.73.42.63,1.16-.2,1.64l-9,5.18A3.17,3.17,0,0,1,302,244.84Z"/><path class="cls-9" d="M287.69,236.57l-9.05-5.23c-.73-.42-.63-1.15.2-1.64l9-5.17a3.14,3.14,0,0,1,2.84-.12l9.05,5.23c.72.41.63,1.15-.21,1.63l-9,5.18A3.17,3.17,0,0,1,287.69,236.57Z"/><path class="cls-9" d="M273.37,228.3l-9.05-5.23c-.73-.42-.64-1.15.2-1.63l9-5.18a3.12,3.12,0,0,1,2.83-.12l9.05,5.23c.73.42.64,1.15-.2,1.63l-9,5.18A3.15,3.15,0,0,1,273.37,228.3Z"/><path class="cls-9" d="M259,220l-9-5.23c-.73-.42-.64-1.15.2-1.63l9-5.18a3.12,3.12,0,0,1,2.83-.12l9.05,5.23c.73.42.64,1.15-.2,1.63l-9,5.18A3.17,3.17,0,0,1,259,220Z"/><path class="cls-9" d="M316,252.9l-9.05-5.22c-.73-.42-.64-1.15.2-1.64l9-5.17a3.12,3.12,0,0,1,2.83-.12L328,246c.73.42.64,1.16-.2,1.64l-9,5.18A3.15,3.15,0,0,1,316,252.9Z"/><path class="cls-9" d="M330,261l-9-5.22c-.72-.42-.63-1.15.21-1.64l9-5.18a3.17,3.17,0,0,1,2.84-.11L342,254c.73.42.63,1.15-.2,1.64l-9,5.18A3.17,3.17,0,0,1,330,261Z"/><path class="cls-9" d="M343.94,269l-9.05-5.22c-.73-.42-.64-1.16.2-1.64l9-5.18a3.15,3.15,0,0,1,2.83-.11l9.05,5.22c.73.42.64,1.15-.2,1.64l-9,5.17A3.12,3.12,0,0,1,343.94,269Z"/><path class="cls-9" d="M357.91,277.11l-9-5.22c-.73-.42-.64-1.16.2-1.64l9-5.18a3.15,3.15,0,0,1,2.83-.12l9.05,5.23c.73.42.64,1.15-.2,1.64l-9,5.17A3.14,3.14,0,0,1,357.91,277.11Z"/><path class="cls-9" d="M371.89,285.18,362.84,280c-.73-.42-.63-1.15.2-1.63l9-5.18a3.17,3.17,0,0,1,2.84-.12l9,5.23c.72.42.63,1.15-.21,1.63l-9,5.18A3.14,3.14,0,0,1,371.89,285.18Z"/><path class="cls-9" d="M385.87,293.25,376.82,288c-.73-.42-.64-1.15.2-1.63l9-5.18a3.12,3.12,0,0,1,2.83-.12l9.05,5.23c.73.42.64,1.15-.2,1.63l-9,5.18A3.15,3.15,0,0,1,385.87,293.25Z"/><path class="cls-9" d="M399.84,301.32l-9-5.23c-.73-.42-.63-1.15.2-1.64l9-5.17a3.14,3.14,0,0,1,2.84-.12l9.05,5.23c.72.41.63,1.15-.21,1.63l-9,5.18A3.17,3.17,0,0,1,399.84,301.32Z"/><path class="cls-9" d="M413.82,309.38l-9.05-5.22c-.73-.42-.64-1.15.2-1.64l9-5.17a3.12,3.12,0,0,1,2.83-.12l9.05,5.22c.73.42.64,1.16-.2,1.64l-9,5.18A3.15,3.15,0,0,1,413.82,309.38Z"/><path class="cls-9" d="M427.79,317.45l-9.05-5.22c-.72-.42-.63-1.15.21-1.64l9-5.17a3.14,3.14,0,0,1,2.84-.12l9.05,5.22c.72.42.63,1.15-.21,1.64l-9,5.18A3.17,3.17,0,0,1,427.79,317.45Z"/><path class="cls-9" d="M294.65,224.88l-9-5.23c-.73-.42-.64-1.15.2-1.63l9-5.18a3.15,3.15,0,0,1,2.83-.12l9.05,5.23c.73.42.64,1.15-.2,1.63l-9,5.18A3.14,3.14,0,0,1,294.65,224.88Z"/><path class="cls-9" d="M280.75,216.85l-9.05-5.22c-.73-.42-.64-1.16.2-1.64l9-5.18a3.15,3.15,0,0,1,2.83-.12l9.05,5.23c.73.42.64,1.15-.2,1.64l-9,5.17A3.12,3.12,0,0,1,280.75,216.85Z"/><path class="cls-9" d="M266.84,208.82l-9-5.22c-.72-.42-.63-1.16.21-1.64l9-5.18a3.17,3.17,0,0,1,2.84-.11l9.05,5.22c.72.42.63,1.15-.21,1.64l-9,5.17A3.14,3.14,0,0,1,266.84,208.82Z"/><path class="cls-9" d="M252.94,200.79l-9.05-5.22c-.73-.42-.64-1.15.2-1.64l9-5.18a3.15,3.15,0,0,1,2.83-.11l9.05,5.22c.73.42.64,1.15-.2,1.64l-9,5.18A3.15,3.15,0,0,1,252.94,200.79Z"/><path class="cls-9" d="M267.24,192.54l-9.05-5.23c-.73-.42-.64-1.15.2-1.63l3-1.72a3.17,3.17,0,0,1,2.84-.11l9.05,5.22c.73.42.63,1.15-.2,1.64l-3,1.71A3.15,3.15,0,0,1,267.24,192.54Z"/><path class="cls-9" d="M285.38,203l-9.05-5.22c-.72-.42-.63-1.15.21-1.64l3-1.71a3.17,3.17,0,0,1,2.84-.12l9.05,5.23c.72.42.63,1.15-.21,1.64l-3,1.71A3.17,3.17,0,0,1,285.38,203Z"/><path class="cls-9" d="M299.23,211l-9.05-5.23c-.72-.41-.63-1.15.21-1.63l3-1.71a3.12,3.12,0,0,1,2.83-.12l9.05,5.22c.73.42.64,1.16-.2,1.64l-3,1.71A3.14,3.14,0,0,1,299.23,211Z"/><path class="cls-9" d="M313.08,219,304,213.78c-.73-.42-.64-1.15.2-1.64l3-1.71a3.15,3.15,0,0,1,2.83-.12l9.05,5.23c.73.42.64,1.15-.2,1.64l-3,1.71A3.15,3.15,0,0,1,313.08,219Z"/><path class="cls-9" d="M326.93,227l-9.05-5.23c-.73-.41-.64-1.15.2-1.63l3-1.71a3.12,3.12,0,0,1,2.83-.12l9.05,5.22c.73.42.64,1.16-.2,1.64l-3,1.71A3.12,3.12,0,0,1,326.93,227Z"/><path class="cls-9" d="M404.24,271.63l-9.05-5.22c-.73-.42-.64-1.15.2-1.64l3-1.71a3.15,3.15,0,0,1,2.83-.12l9.05,5.23c.73.42.64,1.15-.2,1.64l-3,1.71A3.15,3.15,0,0,1,404.24,271.63Z"/><path class="cls-9" d="M418.09,279.63l-9-5.22c-.73-.42-.64-1.16.2-1.64l3-1.71a3.14,3.14,0,0,1,2.84-.12l9,5.22c.72.42.63,1.16-.21,1.64l-3,1.71A3.12,3.12,0,0,1,418.09,279.63Z"/><path class="cls-9" d="M431.93,287.62l-9.05-5.22c-.72-.42-.63-1.15.21-1.64l3-1.71a3.21,3.21,0,0,1,2.84-.12l9.05,5.23c.72.42.63,1.15-.21,1.64l-3,1.71A3.17,3.17,0,0,1,431.93,287.62Z"/><path class="cls-9" d="M445.78,295.62l-9-5.22c-.72-.42-.63-1.16.21-1.64l3-1.71a3.12,3.12,0,0,1,2.83-.12l9,5.22c.73.42.64,1.16-.2,1.64l-3,1.71A3.14,3.14,0,0,1,445.78,295.62Z"/><path class="cls-9" d="M308.63,233l-9.05-5.23c-.73-.42-.63-1.15.2-1.63l9-5.18a3.14,3.14,0,0,1,2.84-.12l9.05,5.23c.72.42.63,1.15-.21,1.63l-9,5.18A3.15,3.15,0,0,1,308.63,233Z"/><path class="cls-9" d="M322.61,241l-9.05-5.23c-.73-.42-.64-1.15.2-1.64l9-5.17a3.12,3.12,0,0,1,2.83-.12l9.05,5.22c.73.42.64,1.16-.2,1.64l-9,5.18A3.15,3.15,0,0,1,322.61,241Z"/><path class="cls-9" d="M336.58,249.08l-9.05-5.22c-.73-.42-.63-1.15.2-1.64l9-5.17a3.14,3.14,0,0,1,2.84-.12l9,5.22c.72.42.63,1.16-.21,1.64l-9,5.18A3.17,3.17,0,0,1,336.58,249.08Z"/><path class="cls-9" d="M350.56,257.15l-9.05-5.22c-.73-.42-.64-1.15.2-1.64l9-5.18a3.15,3.15,0,0,1,2.83-.11l9.05,5.22c.73.42.64,1.15-.2,1.64l-9,5.18A3.15,3.15,0,0,1,350.56,257.15Z"/><path class="cls-9" d="M364.53,265.22l-9-5.22c-.72-.42-.63-1.16.21-1.64l9-5.18a3.17,3.17,0,0,1,2.84-.11l9.05,5.22c.72.42.63,1.15-.21,1.64l-9,5.17A3.14,3.14,0,0,1,364.53,265.22Z"/><path class="cls-9" d="M378.51,273.29l-9.05-5.22c-.73-.42-.64-1.16.2-1.64l9-5.18a3.19,3.19,0,0,1,2.83-.12l9.05,5.23c.73.42.64,1.15-.2,1.64l-9,5.17A3.12,3.12,0,0,1,378.51,273.29Z"/><path class="cls-9" d="M392.48,281.36l-9.05-5.23c-.72-.42-.63-1.15.21-1.63l9-5.18a3.17,3.17,0,0,1,2.84-.12l9.05,5.23c.72.42.63,1.15-.21,1.63l-9,5.18A3.14,3.14,0,0,1,392.48,281.36Z"/><path class="cls-9" d="M406.46,289.43l-9-5.23c-.73-.42-.64-1.15.2-1.63l9-5.18a3.12,3.12,0,0,1,2.83-.12l9,5.23c.73.42.64,1.15-.2,1.63l-9,5.18A3.15,3.15,0,0,1,406.46,289.43Z"/><path class="cls-9" d="M420.43,297.5l-9.05-5.23c-.72-.42-.63-1.15.21-1.64l9-5.17a3.14,3.14,0,0,1,2.84-.12l9.05,5.23c.72.41.63,1.15-.21,1.63l-9,5.18A3.17,3.17,0,0,1,420.43,297.5Z"/><path class="cls-9" d="M228.73,233.94l-26.65-15.38c-.73-.42-.64-1.16.2-1.64l9-5.18a3.19,3.19,0,0,1,2.83-.12L240.74,227c.72.42.63,1.15-.21,1.64l-9,5.18A3.17,3.17,0,0,1,228.73,233.94Z"/><path class="cls-9" d="M400.42,333.07l-26.65-15.39c-.73-.42-.64-1.15.2-1.64l9-5.17a3.12,3.12,0,0,1,2.83-.12l26.66,15.39c.72.42.63,1.15-.21,1.63l-9,5.18A3.14,3.14,0,0,1,400.42,333.07Z"/><path class="cls-9" d="M344.53,318.62l-9-5.22c-.72-.42-.63-1.15.21-1.64l10.68-6.16a3.12,3.12,0,0,1,2.83-.12l9.05,5.22c.73.42.64,1.15-.2,1.64l-10.68,6.17A3.17,3.17,0,0,1,344.53,318.62Z"/><path class="cls-9" d="M243,260l-14.47-8.36c-.73-.42-.64-1.15.2-1.63l10.69-6.17a3.12,3.12,0,0,1,2.83-.12l14.47,8.36c.73.42.64,1.15-.2,1.63l-10.68,6.17A3.14,3.14,0,0,1,243,260Z"/><path class="cls-9" d="M331.07,310.85l-14.48-8.36c-.72-.42-.63-1.15.21-1.63l10.68-6.17a3.15,3.15,0,0,1,2.83-.12l14.48,8.36c.72.42.63,1.15-.21,1.63l-10.68,6.17A3.12,3.12,0,0,1,331.07,310.85Z"/><path class="cls-9" d="M263.21,271.67l-14.48-8.36c-.72-.42-.63-1.15.21-1.63l10.68-6.17a3.15,3.15,0,0,1,2.83-.12l14.48,8.36c.72.42.63,1.15-.21,1.64L266,271.55A3.12,3.12,0,0,1,263.21,271.67Z"/><path class="cls-9" d="M262.55,255.45l62.93,36.33a.86.86,0,0,1,0,1.63l-10.9,6.29a3.11,3.11,0,0,1-2.82,0l-62.93-36.33Z"/><path class="cls-9" d="M383.59,333.25l10.08,5.82c.6.35.52.95-.17,1.34l-4.37,2.53a2.58,2.58,0,0,1-2.32.09l-10.08-5.82c-.59-.34-.52-.94.17-1.34l4.37-2.52A2.58,2.58,0,0,1,383.59,333.25Z"/><path class="cls-9" d="M369.5,325.12l10.08,5.82c.6.34.52.94-.17,1.34L375,334.8a2.58,2.58,0,0,1-2.32.1l-10.08-5.82c-.6-.35-.52-.95.17-1.34l4.37-2.53A2.58,2.58,0,0,1,369.5,325.12Z"/><path class="cls-9" d="M355.52,317.05l10.08,5.82c.6.34.53.94-.16,1.34l-4.37,2.52a2.6,2.6,0,0,1-2.33.1L348.66,321c-.59-.34-.52-.95.17-1.34l4.37-2.52A2.58,2.58,0,0,1,355.52,317.05Z"/><path class="cls-9" d="M377.22,320.66l10.08,5.82c.59.35.52.95-.17,1.34l-4.37,2.53a2.58,2.58,0,0,1-2.32.09l-10.08-5.82c-.6-.34-.52-.94.16-1.34l4.37-2.52A2.6,2.6,0,0,1,377.22,320.66Z"/><polygon class="cls-7" points="432.42 163.22 357.14 119.76 358.11 114.87 433.39 158.33 432.42 163.22"/><polygon class="cls-7" points="405.46 171.48 352.91 141.14 353.88 136.25 406.43 166.59 405.46 171.48"/><polygon class="cls-8" points="400.49 156.7 355.03 130.45 356 125.56 401.46 151.8 400.49 156.7"/><polygon class="cls-10" points="430.31 173.91 407.58 160.79 408.54 155.9 431.27 169.02 430.31 173.91"/><polygon class="cls-7" points="349.13 77.06 326.4 63.94 327.37 59.05 350.1 72.17 349.13 77.06"/><polygon class="cls-8" points="346.66 88.44 323.93 75.31 324.9 70.42 347.63 83.54 346.66 88.44"/><polygon class="cls-7" points="458.22 246.19 435.49 233.06 436.46 228.17 459.19 241.29 458.22 246.19"/><polygon class="cls-7" points="341.73 111.18 319 98.06 319.97 93.17 342.7 106.29 341.73 111.18"/><path class="cls-10" d="M390.84,114.71a2.84,2.84,0,0,1-4.09,1.25,3.55,3.55,0,0,1-1.46-4.46,2.84,2.84,0,0,1,4.09-1.26A3.57,3.57,0,0,1,390.84,114.71Z"/><path class="cls-8" d="M400.63,120.36a2.84,2.84,0,0,1-4.09,1.26,3.56,3.56,0,0,1-1.46-4.47,2.84,2.84,0,0,1,4.09-1.26A3.57,3.57,0,0,1,400.63,120.36Z"/><path class="cls-7" d="M410.42,126a2.84,2.84,0,0,1-4.09,1.26,3.55,3.55,0,0,1-1.46-4.46,2.83,2.83,0,0,1,4.09-1.26A3.56,3.56,0,0,1,410.42,126Z"/><path class="cls-10" d="M420.21,131.66a2.83,2.83,0,0,1-4.09,1.26,3.56,3.56,0,0,1-1.46-4.46,2.83,2.83,0,0,1,4.09-1.26A3.56,3.56,0,0,1,420.21,131.66Z"/><path class="cls-8" d="M257.48,335.37l-62.4-36c-1.82-1-1.59-2.88.5-4.09l37.66-21.74a7.88,7.88,0,0,1,7.09-.29l62.4,36c1.82,1.05,1.59,2.88-.51,4.09l-37.66,21.75A7.86,7.86,0,0,1,257.48,335.37Z"/><g class="cls-11"><g class="cls-12"><path class="cls-7" d="M392.9,173.11c4.3,2.48,4.3,6.52,0,9L319.83,224.3a4.74,4.74,0,0,1-4.28,0,1.3,1.3,0,0,1,0-2.47l73.07-42.19c1.94-1.12,1.94-2.94,0-4.06l-7.08-4.08c.79-1.19,1.5-2.42,2.2-3.68Z"/><path class="cls-9" d="M289.41,206.74l73.07-42.19a17.26,17.26,0,0,1,15.59,0l5.67,3.27c-.7,1.26-1.41,2.49-2.2,3.68L373.79,167a7.77,7.77,0,0,0-7,0l-73.07,42.19a4.74,4.74,0,0,1-4.28,0A1.3,1.3,0,0,1,289.41,206.74Z"/><polygon class="cls-9" points="288.53 208.06 288.53 105.31 365.1 62.63 375.81 61.92 386.16 68.63 392.52 74.16 317.91 192.47 293.55 206.82 288.53 208.06"/><polygon class="cls-13" points="316.85 221.04 293.96 207.82 293.96 108.52 317.56 119.49 316.85 221.04"/><polygon class="cls-7" points="396.12 74.96 396.12 177.53 315.74 223.51 314.67 223.09 314.67 120.36 396.12 74.96"/><path class="cls-8" d="M350.91,75.8l16-9.17a7.83,7.83,0,0,1,6.61.19l14.83,8.56a2.28,2.28,0,0,1,1.4,2.44l-40.37,24.12-32.43,19.91-23-13.33Z"/><path class="cls-9" d="M317.56,118.74V224.81a4.37,4.37,0,0,1-2-.51,1.5,1.5,0,0,1-.88-1.21h0v0h0V120.36Z"/><polygon class="cls-8" points="288.53 106.6 288.53 105.31 288.94 105.31 289.06 106.19 288.53 106.6"/><polygon class="cls-8" points="314.67 121.69 314.67 120.37 315.06 120.93 314.67 121.69"/><path class="cls-7" d="M319.83,121.57,392.9,79.38c4.3-2.48,4.3-6.52,0-9l-14.83-8.56a17.26,17.26,0,0,0-15.59,0L289.41,104a1.3,1.3,0,0,0,0,2.47,4.74,4.74,0,0,0,4.28,0l73.07-42.19a7.77,7.77,0,0,1,7,0l14.83,8.56c1.94,1.12,1.94,2.94,0,4.06L315.55,119.1a1.3,1.3,0,0,0,0,2.47A4.74,4.74,0,0,0,319.83,121.57Z"/><polygon class="cls-8" points="338.88 170.21 376.85 148.28 376.85 110.22 338.88 132.14 338.88 170.21"/><path class="cls-8" d="M289.41,106.48a4.74,4.74,0,0,0,4.28,0l73.07-42.19a7.77,7.77,0,0,1,7,0l14.83,8.56c1.27.74,1.7,1.77,1.31,2.71a2.91,2.91,0,0,0-1.31-1.35l-14.83-8.56a7.77,7.77,0,0,0-7,0l-73.07,42.18a4.68,4.68,0,0,1-4.28,0c-.89-.51-1.11-1.27-.64-1.91A2.11,2.11,0,0,0,289.41,106.48Z"/><path class="cls-8" d="M315.55,121.57a4.74,4.74,0,0,0,4.28,0L392.9,79.38a5.89,5.89,0,0,0,3.16-3.82c.34,1.85-.71,3.76-3.16,5.18l-73.07,42.18a4.68,4.68,0,0,1-4.28,0c-.89-.51-1.11-1.27-.65-1.91A2,2,0,0,0,315.55,121.57Z"/><path class="cls-10" d="M426.5,193c4.29,2.48,4.29,6.52,0,9l-73.06,42.19a4.74,4.74,0,0,1-4.28,0,1.3,1.3,0,0,1,0-2.47l73.06-42.19c1.94-1.12,1.94-2.94,0-4.06l-7.08-4.09c.79-1.18,1.51-2.41,2.2-3.67Z"/><path class="cls-14" d="M323,226.63l73.07-42.19a17.26,17.26,0,0,1,15.59,0l5.66,3.27c-.69,1.26-1.41,2.49-2.2,3.67l-7.74-4.47a7.77,7.77,0,0,0-7,0L327.29,229.1a4.74,4.74,0,0,1-4.28,0A1.3,1.3,0,0,1,323,226.63Z"/><polygon class="cls-15" points="322.13 227.95 322.12 125.2 398.69 82.52 409.4 81.81 419.76 88.52 426.11 94.05 351.5 212.36 327.15 226.71 322.13 227.95"/><polygon class="cls-16" points="350.45 240.93 327.56 227.71 327.56 128.41 351.15 139.38 350.45 240.93"/><polygon class="cls-17" points="429.72 94.84 429.72 197.42 349.33 243.4 348.26 242.97 348.26 140.24 429.72 94.84"/><path class="cls-8" d="M384.51,95.69l16-9.18a7.86,7.86,0,0,1,6.61.2l14.83,8.56c1.15.67,1.61,1.57,1.4,2.44L383,121.83l-32.43,19.9-23-13.32Z"/><path class="cls-14" d="M351.15,138.63V244.69a4.17,4.17,0,0,1-2-.5,1.51,1.51,0,0,1-.89-1.21h0V140.24Z"/><polygon class="cls-8" points="322.12 126.48 322.12 125.2 322.53 125.2 322.65 126.07 322.12 126.48"/><polygon class="cls-8" points="348.26 141.57 348.26 140.26 348.66 140.82 348.26 141.57"/><path class="cls-15" d="M353.43,141.46l73.06-42.19c4.3-2.48,4.3-6.52,0-9l-14.83-8.56a17.26,17.26,0,0,0-15.59,0L323,123.9a1.3,1.3,0,0,0,0,2.47,4.74,4.74,0,0,0,4.28,0l73.07-42.19a7.77,7.77,0,0,1,7,0l14.82,8.56c1.94,1.12,1.94,2.94,0,4.06L349.15,139a1.3,1.3,0,0,0,0,2.47A4.74,4.74,0,0,0,353.43,141.46Z"/><polygon class="cls-8" points="372.47 190.09 410.44 168.17 410.44 130.11 372.47 152.03 372.47 190.09"/><path class="cls-8" d="M323,126.37a4.74,4.74,0,0,0,4.28,0l73.07-42.19a7.77,7.77,0,0,1,7,0l14.82,8.56c1.27.74,1.71,1.77,1.31,2.71a2.86,2.86,0,0,0-1.31-1.35l-14.82-8.57a7.81,7.81,0,0,0-7,0l-73.07,42.18a4.74,4.74,0,0,1-4.28,0c-.9-.52-1.11-1.28-.65-1.91A2.16,2.16,0,0,0,323,126.37Z"/><path class="cls-8" d="M349.15,141.46a4.74,4.74,0,0,0,4.28,0l73.06-42.19a5.85,5.85,0,0,0,3.16-3.82c.34,1.85-.71,3.76-3.16,5.18l-73.06,42.18a4.68,4.68,0,0,1-4.28,0c-.9-.51-1.11-1.27-.65-1.91A2.16,2.16,0,0,0,349.15,141.46Z"/><path class="cls-7" d="M461,214.26c4.3,2.48,4.3,6.52,0,9l-73.07,42.19a4.74,4.74,0,0,1-4.28,0,1.31,1.31,0,0,1,0-2.48l73.07-42.18c1.94-1.12,1.94-2.94,0-4.06l-7.08-4.09c.79-1.18,1.5-2.42,2.2-3.67Z"/><path class="cls-9" d="M357.53,247.88l73.06-42.18a17.22,17.22,0,0,1,15.6,0l5.66,3.27c-.7,1.25-1.41,2.49-2.2,3.67l-7.74-4.47a7.8,7.8,0,0,0-7,0l-73.06,42.18a4.68,4.68,0,0,1-4.28,0C356.34,249.67,356.34,248.57,357.53,247.88Z"/><polygon class="cls-9" points="356.65 249.21 356.64 146.46 433.21 103.77 443.92 103.07 454.28 109.77 460.63 115.31 386.02 233.61 361.67 247.97 356.65 249.21"/><polygon class="cls-13" points="384.96 262.18 362.08 248.97 362.08 149.67 385.67 160.64 384.96 262.18"/><polygon class="cls-7" points="464.24 116.1 464.24 218.68 383.85 264.66 382.78 264.23 382.78 161.5 464.24 116.1"/><path class="cls-8" d="M419,117l16-9.18a7.83,7.83,0,0,1,6.61.2l14.83,8.56a2.26,2.26,0,0,1,1.4,2.43l-40.37,24.13L385,163l-23-13.32Z"/><path class="cls-9" d="M385.67,159.89V266a4.36,4.36,0,0,1-2-.5,1.53,1.53,0,0,1-.88-1.22h0v0h0V161.5Z"/><polygon class="cls-8" points="356.64 147.74 356.64 146.46 357.05 146.46 357.17 147.33 356.64 147.74"/><polygon class="cls-8" points="382.78 162.83 382.78 161.52 383.18 162.07 382.78 162.83"/><path class="cls-7" d="M387.94,162.72,461,120.53c4.3-2.48,4.3-6.52,0-9L446.19,103a17.22,17.22,0,0,0-15.6,0l-73.06,42.18c-1.19.69-1.19,1.79,0,2.47a4.68,4.68,0,0,0,4.28,0l73.06-42.18a7.8,7.8,0,0,1,7,0L456.73,114c1.94,1.12,1.94,2.94,0,4.06l-73.07,42.18a1.31,1.31,0,0,0,0,2.48A4.74,4.74,0,0,0,387.94,162.72Z"/><polygon class="cls-8" points="406.99 211.35 444.96 189.43 444.96 151.36 406.99 173.28 406.99 211.35"/><path class="cls-8" d="M357.53,147.62a4.68,4.68,0,0,0,4.28,0l73.06-42.18a7.8,7.8,0,0,1,7,0L456.73,114c1.27.73,1.71,1.76,1.31,2.7a3,3,0,0,0-1.31-1.35l-14.82-8.56a7.8,7.8,0,0,0-7,0L361.81,149a4.74,4.74,0,0,1-4.28,0c-.9-.52-1.11-1.28-.65-1.91A2,2,0,0,0,357.53,147.62Z"/><path class="cls-8" d="M383.66,162.72a4.74,4.74,0,0,0,4.28,0L461,120.53a5.89,5.89,0,0,0,3.16-3.83c.34,1.85-.71,3.77-3.16,5.18l-73.07,42.19a4.74,4.74,0,0,1-4.28,0c-.89-.52-1.1-1.28-.64-1.91A2.11,2.11,0,0,0,383.66,162.72Z"/></g></g><g class="cls-18"><path class="cls-7" d="M392.9,173.11c4.3,2.48,4.3,6.52,0,9L319.83,224.3a4.74,4.74,0,0,1-4.28,0,1.3,1.3,0,0,1,0-2.47l73.07-42.19c1.94-1.12,1.94-2.94,0-4.06l-7.08-4.08c.79-1.19,1.5-2.42,2.2-3.68Z"/><path class="cls-9" d="M289.41,206.74l73.07-42.19a17.26,17.26,0,0,1,15.59,0l5.67,3.27c-.7,1.26-1.41,2.49-2.2,3.68L373.79,167a7.77,7.77,0,0,0-7,0l-73.07,42.19a4.74,4.74,0,0,1-4.28,0A1.3,1.3,0,0,1,289.41,206.74Z"/><polygon class="cls-9" points="288.53 208.06 288.53 105.31 365.1 62.63 375.81 61.92 386.16 68.63 392.52 74.16 317.91 192.47 293.55 206.82 288.53 208.06"/><polygon class="cls-13" points="316.85 221.04 293.96 207.82 293.96 108.52 317.56 119.49 316.85 221.04"/><polygon class="cls-7" points="396.12 74.96 396.12 177.53 315.74 223.51 314.67 223.09 314.67 120.36 396.12 74.96"/><path class="cls-8" d="M350.91,75.8l16-9.17a7.83,7.83,0,0,1,6.61.19l14.83,8.56a2.28,2.28,0,0,1,1.4,2.44l-40.37,24.12-32.43,19.91-23-13.33Z"/><path class="cls-9" d="M317.56,118.74V224.81a4.37,4.37,0,0,1-2-.51,1.5,1.5,0,0,1-.88-1.21h0v0h0V120.36Z"/><polygon class="cls-8" points="288.53 106.6 288.53 105.31 288.94 105.31 289.06 106.19 288.53 106.6"/><polygon class="cls-8" points="314.67 121.69 314.67 120.37 315.06 120.93 314.67 121.69"/><path class="cls-7" d="M319.83,121.57,392.9,79.38c4.3-2.48,4.3-6.52,0-9l-14.83-8.56a17.26,17.26,0,0,0-15.59,0L289.41,104a1.3,1.3,0,0,0,0,2.47,4.74,4.74,0,0,0,4.28,0l73.07-42.19a7.77,7.77,0,0,1,7,0l14.83,8.56c1.94,1.12,1.94,2.94,0,4.06L315.55,119.1a1.3,1.3,0,0,0,0,2.47A4.74,4.74,0,0,0,319.83,121.57Z"/><polygon class="cls-8" points="338.88 170.21 376.85 148.28 376.85 110.22 338.88 132.14 338.88 170.21"/><path class="cls-8" d="M289.41,106.48a4.74,4.74,0,0,0,4.28,0l73.07-42.19a7.77,7.77,0,0,1,7,0l14.83,8.56c1.27.74,1.7,1.77,1.31,2.71a2.91,2.91,0,0,0-1.31-1.35l-14.83-8.56a7.77,7.77,0,0,0-7,0l-73.07,42.18a4.68,4.68,0,0,1-4.28,0c-.89-.51-1.11-1.27-.64-1.91A2.11,2.11,0,0,0,289.41,106.48Z"/><path class="cls-8" d="M315.55,121.57a4.74,4.74,0,0,0,4.28,0L392.9,79.38a5.89,5.89,0,0,0,3.16-3.82c.34,1.85-.71,3.76-3.16,5.18l-73.07,42.18a4.68,4.68,0,0,1-4.28,0c-.89-.51-1.11-1.27-.65-1.91A2,2,0,0,0,315.55,121.57Z"/><path class="cls-15" d="M426.5,193c4.29,2.48,4.29,6.52,0,9l-73.06,42.19a4.74,4.74,0,0,1-4.28,0,1.3,1.3,0,0,1,0-2.47l73.06-42.19c1.94-1.12,1.94-2.94,0-4.06l-7.08-4.09c.79-1.18,1.51-2.41,2.2-3.67Z"/><path class="cls-15" d="M323,226.63l73.07-42.19a17.26,17.26,0,0,1,15.59,0l5.66,3.27c-.69,1.26-1.41,2.49-2.2,3.67l-7.74-4.47a7.77,7.77,0,0,0-7,0L327.29,229.1a4.74,4.74,0,0,1-4.28,0A1.3,1.3,0,0,1,323,226.63Z"/><polygon class="cls-15" points="322.13 227.95 322.12 125.2 398.69 82.52 409.4 81.81 419.76 88.52 426.11 94.05 351.5 212.36 327.15 226.71 322.13 227.95"/><polygon class="cls-17" points="350.45 240.93 327.56 227.71 327.56 128.41 351.15 139.38 350.45 240.93"/><polygon class="cls-17" points="429.72 94.84 429.72 197.42 349.33 243.4 348.26 242.97 348.26 140.24 429.72 94.84"/><path class="cls-8" d="M384.51,95.69l16-9.18a7.86,7.86,0,0,1,6.61.2l14.83,8.56c1.15.67,1.61,1.57,1.4,2.44L383,121.83l-32.43,19.9-23-13.32Z"/><path class="cls-15" d="M351.15,138.63V244.69a4.17,4.17,0,0,1-2-.5,1.51,1.51,0,0,1-.89-1.21h0V140.24Z"/><polygon class="cls-8" points="322.12 126.48 322.12 125.2 322.53 125.2 322.65 126.07 322.12 126.48"/><polygon class="cls-8" points="348.26 141.57 348.26 140.26 348.66 140.82 348.26 141.57"/><path class="cls-19" d="M353.43,141.46l73.06-42.19c4.3-2.48,4.3-6.52,0-9l-14.83-8.56a17.26,17.26,0,0,0-15.59,0L323,123.9a1.3,1.3,0,0,0,0,2.47,4.74,4.74,0,0,0,4.28,0l73.07-42.19a7.77,7.77,0,0,1,7,0l14.82,8.56c1.94,1.12,1.94,2.94,0,4.06L349.15,139a1.3,1.3,0,0,0,0,2.47A4.74,4.74,0,0,0,353.43,141.46Z"/><polygon class="cls-8" points="372.47 190.09 410.44 168.17 410.44 130.11 372.47 152.03 372.47 190.09"/><path class="cls-20" d="M323,126.37a4.74,4.74,0,0,0,4.28,0l73.07-42.19a7.77,7.77,0,0,1,7,0l14.82,8.56c1.27.74,1.71,1.77,1.31,2.71a2.86,2.86,0,0,0-1.31-1.35l-14.82-8.57a7.81,7.81,0,0,0-7,0l-73.07,42.18a4.74,4.74,0,0,1-4.28,0c-.9-.52-1.11-1.28-.65-1.91A2.16,2.16,0,0,0,323,126.37Z"/><path class="cls-20" d="M349.15,141.46a4.74,4.74,0,0,0,4.28,0l73.06-42.19a5.85,5.85,0,0,0,3.16-3.82c.34,1.85-.71,3.76-3.16,5.18l-73.06,42.18a4.68,4.68,0,0,1-4.28,0c-.9-.51-1.11-1.27-.65-1.91A2.16,2.16,0,0,0,349.15,141.46Z"/><path class="cls-7" d="M461,214.26c4.3,2.48,4.3,6.52,0,9l-73.07,42.19a4.74,4.74,0,0,1-4.28,0,1.31,1.31,0,0,1,0-2.48l73.07-42.18c1.94-1.12,1.94-2.94,0-4.06l-7.08-4.09c.79-1.18,1.5-2.42,2.2-3.67Z"/><path class="cls-9" d="M357.53,247.88l73.06-42.18a17.22,17.22,0,0,1,15.6,0l5.66,3.27c-.7,1.25-1.41,2.49-2.2,3.67l-7.74-4.47a7.8,7.8,0,0,0-7,0l-73.06,42.18a4.68,4.68,0,0,1-4.28,0C356.34,249.67,356.34,248.57,357.53,247.88Z"/><polygon class="cls-9" points="356.65 249.21 356.64 146.46 433.21 103.77 443.92 103.07 454.28 109.77 460.63 115.31 386.02 233.61 361.67 247.97 356.65 249.21"/><polygon class="cls-13" points="384.96 262.18 362.08 248.97 362.08 149.67 385.67 160.64 384.96 262.18"/><polygon class="cls-7" points="464.24 116.1 464.24 218.68 383.85 264.66 382.78 264.23 382.78 161.5 464.24 116.1"/><path class="cls-8" d="M419,117l16-9.18a7.83,7.83,0,0,1,6.61.2l14.83,8.56a2.26,2.26,0,0,1,1.4,2.43l-40.37,24.13L385,163l-23-13.32Z"/><path class="cls-9" d="M385.67,159.89V266a4.36,4.36,0,0,1-2-.5,1.53,1.53,0,0,1-.88-1.22h0v0h0V161.5Z"/><polygon class="cls-8" points="356.64 147.74 356.64 146.46 357.05 146.46 357.17 147.33 356.64 147.74"/><polygon class="cls-8" points="382.78 162.83 382.78 161.52 383.18 162.07 382.78 162.83"/><path class="cls-7" d="M387.94,162.72,461,120.53c4.3-2.48,4.3-6.52,0-9L446.19,103a17.22,17.22,0,0,0-15.6,0l-73.06,42.18c-1.19.69-1.19,1.79,0,2.47a4.68,4.68,0,0,0,4.28,0l73.06-42.18a7.8,7.8,0,0,1,7,0L456.73,114c1.94,1.12,1.94,2.94,0,4.06l-73.07,42.18a1.31,1.31,0,0,0,0,2.48A4.74,4.74,0,0,0,387.94,162.72Z"/><polygon class="cls-8" points="406.99 211.35 444.96 189.43 444.96 151.36 406.99 173.28 406.99 211.35"/><path class="cls-8" d="M357.53,147.62a4.68,4.68,0,0,0,4.28,0l73.06-42.18a7.8,7.8,0,0,1,7,0L456.73,114c1.27.73,1.71,1.76,1.31,2.7a3,3,0,0,0-1.31-1.35l-14.82-8.56a7.8,7.8,0,0,0-7,0L361.81,149a4.74,4.74,0,0,1-4.28,0c-.9-.52-1.11-1.28-.65-1.91A2,2,0,0,0,357.53,147.62Z"/><path class="cls-8" d="M383.66,162.72a4.74,4.74,0,0,0,4.28,0L461,120.53a5.89,5.89,0,0,0,3.16-3.83c.34,1.85-.71,3.77-3.16,5.18l-73.07,42.19a4.74,4.74,0,0,1-4.28,0c-.89-.52-1.1-1.28-.64-1.91A2.11,2.11,0,0,0,383.66,162.72Z"/></g><path class="cls-21" d="M492.21,379.22a11.55,11.55,0,0,0-10.46,0l-135,77.95c-2.89,1.67-2.89,4.38,0,6a11.57,11.57,0,0,0,10.47,0l135-77.95C495.1,383.6,495.1,380.89,492.21,379.22Z"/><path class="cls-7" d="M515.27,337h0a.59.59,0,0,0-.63-.28l-8.17,1.77,3.22,5.47,5.52-6.27A.59.59,0,0,0,515.27,337Z"/><path class="cls-9" d="M512.05,341a4.06,4.06,0,0,0-1.87-3.18,1.32,1.32,0,0,0-1.22-.15,52.1,52.1,0,0,0-26.85,7.18l-.59.35,10.14,17.25,3-2a52.25,52.25,0,0,0,15.65-16.23l1.28-2.09A1.32,1.32,0,0,0,512.05,341Z"/><path class="cls-7" d="M493.7,357.89a15.64,15.64,0,0,0-7.17-12.2c-3.93-2.23-7.08-.37-7,4.14a15.62,15.62,0,0,0,7.17,12.2C490.58,364.25,493.73,362.4,493.7,357.89Z"/><polygon class="cls-7" points="431.48 399.98 491.66 362.48 481.52 345.23 419.5 379.59 431.48 399.98"/><path class="cls-7" d="M433.89,394.55c-.05-5.34-3.84-11.79-8.48-14.42s-8.36-.44-8.32,4.89,3.84,11.79,8.47,14.42S433.93,399.88,433.89,394.55Z"/><path class="cls-7" d="M430.45,396.56c0-5.33-3.83-11.78-8.47-14.41s-8.36-.44-8.32,4.89,3.83,11.79,8.47,14.42S430.49,401.89,430.45,396.56Z"/><rect class="cls-7" x="336.07" y="403.38" width="92.36" height="23.65" transform="translate(-157.69 250.96) rotate(-30.45)"/><path class="cls-7" d="M350.83,443.36c0-5.33-3.83-11.78-8.47-14.41s-8.37-.44-8.32,4.89,3.83,11.79,8.47,14.42S350.87,448.7,350.83,443.36Z"/><path class="cls-5" d="M347.83,441.66c-.19-3.15-2.75-7.07-5.73-8.75s-5.24-.51-5.06,2.64,2.75,7.06,5.73,8.75S348,444.81,347.83,441.66Z"/><path class="cls-8" d="M434.49,394.19c0-5.33-3.83-11.78-8.47-14.41a6.51,6.51,0,0,0-5-.93c1.51-1.58,4-1.76,6.79-.17,4.63,2.63,8.43,9.08,8.47,14.41,0,3.19-1.3,5.24-3.36,5.83A6.61,6.61,0,0,0,434.49,394.19Z"/><path class="cls-9" d="M434.49,394.19c0-5.33-3.83-11.78-8.47-14.41-2.32-1.32-4.41-1.43-5.92-.54l-4.51,2.65,2.15,3.66a18.92,18.92,0,0,0,7.68,13.07l2.15,3.65,4.51-2.65h0C433.59,398.74,434.51,396.86,434.49,394.19Z"/><path class="cls-7" d="M430,396.84c0-5.33-3.84-11.78-8.47-14.41s-8.37-.44-8.33,4.89,3.84,11.78,8.48,14.41S430,402.17,430,396.84Z"/><path class="cls-17" d="M344.08,444l-5.17-8.8L322,445.15a5.1,5.1,0,0,0-1.81,7h0a5.11,5.11,0,0,0,7,1.82Z"/><path class="cls-19" d="M345.12,441.68a8,8,0,0,0-3.66-6.22c-2-1.13-3.61-.18-3.59,2.12a7.94,7.94,0,0,0,3.66,6.21C343.53,444.93,345.13,444,345.12,441.68Z"/><path class="cls-9" d="M363.87,410.64l-2.53-1.44c-1.45-.82-3.37-.61-5.41.58l-8.67,5.1a6.61,6.61,0,0,0-2.95,5.19l0,4.34a3.6,3.6,0,0,1-.87,2.18l.32,2-2.16-1.24h0a1.11,1.11,0,0,1-.51-1.06l0-4.34a13.76,13.76,0,0,1,6.14-10.82l8.67-5.09c2.9-1.71,5.63-2,7.7-.83l2.53,1.44c1.45.82,3.38.62,5.41-.58l35-20.55a1.13,1.13,0,0,1,1.16-.11h0l2.15,1.23-1.84.71a3.6,3.6,0,0,1-1.44,1.91l-35,20.54C368.67,411.52,365.94,411.81,363.87,410.64Z"/><path class="cls-9" d="M363.53,410.46c-1.45-.83-3.37-.62-5.41.58l-8.67,5.09a6.59,6.59,0,0,0-2.94,5.19l0,4.34a3.58,3.58,0,0,1-1.6,2.82c-.89.52-1.61.11-1.62-.92l0-4.34a13.75,13.75,0,0,1,6.14-10.82l8.67-5.1c2.9-1.7,5.63-2,7.7-.82l2.53,1.43c1.45.83,3.38.62,5.41-.58l35-20.55c.89-.52,1.62-.11,1.63.93a3.59,3.59,0,0,1-1.6,2.81l-35,20.55c-2.9,1.7-5.63,2-7.7.82Z"/><path class="cls-8" d="M346.4,422l0,4.34s0,.06,0,.09a2.89,2.89,0,0,0,.12-.81l0-4.34a2.48,2.48,0,0,1,0-.38A4.71,4.71,0,0,0,346.4,422Z"/><ellipse class="cls-21" cx="316.1" cy="336.83" rx="27.45" ry="15.85"/><path class="cls-19" d="M347.33,323.28v-8.77h-1.66a19.9,19.9,0,0,0-7.49-7c-12.19-7-32-7-44.16,0a20,20,0,0,0-7.49,7h-1.65v8.72h0c0,4.63,3,9.26,9.14,12.8,12.2,7,32,7,44.16,0C344.28,332.51,347.33,327.89,347.33,323.28Z"/><ellipse class="cls-15" cx="316.1" cy="314.51" rx="31.23" ry="18.03"/><path class="cls-8" d="M338.18,327.26c-12.19,7-32,7-44.16,0-5.84-3.38-8.85-7.76-9.09-12.18-.27,4.81,2.74,9.66,9.09,13.32,12.2,7.05,32,7.05,44.16,0,6.35-3.66,9.36-8.51,9.1-13.32C347,319.5,344,323.88,338.18,327.26Z"/><path class="cls-8" d="M301.05,320.48a1.41,1.41,0,0,1-.82-1.15l0-11.75c0-.89,1.26-1.62,2.82-1.62s2.8.73,2.8,1.63l0,9.74,28.27-3.46c1.52-.19,3,.37,3.34,1.25s-.65,1.73-2.17,1.92l-31.67,3.88a4.44,4.44,0,0,1-2.35-.33Z"/><polygon class="cls-21" points="233.5 470 210.3 456.61 233.5 443.21 256.7 456.61 233.5 470"/><polygon class="cls-19" points="256.7 439.6 233.5 453 233.5 426.21 256.7 412.81 256.7 439.6"/><polygon class="cls-17" points="233.5 426.21 210.3 412.81 233.5 399.42 256.7 412.81 233.5 426.21"/><polygon class="cls-15" points="233.5 453 210.3 439.6 210.3 412.81 233.5 426.21 233.5 453"/><polygon class="cls-8" points="225.14 438.52 218.65 434.78 218.65 427.29 225.14 431.03 225.14 438.52"/><path class="cls-21" d="M98.24,431.1l-90-52a3,3,0,0,1,0-5.25l85.58-49.4,95.75,55.28a3,3,0,0,1,0,5.25L109.74,431.1A11.52,11.52,0,0,1,98.24,431.1Z"/><path class="cls-15" d="M95.65,288.45c0-5.72-4-8.05-9-5.19L2.5,331.76A5.43,5.43,0,0,0,0,336c0,1.57,1.1,2.21,2.46,1.43L86.67,289c2.23-1.29,4-.24,4,2.34v9.41c1.63-.1,3.27-.1,4.93-.07Z"/><path class="cls-15" d="M2.46,354.37,86.64,323.7c5-2.85,9-9.82,9-15.54v-7.53c-1.66,0-3.3,0-4.93.07V311a9,9,0,0,1-4.06,7L2.47,348.68A5.47,5.47,0,0,0,0,353C0,354.52,1.1,355.16,2.46,354.37Z"/><polygon class="cls-15" points="0.64 354.49 103.03 413.74 189.73 362.04 196.6 351.77 195.89 355.41 194.04 345.89 33.12 352.02 4.76 350.2 0.64 354.49"/><polygon class="cls-17" points="4.03 336.61 4 349.21 102.97 406.47 105.64 394.45 4.03 336.61"/><polygon class="cls-19" points="195.33 341.83 93.1 282.69 0.92 336.29 0.73 337.61 103.12 396.84 195.33 341.83"/><path class="cls-8" d="M162.74,372.21l24-14.26a9,9,0,0,0,3.62-6.71l0-1.88c0-1.53-.64-2.52-1.62-2.8l-47.32,26.32-38.54,20.84,0,12.75Z"/><path class="cls-15" d="M106.39,394.89,4.81,336.11l-2.16-1.24-2-1.14A4.87,4.87,0,0,0,0,336a1.75,1.75,0,0,0,.7,1.58h0l102.36,59.22Z"/><polygon class="cls-8" points="101.76 413 103.03 413.74 103.27 413.33 102.47 412.7 101.76 413"/><polygon class="cls-8" points="101.79 396.07 103.1 396.83 102.77 396.11 101.79 396.07"/><path class="cls-15" d="M104.88,391l84.18-48.5c4.95-2.85,9-.52,9,5.19l0,1.89c0,5.71-4,12.69-9,15.54l-84.17,48.5c-1.37.78-2.47.14-2.47-1.43a5.43,5.43,0,0,1,2.47-4.26L189,359.42a9,9,0,0,0,4.05-7l0-1.89c0-2.58-1.81-3.63-4-2.34l-84.17,48.5c-1.36.78-2.47.15-2.47-1.43A5.46,5.46,0,0,1,104.88,391Z"/><path class="cls-8" d="M102.38,412.18a5.43,5.43,0,0,1,2.47-4.26L189,359.42a9,9,0,0,0,4.05-7l0-1.89c0-1.69-.78-2.71-1.94-2.86a3.41,3.41,0,0,1,.59,2.08l0,1.89a9,9,0,0,1-4,7l-84.18,48.5A5.46,5.46,0,0,0,101,411.4c0,1.19.64,1.84,1.54,1.75A2.33,2.33,0,0,1,102.38,412.18Z"/><path class="cls-8" d="M102.41,395.25a5.46,5.46,0,0,1,2.47-4.26l84.18-48.5c2.13-1.23,4.09-1.49,5.63-.94-1.65-1.4-4.16-1.46-7,.16l-84.18,48.5a5.42,5.42,0,0,0-2.46,4.26c0,1.2.63,1.85,1.53,1.75A2.29,2.29,0,0,1,102.41,395.25Z"/><polygon class="cls-8" points="63.48 343 109.93 316.24 150.21 339.54 103.76 366.3 63.48 343"/><path class="cls-17" d="M131.77,347.31c-1.08,6.85-15.51,10.26-32.23,7.62s-29.39-10.34-28.31-17.19,15.51-10.27,32.23-7.63S132.85,340.45,131.77,347.31Z"/><path class="cls-17" d="M131.77,347.31c-1.08,6.85-15.51,10.26-32.23,7.62s-29.39-10.34-28.31-17.19,15.51-10.27,32.23-7.63S132.85,340.45,131.77,347.31Z"/><ellipse class="cls-22" cx="101.5" cy="342.52" rx="13.59" ry="33.15" transform="translate(-252.67 389.3) rotate(-81.02)"/><path class="cls-17" d="M72.41,326.65A13.62,13.62,0,0,1,99.3,330.9c0,.13,0,.25,0,.37s0,.25-.07.38c-.45,1.84-2.05,3.46-4.75,4.49-5.72,2.21-14.25.86-19-3-2.23-1.82-3.25-3.86-3.11-5.74,0-.13,0-.25,0-.38S72.38,326.77,72.41,326.65Z"/><path class="cls-23" d="M72.41,326.65A13.62,13.62,0,0,1,99.3,330.9c0,.13,0,.25,0,.37s0,.25-.07.38c-.45,1.84-2.05,3.46-4.75,4.49-5.72,2.21-14.25.86-19-3-2.23-1.82-3.25-3.86-3.11-5.74,0-.13,0-.25,0-.38S72.38,326.77,72.41,326.65Z"/><path class="cls-24" d="M81.87,316.11h0A13.6,13.6,0,0,1,99.3,330.9c0,.13,0,.25,0,.37s0,.25-.07.38c-.45,1.84-2.05,3.46-4.75,4.49a17.89,17.89,0,0,1-7.08,1c3.59-.05,6.46-3.59,6.07-8.06C93,323.94,89.06,315.93,81.87,316.11Z"/><path class="cls-25" d="M72.29,327.4c0-.13,0-.25,0-.38s0-.25.07-.37a13.54,13.54,0,0,1,6.1-9c-1.7,1.27-5.84,6.42-3,11.29,1.87,3.21,12.25,9,22.15,5.23a9.21,9.21,0,0,1-3.24,2c-5.72,2.21-14.25.86-19-3C73.17,331.32,72.15,329.28,72.29,327.4Z"/><path class="cls-26" d="M87.58,318.74c-.82,1.28,0,3.3,1.93,4.51s4.09,1.16,4.91-.12,0-3.29-1.94-4.5S88.4,317.47,87.58,318.74Z"/><path class="cls-26" d="M94.49,325.56a1.79,1.79,0,1,0,2.24-.26A1.62,1.62,0,0,0,94.49,325.56Z"/><path class="cls-17" d="M128.66,335.33a11.56,11.56,0,0,0-22.83-3.61,1.7,1.7,0,0,0-.06.31,1.75,1.75,0,0,0,0,.32c-.13,1.61.74,3.33,2.65,4.88,4.05,3.28,11.29,4.42,16.16,2.55,2.28-.88,3.64-2.26,4-3.82a2.84,2.84,0,0,0,.06-.31C128.64,335.54,128.65,335.44,128.66,335.33Z"/><path class="cls-23" d="M128.66,335.33a11.56,11.56,0,0,0-22.83-3.61,1.7,1.7,0,0,0-.06.31,1.75,1.75,0,0,0,0,.32c-.13,1.61.74,3.33,2.65,4.88,4.05,3.28,11.29,4.42,16.16,2.55,2.28-.88,3.64-2.26,4-3.82a2.84,2.84,0,0,0,.06-.31C128.64,335.54,128.65,335.44,128.66,335.33Z"/><path class="cls-24" d="M123.78,324.34h0a11.54,11.54,0,0,0-18,7.38,1.7,1.7,0,0,0-.06.31,1.75,1.75,0,0,0,0,.32c-.13,1.61.74,3.33,2.65,4.88a15.29,15.29,0,0,0,5.45,2.69c-2.88-1-4.28-4.59-2.79-8.1C112.77,327.75,118,322.3,123.78,324.34Z"/><path class="cls-25" d="M128.56,336a2.84,2.84,0,0,0,.06-.31c0-.11,0-.21,0-.32a11.5,11.5,0,0,0-2.57-8.87c1,1.47,3,6.72-.54,9.91-2.35,2.1-12.26,4.06-19.27-1.58a8.14,8.14,0,0,0,2.1,2.44c4.05,3.28,11.29,4.42,16.16,2.55C126.82,338.9,128.18,337.52,128.56,336Z"/><path class="cls-26" d="M118.48,325c.32,1.24-.9,2.65-2.75,3.13s-3.6-.13-3.93-1.38.91-2.64,2.75-3.13S118.15,323.72,118.48,325Z"/><path class="cls-26" d="M111.11,328.66a1.52,1.52,0,1,1-1.75-.79A1.36,1.36,0,0,1,111.11,328.66Z"/><path class="cls-17" d="M139.61,338.41a7.65,7.65,0,0,0-15.1-2.39,1.55,1.55,0,0,0,0,.21.76.76,0,0,0,0,.21,3.9,3.9,0,0,0,1.76,3.22,11.93,11.93,0,0,0,10.68,1.69,3.92,3.92,0,0,0,2.66-2.52,1.55,1.55,0,0,0,0-.21C139.59,338.54,139.6,338.48,139.61,338.41Z"/><path class="cls-22" d="M139.61,338.41a7.65,7.65,0,0,0-15.1-2.39,1.55,1.55,0,0,0,0,.21.76.76,0,0,0,0,.21,3.9,3.9,0,0,0,1.76,3.22,11.93,11.93,0,0,0,10.68,1.69,3.92,3.92,0,0,0,2.66-2.52,1.55,1.55,0,0,0,0-.21C139.59,338.54,139.6,338.48,139.61,338.41Z"/><path class="cls-26" d="M136.38,331.14h0a7.53,7.53,0,0,0-3.16-1.27,7.64,7.64,0,0,0-8.71,6.15,1.55,1.55,0,0,0,0,.21.76.76,0,0,0,0,.21,3.9,3.9,0,0,0,1.76,3.22,9.88,9.88,0,0,0,3.6,1.78c-1.91-.64-2.83-3-1.85-5.35C129.1,333.4,132.57,329.79,136.38,331.14Z"/><path class="cls-25" d="M139.54,338.83a1.55,1.55,0,0,0,0-.21c0-.08,0-.14,0-.21a7.65,7.65,0,0,0-1.7-5.87c.68,1,2,4.44-.36,6.55-1.56,1.39-8.11,2.69-12.74-1a5.21,5.21,0,0,0,1.39,1.61,11.93,11.93,0,0,0,10.68,1.69A3.92,3.92,0,0,0,139.54,338.83Z"/><path class="cls-26" d="M132.87,331.56c.22.82-.59,1.75-1.81,2.07s-2.38-.09-2.6-.91.6-1.75,1.81-2.07S132.66,330.73,132.87,331.56Z"/><path class="cls-26" d="M128,334a1,1,0,1,1-1.15-.53A.9.9,0,0,1,128,334Z"/><path class="cls-17" d="M155.18,344.23A10.39,10.39,0,0,0,134.66,341c0,.1,0,.19-.06.28a2.85,2.85,0,0,0,0,.29c-.11,1.44.67,3,2.38,4.38a16.26,16.26,0,0,0,14.53,2.3c2.05-.8,3.27-2,3.61-3.43a2.93,2.93,0,0,0,0-.29A2.89,2.89,0,0,0,155.18,344.23Z"/><path class="cls-21" d="M155.18,344.23A10.39,10.39,0,0,0,134.66,341c0,.1,0,.19-.06.28a2.85,2.85,0,0,0,0,.29c-.11,1.44.67,3,2.38,4.38a16.26,16.26,0,0,0,14.53,2.3c2.05-.8,3.27-2,3.61-3.43a2.93,2.93,0,0,0,0-.29A2.89,2.89,0,0,0,155.18,344.23Z"/><path class="cls-24" d="M150.79,334.36h0A10.38,10.38,0,0,0,134.66,341c0,.1,0,.19-.06.28a2.85,2.85,0,0,0,0,.29c-.11,1.44.67,3,2.38,4.38a13.72,13.72,0,0,0,4.9,2.42c-2.59-.88-3.85-4.12-2.51-7.28C140.89,337.43,145.61,332.53,150.79,334.36Z"/><path class="cls-25" d="M155.09,344.81a2.93,2.93,0,0,0,0-.29,2.89,2.89,0,0,0,0-.29,10.33,10.33,0,0,0-2.31-8c.93,1.32,2.73,6-.49,8.9-2.11,1.89-11,3.65-17.31-1.42a7.17,7.17,0,0,0,1.88,2.19,16.26,16.26,0,0,0,14.53,2.3C153.53,347.44,154.75,346.21,155.09,344.81Z"/><path class="cls-26" d="M146,334.93c.29,1.11-.81,2.37-2.47,2.81s-3.24-.12-3.53-1.24.81-2.38,2.46-2.81S145.73,333.81,146,334.93Z"/><path class="cls-26" d="M139.41,338.24a1.24,1.24,0,0,1-1,1.4,1.11,1.11,0,1,1,1-1.4Z"/><path class="cls-27" d="M121,298.77a12.4,12.4,0,0,1-5.8,8.67,8,8,0,0,0-3.87,5.62l-4.65,29.38a2.5,2.5,0,0,1-1.8,1.83,6.44,6.44,0,0,1-2,.39,8.91,8.91,0,0,1-3.43-.54,6.64,6.64,0,0,1-1.74-1,2.58,2.58,0,0,1-1.15-2.3l4.66-29.44a8,8,0,0,0-1.94-6.47,12.34,12.34,0,0,1-2.85-10.14,12.42,12.42,0,0,1,24.53,4Z"/><path class="cls-19" d="M121,298.77a12.4,12.4,0,0,1-5.8,8.67,8,8,0,0,0-3.87,5.62l-4.65,29.38a2.5,2.5,0,0,1-1.8,1.83,6.44,6.44,0,0,1-2,.39,8.91,8.91,0,0,1-3.43-.54,6.64,6.64,0,0,1-1.74-1,2.58,2.58,0,0,1-1.15-2.3l4.66-29.44a8,8,0,0,0-1.94-6.47,12.34,12.34,0,0,1-2.85-10.14,12.42,12.42,0,0,1,24.53,4Z"/><path class="cls-27" d="M115.58,297.92a7,7,0,0,1-3.77,5.12,5.61,5.61,0,0,0-3,4.2l-5.6,35.41a1.76,1.76,0,0,1-2,1.49h0a1.75,1.75,0,0,1-1.42-2l5.61-35.5a5.53,5.53,0,0,0-1.54-4.83,6.91,6.91,0,0,1-2-6.22,6.94,6.94,0,0,1,13.67,2.36Z"/><path class="cls-17" d="M115.58,297.92a7,7,0,0,1-3.77,5.12,5.61,5.61,0,0,0-3,4.2l-5.6,35.41a1.76,1.76,0,0,1-2,1.49h0a1.75,1.75,0,0,1-1.42-2l5.61-35.5a5.53,5.53,0,0,0-1.54-4.83,6.91,6.91,0,0,1-2-6.22,6.94,6.94,0,0,1,13.67,2.36Z"/><circle class="cls-23" cx="114.02" cy="303.69" r="2.63"/><path class="cls-21" d="M112.18,295.5a2,2,0,1,1,3.91.62,2,2,0,0,1-3.91-.62Z"/><path class="cls-23" d="M108.94,291.79a1,1,0,1,1,.82,1.12A1,1,0,0,1,108.94,291.79Z"/><path class="cls-21" d="M101,291.73a2.66,2.66,0,1,1,2.21,3A2.66,2.66,0,0,1,101,291.73Z"/><path class="cls-23" d="M99.83,296.41a1.25,1.25,0,0,0,1,1.43,1.25,1.25,0,1,0-1-1.43Z"/><path class="cls-21" d="M99.22,301.14a2.42,2.42,0,1,1,2,2.78A2.41,2.41,0,0,1,99.22,301.14Z"/><path class="cls-21" d="M104.61,305.58a1.67,1.67,0,1,1,1.39,1.91A1.68,1.68,0,0,1,104.61,305.58Z"/><path class="cls-21" d="M97.93,293.25a.85.85,0,1,1,.71,1A.85.85,0,0,1,97.93,293.25Z"/><path class="cls-23" d="M116.77,292.66a1.12,1.12,0,1,1,.93,1.28A1.11,1.11,0,0,1,116.77,292.66Z"/><path class="cls-21" d="M117,298.27a1.12,1.12,0,0,1,1.29-.94,1.13,1.13,0,1,1-1.29.94Z"/><path class="cls-23" d="M106.4,297.73a1.13,1.13,0,1,1,2.23.36,1.13,1.13,0,0,1-2.23-.36Z"/><path class="cls-17" d="M166.49,347.84a6.33,6.33,0,0,0-12.51-2,.51.51,0,0,0,0,.17l0,.18a3.28,3.28,0,0,0,1.46,2.67,9.9,9.9,0,0,0,8.85,1.39,3.24,3.24,0,0,0,2.2-2.09,1,1,0,0,0,0-.17Z"/><path class="cls-3" d="M166.49,347.84a6.33,6.33,0,0,0-12.51-2,.51.51,0,0,0,0,.17l0,.18a3.28,3.28,0,0,0,1.46,2.67,9.9,9.9,0,0,0,8.85,1.39,3.24,3.24,0,0,0,2.2-2.09,1,1,0,0,0,0-.17Z"/><path class="cls-26" d="M163.81,341.82h0a6.33,6.33,0,0,0-9.83,4.05.51.51,0,0,0,0,.17l0,.18a3.28,3.28,0,0,0,1.46,2.67,8.49,8.49,0,0,0,3,1.47c-1.58-.54-2.34-2.51-1.53-4.44C157.78,343.69,160.66,340.71,163.81,341.82Z"/><path class="cls-28" d="M166.43,348.19a1,1,0,0,0,0-.17l0-.18a6.35,6.35,0,0,0-1.41-4.85c.57.8,1.66,3.68-.3,5.42-1.29,1.15-6.71,2.23-10.55-.86a4.36,4.36,0,0,0,1.15,1.34,9.9,9.9,0,0,0,8.85,1.39A3.24,3.24,0,0,0,166.43,348.19Z"/><path class="cls-26" d="M160.91,342.17c.18.68-.5,1.45-1.51,1.72s-2-.08-2.15-.76.5-1.45,1.51-1.71S160.73,341.49,160.91,342.17Z"/><path class="cls-26" d="M156.87,344.19a.83.83,0,1,1-1-.43A.74.74,0,0,1,156.87,344.19Z"/><path class="cls-17" d="M156.3,351.51a8.72,8.72,0,0,0-17.22-2.72c0,.08,0,.16-.05.24l0,.24a4.5,4.5,0,0,0,2,3.68,13.65,13.65,0,0,0,12.19,1.92,4.48,4.48,0,0,0,3-2.88,1.72,1.72,0,0,0,0-.24A.93.93,0,0,0,156.3,351.51Z"/><path class="cls-29" d="M156.3,351.51a8.72,8.72,0,0,0-17.22-2.72c0,.08,0,.16-.05.24l0,.24a4.5,4.5,0,0,0,2,3.68,13.65,13.65,0,0,0,12.19,1.92,4.48,4.48,0,0,0,3-2.88,1.72,1.72,0,0,0,0-.24A.93.93,0,0,0,156.3,351.51Z"/><path class="cls-26" d="M152.62,343.22h0a8.71,8.71,0,0,0-13.54,5.57c0,.08,0,.16-.05.24l0,.24a4.5,4.5,0,0,0,2,3.68,11.55,11.55,0,0,0,4.11,2c-2.18-.74-3.23-3.46-2.11-6.11C144.32,345.8,148.28,341.69,152.62,343.22Z"/><path class="cls-25" d="M156.23,352a1.72,1.72,0,0,0,0-.24.93.93,0,0,0,0-.24,8.67,8.67,0,0,0-1.94-6.69c.79,1.11,2.3,5.07-.4,7.48-1.78,1.58-9.25,3.06-14.54-1.19A6.29,6.29,0,0,0,141,353a13.65,13.65,0,0,0,12.19,1.92A4.48,4.48,0,0,0,156.23,352Z"/><path class="cls-24" d="M148.62,343.7c.25.94-.68,2-2.07,2.36s-2.71-.1-3-1,.68-2,2.07-2.36S148.37,342.76,148.62,343.7Z"/><path class="cls-24" d="M143.07,346.49a1,1,0,0,1-.86,1.17.93.93,0,1,1,.86-1.17Z"/><path class="cls-17" d="M140.36,353.29A10.82,10.82,0,0,0,119,349.91c0,.1,0,.2-.06.3a2.72,2.72,0,0,0,0,.3c-.11,1.5.7,3.11,2.49,4.56a16.94,16.94,0,0,0,15.13,2.39c2.13-.83,3.4-2.11,3.76-3.57,0-.1,0-.2,0-.3A1.54,1.54,0,0,0,140.36,353.29Z"/><path class="cls-23" d="M140.36,353.29A10.82,10.82,0,0,0,119,349.91c0,.1,0,.2-.06.3a2.72,2.72,0,0,0,0,.3c-.11,1.5.7,3.11,2.49,4.56a16.94,16.94,0,0,0,15.13,2.39c2.13-.83,3.4-2.11,3.76-3.57,0-.1,0-.2,0-.3A1.54,1.54,0,0,0,140.36,353.29Z"/><path class="cls-24" d="M135.79,343h0a10.81,10.81,0,0,0-16.8,6.91c0,.1,0,.2-.06.3a2.72,2.72,0,0,0,0,.3c-.11,1.5.7,3.11,2.49,4.56a14.42,14.42,0,0,0,5.1,2.52c-2.7-.92-4-4.3-2.61-7.58C125.48,346.2,130.4,341.1,135.79,343Z"/><path class="cls-25" d="M140.27,353.89c0-.1,0-.2,0-.3a1.54,1.54,0,0,0,0-.3A10.75,10.75,0,0,0,138,345c1,1.38,2.85,6.29-.5,9.28-2.2,2-11.48,3.8-18-1.48a7.68,7.68,0,0,0,2,2.28,16.94,16.94,0,0,0,15.13,2.39C138.64,356.63,139.91,355.35,140.27,353.89Z"/><path class="cls-24" d="M130.83,343.6c.31,1.16-.84,2.47-2.57,2.93s-3.37-.13-3.68-1.29.85-2.48,2.57-2.93S130.52,342.43,130.83,343.6Z"/><path class="cls-24" d="M123.93,347.05a1.42,1.42,0,0,1-2.69.71,1.42,1.42,0,0,1,2.69-.71Z"/><path class="cls-17" d="M102.43,345.15a9.05,9.05,0,0,0-17.88-2.83,1.84,1.84,0,0,0,0,.25,1.9,1.9,0,0,0,0,.25,4.63,4.63,0,0,0,2.08,3.82,14.21,14.21,0,0,0,12.66,2,4.66,4.66,0,0,0,3.14-3,1,1,0,0,0,.05-.24A2.42,2.42,0,0,0,102.43,345.15Z"/><path class="cls-23" d="M102.43,345.15a9.05,9.05,0,0,0-17.88-2.83,1.84,1.84,0,0,0,0,.25,1.9,1.9,0,0,0,0,.25,4.63,4.63,0,0,0,2.08,3.82,14.21,14.21,0,0,0,12.66,2,4.66,4.66,0,0,0,3.14-3,1,1,0,0,0,.05-.24A2.42,2.42,0,0,0,102.43,345.15Z"/><path class="cls-24" d="M98.61,336.54h0a9,9,0,0,0-14.06,5.78,1.84,1.84,0,0,0,0,.25,1.9,1.9,0,0,0,0,.25,4.63,4.63,0,0,0,2.08,3.82,12.2,12.2,0,0,0,4.27,2.11c-2.26-.77-3.35-3.6-2.19-6.35C90,339.21,94.1,335,98.61,336.54Z"/><path class="cls-25" d="M102.35,345.64a1,1,0,0,0,.05-.24,2.42,2.42,0,0,0,0-.25,9,9,0,0,0-2-6.95c.81,1.16,2.38,5.26-.42,7.76-1.85,1.65-9.61,3.18-15.1-1.23a6.34,6.34,0,0,0,1.65,1.91,14.21,14.21,0,0,0,12.66,2A4.66,4.66,0,0,0,102.35,345.64Z"/><path class="cls-24" d="M94.46,337c.25,1-.71,2.08-2.15,2.46s-2.82-.11-3.08-1.08.71-2.07,2.15-2.45S94.2,336.06,94.46,337Z"/><path class="cls-24" d="M88.69,339.93a1.19,1.19,0,1,1-1.37-.63A1.08,1.08,0,0,1,88.69,339.93Z"/><path class="cls-17" d="M117,349.35a8,8,0,0,0-15.7-2.48c0,.07,0,.14,0,.21l0,.22a4.11,4.11,0,0,0,1.83,3.36,12.43,12.43,0,0,0,11.11,1.75,4.08,4.08,0,0,0,2.76-2.62c0-.08,0-.15,0-.22A1.8,1.8,0,0,0,117,349.35Z"/><path class="cls-23" d="M117,349.35a8,8,0,0,0-15.7-2.48c0,.07,0,.14,0,.21l0,.22a4.11,4.11,0,0,0,1.83,3.36,12.43,12.43,0,0,0,11.11,1.75,4.08,4.08,0,0,0,2.76-2.62c0-.08,0-.15,0-.22A1.8,1.8,0,0,0,117,349.35Z"/><path class="cls-24" d="M113.64,341.79h0a7.86,7.86,0,0,0-3.28-1.32,8,8,0,0,0-9.06,6.4c0,.07,0,.14,0,.21l0,.22a4.11,4.11,0,0,0,1.83,3.36,10.62,10.62,0,0,0,3.75,1.85c-2-.68-2.94-3.16-1.92-5.57C106.08,344.14,109.69,340.4,113.64,341.79Z"/><path class="cls-25" d="M116.93,349.79c0-.08,0-.15,0-.22a1.8,1.8,0,0,0,0-.22,7.9,7.9,0,0,0-1.77-6.1c.72,1,2.09,4.62-.37,6.81-1.61,1.45-8.43,2.8-13.24-1.08a5.6,5.6,0,0,0,1.44,1.68,12.43,12.43,0,0,0,11.11,1.75A4.08,4.08,0,0,0,116.93,349.79Z"/><path class="cls-24" d="M110,342.23c.23.85-.62,1.82-1.89,2.15s-2.47-.09-2.7-.95.62-1.82,1.89-2.15S109.78,341.37,110,342.23Z"/><path class="cls-24" d="M104.94,344.77a1,1,0,1,1-1.2-.55A.94.94,0,0,1,104.94,344.77Z"/><path class="cls-17" d="M171.55,350.15A3.83,3.83,0,0,0,164,349s0,.07,0,.11a.34.34,0,0,0,0,.1,2,2,0,0,0,.88,1.62,6,6,0,0,0,5.34.84,2,2,0,0,0,1.33-1.26.43.43,0,0,0,0-.11A.36.36,0,0,0,171.55,350.15Z"/><path class="cls-30" d="M171.55,350.15A3.83,3.83,0,0,0,164,349s0,.07,0,.11a.34.34,0,0,0,0,.1,2,2,0,0,0,.88,1.62,6,6,0,0,0,5.34.84,2,2,0,0,0,1.33-1.26.43.43,0,0,0,0-.11A.36.36,0,0,0,171.55,350.15Z"/><path class="cls-26" d="M169.93,346.51h0a3.75,3.75,0,0,0-1.58-.64A3.84,3.84,0,0,0,164,349s0,.07,0,.11a.34.34,0,0,0,0,.1,2,2,0,0,0,.88,1.62,5.23,5.23,0,0,0,1.8.89,1.92,1.92,0,0,1-.92-2.68C166.29,347.64,168,345.84,169.93,346.51Z"/><path class="cls-31" d="M171.51,350.36a.43.43,0,0,0,0-.11.36.36,0,0,0,0-.1,3.85,3.85,0,0,0-.85-2.94c.34.49,1,2.22-.18,3.28-.78.7-4.06,1.34-6.38-.52a2.84,2.84,0,0,0,.7.81,6,6,0,0,0,5.34.84A2,2,0,0,0,171.51,350.36Z"/><path class="cls-24" d="M168.18,346.72c.11.41-.3.87-.91,1s-1.19,0-1.3-.45.3-.88.91-1S168.07,346.31,168.18,346.72Z"/><path class="cls-24" d="M165.74,347.94a.44.44,0,0,1-.38.51.44.44,0,0,1-.57-.26.45.45,0,0,1,.37-.51A.46.46,0,0,1,165.74,347.94Z"/><path class="cls-17" d="M42.58,325a6.33,6.33,0,0,1,12.5,2,1,1,0,0,1,0,.17l0,.18a3.28,3.28,0,0,1-2.21,2.09A9.91,9.91,0,0,1,44,328a3.25,3.25,0,0,1-1.45-2.67,1.1,1.1,0,0,1,0-.18A1,1,0,0,1,42.58,325Z"/><path class="cls-3" d="M42.58,325a6.33,6.33,0,0,1,12.5,2,1,1,0,0,1,0,.17l0,.18a3.28,3.28,0,0,1-2.21,2.09A9.91,9.91,0,0,1,44,328a3.25,3.25,0,0,1-1.45-2.67,1.1,1.1,0,0,1,0-.18A1,1,0,0,1,42.58,325Z"/><path class="cls-26" d="M47,320.09h0a6.31,6.31,0,0,1,8.1,6.88,1,1,0,0,1,0,.17l0,.18a3.28,3.28,0,0,1-2.21,2.09,8.55,8.55,0,0,1-3.29.48c1.66,0,3-1.67,2.82-3.75C52.14,323.73,50.32,320,47,320.09Z"/><path class="cls-28" d="M42.52,325.34a1.1,1.1,0,0,1,0-.18,1,1,0,0,1,0-.17,6.29,6.29,0,0,1,2.83-4.18c-.79.59-2.71,3-1.39,5.25.87,1.49,5.7,4.18,10.31,2.43a4.57,4.57,0,0,1-1.51.92A9.91,9.91,0,0,1,44,328,3.25,3.25,0,0,1,42.52,325.34Z"/><path class="cls-24" d="M49.63,321.31c-.38.6,0,1.54.9,2.1s1.9.54,2.28-.05,0-1.54-.9-2.1S50,320.72,49.63,321.31Z"/><path class="cls-24" d="M52.85,324.48a.83.83,0,1,0,1-.12A.75.75,0,0,0,52.85,324.48Z"/><path class="cls-17" d="M55.61,329.5a9.19,9.19,0,0,1,18.14,2.87,1.13,1.13,0,0,1,0,.25,1,1,0,0,1,0,.25,4.74,4.74,0,0,1-3.2,3,14.42,14.42,0,0,1-12.84-2,4.77,4.77,0,0,1-2.1-3.88l0-.25C55.58,329.66,55.59,329.58,55.61,329.5Z"/><path class="cls-21" d="M55.61,329.5a9.19,9.19,0,0,1,18.14,2.87,1.13,1.13,0,0,1,0,.25,1,1,0,0,1,0,.25,4.74,4.74,0,0,1-3.2,3,14.42,14.42,0,0,1-12.84-2,4.77,4.77,0,0,1-2.1-3.88l0-.25C55.58,329.66,55.59,329.58,55.61,329.5Z"/><path class="cls-24" d="M62,322.39h0a9,9,0,0,1,4.08-.28,9.18,9.18,0,0,1,7.67,10.26,1.13,1.13,0,0,1,0,.25,1,1,0,0,1,0,.25,4.74,4.74,0,0,1-3.2,3,12.29,12.29,0,0,1-4.77.7c2.41,0,4.35-2.43,4.09-5.44C69.48,327.67,66.85,322.26,62,322.39Z"/><path class="cls-25" d="M55.53,330l0-.25c0-.09,0-.17,0-.25a9.11,9.11,0,0,1,4.12-6.07c-1.15.86-3.94,4.33-2,7.62,1.26,2.16,8.27,6.07,14.95,3.53a6.58,6.58,0,0,1-2.19,1.33,14.42,14.42,0,0,1-12.84-2A4.77,4.77,0,0,1,55.53,330Z"/><path class="cls-26" d="M65.85,324.17c-.56.86,0,2.22,1.3,3s2.76.78,3.31-.08,0-2.22-1.31-3S66.4,323.31,65.85,324.17Z"/><path class="cls-26" d="M70.51,328.76a1.21,1.21,0,1,0,1.51-.17A1.08,1.08,0,0,0,70.51,328.76Z"/><path class="cls-17" d="M46.78,333.56A8.72,8.72,0,0,1,64,336.28a1.07,1.07,0,0,1,0,.25,1.85,1.85,0,0,1,0,.23,4.47,4.47,0,0,1-3,2.88,13.63,13.63,0,0,1-12.19-1.92,4.47,4.47,0,0,1-2-3.68,1,1,0,0,1,0-.24A2,2,0,0,1,46.78,333.56Z"/><path class="cls-29" d="M46.78,333.56A8.72,8.72,0,0,1,64,336.28a1.07,1.07,0,0,1,0,.25,1.85,1.85,0,0,1,0,.23,4.47,4.47,0,0,1-3,2.88,13.63,13.63,0,0,1-12.19-1.92,4.47,4.47,0,0,1-2-3.68,1,1,0,0,1,0-.24A2,2,0,0,1,46.78,333.56Z"/><path class="cls-26" d="M52.84,326.81h0a8.85,8.85,0,0,1,3.88-.27A8.71,8.71,0,0,1,64,336.28a1.07,1.07,0,0,1,0,.25,1.85,1.85,0,0,1,0,.23,4.47,4.47,0,0,1-3,2.88,11.53,11.53,0,0,1-4.54.67c2.3,0,4.14-2.3,3.89-5.16C60,331.82,57.45,326.69,52.84,326.81Z"/><path class="cls-32" d="M46.71,334a1,1,0,0,1,0-.24,2,2,0,0,1,0-.24,8.68,8.68,0,0,1,3.91-5.76c-1.09.81-3.74,4.11-1.92,7.23,1.2,2.06,7.85,5.77,14.19,3.35a5.92,5.92,0,0,1-2.07,1.26,13.63,13.63,0,0,1-12.19-1.92A4.47,4.47,0,0,1,46.71,334Z"/><path class="cls-24" d="M56.5,328.5c-.53.82,0,2.11,1.24,2.88s2.61.75,3.14-.07,0-2.11-1.24-2.88S57,327.68,56.5,328.5Z"/><path class="cls-24" d="M60.92,332.86a1.15,1.15,0,1,0,1.44-.16A1,1,0,0,0,60.92,332.86Z"/><path class="cls-17" d="M64.46,340.23a10.82,10.82,0,0,1,21.37,3.38,1.54,1.54,0,0,1,0,.3,2.93,2.93,0,0,1-.05.29c-.36,1.47-1.63,2.75-3.77,3.58a16.94,16.94,0,0,1-15.13-2.39c-1.78-1.45-2.59-3.06-2.48-4.56a2.72,2.72,0,0,1,0-.3A2.65,2.65,0,0,1,64.46,340.23Z"/><path class="cls-23" d="M64.46,340.23a10.82,10.82,0,0,1,21.37,3.38,1.54,1.54,0,0,1,0,.3,2.93,2.93,0,0,1-.05.29c-.36,1.47-1.63,2.75-3.77,3.58a16.94,16.94,0,0,1-15.13-2.39c-1.78-1.45-2.59-3.06-2.48-4.56a2.72,2.72,0,0,1,0-.3A2.65,2.65,0,0,1,64.46,340.23Z"/><path class="cls-24" d="M72,331.86h0a10.8,10.8,0,0,1,13.85,11.75,1.54,1.54,0,0,1,0,.3,2.93,2.93,0,0,1-.05.29c-.36,1.47-1.63,2.75-3.77,3.58a14.33,14.33,0,0,1-5.63.82c2.85,0,5.13-2.85,4.82-6.4C80.8,338.07,77.69,331.71,72,331.86Z"/><path class="cls-25" d="M64.36,340.83a2.72,2.72,0,0,1,0-.3,2.65,2.65,0,0,1,.06-.3,10.73,10.73,0,0,1,4.85-7.15c-1.35,1-4.65,5.1-2.38,9,1.49,2.54,9.74,7.15,17.61,4.15A7.5,7.5,0,0,1,82,347.78a16.94,16.94,0,0,1-15.13-2.39C65.06,343.94,64.25,342.33,64.36,340.83Z"/><path class="cls-24" d="M76.52,334c-.65,1,0,2.62,1.54,3.58s3.24.92,3.89-.09,0-2.62-1.54-3.58S77.17,332.93,76.52,334Z"/><path class="cls-24" d="M82,339.36a1.42,1.42,0,1,0,1.78-.2A1.28,1.28,0,0,0,82,339.36Z"/><path class="cls-17" d="M120.63,356.36a9.88,9.88,0,0,0-19.51-3.08,2.16,2.16,0,0,0-.05.27,2.19,2.19,0,0,0,0,.27c-.1,1.37.64,2.84,2.27,4.16a15.43,15.43,0,0,0,13.81,2.19c2-.76,3.11-1.93,3.44-3.27,0-.09,0-.17,0-.27A2.48,2.48,0,0,0,120.63,356.36Z"/><path class="cls-22" d="M120.63,356.36a9.88,9.88,0,0,0-19.51-3.08,2.16,2.16,0,0,0-.05.27,2.19,2.19,0,0,0,0,.27c-.1,1.37.64,2.84,2.27,4.16a15.43,15.43,0,0,0,13.81,2.19c2-.76,3.11-1.93,3.44-3.27,0-.09,0-.17,0-.27A2.48,2.48,0,0,0,120.63,356.36Z"/><path class="cls-26" d="M116.46,347h0a9.86,9.86,0,0,0-15.34,6.31,2.16,2.16,0,0,0-.05.27,2.19,2.19,0,0,0,0,.27c-.1,1.37.64,2.84,2.27,4.16a13.14,13.14,0,0,0,4.66,2.31c-2.47-.84-3.66-3.93-2.39-6.92C107.05,349.89,111.54,345.23,116.46,347Z"/><path class="cls-25" d="M120.55,356.9c0-.09,0-.17,0-.27a2.48,2.48,0,0,0,0-.27,9.84,9.84,0,0,0-2.2-7.58c.89,1.26,2.6,5.74-.46,8.47-2,1.79-10.47,3.47-16.46-1.35A6.76,6.76,0,0,0,103.3,358a15.43,15.43,0,0,0,13.81,2.19C119.06,359.41,120.22,358.24,120.55,356.9Z"/><path class="cls-26" d="M111.93,347.51c.28,1.06-.77,2.26-2.35,2.67s-3.07-.11-3.35-1.17.77-2.26,2.34-2.68S111.65,346.45,111.93,347.51Z"/><path class="cls-26" d="M105.63,350.67a1.29,1.29,0,1,1-1.49-.69A1.17,1.17,0,0,1,105.63,350.67Z"/><path class="cls-17" d="M79.71,351a9.4,9.4,0,0,1,18.56,2.93l0,.26c0,.09,0,.17,0,.26a4.83,4.83,0,0,1-3.28,3.1,14.72,14.72,0,0,1-13.13-2.07c-1.54-1.26-2.25-2.66-2.15-4a2.3,2.3,0,0,1,0-.26A2.38,2.38,0,0,1,79.71,351Z"/><path class="cls-22" d="M79.71,351a9.4,9.4,0,0,1,18.56,2.93l0,.26c0,.09,0,.17,0,.26a4.83,4.83,0,0,1-3.28,3.1,14.72,14.72,0,0,1-13.13-2.07c-1.54-1.26-2.25-2.66-2.15-4a2.3,2.3,0,0,1,0-.26A2.38,2.38,0,0,1,79.71,351Z"/><path class="cls-26" d="M86.24,343.71h0a9.29,9.29,0,0,1,4.18-.29,9.39,9.39,0,0,1,7.85,10.49l0,.26c0,.09,0,.17,0,.26a4.83,4.83,0,0,1-3.28,3.1,12.45,12.45,0,0,1-4.88.72c2.47,0,4.45-2.48,4.18-5.56C93.9,349.11,91.2,343.58,86.24,343.71Z"/><path class="cls-25" d="M79.63,351.5a2.3,2.3,0,0,1,0-.26,2.38,2.38,0,0,1,0-.26,9.36,9.36,0,0,1,4.21-6.21c-1.17.88-4,4.43-2.07,7.79,1.3,2.22,8.47,6.22,15.3,3.61a6.46,6.46,0,0,1-2.24,1.36,14.72,14.72,0,0,1-13.13-2.07C80.24,354.2,79.53,352.8,79.63,351.5Z"/><path class="cls-26" d="M90.18,345.52c-.56.89,0,2.28,1.34,3.11s2.81.8,3.38-.08,0-2.27-1.34-3.11S90.75,344.64,90.18,345.52Z"/><path class="cls-26" d="M95,350.23a1.23,1.23,0,1,0,1.55-.18A1.11,1.11,0,0,0,95,350.23Z"/><path class="cls-17" d="M103.28,358a3.83,3.83,0,0,0-7.56-1.19.3.3,0,0,0,0,.1.41.41,0,0,0,0,.11,2,2,0,0,0,.87,1.61,6,6,0,0,0,5.35.84,1.93,1.93,0,0,0,1.33-1.26.44.44,0,0,0,0-.1S103.27,358.07,103.28,358Z"/><path class="cls-22" d="M103.28,358a3.83,3.83,0,0,0-7.56-1.19.3.3,0,0,0,0,.1.41.41,0,0,0,0,.11,2,2,0,0,0,.87,1.61,6,6,0,0,0,5.35.84,1.93,1.93,0,0,0,1.33-1.26.44.44,0,0,0,0-.1S103.27,358.07,103.28,358Z"/><path class="cls-33" d="M101.66,354.39h0a3.73,3.73,0,0,0-1.58-.63,3.81,3.81,0,0,0-4.36,3.08.3.3,0,0,0,0,.1.41.41,0,0,0,0,.11,2,2,0,0,0,.87,1.61,5,5,0,0,0,1.81.89,1.93,1.93,0,0,1-.93-2.68C98,355.52,99.75,353.72,101.66,354.39Z"/><path class="cls-25" d="M103.24,358.24a.44.44,0,0,0,0-.1s0-.07,0-.11a3.84,3.84,0,0,0-.85-2.93c.34.48,1,2.22-.18,3.27-.78.7-4.06,1.35-6.38-.52a2.81,2.81,0,0,0,.69.81,6,6,0,0,0,5.35.84A1.93,1.93,0,0,0,103.24,358.24Z"/><path class="cls-26" d="M99.91,354.6c.1.41-.3.88-.91,1s-1.19-.05-1.3-.46.3-.87.91-1S99.8,354.19,99.91,354.6Z"/><path class="cls-26" d="M97.47,355.82a.46.46,0,0,1-.38.52.44.44,0,0,1-.57-.27.45.45,0,0,1,.37-.51A.46.46,0,0,1,97.47,355.82Z"/><path class="cls-17" d="M37.05,325.62a3.83,3.83,0,0,1,7.56,1.19.43.43,0,0,1,0,.11.3.3,0,0,1,0,.1,1.94,1.94,0,0,1-1.33,1.27,6,6,0,0,1-5.35-.85,2,2,0,0,1-.87-1.61.41.41,0,0,1,0-.11S37,325.66,37.05,325.62Z"/><path class="cls-30" d="M37.05,325.62a3.83,3.83,0,0,1,7.56,1.19.43.43,0,0,1,0,.11.3.3,0,0,1,0,.1,1.94,1.94,0,0,1-1.33,1.27,6,6,0,0,1-5.35-.85,2,2,0,0,1-.87-1.61.41.41,0,0,1,0-.11S37,325.66,37.05,325.62Z"/><path class="cls-26" d="M39.71,322.66h0a3.86,3.86,0,0,1,1.7-.12,3.82,3.82,0,0,1,3.2,4.27.43.43,0,0,1,0,.11.3.3,0,0,1,0,.1,1.94,1.94,0,0,1-1.33,1.27,5.14,5.14,0,0,1-2,.29A1.94,1.94,0,0,0,43,326.31C42.83,324.86,41.73,322.61,39.71,322.66Z"/><path class="cls-31" d="M37,325.83a.41.41,0,0,1,0-.11s0-.06,0-.1a3.82,3.82,0,0,1,1.71-2.53c-.47.36-1.64,1.81-.84,3.18.53.9,3.45,2.52,6.23,1.46a2.67,2.67,0,0,1-.91.56,6,6,0,0,1-5.35-.85A2,2,0,0,1,37,325.83Z"/><path class="cls-24" d="M41.31,323.4c-.23.36,0,.92.55,1.26s1.15.33,1.38,0,0-.92-.55-1.26S41.54,323,41.31,323.4Z"/><path class="cls-24" d="M43.26,325.31a.5.5,0,0,0,.82.53.45.45,0,0,0-.19-.6A.46.46,0,0,0,43.26,325.31Z"/><path class="cls-19" d="M125.43,271.71l6-24.8,7.58,6.14c3.65,2.95,4.5,9.16,2.46,17.81l-3.28,13.91-1-8.16c-.56-4.43-3.45-6.39-8.2-5.54Z"/><path class="cls-19" d="M100.57,267.78l1.9-25.45-9.11,3.5c-4.38,1.68-7.11,7.32-7.83,16.18l-1.17,14.24,3.49-7.44c1.89-4.05,5.25-5,9.51-2.75Z"/><path class="cls-17" d="M123.43,283.85h0l-.48-7.17-21.56-3.41-2.66,6.67h0c-.74,2,.09,4.39,2.62,6.44,4.41,3.57,12.28,4.81,17.58,2.78C122,288,123.51,286,123.43,283.85Z"/><ellipse class="cls-34" cx="112.05" cy="275.82" rx="6.36" ry="11.01" transform="translate(-177.89 343.44) rotate(-81.02)"/><path class="cls-15" d="M98.75,280c-.74,2,.09,4.39,2.62,6.44,4.41,3.57,12.28,4.81,17.58,2.78,3-1.17,4.56-3.16,4.48-5.32l-.13-2.06c.13,2-1.26,3.84-4.09,4.92-5.22,2-13,.78-17.33-2.74-2.35-1.89-3.1-4.09-2.39-5.92Z"/><path class="cls-15" d="M100.42,275.75c-.73,1.79,0,3.94,2.29,5.78,4.13,3.35,11.5,4.51,16.46,2.61,2.73-1.05,4.09-2.85,4-4.77l-.18-2.69c.15,1.94-1.19,3.75-3.92,4.8a17.24,17.24,0,0,1-15.39-2.43c-2.27-1.84-3-4-2.25-5.78Z"/><path class="cls-35" d="M120.24,276.25l-1.63-.26c.17,2.42.61,8.91.57,10.36-.05,1.8-4.42,4.15-14.6,2,4.42,2,10.19,2.45,14.37.85a8.92,8.92,0,0,0,2.83-1.69Z"/><ellipse class="cls-34" cx="112.05" cy="275.82" rx="6.36" ry="11.01" transform="translate(-177.89 343.44) rotate(-81.02)"/><path class="cls-17" d="M141.78,228.25c4.24-26.84-3.43-51.82-11-58.52a1.8,1.8,0,0,0-.2-.19l0,0h0a3.28,3.28,0,0,0-3.26-.52h0l0,0-.25.12c-9.28,4-24.29,25.43-28.53,52.27-4.08,25.82-.46,49.86-.1,52.09a1,1,0,0,0,0,.17h0a8.16,8.16,0,0,0,3.17,4.7c5,4,13.8,5.41,19.75,3.12a8,8,0,0,0,4.53-3.65C126.84,275.81,137.7,254.07,141.78,228.25Z"/><path class="cls-19" d="M135.91,177.15a24.08,24.08,0,0,0-5.14-7.42l-.21-.19,0,0h0a3.28,3.28,0,0,0-3.26-.52h0l-.05,0-.24.11a24.15,24.15,0,0,0-7.2,5.49,54.13,54.13,0,0,0-4.56,5.45,6.63,6.63,0,0,0,2.73,4.31c4.19,3.39,11.68,4.58,16.71,2.64a6.68,6.68,0,0,0,3.93-3.26A55.49,55.49,0,0,0,135.91,177.15Z"/><path class="cls-20" d="M98.44,221.4c-4.08,25.82-.46,49.86-.1,52.09a1,1,0,0,0,0,.17h0a8.16,8.16,0,0,0,3.17,4.7,15.86,15.86,0,0,0,2.83,1.8,225.29,225.29,0,0,1,1.13-57c4.7-29.74,15.35-49.65,21.48-54.06C117.69,173.17,102.68,194.56,98.44,221.4Z"/><path class="cls-36" d="M141.78,228.25c-4.08,25.82-14.94,47.57-16,49.58a.8.8,0,0,1-.08.16h0a8.19,8.19,0,0,1-4.45,3.49c6.45-14.32,14-31.54,17.37-53.05,4.7-29.74-3.42-52.62-7.89-58.7C138.35,176.43,146,201.41,141.78,228.25Z"/><path class="cls-15" d="M138.53,266.53,133,250.83l-2.26.87-7.19,22.16,3,3.28a25.71,25.71,0,0,1,6.58,15.78l.61,10.75s2-6.46,4.38-14.28C140.17,282.38,141.45,274.1,138.53,266.53Z"/><path class="cls-19" d="M123.53,273.86l7.19-22.16,5.55,15.69c2.92,7.58,2.42,15.71.5,23.59l-3.09,12.69-.61-10.75a25.71,25.71,0,0,0-6.58-15.78Z"/><path class="cls-15" d="M89.71,258.81l10.12-13.22,1.88,1.52v23.3l-3.83,2.21a25.72,25.72,0,0,0-11.13,13l-3.89,10s0-6.76.23-14.93C83.27,273.38,84.6,265.12,89.71,258.81Z"/><path class="cls-19" d="M101.72,270.41v-23.3L91.59,260.33c-5.11,6.31-7.15,14.19-7.75,22.29l-1,13,3.89-10a25.72,25.72,0,0,1,11.13-13Z"/><circle class="cls-19" cx="122.37" cy="210.52" r="9.61" transform="translate(-111.16 279.5) rotate(-76.29)"/><circle class="cls-27" cx="122.37" cy="210.52" r="7.64"/><circle class="cls-37" cx="122.37" cy="210.52" r="7.64"/><path class="cls-19" d="M125.54,234.34a6.85,6.85,0,1,1-5.7-7.84A6.85,6.85,0,0,1,125.54,234.34Z"/><circle class="cls-27" cx="118.77" cy="233.27" r="4.98" transform="translate(-142.1 254.81) rotate(-67.74)"/><circle class="cls-37" cx="118.77" cy="233.27" r="4.98" transform="translate(-142.1 254.81) rotate(-67.74)"/></g></g></g></svg>