<svg xmlns="http://www.w3.org/2000/svg" viewBox="0 0 594.83 447.76"><defs><style>.cls-1,.cls-4{fill:#e2e7fd;}.cls-18,.cls-2{fill:#bfc7f8;}.cls-11,.cls-3,.cls-33,.cls-37,.cls-38,.cls-39,.cls-42{fill:#fff;}.cls-10,.cls-11,.cls-14,.cls-15,.cls-16,.cls-17,.cls-18,.cls-20,.cls-21,.cls-22,.cls-23,.cls-24,.cls-25,.cls-26,.cls-4,.cls-6,.cls-7,.cls-8,.cls-9{fill-rule:evenodd;}.cls-5,.cls-7{fill:#000446;}.cls-6{fill:#003398;}.cls-8{fill:#62a5e4;}.cls-9{fill:#f4b1b1;}.cls-10{fill:#e98385;}.cls-12{fill:#986633;}.cls-13,.cls-22{fill:#ff5269;}.cls-14{fill:#ff697d;}.cls-15{fill:#ff4760;}.cls-16{fill:#092b80;}.cls-17{fill:#2f5ac8;}.cls-19{fill:#26a0f8;}.cls-20{fill:#ff8e9d;}.cls-21{fill:#ff7a8b;}.cls-23{fill:#1a47b6;}.cls-24{fill:#133b9d;}.cls-25{fill:#e50013;}.cls-26{fill:#ff4971;}.cls-27{fill:#6067a8;}.cls-28{fill:#4d5389;}.cls-29{fill:#211f68;}.cls-30{fill:#a0a4da;}.cls-31{fill:#00dfbf;}.cls-32,.cls-42{opacity:0.2;}.cls-33{opacity:0.4;}.cls-34,.cls-36{fill:#27debf;}.cls-35{fill:#bdc7ff;}.cls-36,.cls-39{opacity:0.8;}.cls-37{opacity:0.5;}.cls-38{opacity:0.7;}.cls-40{opacity:0.3;}.cls-41{fill:#e1e4ff;}</style></defs><g id="Layer_2" data-name="Layer 2"><g id="Layer_1-2" data-name="Layer 1"><path class="cls-1" d="M42.91,295.18q2.43,5.74,4.84,11.32c-8.27-9.81-22.9-19.79-47-15.24,18.24,21.3,26.49,30.48,53.83,30.9q2.35,5.34,4.69,10.5c-10.63-7.1-31.93-16-56.79,2.2,25.07,11.08,36.53,15.83,60.23,5.39q6.36,14,12.48,26.72c-12-10-35.81-22.77-67.54-5.1,28.72,17.25,41.73,24.65,72.42,15.24q4.78,9.81,9.35,18.88c-11.83-6.55-41-16.65-76.79,14.28,32.65,7.91,47.19,11,79.59-8.75,7,13.78,13.61,26.2,19.68,37.25h6.36q-7.45-13.5-16-29.87c35.76-13.17,42.32-26.52,56.36-57.09-47.36,9.1-57,39.18-58.91,52.15q-4.09-8-8.4-16.62c28.22-18.87,30.49-33.57,34.85-67.59-38.64,16.07-39,48.92-37.39,62.48q-7-14.19-14.42-30C97.73,340,101.1,328.06,108,301.31c-30.1,8.31-36,31-36.95,43.7q-3-6.43-6-13.14c17-22,14.89-34.13,9.45-61.84-17.06,14.83-19.44,31-17.69,43.3q-4.57-10.47-9.25-21.51c.78-11.66-1.27-37.9-33-49.62,4.57,26.88,6.93,39.07,28.41,53"/><path class="cls-2" d="M465.88,426.44s-20-9.08-17-23.15,19.19-12.59,17-23.69-12.85-28.4-2.49-41,27.61-5,29.77-24.56c1.74-15.73,9-26.87,23.09-23.61,13,3,22.76,13.12,23,37.13.26,25.56,18.26,18.38,18.49,37.21s-14.88,19-20.78,31.69c-2.79,6,4.48,27.13-17,30Z"/><path class="cls-3" d="M514.07,300.67s0,.43.13,1.27c.22,2.51.68,8.65.68,17.19,0,25-3.94,70.67-28.82,107.12a.93.93,0,0,0-.11.19h2.61c24.65-36.9,28.49-82.32,28.5-107.31a184.16,184.16,0,0,0-.82-18.71,1.09,1.09,0,0,0-2.17.25"/><path class="cls-4" d="M489.88,426.44s-3.15-17.36,8.64-24.43,23.81-12.56,22.51-23.95,1.9-24.83,20.78-25.08c11.67-.16,7.29-12.46,19.15-14.92,7.21-1.49,12,6,12.88,13.42,1,8.42-3.71,16.69,1.75,23.54,7.09,8.88,10,25.44-5.27,30.15s-1.66,19.14-22.41,21.27h-58Z"/><path class="cls-3" d="M560.17,346.31c-.4,11.06-5.31,26.8-13.7,41.82s-20.25,29.36-34.43,37.8a1,1,0,0,0-.44.51h3.74c13.66-8.84,24.93-22.74,33-37.25,8.53-15.28,13.54-31.21,14-42.8a1.09,1.09,0,1,0-2.18-.08"/><path class="cls-4" d="M297.41,417.53c164.26,0,297.42,6.77,297.42,15.11s-133.16,15.12-297.42,15.12S0,441,0,432.64s133.16-15.11,297.41-15.11"/><path class="cls-5" d="M500.71,252.17v20A50.06,50.06,0,0,1,451.82,322H387.75a2.83,2.83,0,0,1,0-5.64h63a44.42,44.42,0,0,0,44.28-44.28V227.2a2.82,2.82,0,1,1,5.64,0Z"/><path class="cls-6" d="M495.07,227.2h-4.66a4.68,4.68,0,0,0-4.66,4.66v46.73a4.68,4.68,0,0,0,4.66,4.66h4.66Z"/><path class="cls-5" d="M475.29,403.14V348.23A23,23,0,0,0,467.05,331a30.09,30.09,0,0,0-19.8-7.19H416A30.08,30.08,0,0,0,396.23,331,22.92,22.92,0,0,0,388,348.23v54.91ZM416,320.32h31.23a34.34,34.34,0,0,1,22.59,8.2,26.17,26.17,0,0,1,9.4,19.71v88.3h-3.95V407.21H388v29.32H384v-88.3a26.21,26.21,0,0,1,9.39-19.71A34.37,34.37,0,0,1,416,320.32Z"/><path class="cls-7" d="M407.55,216.06c-6,13.07-20,42.62-37.09,45.16C356.64,263.28,343,240,341,235.74S348,223,348,223s12.61,12.76,16.33,11.64c4.2-1.26,13.26-19.48,21.58-27,1.77-1.6,24.24,2.82,21.68,8.44"/><path class="cls-7" d="M403.32,201.78h34.77c8.41,0,20.5,2.58,25.59,7.84,7.78,8,2.32,90.31-2.54,102.58a19.14,19.14,0,0,1-10,3.65c-19.23,1.68-63,1.15-68,1.78l.81-72.48,1.72-37.38a29.42,29.42,0,0,1,17.58-6"/><path class="cls-8" d="M404,202.2l35-.17L436.69,315.8l-34.9,0c0-8.13.26-113.61,2.23-113.62"/><path class="cls-9" d="M398.79,186.13c-1.19,7.52,7.85,13.26,14,12.76v3.44L410,206.12l-.48,7.67,8.29,4.46,12-9.07.93-6.85h-.93V189.14a6,6,0,0,0,1.35-.57c1.35-.79,1.88-2.71,1.52-4.69s-3.25-.64-3.25-.64h0c2.51-5.89,5.71-11-.74-14.23s-19.45-3-19.45-3l-7.8-.77c2.1,3.21-1.85,15.93-2.63,20.92"/><path class="cls-10" d="M411.34,199c.49,0,1,0,1.44-.07h0c3.87-.07,7.93-2.7,11.52-4,0,0-1.82,6.44-6.42,8.47a17.3,17.3,0,0,1-5.1,1.42v-5.88l-1.39,0Z"/><path class="cls-7" d="M424.61,172.47c1.88,3.55,1.73,8.68.83,10.55-2.49,5.21,3.18,2.94,3.36,2.53a4,4,0,0,1,1.69-2,1.94,1.94,0,0,1,1.63,0c1.21.92.55,3.81-.84,4.78a12.9,12.9,0,0,0-1,.84s6.81.19,10.78-3.81c4.85-4.88,6.26-11.91,1.6-17.82,1.87-23.6-20.16-22-35.57-17.92-4.44,1.18-8.21,1.92-12.57.26-1.26-.48-2.39-.87-3.43-.37-3.06,1.49-2.23,11.25,1.18,16.43,6.93,10.53,28.81-.14,32.37,6.56"/><path class="cls-7" d="M445,223.69c-3.07-6.32.38-12.94,6.89-15.72h0c6.51-2.78,13.52,1.16,16.59,7.48,6,12.4,23.63,40.59,15,54.54-7,11.32-25.55,3.05-29.94,1.87S448.32,259,448.32,259s10.76,1.08,12.23-2.31C463,251,447.17,228.12,445,223.69"/><path class="cls-8" d="M446.15,257.83c3.69,2.2,6.5,8.56,6.26,12.74-1-.19-9.58-3-9.58-3-3-3.4-4-7.78-3.21-10.58Z"/><path class="cls-9" d="M440,257.56l-4.52-.74-4-3.31a1.37,1.37,0,0,0-1.72.18,60.44,60.44,0,0,0-4.51,5.3l7.4,7.63,1.82.05s1.48-1.66,1.78-2.07,6.92,1.91,6.92,1.91a14,14,0,0,0-3.19-8.95"/><path class="cls-11" d="M418,229.56a1.3,1.3,0,1,1-1.35,1.3,1.33,1.33,0,0,1,1.35-1.3m0-7.51a1.3,1.3,0,1,1-1.35,1.29A1.33,1.33,0,0,1,418,222.05Zm.09,14.77a1.35,1.35,0,1,0,0,2.69,1.35,1.35,0,0,0,0-2.69Zm-5.32-34.75c-4.7,7.67.43,13.12,5.05,15.58,6.51-4,12.37-8,12.37-15.58,0,0,2.25,0,3.71,3.37,2.4,5.52-1.63,17.92-1.63,17.92s-4.53-5.6-8.29-5.9a13.76,13.76,0,0,0-6.2.79c-4.82-3.38-8.1,1-11.32,4.2-1-8.18-.88-14,5.52-20.38Z"/><path class="cls-8" d="M347.47,225.21c.63,4-2.32,9.93-5.55,12.31L337,228.7c.67-4.23,3.28-7.63,5.82-8.78Z"/><path class="cls-9" d="M340.12,216.17c-.31-1.86-1.62-9.22-2.92-10.51-.66-.66-.84-.38-1.17,0a3.3,3.3,0,0,0-.51,1.91,27,27,0,0,0,.3,3.33c-4-2.35-7.68-7.58-10.51-11.17-1.16-1.47-3.1-1.41-2.05,1.15.86,2.09,6,9,6,9l-8-4.82c-1.4-.85-1.47.92-.83,1.69,1.07,1.28,7.88,6,7.88,6l-7.64-1.5a.85.85,0,0,0,.1,1.4c.93.62,8.19,3.36,8.19,3.36l-5-.15s-.51,1,.72,1.44c.66.24,2.39.53,4,1.16a18,18,0,0,1,3.3,1.78,30.11,30.11,0,0,1,3.3,3.12h0c.93,1.93,2.1,4.9,2.1,4.9a14.07,14.07,0,0,0,5.09-8.21Z"/><path class="cls-12" d="M283,437.1l40.28-.4c1.14-1.8,9.58-20.27,10.87-23.79,0,0-10.72-2.16-13.07-2.69a4.07,4.07,0,0,1-3-2.68c0-.1,0-.2-.08-.3-1-4.07-6.85-5.3-7.89-1.31q-.21.76-.36,1.5c0,.11-.05.24-.07.35-.16.86-.28,1.65-.36,2.34v0a22.83,22.83,0,0,0-.17,2.88c-.53.68-1,1.35-1.53,2l-.73,1c-.52.69-1,1.37-1.53,2l-.69.89c-.56.7-1.1,1.37-1.65,2-.24.28-.49.56-.74.82-2.05,2.2-4.13,3.72-6.61,4.09-4.36.64-11.49,1.19-14.87,7.63a2.75,2.75,0,0,0-.17.41,2.48,2.48,0,0,0,2.4,3.21"/><path class="cls-13" d="M181.49,418.16l-34.87-15.28c-.33-2,9.14-16.58,9.33-20.12,0,0,10.12,2.1,12.36,2.51a3.89,3.89,0,0,0,3.62-1.21l.18-.24c2.35-3.17,7.92-2.07,7.35,1.79-.07.5-.16,1-.25,1.43,0,.11,0,.23-.07.34-.17.8-.36,1.53-.55,2.16v0a19.73,19.73,0,0,1-.92,2.56c1,3.68-1.29,9.19.72,10.43,5.24,6.29,8,8.29,6.4,13.26a1.93,1.93,0,0,1,0,.42,2.35,2.35,0,0,1-3.28,1.9"/><path class="cls-14" d="M178.57,210.38c15.12,14.52,32.29,37,51.52,43,0,0,1.78,4.5.86,8.54s-2.71,5.56-2.71,5.56-16.18,1.47-29.77-1.38c-7.64-1.6-14.3-7.47-17.2-8.64-8.05-3.24-15-15.15-15-15.15Z"/><path class="cls-15" d="M231.21,259.35A10.93,10.93,0,0,1,231,262c-.93,4-2.71,5.56-2.71,5.56s-16.18,1.47-29.77-1.38c-7.64-1.6-14.3-7.47-17.2-8.64-3.5-1.4-6.79-4.45-9.4-7.45l-.38-1.7,5.56-17.57s10.8,15.77,33,22.65c10.78,3.34,17.29,5.05,21.13,5.93"/><path class="cls-14" d="M160.75,203.33h-37.4c-14.66,0-22.88,11.09-25.3,25.19-.26,0-1.36,9.31-1.44,10.12-2.37,25,.55,63.66,14.28,79.14l14.21-.18,53.47-13V210.38c-5.19-4.39-10.55-7-17.82-7"/><path class="cls-16" d="M179.51,316.4c-14,29.1-33.68,73.84-33.68,73.84h37.34l30.16-66.76c1.13-2.49,6.74-12.83,7.26-17.53,1.2-10.94-5-16.7-13.32-16.89h-48V316.4Z"/><path class="cls-14" d="M136,203.33s-.43,6.89,1.62,8.54,7.27,2.62,9.39,2a13.71,13.71,0,0,0,5.79-4.83c.8-1.39.22-5.67.22-5.67h3.52l2.84,30.91-.85,54.81-14.49,8.7L132.91,291l-1.55-87.64Z"/><path class="cls-13" d="M278.83,437.1l-40.27-.4c-1.14-1.8-9.59-20.27-10.87-23.79,0,0,10.72-2.16,13.07-2.69a4.05,4.05,0,0,0,3-2.68l.09-.3c1-4.07,6.84-5.3,7.89-1.31.14.51.25,1,.35,1.5,0,.11.05.24.07.35.17.86.29,1.65.37,2.34v0a22,22,0,0,1,.18,2.88c.52.68,1,1.35,1.52,2,.26.33.5.66.74,1,.52.69,1,1.37,1.53,2l.69.89c.55.7,1.1,1.37,1.64,2,.25.28.49.56.74.82,2.06,2.2,4.14,3.72,6.61,4.09,4.36.64,11.49,1.19,14.88,7.63.07.14.12.28.17.41a2.49,2.49,0,0,1-2.41,3.21"/><path class="cls-7" d="M148,276.68H422.78a2.78,2.78,0,0,1,2.77,2.77h0a2.78,2.78,0,0,1-2.77,2.77H148a2.78,2.78,0,0,1-2.78-2.77h0a2.78,2.78,0,0,1,2.78-2.77"/><path class="cls-9" d="M163.62,171.7c-.14,3.15.3,5.88,1.49,7.8,3.93,6.35-3.18,18.5-12.11,17.73l0,6.1h3.52L157.2,215c-6.52,2.44-17.92,2.44-25.63.27l-3.5-12H136V191.39a6.14,6.14,0,0,1-1.35-.6c-1.36-.83-1.89-2.84-1.53-4.93s3.26-.67,3.26-.67h0c-2.51-6.18-5.72-11.51.75-14.94s19.51-3.18,19.51-3.18l7.28,2.19Z"/><path class="cls-10" d="M153,197.25l0,7.82c-6.36-.94-10.51-3.52-12.11-10.08a30.72,30.72,0,0,0,10.83,2.23Z"/><path class="cls-7" d="M143.83,170.78s17.09,3.35,23.28-1.16c13.7-10,5.47-35.26-26.2-28.71-23.62,4.89-19.91,34.5-34.21,36.65-39.66,6-35.38,33-25.68,38.55.07,0,1.63-9.77,8.26-10.05-9.28,7.84-1,20.65,8.24,25.34a7.38,7.38,0,0,1,.37-1.82c2.43-14.09,10.8-26.25,25.46-26.25H136V191.39s-2.84-1.46-2.67-4.2,1.21-1.86,1.52-1.79l1.75.38c.64-3.57,2.35-14.61,7.22-15"/><path class="cls-17" d="M197.58,227.49H259c2.37,0,4.83,2,4.3,4.31l-9.17,40.57c-.52,2.31-1.94,4.31-4.3,4.31H188.41c-2.37,0-4.83-2-4.31-4.31l9.18-40.57c.52-2.31,1.93-4.31,4.3-4.31"/><path class="cls-18" d="M200.33,227.49h61.39c2.37,0,4.83,2,4.31,4.31l-9.18,40.57c-.52,2.31-1.93,4.31-4.3,4.31H191.16c-2.37,0-4.83-2-4.31-4.31L196,231.8c.52-2.31,1.94-4.31,4.3-4.31"/><path class="cls-17" d="M227.74,248.05c1.85.6,2.78,2.89,2.06,5.11s-2.8,3.55-4.65,3-2.78-2.88-2.07-5.11,2.8-3.54,4.66-2.95"/><rect class="cls-19" x="160.75" y="272.66" width="25.4" height="4.02"/><path class="cls-9" d="M173.74,265.54s11.87,1,15.57,2.78,4.91,4,4.91,4c.33.12,2.72-.12,4,.91,1.41,1.16,1.58,3.58-.42,3.4-.74-.07-21.73,0-21.73,0l-4.38-1s2.06-6.56,1.7-7.91-2.44-3-2.44-3Z"/><polygon class="cls-11" points="149.05 251.67 129.44 203.33 122.28 203.35 120.55 214.21 130.32 218.28 122.18 225.61 149.05 251.67"/><path class="cls-20" d="M122.18,220.72c-2.45-7.06-11.08-9.29-15.58-4.8h0c-5.33,3.46-7.16,13.22-4.88,20.37,4,12.61,22.57,34.87,36.33,37.56,7.95,1.56,20.91,3.21,29.44,2.83,3.45-.16,6.23,0,7.58-1.3,4.7-4.58-2.4-13.94-2.4-13.94s-25.5-9.4-28.5-10.59c-5-2-20.28-25.18-22-30.13"/><path class="cls-21" d="M103,220.13c-2.39,4.53-5.2,10.36-2.76,19.32,4,12.61,22.89,33.14,36.65,35.83,7.94,1.56,22.12,1.78,30.65,1.4,3.45-.16,6.23,0,7.58-1.3,0,0-25.37-4.22-37.42-8.73-10.87-4.08-35.07-30-34.7-46.52"/><polygon class="cls-11" points="156.55 203.33 149.05 251.67 166.16 223.16 160.45 217.46 168.6 214.21 162.11 203.36 156.55 203.33"/><path class="cls-11" d="M154.62,215.8s-4.15,1.28-11.78,1.07-8.26-.88-8.26-.88l1.07,2.63c4.78.51,14.35,1,18.62-.58Z"/><path class="cls-22" d="M149.05,251.67l-13.4-33c4.78.51,14.35,1,18.62-.58Z"/><path class="cls-5" d="M64.05,252.17v20A50.08,50.08,0,0,0,112.94,322H177a2.83,2.83,0,0,0,0-5.64H114A44.42,44.42,0,0,1,69.7,272.12V227.2a2.83,2.83,0,0,0-5.65,0Z"/><path class="cls-6" d="M69.7,227.2h4.66A4.68,4.68,0,0,1,79,231.86v46.73a4.68,4.68,0,0,1-4.66,4.66H69.7Z"/><path class="cls-5" d="M89.48,403.14V348.23A23,23,0,0,1,97.72,331a30.09,30.09,0,0,1,19.8-7.19h31.22a30.09,30.09,0,0,1,19.8,7.19,23,23,0,0,1,8.24,17.27v54.91Zm59.26-82.82H117.52a34.34,34.34,0,0,0-22.59,8.2,26.17,26.17,0,0,0-9.4,19.71v88.3h4V407.21h87.3v29.32h3.95v-88.3a26.19,26.19,0,0,0-9.4-19.71A34.34,34.34,0,0,0,148.74,320.32Z"/><path class="cls-23" d="M133.94,289c15.31,0,32.94.14,48.25,0,4.88,0,9.26.05,14.37,2.39a21.55,21.55,0,0,1,8.67,7.76c7.18,10.91,54,116.25,54,116.25H221.72l-40.23-88.85c-2.27-5-5-6.8-10.61-8.24-6.52-1.66-57.85-.51-57.85-.51Z"/><path class="cls-24" d="M233.33,415.36H221.72l-40.23-88.85c-2.27-5-5-6.8-10.61-8.24-6.52-1.66-57.85-.51-57.85-.51l5.22-7.17h66.41Z"/><path class="cls-7" d="M425.05,288.9c-15.07,0-32.41.13-47.47,0-4.8-.05-9.11.05-14.14,2.35a21.21,21.21,0,0,0-8.53,7.63c-7.06,10.73-54.77,116.52-54.77,116.52H337l40.59-88.18a18.82,18.82,0,0,1,12.29-10.34c6.41-1.64,24.34-.86,24.34-.86Z"/><path class="cls-7" d="M422.5,288.77c-19.29.53-22.54,12.41-23.95,29.37l-9.68,97.29h32.58L432.24,316l1.18,1h8.24c16.28,0,19.25-7.5,19.22-15.1,0-3.18-1.79-7.91-5-9.8-6.66-4-25.28-3.59-33.41-3.36"/><path class="cls-12" d="M387.73,434.42c.36,5.8,23.1,3.8,26.74,2.06a3.9,3.9,0,0,0,2.11-3.54c.17-2.5-.86-5.7-1.75-8.21-1.46-4.09-1.26-4-2.27-6.81,0,0,.26-4.54-7.19-6.28-6.22-1.45-8.72,1.73-10.26,5.56-.31.77-1,5.83-1.2,6.19-1.17,2-5.69,4.73-6.16,9.63a8.12,8.12,0,0,0,0,1.4"/><path class="cls-18" d="M191.67,41.38H347.75a18,18,0,0,1,18,18h0a18,18,0,0,1-18,18H191.67a18,18,0,0,1-18-18h0a18,18,0,0,1,18-18"/><path class="cls-23" d="M192,48.71a10.83,10.83,0,1,1-10.82,10.82A10.82,10.82,0,0,1,192,48.71"/><polygon class="cls-11" points="188.08 54.64 198.74 59.97 188.08 65.3 188.08 54.64"/><path class="cls-11" d="M210.69,57.53H352.46a1.83,1.83,0,1,1,0,3.66H210.69a1.83,1.83,0,1,1,0-3.66"/><path class="cls-25" d="M231.47,51.93a7.25,7.25,0,1,1-7.25,7.25,7.25,7.25,0,0,1,7.25-7.25"/><path class="cls-18" d="M147.88,84.8H281.31a15.37,15.37,0,0,1,0,30.74H147.88a15.37,15.37,0,0,1,0-30.74"/><path class="cls-23" d="M148.18,91.07a9.25,9.25,0,1,1-9.26,9.25,9.25,9.25,0,0,1,9.26-9.25"/><path class="cls-11" d="M164.14,98.6h121.2a1.57,1.57,0,0,1,0,3.14H164.14a1.57,1.57,0,0,1,0-3.14"/><path class="cls-25" d="M241.58,93.82a6.2,6.2,0,1,1-6.19,6.2,6.2,6.2,0,0,1,6.19-6.2"/><rect class="cls-3" x="144.87" y="96.51" width="1.94" height="7.61"/><rect class="cls-3" x="149.54" y="96.51" width="1.94" height="7.61"/><path class="cls-18" d="M189.06,0H322.49a15.37,15.37,0,1,1,0,30.74H189.06a15.37,15.37,0,0,1,0-30.74"/><path class="cls-23" d="M189.35,6.27a9.25,9.25,0,1,1-9.25,9.25,9.25,9.25,0,0,1,9.25-9.25"/><path class="cls-11" d="M205.32,13.8H326.51a1.57,1.57,0,0,1,0,3.14H205.32a1.57,1.57,0,1,1,0-3.14"/><path class="cls-25" d="M229.28,9a6.2,6.2,0,1,1-6.2,6.2,6.2,6.2,0,0,1,6.2-6.2"/><rect class="cls-3" x="186.05" y="11.72" width="1.94" height="7.61"/><rect class="cls-3" x="190.72" y="11.72" width="1.94" height="7.61"/><path class="cls-18" d="M401.38,71.73c44.49,0,44.72,64.31,1.15,64.31-18.18,0-32.93-14.39-32.93-32.15s13.59-32.16,31.78-32.16"/><polygon class="cls-11" points="393.13 91 418.27 103.56 393.13 116.13 393.13 91"/><path class="cls-25" d="M129,170.54c-4.07,2.66-5.18,9.19-2.48,14.59s8.18,7.63,12.25,5,5.19-9.18,2.49-14.58-8.19-7.63-12.26-5"/><path class="cls-26" d="M127.56,171.35c-4.08,2.65-5.19,9.19-2.49,14.59s8.19,7.62,12.26,5,5.18-9.19,2.48-14.59c-1.77-3.55-4.76-5.73-7.75-6h0l.94-.84c-4.07-14.22,3.83-25.32,13.49-28.89l1.4-.6V139c-13.94-.26-25.48,18-18.86,31.54l.32,0a7.21,7.21,0,0,0-1.78.84"/><path class="cls-25" d="M435.93,171.64c4.07,2.66,5.18,9.19,2.49,14.59s-8.19,7.63-12.26,5S421,182,423.67,176.62s8.19-7.63,12.26-5"/><path class="cls-26" d="M437.4,172.45c4.07,2.65,5.18,9.19,2.48,14.59s-8.18,7.62-12.26,5-5.18-9.19-2.48-14.59c1.78-3.55,4.76-5.73,7.75-6h0l-.94-.84c3.51-12.24-5.25-22.08-14.4-23,3.5-5.3,25.17,3.47,18.38,24.11l-.32,0a7.45,7.45,0,0,1,1.79.84"/><path class="cls-18" d="M459.54,125.52A12.42,12.42,0,0,1,464,125l-1.43-22.79,20.64-6.13,1.39,25.74c.56,1.88-2,4.33-5.83,5.45s-7.29.49-7.85-1.4,2-4.33,5.82-5.45a12.42,12.42,0,0,1,4.45-.52l-.95-18.28-13.93,4.13,1.1,21.16c.56,1.89-2,4.33-5.83,5.45s-7.29.5-7.85-1.39,2-4.33,5.82-5.45"/><path class="cls-18" d="M469.31,164.1a11.14,11.14,0,0,1,3.89,1.39l8.13-19.44,12,2.07L491.73,152l-3.07-.53-5.68-1-7.74,18c-.31,1.79-3.46,2.74-7.05,2.12s-6.24-2.57-5.93-4.36,3.47-2.74,7.05-2.13"/><path class="cls-27" d="M337.28,186.43l-3.06-2.72a.38.38,0,0,1-.13-.18l-.4-1.24,2.33-.74-.1.17Z"/><path class="cls-28" d="M335.67,181.65l1.51,4.63a.37.37,0,0,0,.67.08l4.14-6.7Z"/><path class="cls-29" d="M351.87,162.12a3.73,3.73,0,0,0-1.06-3.24l-1.2-1.07a3.87,3.87,0,0,0-3.38-.72l-30.73,9.68a3.79,3.79,0,0,0-2.32,2.52l-3,13.62a3.73,3.73,0,0,0,1.06,3.24l1.2,1.07a3.87,3.87,0,0,0,3.38.72l30.92-9.76a2.64,2.64,0,0,0,2.13-2.44Z"/><path class="cls-27" d="M310.2,182.91a3.73,3.73,0,0,0,1.06,3.24l1.2,1.07a3.9,3.9,0,0,0,3.06.8c-.86.13-1.37-.45-1.16-1.4l3-13.62a3.5,3.5,0,0,1,.85-1.53L314,167.76a3.5,3.5,0,0,0-.85,1.53Z"/><path class="cls-28" d="M351.92,161.64c0-.75-.65-1.12-1.52-.84l-30.74,9.69a3.38,3.38,0,0,0-1.46,1l-4.16-3.7a3.37,3.37,0,0,1,1.46-1l30.73-9.69a3.87,3.87,0,0,1,3.38.72l1.21,1.08A3.75,3.75,0,0,1,351.92,161.64Z"/><path class="cls-30" d="M321.66,175l22-7c.64-.2,1.06.05.95.55a2.07,2.07,0,0,1-1.35,1.27l-22,7c-.63.21-1.06,0-.95-.54A2.09,2.09,0,0,1,321.66,175Z"/><path class="cls-30" d="M320.66,179.52l22-7c.64-.2,1.06,0,.95.55a2.07,2.07,0,0,1-1.35,1.27l-22,7c-.64.2-1.07-.05-1-.55A2.09,2.09,0,0,1,320.66,179.52Z"/><path class="cls-27" d="M222.48,258.8l3.65-1.89a.33.33,0,0,0,.17-.14l.7-1.1-2.07-1.29.06.19Z"/><path class="cls-28" d="M225.25,254.57l-2.64,4.11a.37.37,0,0,1-.66-.09l-2.32-7.52Z"/><path class="cls-29" d="M214.49,231.65a3.72,3.72,0,0,1,1.84-2.87l1.43-.74a3.87,3.87,0,0,1,3.46.13l27.31,17a3.7,3.7,0,0,1,1.61,3l-.55,13.92a3.73,3.73,0,0,1-1.84,2.88l-1.44.74a3.88,3.88,0,0,1-3.45-.14l-27.47-17.08a2.62,2.62,0,0,1-1.45-2.89Z"/><path class="cls-27" d="M249.59,262.07a3.73,3.73,0,0,1-1.84,2.88l-1.44.74a4,4,0,0,1-3.16,0c.8.33,1.44-.1,1.48-1.07l.55-13.93a3.47,3.47,0,0,0-.44-1.69l5-2.57a3.4,3.4,0,0,1,.44,1.7Z"/><path class="cls-28" d="M214.56,231.17c.23-.71.91-.91,1.69-.43l27.32,17a3.31,3.31,0,0,1,1.16,1.31l5-2.56a3.43,3.43,0,0,0-1.17-1.32l-27.31-17a3.91,3.91,0,0,0-3.45-.13l-1.45.74A3.76,3.76,0,0,0,214.56,231.17Z"/><path class="cls-30" d="M240.5,251.54,221,239.36c-.57-.36-1-.22-1.06.29a2,2,0,0,0,1,1.56l19.51,12.19c.56.35,1,.22,1.06-.3A2.08,2.08,0,0,0,240.5,251.54Z"/><path class="cls-30" d="M240.32,256.2,220.8,244c-.56-.35-1-.22-1.05.3a2,2,0,0,0,1,1.56l19.51,12.18c.57.35,1,.22,1.06-.29A2.08,2.08,0,0,0,240.32,256.2Z"/><path class="cls-31" d="M227.18,188.36l-3.43-2.1a.29.29,0,0,1-.16-.15L223,185l2.12-1.11-.07.18Z"/><path class="cls-27" d="M227.18,188.36l-3.43-2.1a.29.29,0,0,1-.16-.15L223,185l2.12-1.11-.07.18Z"/><path class="cls-28" d="M224.78,184l2.28,4.21a.37.37,0,0,0,.66,0l2.8-7.19Z"/><path class="cls-27" d="M254.63,151a3.71,3.71,0,0,0-1.6-2.94l-1.36-.83a3.79,3.79,0,0,0-3.38-.11l-33.16,17.43a3.66,3.66,0,0,0-1.78,2.83l-.52,15.72a3.68,3.68,0,0,0,1.6,2.94l1.35.83a3.82,3.82,0,0,0,3.39.11l33.32-17.53a2.57,2.57,0,0,0,1.62-2.73Z"/><path class="cls-32" d="M212.83,183.1a3.68,3.68,0,0,0,1.6,2.94l1.35.83a3.84,3.84,0,0,0,3.1.24c-.81.27-1.4-.19-1.37-1.14l.51-15.73a3.41,3.41,0,0,1,.55-1.62l-4.68-2.87a3.36,3.36,0,0,0-.54,1.63Z"/><path class="cls-33" d="M254.59,150.53c-.18-.72-.83-1-1.62-.55l-33.16,17.43a3.33,3.33,0,0,0-1.24,1.21l-4.67-2.86a3.46,3.46,0,0,1,1.23-1.21l33.15-17.43a3.81,3.81,0,0,1,3.39.11l1.36.83A3.72,3.72,0,0,1,254.59,150.53Z"/><path class="cls-3" d="M222.43,174.81l17.93-9.46c.57-.3,1-.14,1,.37a2,2,0,0,1-1.07,1.46l-17.93,9.45c-.58.3-1,.14-1-.36A2,2,0,0,1,222.43,174.81Z"/><path class="cls-3" d="M222.28,179.38l25.18-13.3c.57-.3,1-.14,1,.36a2,2,0,0,1-1.07,1.46l-25.18,13.31c-.58.3-1,.14-1-.37A2,2,0,0,1,222.28,179.38Z"/><path class="cls-3" d="M222.58,170l25.18-13.3c.58-.3,1-.14,1,.36a2,2,0,0,1-1.08,1.46l-25.17,13.31c-.58.3-1,.14-1-.37A2.06,2.06,0,0,1,222.58,170Z"/><path class="cls-31" d="M331.29,258.64l3.11-1a.29.29,0,0,0,.16-.09l.7-.76-1.43-1.29,0,.16Z"/><path class="cls-27" d="M331.29,258.64l3.11-1a.29.29,0,0,0,.16-.09l.7-.76-1.43-1.29,0,.16Z"/><path class="cls-28" d="M334.05,255.73l-2.64,2.83a.3.3,0,0,1-.51-.16l-.72-6.17Z"/><path class="cls-27" d="M317.46,224a3,3,0,0,1,1.85-2l1.22-.38a3,3,0,0,1,2.67.59l22.35,20.21a2.94,2.94,0,0,1,.82,2.56l-2.8,12.38a3,3,0,0,1-1.85,2l-1.22.38a3,3,0,0,1-2.67-.59l-22.45-20.32a2.07,2.07,0,0,1-.72-2.45Z"/><path class="cls-32" d="M343.57,257.38a3,3,0,0,1-1.85,2l-1.22.38a3.15,3.15,0,0,1-2.47-.42c.58.37,1.14.12,1.3-.63l2.8-12.38a2.64,2.64,0,0,0-.1-1.38l4.24-1.3a2.71,2.71,0,0,1,.1,1.37Z"/><path class="cls-33" d="M317.59,223.63c.28-.52.84-.58,1.37-.1l22.35,20.22a2.57,2.57,0,0,1,.72,1.18l4.23-1.3a2.64,2.64,0,0,0-.71-1.19L323.2,222.23a3.09,3.09,0,0,0-2.67-.59l-1.22.38A3,3,0,0,0,317.59,223.63Z"/><path class="cls-3" d="M337.76,249l-12.08-10.95c-.38-.36-.77-.32-.86.08a1.61,1.61,0,0,0,.54,1.35l12.08,11c.39.35.78.32.87-.08A1.65,1.65,0,0,0,337.76,249Z"/><path class="cls-3" d="M337,252.6l-17-15.4c-.39-.35-.78-.32-.87.08a1.64,1.64,0,0,0,.55,1.36L336.62,254c.39.35.78.31.87-.08A1.62,1.62,0,0,0,337,252.6Z"/><path class="cls-3" d="M338.62,245.21l-17-15.4c-.39-.35-.78-.31-.87.08a1.63,1.63,0,0,0,.55,1.36l17,15.4c.39.35.78.32.87-.08A1.63,1.63,0,0,0,338.62,245.21Z"/><g id="Microphone"><path class="cls-28" d="M292.25,273.74a5,5,0,0,0-.06-1.16c-.5-4.33-5.06-7.55-8.48-9l-11.31-.53c-3.41.86-8.37,3.87-9.27,8.14a4.5,4.5,0,0,0-.17,1.14.93.93,0,0,0,0,.2c0,2,1.36,4.09,4,5.76,5.57,3.52,14.85,3.95,20.73,1,2.79-1.42,4.29-3.35,4.52-5.37A1.25,1.25,0,0,0,292.25,273.74Z"/><path class="cls-30" d="M271,263.68c-4,2-4.16,5.62-.37,8a15.82,15.82,0,0,0,14.09.65c4-2,4.16-5.61.37-8A15.82,15.82,0,0,0,271,263.68Z"/><path class="cls-34" d="M282.43,226.27l-5.26-.25-1.9,40.58h0a1.22,1.22,0,0,0,.7,1.22,4.18,4.18,0,0,0,3.71.17,1.21,1.21,0,0,0,.81-1.15h0Z"/><path class="cls-35" d="M282.43,226.27l-5.26-.25-1.9,40.58h0a1.22,1.22,0,0,0,.7,1.22,4.18,4.18,0,0,0,3.71.17,1.21,1.21,0,0,0,.81-1.15h0Z"/><path class="cls-36" d="M298.7,191.15h0L297,192a5.27,5.27,0,0,0-2.24-4.26l0,0a2.68,2.68,0,0,0-.68-.31,1.43,1.43,0,0,0-1.07.08l1.68-.85a1.69,1.69,0,0,1,1.74.24h0A5.32,5.32,0,0,1,298.7,191.15Z"/><path class="cls-34" d="M297,192l-.62,13.36c0,.08,0,.18,0,.26a28.7,28.7,0,0,1-5,13.73c-.25.37-.5.73-.76,1.08a19.58,19.58,0,0,1-10.16,2.62c.18-.13.53-.42.7-.56,5.7-4.74,10.09-12.92,10.43-20.14l.63-13.36a1.72,1.72,0,0,1,.75-1.51,1.43,1.43,0,0,1,1.07-.08,3.16,3.16,0,0,1,.68.32h0l.18.13a4,4,0,0,1,.79.75A5.21,5.21,0,0,1,297,192Z"/><path class="cls-37" d="M297,192l-.62,13.36c0,.08,0,.18,0,.26a28.7,28.7,0,0,1-5,13.73c-.25.37-.5.73-.76,1.08a19.58,19.58,0,0,1-10.16,2.62c.18-.13.53-.42.7-.56,5.7-4.74,10.09-12.92,10.43-20.14l.63-13.36a1.72,1.72,0,0,1,.75-1.51,1.43,1.43,0,0,1,1.07-.08,3.16,3.16,0,0,1,.68.32h0l.18.13a4,4,0,0,1,.79.75A5.21,5.21,0,0,1,297,192Z"/><path class="cls-34" d="M298.7,191.16,298,206.37a25.32,25.32,0,0,1-2.54,9.39c-.27.57-.56,1.14-.87,1.7a18.45,18.45,0,0,1-3.92,3c.26-.35.51-.71.76-1.08a28.7,28.7,0,0,0,5-13.73c0-.08,0-.18,0-.26L297,192Z"/><path class="cls-38" d="M298.7,191.16,298,206.37a25.32,25.32,0,0,1-2.54,9.39c-.27.57-.56,1.14-.87,1.7a18.45,18.45,0,0,1-3.92,3c.26-.35.51-.71.76-1.08a28.7,28.7,0,0,0,5-13.73c0-.08,0-.18,0-.26L297,192Z"/><path class="cls-39" d="M298.7,191.15h0L297,192a5.27,5.27,0,0,0-2.24-4.26l0,0a2.68,2.68,0,0,0-.68-.31,1.43,1.43,0,0,0-1.07.08l1.68-.85a1.69,1.69,0,0,1,1.74.24h0A5.32,5.32,0,0,1,298.7,191.15Z"/><path class="cls-34" d="M265.81,179.78c.11-2.46,1.87-4.83,5.25-6.55,6.76-3.43,17.43-2.93,23.84,1.11,3.2,2,4.73,4.55,4.62,7s-1.88,4.82-5.25,6.54c-6.76,3.43-17.43,2.93-23.84-1.11-3.21-2-4.74-4.56-4.62-7Z"/><path class="cls-28" d="M265.81,179.78c.11-2.46,1.87-4.83,5.25-6.55,6.76-3.43,17.43-2.93,23.84,1.11,3.2,2,4.73,4.55,4.62,7s-1.88,4.82-5.25,6.54c-6.76,3.43-17.43,2.93-23.84-1.11-3.21-2-4.74-4.56-4.62-7Z"/><path class="cls-34" d="M265.32,190.14c.12-2.45,1.88-4.83,5.26-6.54,6.75-3.44,17.43-2.94,23.84,1.11,3.2,2,4.73,4.55,4.62,7s-1.88,4.83-5.26,6.54c-6.76,3.43-17.43,2.94-23.84-1.11-3.2-2-4.73-4.55-4.62-7Z"/><path class="cls-28" d="M265.32,190.14c.12-2.45,1.88-4.83,5.26-6.54,6.75-3.44,17.43-2.94,23.84,1.11,3.2,2,4.73,4.55,4.62,7s-1.88,4.83-5.26,6.54c-6.76,3.43-17.43,2.94-23.84-1.11-3.2-2-4.73-4.55-4.62-7Z"/><path class="cls-34" d="M264.84,200.48c.11-2.45,1.87-4.83,5.25-6.54,6.76-3.44,17.43-2.94,23.84,1.11,3.2,2,4.73,4.55,4.62,7s-1.88,4.83-5.25,6.54c-6.76,3.43-17.43,2.94-23.84-1.11-3.21-2-4.74-4.55-4.62-7Z"/><path class="cls-28" d="M264.84,200.48c.11-2.45,1.87-4.83,5.25-6.54,6.76-3.44,17.43-2.94,23.84,1.11,3.2,2,4.73,4.55,4.62,7s-1.88,4.83-5.25,6.54c-6.76,3.43-17.43,2.94-23.84-1.11-3.21-2-4.74-4.55-4.62-7Z"/><path class="cls-28" d="M293.37,187.31l-.54.26a1.16,1.16,0,0,0,1.42.32h0a13.1,13.1,0,0,0,1.48-.87,10.05,10.05,0,0,0,2.3-2,7.07,7.07,0,0,0,.77-1.16,5.72,5.72,0,0,0,.7-2.47l-.25,5.37a5.72,5.72,0,0,1-.7,2.47,6.55,6.55,0,0,1-.78,1.16l-.06,1.3a6.7,6.7,0,0,1-3.19,5,12.86,12.86,0,0,1-1.65,1l-.55.27a1.14,1.14,0,0,0,1.42.31h0a15.17,15.17,0,0,0,1.5-.87,10.36,10.36,0,0,0,2.28-2,7.52,7.52,0,0,0,.77-1.16,5.78,5.78,0,0,0,.71-2.47l-.26,5.37a5.62,5.62,0,0,1-.7,2.47,7.52,7.52,0,0,1-.77,1.16l-.06,1.27c-.11,2.26-1.74,4.45-4.85,6-.18.1-.37.19-.56.28a1.17,1.17,0,0,0,1.44.33h0a11.79,11.79,0,0,0,3.78-2.9,8,8,0,0,0,.77-1.16,5.8,5.8,0,0,0,.7-2.48l-.24,5.2c0,.2,0,.4-.05.6a15.73,15.73,0,0,1-.64,3.4,16.95,16.95,0,0,1-32.71-1.52,16.35,16.35,0,0,1-.33-3.45V206c0-.1,0-.2,0-.3l.25-5.21a.45.45,0,0,0,0,.11,6,6,0,0,0,.47,2.43,8.28,8.28,0,0,0,.67,1.23,11.48,11.48,0,0,0,3.49,3.24c3.77,2.38,9,3.53,14.09,3.38a2.72,2.72,0,0,0,1.95-.92c-5.27.59-11.09-.44-15.1-3-2.86-1.81-4.28-4.05-4.27-6.25l.07-1.48a6.67,6.67,0,0,1-.66-1.23,5.81,5.81,0,0,1-.47-2.43v-.1l.25-5.37v.11a5.8,5.8,0,0,0,.47,2.42,6.67,6.67,0,0,0,.66,1.23,10.28,10.28,0,0,0,2.08,2.24,15.92,15.92,0,0,0,1.41,1A25.75,25.75,0,0,0,284,200.51a2.67,2.67,0,0,0,1.93-.89c-5.27.58-11.07-.44-15.07-3a13.14,13.14,0,0,1-1.56-1.15,6.81,6.81,0,0,1-2.71-5.1l.07-1.51a6.73,6.73,0,0,1-.67-1.23,5.93,5.93,0,0,1-.47-2.42.41.41,0,0,1,0-.11l.25-5.37a.41.41,0,0,0,0,.11,5.75,5.75,0,0,0,.46,2.42,7.4,7.4,0,0,0,.67,1.23,10.37,10.37,0,0,0,2.09,2.25,15.72,15.72,0,0,0,1.4,1c3.77,2.38,9,3.53,14.08,3.37a2.66,2.66,0,0,0,1.93-.88c-5.26.58-11.06-.45-15.07-3a11.83,11.83,0,0,1-1.54-1.14A6.84,6.84,0,0,1,267.1,180l.07-1.51a7.38,7.38,0,0,1-.66-1.23,5.94,5.94,0,0,1-.45-1.81,4.33,4.33,0,0,1,0-.72c0-.32,0-.63.07-1A16.77,16.77,0,0,1,283.68,159a17,17,0,0,1,11.69,5.41,16.44,16.44,0,0,1,4.4,11c0,.32,0,.63,0,1h0c0,.24,0,.47-.08.71a5.91,5.91,0,0,1-.63,1.76,8,8,0,0,1-.77,1.16l-.06,1.3a6.72,6.72,0,0,1-3.2,5A12.86,12.86,0,0,1,293.37,187.31Z"/><g class="cls-40"><path d="M287.12,187.61h0a2.61,2.61,0,0,1-.68,1.64c-5.26.58-11.06-.45-15.07-3-2.86-1.81-4.28-4.06-4.27-6.25l.07-1.51.12.17a11.67,11.67,0,0,0,3.37,3.07c3.75,2.37,9,3.52,14,3.38A2.37,2.37,0,0,1,287.12,187.61Z"/><path d="M298.28,180l-.06,1.3c-.11,2.26-1.74,4.45-4.85,6l-.54.26a1,1,0,0,1-.26-.77l0-1a3.41,3.41,0,0,1,1.87-2.87h0a11.5,11.5,0,0,0,3.64-2.74Z"/><path d="M286.64,198h0a2.61,2.61,0,0,1-.68,1.64c-5.27.58-11.07-.44-15.07-3-2.87-1.81-4.28-4.06-4.27-6.25l.07-1.51.12.18a11.47,11.47,0,0,0,3.36,3.06,25.76,25.76,0,0,0,14,3.39A2.37,2.37,0,0,1,286.64,198Z"/><path d="M297.79,190.34l-.06,1.3c-.11,2.27-1.73,4.45-4.84,6l-.55.27a1.17,1.17,0,0,1-.26-.78l.05-1a3.39,3.39,0,0,1,1.87-2.87h0a12,12,0,0,0,3.64-2.74Z"/><path d="M286.15,208.35a2.66,2.66,0,0,1-.65,1.61c-5.27.59-11.09-.44-15.1-3-2.86-1.81-4.28-4.05-4.27-6.25l.07-1.48.12.17a11.42,11.42,0,0,0,3.37,3.07c3.75,2.37,9,3.52,14,3.39A2.37,2.37,0,0,1,286.15,208.35Z"/><path d="M297.31,200.71l-.06,1.27c-.11,2.26-1.74,4.45-4.85,6-.18.1-.37.19-.56.28a1.18,1.18,0,0,1-.25-.76l.05-1.06a3.38,3.38,0,0,1,1.86-2.84l0,0a11.82,11.82,0,0,0,3.65-2.74Z"/></g><path class="cls-34" d="M290.66,220.44a24.64,24.64,0,0,1-8.4,7.54c-5.15,2.62-9.49,2.2-11.5-1.75a10.41,10.41,0,0,0,6.73-1.26,16.87,16.87,0,0,0,3-1.91A19.58,19.58,0,0,0,290.66,220.44Z"/><path class="cls-35" d="M290.66,220.44a24.64,24.64,0,0,1-8.4,7.54c-5.15,2.62-9.49,2.2-11.5-1.75a10.41,10.41,0,0,0,6.73-1.26,16.87,16.87,0,0,0,3-1.91A19.58,19.58,0,0,0,290.66,220.44Z"/><path class="cls-34" d="M268.58,225.37a14.78,14.78,0,0,1-.66-5.44l.86-18.25a5.27,5.27,0,0,0-2.24-4.26l0,0a2.77,2.77,0,0,0-.68-.32,1.48,1.48,0,0,0-1.07.09,1.69,1.69,0,0,0-.75,1.5l-.85,18.25c-.23,4.81,1.34,8.29,4,10l4.79,3A8.36,8.36,0,0,1,268.58,225.37Z"/><path class="cls-35" d="M268.58,225.37a14.78,14.78,0,0,1-.66-5.44l.86-18.25a5.27,5.27,0,0,0-2.24-4.26l0,0a2.77,2.77,0,0,0-.68-.32,1.48,1.48,0,0,0-1.07.09,1.69,1.69,0,0,0-.75,1.5l-.85,18.25c-.23,4.81,1.34,8.29,4,10l4.79,3A8.36,8.36,0,0,1,268.58,225.37Z"/><path class="cls-34" d="M270.45,200.82h0l-1.67.85a5.3,5.3,0,0,0-2.24-4.27h0a2.45,2.45,0,0,0-.68-.32,1.43,1.43,0,0,0-1.07.08l1.68-.84a1.69,1.69,0,0,1,1.75.23h0A5.29,5.29,0,0,1,270.45,200.82Z"/><path class="cls-41" d="M270.45,200.82h0l-1.67.85a5.3,5.3,0,0,0-2.24-4.27h0a2.45,2.45,0,0,0-.68-.32,1.43,1.43,0,0,0-1.07.08l1.68-.84a1.69,1.69,0,0,1,1.75.23h0A5.29,5.29,0,0,1,270.45,200.82Z"/><path class="cls-34" d="M294.58,217.46c-.34.64-.72,1.26-1.11,1.88l-.3.46-.26.4a.36.36,0,0,0-.07.1q-.45.66-.93,1.29c-.23.31-.48.63-.73.93l-.64.77c-.23.27-.48.54-.72.8l-.33.35-.21.22-.42.42a26.69,26.69,0,0,1-2.13,1.89c-.13.11-.26.22-.4.32l-.29.22c-.55.41-1.1.78-1.65,1.12l-.48.28-.33.19c-.2.12-.41.23-.62.33-4.36,2.22-8.23,2.26-11,.54a8.38,8.38,0,0,1-3.42-4.6,14.78,14.78,0,0,1-.66-5.44l.86-18.25,1.67-.85L269.6,219a14.55,14.55,0,0,0,1.16,7.25c2,4,6.35,4.37,11.5,1.75l.49-.26.21-.11.39-.23.19-.12L284,227l.5-.34.06,0,.56-.4.55-.43.06,0,.47-.39.13-.11.42-.37.52-.49a27.29,27.29,0,0,0,2-2.14l.44-.53.06-.07c.15-.19.3-.37.44-.57s.3-.39.45-.6h0A18.45,18.45,0,0,0,294.58,217.46Z"/><path class="cls-41" d="M294.58,217.46c-.34.64-.72,1.26-1.11,1.88l-.3.46-.26.4a.36.36,0,0,0-.07.1q-.45.66-.93,1.29c-.23.31-.48.63-.73.93l-.64.77c-.23.27-.48.54-.72.8l-.33.35-.21.22-.42.42a26.69,26.69,0,0,1-2.13,1.89c-.13.11-.26.22-.4.32l-.29.22c-.55.41-1.1.78-1.65,1.12l-.48.28-.33.19c-.2.12-.41.23-.62.33-4.36,2.22-8.23,2.26-11,.54a8.38,8.38,0,0,1-3.42-4.6,14.78,14.78,0,0,1-.66-5.44l.86-18.25,1.67-.85L269.6,219a14.55,14.55,0,0,0,1.16,7.25c2,4,6.35,4.37,11.5,1.75l.49-.26.21-.11.39-.23.19-.12L284,227l.5-.34.06,0,.56-.4.55-.43.06,0,.47-.39.13-.11.42-.37.52-.49a27.29,27.29,0,0,0,2-2.14l.44-.53.06-.07c.15-.19.3-.37.44-.57s.3-.39.45-.6h0A18.45,18.45,0,0,0,294.58,217.46Z"/><path class="cls-28" d="M266.29,198.89a1.16,1.16,0,0,0-1.17-.16l-1.6.81,2.09,4.06,1.59-.81.12-.06a1.19,1.19,0,0,0,.47-1A3.57,3.57,0,0,0,266.29,198.89Z"/><path class="cls-29" d="M266.11,202.59a1,1,0,0,1-1.67.86,3.55,3.55,0,0,1-1.5-2.86,1.16,1.16,0,0,1,.48-1l.1-.05a1.24,1.24,0,0,1,1.09.2A3.51,3.51,0,0,1,266.11,202.59Z"/><path class="cls-28" d="M265.44,202.17a.57.57,0,0,1,0,.13.6.6,0,0,1-.28.46.68.68,0,0,1-.68-.1,2.05,2.05,0,0,1-.86-1.65.68.68,0,0,1,.28-.58l.05,0a.64.64,0,0,1,.53.05l.11.06A2.05,2.05,0,0,1,265.44,202.17Z"/><path class="cls-29" d="M265.44,202.17a.57.57,0,0,1,0,.13l-.11-.06a2.08,2.08,0,0,1-.87-1.66.5.5,0,0,1,0-.12l.11.06A2.05,2.05,0,0,1,265.44,202.17Z"/><path class="cls-42" d="M296.35,169.17c-2.09-5.06-7-7.87-12.4-8.14a8.32,8.32,0,0,0-4.44.79,3.87,3.87,0,0,0-2.13,3.67c.18,1.41,1.33,2.48,2.41,3.44l7.64,6.75c1.64,1.45,3.58,3,5.76,2.72a4.83,4.83,0,0,0,3.84-3.72A8.91,8.91,0,0,0,296.35,169.17Z"/></g><path class="cls-5" d="M343.46,276.91H227.28a47.22,47.22,0,0,0-31,11.26c-8,6.95-12.9,16.54-12.9,27.08V436.53h5.42V315.25c0-9.24,4.34-17.64,11.31-23.73a41.4,41.4,0,0,1,27.2-9.87H343.46a41.33,41.33,0,0,1,27.19,9.87c7,6.09,11.32,14.49,11.32,23.73V436.53h5.42V315.25c0-10.54-4.94-20.13-12.9-27.08a47.22,47.22,0,0,0-31-11.26"/></g></g></svg>