<svg xmlns="http://www.w3.org/2000/svg" xmlns:xlink="http://www.w3.org/1999/xlink" viewBox="0 0 319.35 90.39"><defs><style>.cls-1{fill:#4a5cff;}.cls-2{fill:url(#linear-gradient);}.cls-3{fill:#fff;}</style><linearGradient id="linear-gradient" x1="267.64" y1="-147.63" x2="25.42" y2="247.72" gradientUnits="userSpaceOnUse"><stop offset="0" stop-color="#ff1e89"/><stop offset="1" stop-color="#ffd12c"/></linearGradient></defs><g id="Layer_2" data-name="Layer 2"><g id="Layer_1-2" data-name="Layer 1"><circle class="cls-1" cx="159.67" cy="57.49" r="32.9"/><rect class="cls-2" width="319.35" height="57.19" rx="6.68"/><path class="cls-3" d="M19.34,15.42h3.23V38H19.34Z"/><path class="cls-3" d="M43.24,22.64a7.44,7.44,0,0,1,1.92,5.54V38h-3.1v-9.5a5.25,5.25,0,0,0-1.2-3.75,4.5,4.5,0,0,0-3.42-1.26,5.35,5.35,0,0,0-4,1.47A5.75,5.75,0,0,0,32,29.22V38H28.9V20.91h3V23.5a6,6,0,0,1,2.53-2,9,9,0,0,1,3.64-.71A7.08,7.08,0,0,1,43.24,22.64Z"/><path class="cls-3" d="M51,17a1.89,1.89,0,0,1-.6-1.42,2,2,0,0,1,.6-1.44,2,2,0,0,1,1.5-.6,2.1,2.1,0,0,1,1.51.57,1.87,1.87,0,0,1,.6,1.41A2,2,0,0,1,54,17a2,2,0,0,1-1.51.59A2.06,2.06,0,0,1,51,17Zm-.05,3.88H54V38H50.91Z"/><path class="cls-3" d="M62.73,37.1A8.26,8.26,0,0,1,59.51,34a8.67,8.67,0,0,1-1.16-4.5A8.71,8.71,0,0,1,59.51,25a8.23,8.23,0,0,1,3.22-3.11,9.62,9.62,0,0,1,4.67-1.11,8.9,8.9,0,0,1,4.15.94,6.67,6.67,0,0,1,2.83,2.71L72,25.92a5.31,5.31,0,0,0-2-1.84,5.76,5.76,0,0,0-2.66-.62,6.09,6.09,0,0,0-3,.75,5.33,5.33,0,0,0-2.1,2.11,7,7,0,0,0,0,6.34,5.35,5.35,0,0,0,2.1,2.12,6.2,6.2,0,0,0,3,.74A5.75,5.75,0,0,0,70,34.91a5.34,5.34,0,0,0,2-1.85l2.36,1.49a6.71,6.71,0,0,1-2.83,2.73,8.79,8.79,0,0,1-4.15,1A9.42,9.42,0,0,1,62.73,37.1Z"/><path class="cls-3" d="M78.43,17a1.92,1.92,0,0,1-.59-1.42,2,2,0,0,1,.59-1.44,2,2,0,0,1,1.51-.6,2.09,2.09,0,0,1,1.5.57,1.87,1.87,0,0,1,.6,1.41,2,2,0,0,1-.6,1.47,2,2,0,0,1-1.5.59A2.07,2.07,0,0,1,78.43,17Zm0,3.88h3.1V38h-3.1Z"/><path class="cls-3" d="M102.82,30.51H88.92a5.42,5.42,0,0,0,2,3.64,6.52,6.52,0,0,0,4.22,1.37,6.35,6.35,0,0,0,4.94-2.07l1.72,2a7.5,7.5,0,0,1-2.9,2.06,9.94,9.94,0,0,1-3.86.72,10.2,10.2,0,0,1-4.82-1.12A7.86,7.86,0,0,1,87,34a8.86,8.86,0,0,1-1.15-4.52A9.15,9.15,0,0,1,86.93,25,8.14,8.14,0,0,1,90,21.86a8.82,8.82,0,0,1,4.42-1.11,8.64,8.64,0,0,1,4.38,1.11,7.9,7.9,0,0,1,3,3.12,9.54,9.54,0,0,1,1.08,4.59C102.88,29.81,102.86,30.12,102.82,30.51ZM90.68,24.73a5.46,5.46,0,0,0-1.76,3.55h11a5.53,5.53,0,0,0-1.76-3.54,5.79,5.79,0,0,0-7.47,0Z"/><path class="cls-3" d="M116.75,37.67a9,9,0,0,1-3-1.44L115,33.77a9.48,9.48,0,0,0,2.75,1.3,11.46,11.46,0,0,0,3.27.48q4.07,0,4.07-2.32a1.49,1.49,0,0,0-.55-1.23,3.66,3.66,0,0,0-1.37-.67c-.55-.14-1.33-.29-2.35-.46a23.23,23.23,0,0,1-3.37-.75,5.12,5.12,0,0,1-2.25-1.42,3.93,3.93,0,0,1-.94-2.81,4.39,4.39,0,0,1,1.94-3.73,8.66,8.66,0,0,1,5.2-1.41,14.31,14.31,0,0,1,3.43.42,9.29,9.29,0,0,1,2.81,1.13l-1.32,2.46a8.88,8.88,0,0,0-4.95-1.36,5.71,5.71,0,0,0-3,.65,2,2,0,0,0-1,1.71,1.64,1.64,0,0,0,.58,1.32,3.62,3.62,0,0,0,1.44.72c.57.15,1.38.32,2.41.51a27,27,0,0,1,3.35.76,5,5,0,0,1,2.18,1.38,3.82,3.82,0,0,1,.9,2.71,4.27,4.27,0,0,1-2,3.7,9.34,9.34,0,0,1-5.41,1.38A14.24,14.24,0,0,1,116.75,37.67Z"/><path class="cls-3" d="M148,20.91V38H145.1V35.46a6.32,6.32,0,0,1-2.48,2,7.77,7.77,0,0,1-3.34.73,7.43,7.43,0,0,1-5.4-1.9,7.37,7.37,0,0,1-2-5.57V20.91H135v9.5a5.32,5.32,0,0,0,1.2,3.77,4.46,4.46,0,0,0,3.42,1.28A5.12,5.12,0,0,0,143.51,34a5.82,5.82,0,0,0,1.42-4.2V20.91Z"/><path class="cls-3" d="M165.63,22.5a6.72,6.72,0,0,1,1.89,5.2V38h-2.94V35.78a4.84,4.84,0,0,1-2.21,1.83,8.65,8.65,0,0,1-3.41.63,7.2,7.2,0,0,1-4.61-1.39,4.79,4.79,0,0,1-.08-7.29q1.65-1.38,5.24-1.38h4.91v-.61a4,4,0,0,0-1.16-3.07,4.93,4.93,0,0,0-3.43-1.07,9.17,9.17,0,0,0-3,.5,7.82,7.82,0,0,0-2.46,1.34L153.11,23a9.24,9.24,0,0,1,3.17-1.63,13.16,13.16,0,0,1,3.91-.57A7.7,7.7,0,0,1,165.63,22.5Zm-3.08,12.55a4.58,4.58,0,0,0,1.87-2.24v-2.4h-4.78c-2.63,0-3.94.89-3.94,2.65a2.38,2.38,0,0,0,1,2,4.55,4.55,0,0,0,2.78.74A5.75,5.75,0,0,0,162.55,35.05Z"/><path class="cls-3" d="M177.67,44.25a4.4,4.4,0,0,1-1.61-.78l1-2.39a3.81,3.81,0,0,0,2.52.81,2.39,2.39,0,0,0,1.89-.76,3.36,3.36,0,0,0,.66-2.25v-18h3.11V38.82A5.88,5.88,0,0,1,183.81,43a5.26,5.26,0,0,1-4,1.52A8.27,8.27,0,0,1,177.67,44.25ZM182.18,17a1.88,1.88,0,0,1-.59-1.42,2,2,0,0,1,.59-1.44,2,2,0,0,1,1.51-.6,2.09,2.09,0,0,1,1.5.57,1.87,1.87,0,0,1,.6,1.41,2,2,0,0,1-.6,1.47,2,2,0,0,1-1.5.59A2.07,2.07,0,0,1,182.18,17Z"/><path class="cls-3" d="M193.9,37.1A8.09,8.09,0,0,1,190.72,34a8.76,8.76,0,0,1-1.15-4.5A8.8,8.8,0,0,1,190.72,25a8.06,8.06,0,0,1,3.18-3.11,9.45,9.45,0,0,1,4.59-1.11,9.31,9.31,0,0,1,4.57,1.11A8.17,8.17,0,0,1,206.23,25a9.4,9.4,0,0,1,0,9,8.19,8.19,0,0,1-3.17,3.12,9.12,9.12,0,0,1-4.57,1.14A9.25,9.25,0,0,1,193.9,37.1Zm7.55-2.34a5.39,5.39,0,0,0,2.05-2.13,7.1,7.1,0,0,0,0-6.31,5.27,5.27,0,0,0-2.05-2.11,6.22,6.22,0,0,0-5.92,0,5.39,5.39,0,0,0-2.07,2.11,6.93,6.93,0,0,0,0,6.31,5.51,5.51,0,0,0,2.07,2.13,6.14,6.14,0,0,0,5.92,0Z"/><path class="cls-3" d="M217,21.53a8.66,8.66,0,0,1,3.85-.78v3a4.53,4.53,0,0,0-.71,0,5.17,5.17,0,0,0-4,1.51,5.94,5.94,0,0,0-1.44,4.28V38h-3.1V20.91h3v2.88A5.24,5.24,0,0,1,217,21.53Z"/><path class="cls-3" d="M239,22.64A7.41,7.41,0,0,1,241,28.18V38h-3.11v-9.5a5.25,5.25,0,0,0-1.19-3.75,4.51,4.51,0,0,0-3.43-1.26,5.33,5.33,0,0,0-4,1.47,5.75,5.75,0,0,0-1.46,4.22V38h-3.1V20.91h3V23.5a6.05,6.05,0,0,1,2.54-2,9,9,0,0,1,3.64-.71A7.07,7.07,0,0,1,239,22.64Z"/><path class="cls-3" d="M258.39,22.5a6.69,6.69,0,0,1,1.9,5.2V38h-2.94V35.78a4.92,4.92,0,0,1-2.22,1.83,8.65,8.65,0,0,1-3.41.63,7.2,7.2,0,0,1-4.61-1.39,4.79,4.79,0,0,1-.08-7.29q1.65-1.38,5.24-1.38h4.91v-.61A3.93,3.93,0,0,0,256,24.5a4.93,4.93,0,0,0-3.43-1.07,9.17,9.17,0,0,0-3,.5,7.82,7.82,0,0,0-2.46,1.34L245.87,23A9.24,9.24,0,0,1,249,21.32a13.16,13.16,0,0,1,3.91-.57A7.7,7.7,0,0,1,258.39,22.5Zm-3.08,12.55a4.53,4.53,0,0,0,1.87-2.24v-2.4H252.4c-2.63,0-3.94.89-3.94,2.65a2.38,2.38,0,0,0,1,2,4.55,4.55,0,0,0,2.78.74A5.75,5.75,0,0,0,255.31,35.05Z"/><path class="cls-3" d="M282.3,14.06V38h-3V35.33a6.71,6.71,0,0,1-2.62,2.16,8,8,0,0,1-3.49.75,9,9,0,0,1-4.46-1.1,7.89,7.89,0,0,1-3.08-3.09,9.1,9.1,0,0,1-1.12-4.57,9,9,0,0,1,1.12-4.56,7.9,7.9,0,0,1,3.08-3.07,9,9,0,0,1,4.46-1.1,8.3,8.3,0,0,1,3.4.69,6.64,6.64,0,0,1,2.58,2.06V14.06Zm-5.89,20.7a5.24,5.24,0,0,0,2.07-2.13,7,7,0,0,0,0-6.31,5.13,5.13,0,0,0-2.07-2.11,6.18,6.18,0,0,0-5.9,0,5.3,5.3,0,0,0-2.06,2.11,6.93,6.93,0,0,0,0,6.31,5.41,5.41,0,0,0,2.06,2.13,6.11,6.11,0,0,0,5.9,0Z"/><path class="cls-3" d="M299.86,22.5a6.72,6.72,0,0,1,1.89,5.2V38h-2.94V35.78a4.89,4.89,0,0,1-2.21,1.83,8.65,8.65,0,0,1-3.41.63,7.18,7.18,0,0,1-4.61-1.39,4.78,4.78,0,0,1-.08-7.29q1.65-1.38,5.24-1.38h4.91v-.61a4,4,0,0,0-1.16-3.07,4.93,4.93,0,0,0-3.43-1.07,9.17,9.17,0,0,0-3,.5,7.82,7.82,0,0,0-2.46,1.34L287.34,23a9.24,9.24,0,0,1,3.17-1.63,13.11,13.11,0,0,1,3.91-.57A7.7,7.7,0,0,1,299.86,22.5Zm-3.09,12.55a4.55,4.55,0,0,0,1.88-2.24v-2.4h-4.78c-2.63,0-3.95.89-3.95,2.65a2.39,2.39,0,0,0,1,2,4.51,4.51,0,0,0,2.77.74A5.73,5.73,0,0,0,296.77,35.05Z"/><path class="cls-3" d="M144.63,64.66a1.49,1.49,0,0,1,.43-1,1.45,1.45,0,0,1,2.06,0l12.55,12.56,12.56-12.56a1.46,1.46,0,1,1,2.06,2.06L160.7,79.27a1.44,1.44,0,0,1-2,0L145.06,65.69A1.49,1.49,0,0,1,144.63,64.66Z"/><path class="cls-3" d="M143,64.66a3.11,3.11,0,0,1,.91-2.21,3.15,3.15,0,0,1,4.43,0l11.37,11.38L171,62.44a3.14,3.14,0,0,1,4.44,4.43L161.89,80.46a3.14,3.14,0,0,1-4.43,0L143.87,66.87A3.11,3.11,0,0,1,143,64.66Zm30.14-.16-.87-.87Z"/></g></g></svg>