<svg xmlns="http://www.w3.org/2000/svg" viewBox="0 0 231.79 79.17"><g id="Layer_2" data-name="Layer 2"><g id="Layer_1-2" data-name="Layer 1"><path d="M74.68,51.24a5,5,0,0,1-2.2-2,5.8,5.8,0,0,1-.76-3,8.57,8.57,0,0,1,1-4.15,7.72,7.72,0,0,1,2.93-3A8.59,8.59,0,0,1,80.08,38a7.84,7.84,0,0,1,2.92.52A4.39,4.39,0,0,1,85,40l-1,.9a4.86,4.86,0,0,0-4-1.6,6.79,6.79,0,0,0-3.57.93A6.38,6.38,0,0,0,74,42.73a7.16,7.16,0,0,0-.84,3.45,4.23,4.23,0,0,0,1.32,3.27,5.38,5.38,0,0,0,3.77,1.22A6,6,0,0,0,82.6,49l.85,1a5.92,5.92,0,0,1-2.3,1.45,8.66,8.66,0,0,1-3,.51A7.7,7.7,0,0,1,74.68,51.24Z" transform="translate(-0.16)"/><path d="M88.39,37.3h1.39l-2.9,14.54H85.49Z" transform="translate(-0.16)"/><path d="M92.8,41.53h1.39l-2,10.31H90.76ZM93.41,39a.92.92,0,0,1-.26-.64,1,1,0,0,1,.3-.76,1.07,1.07,0,0,1,.78-.3.92.92,0,0,1,.68.26.82.82,0,0,1,.28.62,1.06,1.06,0,0,1-.32.78,1,1,0,0,1-.78.32A.9.9,0,0,1,93.41,39Z" transform="translate(-0.16)"/><path d="M107.5,41.53l-2.82,14.11h-1.4l1.06-5.35a4.77,4.77,0,0,1-1.72,1.23,5.64,5.64,0,0,1-2.2.42,5,5,0,0,1-2.33-.53,3.82,3.82,0,0,1-1.59-1.52,4.56,4.56,0,0,1-.57-2.32,6.43,6.43,0,0,1,.76-3.14,5.55,5.55,0,0,1,2.09-2.18,5.67,5.67,0,0,1,3-.8,4.8,4.8,0,0,1,2.5.61,3.47,3.47,0,0,1,1.46,1.72l.46-2.25ZM103,50.09a4.32,4.32,0,0,0,1.6-1.73,5.33,5.33,0,0,0,.58-2.48,3.1,3.1,0,0,0-.9-2.36,3.44,3.44,0,0,0-2.5-.85,4.34,4.34,0,0,0-2.29.62A4.41,4.41,0,0,0,97.9,45a5.33,5.33,0,0,0-.58,2.48,3.05,3.05,0,0,0,.9,2.35,3.48,3.48,0,0,0,2.5.84A4.34,4.34,0,0,0,103,50.09Z" transform="translate(-0.16)"/><path d="M120.67,41.53l-2.06,10.31h-1.33l.33-1.64a4.89,4.89,0,0,1-4,1.74,3.85,3.85,0,0,1-2.69-.89,3.2,3.2,0,0,1-1-2.48,6,6,0,0,1,.12-1.16l1.17-5.88h1.39l-1.17,5.88a5,5,0,0,0-.1.92,2.27,2.27,0,0,0,.66,1.75,2.82,2.82,0,0,0,2,.61,4,4,0,0,0,2.72-.93,4.66,4.66,0,0,0,1.45-2.68l1.1-5.55Z" transform="translate(-0.16)"/><path d="M123.81,47.08a2.25,2.25,0,0,0,0,.41,3.07,3.07,0,0,0,.89,2.39,3.78,3.78,0,0,0,2.66.82,5.26,5.26,0,0,0,1.91-.34,3.86,3.86,0,0,0,1.46-1l.62,1a4.94,4.94,0,0,1-1.81,1.13,6.51,6.51,0,0,1-2.3.4,5,5,0,0,1-3.52-1.18,4.11,4.11,0,0,1-1.28-3.21,6.59,6.59,0,0,1,.73-3.12,5.53,5.53,0,0,1,5-3,4.52,4.52,0,0,1,3.27,1.17,4.23,4.23,0,0,1,1.22,3.2,6.64,6.64,0,0,1-.14,1.26Zm1.62-3.53A4.63,4.63,0,0,0,123.94,46h7.36c0-.09,0-.22,0-.37a2.87,2.87,0,0,0-.88-2.25,3.38,3.38,0,0,0-2.35-.79A4,4,0,0,0,125.43,43.55Z" transform="translate(-0.16)"/><path d="M149.28,42.34a3.18,3.18,0,0,1,1,2.46,6.3,6.3,0,0,1-.12,1.18L149,51.84h-1.4L148.74,46a5,5,0,0,0,.1-.94,2.19,2.19,0,0,0-.68-1.72,3,3,0,0,0-2-.59,4.08,4.08,0,0,0-2.74.91A4.63,4.63,0,0,0,142,46.31l-1.1,5.53h-1.39l2-10.31h1.33l-.33,1.65a5,5,0,0,1,4-1.73A3.89,3.89,0,0,1,149.28,42.34Z" transform="translate(-0.16)"/><path d="M154.92,51.4a3.86,3.86,0,0,1-1.64-1.53,4.44,4.44,0,0,1-.58-2.3,6.43,6.43,0,0,1,.77-3.14,5.56,5.56,0,0,1,2.12-2.18,6,6,0,0,1,3.07-.8,4.79,4.79,0,0,1,3.42,1.18,4.12,4.12,0,0,1,1.26,3.17,6.44,6.44,0,0,1-.76,3.15,5.63,5.63,0,0,1-2.13,2.2,6.06,6.06,0,0,1-3.06.79A5.32,5.32,0,0,1,154.92,51.4Zm4.86-1.31a4.23,4.23,0,0,0,1.59-1.73,5.21,5.21,0,0,0,.58-2.48,3.1,3.1,0,0,0-.89-2.36,3.46,3.46,0,0,0-2.5-.85,4.34,4.34,0,0,0-2.29.62,4.41,4.41,0,0,0-1.6,1.74,5.33,5.33,0,0,0-.58,2.48,3.08,3.08,0,0,0,.89,2.35,3.52,3.52,0,0,0,2.5.84A4.37,4.37,0,0,0,159.78,50.09Z" transform="translate(-0.16)"/><path d="M179.62,42a3.82,3.82,0,0,1,1.6,1.51,4.52,4.52,0,0,1,.57,2.31A6.55,6.55,0,0,1,181,49a5.67,5.67,0,0,1-2.09,2.2,5.84,5.84,0,0,1-3,.79,4.83,4.83,0,0,1-2.47-.58A3.3,3.3,0,0,1,172,49.69l-1.18,6h-1.39l2.8-14.11h1.34l-.34,1.65A5.12,5.12,0,0,1,175,41.89a5.68,5.68,0,0,1,2.25-.44A5,5,0,0,1,179.62,42Zm-1.41,8.11a4.26,4.26,0,0,0,1.59-1.72,5.2,5.2,0,0,0,.58-2.49,3.14,3.14,0,0,0-.89-2.36,3.48,3.48,0,0,0-2.5-.85A4.19,4.19,0,0,0,173.12,45a5.27,5.27,0,0,0-.58,2.5,3,3,0,0,0,.89,2.35,3.5,3.5,0,0,0,2.5.84A4.28,4.28,0,0,0,178.21,50.09Z" transform="translate(-0.16)"/><path d="M186.42,37.3h1.39l-2.9,14.54h-1.39Z" transform="translate(-0.16)"/><path d="M200.26,41.53,198.2,51.84h-1.34l.34-1.63a5.22,5.22,0,0,1-1.77,1.28,5.51,5.51,0,0,1-2.25.45,5,5,0,0,1-2.33-.53,3.82,3.82,0,0,1-1.59-1.52,4.56,4.56,0,0,1-.57-2.32,6.53,6.53,0,0,1,.75-3.14,5.62,5.62,0,0,1,2.09-2.18,5.71,5.71,0,0,1,3-.8A4.91,4.91,0,0,1,197,42a3.36,3.36,0,0,1,1.45,1.66l.43-2.16Zm-4.49,8.56a4.23,4.23,0,0,0,1.59-1.73,5.21,5.21,0,0,0,.58-2.48,3.1,3.1,0,0,0-.89-2.36,3.46,3.46,0,0,0-2.5-.85,4.34,4.34,0,0,0-2.29.62,4.41,4.41,0,0,0-1.6,1.74,5.21,5.21,0,0,0-.58,2.48,3.08,3.08,0,0,0,.89,2.35,3.52,3.52,0,0,0,2.5.84A4.37,4.37,0,0,0,195.77,50.09Z" transform="translate(-0.16)"/><path d="M212.8,41.53l-7.53,11.64a6.88,6.88,0,0,1-1.76,2,3.35,3.35,0,0,1-2,.56,4.09,4.09,0,0,1-1.41-.24,2.48,2.48,0,0,1-1-.68l.74-1a2.4,2.4,0,0,0,1.83.75,2.13,2.13,0,0,0,1.23-.38A4.27,4.27,0,0,0,204,52.88l.72-1.1L202.2,41.53h1.41l2.13,8.78,5.63-8.78Z" transform="translate(-0.16)"/><path d="M213.7,47.08a3.81,3.81,0,0,0,0,.41,3.1,3.1,0,0,0,.89,2.39,3.8,3.8,0,0,0,2.66.82,5.22,5.22,0,0,0,1.91-.34,3.78,3.78,0,0,0,1.46-1l.63,1a5,5,0,0,1-1.81,1.13,6.6,6.6,0,0,1-2.31.4,5,5,0,0,1-3.52-1.18,4.14,4.14,0,0,1-1.28-3.21,6.59,6.59,0,0,1,.74-3.12,5.47,5.47,0,0,1,2-2.18,5.53,5.53,0,0,1,2.93-.8,4.52,4.52,0,0,1,3.28,1.17,4.22,4.22,0,0,1,1.21,3.2,6.57,6.57,0,0,1-.13,1.26Zm1.63-3.53A4.57,4.57,0,0,0,213.84,46h7.35a3.41,3.41,0,0,0,0-.37,2.87,2.87,0,0,0-.88-2.25,3.38,3.38,0,0,0-2.35-.79A4,4,0,0,0,215.33,43.55Z" transform="translate(-0.16)"/><path d="M229,41.93a6,6,0,0,1,2.51-.48l-.25,1.35-.4,0a3.93,3.93,0,0,0-2.73,1,5,5,0,0,0-1.44,2.86l-1,5.23h-1.39l2-10.31h1.33l-.35,1.88A4.22,4.22,0,0,1,229,41.93Z" transform="translate(-0.16)"/><path d="M10.32,65.5A3.89,3.89,0,0,1,11.92,67a4.56,4.56,0,0,1,.57,2.32,6.54,6.54,0,0,1-.76,3.14,5.54,5.54,0,0,1-2.09,2.2,5.69,5.69,0,0,1-3,.79,4.8,4.8,0,0,1-2.47-.58,3.36,3.36,0,0,1-1.46-1.67l-1.17,6H.16L3,65.05H4.29L4,66.7a4.93,4.93,0,0,1,1.76-1.28A5.53,5.53,0,0,1,8,65,5.1,5.1,0,0,1,10.32,65.5ZM8.91,73.61a4.34,4.34,0,0,0,1.59-1.72,5.31,5.31,0,0,0,.58-2.48,3.11,3.11,0,0,0-.9-2.37,3.44,3.44,0,0,0-2.5-.85,4.28,4.28,0,0,0-2.28.62,4.34,4.34,0,0,0-1.59,1.72A5.39,5.39,0,0,0,3.23,71a3.05,3.05,0,0,0,.9,2.35,3.44,3.44,0,0,0,2.5.85A4.28,4.28,0,0,0,8.91,73.61Z" transform="translate(-0.16)"/><path d="M25.68,65.05,23.62,75.36H22.29l.33-1.62A5.15,5.15,0,0,1,20.86,75a5.53,5.53,0,0,1-2.26.45,4.91,4.91,0,0,1-2.33-.53,3.82,3.82,0,0,1-1.59-1.52,4.56,4.56,0,0,1-.57-2.32A6.43,6.43,0,0,1,14.87,68,5.62,5.62,0,0,1,17,65.77a5.68,5.68,0,0,1,3-.8,4.93,4.93,0,0,1,2.47.58,3.46,3.46,0,0,1,1.45,1.66l.43-2.16Zm-4.49,8.56a4.32,4.32,0,0,0,1.6-1.73,5.29,5.29,0,0,0,.58-2.47,3.11,3.11,0,0,0-.9-2.37,3.44,3.44,0,0,0-2.5-.85,4.29,4.29,0,0,0-2.29.63,4.38,4.38,0,0,0-1.6,1.73A5.36,5.36,0,0,0,15.5,71a3.05,3.05,0,0,0,.9,2.35,3.44,3.44,0,0,0,2.5.85A4.34,4.34,0,0,0,21.19,73.61Z" transform="translate(-0.16)"/><path d="M32.25,65.45a5.9,5.9,0,0,1,2.5-.48l-.25,1.36-.39,0a4,4,0,0,0-2.74,1,5,5,0,0,0-1.44,2.86l-1,5.23H27.5l2-10.31h1.33l-.35,1.89A4.27,4.27,0,0,1,32.25,65.45Z" transform="translate(-0.16)"/><path d="M46.57,65.05l-2,10.31H43.18l.34-1.62A5.19,5.19,0,0,1,41.75,75a5.51,5.51,0,0,1-2.25.45,4.85,4.85,0,0,1-2.33-.53,3.82,3.82,0,0,1-1.59-1.52A4.56,4.56,0,0,1,35,71.09,6.53,6.53,0,0,1,35.76,68a5.68,5.68,0,0,1,5.07-3,4.93,4.93,0,0,1,2.47.58,3.36,3.36,0,0,1,1.45,1.66l.43-2.16Zm-4.48,8.56a4.23,4.23,0,0,0,1.59-1.73,5.17,5.17,0,0,0,.58-2.47A3.14,3.14,0,0,0,43.37,67a3.48,3.48,0,0,0-2.5-.85,4.26,4.26,0,0,0-2.29.63A4.31,4.31,0,0,0,37,68.55,5.24,5.24,0,0,0,36.4,71a3.08,3.08,0,0,0,.89,2.35,3.48,3.48,0,0,0,2.5.85A4.38,4.38,0,0,0,42.09,73.61Z" transform="translate(-0.16)"/><path d="M55.65,74.92A3.91,3.91,0,0,1,54,73.39a4.51,4.51,0,0,1-.57-2.3A6.43,6.43,0,0,1,54.2,68a5.65,5.65,0,0,1,2.13-2.18,5.94,5.94,0,0,1,3.06-.8,4.83,4.83,0,0,1,3.42,1.18,4.11,4.11,0,0,1,1.27,3.18,6.43,6.43,0,0,1-.77,3.14,5.48,5.48,0,0,1-2.12,2.2,6,6,0,0,1-3.07.79A5.38,5.38,0,0,1,55.65,74.92Zm4.86-1.31a4.32,4.32,0,0,0,1.6-1.73,5.29,5.29,0,0,0,.58-2.47A3.14,3.14,0,0,0,61.8,67a3.48,3.48,0,0,0-2.5-.85,4.28,4.28,0,0,0-3.89,2.36A5.24,5.24,0,0,0,54.83,71a3,3,0,0,0,.89,2.35,3.46,3.46,0,0,0,2.5.85A4.34,4.34,0,0,0,60.51,73.61Z" transform="translate(-0.16)"/><path d="M77.17,65.05l-2,10.31H73.78l.34-1.64a4.92,4.92,0,0,1-4,1.74,3.87,3.87,0,0,1-2.7-.89,3.18,3.18,0,0,1-1-2.48,6,6,0,0,1,.12-1.16l1.17-5.88h1.4L68,70.93a6.17,6.17,0,0,0-.1.93,2.25,2.25,0,0,0,.66,1.74,2.83,2.83,0,0,0,2,.61,4,4,0,0,0,2.72-.92,4.63,4.63,0,0,0,1.45-2.69l1.1-5.55Z" transform="translate(-0.16)"/><path d="M89.74,65.05,83.11,75.36H81.68L79.13,65.05h1.4l2.13,8.8,5.63-8.8Z" transform="translate(-0.16)"/><path d="M91.68,65.05h1.39L91,75.36H89.64Zm.62-2.53a.87.87,0,0,1-.27-.64,1,1,0,0,1,.31-.76,1,1,0,0,1,.77-.3,1,1,0,0,1,.69.26.86.86,0,0,1,.27.62,1.08,1.08,0,0,1-.31.79,1.1,1.1,0,0,1-.79.31A.86.86,0,0,1,92.3,62.52Z" transform="translate(-0.16)"/><path d="M99.66,65.45a6,6,0,0,1,2.51-.48l-.26,1.36-.39,0a3.92,3.92,0,0,0-2.73,1,5,5,0,0,0-1.45,2.86l-1,5.23h-1.4l2-10.31h1.34l-.36,1.89A4.27,4.27,0,0,1,99.66,65.45Z" transform="translate(-0.16)"/><path d="M110,74.92a3.86,3.86,0,0,1-1.64-1.53,4.42,4.42,0,0,1-.58-2.3,6.43,6.43,0,0,1,.77-3.14,5.62,5.62,0,0,1,2.12-2.18,6,6,0,0,1,3.07-.8,4.83,4.83,0,0,1,3.42,1.18,4.15,4.15,0,0,1,1.27,3.18,6.43,6.43,0,0,1-.77,3.14,5.57,5.57,0,0,1-2.13,2.2,5.94,5.94,0,0,1-3.06.79A5.35,5.35,0,0,1,110,74.92Zm4.86-1.31a4.23,4.23,0,0,0,1.59-1.73,5.17,5.17,0,0,0,.58-2.47,3.11,3.11,0,0,0-.89-2.37,3.46,3.46,0,0,0-2.5-.85,4.26,4.26,0,0,0-2.29.63,4.38,4.38,0,0,0-1.6,1.73A5.36,5.36,0,0,0,109.2,71a3.08,3.08,0,0,0,.89,2.35,3.48,3.48,0,0,0,2.5.85A4.38,4.38,0,0,0,114.89,73.61Z" transform="translate(-0.16)"/><path d="M136.8,65.05l-2.06,10.31h-1.33l.33-1.62A5.06,5.06,0,0,1,132,75a5.51,5.51,0,0,1-2.25.45,4.92,4.92,0,0,1-2.34-.53,3.74,3.74,0,0,1-1.58-1.52,4.56,4.56,0,0,1-.57-2.32A6.53,6.53,0,0,1,126,68a5.68,5.68,0,0,1,5.07-3,4.93,4.93,0,0,1,2.47.58A3.36,3.36,0,0,1,135,67.21l.43-2.16Zm-4.49,8.56a4.25,4.25,0,0,0,1.6-1.73,5.17,5.17,0,0,0,.58-2.47A3.14,3.14,0,0,0,133.6,67a3.48,3.48,0,0,0-2.5-.85,4.24,4.24,0,0,0-2.29.63,4.31,4.31,0,0,0-1.6,1.73,5.24,5.24,0,0,0-.58,2.48,3.08,3.08,0,0,0,.89,2.35,3.48,3.48,0,0,0,2.5.85A4.34,4.34,0,0,0,132.31,73.61Z" transform="translate(-0.16)"/><path d="M150,65.05l-2.06,10.31h-1.34l.34-1.64a4.92,4.92,0,0,1-4,1.74,3.87,3.87,0,0,1-2.7-.89,3.22,3.22,0,0,1-1-2.48,6,6,0,0,1,.12-1.16l1.18-5.88H142l-1.18,5.88a6.17,6.17,0,0,0-.1.93,2.25,2.25,0,0,0,.66,1.74,2.85,2.85,0,0,0,2,.61,4.08,4.08,0,0,0,2.73-.92,4.75,4.75,0,0,0,1.45-2.69l1.09-5.55Z" transform="translate(-0.16)"/><path d="M164.13,60.82l-2.9,14.54h-1.34l.34-1.62A5.19,5.19,0,0,1,158.46,75a5.51,5.51,0,0,1-2.25.45,4.88,4.88,0,0,1-2.33-.53,3.82,3.82,0,0,1-1.59-1.52,4.56,4.56,0,0,1-.57-2.32,6.53,6.53,0,0,1,.75-3.14,5.68,5.68,0,0,1,5.07-3,4.92,4.92,0,0,1,2.46.58,3.38,3.38,0,0,1,1.46,1.66l1.28-6.39ZM158.8,73.61a4.23,4.23,0,0,0,1.59-1.73,5.17,5.17,0,0,0,.58-2.47,3.14,3.14,0,0,0-.89-2.37,3.46,3.46,0,0,0-2.5-.85,4.26,4.26,0,0,0-2.29.63,4.38,4.38,0,0,0-1.6,1.73,5.24,5.24,0,0,0-.58,2.48,3.08,3.08,0,0,0,.89,2.35,3.48,3.48,0,0,0,2.5.85A4.38,4.38,0,0,0,158.8,73.61Z" transform="translate(-0.16)"/><path d="M167.15,65.05h1.39l-2,10.31h-1.39Zm.61-2.53a.9.9,0,0,1-.26-.64,1.06,1.06,0,0,1,.3-.76,1.07,1.07,0,0,1,.78-.3,1,1,0,0,1,.68.26.83.83,0,0,1,.28.62,1.08,1.08,0,0,1-1.1,1.1A.9.9,0,0,1,167.76,62.52Z" transform="translate(-0.16)"/><path d="M172.5,74.92a3.91,3.91,0,0,1-1.64-1.53,4.51,4.51,0,0,1-.58-2.3,6.43,6.43,0,0,1,.77-3.14,5.69,5.69,0,0,1,2.12-2.18,6,6,0,0,1,3.07-.8,4.83,4.83,0,0,1,3.42,1.18,4.11,4.11,0,0,1,1.27,3.18,6.43,6.43,0,0,1-.77,3.14,5.61,5.61,0,0,1-2.12,2.2,6,6,0,0,1-3.07.79A5.35,5.35,0,0,1,172.5,74.92Zm4.86-1.31a4.32,4.32,0,0,0,1.6-1.73,5.29,5.29,0,0,0,.58-2.47,3.11,3.11,0,0,0-.9-2.37,3.44,3.44,0,0,0-2.5-.85,4.26,4.26,0,0,0-2.29.63,4.38,4.38,0,0,0-1.6,1.73,5.36,5.36,0,0,0-.58,2.48,3.05,3.05,0,0,0,.9,2.35,3.44,3.44,0,0,0,2.5.85A4.34,4.34,0,0,0,177.36,73.61Z" transform="translate(-0.16)"/><path d="M192.07,65.5a3.89,3.89,0,0,1,1.6,1.51,4.56,4.56,0,0,1,.57,2.32,6.54,6.54,0,0,1-.76,3.14,5.54,5.54,0,0,1-2.09,2.2,5.69,5.69,0,0,1-3,.79,4.7,4.7,0,0,1-2.5-.61,3.26,3.26,0,0,1-1.44-1.74L184,75.36h-1.33l2.9-14.54H187l-1.15,5.78a5.08,5.08,0,0,1,1.73-1.2,5.38,5.38,0,0,1,2.19-.43A5.1,5.1,0,0,1,192.07,65.5Zm-1.41,8.11a4.34,4.34,0,0,0,1.59-1.72,5.31,5.31,0,0,0,.58-2.48,3.11,3.11,0,0,0-.9-2.37,3.44,3.44,0,0,0-2.5-.85,4.28,4.28,0,0,0-2.28.62,4.34,4.34,0,0,0-1.59,1.72A5.39,5.39,0,0,0,185,71a3.05,3.05,0,0,0,.9,2.35,3.44,3.44,0,0,0,2.5.85A4.28,4.28,0,0,0,190.66,73.61Z" transform="translate(-0.16)"/><path d="M198.08,74.92a3.91,3.91,0,0,1-1.64-1.53,4.51,4.51,0,0,1-.58-2.3,6.43,6.43,0,0,1,.77-3.14,5.65,5.65,0,0,1,2.13-2.18,5.94,5.94,0,0,1,3.06-.8,4.83,4.83,0,0,1,3.42,1.18,4.11,4.11,0,0,1,1.27,3.18,6.43,6.43,0,0,1-.77,3.14,5.61,5.61,0,0,1-2.12,2.2,6,6,0,0,1-3.07.79A5.35,5.35,0,0,1,198.08,74.92Zm4.86-1.31a4.32,4.32,0,0,0,1.6-1.73,5.29,5.29,0,0,0,.58-2.47,3.11,3.11,0,0,0-.9-2.37,3.43,3.43,0,0,0-2.49-.85,4.3,4.3,0,0,0-2.3.63,4.38,4.38,0,0,0-1.6,1.73,5.36,5.36,0,0,0-.57,2.48,3,3,0,0,0,.89,2.35,3.46,3.46,0,0,0,2.5.85A4.34,4.34,0,0,0,202.94,73.61Z" transform="translate(-0.16)"/><path d="M210.37,74.92a3.91,3.91,0,0,1-1.64-1.53,4.51,4.51,0,0,1-.58-2.3,6.43,6.43,0,0,1,.77-3.14,5.65,5.65,0,0,1,2.13-2.18,5.94,5.94,0,0,1,3.06-.8,4.83,4.83,0,0,1,3.42,1.18,4.11,4.11,0,0,1,1.27,3.18,6.43,6.43,0,0,1-.77,3.14,5.54,5.54,0,0,1-2.12,2.2,6,6,0,0,1-3.07.79A5.38,5.38,0,0,1,210.37,74.92Zm4.86-1.31a4.32,4.32,0,0,0,1.6-1.73,5.29,5.29,0,0,0,.58-2.47,3.11,3.11,0,0,0-.9-2.37,3.43,3.43,0,0,0-2.49-.85,4.3,4.3,0,0,0-2.3.63,4.38,4.38,0,0,0-1.6,1.73,5.36,5.36,0,0,0-.57,2.48,3,3,0,0,0,.89,2.35,3.46,3.46,0,0,0,2.5.85A4.34,4.34,0,0,0,215.23,73.61Z" transform="translate(-0.16)"/><path d="M226.5,69.31l3.71,6h-1.63l-3.18-5.21-2.88,2.23-.59,3h-1.39l2.9-14.54h1.4l-2,9.78L230,65.05h2Z" transform="translate(-0.16)"/><path d="M65.12,46A43.91,43.91,0,0,1,49,43,29,29,0,0,1,35.82,33a24.16,24.16,0,0,1-3.56-7.54,29.89,29.89,0,0,1-1.19-8.23A47.43,47.43,0,0,1,31.75,9c.27-1.35.58-2.69.88-4l1.15-4,.07,0a56.39,56.39,0,0,0-2,16.2,31.29,31.29,0,0,0,1.27,8,24,24,0,0,0,3.49,7.23,26,26,0,0,0,5.6,5.77,34.92,34.92,0,0,0,7,4A44.48,44.48,0,0,0,57,44.78,49,49,0,0,0,65.12,46Z" transform="translate(-0.16)"/><polygon points="36.75 5.32 35.87 5.79 33.58 1.42 29.39 4.01 28.86 3.16 33.97 0 36.75 5.32"/></g></g></svg>