<svg xmlns="http://www.w3.org/2000/svg" viewBox="0 0 344.04 564.14"><defs><style>.cls-1{opacity:0.2;}.cls-2{fill:#adff4d;}.cls-3,.cls-6{fill:#fff;}.cls-4{fill:#44d5d0;}.cls-5{fill:#b900c4;}.cls-6{opacity:0.1;}</style></defs><g id="Layer_2" data-name="Layer 2"><g id="Layer_1-2" data-name="Layer 1"><g class="cls-1"><path class="cls-2" d="M251.11,345.91,216.2,330.3a1,1,0,0,1-.59-.75l-6-34.11a1,1,0,0,1,.38-1,1,1,0,0,1,1-.12L246,310a1,1,0,0,1,.58.75l6,34.11a1,1,0,0,1-.37,1,.91.91,0,0,1-.44.19A1,1,0,0,1,251.11,345.91ZM211.94,297l5.57,31.7,32.69,14.62-5.57-31.7Z"/><path class="cls-2" d="M251.21,346a1,1,0,0,1-.68-.79l-6-34.1a1,1,0,0,1,.29-.9l27.51-26.58a1,1,0,0,1,1-.24,1,1,0,0,1,.68.79l6,34.1a1,1,0,0,1-.29.9l-27.51,26.59a1,1,0,0,1-.52.26A1.07,1.07,0,0,1,251.21,346Zm21.17-59.6-25.75,24.89,5.56,31.7,25.75-24.89Z"/><path class="cls-2" d="M273.22,285.36a1,1,0,0,0,.22-1.92L237.28,267.7a1,1,0,0,0-1.12.22L209.9,294.56a1,1,0,0,0,1.44,1.42l25.77-26.15,35.52,15.46A1.11,1.11,0,0,0,273.22,285.36Z"/><path class="cls-3" d="M69.5,471.9a.61.61,0,0,0,.18,0l17.76-6.67a1,1,0,1,0-.71-1.89L69,470a1,1,0,0,0,.54,1.94Z"/><path class="cls-3" d="M34,485.25l.17-.05,17.77-6.67a1,1,0,0,0-.71-1.9l-17.77,6.68a1,1,0,0,0-.59,1.3A1,1,0,0,0,34,485.25Z"/><path class="cls-3" d="M70.63,501.89l.17-.05a1,1,0,0,0,.59-1.3l-6.67-17.77a1,1,0,0,0-1.89.71l6.67,17.77A1,1,0,0,0,70.63,501.89Z"/><path class="cls-3" d="M57.28,466.36l.18-.05a1,1,0,0,0,.59-1.3l-6.68-17.77a1,1,0,0,0-1.3-.59,1,1,0,0,0-.59,1.3l6.67,17.77A1,1,0,0,0,57.28,466.36Z"/><path class="cls-4" d="M29.74,270.61.13,217.81a1,1,0,0,1,.07-1.1,1,1,0,0,1,1-.38L63,230.57a1,1,0,0,1,.73.66,1,1,0,0,1-.18,1L31.4,270.76a1,1,0,0,1-.87.36h-.05A1,1,0,0,1,29.74,270.61ZM3,218.82l27.78,49.52,30.12-36.17Z"/><polygon class="cls-3" points="197.51 92.82 198.22 93.53 291.75 0 290.33 0 197.51 92.82"/><polygon class="cls-4" points="290.67 129.09 290.67 142.03 281.49 151.21 281.49 138.27 290.67 129.09"/><polygon class="cls-4" points="305.27 114.49 305.27 127.43 344.04 88.66 344.04 75.72 305.27 114.49"/><polygon class="cls-5" points="192.58 153.41 192.58 210.47 344.04 59.02 344.04 1.94 192.58 153.41"/><polygon class="cls-5" points="171.68 174.31 171.68 231.37 153.88 249.18 153.88 192.12 171.68 174.31"/><polygon class="cls-6" points="343.74 313.6 343.74 452.81 231.93 564.14 92.11 564.14 343.74 313.6"/></g></g></g></svg>