<svg xmlns="http://www.w3.org/2000/svg" viewBox="0 0 202.37 259.56"><defs><style>.cls-1{fill:#00dfbf;}.cls-2{fill:#d87509;}.cls-3{fill:#e0e0e0;}.cls-4{fill:#e57c13;}.cls-5{fill:#ffa631;}.cls-6{fill:#ffb052;}.cls-7{fill:#ffb65f;}.cls-8{fill:#fff;}.cls-9{fill:#ffce99;}.cls-10{fill:#ffbd76;}</style></defs><g id="Layer_2" data-name="Layer 2"><g id="Layer_1-2" data-name="Layer 1"><polygon class="cls-1" points="0 94.93 0 211.76 119.58 142.72 119.58 36.51 30.66 87.84 27.6 78.99 0 94.93"/><polygon class="cls-2" points="0 94.93 0 211.76 119.58 142.72 119.58 36.51 30.66 87.84 27.6 78.99 0 94.93"/><polygon class="cls-3" points="0 211.76 6.13 105.55 125.71 36.51 119.58 142.72 0 211.76"/><polygon class="cls-1" points="0 211.76 9.2 107.32 128.78 38.28 119.58 142.72 0 211.76"/><polygon class="cls-4" points="0 211.76 9.2 107.32 128.78 38.28 119.58 142.72 0 211.76"/><polygon class="cls-1" points="18.4 105.55 18.4 222.39 137.98 153.35 137.98 47.13 49.06 98.47 45.99 89.61 18.4 105.55"/><polygon class="cls-5" points="18.4 105.55 18.4 222.39 137.98 153.35 137.98 47.13 49.06 98.47 45.99 89.61 18.4 105.55"/><polygon class="cls-3" points="18.4 222.39 24.53 116.17 144.11 47.13 137.98 153.35 18.4 222.39"/><polygon class="cls-1" points="18.4 222.39 27.6 117.94 147.18 48.9 137.98 153.35 18.4 222.39"/><polygon class="cls-6" points="18.4 222.39 27.6 117.94 147.18 48.9 137.98 153.35 18.4 222.39"/><path class="cls-3" d="M119.58,259.56c-21.46-12.39-41.37-25.86-50.46-41.67L96.71,202Z"/><polygon class="cls-1" points="39.86 117.94 39.86 234.78 159.44 165.74 159.44 59.52 70.52 110.86 67.46 102.01 39.86 117.94"/><polygon class="cls-7" points="39.86 117.94 39.86 234.78 159.44 165.74 159.44 59.52 70.52 110.86 67.46 102.01 39.86 117.94"/><path class="cls-8" d="M74.31,152.49c-.3,0-.34-.35-.34-.56V52.27a2.53,2.53,0,0,1,1.11-1.94L161.39.51a.78.78,0,0,1,.4-.13c.3,0,.34.35.34.55v99.66a2.51,2.51,0,0,1-1.12,1.94l-86.3,49.83A.89.89,0,0,1,74.31,152.49Z"/><path class="cls-1" d="M161.74.76a.81.81,0,0,1,0,.17v99.66a2.15,2.15,0,0,1-.93,1.61L74.52,152l-.16.07a.65.65,0,0,1,0-.17V52.27a2.18,2.18,0,0,1,.93-1.61L161.58.83l.16-.07m0-.76a1.21,1.21,0,0,0-.59.18L74.9,50a2.86,2.86,0,0,0-1.31,2.26v99.66c0,.59.29.93.72.93a1.11,1.11,0,0,0,.59-.18l86.3-49.82a2.92,2.92,0,0,0,1.31-2.27V.93c0-.59-.3-.93-.72-.93Z"/><path class="cls-9" d="M161.74.76a.81.81,0,0,1,0,.17v99.66a2.15,2.15,0,0,1-.93,1.61L74.52,152l-.16.07a.65.65,0,0,1,0-.17V52.27a2.18,2.18,0,0,1,.93-1.61L161.58.83l.16-.07m0-.76a1.21,1.21,0,0,0-.59.18L74.9,50a2.86,2.86,0,0,0-1.31,2.26v99.66c0,.59.29.93.72.93a1.11,1.11,0,0,0,.59-.18l86.3-49.82a2.92,2.92,0,0,0,1.31-2.27V.93c0-.59-.3-.93-.72-.93Z"/><polygon class="cls-1" points="82.79 56.07 113.45 38.37 113.45 73.78 82.79 91.48 82.79 56.07"/><polygon class="cls-9" points="82.79 56.07 113.45 38.37 113.45 73.78 82.79 91.48 82.79 56.07"/><path class="cls-8" d="M108.85,47.22V57.84l-1,.54V55.13c0-1.8-1.46-2.41-3.27-1.37l-13,7.51a6.75,6.75,0,0,0-3.27,5.14v3.25l-1,.57V59.61Z"/><path class="cls-8" d="M102.94,74.29c-1.58.91-2.85,0-2.85-2.13v-17l-3.94,2.14V74.44a6.82,6.82,0,0,1-2.85,5.42L90.45,81.5v1.13l15.33-8.85V72.65Z"/><path class="cls-2" d="M119.58,36.6c0,1,.88,1.26,2,.64L151.35,20a4,4,0,0,0,2-2.9c0-1-.88-1.27-2-.64L121.54,33.7A3.92,3.92,0,0,0,119.58,36.6Z"/><path class="cls-2" d="M119.58,47.22c0,1,.88,1.26,2,.64l29.81-17.21a3.92,3.92,0,0,0,2-2.9c0-1-.88-1.27-2-.64L121.54,44.32A3.92,3.92,0,0,0,119.58,47.22Z"/><path class="cls-2" d="M119.58,57.84c0,1,.88,1.27,2,.64l29.81-17.21a3.92,3.92,0,0,0,2-2.9c0-1-.88-1.26-2-.64L121.54,54.94A4,4,0,0,0,119.58,57.84Z"/><path class="cls-2" d="M119.58,68.46c0,1,.88,1.27,2,.64l29.81-17.21a3.92,3.92,0,0,0,2-2.9c0-1-.88-1.26-2-.64L121.54,65.56A4,4,0,0,0,119.58,68.46Z"/><path class="cls-2" d="M82.79,100.33c0,1,.88,1.27,2,.64l66.6-38.45a4,4,0,0,0,2-2.91c0-1-.88-1.26-2-.63L84.75,97.43A4,4,0,0,0,82.79,100.33Z"/><path class="cls-2" d="M82.79,111c0,1,.88,1.26,2,.63l66.6-38.45a4,4,0,0,0,2-2.9c0-1-.88-1.27-2-.64l-66.6,38.45A4,4,0,0,0,82.79,111Z"/><path class="cls-2" d="M82.79,121.58c0,1,.88,1.26,2,.63l66.6-38.45a4,4,0,0,0,2-2.9c0-1-.88-1.27-2-.64l-66.6,38.45A4,4,0,0,0,82.79,121.58Z"/><polygon class="cls-10" points="39.86 234.78 61.32 140.95 180.91 71.91 159.44 165.74 39.86 234.78"/><polygon class="cls-1" points="69.11 148.3 69.11 217.89 96.71 201.96 96.71 132.37 69.11 148.3"/><polygon class="cls-2" points="69.11 148.3 69.11 217.89 96.71 201.96 96.71 132.37 69.11 148.3"/><path class="cls-8" d="M119.61,259.11c-2.35-1.74-25-19-36.48-43.75-12.24-26.3-12.23-57-12.23-68.52v-.36l82-47.36c0,11.65,0,42.37,12.3,68.76,11.24,24.13,33,41.23,36.46,43.85Z"/><path class="cls-1" d="M152.56,99.77c0,12.14.23,42.28,12.33,68.27,10.86,23.32,31.52,40.1,36.12,43.64l-81.37,47c-3.19-2.4-25-19.4-36.17-43.46C71.26,189,71.27,158.37,71.28,146.84v-.14l81.28-46.93m.75-1.3L70.52,146.26c0,10.86-.23,42.43,12.27,69.26,12.26,26.34,36.79,44,36.79,44l82.79-47.79s-24.53-17.71-36.79-44.05c-12.5-26.83-12.27-58.39-12.27-69.25Z"/><path class="cls-9" d="M152.56,99.77c0,12.14.23,42.28,12.33,68.27,10.86,23.32,31.52,40.1,36.12,43.64l-81.37,47c-3.19-2.4-25-19.4-36.17-43.46C71.26,189,71.27,158.37,71.28,146.84v-.14l81.28-46.93m.75-1.3L70.52,146.26c0,10.86-.23,42.43,12.27,69.26,12.26,26.34,36.79,44,36.79,44l82.79-47.79s-24.53-17.71-36.79-44.05c-12.5-26.83-12.27-58.39-12.27-69.25Z"/><path class="cls-2" d="M144,114.49l-26.18,15.12a3.7,3.7,0,0,0-1.9,2.86c0,1,.95,1.23,2,.6L144.08,118a3.72,3.72,0,0,0,1.89-2.87C145.93,114.14,145,113.87,144,114.49Z"/><path class="cls-2" d="M144.51,124.79l-26.19,15.12a3.49,3.49,0,0,0-1.82,2.82c.08.93,1,1.18,2.12.55l26.18-15.11a3.48,3.48,0,0,0,1.81-2.82C146.53,124.42,145.59,124.17,144.51,124.79Z"/><path class="cls-2" d="M145.55,134.81l-26.18,15.12a3.22,3.22,0,0,0-1.74,2.77c.13.9,1.12,1.13,2.21.5L146,138.08a3.2,3.2,0,0,0,1.72-2.76C147.61,134.41,146.64,134.19,145.55,134.81Z"/><path class="cls-2" d="M147.12,144.53l-26.18,15.11a3,3,0,0,0-1.65,2.72c.18.88,1.21,1.08,2.29.45l26.19-15.11A3,3,0,0,0,149.4,145C149.22,144.11,148.2,143.9,147.12,144.53Z"/><path class="cls-2" d="M149.25,153.92,123.07,169a2.74,2.74,0,0,0-1.55,2.66c.23.84,1.31,1,2.39.39L150.09,157a2.71,2.71,0,0,0,1.53-2.65C151.39,153.47,150.33,153.29,149.25,153.92Z"/><path class="cls-2" d="M152,163,88.16,199.81c-1.08.63-1.73,1.79-1.44,2.6s1.42,1,2.5.33L153,165.9a2.48,2.48,0,0,0,1.43-2.6C154.16,162.5,153.06,162.34,152,163Z"/><path class="cls-2" d="M155.38,171.61,91.56,208.45c-1.08.63-1.67,1.76-1.32,2.53s1.54.89,2.62.27l63.81-36.85c1.09-.62,1.67-1.75,1.31-2.52S156.46,171,155.38,171.61Z"/><path class="cls-2" d="M159.54,179.85,95.73,216.69c-1.09.63-1.63,1.73-1.2,2.46s1.67.81,2.75.18l63.81-36.84c1.09-.62,1.61-1.72,1.18-2.45S160.62,179.22,159.54,179.85Z"/><path class="cls-2" d="M164.45,187.63l-63.81,36.85c-1.09.62-1.57,1.7-1.08,2.39s1.78.74,2.87.11l63.81-36.84c1.08-.62,1.55-1.69,1.06-2.38S165.53,187,164.45,187.63Z"/><path class="cls-2" d="M170,195l-63.81,36.84c-1.09.63-1.53,1.67-1,2.33s1.88.69,3,.06L172,197.43c1.08-.63,1.5-1.66.95-2.32A2.44,2.44,0,0,0,170,195Z"/><path class="cls-2" d="M176.19,202.09l-63.81,36.85c-1.09.62-1.48,1.65-.88,2.27a2.7,2.7,0,0,0,3.06,0l63.82-36.85c1.08-.62,1.46-1.63.86-2.26A2.68,2.68,0,0,0,176.19,202.09Z"/><path class="cls-2" d="M182.93,208.83l-63.81,36.84c-1.08.63-1.43,1.63-.78,2.23a2.93,2.93,0,0,0,3.16-.06L185.31,211c1.08-.62,1.42-1.61.77-2.21A2.91,2.91,0,0,0,182.93,208.83Z"/><path class="cls-1" d="M108.28,135.09,78.17,152.47c.34,10.9,1.58,26.64,6.15,42.48l30.1-17.38C109.86,161.73,108.61,146,108.28,135.09Z"/><path class="cls-9" d="M108.28,135.09,78.17,152.47c.34,10.9,1.58,26.64,6.15,42.48l30.1-17.38C109.86,161.73,108.61,146,108.28,135.09Z"/><path class="cls-1" d="M90.45,150.05A5,5,0,0,0,89,146.23l-10.81,6.24c.09,2.88.25,6.11.51,9.57a7,7,0,0,0,4.09-.72C87,159.34,90.45,154.3,90.45,150.05Z"/><path class="cls-5" d="M90.45,150.05A5,5,0,0,0,89,146.23l-10.81,6.24c.09,2.88.25,6.11.51,9.57a7,7,0,0,0,4.09-.72C87,159.34,90.45,154.3,90.45,150.05Z"/><path class="cls-1" d="M111.87,167.15h0c-2-2.53-6.09-10.34-7.84-13.74a.75.75,0,0,0-1.39.12,82.69,82.69,0,0,0-3.27,19.82A28.69,28.69,0,0,1,93,166.24a.67.67,0,0,0-1.2.21,74.07,74.07,0,0,0-1.64,25.14h0l24.28-14C113.41,174.07,112.58,170.59,111.87,167.15Z"/><path class="cls-5" d="M111.87,167.15h0c-2-2.53-6.09-10.34-7.84-13.74a.75.75,0,0,0-1.39.12,82.69,82.69,0,0,0-3.27,19.82A28.69,28.69,0,0,1,93,166.24a.67.67,0,0,0-1.2.21,74.07,74.07,0,0,0-1.64,25.14h0l24.28-14C113.41,174.07,112.58,170.59,111.87,167.15Z"/></g></g></svg>