<svg xmlns="http://www.w3.org/2000/svg" viewBox="0 0 344.04 564.14"><defs><style>.cls-1{opacity:0.2;}.cls-2{fill:#adff4d;}.cls-3,.cls-6{fill:#fff;}.cls-4{fill:#44d5d0;}.cls-5{fill:#b900c4;}.cls-6{opacity:0.1;}</style></defs><g id="Layer_2" data-name="Layer 2"><g id="Layer_1-2" data-name="Layer 1"><g class="cls-1"><path class="cls-2" d="M92.33,346a1,1,0,0,1-.81-1.16l6-34.11a1,1,0,0,1,.58-.75L133,294.35a1,1,0,0,1,1,.12,1,1,0,0,1,.38,1l-6,34.11a1,1,0,0,1-.58.75L92.93,345.91A1,1,0,0,1,92.33,346Zm7.08-34.39-5.57,31.7,32.69-14.62L132.1,297Z"/><path class="cls-2" d="M92.33,346a1,1,0,0,1-.52-.26l-27.5-26.59a1,1,0,0,1-.3-.9l6-34.1a1,1,0,0,1,.68-.79,1,1,0,0,1,1,.24l27.51,26.58a1,1,0,0,1,.29.9l-6,34.1a1,1,0,0,1-.68.79A1.06,1.06,0,0,1,92.33,346ZM66.1,318.05l25.75,24.89,5.57-31.7L71.66,286.35Z"/><path class="cls-2" d="M70.82,285.36a1,1,0,0,1-.22-1.92l36.16-15.74a1,1,0,0,1,1.12.22l26.26,26.64A1,1,0,1,1,132.7,296l-25.77-26.15L71.41,285.29A1.1,1.1,0,0,1,70.82,285.36Z"/><path class="cls-3" d="M274.54,471.9a.48.48,0,0,1-.17,0l-17.77-6.67a1,1,0,0,1,.71-1.89L275.08,470a1,1,0,0,1-.54,1.94Z"/><path class="cls-3" d="M310.08,485.25l-.18-.05-17.77-6.67a1,1,0,0,1,.72-1.9l17.76,6.68a1,1,0,0,1,.59,1.3A1,1,0,0,1,310.08,485.25Z"/><path class="cls-3" d="M273.42,501.89l-.18-.05a1,1,0,0,1-.59-1.3l6.67-17.77a1,1,0,0,1,1.9.71l-6.68,17.77A1,1,0,0,1,273.42,501.89Z"/><path class="cls-3" d="M286.76,466.36l-.17-.05A1,1,0,0,1,286,465l6.67-17.77a1,1,0,1,1,1.89.71l-6.67,17.77A1,1,0,0,1,286.76,466.36Z"/><path class="cls-4" d="M313.56,271.12h-.05a1,1,0,0,1-.87-.36L280.53,232.2a1,1,0,0,1-.18-1,1,1,0,0,1,.73-.66l61.72-14.24a1,1,0,0,1,1,.38,1,1,0,0,1,.07,1.1l-29.61,52.8A1,1,0,0,1,313.56,271.12Zm-30.43-39,30.12,36.17L341,218.82Z"/><polygon class="cls-3" points="146.53 92.82 145.82 93.53 52.29 0 53.71 0 146.53 92.82"/><polygon class="cls-4" points="53.37 129.09 53.37 142.03 62.55 151.21 62.55 138.27 53.37 129.09"/><polygon class="cls-4" points="38.77 114.49 38.77 127.43 0 88.66 0 75.72 38.77 114.49"/><polygon class="cls-5" points="151.46 153.41 151.46 210.47 0 59.02 0 1.94 151.46 153.41"/><polygon class="cls-5" points="172.36 174.31 172.36 231.37 190.17 249.18 190.17 192.12 172.36 174.31"/><polygon class="cls-6" points="0.31 313.6 0.31 452.81 112.12 564.14 251.93 564.14 0.31 313.6"/></g></g></g></svg>