<svg xmlns="http://www.w3.org/2000/svg" xmlns:xlink="http://www.w3.org/1999/xlink" viewBox="0 0 265.87 60.56"><defs><style>.cls-1{fill:#fff;}.cls-2{fill:url(#linear-gradient);}.cls-3{opacity:0.5;fill:url(#Degradado_sin_nombre_38);}.cls-4{fill:url(#linear-gradient-2);}</style><linearGradient id="linear-gradient" x1="435.78" y1="30.28" x2="668.7" y2="30.28" gradientTransform="matrix(1, 0, -0.18, 1, -403.88, 0)" gradientUnits="userSpaceOnUse"><stop offset="0" stop-color="#1c1b7f"/><stop offset="0.34" stop-color="#1550ac"/><stop offset="1" stop-color="#09b3ff"/></linearGradient><linearGradient id="Degradado_sin_nombre_38" x1="252.66" y1="9.01" x2="202.41" y2="50.32" gradientUnits="userSpaceOnUse"><stop offset="0" stop-color="#00f0ff"/><stop offset="0.12" stop-color="#00f0ff" stop-opacity="0.82"/><stop offset="0.3" stop-color="#00f0ff" stop-opacity="0.57"/><stop offset="0.48" stop-color="#00f0ff" stop-opacity="0.37"/><stop offset="0.64" stop-color="#00f0ff" stop-opacity="0.21"/><stop offset="0.78" stop-color="#00f0ff" stop-opacity="0.09"/><stop offset="0.91" stop-color="#00f0ff" stop-opacity="0.02"/><stop offset="1" stop-color="#00f0ff" stop-opacity="0"/></linearGradient><linearGradient id="linear-gradient-2" x1="30.28" y1="4.38" x2="30.28" y2="52.12" gradientTransform="translate(30.28 -12.54) rotate(45)" xlink:href="#linear-gradient"/></defs><g id="Layer_2" data-name="Layer 2"><g id="Layer_1-2" data-name="Layer 1"><polygon class="cls-1" points="252.03 53.03 25.77 53.03 39.61 12.44 265.87 12.44 252.03 53.03"/><polygon class="cls-2" points="249.08 50.08 22.82 50.08 36.66 10.48 262.92 10.48 249.08 50.08"/><path class="cls-3" d="M241.83,50.24h-8.47l14.37-39.92h8.47Zm2.37-39.92h-8.47L221.36,50.24h8.47Zm-12,0h-8.47L209.36,50.24h8.47Zm-12,0h-8.47L197.36,50.24h8.48Z"/><path class="cls-1" d="M70.12,17.12H80.75L80,20.66H73.35L72,27.22h5.24l-.74,3.54H71.22l-1.63,7.62h6.63l-.75,3.54H64.84Z"/><path class="cls-1" d="M78,37.67a10.68,10.68,0,0,1,.24-2.2l.18-.85h3.72l-.28,1.52a5.14,5.14,0,0,0-.11,1c0,1.28.71,1.63,1.84,1.63C85.46,38.73,86,37,86,35.26c0-1.52-.63-2.94-2.16-4.71a10.05,10.05,0,0,1-2.94-6.66c0-4.08,2.41-7.13,6.49-7.13,3.5,0,5.31,1.6,5.31,4.57a11.22,11.22,0,0,1-.28,2.24L92.3,24H88.58L88.79,23a6.06,6.06,0,0,0,.11-1.06c0-1.2-.64-1.59-1.77-1.59-1.74,0-2.31,1.63-2.31,3.22,0,1.42.64,2.84,2.17,4.61,1.94,2.3,2.94,4.43,2.94,6.8,0,4.22-2.38,7.33-6.59,7.33C79.72,42.27,78,40.71,78,37.67Z"/><path class="cls-1" d="M98.29,20.66H94.21L95,17.12h12.12l-.78,3.54h-4.08l-4.5,21.26h-4Z"/><path class="cls-1" d="M104.59,37.38a9.37,9.37,0,0,1,.21-1.91l3.94-18.35h4l-4.07,19.06a4,4,0,0,0-.11.85c0,1.28.75,1.7,2,1.7s1.77-.57,2.09-2.16l4.15-19.45h3.82l-4.18,19.59c-.74,3.58-2.83,5.56-6.13,5.56S104.59,40.64,104.59,37.38Z"/><path class="cls-1" d="M123.22,17.12H129c3.26,0,5,1.59,5,4.43a9,9,0,0,1-.21,1.84l-2.66,12.54c-.85,4-2.87,6-6.77,6H118Zm1.21,21.26c1.24,0,2.27-.78,2.66-2.55l2.76-12.9a5.74,5.74,0,0,0,.11-1c0-1-.5-1.31-1.49-1.31h-2l-3.76,17.72Z"/><path class="cls-1" d="M133.18,37.28a8.46,8.46,0,0,1,.21-1.81l2.8-13.11c.78-3.65,3-5.6,6.24-5.6,3.43,0,5.73,1.7,5.73,5A8.73,8.73,0,0,1,148,23.6l-2.8,13.11c-.78,3.65-2.94,5.56-6.23,5.56S133.18,40.57,133.18,37.28Zm8-.75L144.09,23a4.22,4.22,0,0,0,.11-.88c0-1.21-.71-1.77-1.95-1.77-1,0-1.77.56-2.13,2.23l-2.87,13.57a4,4,0,0,0-.1.85c0,1.24.74,1.77,2,1.77C140.12,38.73,140.87,38.2,141.22,36.53Z"/><path class="cls-1" d="M157.55,17.12h5.74c3.26,0,5,1.59,5,4.43a8.43,8.43,0,0,1-.22,1.84l-2.65,12.54c-.86,4-2.87,6-6.77,6h-6.38Zm1.2,21.26c1.24,0,2.27-.78,2.66-2.55l2.77-12.9a5.57,5.57,0,0,0,.1-1c0-1-.49-1.31-1.49-1.31h-2L157,38.38Z"/><path class="cls-1" d="M172,17.12h10.63l-.78,3.54h-6.63l-1.38,6.56h5.25l-.75,3.54h-5.24l-1.63,7.62h6.62l-.74,3.54H166.76Z"/><path class="cls-1" d="M185.89,37.46a9.12,9.12,0,0,1,.21-1.85L189,22.22c.75-3.47,2.87-5.46,6.09-5.46,3.69,0,5.53,1.81,5.53,4.79a9,9,0,0,1-.21,1.87L200,25.48H196.2l.57-2.69a3.52,3.52,0,0,0,.1-.82c0-1.13-.74-1.66-1.88-1.66s-1.77.64-2.09,2.09l-3,13.85a3.47,3.47,0,0,0-.11.78c0,1.21.78,1.7,1.88,1.7a2.16,2.16,0,0,0,2.16-2l.78-3.86h3.72l-.81,4c-.75,3.58-2.84,5.45-6.06,5.45C187.77,42.27,185.89,40.47,185.89,37.46Z"/><path class="cls-1" d="M212.28,17.12,211,41.92h-4l.36-4.85H203l-1.7,4.85h-3.75l9.32-24.8ZM207.64,33.7l.89-12.08L204.24,33.7Z"/><path class="cls-1" d="M213.13,37.67a10.09,10.09,0,0,1,.25-2.2l.17-.85h3.72L217,36.14a5.05,5.05,0,0,0-.1,1c0,1.28.7,1.63,1.84,1.63,1.88,0,2.41-1.73,2.41-3.47,0-1.52-.64-2.94-2.17-4.71A10.05,10.05,0,0,1,216,23.89c0-4.08,2.41-7.13,6.49-7.13,3.51,0,5.31,1.6,5.31,4.57a10.53,10.53,0,0,1-.28,2.24l-.11.46h-3.72l.22-1.07a6,6,0,0,0,.1-1.06c0-1.2-.64-1.59-1.77-1.59-1.74,0-2.3,1.63-2.3,3.22,0,1.42.64,2.84,2.16,4.61,2,2.3,2.94,4.43,2.94,6.8,0,4.22-2.37,7.33-6.59,7.33C214.87,42.27,213.13,40.71,213.13,37.67Z"/><path class="cls-1" d="M226.66,37.28a8.46,8.46,0,0,1,.21-1.81l2.8-13.11c.78-3.65,3-5.6,6.24-5.6,3.44,0,5.74,1.7,5.74,5a8.73,8.73,0,0,1-.21,1.84l-2.8,13.11c-.78,3.65-2.94,5.56-6.24,5.56S226.66,40.57,226.66,37.28Zm8-.75L237.57,23a4.22,4.22,0,0,0,.11-.88c0-1.21-.71-1.77-2-1.77-1,0-1.77.56-2.12,2.23l-2.87,13.57a3.48,3.48,0,0,0-.11.85c0,1.24.74,1.77,2,1.77C233.61,38.73,234.35,38.2,234.7,36.53Z"/><rect class="cls-1" x="8.87" y="8.87" width="42.82" height="42.82" transform="translate(-12.54 30.28) rotate(-45)"/><rect class="cls-4" x="12.38" y="12.38" width="35.79" height="35.79" transform="translate(-12.54 30.28) rotate(-45)"/><path class="cls-1" d="M29.27,41.74H20a.55.55,0,0,1-.54-.55V18.54A.54.54,0,0,1,20,18H37.25a.55.55,0,0,1,.55.54v13.7a.55.55,0,0,1-.55.54.54.54,0,0,1-.54-.54V19.09H20.52V40.65h8.75a.54.54,0,0,1,.54.54A.55.55,0,0,1,29.27,41.74Z"/><path class="cls-1" d="M35.09,45.37a7,7,0,1,1,7-7A7,7,0,0,1,35.09,45.37Zm0-13A5.94,5.94,0,1,0,41,38.35,5.94,5.94,0,0,0,35.09,32.41Z"/><path class="cls-1" d="M34.1,41.27a.9.9,0,0,1-.64-.27l-2.39-2.39a.91.91,0,0,1,1.28-1.28l1.75,1.75,3.3-3.3a.92.92,0,0,1,1.29,0,.91.91,0,0,1,0,1.28L34.75,41A.91.91,0,0,1,34.1,41.27Z"/><path class="cls-1" d="M34.77,23.59H22.46a.55.55,0,0,1-.55-.54.55.55,0,0,1,.55-.55H34.77a.55.55,0,0,1,.54.55A.54.54,0,0,1,34.77,23.59Z"/><path class="cls-1" d="M34.77,27.23H22.46a.55.55,0,0,1-.55-.55.55.55,0,0,1,.55-.54H34.77a.54.54,0,0,1,.54.54A.55.55,0,0,1,34.77,27.23Z"/><path class="cls-1" d="M31.35,31.48H22.46a.55.55,0,0,1-.55-.55.55.55,0,0,1,.55-.54h8.89a.54.54,0,0,1,.54.54A.55.55,0,0,1,31.35,31.48Z"/><path class="cls-1" d="M26.9,35.51H22.46a.55.55,0,0,1-.55-.55.55.55,0,0,1,.55-.54H26.9a.55.55,0,0,1,.55.54A.55.55,0,0,1,26.9,35.51Z"/></g></g></svg>