<svg xmlns="http://www.w3.org/2000/svg" viewBox="0 0 262.44 204.99"><defs><style>.cls-1{isolation:isolate;}.cls-2{fill:#7a3b3b;}.cls-3{fill:#c65d58;}.cls-10,.cls-12,.cls-4{fill:#fff;}.cls-4{opacity:0.4;mix-blend-mode:soft-light;}.cls-5{opacity:0.05;mix-blend-mode:multiply;}.cls-6{fill:#00dfbf;}.cls-7{fill:#af4141;}.cls-8{fill:#f98a8a;}.cls-9{fill:#d36666;}.cls-11,.cls-12{opacity:0.2;}.cls-13{opacity:0.8;}.cls-14,.cls-15{fill:none;stroke:#842323;stroke-linecap:round;stroke-miterlimit:10;}.cls-14{stroke-width:0.75px;}.cls-15{stroke-width:0.71px;}</style></defs><g class="cls-1"><g id="Layer_2" data-name="Layer 2"><g id="Layer_1-2" data-name="Layer 1"><path class="cls-2" d="M181.33,85.76a53.82,53.82,0,1,1-37.87-32.44A53.83,53.83,0,0,1,181.33,85.76Z"/><path class="cls-3" d="M124.92,59.84c-2.46,0-5.61.91-3.33,2.31s3.75,1.53,3.77,3.34-1.17,3.72-.59,5,1.55,2.79,2.48,2.35,3.5-3.29,5-3.16,6.44.35,7.16-1.27,1.46-1.52,2.65-3.33,1.13-4.23-.32-4.24-1.65.61-4.08.44-3.57-1.79-5.94-1.37S126.73,59.81,124.92,59.84Z"/><path class="cls-3" d="M115.77,60.48c-2.79,1.49-8.67,3.74-11.39,3a48,48,0,0,0-4.68-1.24A54,54,0,0,0,78.89,93.66a17.68,17.68,0,0,0,2.43,3.77c2.13,2.5,4.33,2.82,7,3.34s1.85,2,3.18,3.63,1.89,2.52,3.41,3.37-.54,2.46-1.13,4.2-.76,2.72.48,6.26,4.85,6.41,5.92,7.78-.74,3-.28,5.83.32,10.49,3.07,14.77,4.4,3.78,4.18.89-1.16-5.62.51-7.78,5.07-1.6,6.22-5.56,1.89-3.78,3.72-5.13,1-2.5,2.72-5.56,2.21-6-.31-7.21-4.2-1.14-6.37-4.12a27.72,27.72,0,0,0-8.67-7.56c-3.12-1.7-8.09.37-10.08-.2s-3.24-4.35-3.11-5.81S90.47,96.73,89,97.09s-2.22-.56-2.61-2.47,2.57-4.32,5-4.5,3.71.93,4.18,4a6,6,0,0,0,4.76,5.2c2.22.56.83-1.75-.74-3.33s-1.69-3-.5-6.5,4.11-3.22,6.29-6.42,2.6-.8,4.8-.48,1.88-.87,2.69-2.87,3.61-.28,5.91-1.9-2.5-4.17-2.19-6.37,2.51-2.13,1.29-5.43.46-3.42,1.33-4.65S118.56,59,115.77,60.48Zm-3.25,8.05c-.73,1.63-1.36,1.32-2.55,3.1a6.71,6.71,0,0,1-4.26,2.93c-1.2.14-3.18-2-3.28-3.32s1.81-1.71,4-2a12.05,12.05,0,0,0,6-2.76C113.91,65.27,113.24,66.91,112.52,68.53Z"/><path class="cls-3" d="M185,101.67v.16a3.79,3.79,0,0,0-2.13,2.11c-1.23,3-1.45,1.69-4.32,3.73s-1.78,3.64-1.62,5.68-3.18,4.36-4.82,5.09-2.37,5.39-1.84,7.65-2.17,3.19-3.83,5.26-2.6,5.52-3.69,7.18a5.09,5.09,0,0,1-5,2.32c-2-.33-3.79-3.59-4.85-6.41a16.34,16.34,0,0,1-.81-9c.61-3.07.39-2.69-.34-7.47a7.63,7.63,0,0,0-6-6.69c-1.85-.47-4.91.62-6.56-.35s-2.36-2.36-3.43-6.87,1.15-5.54,2.9-8A16.86,16.86,0,0,1,147,90.23a9.12,9.12,0,0,1,7.09.91c1.89.94,2.78,3,4.12,3.2s2.5-.56,3.85-.3,2.25.92,3.56.69.48-1.72.29-2.56-1.37-.62-2.95-.63a2.29,2.29,0,0,1-2.53-1.49c-.57-1-1.47-.13-2.22-.56s-.62,1.5-.68,2.25-.65-.57-.65-.57-.65,1-.93.55.36-1.6.28-2.75-1.76-.88-2.81-1.78a4,4,0,0,0-3.91-.54c-1.41.47-1.68.13-2.31,1.38s-3.72,2.1-4.7,1.94-.29-2.16.55-3.92,2.57-1.17,3.65-2.94-.4-2-1.39-2.31-1.3-1.24-.27-3.5,2.42-1.64,3-.59a3.48,3.48,0,0,0,3.14,1.58c1.34,0,1-.93,1-2.86s.86-3,2.62-3.71,4.7-1.94,5.83-3,3.12-.36,4.17.77,3.39,1.56,5.85,2a2,2,0,0,0,1.73-.57A53.55,53.55,0,0,1,185,101.67Z"/><path class="cls-3" d="M174.94,128.16c-1.31-.23-1.19.21-2,1.24s-1.89,2.2-1.69,3.27.31,2.4,1.21,1.6.6-1.74,1.88-2.32S176.9,128.49,174.94,128.16Z"/><path class="cls-4" d="M143.21,55.17c-34.28-9.89-40.67,13.47-22.51,28.19s49.3,19.58,53.49,9.87S168.68,62.53,143.21,55.17Z"/><path class="cls-5" d="M116.77,132.72c-26.63-21.85-25.81-64.28-2.46-78h0c-1,.33-2,.68-3,1.07A53.81,53.81,0,1,0,181,126.54C173.47,137,143.39,154.57,116.77,132.72Z"/><path class="cls-6" d="M256,55.37c-1.8-1-4.28-.9-7,.69-5.47,3.16-9.91,10.85-9.91,17.17,0,3.18,1.12,5.4,2.92,6.43l3.5,2c1.79,1,4.27.89,7-.69,5.48-3.17,9.91-10.86,9.91-17.18,0-3.16-1.1-5.38-2.9-6.42"/><path class="cls-7" d="M252.53,58.09c-5.48,3.17-9.92,10.86-9.92,17.18s4.44,8.89,9.92,5.73,9.92-10.86,9.91-17.18S258,54.93,252.53,58.09Z"/><path class="cls-6" d="M258,72.13v.72a15.82,15.82,0,0,1-5.47,5.73c-2.14,1.23-4.06,1.37-5.48.58V77.67a9.73,9.73,0,0,1,4.46-7.73l1.44-.83a3.45,3.45,0,0,1,3.5-.27A3.61,3.61,0,0,1,258,72.13Z"/><path class="cls-8" d="M256,55.37l3.51,2c-1.79-1-4.27-.89-7,.69a21.63,21.63,0,0,0-8.47,10.39l-3.51-2c1.74-4.3,4.88-8.31,8.46-10.38C251.75,54.48,254.23,54.33,256,55.37Z"/><path class="cls-3" d="M245.39,81.61l-3.37-2c-1.8-1-2.92-3.25-2.92-6.43l3.51,2C242.61,78.35,243.67,80.54,245.39,81.61Z"/><path class="cls-9" d="M240.55,66.44l3.51,2a18.35,18.35,0,0,0-1.45,6.79h0l-3.51-2A18.35,18.35,0,0,1,240.55,66.44Z"/><path class="cls-10" d="M251.28,68.77a1.85,1.85,0,0,1-.95-.25,2.33,2.33,0,0,1-1-2.15,6.18,6.18,0,0,1,2.83-4.9h0a2.3,2.3,0,0,1,2.38-.18,2.33,2.33,0,0,1,1,2.15,6.15,6.15,0,0,1-2.83,4.9A2.83,2.83,0,0,1,251.28,68.77Z"/><path class="cls-10" d="M256.45,68.84a3.45,3.45,0,0,0-3.5.27l-1.44.83a9.73,9.73,0,0,0-4.46,7.73v1.49c1.42.79,3.34.65,5.48-.58A15.82,15.82,0,0,0,258,72.85v-.72A3.61,3.61,0,0,0,256.45,68.84Z"/><path class="cls-7" d="M205.13,140.84a17.6,17.6,0,0,0,1.54-7.3,13.66,13.66,0,0,0,1.26-2.47,8.45,8.45,0,0,1-1.45,1.37,6.8,6.8,0,0,0,1.11-2.5,10.33,10.33,0,0,1-1.6,1.74,1.55,1.55,0,0,0-1.85,0,6,6,0,0,0-2.46,5.56c-2.1,1.07-4,.8-5.21-.52-.66,1.9-.34,3.7.79,4.05a1.82,1.82,0,0,1-1.15.24c0,1.58.81,2.55,2,2.18a3.27,3.27,0,0,1-1.14.71,1.49,1.49,0,0,0,2.36,1,8.76,8.76,0,0,1-3.74,3.55,5.06,5.06,0,0,0,3.87-.72,14.46,14.46,0,0,0,5.64-6.87"/><path class="cls-6" d="M12.35,131.72c1.8-1,4.28-.89,7,.69,5.47,3.17,9.91,10.85,9.91,17.18,0,3.17-1.12,5.4-2.92,6.43l-3.5,2c-1.79,1-4.27.89-7-.69-5.48-3.16-9.91-10.85-9.91-17.17,0-3.16,1.1-5.38,2.9-6.42"/><path class="cls-7" d="M15.85,134.45c5.48,3.16,9.92,10.85,9.92,17.18s-4.44,8.88-9.92,5.72S5.93,146.5,5.94,140.18,10.38,131.29,15.85,134.45Z"/><path class="cls-10" d="M15.15,142.63c-1.22-.7-2.2,0-2.2,1.67a5.25,5.25,0,0,0,2.2,4.2c1.22.71,2.2,0,2.2-1.66A5.27,5.27,0,0,0,15.15,142.63Zm0,4.84a3.4,3.4,0,0,1-1.43-2.73c0-1.05.64-1.53,1.43-1.08a3.43,3.43,0,0,1,1.43,2.73C16.58,147.45,15.94,147.93,15.15,147.47Z"/><path class="cls-10" d="M18.38,143.82c0,.38-.23.56-.51.39a1.21,1.21,0,0,1-.52-1c0-.38.23-.55.52-.39a1.24,1.24,0,0,1,.51,1"/><path class="cls-10" d="M19.27,141.2l-7.64-4.41c-.53-.32-1,0-1,.73v10.19a2.34,2.34,0,0,0,1,1.86l2.74,1.58,2.28,1.32L19.27,154c.54.31,1,0,1-.73V143.06A2.33,2.33,0,0,0,19.27,141.2Zm0,11.53L12,148.52a.79.79,0,0,1-.39-.68V138l7.3,4.21a.79.79,0,0,1,.39.68Z"/><path class="cls-8" d="M12.35,131.72l-3.51,2c1.79-1,4.27-.89,7,.69,3.59,2.07,6.73,6.09,8.47,10.38l3.51-2c-1.74-4.3-4.88-8.32-8.46-10.39C16.62,130.83,14.15,130.68,12.35,131.72Z"/><path class="cls-3" d="M23,158c.62-.36,2.93-1.71,3.37-1.95,1.8-1,2.92-3.26,2.92-6.43l-3.51,2C25.76,154.71,24.71,156.9,23,158Z"/><path class="cls-9" d="M27.83,142.8l-3.51,2a18.44,18.44,0,0,1,1.45,6.8h0l3.51-2A18.35,18.35,0,0,0,27.83,142.8Z"/><path class="cls-6" d="M200.07,6.79c-1.79-1-4.27-.89-7,.69-5.48,3.16-9.92,10.85-9.92,17.18,0,3.17,1.12,5.4,2.93,6.43.47.26,3,1.75,3.49,2,1.79,1,4.27.89,7-.69,5.48-3.16,9.92-10.85,9.92-17.18,0-3.16-1.11-5.38-2.91-6.41"/><path class="cls-7" d="M196.57,9.52c-5.48,3.16-9.92,10.85-9.91,17.18s4.44,8.88,9.91,5.72,9.92-10.85,9.92-17.18S202,6.36,196.57,9.52Z"/><path class="cls-8" d="M200.07,6.79l3.51,2c-1.79-1-4.27-.89-7,.69-3.59,2.07-6.73,6.08-8.47,10.38l-3.51-2c1.74-4.29,4.88-8.31,8.47-10.38C195.8,5.9,198.28,5.75,200.07,6.79Z"/><path class="cls-3" d="M189.43,33l-3.36-1.95c-1.81-1-2.93-3.26-2.93-6.43l3.52,2C186.66,29.78,187.71,32,189.43,33Z"/><path class="cls-9" d="M184.59,17.86l3.51,2a18.38,18.38,0,0,0-1.44,6.8h0l-3.52-2A18.44,18.44,0,0,1,184.59,17.86Z"/><g id="Facebook"><path class="cls-10" d="M195,30.61l2.52-1.45V20.73l1.76-1,.19-2.93-2,1.12v-1.6c0-.67.1-1,.59-1.27l1.36-.79V11.33l-1.74,1A5.11,5.11,0,0,0,195,17.12v2.25l-1.31.76V23l1.31-.76Z"/></g><path class="cls-6" d="M171.54,178c-1.79-1-4.27-.89-7,.69-5.48,3.17-9.92,10.86-9.92,17.18,0,3.17,1.12,5.4,2.93,6.43l3.49,2c1.8,1,4.27.89,7-.69,5.48-3.16,9.92-10.85,9.92-17.17,0-3.16-1.11-5.38-2.9-6.42"/><path class="cls-7" d="M168,180.73c-5.47,3.16-9.91,10.85-9.91,17.18s4.44,8.88,9.91,5.72S178,192.78,178,186.46,173.51,177.57,168,180.73Z"/><path class="cls-8" d="M171.54,178l3.52,2c-1.8-1-4.28-.89-7,.69-3.58,2.07-6.72,6.09-8.47,10.38l-3.51-2c1.74-4.3,4.88-8.32,8.47-10.39C167.27,177.11,169.75,177,171.54,178Z"/><path class="cls-3" d="M160.9,204.25l-3.36-1.95c-1.81-1-2.93-3.26-2.93-6.43l3.52,2C158.13,201,159.19,203.18,160.9,204.25Z"/><path class="cls-9" d="M156.06,189.08l3.51,2a18.62,18.62,0,0,0-1.44,6.8h0l-3.52-2A18.35,18.35,0,0,1,156.06,189.08Z"/><path class="cls-10" d="M165.74,191.59s1.6-3.7,1.76-4.23a15.61,15.61,0,0,0,0-2.75c0-.36,1.47-1.34,1.93-.33a5.26,5.26,0,0,1,.25,3.42l3.56-2.08c.76-.44,1.07.18,1.07.67a2.65,2.65,0,0,1-.57,1.53s.71-.21.72.74a2.54,2.54,0,0,1-.87,1.75s.24.18.24.84a2.82,2.82,0,0,1-1,1.78,2,2,0,0,1,.16.85,2.74,2.74,0,0,1-1.3,2.05l-5.9,3.43Z"/><polygon class="cls-10" points="162.36 202.29 164.93 200.79 164.89 191.86 162.32 193.36 162.36 202.29"/><path class="cls-7" d="M48.66,86.35l1.63-.13c2.16-.17,4.73-1,4.73-4.1a7.24,7.24,0,0,0-3.27-5.67c-1.41-.82-2.61-.48-3.07.69A7.34,7.34,0,0,0,45.6,72.9c-1.8-1-3.27-.2-3.27,1.89,0,3,2.55,6.85,4.7,9.53Z"/><path class="cls-6" d="M86.77,175.87c1.8-1,4.28-.89,7,.69,5.47,3.16,9.91,10.85,9.91,17.18,0,3.17-1.12,5.4-2.92,6.43l-3.5,2c-1.79,1-4.27.89-7-.69-5.48-3.16-9.91-10.85-9.91-17.18,0-3.16,1.1-5.37,2.9-6.41"/><path class="cls-7" d="M90.27,178.6c5.48,3.16,9.92,10.85,9.92,17.18s-4.44,8.88-9.92,5.72-9.92-10.85-9.91-17.18S84.8,175.44,90.27,178.6Z"/><path class="cls-8" d="M86.77,175.87l-3.51,2c1.79-1,4.27-.89,7,.69,3.59,2.07,6.73,6.08,8.47,10.38l3.51-2c-1.74-4.3-4.88-8.32-8.46-10.39C91.05,175,88.57,174.83,86.77,175.87Z"/><path class="cls-3" d="M97.41,202.12c.62-.36,2.93-1.71,3.37-2,1.8-1,2.92-3.26,2.92-6.43l-3.51,2C100.19,198.86,99.13,201.05,97.41,202.12Z"/><path class="cls-9" d="M102.25,187l-3.51,2a18.4,18.4,0,0,1,1.45,6.8h0l3.51-2A18.35,18.35,0,0,0,102.25,187Z"/><path class="cls-10" d="M87.15,183.76v9.6c0,.72.28,1.25.64,1.18l6.65-1.28c.35-.07.2-.71-.34-1.44l-6-8C87.58,183,87.15,183,87.15,183.76Z"/><path class="cls-6" d="M6.42,50.34c1.79-1,4.27-.89,7,.69,5.48,3.17,9.92,10.86,9.92,17.18,0,3.17-1.12,5.4-2.93,6.43l-3.49,2c-1.8,1-4.28.89-7-.69C4.44,72.81,0,65.12,0,58.8c0-3.16,1.11-5.38,2.9-6.42"/><path class="cls-7" d="M9.92,53.07c5.47,3.16,9.91,10.85,9.91,17.18S15.39,79.13,9.91,76,0,65.12,0,58.8,4.45,49.91,9.92,53.07Z"/><path class="cls-8" d="M6.42,50.34l-3.52,2c1.8-1,4.28-.89,7,.69,3.58,2.07,6.72,6.09,8.46,10.39l3.52-2C20.16,57.12,17,53.1,13.43,51,10.69,49.45,8.21,49.3,6.42,50.34Z"/><path class="cls-3" d="M17.06,76.59l3.36-2c1.81-1,2.93-3.26,2.93-6.43l-3.52,2C19.83,73.33,18.77,75.52,17.06,76.59Z"/><path class="cls-9" d="M21.9,61.42l-3.52,2a18.35,18.35,0,0,1,1.45,6.79h0l3.52-2A18.35,18.35,0,0,0,21.9,61.42Z"/><path class="cls-10" d="M7.6,56v9.85a3.32,3.32,0,0,0-.65-.5c-.75-.43-1.35.15-1.35,1.3A3.58,3.58,0,0,0,7,69.56c.75.43,1.64,0,1.64-1.15v-9l4.34,2.55V69a3.32,3.32,0,0,0-.65-.5c-.75-.44-1.11.28-1.11,1.43a3.56,3.56,0,0,0,1.36,2.86c.74.43,1.35-.15,1.35-1.3h0V59.68Z"/><path class="cls-6" d="M251.53,135.9c-1.79-1-4.27-.89-7,.69-5.48,3.17-9.92,10.86-9.92,17.18,0,3.17,1.12,5.4,2.93,6.43l3.49,2c1.8,1,4.27.89,7-.69,5.48-3.16,9.92-10.85,9.92-17.17,0-3.16-1.11-5.38-2.9-6.42"/><path class="cls-7" d="M248,138.63c-5.47,3.17-9.91,10.85-9.91,17.18s4.44,8.88,9.91,5.72S258,150.68,258,144.36,253.5,135.47,248,138.63Z"/><path class="cls-8" d="M251.53,135.9l3.52,2c-1.8-1-4.28-.89-7,.69-3.58,2.07-6.72,6.09-8.47,10.39l-3.51-2c1.74-4.3,4.88-8.32,8.47-10.39C247.26,135,249.74,134.86,251.53,135.9Z"/><path class="cls-3" d="M240.89,162.15l-3.36-2c-1.81-1-2.93-3.26-2.93-6.43l3.52,2C238.12,158.89,239.17,161.08,240.89,162.15Z"/><path class="cls-9" d="M236.05,147l3.51,2a18.53,18.53,0,0,0-1.44,6.79h0l-3.52-2A18.35,18.35,0,0,1,236.05,147Z"/><path class="cls-10" d="M243.08,146.71v12.46c0,.38.26.53.58.34l8.74-5a1.27,1.27,0,0,0,.59-1V141c0-.37-.26-.52-.59-.34l-8.74,5A1.3,1.3,0,0,0,243.08,146.71Zm8.77,7.22-7.64,4.41c-.32.19-.58,0-.58-.34V147.25a1.3,1.3,0,0,1,.58-1l7.64-4.41c.33-.18.59,0,.59.34v10.76A1.27,1.27,0,0,1,251.85,153.93Z"/><polygon class="cls-10" points="243.63 158.68 243.63 155.17 246.41 149.84 249.3 153.01 248.67 151.48 249.82 149.37 252.44 151.16 252.44 153.59 243.63 158.68"/><path class="cls-10" d="M250.25,145c.35-.2.64.07.64.62a1.67,1.67,0,0,1-.64,1.34c-.35.21-.64-.07-.64-.61A1.7,1.7,0,0,1,250.25,145Z"/><path class="cls-6" d="M72.41,36.26l-2-3.68L72,28V25.24L67.2,28v2.79l2.07,3.6a.31.31,0,0,0,.14.12h0Z"/><path class="cls-3" d="M72.41,36.26l-2-3.68L72,28V25.24L67.2,28v2.79l2.07,3.6a.31.31,0,0,0,.14.12h0Z"/><path class="cls-7" d="M93.16,3.53A3.19,3.19,0,0,0,91.71,1L90.53.35a3.14,3.14,0,0,0-2.89,0L60.34,16.12a3.18,3.18,0,0,0-1.44,2.5V32.74a3.18,3.18,0,0,0,1.44,2.5l1.18.69a3.22,3.22,0,0,0,2.9,0l5.81-3.36,2.07,3.58a.31.31,0,0,0,.56,0l2.19-6.32,16.66-9.62a3.22,3.22,0,0,0,1.45-2.51Z"/><path class="cls-11" d="M58.9,32.74a3.18,3.18,0,0,0,1.44,2.5l1.18.69a3.26,3.26,0,0,0,2.65.11c-.68.26-1.2-.13-1.2-.95V21a2.94,2.94,0,0,1,.42-1.42L59.32,17.2a2.94,2.94,0,0,0-.42,1.42Z"/><path class="cls-12" d="M93.11,3.12c-.17-.61-.73-.81-1.4-.42L64.41,18.47a2.86,2.86,0,0,0-1,1.08L59.32,17.2a3,3,0,0,1,1-1.08L87.63.35a3.22,3.22,0,0,1,2.9,0L91.71,1A3.19,3.19,0,0,1,93.11,3.12Z"/><path class="cls-10" d="M70.94,21.2A4.29,4.29,0,0,0,69,24.55c0,1.23.87,1.73,1.93,1.11a4.24,4.24,0,0,0,1.93-3.34C72.87,21.08,72,20.58,70.94,21.2Z"/><path class="cls-10" d="M78.06,17.08a4.29,4.29,0,0,0-1.93,3.35c0,1.23.87,1.73,1.93,1.11A4.24,4.24,0,0,0,80,18.2C80,17,79.13,16.47,78.06,17.08Z"/><path class="cls-10" d="M85.18,13a4.3,4.3,0,0,0-1.93,3.35c0,1.23.87,1.73,1.93,1.11a4.24,4.24,0,0,0,1.93-3.34C87.11,12.85,86.25,12.35,85.18,13Z"/><path class="cls-7" d="M205,84.39l12.53-7.23a1,1,0,0,0,.44-.83V65.06c0-.32-.2-.47-.44-.33L205,72a1,1,0,0,0-.43.82V84.07C204.58,84.39,204.77,84.53,205,84.39Z"/><path class="cls-10" d="M204.58,84.07v-.22l5.18-8.59-5.11-2.83a.3.3,0,0,1,0-.1L211.06,75c.13.06.31,0,.44-.26l6.36-10,0,0-5.1,8.73,5.18,2.6v.22a1.1,1.1,0,0,1-.13.51L212.53,74l-.75,1.28c-.3.51-.7.75-1,.58l-.76-.41-5.3,9A.4.4,0,0,1,204.58,84.07Z"/><path class="cls-7" d="M62.65,130.49a8.07,8.07,0,0,1,1,1.32,10.95,10.95,0,0,1,1.33,3,6.59,6.59,0,0,1,.2,1.35.47.47,0,0,1-.08.3.13.13,0,0,1-.19,0l-1.68-1a.88.88,0,0,1-.28-.26,2.36,2.36,0,0,1-.23-.4q0-.09-.12-.3a2.62,2.62,0,0,0-.24-.47,4,4,0,0,0-.38-.52,2.3,2.3,0,0,0-.56-.45A3.11,3.11,0,0,0,61,133a1,1,0,0,0-.4-.05.41.41,0,0,0-.28.19,1,1,0,0,0-.11.51,1.69,1.69,0,0,0,.12.64,2.77,2.77,0,0,0,.41.66,10.44,10.44,0,0,0,.76.81c.32.31.71.68,1.18,1.11a10.89,10.89,0,0,1,1.23,1.35,7.61,7.61,0,0,1,.88,1.48,7.47,7.47,0,0,1,.52,1.66,9.91,9.91,0,0,1,.18,2,5.52,5.52,0,0,1-.21,1.63A2.69,2.69,0,0,1,64.7,146a1.64,1.64,0,0,1-.9.51,2.31,2.31,0,0,1-1.15-.08V148a.54.54,0,0,1-.11.37.17.17,0,0,1-.24.05l-1.68-1a.71.71,0,0,1-.24-.32,1.27,1.27,0,0,1-.1-.5V145a8.23,8.23,0,0,1-1.11-1.36,10.06,10.06,0,0,1-.84-1.54,9.19,9.19,0,0,1-.55-1.6,7.14,7.14,0,0,1-.2-1.52.46.46,0,0,1,.08-.31.14.14,0,0,1,.19,0l1.67,1a.84.84,0,0,1,.28.24,2.87,2.87,0,0,1,.21.36l.15.39a5.91,5.91,0,0,0,.28.58,3.46,3.46,0,0,0,.43.62,2.46,2.46,0,0,0,.65.54,2.41,2.41,0,0,0,1.13.39c.31,0,.46-.23.46-.68a1.48,1.48,0,0,0-.17-.67,3.74,3.74,0,0,0-.5-.71,11.11,11.11,0,0,0-.85-.87c-.34-.32-.75-.7-1.22-1.16a8,8,0,0,1-1.93-2.78,9.47,9.47,0,0,1-.61-3.48,5.8,5.8,0,0,1,.17-1.44,3.16,3.16,0,0,1,.48-1.08,1.8,1.8,0,0,1,.77-.63,1.93,1.93,0,0,1,1-.11v-1.68a.55.55,0,0,1,.1-.37.17.17,0,0,1,.24,0l1.68,1a.59.59,0,0,1,.24.32,1.25,1.25,0,0,1,.11.5Z"/><path class="cls-3" d="M139.84,13.15l-2.3-1.32h0c-1.1-.74-2.63-.71-4.31.27-3.35,1.93-6.06,6.84-6.06,11V24c0,4.12,5.54,8.6,5.54,8.6L135,33.88s-1.36-1.55-1.2-1.87c1.48-3,5.52-11.65,5.52-15v-.94a7.26,7.26,0,0,0-.26-2l.26.15Zm-6.61,9.45c-1.68,1-3,.18-3-1.75.9-.14,3.16-4,3-5.25,1.67-1,3-.19,3,1.75A6.72,6.72,0,0,1,133.23,22.6Z"/><path class="cls-7" d="M141.71,17.46c0-4.12-2.71-5.9-6.06-4s-6.06,6.84-6.06,11v.94c0,3.17,3.59,6.85,5.25,8.38a.82.82,0,0,0,1.29-.24c1.42-2.92,5.58-11.73,5.58-15.14ZM135.65,24c-1.67,1-3,.18-3-1.75a6.69,6.69,0,0,1,3-5.25c1.68-1,3-.19,3,1.75A6.69,6.69,0,0,1,135.65,24Z"/><g id="Lines" class="cls-13"><line class="cls-14" x1="202.68" y1="23.35" x2="247.44" y2="59.77"/><line class="cls-14" x1="249.29" y1="80.42" x2="246.68" y2="137.1"/><line class="cls-14" x1="242.65" y1="140.57" x2="213.02" y2="84.83"/><line class="cls-14" x1="220.05" y1="70.47" x2="242.24" y2="66.07"/><line class="cls-14" x1="194.09" y1="33.04" x2="208.63" y2="66.44"/><line class="cls-14" x1="189.43" y1="14.8" x2="141.84" y2="22.58"/><line class="cls-14" x1="141.39" y1="27.73" x2="205.15" y2="68.65"/><line class="cls-14" x1="209.79" y1="84.83" x2="204.9" y2="128.26"/><line class="cls-14" x1="236.59" y1="154.92" x2="175.76" y2="190.33"/><line class="cls-14" x1="209.21" y1="139.66" x2="237.75" y2="147.96"/><line class="cls-14" x1="196.63" y1="151.06" x2="175.06" y2="180.04"/><line class="cls-14" x1="67.46" y1="146.78" x2="91.25" y2="177.25"/><line class="cls-14" x1="26.8" y1="147.55" x2="52.59" y2="137.28"/><line class="cls-14" x1="59.4" y1="122.84" x2="51.52" y2="90.5"/><line class="cls-14" x1="43.98" y1="85.74" x2="19.33" y2="134.83"/><line class="cls-14" x1="15.85" y1="133.1" x2="10.24" y2="74.46"/><line class="cls-14" x1="25.77" y1="155.47" x2="85.02" y2="189.68"/><line class="cls-14" x1="50.87" y1="73.17" x2="66.65" y2="37.12"/><line class="cls-14" x1="96.08" y1="14.86" x2="126.03" y2="22.24"/><line class="cls-14" x1="56.59" y1="27.78" x2="16.33" y2="56.85"/><line class="cls-14" x1="21.62" y1="65.04" x2="40.36" y2="73.81"/><line class="cls-14" x1="123.55" y1="28.75" x2="55.47" y2="77.36"/><line class="cls-15" x1="101.22" y1="189.54" x2="157.09" y2="189.58"/></g></g></g></g></svg>