<svg xmlns="http://www.w3.org/2000/svg" viewBox="0 0 98.21 109.42"><defs><style>.cls-1{fill:#280044;}.cls-2{fill:#7b0797;}</style></defs><g id="Layer_2" data-name="Layer 2"><g id="Layer_1-2" data-name="Layer 1"><path class="cls-1" d="M60,18.44a2,2,0,1,0-1.83,2.19A2,2,0,0,0,60,18.44Z"/><path class="cls-2" d="M60,19.44a2,2,0,1,0-1.83,2.19A2,2,0,0,0,60,19.44Z"/><path class="cls-2" d="M83.53,55.55a28.31,28.31,0,1,0-39.88,3.59A28.3,28.3,0,0,0,83.53,55.55ZM46.25,56A24.26,24.26,0,1,1,80.43,53,24.25,24.25,0,0,1,46.25,56Z"/><path class="cls-2" d="M81.94,35.6A20.24,20.24,0,0,0,66.59,17.76a2,2,0,1,0-1,3.93A16.18,16.18,0,0,1,77.91,36a2,2,0,0,0,4-.36Z"/><path class="cls-2" d="M41.05,78a2,2,0,0,0,.46-1.47,2,2,0,0,0-.72-1.37l-1.55-1.3,4.21-5a36.41,36.41,0,1,0-9.31-7.78l-4.21,5-1.55-1.29a2,2,0,0,0-2.85.25L2.35,92.83a10.11,10.11,0,1,0,15.52,13ZM33,68.7,37,64c.49.46,1,.91,1.51,1.34s1.05.85,1.59,1.26l-3.92,4.7Zm3.94-52a32.35,32.35,0,1,1,4.09,45.57A32.33,32.33,0,0,1,37,16.67ZM36.65,77,31.46,83.2l-9.31-7.77,5.19-6.21ZM6.23,104a6.05,6.05,0,0,1-.77-8.54l14.1-16.89,9.31,7.78-14.1,16.88A6.05,6.05,0,0,1,6.23,104Z"/><path class="cls-1" d="M41.05,77a2,2,0,0,0,.46-1.47,2,2,0,0,0-.72-1.37l-1.55-1.3,4.21-5a36.41,36.41,0,1,0-9.31-7.78l-4.21,5-1.55-1.29a2,2,0,0,0-2.85.25L2.35,91.83a10.11,10.11,0,1,0,15.52,13ZM33,67.7,37,63c.49.46,1,.91,1.51,1.34s1.05.85,1.59,1.26l-3.92,4.7Zm3.94-52a32.35,32.35,0,1,1,4.09,45.57A32.33,32.33,0,0,1,37,15.67ZM36.65,76,31.46,82.2l-9.31-7.77,5.19-6.21ZM6.23,103a6.05,6.05,0,0,1-.77-8.54l14.1-16.89,9.31,7.78-14.1,16.88A6.05,6.05,0,0,1,6.23,103Z"/><path class="cls-1" d="M83.53,54.55a28.31,28.31,0,1,0-39.88,3.59A28.3,28.3,0,0,0,83.53,54.55ZM46.25,55A24.26,24.26,0,1,1,80.43,52,24.25,24.25,0,0,1,46.25,55Z"/><path class="cls-1" d="M81.94,34.6A20.24,20.24,0,0,0,66.59,16.76a2,2,0,1,0-1,3.93A16.18,16.18,0,0,1,77.91,35a2,2,0,0,0,4-.36Z"/></g></g></svg>