<svg xmlns="http://www.w3.org/2000/svg" viewBox="0 0 107 108"><defs><style>.cls-1{fill:#7b0797;}.cls-2{fill:#280044;}</style></defs><g id="Layer_2" data-name="Layer 2"><g id="Layer_1-2" data-name="Layer 1"><g id="Page-1"><g id="_001---Thinking" data-name="001---Thinking"><path id="Shape" class="cls-1" d="M2.63,67.68a11.71,11.71,0,0,0,1.85,1.07c.77.4,2.06,1.06,2.15,1.52a3,3,0,0,1-.21,1.8c-.26.57-.54,1.06-.78,1.49C5,74.71,3.89,76.64,5.54,78c.39.36,1,.87,1.66,1.34a4.44,4.44,0,0,0-.58,2.57,2.55,2.55,0,0,0,1,1.75c.4.28.83.53,1.24.77,1.05.6,1.46.88,1.61,1.43a4.94,4.94,0,0,1-.2,2.16c-.1.46-.2.93-.27,1.4a10.51,10.51,0,0,0,.6,4.81A6.69,6.69,0,0,0,17,99.08a7.16,7.16,0,0,0,1.46-.15,135.87,135.87,0,0,0,15-4.5c4,2.36,6.56,9.53,7.22,12.22A1.79,1.79,0,0,0,42.41,108l44.76-.12a1.84,1.84,0,0,0,1.44-.73,1.8,1.8,0,0,0,.26-1.59,13.65,13.65,0,0,0-1.81-3.39,16.37,16.37,0,0,1-1.15-1.93,34.11,34.11,0,0,1-2-5.07,61.22,61.22,0,0,1-2.11-10.55A30.24,30.24,0,0,1,84.13,69,39.91,39.91,0,0,1,89,61.3c1.07-1.44,2.18-2.94,3.18-4.51a27.45,27.45,0,0,0,3.67-8.69,1.78,1.78,0,0,0-3.47-.8,24.17,24.17,0,0,1-3.21,7.58c-.93,1.46-2,2.9-3,4.3a42.63,42.63,0,0,0-5.25,8.35A33.72,33.72,0,0,0,78.24,85a64.5,64.5,0,0,0,2.25,11.19,37.38,37.38,0,0,0,2.22,5.59,18.06,18.06,0,0,0,1.38,2.31l.12.18-40.45.12a28.52,28.52,0,0,0-6.28-11.38l1.6-.56,2.57-.89C49.29,89.16,53.11,85.68,53,81.25A1.8,1.8,0,0,0,52.46,80a1.76,1.76,0,0,0-1.28-.48,1.79,1.79,0,0,0-1.74,1.83c.05,1.82-1.46,4.49-8.87,6.85-.48.16-1.43.48-2.66.92s-3,1-4.86,1.68h0a138.7,138.7,0,0,1-15.33,4.63A3.17,3.17,0,0,1,14,93.06a7.25,7.25,0,0,1-.44-3.16c.05-.36.14-.73.22-1.1A7.77,7.77,0,0,0,14,85a5.87,5.87,0,0,0-3.3-3.64l-.38-.22A6.41,6.41,0,0,1,11,80a1.75,1.75,0,0,0,.36-1.34,1.77,1.77,0,0,0-.71-1.2c-.42-.31-1.42-1.07-2.17-1.66.08-.16.18-.33.27-.48.28-.5.6-1.07.91-1.73a6.67,6.67,0,0,0,.47-4c-.42-2.17-2.51-3.24-4-4a10.78,10.78,0,0,1-1.47-.85,8.13,8.13,0,0,1-1.07-.87c0-.27.29-.92,1.65-2.58A71.59,71.59,0,0,0,13.38,48a5.33,5.33,0,0,0,.69-2.41,6.22,6.22,0,0,0-2.62-4.45c-.72-.67-1.4-1.29-1.48-1.82a3.46,3.46,0,0,1,.29-1.27c.29-.76.63-1.51,1-2.26A26.17,26.17,0,0,0,13,31a48.07,48.07,0,0,1,1.61-5.9A30.37,30.37,0,0,1,21,14.63C24.42,11,29.79,8.46,37,7A115.07,115.07,0,0,1,53.72,4.62a38.49,38.49,0,0,1,5.68.12A1.75,1.75,0,0,0,61,4a1.78,1.78,0,0,0-1.29-2.81,42.76,42.76,0,0,0-6.2-.12A119.31,119.31,0,0,0,36.29,3.53C28.24,5.14,22.4,8,18.41,12.17a34.12,34.12,0,0,0-7.15,11.67A53,53,0,0,0,9.5,30.29,22.58,22.58,0,0,1,8,34.35c-.35.81-.72,1.62-1,2.47a6.14,6.14,0,0,0-.49,3,6.89,6.89,0,0,0,2.61,4c.87.8,1.45,1.37,1.46,1.86a3,3,0,0,1-.31.77A68.46,68.46,0,0,1,2.4,59.09C1.11,60.67-.25,62.5,0,64.34A5.44,5.44,0,0,0,2.63,67.68Z"/><path id="Shape-2" data-name="Shape" class="cls-1" d="M21.29,27.55a23.6,23.6,0,0,1,4.9-8C28.56,17,32.67,15.16,38.41,14a1.78,1.78,0,1,0-.7-3.5C31.24,11.81,26.49,14,23.6,17.07A26.84,26.84,0,0,0,18,26.33a45.94,45.94,0,0,0-1.47,5.44l3.48.77A45.28,45.28,0,0,1,21.29,27.55Z"/><path id="Shape-3" data-name="Shape" class="cls-1" d="M58.6,11l-1.07,5.33a21.83,21.83,0,0,0-3,1.25l-4.53-3a3.56,3.56,0,0,0-4.48.47l-3,3a3.56,3.56,0,0,0-.47,4.52l3,4.5a20.31,20.31,0,0,0-1.25,3l-5.33,1.07a3.56,3.56,0,0,0-2.86,3.49v4.21a3.57,3.57,0,0,0,2.85,3.5l5.34,1.07a20.2,20.2,0,0,0,1.25,3l-3,4.53a3.56,3.56,0,0,0,.46,4.48l3,3a3.58,3.58,0,0,0,4.52.47l4.51-3a21.32,21.32,0,0,0,3,1.25l1.07,5.33a3.58,3.58,0,0,0,3.5,2.86h4.21a3.56,3.56,0,0,0,3.49-2.85L70.87,57a20.31,20.31,0,0,0,3-1.25l4.52,3a3.57,3.57,0,0,0,4.48-.47l3-3a3.56,3.56,0,0,0,.47-4.52l-3-4.51a20.15,20.15,0,0,0,1.24-3l5.33-1.07a3.56,3.56,0,0,0,2.46-1.86L95,42.21a3.27,3.27,0,0,0,1.73.51A3.23,3.23,0,0,0,99,41.77l2.38-2.37a3.24,3.24,0,0,0,.41-4.06l-2.3-3.44a15.57,15.57,0,0,0,.86-2.07l4-.81A3.2,3.2,0,0,0,107,25.86V22.51a3.2,3.2,0,0,0-2.58-3.16l-4-.81a17,17,0,0,0-.86-2.07L101.85,13a3.22,3.22,0,0,0-.45-4L99,6.61A3.24,3.24,0,0,0,95,6.19l-3.44,2.3a17,17,0,0,0-2.07-.86l-.81-4A3.21,3.21,0,0,0,85.49,1H82.14A3.23,3.23,0,0,0,79,3.58l-.8,4.05a15.75,15.75,0,0,0-2.08.87L72.62,6.16a3.23,3.23,0,0,0-4,.45L67,8.21a3.33,3.33,0,0,0-.7-.07H62.1A3.56,3.56,0,0,0,58.6,11Zm27.26,7L85,17.15a7.09,7.09,0,0,1,2.22,13.38L84.54,30a21.32,21.32,0,0,0-1.25-3l3-4.53A3.57,3.57,0,0,0,85.86,18ZM70.94,9.32,75,12.06a1.8,1.8,0,0,0,1.91,0,12.93,12.93,0,0,1,3.26-1.36,1.8,1.8,0,0,0,1.29-1.38l1-4.8h2.79l1,4.81a1.79,1.79,0,0,0,1.28,1.38,12.85,12.85,0,0,1,3.27,1.36,1.77,1.77,0,0,0,1.9-.06L96.7,9.32l2,2L96,15.38a1.78,1.78,0,0,0-.06,1.91,13.18,13.18,0,0,1,1.37,3.26,1.77,1.77,0,0,0,1.37,1.28l4.82,1v2.79l-4.81,1a1.77,1.77,0,0,0-1.37,1.28,13.18,13.18,0,0,1-1.37,3.26A1.8,1.8,0,0,0,96,33l2.74,4.08-2,2-4-2.66V34.56a3.58,3.58,0,0,0-1.25-2.71,10.67,10.67,0,0,0-7.44-18.36,10,10,0,0,0-3.17.52,3.57,3.57,0,0,0-2.5.55l-4.5,3a21.83,21.83,0,0,0-3-1.25L69.81,11a4.17,4.17,0,0,0-.13-.42ZM60.81,18.08,62.1,11.7h4.21l1.28,6.39a1.79,1.79,0,0,0,1.28,1.37,17.4,17.4,0,0,1,4.21,1.74A1.77,1.77,0,0,0,75,21.14l5.39-3.61,3,3-3.62,5.4a1.77,1.77,0,0,0-.06,1.88A17.5,17.5,0,0,1,81.42,32a1.8,1.8,0,0,0,1.37,1.28l6.38,1.27v4.21l-6.39,1.28a1.8,1.8,0,0,0-1.37,1.29,17.4,17.4,0,0,1-1.74,4.21,1.77,1.77,0,0,0,.06,1.88l3.61,5.4-3,3L75,52.2a1.77,1.77,0,0,0-1.88-.06,18,18,0,0,1-4.21,1.75,1.77,1.77,0,0,0-1.29,1.37l-1.27,6.37H62.1l-1.28-6.38a1.8,1.8,0,0,0-1.29-1.37,17.6,17.6,0,0,1-4.21-1.75,1.79,1.79,0,0,0-1.88.06L48,55.8l-3-3,3.62-5.4a1.79,1.79,0,0,0,.06-1.89A17.67,17.67,0,0,1,47,41.33a1.76,1.76,0,0,0-1.36-1.28l-6.38-1.28V34.56l6.38-1.28A1.79,1.79,0,0,0,47,32a17.43,17.43,0,0,1,1.75-4.21,1.79,1.79,0,0,0-.06-1.89l-3.61-5.39,3-3,5.4,3.62a1.79,1.79,0,0,0,1.89.06,17.84,17.84,0,0,1,4.21-1.75A1.78,1.78,0,0,0,60.81,18.08Z"/><path id="Shape-4" data-name="Shape" class="cls-1" d="M64.2,49.15A12.48,12.48,0,1,0,51.72,36.67,12.49,12.49,0,0,0,64.2,49.15Zm0-21.4a8.92,8.92,0,1,1-8.91,8.92A8.92,8.92,0,0,1,64.2,27.75Z"/><circle id="Oval" class="cls-1" cx="64.2" cy="36.67" r="1.78"/><circle id="Oval-2" data-name="Oval" class="cls-1" cx="16.05" cy="38.45" r="1.78"/></g></g><g id="Page-1-2" data-name="Page-1"><g id="_001---Thinking-2" data-name="001---Thinking"><path id="Shape-5" data-name="Shape" class="cls-2" d="M2.63,66.68a11.71,11.71,0,0,0,1.85,1.07c.77.4,2.06,1.06,2.15,1.52a3,3,0,0,1-.21,1.8c-.26.57-.54,1.06-.78,1.49C5,73.71,3.89,75.64,5.54,77c.39.36,1,.87,1.66,1.34a4.44,4.44,0,0,0-.58,2.57,2.55,2.55,0,0,0,1,1.75c.4.28.83.53,1.24.77,1.05.6,1.46.88,1.61,1.43a4.94,4.94,0,0,1-.2,2.16c-.1.46-.2.93-.27,1.4a10.51,10.51,0,0,0,.6,4.81A6.69,6.69,0,0,0,17,98.08a7.16,7.16,0,0,0,1.46-.15,135.87,135.87,0,0,0,15-4.5c4,2.36,6.56,9.53,7.22,12.22A1.79,1.79,0,0,0,42.41,107l44.76-.12a1.84,1.84,0,0,0,1.44-.73,1.8,1.8,0,0,0,.26-1.59,13.65,13.65,0,0,0-1.81-3.39,16.37,16.37,0,0,1-1.15-1.93,34.11,34.11,0,0,1-2-5.07,61.22,61.22,0,0,1-2.11-10.55A30.24,30.24,0,0,1,84.13,68,39.91,39.91,0,0,1,89,60.3c1.07-1.44,2.18-2.94,3.18-4.51a27.45,27.45,0,0,0,3.67-8.69,1.78,1.78,0,0,0-3.47-.8,24.17,24.17,0,0,1-3.21,7.58c-.93,1.46-2,2.9-3,4.3a42.63,42.63,0,0,0-5.25,8.35A33.72,33.72,0,0,0,78.24,84a64.5,64.5,0,0,0,2.25,11.19,37.38,37.38,0,0,0,2.22,5.59,18.06,18.06,0,0,0,1.38,2.31l.12.18-40.45.12a28.52,28.52,0,0,0-6.28-11.38l1.6-.56,2.57-.89C49.29,88.16,53.11,84.68,53,80.25A1.8,1.8,0,0,0,52.46,79a1.76,1.76,0,0,0-1.28-.48,1.79,1.79,0,0,0-1.74,1.83c.05,1.82-1.46,4.49-8.87,6.85-.48.16-1.43.48-2.66.92s-3,1-4.86,1.68h0a138.7,138.7,0,0,1-15.33,4.63A3.17,3.17,0,0,1,14,92.06a7.25,7.25,0,0,1-.44-3.16c.05-.36.14-.73.22-1.1A7.77,7.77,0,0,0,14,84a5.87,5.87,0,0,0-3.3-3.64l-.38-.22A6.41,6.41,0,0,1,11,79a1.75,1.75,0,0,0,.36-1.34,1.77,1.77,0,0,0-.71-1.2c-.42-.31-1.42-1.07-2.17-1.66.08-.16.18-.33.27-.48.28-.5.6-1.07.91-1.73a6.67,6.67,0,0,0,.47-4c-.42-2.17-2.51-3.24-4-4a10.78,10.78,0,0,1-1.47-.85,8.13,8.13,0,0,1-1.07-.87c0-.27.29-.92,1.65-2.58A71.59,71.59,0,0,0,13.38,47a5.33,5.33,0,0,0,.69-2.41,6.22,6.22,0,0,0-2.62-4.45c-.72-.67-1.4-1.29-1.48-1.82a3.46,3.46,0,0,1,.29-1.27c.29-.76.63-1.51,1-2.26A26.17,26.17,0,0,0,13,30a48.07,48.07,0,0,1,1.61-5.9A30.37,30.37,0,0,1,21,13.63C24.42,10,29.79,7.46,37,6A115.07,115.07,0,0,1,53.72,3.62a38.49,38.49,0,0,1,5.68.12A1.75,1.75,0,0,0,61,3,1.78,1.78,0,0,0,59.73.18a42.76,42.76,0,0,0-6.2-.12A119.31,119.31,0,0,0,36.29,2.53C28.24,4.14,22.4,7,18.41,11.17a34.12,34.12,0,0,0-7.15,11.67A53,53,0,0,0,9.5,29.29,22.58,22.58,0,0,1,8,33.35c-.35.81-.72,1.62-1,2.47a6.14,6.14,0,0,0-.49,3,6.89,6.89,0,0,0,2.61,4c.87.8,1.45,1.37,1.46,1.86a3,3,0,0,1-.31.77A68.46,68.46,0,0,1,2.4,58.09C1.11,59.67-.25,61.5,0,63.34A5.44,5.44,0,0,0,2.63,66.68Z"/><path id="Shape-6" data-name="Shape" class="cls-2" d="M21.29,26.55a23.6,23.6,0,0,1,4.9-8C28.56,16,32.67,14.16,38.41,13a1.78,1.78,0,1,0-.7-3.5C31.24,10.81,26.49,13,23.6,16.07A26.84,26.84,0,0,0,18,25.33a45.94,45.94,0,0,0-1.47,5.44l3.48.77A45.28,45.28,0,0,1,21.29,26.55Z"/><path id="Shape-7" data-name="Shape" class="cls-2" d="M58.6,10l-1.07,5.33a21.83,21.83,0,0,0-3,1.25l-4.53-3a3.56,3.56,0,0,0-4.48.47l-3,3a3.56,3.56,0,0,0-.47,4.52l3,4.5a20.31,20.31,0,0,0-1.25,3l-5.33,1.07a3.56,3.56,0,0,0-2.86,3.49v4.21a3.57,3.57,0,0,0,2.85,3.5l5.34,1.07a20.2,20.2,0,0,0,1.25,3l-3,4.53a3.56,3.56,0,0,0,.46,4.48l3,3a3.58,3.58,0,0,0,4.52.47l4.51-3a21.32,21.32,0,0,0,3,1.25l1.07,5.33a3.58,3.58,0,0,0,3.5,2.86h4.21a3.56,3.56,0,0,0,3.49-2.85L70.87,56a20.31,20.31,0,0,0,3-1.25l4.52,3a3.57,3.57,0,0,0,4.48-.47l3-3a3.56,3.56,0,0,0,.47-4.52l-3-4.51a20.15,20.15,0,0,0,1.24-3l5.33-1.07a3.56,3.56,0,0,0,2.46-1.86L95,41.21a3.27,3.27,0,0,0,1.73.51A3.23,3.23,0,0,0,99,40.77l2.38-2.37a3.24,3.24,0,0,0,.41-4.06l-2.3-3.44a15.57,15.57,0,0,0,.86-2.07l4-.81A3.2,3.2,0,0,0,107,24.86V21.51a3.2,3.2,0,0,0-2.58-3.16l-4-.81a17,17,0,0,0-.86-2.07L101.85,12a3.22,3.22,0,0,0-.45-4L99,5.61A3.24,3.24,0,0,0,95,5.19l-3.44,2.3a17,17,0,0,0-2.07-.86l-.81-4A3.21,3.21,0,0,0,85.49,0H82.14A3.23,3.23,0,0,0,79,2.58l-.8,4.05a15.75,15.75,0,0,0-2.08.87L72.62,5.16a3.23,3.23,0,0,0-4,.45L67,7.21a3.33,3.33,0,0,0-.7-.07H62.1A3.56,3.56,0,0,0,58.6,10Zm27.26,7L85,16.15a7.09,7.09,0,0,1,2.22,13.38L84.54,29a21.32,21.32,0,0,0-1.25-3l3-4.53A3.57,3.57,0,0,0,85.86,17ZM70.94,8.32,75,11.06a1.8,1.8,0,0,0,1.91,0,12.93,12.93,0,0,1,3.26-1.36,1.8,1.8,0,0,0,1.29-1.38l1-4.8h2.79l1,4.81a1.79,1.79,0,0,0,1.28,1.38,12.85,12.85,0,0,1,3.27,1.36,1.77,1.77,0,0,0,1.9-.06L96.7,8.32l2,2L96,14.38a1.78,1.78,0,0,0-.06,1.91,13.18,13.18,0,0,1,1.37,3.26,1.77,1.77,0,0,0,1.37,1.28l4.82,1v2.79l-4.81,1a1.77,1.77,0,0,0-1.37,1.28,13.18,13.18,0,0,1-1.37,3.26A1.8,1.8,0,0,0,96,32l2.74,4.08-2,2-4-2.66V33.56a3.58,3.58,0,0,0-1.25-2.71,10.67,10.67,0,0,0-7.44-18.36,10,10,0,0,0-3.17.52,3.57,3.57,0,0,0-2.5.55l-4.5,3a21.83,21.83,0,0,0-3-1.25L69.81,10a4.17,4.17,0,0,0-.13-.42ZM60.81,17.08,62.1,10.7h4.21l1.28,6.39a1.79,1.79,0,0,0,1.28,1.37,17.4,17.4,0,0,1,4.21,1.74A1.77,1.77,0,0,0,75,20.14l5.39-3.61,3,3-3.62,5.4a1.77,1.77,0,0,0-.06,1.88A17.5,17.5,0,0,1,81.42,31a1.8,1.8,0,0,0,1.37,1.28l6.38,1.27v4.21l-6.39,1.28a1.8,1.8,0,0,0-1.37,1.29,17.4,17.4,0,0,1-1.74,4.21,1.77,1.77,0,0,0,.06,1.88l3.61,5.4-3,3L75,51.2a1.77,1.77,0,0,0-1.88-.06,18,18,0,0,1-4.21,1.75,1.77,1.77,0,0,0-1.29,1.37l-1.27,6.37H62.1l-1.28-6.38a1.8,1.8,0,0,0-1.29-1.37,17.6,17.6,0,0,1-4.21-1.75,1.79,1.79,0,0,0-1.88.06L48,54.8l-3-3,3.62-5.4a1.79,1.79,0,0,0,.06-1.89A17.67,17.67,0,0,1,47,40.33a1.76,1.76,0,0,0-1.36-1.28l-6.38-1.28V33.56l6.38-1.28A1.79,1.79,0,0,0,47,31a17.43,17.43,0,0,1,1.75-4.21,1.79,1.79,0,0,0-.06-1.89l-3.61-5.39,3-3,5.4,3.62a1.79,1.79,0,0,0,1.89.06,17.84,17.84,0,0,1,4.21-1.75A1.78,1.78,0,0,0,60.81,17.08Z"/><path id="Shape-8" data-name="Shape" class="cls-2" d="M64.2,48.15A12.48,12.48,0,1,0,51.72,35.67,12.49,12.49,0,0,0,64.2,48.15Zm0-21.4a8.92,8.92,0,1,1-8.91,8.92A8.92,8.92,0,0,1,64.2,26.75Z"/><circle id="Oval-3" data-name="Oval" class="cls-2" cx="64.2" cy="35.67" r="1.78"/><circle id="Oval-4" data-name="Oval" class="cls-2" cx="16.05" cy="37.45" r="1.78"/></g></g></g></g></svg>