<svg xmlns="http://www.w3.org/2000/svg" viewBox="0 0 113.78 112.78"><defs><style>.cls-1{fill:#7b0797;}.cls-2{fill:#280044;}</style></defs><g id="Layer_2" data-name="Layer 2"><g id="Layer_1-2" data-name="Layer 1"><path class="cls-1" d="M113,54.29c-10.25-12.49-32-27.07-55.64-27.07S11.92,41.9,1.75,54.29a3.32,3.32,0,0,0,0,4.2C12.25,71.28,34,85.56,57.39,85.56c24.22,0,45.83-15.12,55.64-27.07A3.32,3.32,0,0,0,113,54.29Zm-33.11,2.1A22.53,22.53,0,1,1,57.39,33.86,22.56,22.56,0,0,1,79.92,56.39Zm-71.12,0A80.11,80.11,0,0,1,34.17,38.76a29.09,29.09,0,0,0,0,35.25A78.5,78.5,0,0,1,8.8,56.39ZM80.61,74a29.09,29.09,0,0,0,0-35.25A78.5,78.5,0,0,1,106,56.39,80.11,80.11,0,0,1,80.61,74Z"/><path class="cls-1" d="M46.11,56.39A11.28,11.28,0,1,0,57.39,45.11,11.29,11.29,0,0,0,46.11,56.39Zm15.92,0a4.64,4.64,0,1,1-4.64-4.64A4.64,4.64,0,0,1,62,56.39Z"/><path class="cls-1" d="M57.39,14.37a3.32,3.32,0,0,0,3.32-3.31V3.32a3.32,3.32,0,1,0-6.64,0v7.74A3.32,3.32,0,0,0,57.39,14.37Z"/><path class="cls-1" d="M77.18,18.81a3.32,3.32,0,0,0,4.53-1.24l4.41-7.74a3.31,3.31,0,1,0-5.76-3.28l-4.42,7.74A3.32,3.32,0,0,0,77.18,18.81Z"/><path class="cls-1" d="M33.07,17.57a3.32,3.32,0,0,0,5.77-3.28L34.42,6.55a3.31,3.31,0,0,0-5.76,3.28Z"/><path class="cls-1" d="M57.39,98.4a3.32,3.32,0,0,0-3.32,3.32v7.74a3.32,3.32,0,1,0,6.64,0v-7.74A3.32,3.32,0,0,0,57.39,98.4Z"/><path class="cls-1" d="M37.6,94a3.32,3.32,0,0,0-4.53,1.24L28.66,103a3.31,3.31,0,0,0,5.76,3.28l4.42-7.74A3.32,3.32,0,0,0,37.6,94Z"/><path class="cls-1" d="M81.71,95.21a3.32,3.32,0,0,0-5.77,3.28l4.42,7.74A3.31,3.31,0,0,0,86.12,103Z"/><path class="cls-2" d="M112,54.29c-10.25-12.49-32-27.07-55.64-27.07S10.92,41.9.75,54.29a3.32,3.32,0,0,0,0,4.2C11.25,71.28,33,85.56,56.39,85.56c24.22,0,45.83-15.12,55.64-27.07A3.32,3.32,0,0,0,112,54.29Zm-33.11,2.1A22.53,22.53,0,1,1,56.39,33.86,22.56,22.56,0,0,1,78.92,56.39Zm-71.12,0A80.11,80.11,0,0,1,33.17,38.76a29.09,29.09,0,0,0,0,35.25A78.5,78.5,0,0,1,7.8,56.39ZM79.61,74a29.09,29.09,0,0,0,0-35.25A78.5,78.5,0,0,1,105,56.39,80.11,80.11,0,0,1,79.61,74Z"/><path class="cls-2" d="M45.11,56.39A11.28,11.28,0,1,0,56.39,45.11,11.29,11.29,0,0,0,45.11,56.39Zm15.92,0a4.64,4.64,0,1,1-4.64-4.64A4.64,4.64,0,0,1,61,56.39Z"/><path class="cls-2" d="M56.39,14.37a3.32,3.32,0,0,0,3.32-3.31V3.32a3.32,3.32,0,1,0-6.64,0v7.74A3.32,3.32,0,0,0,56.39,14.37Z"/><path class="cls-2" d="M76.18,18.81a3.32,3.32,0,0,0,4.53-1.24l4.41-7.74a3.31,3.31,0,1,0-5.76-3.28l-4.42,7.74A3.32,3.32,0,0,0,76.18,18.81Z"/><path class="cls-2" d="M32.07,17.57a3.32,3.32,0,0,0,5.77-3.28L33.42,6.55a3.31,3.31,0,0,0-5.76,3.28Z"/><path class="cls-2" d="M56.39,98.4a3.32,3.32,0,0,0-3.32,3.32v7.74a3.32,3.32,0,1,0,6.64,0v-7.74A3.32,3.32,0,0,0,56.39,98.4Z"/><path class="cls-2" d="M36.6,94a3.32,3.32,0,0,0-4.53,1.24L27.66,103a3.31,3.31,0,0,0,5.76,3.28l4.42-7.74A3.32,3.32,0,0,0,36.6,94Z"/><path class="cls-2" d="M80.71,95.21a3.32,3.32,0,0,0-5.77,3.28l4.42,7.74A3.31,3.31,0,0,0,85.12,103Z"/></g></g></svg>