<svg xmlns="http://www.w3.org/2000/svg" viewBox="0 0 111.18 99"><defs><style>.cls-1{fill:#7b0797;}.cls-2{fill:#280044;}</style></defs><g id="Layer_2" data-name="Layer 2"><g id="Layer_1-2" data-name="Layer 1"><path class="cls-1" d="M109.43,79.72,67.66,7.37a12.85,12.85,0,0,0-22.26,0L3.63,79.72A12.86,12.86,0,0,0,14.76,99H98.3a12.86,12.86,0,0,0,11.13-19.28Zm-5.54,9.65A6.39,6.39,0,0,1,98.3,92.6H14.76a6.46,6.46,0,0,1-5.59-9.68L51,10.57a6.45,6.45,0,0,1,11.17,0l41.77,72.35A6.41,6.41,0,0,1,103.89,89.37Z"/><rect class="cls-1" x="53.33" y="32.9" width="6.4" height="32.02"/><path class="cls-1" d="M56.53,71.32a4.27,4.27,0,1,0,4.27,4.26A4.27,4.27,0,0,0,56.53,71.32Z"/><path class="cls-2" d="M107.55,78.78,65.78,6.43a12.85,12.85,0,0,0-22.26,0L1.74,78.78A12.86,12.86,0,0,0,12.87,98.06H96.42a12.86,12.86,0,0,0,11.13-19.28ZM102,88.43a6.37,6.37,0,0,1-5.58,3.23H12.87A6.46,6.46,0,0,1,7.29,82L49.06,9.63a6.44,6.44,0,0,1,11.17,0L102,82A6.39,6.39,0,0,1,102,88.43Z"/><rect class="cls-2" x="51.44" y="31.95" width="6.4" height="32.02"/><path class="cls-2" d="M54.65,70.37a4.27,4.27,0,1,0,4.27,4.27A4.27,4.27,0,0,0,54.65,70.37Z"/></g></g></svg>