<svg xmlns="http://www.w3.org/2000/svg" viewBox="0 0 114 102.53"><defs><style>.cls-1{fill:#7b0797;}.cls-2{fill:#280044;}</style></defs><g id="Layer_2" data-name="Layer 2"><g id="Layer_1-2" data-name="Layer 1"><path class="cls-1" d="M57.53,23.12a2.21,2.21,0,1,0,2.2,2.2A2.2,2.2,0,0,0,57.53,23.12Z"/><path class="cls-1" d="M20.91,62.82a2.21,2.21,0,1,0-2.21-2.2A2.21,2.21,0,0,0,20.91,62.82Z"/><path class="cls-1" d="M75.18,1.06C55.32,1.06,39,14.75,37.76,32c-18.92.95-36.7,14.59-36.7,33a30.8,30.8,0,0,0,8.6,21.09A13.42,13.42,0,0,1,6.11,98.76a2.21,2.21,0,0,0,1.56,3.77,24.32,24.32,0,0,0,16.86-6.82,50.18,50.18,0,0,0,15.35,2.41C59.74,98.12,76,84.43,77.3,67.18a49.17,49.17,0,0,0,13.22-2.35,24.34,24.34,0,0,0,16.86,6.82,2.21,2.21,0,0,0,1.56-3.77,13.41,13.41,0,0,1-3.54-12.64,30.84,30.84,0,0,0,8.6-21.1C114,15,94.84,1.06,75.18,1.06ZM39.88,93.71A44.57,44.57,0,0,1,24.77,91.1a2.23,2.23,0,0,0-2.45.56,19.93,19.93,0,0,1-9.9,5.88,17.87,17.87,0,0,0,1.35-13.13,2.24,2.24,0,0,0-.54-.93A26.5,26.5,0,0,1,5.47,65c0-15.55,15.76-28.68,34.41-28.68C57.5,36.35,73,48.6,73,65,73,80.84,58.13,93.71,39.88,93.71Zm62-41.12a2.13,2.13,0,0,0-.54.93,17.81,17.81,0,0,0,1.34,13.13,19.93,19.93,0,0,1-9.9-5.87,2.19,2.19,0,0,0-2.44-.56,43.54,43.54,0,0,1-13,2.55,31.53,31.53,0,0,0-11.92-22H94.15a2.21,2.21,0,0,0,0-4.41H58.6A41.27,41.27,0,0,0,42.18,32c1.27-14.81,15.58-26.53,33-26.53,18.65,0,34.41,13.13,34.41,28.67A26.51,26.51,0,0,1,101.83,52.59Z"/><path class="cls-1" d="M57.53,58.41H29.73a2.21,2.21,0,0,0,0,4.41h27.8a2.21,2.21,0,0,0,0-4.41Z"/><path class="cls-1" d="M57.53,71.65H20.91a2.21,2.21,0,1,0,0,4.41H57.53a2.21,2.21,0,0,0,0-4.41Z"/><path class="cls-1" d="M94.15,23.12H66.35a2.21,2.21,0,0,0,0,4.41h27.8a2.21,2.21,0,0,0,0-4.41Z"/><path class="cls-2" d="M56.47,22.06a2.21,2.21,0,1,0,2.21,2.21A2.2,2.2,0,0,0,56.47,22.06Z"/><path class="cls-2" d="M19.85,61.77a2.21,2.21,0,1,0-2.2-2.21A2.21,2.21,0,0,0,19.85,61.77Z"/><path class="cls-2" d="M74.12,0C54.26,0,38,13.69,36.7,30.94,17.79,31.89,0,45.53,0,64a30.84,30.84,0,0,0,8.6,21.1A13.41,13.41,0,0,1,5.06,97.71a2.2,2.2,0,0,0,1.56,3.76,24.33,24.33,0,0,0,16.86-6.81,50.12,50.12,0,0,0,15.34,2.4c19.86,0,36.16-13.69,37.42-30.93a50,50,0,0,0,13.23-2.35,24.36,24.36,0,0,0,16.86,6.81,2.21,2.21,0,0,0,1.56-3.77,13.4,13.4,0,0,1-3.55-12.63,30.84,30.84,0,0,0,8.6-21.1C112.94,13.92,93.79,0,74.12,0ZM38.82,92.65a44.66,44.66,0,0,1-15.11-2.6,2.19,2.19,0,0,0-2.44.56,19.93,19.93,0,0,1-9.9,5.87,17.81,17.81,0,0,0,1.34-13.13,2.13,2.13,0,0,0-.54-.93A26.55,26.55,0,0,1,4.41,64c0-15.54,15.76-28.67,34.41-28.67C56.44,35.3,71.91,47.54,71.91,64,71.91,79.79,57.07,92.65,38.82,92.65Zm62-41.11a2.24,2.24,0,0,0-.54.93,17.87,17.87,0,0,0,1.35,13.13,19.79,19.79,0,0,1-9.9-5.88,2.23,2.23,0,0,0-2.45-.56,43.4,43.4,0,0,1-13,2.55,31.6,31.6,0,0,0-11.92-22H93.09a2.21,2.21,0,1,0,0-4.41H57.54A41.11,41.11,0,0,0,41.12,31c1.27-14.82,15.59-26.54,33-26.54,18.65,0,34.41,13.13,34.41,28.68A26.5,26.5,0,0,1,100.77,51.54Z"/><path class="cls-2" d="M56.47,57.35H28.68a2.21,2.21,0,0,0,0,4.42H56.47a2.21,2.21,0,0,0,0-4.42Z"/><path class="cls-2" d="M56.47,70.59H19.85a2.21,2.21,0,0,0,0,4.41H56.47a2.21,2.21,0,1,0,0-4.41Z"/><path class="cls-2" d="M93.09,22.06H65.3a2.21,2.21,0,1,0,0,4.41H93.09a2.21,2.21,0,1,0,0-4.41Z"/></g></g></svg>