<svg xmlns="http://www.w3.org/2000/svg" viewBox="0 0 85.78 78.42"><defs><style>.cls-1{fill:#7b0797;}.cls-2{fill:#280044;}</style></defs><g id="Layer_2" data-name="Layer 2"><g id="Layer_1-2" data-name="Layer 1"><path class="cls-1" d="M64.64.21a1.43,1.43,0,0,0-1.4,0l-38,19.72H5a5,5,0,0,0-5,5v27a5,5,0,0,0,5,5H25.21l38,19.72a1.53,1.53,0,0,0,.66.16,1.43,1.43,0,0,0,1.42-1.42h0V1.42A1.41,1.41,0,0,0,64.64.21ZM24.14,54H5a2.13,2.13,0,0,1-2.13-2.13v-27A2.13,2.13,0,0,1,5,22.72H24.14Zm38.34,19L27,54.52V22.16l35.5-18.4Z"/><path class="cls-1" d="M75.26,38.34a15.59,15.59,0,0,0-4.74-11.55,1.42,1.42,0,0,0-1.89,2.12,12.72,12.72,0,0,1,3.79,9.43,12.74,12.74,0,0,1-3.79,9.43,1.42,1.42,0,1,0,1.89,2.11A15.55,15.55,0,0,0,75.26,38.34Z"/><path class="cls-1" d="M81,22.2a22.28,22.28,0,0,0-10.9-9.69,1.42,1.42,0,0,0-1,2.65,19.43,19.43,0,0,1,9.46,8.49,28.9,28.9,0,0,1,3.83,14.69c0,10-4.82,19.08-12,22.6a1.42,1.42,0,0,0,1.24,2.56h0a22.9,22.9,0,0,0,9.82-9.82A32.12,32.12,0,0,0,85.2,38.34,31.79,31.79,0,0,0,81,22.2Z"/><path class="cls-2" d="M65.22,2a1.41,1.41,0,0,0-1.39,0l-38,19.71H5.55a5,5,0,0,0-5,5v27a5,5,0,0,0,5,5H25.79l38,19.72a1.33,1.33,0,0,0,.65.16A1.42,1.42,0,0,0,65.9,77h0V3.17A1.44,1.44,0,0,0,65.22,2ZM24.72,55.7H5.55a2.13,2.13,0,0,1-2.13-2.13v-27a2.14,2.14,0,0,1,2.13-2.13H24.72Zm38.34,19L27.56,56.26V23.91L63.06,5.5Z"/><path class="cls-2" d="M75.84,40.08a15.58,15.58,0,0,0-4.73-11.54,1.42,1.42,0,1,0-1.9,2.11A12.74,12.74,0,0,1,73,40.08a12.76,12.76,0,0,1-3.79,9.44,1.42,1.42,0,1,0,1.9,2.11A15.61,15.61,0,0,0,75.84,40.08Z"/><path class="cls-2" d="M81.56,24a22.26,22.26,0,0,0-10.89-9.69,1.42,1.42,0,1,0-1,2.65,19.41,19.41,0,0,1,9.46,8.48,28.85,28.85,0,0,1,3.83,14.69c0,10-4.82,19.08-12,22.61a1.42,1.42,0,0,0,1.24,2.55h0A22.93,22.93,0,0,0,82,55.41a32.06,32.06,0,0,0,3.76-15.33A31.73,31.73,0,0,0,81.56,24Z"/></g></g></svg>