<svg xmlns="http://www.w3.org/2000/svg" viewBox="0 0 102.56 116"><defs><style>.cls-1{fill:#7b0797;}.cls-2{fill:#280044;}</style></defs><g id="Layer_2" data-name="Layer 2"><g id="Layer_1-2" data-name="Layer 1"><path class="cls-1" d="M69.74,37.12a2.22,2.22,0,0,0-1.81-1.52l-9.77-1.42-4.37-8.85a2.25,2.25,0,0,0-2-1.26h0a2.25,2.25,0,0,0-2,1.26l-4.37,8.85L35.62,35.6a2.25,2.25,0,0,0-1.24,3.84l7.07,6.89-1.67,9.73a2.25,2.25,0,0,0,.9,2.19,2.19,2.19,0,0,0,1.32.43,2.11,2.11,0,0,0,1-.26l8.74-4.59,8.74,4.59a2.24,2.24,0,0,0,3.26-2.37l-1.67-9.73,7.07-6.89A2.25,2.25,0,0,0,69.74,37.12ZM58.13,43.93a2.26,2.26,0,0,0-.65,2l1.1,6.41-5.75-3a2.27,2.27,0,0,0-2.09,0l-5.76,3,1.1-6.41a2.27,2.27,0,0,0-.65-2l-4.66-4.54,6.44-.93a2.27,2.27,0,0,0,1.69-1.23l2.88-5.83,2.88,5.83a2.22,2.22,0,0,0,1.69,1.22l6.43.94Z"/><path class="cls-1" d="M102.26,99.69,83.69,67.39a40.88,40.88,0,1,0-63.83,0L1.3,99.69A2.24,2.24,0,0,0,3.54,103L18,101.09l5.56,13.52A2.25,2.25,0,0,0,25.52,116h.15a2.28,2.28,0,0,0,1.95-1.12L46.36,82.41h0a40.83,40.83,0,0,0,10.82,0h0l18.74,32.47A2.26,2.26,0,0,0,77.88,116H78A2.25,2.25,0,0,0,80,114.61l5.56-13.52L100,103a2.24,2.24,0,0,0,2.17-1A2.27,2.27,0,0,0,102.26,99.69Zm-76.25,9L22,98.83,25.6,92.9a2.24,2.24,0,1,0-3.83-2.34l-3.67,6L7.47,98,23,70.91A40.81,40.81,0,0,0,41.7,81.5Zm25.77-30.4A36.39,36.39,0,1,1,88.16,41.88,36.43,36.43,0,0,1,51.78,78.27ZM85.46,96.55l-3.67-6A2.24,2.24,0,1,0,78,92.9l3.63,5.93-4,9.84L61.85,81.5A40.84,40.84,0,0,0,80.53,70.91L96.09,98Z"/><path class="cls-1" d="M51.78,12.68a29.15,29.15,0,0,0-14.3,3.74,2.24,2.24,0,1,0,2.2,3.91A24.72,24.72,0,0,1,74.09,52.51a2.25,2.25,0,0,0,1.06,3,2.34,2.34,0,0,0,1,.21,2.25,2.25,0,0,0,2-1.27A29.21,29.21,0,0,0,51.78,12.68Z"/><path class="cls-1" d="M72.68,59a2.25,2.25,0,0,0-3.18.05l0,0a2.25,2.25,0,0,0,0,3.18,2.23,2.23,0,0,0,1.57.64,2.26,2.26,0,0,0,1.61-.68l.06-.06A2.25,2.25,0,0,0,72.68,59Z"/><path class="cls-1" d="M66.73,64.42a2.25,2.25,0,0,0-3.05-.89,24.72,24.72,0,0,1-34.4-31.88,2.25,2.25,0,1,0-4.09-1.86A29.21,29.21,0,0,0,65.85,67.47,2.24,2.24,0,0,0,66.73,64.42Z"/><path class="cls-1" d="M33.58,21.87a2.23,2.23,0,0,0-3.17.11l-.05.05a2.25,2.25,0,0,0,3.3,3l0,0A2.24,2.24,0,0,0,33.58,21.87Z"/><path class="cls-2" d="M68.74,36.12a2.22,2.22,0,0,0-1.81-1.52l-9.77-1.42-4.37-8.85a2.25,2.25,0,0,0-2-1.26h0a2.25,2.25,0,0,0-2,1.26l-4.37,8.85L34.62,34.6a2.25,2.25,0,0,0-1.24,3.84l7.07,6.89-1.67,9.73a2.25,2.25,0,0,0,.9,2.19,2.19,2.19,0,0,0,1.32.43,2.11,2.11,0,0,0,1-.26l8.74-4.59,8.74,4.59a2.24,2.24,0,0,0,3.26-2.37l-1.67-9.73,7.07-6.89A2.25,2.25,0,0,0,68.74,36.12ZM57.13,42.93a2.26,2.26,0,0,0-.65,2l1.1,6.41-5.75-3a2.27,2.27,0,0,0-2.09,0l-5.76,3,1.1-6.41a2.27,2.27,0,0,0-.65-2l-4.66-4.54,6.44-.93a2.27,2.27,0,0,0,1.69-1.23l2.88-5.83,2.88,5.83a2.22,2.22,0,0,0,1.69,1.22l6.43.94Z"/><path class="cls-2" d="M101.26,98.69,82.69,66.39a40.88,40.88,0,1,0-63.83,0L.3,98.69A2.24,2.24,0,0,0,2.54,102L17,100.09l5.56,13.52A2.25,2.25,0,0,0,24.52,115h.15a2.28,2.28,0,0,0,1.95-1.12L45.36,81.41h0a40.83,40.83,0,0,0,10.82,0h0l18.74,32.47A2.26,2.26,0,0,0,76.88,115H77A2.25,2.25,0,0,0,79,113.61l5.56-13.52L99,102a2.24,2.24,0,0,0,2.17-1A2.27,2.27,0,0,0,101.26,98.69Zm-76.25,9L21,97.83,24.6,91.9a2.24,2.24,0,1,0-3.83-2.34l-3.67,6L6.47,97,22,69.91A40.81,40.81,0,0,0,40.7,80.5Zm25.77-30.4A36.39,36.39,0,1,1,87.16,40.88,36.43,36.43,0,0,1,50.78,77.27ZM84.46,95.55l-3.67-6A2.24,2.24,0,1,0,77,91.9l3.63,5.93-4,9.84L60.85,80.5A40.84,40.84,0,0,0,79.53,69.91L95.09,97Z"/><path class="cls-2" d="M50.78,11.68a29.15,29.15,0,0,0-14.3,3.74,2.24,2.24,0,1,0,2.2,3.91A24.72,24.72,0,0,1,73.09,51.51a2.25,2.25,0,0,0,1.06,3,2.34,2.34,0,0,0,1,.21,2.25,2.25,0,0,0,2-1.27A29.21,29.21,0,0,0,50.78,11.68Z"/><path class="cls-2" d="M71.68,58a2.25,2.25,0,0,0-3.18.05l0,0a2.25,2.25,0,0,0,0,3.18,2.23,2.23,0,0,0,1.57.64,2.26,2.26,0,0,0,1.61-.68l.06-.06A2.25,2.25,0,0,0,71.68,58Z"/><path class="cls-2" d="M65.73,63.42a2.25,2.25,0,0,0-3.05-.89,24.72,24.72,0,0,1-34.4-31.88,2.25,2.25,0,1,0-4.09-1.86A29.21,29.21,0,0,0,64.85,66.47,2.24,2.24,0,0,0,65.73,63.42Z"/><path class="cls-2" d="M32.58,20.87a2.23,2.23,0,0,0-3.17.11l-.05.05a2.25,2.25,0,0,0,3.3,3l0,0A2.24,2.24,0,0,0,32.58,20.87Z"/></g></g></svg>