<svg xmlns="http://www.w3.org/2000/svg" xmlns:xlink="http://www.w3.org/1999/xlink" viewBox="0 0 382.22 282.4"><defs><style>.cls-1{isolation:isolate;}.cls-2{fill:#d300ab;}.cls-3{fill:#001d5d;}.cls-4{fill:#0044b9;}.cls-5{fill:#0064d1;}.cls-36,.cls-6{fill:#fff;}.cls-6{opacity:0.2;}.cls-7{fill:#006ac9;}.cls-8{fill:#00cea3;}.cls-9{fill:#07f7ae;}.cls-10{fill:#00d0a2;}.cls-11{fill:#ef22b0;}.cls-12{fill:#b500ac;}.cls-13{fill:#00a1e5;}.cls-14{mix-blend-mode:color-burn;}.cls-15{fill:url(#linear-gradient);}.cls-16{fill:url(#linear-gradient-2);}.cls-17{fill:url(#linear-gradient-3);}.cls-18{fill:url(#linear-gradient-4);}.cls-19{fill:url(#linear-gradient-5);}.cls-20{fill:url(#linear-gradient-6);}.cls-21{fill:url(#linear-gradient-7);}.cls-22{fill:url(#linear-gradient-8);}.cls-23{fill:url(#linear-gradient-9);}.cls-24{fill:url(#linear-gradient-10);}.cls-25{fill:url(#linear-gradient-11);}.cls-26{fill:url(#linear-gradient-12);}.cls-27{fill:url(#linear-gradient-13);}.cls-28{fill:url(#linear-gradient-14);}.cls-29{fill:url(#linear-gradient-15);}.cls-30{fill:url(#linear-gradient-16);}.cls-31{fill:url(#linear-gradient-17);}.cls-32{fill:url(#linear-gradient-18);}.cls-33{fill:url(#linear-gradient-19);}.cls-34{fill:url(#linear-gradient-20);}.cls-35{fill:url(#linear-gradient-21);}</style><linearGradient id="linear-gradient" x1="37.92" y1="151.44" x2="37.92" y2="199.39" gradientUnits="userSpaceOnUse"><stop offset="0" stop-color="#9e28b5" stop-opacity="0"/><stop offset="1" stop-color="#5400b3" stop-opacity="0.5"/></linearGradient><linearGradient id="linear-gradient-2" x1="63.72" y1="151.44" x2="63.72" y2="199.39" xlink:href="#linear-gradient"/><linearGradient id="linear-gradient-3" x1="95.68" y1="151.44" x2="95.68" y2="199.39" xlink:href="#linear-gradient"/><linearGradient id="linear-gradient-4" x1="129.18" y1="151.44" x2="129.18" y2="199.39" xlink:href="#linear-gradient"/><linearGradient id="linear-gradient-5" x1="154.76" y1="151.44" x2="154.76" y2="199.39" xlink:href="#linear-gradient"/><linearGradient id="linear-gradient-6" x1="189.19" y1="151.44" x2="189.19" y2="199.39" xlink:href="#linear-gradient"/><linearGradient id="linear-gradient-7" x1="218.98" y1="151.44" x2="218.98" y2="199.39" xlink:href="#linear-gradient"/><linearGradient id="linear-gradient-8" x1="252.12" y1="151.44" x2="252.12" y2="199.39" xlink:href="#linear-gradient"/><linearGradient id="linear-gradient-9" x1="281.73" y1="151.44" x2="281.73" y2="199.39" xlink:href="#linear-gradient"/><linearGradient id="linear-gradient-10" x1="311.3" y1="151.44" x2="311.3" y2="199.39" xlink:href="#linear-gradient"/><linearGradient id="linear-gradient-11" x1="357.04" y1="151.44" x2="357.04" y2="199.39" xlink:href="#linear-gradient"/><linearGradient id="linear-gradient-12" x1="389.7" y1="151.44" x2="389.7" y2="199.39" xlink:href="#linear-gradient"/><linearGradient id="linear-gradient-13" x1="78" y1="222.78" x2="78" y2="256.17" xlink:href="#linear-gradient"/><linearGradient id="linear-gradient-14" x1="107.33" y1="222.78" x2="107.33" y2="256.17" xlink:href="#linear-gradient"/><linearGradient id="linear-gradient-15" x1="145.31" y1="222.78" x2="145.31" y2="256.17" xlink:href="#linear-gradient"/><linearGradient id="linear-gradient-16" x1="173.02" y1="222.78" x2="173.02" y2="256.17" xlink:href="#linear-gradient"/><linearGradient id="linear-gradient-17" x1="203.16" y1="222.78" x2="203.16" y2="256.17" xlink:href="#linear-gradient"/><linearGradient id="linear-gradient-18" x1="231.18" y1="222.78" x2="231.18" y2="256.17" xlink:href="#linear-gradient"/><linearGradient id="linear-gradient-19" x1="266.36" y1="222.78" x2="266.36" y2="256.17" xlink:href="#linear-gradient"/><linearGradient id="linear-gradient-20" x1="297.58" y1="222.78" x2="297.58" y2="256.17" xlink:href="#linear-gradient"/><linearGradient id="linear-gradient-21" x1="330.32" y1="222.78" x2="330.32" y2="256.17" xlink:href="#linear-gradient"/></defs><g class="cls-1"><g id="Layer_2" data-name="Layer 2"><g id="Layer_1-2" data-name="Layer 1"><path class="cls-2" d="M215.14,100.75h-4.57v-11H196.24c-7.78,0-14.08-5.78-14.08-12.92V57.28c0-12,10.55-21.63,23.57-21.63h4c13,0,23.57,9.68,23.57,21.63V82.55A18.2,18.2,0,0,1,215.14,100.75Z" transform="translate(-26.4)"/><path class="cls-3" d="M240,88.88a207.05,207.05,0,0,0-61.4-20.48c2.19-13.16,3.22-22.84,5.4-36a246.82,246.82,0,0,1,73.28,24.43C251.12,68.68,246.14,77,240,88.88Z" transform="translate(-26.4)"/><circle class="cls-4" cx="187.31" cy="41.87" r="16.61" transform="translate(-22.4 98.75) rotate(-29.84)"/><circle class="cls-4" cx="134.46" cy="76.74" r="12.89"/><polygon class="cls-4" points="173 53.26 143.89 85.54 123.45 70.04 146.68 33.3 173 53.26"/><path class="cls-5" d="M155.37,61.3,154.31,63s15.65.19,24.43,13.22l1.35-1.54C171.2,61.49,155.37,61.3,155.37,61.3Z" transform="translate(-26.4)"/><path class="cls-6" d="M157.54,86.13a10.28,10.28,0,0,1-2.87-1.52,9.93,9.93,0,0,1-2.51-13.06l0,0,15.21-24.06a1.84,1.84,0,0,1,3.11,2l-15.2,24a6.25,6.25,0,0,0,1.6,8.21,6.38,6.38,0,0,0,1.8,1,1.84,1.84,0,1,1-1.16,3.49Z" transform="translate(-26.4)"/><circle class="cls-4" cx="248.94" cy="62.42" r="16.61" transform="translate(130.89 302.14) rotate(-83.15)"/><circle class="cls-4" cx="249.16" cy="106.19" r="12.89" transform="translate(-27.41 209.97) rotate(-45.61)"/><polygon class="cls-4" points="206.04 64.28 209.95 107.57 235.59 107.44 239.06 64.11 206.04 64.28"/><path class="cls-5" d="M262.83,97.13l-.17,2S250,89.88,235.19,95L235,93C250.06,87.78,262.83,97.13,262.83,97.13Z" transform="translate(-26.4)"/><path class="cls-6" d="M245.84,115.57a10,10,0,0,1-6.74-8.33v0l-.8-8.84A1.84,1.84,0,1,1,242,98l.8,8.82A6.26,6.26,0,0,0,249,112.4a1.84,1.84,0,1,1,0,3.68A10.16,10.16,0,0,1,245.84,115.57Z" transform="translate(-26.4)"/><circle class="cls-5" cx="187.31" cy="41.87" r="14.29" transform="translate(71.04 211.46) rotate(-74.68)"/><path class="cls-7" d="M183.37,53.68a12.45,12.45,0,1,1,15.75-7.87A12.46,12.46,0,0,1,183.37,53.68Z" transform="translate(-26.4)"/><path class="cls-8" d="M195.17,41.8l-4.63-1.55,1.54-4.63a1.14,1.14,0,0,0-.72-1.45l-2.67-.89a1.14,1.14,0,0,0-1.45.73l-1.55,4.63-4.63-1.55a1.15,1.15,0,0,0-1.45.73l-.89,2.67a1.14,1.14,0,0,0,.72,1.45l4.64,1.55-1.55,4.63a1.15,1.15,0,0,0,.73,1.45l2.67.89a1.14,1.14,0,0,0,1.45-.73l1.54-4.63,4.64,1.55a1.15,1.15,0,0,0,1.45-.73l.89-2.67A1.15,1.15,0,0,0,195.17,41.8Z" transform="translate(-26.4)"/><polygon class="cls-9" points="158.09 48.04 160 42.32 154.28 40.42 154.74 39.05 160.46 40.96 162.36 35.24 163.72 35.7 161.82 41.42 167.54 43.32 167.08 44.69 161.36 42.78 159.46 48.5 158.09 48.04"/><circle class="cls-5" cx="248.94" cy="62.42" r="14.29" transform="translate(96.57 286.03) rotate(-74.68)"/><path class="cls-7" d="M245,74.23a12.45,12.45,0,1,1,15.75-7.87A12.46,12.46,0,0,1,245,74.23Z" transform="translate(-26.4)"/><circle class="cls-8" cx="251.07" cy="56.02" r="3.76" transform="translate(-28.94 99.1) rotate(-22.22)"/><path class="cls-9" d="M250.47,57.85a1.92,1.92,0,1,1,2.43-1.22A1.93,1.93,0,0,1,250.47,57.85Z" transform="translate(-26.4)"/><path class="cls-8" d="M250.37,70A3.76,3.76,0,1,1,248,65.25,3.76,3.76,0,0,1,250.37,70Z" transform="translate(-26.4)"/><path class="cls-9" d="M246.2,70.65a1.92,1.92,0,1,1,2.43-1.22A1.93,1.93,0,0,1,246.2,70.65Z" transform="translate(-26.4)"/><path class="cls-8" d="M254.15,68.13a3.76,3.76,0,1,1,4.76-2.38A3.76,3.76,0,0,1,254.15,68.13Z" transform="translate(-26.4)"/><path class="cls-9" d="M254.73,66.38a1.92,1.92,0,1,1,2.44-1.21A1.93,1.93,0,0,1,254.73,66.38Z" transform="translate(-26.4)"/><path class="cls-8" d="M241.35,63.86a3.76,3.76,0,1,1,4.76-2.38A3.76,3.76,0,0,1,241.35,63.86Z" transform="translate(-26.4)"/><path class="cls-9" d="M241.93,62.11a1.92,1.92,0,1,1,2.43-1.21A1.92,1.92,0,0,1,241.93,62.11Z" transform="translate(-26.4)"/><path class="cls-10" d="M207.06,73.89A8.57,8.57,0,1,1,201.64,63,8.57,8.57,0,0,1,207.06,73.89Z" transform="translate(-26.4)"/><path class="cls-9" d="M197.37,75.83a4.9,4.9,0,1,1,6.21-3.1A4.91,4.91,0,0,1,197.37,75.83Z" transform="translate(-26.4)"/><path class="cls-10" d="M230.19,81.61a8.58,8.58,0,1,1-5.42-10.86A8.57,8.57,0,0,1,230.19,81.61Z" transform="translate(-26.4)"/><path class="cls-9" d="M220.51,83.54a4.9,4.9,0,1,1,6.2-3.1A4.89,4.89,0,0,1,220.51,83.54Z" transform="translate(-26.4)"/><path class="cls-11" d="M210.25,48.65h0a5.93,5.93,0,0,1-4.09-7.32l3-10.66a2.59,2.59,0,0,1,3.19-1.79l6.44,1.82a2.59,2.59,0,0,1,1.78,3.19l-3,10.66A5.94,5.94,0,0,1,210.25,48.65Z" transform="translate(-26.4)"/><path class="cls-11" d="M201.55,43.48h0a4.64,4.64,0,0,1-3.76-5.37l1.5-8.54a2,2,0,0,1,2.34-1.64l5.15.91a2,2,0,0,1,1.64,2.34l-1.5,8.53A4.64,4.64,0,0,1,201.55,43.48Z" transform="translate(-26.4)"/><path class="cls-11" d="M218.8,52.07h0a5.93,5.93,0,0,1-1.31-8.29l6.51-9a2.57,2.57,0,0,1,3.6-.57L233,38.18a2.59,2.59,0,0,1,.57,3.61l-6.51,9A5.93,5.93,0,0,1,218.8,52.07Z" transform="translate(-26.4)"/><path class="cls-11" d="M226,58h0a5.93,5.93,0,0,1,1.33-8.28l9-6.48a2.58,2.58,0,0,1,3.61.58l3.92,5.43a2.59,2.59,0,0,1-.58,3.6l-9,6.49A5.93,5.93,0,0,1,226,58Z" transform="translate(-26.4)"/><polygon class="cls-2" points="197.95 131.11 167.87 131.11 165.66 89.06 199.79 89.06 197.95 131.11"/><path class="cls-11" d="M203.83,58.93h0a10.75,10.75,0,0,1-11.25,10.23l-7.84-.38a2.81,2.81,0,0,1-2.68-3l.35-7.32a2.81,2.81,0,0,1,3-2.68l16.37.78A2.21,2.21,0,0,1,203.83,58.93Z" transform="translate(-26.4)"/><path class="cls-11" d="M185.36,55.83h0a6.49,6.49,0,0,1,6.17,6.79L191,78.39a2.83,2.83,0,0,1-3,2.69l-7.31-.35a2.81,2.81,0,0,1-2.68-3L178.57,62A6.49,6.49,0,0,1,185.36,55.83Z" transform="translate(-26.4)"/><path class="cls-11" d="M180.5,72.5h0c3.13-2.84,7.4-2.54,10.89-1.71,7.41,1.76,12.39,7.09,15.42,11.65A7.3,7.3,0,0,1,204,93l-10.49,5.27L180,83.3A7.64,7.64,0,0,1,180.5,72.5Z" transform="translate(-26.4)"/><path class="cls-12" d="M224.35,131.11,225.8,97c-1.7-.14-3.17-.08-4.4,2.11a16.11,16.11,0,0,0-1.58,6.59c-.44,5.74-.55,19.56-.58,25.37Z" transform="translate(-26.4)"/><path class="cls-11" d="M167.05,11.18A5.78,5.78,0,1,0,172.83,17,5.79,5.79,0,0,0,167.05,11.18Zm0,10.19A4.42,4.42,0,1,1,171.47,17,4.42,4.42,0,0,1,167.05,21.37Z" transform="translate(-26.4)"/><path class="cls-9" d="M147.68,97.92a5.78,5.78,0,1,0,5.78,5.77A5.78,5.78,0,0,0,147.68,97.92Zm0,10.19a4.42,4.42,0,1,1,4.42-4.42A4.42,4.42,0,0,1,147.68,108.11Z" transform="translate(-26.4)"/><path class="cls-11" d="M185.71,118.54l-3.13-3.12,3.13-3.13a.68.68,0,1,0-1-1l-3.13,3.13-3.12-3.13a.68.68,0,1,0-1,1l3.13,3.13-3.13,3.12a.69.69,0,0,0,0,1,.67.67,0,0,0,1,0l3.12-3.13,3.13,3.13a.67.67,0,0,0,1,0A.69.69,0,0,0,185.71,118.54Z" transform="translate(-26.4)"/><path class="cls-5" d="M151.39,34.06l.25-4.42,4.41.25a.68.68,0,1,0,.08-1.35l-4.42-.25.25-4.41a.68.68,0,1,0-1.35-.08l-.25,4.42L146,28a.68.68,0,1,0-.08,1.35l4.42.25L150,34a.68.68,0,1,0,1.35.08Z" transform="translate(-26.4)"/><path class="cls-9" d="M235.87,17.87a.63.63,0,0,1-.45-.42L232.06,6.76a.65.65,0,0,1,.13-.6.61.61,0,0,1,.59-.18l10.94,2.44a.57.57,0,0,1,.45.41.58.58,0,0,1-.13.59l-7.59,8.26A.63.63,0,0,1,235.87,17.87ZM233.54,7.4l2.73,8.68,6.16-6.7Z" transform="translate(-26.4)"/><path class="cls-5" d="M261,32.7l-8.5-4.62a.59.59,0,0,1-.23-.8l4.62-8.5a.6.6,0,0,1,.8-.24l8.5,4.63a.59.59,0,0,1,.24.8l-4.63,8.49A.58.58,0,0,1,261,32.7Zm-7.41-5.38L261,31.38l4.05-7.46-7.45-4.05Z" transform="translate(-26.4)"/><rect class="cls-13" x="132.79" y="131.14" width="93.81" height="3.53"/><path class="cls-5" d="M240.86.76A.76.76,0,1,1,240.1,0,.76.76,0,0,1,240.86.76Z" transform="translate(-26.4)"/><path class="cls-5" d="M230,3.79a.76.76,0,1,1-.76-.76A.76.76,0,0,1,230,3.79Z" transform="translate(-26.4)"/><path class="cls-5" d="M244.47,24.3a.76.76,0,1,1-.76-.76A.76.76,0,0,1,244.47,24.3Z" transform="translate(-26.4)"/><path class="cls-5" d="M264,13.65a.76.76,0,0,1-1.52,0,.76.76,0,0,1,1.52,0Z" transform="translate(-26.4)"/><path class="cls-5" d="M156,118.57a.74.74,0,0,1,1-.29.76.76,0,1,1-.75,1.32A.75.75,0,0,1,156,118.57Z" transform="translate(-26.4)"/><path class="cls-5" d="M166.88,121.25a.76.76,0,0,1,1-.29.78.78,0,0,1,.29,1,.76.76,0,0,1-1,.28A.75.75,0,0,1,166.88,121.25Z" transform="translate(-26.4)"/><path class="cls-5" d="M164.36,96.28a.75.75,0,0,1,1-.28.74.74,0,0,1,.29,1,.76.76,0,1,1-1.32-.75Z" transform="translate(-26.4)"/><path class="cls-5" d="M157,9a.76.76,0,0,1,.58.9.76.76,0,1,1-1.48-.33A.75.75,0,0,1,157,9Z" transform="translate(-26.4)"/><path class="cls-5" d="M157.59,20.23a.76.76,0,0,1,.58.9.76.76,0,1,1-1.48-.33A.75.75,0,0,1,157.59,20.23Z" transform="translate(-26.4)"/><path class="cls-5" d="M180.77,10.6a.76.76,0,0,1-.33,1.48.77.77,0,0,1-.58-.91A.76.76,0,0,1,180.77,10.6Z" transform="translate(-26.4)"/><g class="cls-14"><path class="cls-15" d="M42,163.09h7.4L33.8,210.18H26.4Z" transform="translate(-26.4)"/><path class="cls-16" d="M62.15,176.08l-11.33,34.1H44.16L59.8,163.09h9.29l-1.77,28.19,9.37-28.19h6.59L67.64,210.18H60Z" transform="translate(-26.4)"/><path class="cls-17" d="M103.78,162.55c7.2,0,9.47,4.31,7,11.84l-.49,1.48h-7l.65-2c1.12-3.36.2-4.64-2.15-4.64s-4.13,1.28-5.25,4.64c-3.22,9.69,10.65,11.51,6.18,25-2.51,7.54-7.71,11.84-15,11.84s-9.61-4.3-7.1-11.84l1-2.89h7l-1.12,3.36c-1.12,3.37,0,4.58,2.31,4.58s4.24-1.21,5.36-4.58c3.22-9.68-10.64-11.5-6.17-25C91.45,166.86,96.58,162.55,103.78,162.55Z" transform="translate(-26.4)"/><path class="cls-18" d="M121.7,163.09h22.87l-2.23,6.73H134.6l-13.41,40.36h-7.4l13.41-40.36h-7.74Z" transform="translate(-26.4)"/><path class="cls-19" d="M152.67,210.18c0-1.21,0-2,1.25-5.78l2.46-7.4c1.45-4.37.51-6-2.85-6H151l-6.37,19.17h-7.4l15.65-47.09H164c7.67,0,9.78,3.57,7.37,10.83l-1.23,3.7c-1.61,4.85-4.21,8-8,9.56,3.19,1.54,3.22,5.11,1.58,10l-2.41,7.27a14.07,14.07,0,0,0-1.09,5.71ZM158,169.82l-4.8,14.46h2.89c2.76,0,4.84-1.21,6.09-5l1.54-4.64c1.12-3.36.47-4.84-2.15-4.84Z" transform="translate(-26.4)"/><path class="cls-20" d="M192,163.09l-12.07,36.33c-1.12,3.36,0,4.57,2.32,4.57s4.23-1.21,5.35-4.57l12.07-36.33h7L194.75,199c-2.5,7.53-7.7,11.84-15,11.84s-9.61-4.31-7.1-11.84l11.91-35.86Z" transform="translate(-26.4)"/><path class="cls-21" d="M228.41,192.63l-2.08,6.25c-2.33,7-7,11.24-13.47,11.78l-.71,2.15c3.29,0,4.71.81,3.93,3.16-1.21,3.63-4.19,4.1-8.16,4.1-3.7,0-6.19-.8-5.16-3.9l.22-.67h5l-.18.54c-.34,1,.29,1.34,1,1.34a2.08,2.08,0,0,0,2.22-1.61c.42-1.28-.23-1.75-1.84-1.75h-.67l1.14-3.43c-5.93-.61-7.7-4.78-5.4-11.71l8.14-24.49c2.5-7.53,7.7-11.84,15-11.84s9.61,4.31,7.1,11.84L232.94,179h-7l1.67-5.05c1.12-3.36.07-4.64-2.29-4.64s-4.26,1.28-5.38,4.64l-8.44,25.43c-1.12,3.37,0,4.58,2.31,4.58s4.24-1.21,5.35-4.58l2.24-6.72Z" transform="translate(-26.4)"/><path class="cls-22" d="M243.41,174.39c2.5-7.53,7.9-11.84,15.17-11.84s9.8,4.31,7.3,11.84l-8.13,24.49c-2.51,7.54-7.91,11.84-15.17,11.84s-9.81-4.3-7.3-11.84Zm-.89,25c-1.12,3.37-.06,4.64,2.29,4.64s4.26-1.27,5.38-4.64l8.45-25.43c1.11-3.36.06-4.64-2.3-4.64s-4.26,1.28-5.37,4.64Zm24.64-45.81L269.9,156c-2.42,3.43-4.89,4.57-7.24,4.57-2.83,0-3.48-1.68-5.5-1.68-1.21,0-2.17.27-3.54,2l-2.74-2.49c2.42-3.43,4.89-4.57,7.24-4.57,2.83,0,3.48,1.68,5.5,1.68C264.83,155.49,265.79,155.22,267.16,153.54Z" transform="translate(-26.4)"/><path class="cls-23" d="M280.26,182.94h10.16l-2.23,6.73H278l-4.58,13.79h12.78L284,210.18H263.81l15.65-47.09h20.18l-2.24,6.73H284.62Z" transform="translate(-26.4)"/><path class="cls-24" d="M319.4,162.55c7.19,0,9.47,4.31,7,11.84l-.49,1.48h-7l.65-2c1.12-3.36.2-4.64-2.16-4.64s-4.12,1.28-5.24,4.64c-3.22,9.69,10.64,11.51,6.17,25-2.5,7.54-7.7,11.84-15,11.84s-9.61-4.3-7.1-11.84l1-2.89h7l-1.11,3.36c-1.12,3.37,0,4.58,2.31,4.58s4.24-1.21,5.36-4.58c3.22-9.68-10.65-11.5-6.18-25C307.07,166.86,312.2,162.55,319.4,162.55Z" transform="translate(-26.4)"/><path class="cls-25" d="M354.94,163.09h11.71c7.4,0,9.67,4.1,7.16,11.64l-7.91,23.82c-2.5,7.53-7.5,11.63-14.9,11.63H339.3Zm5.17,6.73-11.18,33.64h4.17c2.36,0,4.17-1.21,5.29-4.58l8.14-24.49c1.11-3.36.1-4.57-2.25-4.57Z" transform="translate(-26.4)"/><path class="cls-26" d="M388.24,182.94H398.4l-2.23,6.73H386l-4.59,13.79h12.79L392,210.18H371.79l15.65-47.09h20.18l-2.24,6.73H392.6Z" transform="translate(-26.4)"/></g><path class="cls-27" d="M76.43,238.4,65.09,272.51H58.43l15.65-47.09h9.28L81.6,253.61,91,225.42h6.6L81.91,272.51h-7.6Z" transform="translate(-26.4)"/><path class="cls-28" d="M116.22,272.51h-7.46l1.56-8.54h-9.09l-4.11,8.54h-6.8l23.18-47.09h10.83ZM104.3,257.58h7.13l4.35-23.82Z" transform="translate(-26.4)"/><path class="cls-29" d="M137.07,263.83l18.41-38.41h6.8l-22.91,47.09h-11l8.38-47.09h7.47Z" transform="translate(-26.4)"/><path class="cls-30" d="M171.56,245.27h10.16L179.49,252H169.33l-4.58,13.8h12.78l-2.24,6.72H155.11l15.64-47.09h20.19l-2.24,6.73H175.92Z" transform="translate(-26.4)"/><path class="cls-31" d="M204.73,246.28h10.36l-5,14.93c-2.5,7.54-7.7,11.84-15,11.84s-9.6-4.3-7.1-11.84l8.14-24.49c2.5-7.53,7.7-11.84,15-11.84s9.61,4.31,7.1,11.84l-1.52,4.58h-7l1.67-5.05c1.12-3.36.07-4.64-2.29-4.64s-4.26,1.28-5.38,4.64l-8.44,25.43c-1.12,3.37,0,4.58,2.31,4.58s4.24-1.21,5.35-4.58l2.89-8.68h-3.37Z" transform="translate(-26.4)"/><path class="cls-32" d="M240.08,272.51h-7.47l1.56-8.54h-9.08L221,272.51h-6.79l23.18-47.09h10.83Zm-11.92-14.93h7.13l4.34-23.82Z" transform="translate(-26.4)"/><path class="cls-33" d="M275.79,255l-2.08,6.26c-2.33,7-7,11.24-13.47,11.77l-.71,2.16c3.29,0,4.71.8,3.92,3.16-1.2,3.63-4.18,4.1-8.15,4.1-3.7,0-6.19-.8-5.17-3.9l.23-.67h5l-.18.54c-.34,1,.29,1.34,1,1.34a2.09,2.09,0,0,0,2.22-1.61c.42-1.28-.23-1.75-1.84-1.75h-.67l1.14-3.43c-5.93-.61-7.7-4.78-5.4-11.71l8.14-24.49c2.5-7.53,7.7-11.84,15-11.84s9.6,4.31,7.1,11.84l-1.52,4.58h-7l1.68-5.05c1.12-3.36.06-4.64-2.29-4.64s-4.26,1.28-5.38,4.64l-8.45,25.43c-1.11,3.37,0,4.58,2.32,4.58s4.24-1.21,5.35-4.58l2.24-6.73Z" transform="translate(-26.4)"/><path class="cls-34" d="M303.45,272.51H296l1.56-8.54h-9.09l-4.11,8.54h-6.8l23.18-47.09h10.83Zm-11.92-14.93h7.13L303,233.76Zm23.34-41.71,2.74,2.49c-2.42,3.43-4.88,4.57-7.24,4.57-2.82,0-3.47-1.68-5.49-1.68-1.21,0-2.18.27-3.54,1.95l-2.74-2.49c2.41-3.43,4.88-4.57,7.24-4.57,2.82,0,3.47,1.68,5.49,1.68C312.54,217.82,313.51,217.55,314.87,215.87Z" transform="translate(-26.4)"/><path class="cls-35" d="M323.15,236.72c2.5-7.53,7.9-11.84,15.17-11.84s9.8,4.31,7.3,11.84l-8.14,24.49c-2.5,7.54-7.9,11.84-15.17,11.84s-9.8-4.3-7.3-11.84Zm-.89,25c-1.12,3.37-.06,4.64,2.29,4.64s4.26-1.27,5.38-4.64l8.45-25.43c1.11-3.36.06-4.64-2.3-4.64s-4.26,1.28-5.37,4.64Z" transform="translate(-26.4)"/><path class="cls-36" d="M43,160.09h7.4L34.8,207.18H27.4Z" transform="translate(-26.4)"/><path class="cls-36" d="M63.15,173.08l-11.33,34.1H45.16L60.8,160.09h9.29l-1.77,28.19,9.37-28.19h6.59L68.64,207.18H61Z" transform="translate(-26.4)"/><path class="cls-36" d="M104.78,159.55c7.2,0,9.47,4.31,7,11.84l-.49,1.48h-7l.65-2c1.12-3.36.2-4.64-2.15-4.64s-4.13,1.28-5.25,4.64c-3.22,9.69,10.65,11.51,6.18,25-2.51,7.54-7.71,11.84-15,11.84s-9.61-4.3-7.1-11.84l1-2.89h7l-1.12,3.36c-1.12,3.37,0,4.58,2.31,4.58s4.24-1.21,5.36-4.58c3.22-9.68-10.64-11.5-6.17-25C92.45,163.86,97.58,159.55,104.78,159.55Z" transform="translate(-26.4)"/><path class="cls-36" d="M122.7,160.09h22.87l-2.23,6.73H135.6l-13.41,40.36h-7.4l13.41-40.36h-7.74Z" transform="translate(-26.4)"/><path class="cls-36" d="M153.67,207.18c0-1.21,0-2,1.25-5.78l2.46-7.4c1.45-4.37.51-6-2.85-6H152l-6.37,19.17h-7.4l15.65-47.09H165c7.67,0,9.78,3.57,7.37,10.83l-1.23,3.7c-1.61,4.85-4.21,8-8,9.56,3.19,1.54,3.22,5.11,1.58,10l-2.41,7.27a14.07,14.07,0,0,0-1.09,5.71ZM159,166.82l-4.8,14.46h2.89c2.76,0,4.84-1.21,6.09-5l1.54-4.64c1.12-3.36.47-4.84-2.15-4.84Z" transform="translate(-26.4)"/><path class="cls-36" d="M193,160.09l-12.07,36.33c-1.12,3.36,0,4.57,2.32,4.57s4.23-1.21,5.35-4.57l12.07-36.33h7L195.75,196c-2.5,7.53-7.7,11.84-15,11.84s-9.61-4.31-7.1-11.84l11.91-35.86Z" transform="translate(-26.4)"/><path class="cls-36" d="M229.41,189.63l-2.08,6.25c-2.33,7-7,11.24-13.47,11.78l-.71,2.15c3.29,0,4.71.81,3.93,3.16-1.21,3.63-4.19,4.1-8.16,4.1-3.7,0-6.19-.8-5.16-3.9l.22-.67h5l-.18.54c-.34,1,.29,1.34,1,1.34a2.08,2.08,0,0,0,2.22-1.61c.42-1.28-.23-1.75-1.84-1.75h-.67l1.14-3.43c-5.93-.61-7.7-4.78-5.4-11.71l8.14-24.49c2.5-7.53,7.7-11.84,15-11.84s9.61,4.31,7.1,11.84L233.94,176h-7l1.67-5.05c1.12-3.36.07-4.64-2.29-4.64s-4.26,1.28-5.38,4.64l-8.44,25.43c-1.12,3.37,0,4.58,2.31,4.58s4.24-1.21,5.35-4.58l2.24-6.72Z" transform="translate(-26.4)"/><path class="cls-36" d="M244.41,171.39c2.5-7.53,7.9-11.84,15.17-11.84s9.8,4.31,7.3,11.84l-8.13,24.49c-2.51,7.54-7.91,11.84-15.17,11.84s-9.81-4.3-7.3-11.84Zm-.89,25c-1.12,3.37-.06,4.64,2.29,4.64s4.26-1.27,5.38-4.64l8.45-25.43c1.11-3.36.06-4.64-2.3-4.64s-4.26,1.28-5.37,4.64Zm24.64-45.81L270.9,153c-2.42,3.43-4.89,4.57-7.24,4.57-2.83,0-3.48-1.68-5.5-1.68-1.21,0-2.17.27-3.54,2l-2.74-2.49c2.42-3.43,4.89-4.57,7.24-4.57,2.83,0,3.48,1.68,5.5,1.68C265.83,152.49,266.79,152.22,268.16,150.54Z" transform="translate(-26.4)"/><path class="cls-36" d="M281.26,179.94h10.16l-2.23,6.73H279l-4.58,13.79h12.78L285,207.18H264.81l15.65-47.09h20.18l-2.24,6.73H285.62Z" transform="translate(-26.4)"/><path class="cls-36" d="M320.4,159.55c7.19,0,9.47,4.31,7,11.84l-.49,1.48h-7l.65-2c1.12-3.36.2-4.64-2.16-4.64s-4.12,1.28-5.24,4.64c-3.22,9.69,10.64,11.51,6.17,25-2.5,7.54-7.7,11.84-15,11.84s-9.61-4.3-7.1-11.84l1-2.89h7l-1.11,3.36c-1.12,3.37,0,4.58,2.31,4.58s4.24-1.21,5.36-4.58c3.22-9.68-10.65-11.5-6.18-25C308.07,163.86,313.2,159.55,320.4,159.55Z" transform="translate(-26.4)"/><path class="cls-36" d="M355.94,160.09h11.71c7.4,0,9.67,4.1,7.16,11.64l-7.91,23.82c-2.5,7.53-7.5,11.63-14.9,11.63H340.3Zm5.17,6.73-11.18,33.64h4.17c2.36,0,4.17-1.21,5.29-4.58l8.14-24.49c1.11-3.36.1-4.57-2.25-4.57Z" transform="translate(-26.4)"/><path class="cls-36" d="M389.24,179.94H399.4l-2.23,6.73H387l-4.59,13.79h12.79L393,207.18H372.79l15.65-47.09h20.18l-2.24,6.73H393.6Z" transform="translate(-26.4)"/><path class="cls-36" d="M77.43,235.4,66.09,269.51H59.43l15.65-47.09h9.28L82.6,250.61,92,222.42h6.6L82.91,269.51h-7.6Z" transform="translate(-26.4)"/><path class="cls-36" d="M117.22,269.51h-7.46l1.56-8.54h-9.09l-4.11,8.54h-6.8l23.18-47.09h10.83ZM105.3,254.58h7.13l4.35-23.82Z" transform="translate(-26.4)"/><path class="cls-36" d="M138.07,260.83l18.41-38.41h6.8l-22.91,47.09h-11l8.38-47.09h7.47Z" transform="translate(-26.4)"/><path class="cls-36" d="M172.56,242.27h10.16L180.49,249H170.33l-4.58,13.8h12.78l-2.24,6.72H156.11l15.64-47.09h20.19l-2.24,6.73H176.92Z" transform="translate(-26.4)"/><path class="cls-36" d="M205.73,243.28h10.36l-5,14.93c-2.5,7.54-7.7,11.84-15,11.84s-9.6-4.3-7.1-11.84l8.14-24.49c2.5-7.53,7.7-11.84,15-11.84s9.61,4.31,7.1,11.84l-1.52,4.58h-7l1.67-5.05c1.12-3.36.07-4.64-2.29-4.64s-4.26,1.28-5.38,4.64l-8.44,25.43c-1.12,3.37,0,4.58,2.31,4.58s4.24-1.21,5.35-4.58l2.89-8.68h-3.37Z" transform="translate(-26.4)"/><path class="cls-36" d="M241.08,269.51h-7.47l1.56-8.54h-9.08L222,269.51h-6.79l23.18-47.09h10.83Zm-11.92-14.93h7.13l4.34-23.82Z" transform="translate(-26.4)"/><path class="cls-36" d="M276.79,252l-2.08,6.26c-2.33,7-7,11.24-13.47,11.77l-.71,2.16c3.29,0,4.71.8,3.92,3.16-1.2,3.63-4.18,4.1-8.15,4.1-3.7,0-6.19-.8-5.17-3.9l.23-.67h5l-.18.54c-.34,1,.29,1.34,1,1.34a2.09,2.09,0,0,0,2.22-1.61c.42-1.28-.23-1.75-1.84-1.75h-.67l1.14-3.43c-5.93-.61-7.7-4.78-5.4-11.71l8.14-24.49c2.5-7.53,7.7-11.84,15-11.84s9.6,4.31,7.1,11.84l-1.52,4.58h-7l1.68-5.05c1.12-3.36.06-4.64-2.29-4.64s-4.26,1.28-5.38,4.64l-8.45,25.43c-1.11,3.37,0,4.58,2.32,4.58s4.24-1.21,5.35-4.58l2.24-6.73Z" transform="translate(-26.4)"/><path class="cls-36" d="M304.45,269.51H297l1.56-8.54h-9.09l-4.11,8.54h-6.8l23.18-47.09h10.83Zm-11.92-14.93h7.13L304,230.76Zm23.34-41.71,2.74,2.49c-2.42,3.43-4.88,4.57-7.24,4.57-2.82,0-3.47-1.68-5.49-1.68-1.21,0-2.18.27-3.54,1.95l-2.74-2.49c2.41-3.43,4.88-4.57,7.24-4.57,2.82,0,3.47,1.68,5.49,1.68C313.54,214.82,314.51,214.55,315.87,212.87Z" transform="translate(-26.4)"/><path class="cls-36" d="M324.15,233.72c2.5-7.53,7.9-11.84,15.17-11.84s9.8,4.31,7.3,11.84l-8.14,24.49c-2.5,7.54-7.9,11.84-15.17,11.84s-9.8-4.3-7.3-11.84Zm-.89,25c-1.12,3.37-.06,4.64,2.29,4.64s4.26-1.27,5.38-4.64l8.45-25.43c1.11-3.36.06-4.64-2.3-4.64s-4.26,1.28-5.37,4.64Z" transform="translate(-26.4)"/></g></g></g></svg>