<svg xmlns="http://www.w3.org/2000/svg" viewBox="0 0 93.22 1592.79"><defs><style>.cls-1,.cls-12{opacity:0.5;}.cls-12,.cls-2,.cls-3,.cls-5{fill:#acd780;}.cls-3{stroke:#acd780;stroke-miterlimit:10;stroke-width:6px;}.cls-4,.cls-9{fill:#a0a4da;}.cls-11,.cls-5,.cls-6,.cls-7,.cls-9{opacity:0.7;}.cls-6{fill:#fbc46b;}.cls-7{fill:#ffe166;}.cls-10,.cls-11,.cls-8{fill:#c55d58;}.cls-8{opacity:0.8;}.cls-10{opacity:0.4;}</style></defs><g id="Layer_2" data-name="Layer 2"><g id="Layer_1-2" data-name="Layer 1"><g class="cls-1"><path class="cls-2" d="M38.68,664.5v67.13H16.54v-63.8a7.16,7.16,0,0,0-7.16-7.16h0a7.17,7.17,0,0,0-7.16,7.16v72.74A4.74,4.74,0,0,0,7,745.31H48.82A4.19,4.19,0,0,0,53,741.12V672.39H75.79V738.8a6.51,6.51,0,0,0,6.51,6.51h1.3a6.51,6.51,0,0,0,6.51-6.51V664.18A4.16,4.16,0,0,0,86,660H43.16A4.49,4.49,0,0,0,38.68,664.5Z"/><path class="cls-3" d="M64.63,629.33l22.81,8.34a4.24,4.24,0,0,1,2.78,4h0a4.24,4.24,0,0,1-5.68,4L5.79,617.08a4.23,4.23,0,0,1-2.79-4v-5a4.23,4.23,0,0,1,2.74-4l78.75-29.68a4.24,4.24,0,0,1,5.73,4V579a4.23,4.23,0,0,1-2.76,4l-22.84,8.45a4.25,4.25,0,0,0-2.77,4v30A4.24,4.24,0,0,0,64.63,629.33ZM54,601.17a4.23,4.23,0,0,0-5.71-4c-20.84,7.75-31.65,11.89-37.4,13.5v.12c6.36,1.93,19.41,6.65,37.48,12.92a4.23,4.23,0,0,0,5.63-4Z"/><path class="cls-3" d="M7.23,548.72H86A4.24,4.24,0,0,1,90.22,553v.41A4.23,4.23,0,0,1,86,557.59H7.23A4.23,4.23,0,0,1,3,553.36V553A4.24,4.24,0,0,1,7.23,548.72Z"/><path class="cls-3" d="M7.23,523.86A4.24,4.24,0,0,1,3,519.62V492c0-17.37,9.25-26.24,21.62-26.24,6.89,0,12.15,2.77,15.49,6.68a4.29,4.29,0,0,0,6.75-.34,21,21,0,0,1,18-9.34c17,0,25.37,12.87,25.37,28.62v28.25A4.24,4.24,0,0,1,86,523.86ZM40,494.24c0-14-5.38-19.37-14.75-19.37-8.25,0-14.49,5.88-14.49,17.12v18.89A4.23,4.23,0,0,0,15,515.11H35.75A4.24,4.24,0,0,0,40,510.88Zm38.25,20.87a4.23,4.23,0,0,0,4.23-4.23v-19C82.47,480.62,77,472,65.1,472c-10.37,0-17.49,6.62-17.49,22.87v16a4.23,4.23,0,0,0,4.23,4.23Z"/><path class="cls-3" d="M64.63,434.53l22.81,8.34a4.23,4.23,0,0,1,2.78,4h0a4.23,4.23,0,0,1-5.68,4L5.79,422.28a4.24,4.24,0,0,1-2.79-4v-5a4.24,4.24,0,0,1,2.74-4l78.75-29.67a4.24,4.24,0,0,1,5.73,4v.56a4.24,4.24,0,0,1-2.76,4l-22.84,8.45a4.24,4.24,0,0,0-2.77,4v29.95A4.25,4.25,0,0,0,64.63,434.53ZM54,406.36a4.23,4.23,0,0,0-5.71-4c-20.84,7.74-31.65,11.89-37.4,13.5V416c6.36,1.93,19.41,6.64,37.48,12.92a4.23,4.23,0,0,0,5.63-4Z"/><rect class="cls-4" x="21.31" y="790.73" width="46.42" height="6.9" rx="2.87" transform="translate(-749.66 838.7) rotate(-90)"/><rect class="cls-5" x="21.42" y="791.05" width="46.69" height="7.09" rx="2.95" transform="translate(-570.4 1299.53) rotate(-126.15)"/><rect class="cls-6" x="22.19" y="791.26" width="46.69" height="7.09" rx="2.95" transform="translate(330.01 1538.36) rotate(162.34)"/><rect class="cls-7" x="21.63" y="791.33" width="46.69" height="7.09" rx="2.95" transform="translate(-159.43 1564.34) rotate(-161.88)"/><rect class="cls-8" x="22.33" y="790.91" width="46.69" height="7.09" rx="2.95" transform="translate(716.85 1221.97) rotate(125.79)"/><path class="cls-9" d="M3.09,1068.38v69.74a6.9,6.9,0,0,0,13.8,0v-28.34H81.18a6.59,6.59,0,0,0,0-13.18H16.89v-28.22a6.9,6.9,0,0,0-13.8,0Z"/><rect class="cls-10" x="38.99" y="956.07" width="13.17" height="84.75" rx="5.48" transform="translate(-952.87 1044.02) rotate(-90)"/><path class="cls-6" d="M74,929.1v62.76H52v-29a7.07,7.07,0,0,0-6.79-7.15,6.9,6.9,0,0,0-7,6.9v29.23H16.89V929.17A6.87,6.87,0,0,0,10,922.3H10a6.88,6.88,0,0,0-6.87,6.87v69.2a6.53,6.53,0,0,0,2,4.69,6.63,6.63,0,0,0,4.71,2H81.15a6.6,6.6,0,0,0,6.62-6.59V929.1a6.87,6.87,0,0,0-6.86-6.87h-.07A6.87,6.87,0,0,0,74,929.1Z"/><path class="cls-7" d="M5.11,854c-2.13,1.95-2.21,3.45-2,4.87v70a6.58,6.58,0,0,0,6.59,6.58H81.36A6.7,6.7,0,0,0,88,929.91a6.61,6.61,0,0,0-6.53-7.68H16.89V899.65H81a6.69,6.69,0,0,0,6.68-5.5,6.58,6.58,0,0,0-6.5-7.67H16.89v-22H81.36A6.71,6.71,0,0,0,88,859a6.6,6.6,0,0,0-6.53-7.67H12A10.11,10.11,0,0,0,5.11,854Z"/><path class="cls-11" d="M38.22,1005v56.45H10.06A6.75,6.75,0,0,0,3.23,1068a6.6,6.6,0,0,0,6.59,6.69H81.21a6.7,6.7,0,0,0,6.68-5.51,6.59,6.59,0,0,0-6.5-7.66H52V1005Z"/><path class="cls-5" d="M38.22,1136.68v64.67H16.89v-61.47A6.9,6.9,0,0,0,10,1133h0a6.9,6.9,0,0,0-6.9,6.9V1210a4.57,4.57,0,0,0,4.57,4.56H48a4,4,0,0,0,4-4v-66.22H74v64a6.27,6.27,0,0,0,6.27,6.27H81.5a6.27,6.27,0,0,0,6.27-6.27v-71.89a4,4,0,0,0-4-4H42.54A4.31,4.31,0,0,0,38.22,1136.68Z"/></g><rect class="cls-12" x="38.22" width="5" height="367.84"/><rect class="cls-12" x="38.22" y="1224.95" width="5" height="367.84"/></g></g></svg>