<?xml version="1.0" encoding="UTF-8" standalone="no"?>
<!-- Created with Inkscape (http://www.inkscape.org/) -->

<svg
   xmlns:dc="http://purl.org/dc/elements/1.1/"
   xmlns:cc="http://creativecommons.org/ns#"
   xmlns:rdf="http://www.w3.org/1999/02/22-rdf-syntax-ns#"
   xmlns:svg="http://www.w3.org/2000/svg"
   xmlns="http://www.w3.org/2000/svg"
   version="1.1"
   width="500"
   height="500"
   id="svg2">
  <defs
     id="defs4" />
  <metadata
     id="metadata7">
    <rdf:RDF>
      <cc:Work
         rdf:about="">
        <dc:format>image/svg+xml</dc:format>
        <dc:type
           rdf:resource="http://purl.org/dc/dcmitype/StillImage" />
        <dc:title></dc:title>
      </cc:Work>
    </rdf:RDF>
  </metadata>
  <g
     transform="translate(0,-552.36218)"
     id="layer1">
    <g
       transform="matrix(0.38932817,0,0,0.38932817,151.17275,740.29425)"
       id="g4403"
       style="fill:#000000" />
    <g
       transform="matrix(3.0566074,0,0,3.0566074,-1480.655,-2204.481)"
       id="g4131" />
    <text
       x="-1202"
       y="626.86218"
       id="text4386"
       xml:space="preserve"
       style="font-size:32px;font-style:normal;font-variant:normal;font-weight:normal;font-stretch:normal;line-height:68.00000072%;letter-spacing:0px;word-spacing:0px;fill:#000000;fill-opacity:1;stroke:none;font-family:Times New Roman;-inkscape-font-specification:Sans"><tspan
         x="-1202"
         y="626.86218"
         id="tspan4388" /></text>
    <g
       transform="translate(0,188)"
       id="g4684"
       style="fill:#004455">
      <g
         transform="translate(0,378)"
         id="g4715"
         style="fill:#004455;fill-opacity:1">
        <g
           transform="translate(380,0)"
           id="g5264"
           style="fill:#004455;fill-opacity:1" />
      </g>
    </g>
    <g
       transform="translate(1908,-512)"
       id="g5543"
       style="fill:#aa0000" />
    <text
       x="151.32085"
       y="514.96106"
       id="text6048"
       xml:space="preserve"
       style="font-size:32px;font-style:normal;font-variant:normal;font-weight:normal;font-stretch:normal;line-height:68.00000072%;letter-spacing:0px;word-spacing:0px;fill:#000000;fill-opacity:1;stroke:none;font-family:Times New Roman;-inkscape-font-specification:Sans"><tspan
         x="151.32085"
         y="514.96106"
         id="tspan6050" /></text>
    <g
       transform="matrix(4.2653233,0,0,4.2653233,3084.7,38.988747)"
       id="g6206">
      <g
         transform="matrix(0.77992214,0,0,0.77992214,753.61772,-345.54921)"
         id="g6170"
         style="fill:#000000;fill-opacity:1">
        <path
           d="m -1853.3558,718.44705 -1.3251,1.09187 c -0.1555,-0.16254 -0.7068,-0.77385 -1.6537,-1.83392 -0.947,-1.06714 -2.4064,-2.72791 -4.3781,-4.98233 l 0.011,-0.0954 c 0.2685,-0.0707 0.6254,-0.22261 1.0706,-0.45583 0.4453,-0.24028 0.8198,-0.49823 1.1237,-0.77385 0.2615,-0.24028 0.4876,-0.5371 0.6785,-0.89046 0.1978,-0.35335 0.2968,-0.82685 0.2968,-1.4205 0,-0.54415 -0.1449,-1.01058 -0.4346,-1.39929 -0.2827,-0.39575 -0.675,-0.6855 -1.1767,-0.86926 -0.4099,-0.15546 -0.841,-0.24733 -1.2933,-0.27562 -0.4523,-0.0353 -0.8693,-0.053 -1.2509,-0.053 -0.2544,10e-6 -0.4488,0.004 -0.583,0.0106 -0.1343,1e-5 -0.2333,1e-5 -0.2969,0 -0.014,1.34277 -0.025,2.52651 -0.032,3.55124 0,1.02474 0,1.74912 0,2.17314 0,0.96821 0,2.28269 0.011,3.94347 0.014,1.66078 0.025,2.70318 0.032,3.1272 l -1.7491,0 c 0.01,-0.42402 0.018,-1.24381 0.032,-2.45936 0.014,-1.22261 0.021,-2.74204 0.021,-4.5583 0,-0.35335 0,-1.00706 0,-1.96113 0,-0.95406 -0.018,-2.69257 -0.053,-5.21555 0.071,10e-6 0.4241,-0.007 1.0601,-0.0212 0.636,-0.0141 1.2226,-0.0212 1.7597,-0.0212 0.6149,1e-5 1.212,0.0353 1.7915,0.106 0.5795,0.0707 1.1449,0.22263 1.6962,0.45583 0.6996,0.29684 1.2544,0.735 1.6643,1.31449 0.4098,0.57245 0.6148,1.24736 0.6148,2.02474 0,1.00354 -0.311,1.84099 -0.9329,2.51236 -0.6148,0.66432 -1.1978,1.15902 -1.7491,1.4841 l 0,0.053 c 0.9682,1.13074 2.0283,2.29682 3.1802,3.49823 1.159,1.20141 1.7809,1.84806 1.8658,1.93993"
           id="path6172"
           style="font-size:21.71024704px;font-style:normal;font-variant:normal;font-weight:bold;font-stretch:normal;line-height:68.00000072%;letter-spacing:0px;word-spacing:0px;fill:#000000;fill-opacity:1;stroke:none;font-family:Skia;-inkscape-font-specification:Skia Bold" />
        <path
           d="m -1841.5042,719.2739 c -0.064,0 -0.5336,-0.004 -1.4099,-0.0106 -0.8764,-0.007 -1.9612,-0.0106 -3.2545,-0.0106 -0.8975,0 -1.7208,0.004 -2.4699,0.0106 -0.7421,0.007 -1.3711,0.0106 -1.887,0.0106 0.014,-0.40989 0.025,-1.29681 0.032,-2.66077 0.014,-1.36396 0.021,-2.77385 0.021,-4.22969 0,-0.79857 0,-1.85511 -0.011,-3.16961 -0.01,-1.31447 -0.021,-2.6749 -0.043,-4.08127 0.5018,2e-5 1.1273,0.004 1.8764,0.0106 0.7562,0.007 1.5335,0.0106 2.3321,0.0106 1.3498,2e-5 2.4488,-0.004 3.2969,-0.0106 0.848,-0.007 1.3074,-0.0106 1.378,-0.0106 l 0,1.4735 c -0.071,1e-5 -0.5159,-0.004 -1.3356,-0.0106 -0.8128,-0.0141 -1.8269,-0.0212 -3.0424,-0.0212 -0.5301,10e-6 -1.0495,0.004 -1.5584,0.0106 -0.5088,10e-6 -0.9116,10e-6 -1.2084,0 0,0.7986 -0.01,1.59718 -0.021,2.39576 -0.014,0.79153 -0.021,1.54064 -0.021,2.24735 0.318,10e-6 0.6925,0.004 1.1236,0.0106 0.4382,10e-6 0.8269,10e-6 1.1661,0 1.2438,10e-6 2.3534,-0.004 3.3286,-0.0106 0.9824,-0.0141 1.5053,-0.0212 1.5689,-0.0212 l 0,1.46289 c -0.056,10e-6 -0.6395,-0.004 -1.7491,-0.0106 -1.1095,-0.0141 -2.1237,-0.0212 -3.0424,-0.0212 -0.3392,10e-6 -0.7456,0.004 -1.2191,0.0106 -0.4664,10e-6 -0.8586,10e-6 -1.1766,0 0,1.3357 0,2.39577 0.011,3.18021 0.01,0.78446 0.014,1.4417 0.021,1.97174 0.4169,0.007 0.9222,0.0141 1.5159,0.0212 0.5936,0 1.2332,0 1.9187,0 1.053,0 1.9364,-0.004 2.6502,-0.0106 0.7208,-0.007 1.1236,-0.0106 1.2085,-0.0106 l 0,1.47349"
           id="path6174"
           style="font-size:21.71024704px;font-style:normal;font-variant:normal;font-weight:bold;font-stretch:normal;line-height:68.00000072%;letter-spacing:0px;word-spacing:0px;fill:#000000;fill-opacity:1;stroke:none;font-family:Skia;-inkscape-font-specification:Skia Bold" />
        <path
           d="m -1827.4477,719.2739 c -1.2226,-0.007 -2.2756,-0.0106 -3.159,-0.0106 -0.8834,-0.007 -1.6855,-0.0106 -2.4064,-0.0106 -1.5901,0 -2.9258,0.004 -4.0071,0.0106 -1.0742,0.007 -1.6713,0.0106 -1.7915,0.0106 l -0.477,-1.10247 c 1.0247,-1.25088 2.3816,-2.93993 4.0707,-5.06714 1.6961,-2.13426 3.3816,-4.30034 5.0565,-6.49823 l -0.011,-0.0212 c -0.6643,-0.007 -1.258,-0.0106 -1.7809,-0.0106 -0.523,10e-6 -0.9612,10e-6 -1.3145,0 -1.3498,10e-6 -2.5442,0.007 -3.583,0.0212 -1.0318,0.007 -1.6184,0.0106 -1.7598,0.0106 l 0,-1.4735 c 0.5654,2e-5 1.258,0.004 2.0778,0.0106 0.8198,0.007 1.7138,0.0106 2.682,0.0106 1.484,2e-5 2.7526,-0.004 3.8056,-0.0106 1.053,-0.007 1.6431,-0.0106 1.7703,-0.0106 l 0.5195,1.10247 c -0.4594,0.56539 -1.523,1.89401 -3.1908,3.98587 -1.6608,2.08481 -3.6326,4.57951 -5.9152,7.4841 l 0.011,0.0212 c 0.4452,0.007 0.9752,0.0141 1.5901,0.0212 0.6148,0.007 1.3074,0.0106 2.0777,0.0106 1.5194,0 2.8374,-0.007 3.9541,-0.0212 1.1166,-0.0212 1.7102,-0.0318 1.7809,-0.0318 l 0,1.5689"
           id="path6176"
           style="font-size:21.71024704px;font-style:normal;font-variant:normal;font-weight:bold;font-stretch:normal;line-height:68.00000072%;letter-spacing:0px;word-spacing:0px;fill:#000000;fill-opacity:1;stroke:none;font-family:Skia;-inkscape-font-specification:Skia Bold" />
        <path
           d="m -1815.4265,719.2739 c -0.064,0 -0.5336,-0.004 -1.4099,-0.0106 -0.8763,-0.007 -1.9611,-0.0106 -3.2544,-0.0106 -0.8976,0 -1.7209,0.004 -2.47,0.0106 -0.742,0.007 -1.371,0.0106 -1.8869,0.0106 0.014,-0.40989 0.025,-1.29681 0.032,-2.66077 0.014,-1.36396 0.021,-2.77385 0.021,-4.22969 0,-0.79857 0,-1.85511 -0.011,-3.16961 -0.01,-1.31447 -0.021,-2.6749 -0.042,-4.08127 0.5017,2e-5 1.1272,0.004 1.8763,0.0106 0.7562,0.007 1.5336,0.0106 2.3322,0.0106 1.3498,2e-5 2.4487,-0.004 3.2968,-0.0106 0.848,-0.007 1.3074,-0.0106 1.3781,-0.0106 l 0,1.4735 c -0.071,1e-5 -0.5159,-0.004 -1.3357,-0.0106 -0.8127,-0.0141 -1.8269,-0.0212 -3.0424,-0.0212 -0.5301,10e-6 -1.0495,0.004 -1.5583,0.0106 -0.5089,10e-6 -0.9117,10e-6 -1.2085,0 0,0.7986 -0.01,1.59718 -0.021,2.39576 -0.014,0.79153 -0.021,1.54064 -0.021,2.24735 0.318,10e-6 0.6926,0.004 1.1237,0.0106 0.4381,10e-6 0.8268,10e-6 1.1661,0 1.2438,10e-6 2.3533,-0.004 3.3286,-0.0106 0.9823,-0.0141 1.5053,-0.0212 1.5689,-0.0212 l 0,1.46289 c -0.057,10e-6 -0.6396,-0.004 -1.7491,-0.0106 -1.1096,-0.0141 -2.1237,-0.0212 -3.0424,-0.0212 -0.3393,10e-6 -0.7456,0.004 -1.2191,0.0106 -0.4665,10e-6 -0.8587,10e-6 -1.1767,0 0,1.3357 0,2.39577 0.011,3.18021 0.01,0.78446 0.014,1.4417 0.021,1.97174 0.417,0.007 0.9223,0.0141 1.5159,0.0212 0.5936,0 1.2332,0 1.9187,0 1.053,0 1.9364,-0.004 2.6502,-0.0106 0.7208,-0.007 1.1237,-0.0106 1.2085,-0.0106 l 0,1.47349"
           id="path6178"
           style="font-size:21.71024704px;font-style:normal;font-variant:normal;font-weight:bold;font-stretch:normal;line-height:68.00000072%;letter-spacing:0px;word-spacing:0px;fill:#000000;fill-opacity:1;stroke:none;font-family:Skia;-inkscape-font-specification:Skia Bold" />
        <path
           d="m -1799.1332,705.10076 c -0.014,1.10955 -0.028,2.3781 -0.042,3.80565 -0.01,1.42757 -0.011,2.45584 -0.011,3.08481 0,2.00707 0.01,3.60424 0.021,4.79152 0.014,1.18021 0.021,1.80919 0.021,1.88692 l -1.4099,0.68905 c -2.1343,-2.88339 -4.1308,-5.48409 -5.9894,-7.80212 -1.8516,-2.32508 -2.9223,-3.66783 -3.212,-4.02827 l -0.021,0.0106 c 0,1.894 0.011,4.22262 0.032,6.98587 0.028,2.75618 0.046,4.34629 0.053,4.77031 l -1.6537,0 c 0.01,-0.17667 0.018,-0.80565 0.032,-1.88692 0.014,-1.08127 0.021,-2.58657 0.021,-4.5159 0,-0.77031 0,-1.79151 -0.011,-3.06361 -0.01,-1.27914 -0.021,-2.63249 -0.042,-4.06007 l 1.6113,-0.76325 c 0.1272,0.16256 1.2084,1.53712 3.2438,4.12368 2.0424,2.58658 3.9646,4.9894 5.7668,7.20848 l 0.021,-0.0106 c 0,-1.08834 -0.014,-2.91872 -0.042,-5.49117 -0.028,-2.57949 -0.042,-4.49115 -0.042,-5.73498 l 1.6537,0"
           id="path6180"
           style="font-size:21.71024704px;font-style:normal;font-variant:normal;font-weight:bold;font-stretch:normal;line-height:68.00000072%;letter-spacing:0px;word-spacing:0px;fill:#000000;fill-opacity:1;stroke:none;font-family:Skia;-inkscape-font-specification:Skia Bold" />
        <path
           d="m -1784.377,706.60606 c -0.1131,1e-5 -0.5866,-0.004 -1.4205,-0.0106 -0.834,-0.007 -2.0955,-0.0106 -3.7845,-0.0106 -0.014,1.44877 -0.025,2.54771 -0.032,3.29682 -0.01,0.74912 -0.011,1.77032 -0.011,3.0636 0,1.24382 0,2.50884 0.011,3.79505 0.014,1.27916 0.025,2.13075 0.032,2.55477 l -1.7491,0 c 0.014,-0.42402 0.025,-1.28975 0.032,-2.59717 0.014,-1.30741 0.021,-2.58657 0.021,-3.83745 0,-1.22968 0,-2.20494 0,-2.9258 0,-0.7279 -0.011,-1.84451 -0.032,-3.34982 -1.5053,-0.007 -2.7279,-0.004 -3.6678,0.0106 -0.9329,0.007 -1.4453,0.0106 -1.5372,0.0106 l 0,-1.4735 c 0.728,2e-5 1.6114,0.004 2.6502,0.0106 1.046,0.007 2.159,0.0106 3.3392,0.0106 1.7103,2e-5 3.1378,-0.004 4.2827,-0.0106 1.152,-0.007 1.7739,-0.0106 1.8658,-0.0106 l 0,1.4735"
           id="path6182"
           style="font-size:21.71024704px;font-style:normal;font-variant:normal;font-weight:bold;font-stretch:normal;line-height:68.00000072%;letter-spacing:0px;word-spacing:0px;fill:#000000;fill-opacity:1;stroke:none;font-family:Skia;-inkscape-font-specification:Skia Bold" />
        <path
           d="m -1769.218,712.20323 c 0,1.14488 -0.1979,2.19789 -0.5937,3.15901 -0.3887,0.95407 -0.8975,1.74205 -1.5265,2.36396 -0.6996,0.69258 -1.4417,1.19788 -2.2261,1.5159 -0.7845,0.31096 -1.6255,0.46643 -2.523,0.46643 -0.8763,0 -1.7032,-0.14841 -2.4806,-0.44523 -0.7773,-0.30388 -1.477,-0.75265 -2.0989,-1.34629 -0.6855,-0.6431 -1.2403,-1.45229 -1.6643,-2.42756 -0.417,-0.98233 -0.6255,-2.0848 -0.6255,-3.30742 0,-1.08833 0.1661,-2.07773 0.4983,-2.9682 0.3321,-0.89751 0.8304,-1.70317 1.4947,-2.41696 0.6148,-0.6643 1.3463,-1.17666 2.1943,-1.5371 0.8481,-0.36748 1.7421,-0.55122 2.682,-0.55124 0.9541,2e-5 1.8375,0.17316 2.6502,0.51944 0.8127,0.33923 1.5159,0.81273 2.1095,1.42049 0.6926,0.70673 1.2156,1.54065 1.5689,2.50177 0.3604,0.95407 0.5407,1.97174 0.5407,3.053 m -1.8128,0.16961 c 0,-0.91872 -0.1554,-1.81978 -0.4664,-2.70318 -0.3039,-0.89045 -0.7703,-1.63603 -1.3993,-2.23675 -0.424,-0.40988 -0.9011,-0.7279 -1.4311,-0.95406 -0.523,-0.22613 -1.1095,-0.33921 -1.7597,-0.33922 -0.636,10e-6 -1.2297,0.11662 -1.7809,0.34982 -0.5442,0.22616 -1.0389,0.56185 -1.4841,1.00707 -0.5654,0.56538 -1.0071,1.26503 -1.3251,2.09894 -0.311,0.83393 -0.4664,1.70319 -0.4664,2.60777 0,1.01768 0.159,1.92934 0.477,2.73498 0.3251,0.80566 0.7809,1.48764 1.3675,2.04594 0.4028,0.3887 0.8798,0.70318 1.4311,0.94346 0.5512,0.23322 1.1413,0.34983 1.7703,0.34983 0.629,0 1.2155,-0.11308 1.7597,-0.33923 0.5513,-0.23321 1.0495,-0.56536 1.4947,-0.99646 0.53,-0.50883 0.9647,-1.15548 1.3039,-1.93993 0.3392,-0.79152 0.5088,-1.66784 0.5088,-2.62898"
           id="path6184"
           style="font-size:21.71024704px;font-style:normal;font-variant:normal;font-weight:bold;font-stretch:normal;line-height:68.00000072%;letter-spacing:0px;word-spacing:0px;fill:#000000;fill-opacity:1;stroke:none;font-family:Skia;-inkscape-font-specification:Skia Bold" />
        <path
           d="m -1758.2781,715.29864 c 0,0.72792 -0.1732,1.36749 -0.5194,1.91873 -0.3393,0.54417 -0.7986,0.98586 -1.3781,1.32508 -0.5301,0.31096 -1.1378,0.54771 -1.8234,0.71025 -0.6855,0.15548 -1.4452,0.23322 -2.2791,0.23322 -0.4523,0 -0.9223,-0.0141 -1.4099,-0.0424 -0.4806,-0.0283 -0.7597,-0.0459 -0.8375,-0.053 l -0.085,-1.5265 c 0.099,0.0141 0.3746,0.0424 0.8269,0.0848 0.4523,0.0353 0.9859,0.053 1.6007,0.053 0.3746,0 0.8587,-0.0495 1.4523,-0.14841 0.5936,-0.0989 1.0495,-0.22615 1.3675,-0.38163 0.4169,-0.20494 0.735,-0.45229 0.9541,-0.74205 0.2261,-0.28975 0.3392,-0.65724 0.3392,-1.10247 0,-0.47349 -0.1131,-0.87279 -0.3392,-1.19788 -0.2191,-0.33215 -0.5866,-0.65017 -1.1025,-0.95406 -0.3322,-0.19788 -0.7633,-0.42049 -1.2933,-0.66785 -0.53,-0.24734 -1.0071,-0.50176 -1.4311,-0.76325 -0.7209,-0.43815 -1.2368,-0.91518 -1.5477,-1.43109 -0.3039,-0.52296 -0.4558,-1.10247 -0.4558,-1.73852 0,-0.65017 0.1378,-1.212 0.4134,-1.68551 0.2827,-0.48055 0.6466,-0.89045 1.0919,-1.22968 0.4523,-0.33921 1.0035,-0.59363 1.6537,-0.76325 0.6572,-0.1696 1.3851,-0.25441 2.1837,-0.25442 0.4382,1e-5 0.8799,0.0142 1.3251,0.0424 0.4523,0.0212 0.7103,0.0353 0.7739,0.0424 l 0.1484,1.53711 c -0.064,-0.007 -0.3216,-0.0318 -0.7739,-0.0742 -0.4523,-0.0424 -1.0106,-0.0636 -1.6749,-0.0636 -0.3958,1e-5 -0.8056,0.046 -1.2297,0.13781 -0.4169,0.0848 -0.7844,0.21909 -1.1024,0.40282 -0.2827,0.16256 -0.523,0.38871 -0.7209,0.67845 -0.1979,0.28976 -0.2968,0.62898 -0.2968,1.01767 0,0.3463 0.1025,0.68199 0.3074,1.00706 0.212,0.31803 0.6042,0.64666 1.1767,0.98587 0.2897,0.17669 0.6714,0.38163 1.1449,0.61484 0.4805,0.22616 0.9505,0.47351 1.4099,0.74205 0.7067,0.41697 1.2367,0.89753 1.5901,1.4417 0.3604,0.5371 0.5406,1.15194 0.5406,1.84452"
           id="path6186"
           style="font-size:21.71024704px;font-style:normal;font-variant:normal;font-weight:bold;font-stretch:normal;line-height:68.00000072%;letter-spacing:0px;word-spacing:0px;fill:#000000;fill-opacity:1;stroke:none;font-family:Skia;-inkscape-font-specification:Skia Bold" />
        <g
           transform="matrix(0.21634414,0,0,0.21634414,-1511.0327,571.61289)"
           id="g6188"
           style="fill:#000000;fill-opacity:1">
          <path
             d="m -1669.0574,626.26278 c -0.1683,14.83712 -0.3226,24.59761 -0.4628,29.2815 -0.1122,4.65589 -0.1823,7.5027 -0.2103,8.54043 l -5.8479,0 c -0.028,-1.03773 -0.1122,-3.88454 -0.2525,-8.54043 -0.1402,-4.68389 -0.2945,-14.44438 -0.4627,-29.2815 l 7.2362,0 m 0.4628,56.33323 -8.1197,0 0,-8.4563 8.1197,0 0,8.4563"
             id="path6190"
             style="font-size:86.16165924px;font-style:normal;font-variant:normal;font-weight:bold;font-stretch:normal;line-height:68.00000072%;letter-spacing:0px;word-spacing:0px;fill:#000000;fill-opacity:1;stroke:none;font-family:Skia;-inkscape-font-specification:Skia Bold" />
          <path
             d="m -1698.625,617.23718 52.125,0 0,6.375 c -18.7071,-0.9515 -35.7405,-0.70752 -52.125,0 z"
             id="path6192"
             style="fill:#000000;fill-opacity:1;fill-rule:evenodd;stroke:none" />
        </g>
      </g>
      <g
         transform="matrix(0.80795067,0,0,0.80795067,-966.23691,49.0958)"
         id="g6194">
        <path
           d="m 352.64235,182.57862 41.40656,0 c 3.31773,0 5.57307,-2.69708 5.98867,-5.98868 l 6.99434,-55.39524 c 0.41561,-3.29159 -2.67095,-5.98867 -5.98867,-5.98867 l -55.39524,0 c -3.31773,0 -6.40428,2.69708 -5.98867,5.98867 l 6.99433,55.39524 c 0.41561,3.2916 2.67095,5.98868 5.98868,5.98868 z"
           id="path6196"
           style="fill:#000000;fill-opacity:1;fill-rule:evenodd;stroke:none" />
        <g
           transform="matrix(0.74858429,0,0,0.74858429,22.000884,47.369138)"
           id="g6198">
          <path
             d="m 472.97747,114.26278 c -0.1683,14.83712 -0.3226,24.59761 -0.4628,29.2815 -0.1122,4.65589 -0.1823,7.5027 -0.2103,8.54043 l -5.8479,0 c -0.028,-1.03773 -0.1122,-3.88454 -0.2525,-8.54043 -0.1402,-4.68389 -0.2945,-14.44438 -0.4627,-29.2815 l 7.2362,0"
             id="path6200"
             style="font-size:86.16165924px;font-style:normal;font-variant:normal;font-weight:bold;font-stretch:normal;line-height:68.00000072%;letter-spacing:0px;word-spacing:0px;fill:#ffffff;fill-opacity:1;stroke:none;font-family:Skia;-inkscape-font-specification:Skia Bold" />
          <path
             d="m 443.29687,105.23718 52.125,0 0,6.375 c -18.7071,-0.9515 -35.7405,-0.70752 -52.125,0 z"
             id="path6202"
             style="fill:#ffffff;fill-opacity:1;fill-rule:evenodd;stroke:none" />
          <rect
             width="8.15625"
             height="8.485714"
             ry="0"
             x="465.28125"
             y="162.11218"
             id="rect6204"
             style="fill:#ddc114;fill-opacity:1;fill-rule:evenodd;stroke:none" />
        </g>
      </g>
    </g>
  </g>
</svg>
