<svg xmlns="http://www.w3.org/2000/svg" viewBox="0 0 868 137.01"><defs><style>.cls-1,.cls-6{fill:#a1a5db;}.cls-2{fill:#add880;}.cls-2,.cls-3,.cls-4,.cls-6,.cls-9{opacity:0.7;}.cls-3{fill:#fcc56b;}.cls-4{fill:#ffe266;}.cls-5,.cls-7,.cls-9{fill:#c65d58;}.cls-5{opacity:0.8;}.cls-7{opacity:0.4;}.cls-8{fill:#b3b2b2;}</style></defs><g id="Layer_2" data-name="Layer 2"><g id="Layer_1-2" data-name="Layer 1"><rect class="cls-1" x="599" y="29.44" width="74" height="11" rx="5.5"/><rect class="cls-2" x="598.11" y="29.67" width="74.44" height="11.3" rx="5.65" transform="translate(101.51 381.63) rotate(-36.15)"/><rect class="cls-3" x="597.77" y="30.9" width="74.44" height="11.3" rx="5.65" transform="translate(792.78 652.72) rotate(-107.66)"/><rect class="cls-4" x="597.66" y="30.01" width="74.44" height="11.3" rx="5.65" transform="translate(403.59 627.99) rotate(-71.88)"/><rect class="cls-5" x="598.33" y="31.12" width="74.44" height="11.3" rx="5.65" transform="translate(1129.62 438.25) rotate(-144.21)"/><path class="cls-6" d="M233,1.44H121.81a11,11,0,0,0,0,22H167v102.5a10.5,10.5,0,0,0,21,0V23.44h45a11,11,0,0,0,0-22Z"/><rect class="cls-7" x="334" y="1.61" width="21" height="135.11" rx="10.5"/><path class="cls-3" d="M455.06,114.44H355v-35h46.2a11.27,11.27,0,0,0,11.4-10.83,11,11,0,0,0-11-11.17H355v-34h99.94a11,11,0,0,0,10.95-11v-.11A10.94,10.94,0,0,0,454.94,1.44H344.61a10.42,10.42,0,0,0-7.48,3.15A10.54,10.54,0,0,0,334,12.1V125.88a10.53,10.53,0,0,0,10.5,10.56H455.06a10.94,10.94,0,0,0,10.94-11v-.11A10.94,10.94,0,0,0,455.06,114.44Z"/><path class="cls-4" d="M574.82,4.65c-3.11-3.39-5.51-3.53-7.77-3.21H455.5A10.5,10.5,0,0,0,445,11.94V126.21a10.69,10.69,0,0,0,8.77,10.66A10.52,10.52,0,0,0,466,126.46v-103h36v102.2a10.69,10.69,0,0,0,8.78,10.66A10.51,10.51,0,0,0,523,125.94V23.44h35V126.21a10.69,10.69,0,0,0,8.77,10.66A10.52,10.52,0,0,0,579,126.46V15.64A16.17,16.17,0,0,0,574.82,4.65Z"/><path class="cls-8" d="M641.88,113.25a14.21,14.21,0,0,1,2.45,8.45q0,7.1-5.16,10.92t-15,3.82H598v-54h24.68q9.24,0,14.18,3.78a12.22,12.22,0,0,1,4.95,10.26,13.87,13.87,0,0,1-1.77,7,12.85,12.85,0,0,1-4.95,4.86A13.34,13.34,0,0,1,641.88,113.25ZM610,91.44v13h11.87q4.43,0,6.7-1.66a5.62,5.62,0,0,0,2.29-4.88,5.53,5.53,0,0,0-2.29-4.85q-2.28-1.6-6.7-1.61Zm20.07,33.42a5.53,5.53,0,0,0,2.28-4.89q0-6.52-9.06-6.53H610v13h13.29C626.28,126.44,628.55,125.91,630.07,124.86Z"/><path class="cls-8" d="M685.44,136.44l-9.72-15H665v15H653v-54h22.44a27.76,27.76,0,0,1,12,2.39,17.91,17.91,0,0,1,7.81,6.79A19.24,19.24,0,0,1,698,102a18.86,18.86,0,0,1-2.78,10.38,17.79,17.79,0,0,1-7.88,6.67l11.62,17.36ZM682.7,94.89c-1.84-1.64-4.54-2.45-8.08-2.45H665v19h9.62c3.54,0,6.24-.83,8.08-2.5a8.91,8.91,0,0,0,2.77-7Q685.47,97.34,682.7,94.89Z"/><path class="cls-8" d="M740.16,124.44H715.83l-4.64,12H699.81l22.52-54h11.55l22.58,54H744.79Zm-4.12-9-8-20.68-8,20.68Z"/><path class="cls-8" d="M766.74,135.19a26.56,26.56,0,0,1-9-4.51l4-9.41a26.22,26.22,0,0,0,7.72,4.09,27.27,27.27,0,0,0,8.95,1.54q5,0,7.36-1.58a4.84,4.84,0,0,0,2.38-4.21,4.14,4.14,0,0,0-1.41-3.2,10.41,10.41,0,0,0-3.6-2q-2.21-.77-6-1.7a76.22,76.22,0,0,1-9.45-2.93,15.41,15.41,0,0,1-6.32-4.7,13.32,13.32,0,0,1-2.63-8.64,15.78,15.78,0,0,1,2.38-8.53,16.28,16.28,0,0,1,7.18-6.05,27.67,27.67,0,0,1,11.73-2.24,36.57,36.57,0,0,1,9.45,1.23,27.2,27.2,0,0,1,8.08,3.55L794,95.35a26.82,26.82,0,0,0-14-4.24c-3.28,0-5.69.56-7.26,1.69a5.3,5.3,0,0,0-2.34,4.48,4.38,4.38,0,0,0,2.7,4.13,41,41,0,0,0,8.27,2.66,76.22,76.22,0,0,1,9.45,2.93,15.65,15.65,0,0,1,6.31,4.63q2.64,3.16,2.64,8.56a15.46,15.46,0,0,1-2.42,8.44,16.44,16.44,0,0,1-7.25,6.06,27.94,27.94,0,0,1-11.76,2.24A38.79,38.79,0,0,1,766.74,135.19Z"/><path class="cls-8" d="M808,82.44h12v54H808Z"/><path class="cls-8" d="M831,81.44h12v44h25v11H831Z"/><path class="cls-9" d="M334,57.44H244V12.54A10.75,10.75,0,0,0,233.67,1.66,10.5,10.5,0,0,0,223,12.16V126a10.68,10.68,0,0,0,8.78,10.66A10.51,10.51,0,0,0,244,126.27V79.44h90Z"/><path class="cls-2" d="M124.11,57.44H21v-34h98a11,11,0,0,0,11-11h0a11,11,0,0,0-11-11H7.28A7.27,7.27,0,0,0,0,8.71V73a6.43,6.43,0,0,0,6.43,6.43H112v35H10a10,10,0,0,0-10,10v2a10,10,0,0,0,10,10H124.61a6.39,6.39,0,0,0,6.39-6.39V64.33A6.88,6.88,0,0,0,124.11,57.44Z"/></g></g></svg>