<svg xmlns="http://www.w3.org/2000/svg" viewBox="0 0 221.13 241.69"><defs><style>.cls-1{fill:#8e7717;}.cls-2{fill:#725c00;}.cls-3{fill:#997c00;}.cls-4{fill:#ffe98a;}.cls-5{fill:#fafafa;}.cls-6{fill:#fff9e6;}.cls-7{fill:#f5f5f5;}.cls-8{fill:#e0e0e0;}.cls-9{fill:#00dfbf;}.cls-10{fill:#e0b500;}</style></defs><g id="Layer_2" data-name="Layer 2"><g id="Layer_1-2" data-name="Layer 1"><path class="cls-1" d="M5.74,186.35a6.57,6.57,0,0,0,3.07,5.09L94.58,241a6.8,6.8,0,0,0,6.12,0L218.06,173.2a5.75,5.75,0,0,0,0-10.17l-85.77-49.52a6.74,6.74,0,0,0-6.12,0L8.8,181.27A6.57,6.57,0,0,0,5.74,186.35Z"/><path class="cls-2" d="M41.13,162.6,8.8,181.27a5.75,5.75,0,0,0,0,10.17L94.58,241a6.32,6.32,0,0,0,3.06.73V162.6Z"/><path class="cls-1" d="M2.87,181.38A6.58,6.58,0,0,1,0,176.19V73.83a6.77,6.77,0,0,1,3.06-5.31L120.42.77a6.55,6.55,0,0,1,5.94-.11,6.57,6.57,0,0,1,2.87,5.19V108.21a6.77,6.77,0,0,1-3.06,5.3L8.8,181.27A6.56,6.56,0,0,1,2.87,181.38Z"/><path class="cls-2" d="M14.36,78.58.9,70.81a6.2,6.2,0,0,0-.9,3V176.19a6.58,6.58,0,0,0,2.87,5.19,6.56,6.56,0,0,0,5.93-.11l13.39-7.73Z"/><path class="cls-3" d="M5.74,77.14V179.5c0,1.95,1.37,2.75,3.06,1.77l117.37-67.76a6.77,6.77,0,0,0,3.06-5.3V5.85c0-1.95-1.37-2.74-3.06-1.77L8.8,71.84A6.77,6.77,0,0,0,5.74,77.14Z"/><path class="cls-4" d="M8.8,184.8l85.78,49.52a6.74,6.74,0,0,0,6.12,0l117.36-67.75c1.69-1,1.69-2.56,0-3.54l-85.77-49.52a6.74,6.74,0,0,0-6.12,0L8.8,181.27C7.11,182.25,7.11,183.83,8.8,184.8Z"/><path class="cls-5" d="M10.45,77.52,124.52,11.66c1-.58,1.84-.11,1.84,1.06v88.61a4.07,4.07,0,0,1-1.84,3.18L10.45,170.37c-1,.58-1.84.11-1.84-1.06V80.7A4.08,4.08,0,0,1,10.45,77.52Z"/><path class="cls-3" d="M18.76,182.15,127.7,119.26a3.37,3.37,0,0,1,3.06,0l5.57,3.22c.85.48.85,1.27,0,1.76l-109,62.89a3.43,3.43,0,0,1-3.06,0l-5.56-3.21A.94.94,0,0,1,18.76,182.15Z"/><path class="cls-3" d="M33.12,190.44l108.94-62.89a3.37,3.37,0,0,1,3.06,0l34.27,19.78a.93.93,0,0,1,0,1.77L70.58,211.91a3.39,3.39,0,0,1-3.07,0l-34.39-19.7A.94.94,0,0,1,33.12,190.44Z"/><path class="cls-6" d="M130.77,155.84l3.41-2c.15-.09.14-.23,0-.32l-3.94-2.28a.6.6,0,0,0-.54,0l-3.41,2c-.15.09-.14.23,0,.32l3.95,2.27A.57.57,0,0,0,130.77,155.84ZM124,148l-3.41,2c-.14.08-.13.22,0,.31l3.94,2.28a.59.59,0,0,0,.55,0l3.41-2c.14-.08.14-.22,0-.31L124.59,148A.63.63,0,0,0,124,148Zm-11,6.36-5.77,3.34c-.14.08-.14.22,0,.31l3.94,2.28a.63.63,0,0,0,.55,0l5.77-3.34c.14-.08.14-.22,0-.31l-3.94-2.28A.63.63,0,0,0,113,154.38Zm6-3.48-3.41,2c-.15.08-.14.22,0,.31l3.94,2.28a.6.6,0,0,0,.54,0l3.41-2c.15-.08.14-.22,0-.31l-4-2.28A.57.57,0,0,0,119.06,150.9Zm-13.38,7.72-3.42,2c-.14.09-.13.23,0,.32l4,2.27a.61.61,0,0,0,.54,0l3.41-2c.15-.09.14-.23,0-.32l-3.94-2.28A.6.6,0,0,0,105.68,158.62Zm-5,2.88-3.41,2c-.14.08-.14.23,0,.32l3.94,2.27a.59.59,0,0,0,.55,0l3.41-2c.14-.08.13-.22,0-.31l-4-2.28A.6.6,0,0,0,100.69,161.5Zm15.51,9.26,3.42-2c.14-.08.13-.22,0-.31l-3.95-2.28a.6.6,0,0,0-.54,0l-3.41,2c-.15.08-.14.22,0,.31l3.94,2.28A.57.57,0,0,0,116.2,170.76Zm-5,2.88,3.41-2c.15-.08.14-.22,0-.31l-3.94-2.28a.59.59,0,0,0-.55,0l-3.41,2c-.14.08-.13.22,0,.31l4,2.28A.6.6,0,0,0,111.22,173.64Zm-5,2.88,3.42-2c.14-.09.13-.23,0-.32L105.68,172a.57.57,0,0,0-.54,0l-3.41,2c-.15.08-.14.22,0,.31l3.94,2.28A.6.6,0,0,0,106.23,176.52Zm-5,2.88,3.41-2c.14-.09.14-.23,0-.32l-3.94-2.27a.63.63,0,0,0-.55,0l-3.41,2c-.14.09-.13.23,0,.32l3.95,2.27A.6.6,0,0,0,101.25,179.4Zm24.54-20.68,3.41-2c.14-.08.13-.22,0-.31l-3.94-2.28a.63.63,0,0,0-.55,0l-3.41,2c-.14.08-.14.22,0,.31l3.94,2.28A.59.59,0,0,0,125.79,158.72Zm-4.6,9.16,7.61-4.39c.14-.08.13-.22,0-.31l-9.58-5.53a.61.61,0,0,0-.54,0l-3.94,2.28c-.14.08-.13.22,0,.31l5.07,2.93c.16.09.17.23,0,.31l-3.15,1.82c-.14.08-.13.23,0,.32l4,2.27A.57.57,0,0,0,121.19,167.88Zm-25.48-3.5-3.42,2c-.14.08-.13.22,0,.31l4,2.28a.6.6,0,0,0,.54,0l3.41-2c.15-.08.14-.22,0-.31l-3.94-2.28A.6.6,0,0,0,95.71,164.38Zm-5,2.88-3.41,2c-.15.08-.14.22,0,.31l3.94,2.28a.63.63,0,0,0,.55,0l3.41-2c.14-.08.13-.22,0-.31l-3.95-2.28A.57.57,0,0,0,90.72,167.26ZM65.81,199.53a.57.57,0,0,0,.54,0l3.41-2c.15-.08.14-.22,0-.31l-4-2.28a.6.6,0,0,0-.54,0l-3.41,2c-.15.08-.14.22,0,.31Zm-15-9.25-3.41,2c-.15.09-.14.23,0,.32l3.94,2.27a.59.59,0,0,0,.55,0l3.41-2c.14-.09.13-.23,0-.32l-3.95-2.28A.6.6,0,0,0,50.84,190.28Zm8,6.76a.63.63,0,0,0,.55,0l3.41-2c.14-.09.13-.23,0-.32l-3.94-2.27a.59.59,0,0,0-.55,0l-3.41,2c-.14.08-.14.22,0,.31Zm15.75,4.24,3.41-2c.15-.08.14-.22,0-.31l-3.94-2.28a.6.6,0,0,0-.54,0l-3.42,2c-.14.08-.13.22,0,.31l3.95,2.28A.57.57,0,0,0,74.61,201.28Zm-5.53,2.87a.63.63,0,0,0,.55,0l3.41-2c.14-.08.13-.22,0-.31l-4-2.28a.57.57,0,0,0-.54,0l-3.41,2c-.15.08-.14.22,0,.31ZM55.83,187.41l-3.42,2c-.14.09-.13.23,0,.32l4,2.28a.64.64,0,0,0,.54,0l3.41-2c.15-.09.14-.23,0-.32l-3.94-2.27A.57.57,0,0,0,55.83,187.41ZM80.75,173l-3.41,2c-.14.09-.14.23,0,.32l3.94,2.27a.63.63,0,0,0,.55,0l3.41-2c.14-.09.13-.23,0-.32L81.29,173A.6.6,0,0,0,80.75,173ZM60.81,184.53l-3.41,2c-.15.08-.14.22,0,.31l3.94,2.28a.63.63,0,0,0,.55,0l3.41-2c.14-.08.13-.23,0-.32l-3.95-2.27A.57.57,0,0,0,60.81,184.53Zm24.93-14.39-3.42,2c-.14.08-.13.22,0,.31l4,2.28a.6.6,0,0,0,.54,0l3.41-2c.15-.09.14-.23,0-.32l-3.94-2.27A.57.57,0,0,0,85.74,170.14Zm-10,5.75-3.41,2c-.15.09-.14.23,0,.32l3.95,2.27a.57.57,0,0,0,.54,0l3.41-2c.15-.08.14-.22,0-.31l-3.94-2.28A.6.6,0,0,0,75.77,175.89Zm-5,2.88-3.41,2c-.15.08-.14.22,0,.31l3.94,2.28a.59.59,0,0,0,.55,0l3.41-2c.14-.08.13-.22,0-.31l-4-2.28A.6.6,0,0,0,70.78,178.77Zm-5,2.88-3.42,2c-.14.08-.13.22,0,.31l3.95,2.28a.6.6,0,0,0,.54,0l3.41-2c.15-.08.14-.22,0-.31l-3.94-2.28A.57.57,0,0,0,65.8,181.65Zm25.48,3.5,3.41-2c.14-.08.14-.22,0-.31l-3.94-2.28a.63.63,0,0,0-.55,0l-3.41,2c-.14.08-.13.22,0,.31l3.95,2.28A.57.57,0,0,0,91.28,185.15Zm43.78-43.49-3.41,2c-.14.08-.14.22,0,.31l3.94,2.28a.63.63,0,0,0,.55,0l3.41-2c.14-.08.14-.22,0-.31l-3.94-2.28A.59.59,0,0,0,135.06,141.66Zm-6,3.48-3.41,2c-.15.08-.14.22,0,.32l3.94,2.27a.57.57,0,0,0,.54,0l3.41-2c.15-.08.14-.22,0-.31l-4-2.28A.6.6,0,0,0,129,145.14Zm11-6.36-3.41,2c-.15.08-.14.22,0,.31l3.94,2.28a.6.6,0,0,0,.54,0l3.41-2c.15-.08.14-.22,0-.31l-3.94-2.28A.6.6,0,0,0,140.05,138.78Zm-25.81,26.61,3.41-2c.15-.09.14-.23,0-.32l-3.94-2.27a.57.57,0,0,0-.54,0l-3.41,2c-.15.08-.14.22,0,.31l3.94,2.28A.6.6,0,0,0,114.24,165.39Zm31.34-29.48a.63.63,0,0,0-.55,0l-3.41,2c-.14.08-.14.23,0,.32l3.94,2.27a.59.59,0,0,0,.55,0l3.41-2c.14-.08.14-.22,0-.31ZM96.26,182.27l3.42-2c.14-.08.13-.22,0-.31l-4-2.28a.6.6,0,0,0-.54,0l-3.41,2c-.15.09-.14.23,0,.32l3.94,2.27A.57.57,0,0,0,96.26,182.27ZM157.4,147l3.41-2c.14-.08.13-.22,0-.31l-3.95-2.28a.57.57,0,0,0-.54,0l-3.41,2c-.14.08-.14.22,0,.31l3.94,2.28A.63.63,0,0,0,157.4,147Zm-10.62-.38,3.41-2c.14-.08.13-.22,0-.31L146.22,142a.6.6,0,0,0-.54,0l-3.41,2c-.14.09-.14.23,0,.32l3.94,2.27A.59.59,0,0,0,146.78,146.6Zm4.43-7.43a.61.61,0,0,0-.54,0l-3.42,2c-.14.09-.13.23,0,.32l3.95,2.28a.64.64,0,0,0,.54,0l3.41-2c.15-.09.14-.23,0-.32Zm1-.61,9.58,5.53a.6.6,0,0,0,.54,0l3.41-2c.15-.08.14-.22,0-.31l-9.58-5.53a.57.57,0,0,0-.54,0l-3.41,2C152.1,138.33,152.1,138.47,152.26,138.56Zm-11.56,6.35-3.42,2c-.14.08-.13.22,0,.31l3.95,2.28a.57.57,0,0,0,.54,0l3.41-2c.15-.08.14-.22,0-.31l-3.94-2.28A.6.6,0,0,0,140.7,144.91Zm-37.52,21.66-3.41,2c-.15.09-.14.23,0,.32l3.94,2.27a.57.57,0,0,0,.54,0l3.41-2c.15-.09.14-.23,0-.32l-3.94-2.28A.6.6,0,0,0,103.18,166.57Zm48.69-16.72a.6.6,0,0,0,.54,0l3.41-2c.15-.09.14-.23,0-.32l-3.94-2.27a.57.57,0,0,0-.54,0l-3.42,2c-.14.09-.13.23,0,.32Zm-43.71,13.84-3.41,2c-.14.09-.13.23,0,.32l3.94,2.27a.63.63,0,0,0,.55,0l3.41-2c.14-.09.14-.23,0-.32l-3.94-2.27A.63.63,0,0,0,108.16,163.69Zm-37.37,33a.59.59,0,0,0,.55,0l3.41-2c.14-.09.14-.23,0-.32l-3.94-2.28a.63.63,0,0,0-.55,0l-3.41,2c-.14.09-.13.23,0,.32ZM63.3,189.6l-3.41,2c-.15.08-.14.22,0,.31l4,2.28a.6.6,0,0,0,.54,0l3.41-2c.15-.08.14-.22,0-.31l-3.94-2.28A.57.57,0,0,0,63.3,189.6Zm13,4.19,3.41-2c.15-.09.14-.23,0-.32l-4-2.27a.61.61,0,0,0-.54,0l-3.41,2c-.15.09-.14.23,0,.32l3.94,2.28A.6.6,0,0,0,76.32,193.79Zm5-2.88,3.41-2c.14-.08.14-.23,0-.31l-3.94-2.28a.59.59,0,0,0-.55,0l-3.41,2c-.14.08-.13.22,0,.31l4,2.28A.6.6,0,0,0,81.31,190.91Zm5-2.88,3.41-2c.15-.08.14-.22,0-.31l-4-2.28a.6.6,0,0,0-.54,0l-3.41,2c-.15.08-.14.22,0,.31L85.75,188A.6.6,0,0,0,86.29,188Zm-18-1.31-3.41,2c-.14.08-.14.22,0,.31l3.94,2.28a.63.63,0,0,0,.55,0l3.41-2c.14-.08.14-.22,0-.31l-3.94-2.28A.63.63,0,0,0,68.28,186.72Zm5-2.88-3.41,2c-.15.08-.14.22,0,.31l3.95,2.28a.57.57,0,0,0,.54,0l3.41-2c.15-.08.14-.22,0-.31l-3.94-2.28A.6.6,0,0,0,73.27,183.84Zm19.94-11.51-3.41,2c-.15.08-.14.22,0,.31l4,2.28a.6.6,0,0,0,.54,0l3.41-2c.15-.08.14-.22,0-.31l-4-2.28A.6.6,0,0,0,93.21,172.33Zm-5,2.88-3.41,2c-.14.08-.14.22,0,.31l3.94,2.28a.63.63,0,0,0,.55,0l3.41-2c.14-.08.14-.23,0-.31l-3.94-2.28A.59.59,0,0,0,88.22,175.21Zm10-5.76-3.41,2c-.14.08-.14.22,0,.31L98.74,174a.59.59,0,0,0,.55,0l3.41-2c.14-.08.14-.22,0-.31l-3.94-2.28A.63.63,0,0,0,98.19,169.45ZM78.25,181l-3.41,2c-.14.09-.14.23,0,.32l3.94,2.27a.59.59,0,0,0,.55,0l3.41-2c.14-.09.14-.23,0-.32L78.8,181A.63.63,0,0,0,78.25,181Zm5-2.88-3.41,2c-.15.09-.14.23,0,.32l4,2.28a.6.6,0,0,0,.54,0l3.41-2c.15-.09.14-.23,0-.32l-3.94-2.27A.61.61,0,0,0,83.24,178.08ZM79.6,198.4l3.41-2c.14-.08.13-.22,0-.31L79,193.84a.6.6,0,0,0-.54,0l-3.41,2c-.15.08-.14.22,0,.31l3.94,2.28A.59.59,0,0,0,79.6,198.4Zm-29.26-3-3.94-2.28a.6.6,0,0,0-.54,0l-3.42,2c-.14.08-.13.22,0,.31l3.95,2.28a.57.57,0,0,0,.54,0l3.41-2C50.51,195.68,50.5,195.54,50.34,195.45Zm7.47,2.19-3.94-2.27a.58.58,0,0,0-.54,0l-5.25,3c-.15.09-.14.23,0,.32L52,201a.63.63,0,0,0,.55,0l5.24-3C58,197.87,58,197.73,57.81,197.64Zm-13.52-6.59-3.94-2.28a.59.59,0,0,0-.55,0l-4.19,2.42c-.15.09-.14.23,0,.32l3.94,2.27a.57.57,0,0,0,.54,0l4.2-2.42C44.46,191.28,44.45,191.14,44.29,191.05Zm3.22-1.86a.6.6,0,0,0,.54,0l3.42-2c.14-.08.13-.22,0-.31l-4-2.28a.57.57,0,0,0-.54,0l-3.41,2c-.15.08-.14.22,0,.31Zm17.25,10.95-3.94-2.28a.63.63,0,0,0-.55,0l-6.56,3.79c-.14.08-.13.22,0,.31l4,2.28a.6.6,0,0,0,.54,0l6.56-3.79C64.92,200.37,64.92,200.23,64.76,200.14ZM68,204.75l-3.94-2.27a.57.57,0,0,0-.54,0l-4.2,2.42c-.15.08-.14.22,0,.31l3.94,2.28a.57.57,0,0,0,.54,0l4.2-2.42C68.2,205,68.19,204.84,68,204.75Zm16.55-37a.6.6,0,0,0,.54,0l3.41-2c.14-.08.14-.22,0-.31l-3.94-2.28a.63.63,0,0,0-.55,0l-3.41,2c-.14.08-.13.22,0,.31Zm-10,5.76a.63.63,0,0,0,.55,0l3.41-2c.14-.09.14-.23,0-.32L74.6,169a.59.59,0,0,0-.55,0l-3.41,2c-.14.09-.13.23,0,.32ZM52.5,186.31a.57.57,0,0,0,.54,0l3.41-2c.15-.08.14-.22,0-.31l-3.94-2.28a.63.63,0,0,0-.55,0l-3.41,2c-.14.08-.13.22,0,.31Zm27.09-15.64a.6.6,0,0,0,.54,0l3.42-2c.14-.08.13-.22,0-.31l-4-2.28a.57.57,0,0,0-.54,0l-3.41,2c-.15.08-.14.22,0,.31Zm-10,5.75a.61.61,0,0,0,.54,0l3.41-2c.15-.09.14-.23,0-.32l-4-2.28a.6.6,0,0,0-.54,0l-3.41,2c-.15.09-.14.23,0,.32Zm1.15,28.7a.6.6,0,0,0-.54,0l-5.25,3c-.14.09-.13.23,0,.32l3.94,2.27a.59.59,0,0,0,.55,0l5.25-3c.14-.09.13-.23,0-.32Zm-8.3-24.57a.6.6,0,0,0,.54,0l3.41-2c.15-.09.14-.23,0-.32L62.46,176a.63.63,0,0,0-.55,0l-3.41,2c-.14.09-.13.23,0,.32Zm-5,2.88a.57.57,0,0,0,.54,0l3.42-2c.14-.08.13-.22,0-.31l-4-2.28a.6.6,0,0,0-.54,0l-3.41,2c-.15.09-.14.23,0,.32ZM163.13,151.8a.63.63,0,0,0-.55,0l-8.39,4.85c-.15.08-.14.22,0,.31l3.94,2.28a.59.59,0,0,0,.55,0l8.39-4.85c.15-.08.14-.22,0-.31Zm-11,6.37a.63.63,0,0,0-.55,0l-3.41,2c-.14.09-.13.23,0,.32l4,2.27a.61.61,0,0,0,.54,0l3.41-2c.15-.09.14-.23,0-.32ZM84.58,195.52l3.41-2c.15-.09.14-.23,0-.32L84,191a.6.6,0,0,0-.54,0l-3.42,2c-.14.09-.13.23,0,.32l4,2.27A.57.57,0,0,0,84.58,195.52Zm57.56-31.6a.63.63,0,0,0-.55,0l-3.41,2c-.14.08-.13.22,0,.31l4,2.28a.57.57,0,0,0,.54,0l3.41-2c.15-.08.14-.22,0-.31Zm26-15a.6.6,0,0,0-.54,0l-3.41,2c-.15.09-.14.23,0,.32l3.94,2.27a.63.63,0,0,0,.55,0l3.41-2c.14-.09.13-.23,0-.32Zm8.93-.6-9.58-5.53a.6.6,0,0,0-.54,0l-3.41,2c-.15.08-.14.23,0,.32l9.58,5.53a.6.6,0,0,0,.54,0l3.41-2C177.21,148.55,177.2,148.41,177,148.32Zm-53.53,26.36a.57.57,0,0,0-.54,0l-4.2,2.42c-.15.08-.14.22,0,.31l3.94,2.28a.63.63,0,0,0,.55,0l4.19-2.42c.15-.09.14-.23,0-.32Zm12.59-7.28a.64.64,0,0,0-.54,0l-5.25,3c-.14.09-.13.23,0,.32l3.95,2.28a.64.64,0,0,0,.54,0l5.25-3c.14-.09.13-.23,0-.32ZM112,181.34a.63.63,0,0,0-.55,0L83.35,197.54c-.15.08-.14.22,0,.31l3.94,2.28a.63.63,0,0,0,.55,0l28.07-16.21c.14-.08.14-.22,0-.31ZM82.32,198.46a.59.59,0,0,0-.55,0l-4.19,2.42c-.15.08-.14.23,0,.32l4,2.27a.57.57,0,0,0,.54,0l4.2-2.42c.15-.08.14-.22,0-.31ZM117.74,178a.59.59,0,0,0-.55,0L113,180.42c-.15.09-.14.23,0,.32L117,183a.57.57,0,0,0,.54,0l4.2-2.42c.15-.08.14-.22,0-.31ZM76.55,201.79a.63.63,0,0,0-.55,0l-4.2,2.42c-.14.09-.13.23,0,.32l4,2.27a.61.61,0,0,0,.54,0l4.2-2.43c.14-.08.14-.22,0-.31Zm52.73-30.45a.6.6,0,0,0-.54,0l-4.2,2.43c-.14.08-.14.22,0,.31l3.94,2.28a.63.63,0,0,0,.55,0l4.2-2.43c.14-.08.13-.22,0-.31ZM147.12,161a.6.6,0,0,0-.54,0l-3.41,2c-.15.08-.14.23,0,.31l3.94,2.28a.59.59,0,0,0,.55,0l3.41-2c.14-.08.13-.22,0-.31Zm10.93-7.93,3.41-2c.14-.08.13-.22,0-.31l-3.95-2.28a.57.57,0,0,0-.54,0l-3.41,2c-.15.08-.14.22,0,.31l3.94,2.28A.63.63,0,0,0,158.05,153.11ZM135.76,153l3.41-2c.14-.09.13-.23,0-.32l-3.94-2.27a.63.63,0,0,0-.55,0l-3.41,2c-.14.09-.14.23,0,.32l3.94,2.27A.6.6,0,0,0,135.76,153Zm-11.3,19.53,10-5.76c.15-.08.14-.22,0-.31l-3.94-2.28a.6.6,0,0,0-.54,0l-10,5.76c-.15.08-.14.22,0,.31l4,2.28A.6.6,0,0,0,124.46,172.5ZM152.52,156a.6.6,0,0,0,.54,0l3.41-2c.15-.08.14-.22,0-.32l-3.94-2.27a.59.59,0,0,0-.55,0l-3.41,2c-.14.08-.13.22,0,.31Zm-5.09-3.24,3.41-2c.14-.09.13-.23,0-.32l-3.95-2.27a.58.58,0,0,0-.54,0l-3.41,2c-.15.09-.14.23,0,.32l3.94,2.27A.63.63,0,0,0,147.43,152.74Zm-27.95,22.64,3.41-2c.14-.08.13-.23,0-.32l-3.94-2.27a.59.59,0,0,0-.55,0l-3.41,2c-.15.08-.14.22,0,.31l3.94,2.28A.63.63,0,0,0,119.48,175.38Zm22-13a.6.6,0,0,0,.54,0l3.41-2c.15-.08.14-.22,0-.31l-3.94-2.28a.63.63,0,0,0-.55,0l-3.41,2c-.14.08-.13.22,0,.31ZM94.55,189.77l3.41-2c.15-.08.14-.23,0-.31L94,185.21a.57.57,0,0,0-.54,0l-3.42,2c-.14.08-.13.22,0,.31l4,2.28A.6.6,0,0,0,94.55,189.77Zm5-2.88,3.41-2c.14-.08.13-.22,0-.31l-4-2.28a.57.57,0,0,0-.54,0l-3.41,2c-.14.08-.14.22,0,.31L99,186.88A.63.63,0,0,0,99.54,186.89Zm-10,5.76,3.41-2c.14-.09.13-.23,0-.32L89,188.09a.6.6,0,0,0-.54,0l-3.41,2c-.15.09-.14.23,0,.32L89,192.64A.63.63,0,0,0,89.57,192.65Zm19.94-11.52,3.41-2c.14-.09.13-.23,0-.32l-4-2.28a.6.6,0,0,0-.54,0l-3.41,2c-.14.08-.14.23,0,.32l3.94,2.27A.59.59,0,0,0,109.51,181.13Zm-5,2.88,3.41-2c.15-.08.14-.22,0-.31L104,179.45a.6.6,0,0,0-.54,0l-3.42,2c-.14.08-.13.22,0,.31l4,2.28A.57.57,0,0,0,104.52,184Zm10-5.75,3.41-2c.15-.09.14-.23,0-.32l-3.94-2.27a.61.61,0,0,0-.54,0l-3.41,2c-.15.09-.14.23,0,.32l4,2.27A.61.61,0,0,0,114.49,178.26Zm22.81-42.58a.6.6,0,0,0,.54,0l3.41-2c.15-.08.14-.22,0-.31l-1-.61a.6.6,0,0,0-.54,0l-3.41,2c-.15.08-.14.22,0,.31Zm-24.53,15.83a.59.59,0,0,0,.55,0l3.41-2c.14-.08.13-.22,0-.31L112.76,147a.6.6,0,0,0-.54,0l-3.41,2c-.15.08-.14.22,0,.31Zm10-5.76a.63.63,0,0,0,.55,0l3.41-2c.14-.09.13-.23,0-.32l-4-2.28a.64.64,0,0,0-.54,0l-3.41,2c-.15.09-.14.23,0,.32ZM106.68,155a.6.6,0,0,0,.55,0l3.41-2c.14-.09.14-.23,0-.32l-3.94-2.27a.63.63,0,0,0-.55,0l-3.41,2c-.14.09-.14.23,0,.32Zm11.08-6.39a.57.57,0,0,0,.54,0l3.41-2c.15-.08.14-.22,0-.31l-3.94-2.28a.63.63,0,0,0-.55,0l-3.41,2c-.14.09-.13.23,0,.32ZM96.71,160.78a.59.59,0,0,0,.55,0l3.41-2c.14-.08.14-.22,0-.31l-3.94-2.28a.63.63,0,0,0-.55,0l-3.41,2c-.14.08-.14.22,0,.31Zm5-2.88a.57.57,0,0,0,.54,0l3.41-2c.15-.08.14-.22,0-.31l-3.94-2.28a.6.6,0,0,0-.54,0l-3.41,2c-.15.09-.14.23,0,.32Zm25.63-16.47a.61.61,0,0,0,.54,0l3.41-2c.15-.09.14-.23,0-.32l-1-.6a.57.57,0,0,0-.54,0l-3.41,2c-.15.09-.14.23,0,.32Zm15-8.63a.59.59,0,0,0,.55,0l3.41-2c.14-.08.14-.22,0-.31l-1.05-.61a.6.6,0,0,0-.54,0l-3.42,2c-.14.08-.13.22,0,.31Zm8.29,4.78a.57.57,0,0,0,.54,0l3.41-2c.15-.09.14-.23,0-.32L150.56,133a.6.6,0,0,0-.54,0l-3.41,2c-.15.09-.14.23,0,.32ZM163,150.23l3.41-2c.15-.08.14-.22,0-.31l-3.94-2.28a.63.63,0,0,0-.55,0l-3.41,2c-.14.08-.13.22,0,.31l4,2.28A.57.57,0,0,0,163,150.23Zm-30.72-11.67a.63.63,0,0,0,.55,0l3.41-2c.14-.09.14-.23,0-.32l-1.05-.6a.57.57,0,0,0-.54,0l-3.42,2c-.14.08-.13.22,0,.31Zm-40.58,25.1a.6.6,0,0,0,.54,0l3.41-2c.15-.08.14-.22,0-.31l-3.94-2.28a.6.6,0,0,0-.54,0l-3.41,2c-.15.08-.14.22,0,.31Z"/><polygon class="cls-3" points="112 194.64 149.33 173.09 172.31 186.35 134.97 207.91 112 194.64"/><path class="cls-7" d="M37,66.82,148.25,2.59c2.17-1.26,3.95-.23,3.95,2.28V91a4.09,4.09,0,0,1-1.83,3.18L36.3,160.07c-1,.59-1.84.11-1.84-1.06V71.22A5.63,5.63,0,0,1,37,66.82Z"/><path class="cls-3" d="M152.2,6.94V4.87c0-2.51-1.78-3.54-3.95-2.28L37,66.82a5.63,5.63,0,0,0-2.55,4.4v3.7Z"/><path class="cls-8" d="M135.62,11.64A3,3,0,0,0,134.25,14c0,.87.61,1.22,1.37.79A3,3,0,0,0,137,12.43C137,11.56,136.37,11.21,135.62,11.64Z"/><path class="cls-8" d="M141,8.52a3,3,0,0,0-1.36,2.36c0,.87.61,1.22,1.36.79a3,3,0,0,0,1.36-2.36C142.38,8.44,141.77,8.09,141,8.52Z"/><path class="cls-8" d="M146.43,5.4a3,3,0,0,0-1.36,2.36c0,.87.61,1.22,1.36.79a3,3,0,0,0,1.36-2.36C147.79,5.32,147.18,5,146.43,5.4Z"/><polygon class="cls-9" points="34.46 74.92 34.46 91.5 152.2 23.52 152.2 6.94 34.46 74.92"/><polygon class="cls-10" points="34.46 74.92 34.46 91.5 152.2 23.52 152.2 6.94 34.46 74.92"/><path class="cls-10" d="M54.56,87.23V145.5c0,.39.21.59.45.44a1.24,1.24,0,0,0,.45-1V86.69c0-.39-.2-.59-.45-.44A1.27,1.27,0,0,0,54.56,87.23Z"/><path class="cls-8" d="M20.1,109.83,45.76,95c.84-.49,1.53-.09,1.53.89v18a3.38,3.38,0,0,1-1.53,2.65L20.1,131.42c-.84.48-1.53.09-1.53-.89v-18A3.41,3.41,0,0,1,20.1,109.83Z"/><path class="cls-10" d="M47.29,95.91c0-1-.69-1.38-1.53-.89L20.1,109.83a3.41,3.41,0,0,0-1.53,2.66V114L47.29,97.44Z"/><polygon class="cls-5" points="21.44 115.68 32.93 109.05 32.93 120.66 21.45 127.29 21.44 115.68"/><path class="cls-10" d="M21.44,125.6,25.75,118a.49.49,0,0,1,.83-.1l1.5,1.65,2.6-6c.15-.35.46-.39.68-.07l1.57,2.23v5l-11.49,6.63Z"/><path class="cls-5" d="M35.8,108.39c0,.55.41.77.92.47L43.5,105a2,2,0,0,0,.92-1.53c0-.55-.41-.77-.92-.47l-6.78,3.91A2,2,0,0,0,35.8,108.39Z"/><path class="cls-5" d="M35.8,113.17c0,.55.41.76.92.47l6.78-3.92a2,2,0,0,0,.92-1.53c0-.55-.41-.76-.92-.47l-6.78,3.92A2,2,0,0,0,35.8,113.17Z"/><path class="cls-5" d="M35.8,117.94c0,.55.41.77.92.47l6.78-3.91a2,2,0,0,0,.92-1.53c0-.55-.41-.77-.92-.47l-6.78,3.91A2,2,0,0,0,35.8,117.94Z"/><path class="cls-8" d="M20.1,137.78,45.76,123c.84-.49,1.53-.1,1.53.88V141.9a3.41,3.41,0,0,1-1.53,2.65L20.1,159.36c-.84.49-1.53.09-1.53-.88v-18A3.39,3.39,0,0,1,20.1,137.78Z"/><path class="cls-10" d="M47.29,123.85c0-1-.69-1.37-1.53-.88L20.1,137.78a3.39,3.39,0,0,0-1.53,2.65V142l28.72-16.58Z"/><polygon class="cls-5" points="21.44 143.62 32.93 136.99 32.93 148.6 21.45 155.23 21.44 143.62"/><path class="cls-10" d="M21.44,153.55l4.31-7.65a.49.49,0,0,1,.83-.1l1.5,1.66,2.6-6c.15-.36.46-.39.68-.07l1.57,2.22v5l-11.49,6.63Z"/><path class="cls-5" d="M35.8,136.33c0,.56.41.77.92.47l6.78-3.91a2,2,0,0,0,.92-1.53c0-.55-.41-.76-.92-.47l-6.78,3.91A2,2,0,0,0,35.8,136.33Z"/><path class="cls-5" d="M35.8,141.11c0,.55.41.76.92.47l6.78-3.91a2,2,0,0,0,.92-1.53c0-.56-.41-.77-.92-.47l-6.78,3.91A2,2,0,0,0,35.8,141.11Z"/><path class="cls-5" d="M35.8,145.89c0,.55.41.76.92.47l6.78-3.92a2,2,0,0,0,.92-1.53c0-.55-.41-.76-.92-.47l-6.78,3.91A2,2,0,0,0,35.8,145.89Z"/><path class="cls-8" d="M64.71,110.51,143.59,65c.84-.49,1.53-.09,1.53.88v23a3.41,3.41,0,0,1-1.53,2.65L64.71,137c-.85.49-1.53.09-1.53-.88v-23A3.35,3.35,0,0,1,64.71,110.51Z"/><path class="cls-10" d="M145.12,65.85c0-1-.69-1.37-1.53-.88L64.71,110.51a3.35,3.35,0,0,0-1.53,2.65v1.53l81.94-47.3Z"/><path class="cls-5" d="M82.63,105.73l-15.93,9.2a2.69,2.69,0,0,0-1.22,2.12V132.8c0,.78.54,1.09,1.22.7l15.93-9.19a2.7,2.7,0,0,0,1.23-2.12V106.44C83.86,105.66,83.31,105.34,82.63,105.73Z"/><path class="cls-10" d="M71.1,119.57l-5.62,12v1.25c0,.78.54,1.09,1.22.7l15.93-9.19a2.7,2.7,0,0,0,1.23-2.12v-5.44l-3-5.69c-.36-.69-.91-.66-1.21.06l-4.75,11.15-2.3-2.88A.81.81,0,0,0,71.1,119.57Z"/><path class="cls-10" d="M67.32,119.43a6.1,6.1,0,0,0,2.75-4.77,2.33,2.33,0,0,0-.41-1.44l-3,1.71a2.69,2.69,0,0,0-1.22,2.12v2.62A2,2,0,0,0,67.32,119.43Z"/><path class="cls-5" d="M91.06,102.26,140.3,73.83c.68-.39,1.22-.12,1.22.6a2.59,2.59,0,0,1-1.22,2L91.06,104.87c-.68.39-1.23.13-1.23-.59A2.63,2.63,0,0,1,91.06,102.26Z"/><path class="cls-5" d="M91.06,108.9,140.3,80.47c.68-.39,1.22-.13,1.22.59a2.59,2.59,0,0,1-1.22,2L91.06,111.51c-.68.39-1.23.12-1.23-.6A2.6,2.6,0,0,1,91.06,108.9Z"/><path class="cls-5" d="M91.06,115.53,140.3,87.1c.68-.39,1.22-.13,1.22.6a2.59,2.59,0,0,1-1.22,2L91.06,118.14c-.68.39-1.23.12-1.23-.6A2.6,2.6,0,0,1,91.06,115.53Z"/><path class="cls-8" d="M79.07,70.68,158,25.15c.84-.49,1.53-.09,1.53.88V49A3.41,3.41,0,0,1,158,51.69L79.07,97.22c-.85.49-1.53.09-1.53-.88v-23A3.38,3.38,0,0,1,79.07,70.68Z"/><path class="cls-10" d="M159.48,26c0-1-.69-1.37-1.53-.88L79.07,70.68a3.38,3.38,0,0,0-1.53,2.66v1.53l81.94-47.3Z"/><path class="cls-5" d="M97,65.91l-15.93,9.2a2.7,2.7,0,0,0-1.23,2.12V93c0,.78.55,1.09,1.23.7L97,84.49a2.69,2.69,0,0,0,1.22-2.12V66.62C98.21,65.84,97.67,65.52,97,65.91Z"/><path class="cls-10" d="M85.45,79.75l-5.62,12V93c0,.78.55,1.09,1.23.7L97,84.49a2.69,2.69,0,0,0,1.22-2.12V76.92l-3-5.68c-.36-.69-.91-.66-1.21.06L89.24,82.45l-2.3-2.88A.81.81,0,0,0,85.45,79.75Z"/><path class="cls-10" d="M81.68,79.6a6.06,6.06,0,0,0,2.75-4.76A2.27,2.27,0,0,0,84,73.4l-3,1.71a2.7,2.7,0,0,0-1.23,2.12v2.62A2,2,0,0,0,81.68,79.6Z"/><path class="cls-5" d="M105.42,62.44,154.66,34c.67-.39,1.22-.12,1.22.6a2.59,2.59,0,0,1-1.22,2L105.42,65.05c-.68.39-1.23.13-1.23-.59A2.6,2.6,0,0,1,105.42,62.44Z"/><path class="cls-5" d="M105.42,69.08l49.24-28.43c.67-.39,1.22-.13,1.22.59a2.59,2.59,0,0,1-1.22,2L105.42,71.68c-.68.39-1.23.13-1.23-.59A2.6,2.6,0,0,1,105.42,69.08Z"/><path class="cls-5" d="M105.42,75.71l49.24-28.43c.67-.39,1.22-.13,1.22.59a2.62,2.62,0,0,1-1.22,2L105.42,78.32c-.68.39-1.23.12-1.23-.6A2.6,2.6,0,0,1,105.42,75.71Z"/></g></g></svg>