<svg xmlns="http://www.w3.org/2000/svg" xmlns:xlink="http://www.w3.org/1999/xlink" viewBox="0 0 752.43 234.12"><defs><style>.cls-1{fill:url(#linear-gradient);}</style><linearGradient id="linear-gradient" x1="376.22" y1="-36.35" x2="376.22" y2="175.08" gradientTransform="matrix(1, 0, 0, -1, 0, 208.12)" gradientUnits="userSpaceOnUse"><stop offset="0" stop-color="#95edff"/><stop offset="1" stop-color="#e9ffff"/></linearGradient></defs><g id="Layer_2" data-name="Layer 2"><g id="Layer_1-2" data-name="Layer 1"><path class="cls-1" d="M485.24,234V.08A38.38,38.38,0,0,0,481,0v234A38.38,38.38,0,0,0,485.24,234ZM472,232.59a39.71,39.71,0,0,0,4.29,1V.56a37.47,37.47,0,0,0-4.29,1Zm-8.91-3.88a38.72,38.72,0,0,0,4.3,2.2V3.22a38.72,38.72,0,0,0-4.3,2.2Zm35.63,2a38.44,38.44,0,0,0,4.29-2.29V5.73a38.52,38.52,0,0,0-4.29-2.3Zm-8.91,2.79a37.94,37.94,0,0,0,4.3-1V1.69a40.21,40.21,0,0,0-4.3-1Zm-34.24-10.63c.94.93,1.91,1.81,2.91,2.63V8.65c-1,.81-2,1.69-2.91,2.62l-1.38,1.39v208.8Zm-28.1-28.11,4.29,4.3V35.09l-4.29,4.29Zm82.56,28.11L512,221V13.16l-1.89-1.89c-.77-.77-1.58-1.5-2.4-2.19v216C508.49,224.35,509.3,223.63,510.07,222.85Zm-64.75-10.29,4.29,4.29V17.27l-4.29,4.3Zm-8.91-8.91,4.3,4.29V26.18l-4.3,4.29Zm80.16,12.7,4.29-4.29v-190l-4.29-4.3ZM570,162.91l4.29-4.29V75.51L570,71.21Zm8.91-8.91,4.29-4.29V84.41l-4.29-4.29ZM561.1,171.82l4.3-4.3V66.6l-4.3-4.29Zm-187-24.8a33.69,33.69,0,0,1,4.29,1.62V85.49a35.21,35.21,0,0,1-4.29,1.61Zm44.53,38.82,4.29,4.29V44l-4.29,4.3ZM587.82,145.1l4.3-4.29V93.32L587.82,89Zm-53.44,53.44,4.3-4.3V39.88l-4.3-4.29Zm-8.9,8.9,4.29-4.29V31l-4.29-4.29Zm17.81-17.81,4.29-4.29V48.79l-4.29-4.3Zm8.91-8.91,4.29-4.29V57.69L552.2,53.4Zm161.16-46.47a15.77,15.77,0,0,0,3.45,2.58V97.29a15.51,15.51,0,0,0-3.45,2.59c-.27.27-.56.52-.85.77v32.83c.29.25.58.49.85.77Zm-27.57,5.68,4.3-4.3V98.49l-4.3-4.29ZM668,151.87a46.92,46.92,0,0,0,4.29-1.93V84.18c-1.4-.71-2.84-1.36-4.29-1.93Zm26.72-20.08a15.56,15.56,0,0,1,4.29-1.68V104a15.26,15.26,0,0,1-4.29-1.68Zm-35.63,22.67c1.45-.27,2.88-.62,4.3-1V80.69c-1.42-.41-2.85-.75-4.3-1Zm-8.9.89c1.43,0,2.86-.08,4.29-.22V79c-1.43-.14-2.86-.2-4.29-.22Zm80.16-17.8a15.62,15.62,0,0,0,4.29-2.74V99.31a15.62,15.62,0,0,0-4.29-2.74Zm8.9-7.29,4.29-4.29V108.16l-4.29-4.3ZM365.16,145.6a34.51,34.51,0,0,1,4.3.38V88.14a34.52,34.52,0,0,1-4.3.39Zm360.55-6.89V95.41a15.43,15.43,0,0,0-4.29.21v42.89A15.82,15.82,0,0,0,725.71,138.71Zm-316,38.22,4.3,4.29V52.9l-4.3,4.29Zm293.92-47.16a15.23,15.23,0,0,1,4.29,1V103.4a15.57,15.57,0,0,1-4.29.95Zm-98,6.59a15.74,15.74,0,0,1,4.29,1.35V96.41a15.08,15.08,0,0,1-4.29,1.35Zm-8.91,1.21a15.18,15.18,0,0,1,4.29-1.25V97.81a15.54,15.54,0,0,1-4.29-1.26ZM400.79,168l4.29,4.3V61.81l-4.29,4.29Zm-8.91-8.9,4.29,4.29V70.71L391.88,75Zm222.66-18a51.72,51.72,0,0,0,4.29,3.74V89.3a51.85,51.85,0,0,0-4.29,3.75Zm26.72,13.58c1.43.24,2.86.42,4.29.53V78.93c-1.43.11-2.86.29-4.29.53ZM623.45,148c1.4.85,2.83,1.64,4.29,2.34V83.76q-2.19,1.06-4.29,2.35Zm53.44-.73a51,51,0,0,0,4.29-3.13V90a50.86,50.86,0,0,0-4.29-3.12Zm-44.54,5c1.42.51,2.85,1,4.3,1.35V80.46c-1.45.38-2.88.83-4.3,1.35Zm-434,42.09,1.84-1.85v-151l-1.84-1.85c-.79-.79-1.61-1.52-2.45-2.22V196.64C196.78,195.94,197.6,195.2,198.39,194.41Zm51-48.54a34.78,34.78,0,0,1,4.29-1.8v-54a34.78,34.78,0,0,1-4.29-1.8Zm-8.8,6.35a34.18,34.18,0,0,1,4.19-3.56V85.46a34.18,34.18,0,0,1-4.19-3.56l-.11-.1v70.53Zm-9,9,4.29-4.29V77.18l-4.29-4.29Zm26.72-18.38a34.43,34.43,0,0,1,4.29-.53V91.8a34.43,34.43,0,0,1-4.29-.53Zm-80.16,61.84a39.5,39.5,0,0,0,4.29-.93V30.37a35.27,35.27,0,0,0-4.29-.93Zm8.9-2.57a34.85,34.85,0,0,0,4.3-2.2V34.2A36.3,36.3,0,0,0,187,32Zm35.63-32,4.29-4.29V68.28L222.66,64Zm-187-20.92a34.5,34.5,0,0,0,4.29,1.48V83.43a31.52,31.52,0,0,0-4.29,1.48ZM204.85,188l4.29-4.29V50.47l-4.29-4.3Zm8.9-8.91,4.3-4.29V59.37l-4.3-4.29Zm-141.32-37a15.35,15.35,0,0,1,3.11-2.39V94.47a15.72,15.72,0,0,1-3.11-2.39c-.39-.39-.78-.76-1.18-1.12v52.21l1.18-1.12ZM8.91,126l4.29,4.29v-26.4l-4.29,4.3ZM89.06,138.6a15.57,15.57,0,0,1,4.3,2.58V92.94a15.57,15.57,0,0,1-4.3,2.58Zm-71.25-3.73,4.3,4.3V95l-4.3,4.29Zm734.62-17.81-4.29-4.29v8.58ZM0,117.06l4.29,4.29v-8.58Zm53.44,34.48a33.41,33.41,0,0,0,4.29-.91V83.49a33.37,33.37,0,0,0-4.29-.9Zm-26.72-7.89A33.17,33.17,0,0,0,31,146.82V87.3a34.13,34.13,0,0,0-4.29,3.17Zm17.81,8a34.3,34.3,0,0,0,4.29.26V82.25a34.32,34.32,0,0,0-4.29.27ZM62.34,149a34.87,34.87,0,0,0,4.3-2.3V87.45a32.36,32.36,0,0,0-4.3-2.3Zm22.11-11.41v-41a15.47,15.47,0,0,1-4.29-.3v41.6A15.47,15.47,0,0,1,84.45,137.57Zm22.43,17,4.29,4.3V75.22l-4.29,4.29Zm187,2.66a34.78,34.78,0,0,0,4.29,3.16V73.7a33.7,33.7,0,0,0-4.29,3.15Zm8.91,5.54a33,33,0,0,0,4.29,1.49V69.82a33,33,0,0,0-4.29,1.49ZM276.1,144.23a34.65,34.65,0,0,1,4.29,1.88V88a34.59,34.59,0,0,1-4.29,1.87Zm80.16,2.29a34.65,34.65,0,0,1,4.29-.74V88.34a34.65,34.65,0,0,1-4.29-.74Zm-89.07-4.16a34.72,34.72,0,0,1,4.3.59V91.17a34.74,34.74,0,0,1-4.3.6Zm44.53,22.86a32.58,32.58,0,0,0,4.3.29V68.61a34.38,34.38,0,0,0-4.3.29Zm28.45-9.68c.83-.82,1.68-1.59,2.57-2.31V80.9c-.89-.72-1.74-1.5-2.57-2.32-.56-.56-1.14-1.09-1.73-1.6v80.17c.59-.52,1.17-1,1.73-1.61Zm-10.63,7.21a33.54,33.54,0,0,0,4.29-2.22V73.59a33.54,33.54,0,0,0-4.29-2.22Zm17.81-12.69a33.82,33.82,0,0,1,4.29-2.07V86.14a33.89,33.89,0,0,1-4.29-2.08Zm-26.72,15.15a34.65,34.65,0,0,0,4.29-.86V69.78a32.9,32.9,0,0,0-4.29-.86ZM169.22,205a36.17,36.17,0,0,0,4.29.13V29a36.17,36.17,0,0,0-4.29.13Zm-22.54-10.56.12.12V39.6l-.12.11-4.18,4.18V190.24Zm4.73,4A35.16,35.16,0,0,0,155.7,201V33.1a35.24,35.24,0,0,0-4.29,2.63Zm137.3-46.18.59.59V81.32l-.59.58A32.94,32.94,0,0,1,285,85.11V149A32.85,32.85,0,0,1,288.71,152.22ZM160.32,203a37.45,37.45,0,0,0,4.29,1.22V29.88a35.53,35.53,0,0,0-4.29,1.22Zm-26.72-21.7,4.29,4.29V48.5l-4.29,4.29ZM383,151.19a34,34,0,0,1,4.29,3.37v-75A34.89,34.89,0,0,1,383,82.94ZM124.69,172.43l4.29,4.29V57.41l-4.29,4.29ZM98,145.71l4.29,4.29V84.12L98,88.42Zm17.81,17.81,4.3,4.29V66.31l-4.3,4.29Z"/></g></g></svg>