<svg xmlns="http://www.w3.org/2000/svg" xmlns:xlink="http://www.w3.org/1999/xlink" viewBox="0 0 1816.77 1432.11"><defs><style>.cls-1{fill:url(#linear-gradient);}.cls-2{fill:url(#linear-gradient-2);}.cls-3{fill:url(#linear-gradient-3);}.cls-4{fill:url(#linear-gradient-4);}.cls-5{fill:url(#linear-gradient-5);}.cls-6{opacity:0.5;}.cls-10,.cls-7{fill:#fff;}.cls-8{fill:#393768;}.cls-9{fill:#5a5bae;}.cls-10{fill-rule:evenodd;}.cls-11{fill:#8888ba;}.cls-12{fill:#fbb03b;}.cls-13{fill:#ffd648;}.cls-14{fill:#97bbd3;}.cls-15{fill:#9b9ad3;}.cls-16{fill:#31374f;}.cls-17{fill:#cce9f1;}.cls-18{fill:#dee3fc;}.cls-19{fill:#eaecfd;}.cls-20{fill:#59595c;}.cls-21{fill:#f27677;}.cls-22{fill:#f2f2f2;}</style><linearGradient id="linear-gradient" x1="944.69" y1="1416.68" x2="944.69" y2="1277.93" gradientUnits="userSpaceOnUse"><stop offset="0" stop-color="#f0f0fa"/><stop offset="1" stop-color="#dddcee"/></linearGradient><linearGradient id="linear-gradient-2" x1="620.66" y1="-275.18" x2="695.14" y2="842.07" xlink:href="#linear-gradient"/><linearGradient id="linear-gradient-3" x1="1104.42" y1="835.95" x2="1148.27" y2="244.73" xlink:href="#linear-gradient"/><linearGradient id="linear-gradient-4" x1="942.1" y1="1477.58" x2="878.76" y2="779.16" xlink:href="#linear-gradient"/><linearGradient id="linear-gradient-5" x1="3544.29" y1="-4011.49" x2="3497.32" y2="-3579.79" gradientTransform="translate(-3115.66 -2861.37) rotate(82.36)" xlink:href="#linear-gradient"/></defs><g id="Layer_2" data-name="Layer 2"><g id="Layer_1-2" data-name="Layer 1"><ellipse class="cls-1" cx="944.69" cy="1307.32" rx="777.32" ry="42.61"/><path class="cls-2" d="M137.53,498.34C202.88,100.82,567.38-20.12,858.06,74.7s439.39,438.23,332.13,767-410.36-80.89-583.4,371.45C487.19,1525.84,81.44,839.6,137.53,498.34Z"/><path class="cls-3" d="M572.76,782.25c0,295.7,239.71,535.41,535.41,535.41s535.4-239.71,535.4-535.41S1437.48,43.68,1108.17,373C899.08,582.09,572.76,486.55,572.76,782.25Z"/><path class="cls-4" d="M295.14,1307.32c-56.43-112.6-63-255.55-63-411.16,0-740.88,501.63-501.64,657.46-215.87,173.84,318.79,520-159.65,657.46,215.87,53.5,146.12-21.93,298.56-89.31,411.16Z"/><ellipse class="cls-5" cx="1141.37" cy="123.13" rx="89.5" ry="164.88" transform="translate(346.98 951.88) rotate(-52.37)"/><g class="cls-6"><rect class="cls-7" x="1759.71" y="294.56" width="10.31" height="10.31" transform="translate(305.03 1335.8) rotate(-45)"/><rect class="cls-7" x="1716.85" y="294.56" width="10.31" height="10.31" transform="translate(292.43 1305.43) rotate(-45)"/><rect class="cls-7" x="1673.99" y="294.56" width="10.31" height="10.31" transform="translate(279.92 1275.19) rotate(-45)"/><rect class="cls-7" x="1631.13" y="294.56" width="10.31" height="10.31" transform="translate(267.37 1244.88) rotate(-45)"/><rect class="cls-7" x="1588.27" y="294.56" width="10.31" height="10.31" transform="translate(254.85 1214.63) rotate(-45.01)"/><rect class="cls-7" x="1802.58" y="294.56" width="10.31" height="10.31" transform="translate(317.59 1366.11) rotate(-45)"/><rect class="cls-7" x="1759.71" y="355.48" width="10.31" height="10.31" transform="translate(261.96 1353.65) rotate(-45)"/><rect class="cls-7" x="1716.85" y="355.48" width="10.31" height="10.31" transform="translate(249.36 1323.27) rotate(-45)"/><rect class="cls-7" x="1673.99" y="355.48" width="10.31" height="10.31" transform="translate(236.85 1293.03) rotate(-45)"/><rect class="cls-7" x="1631.13" y="355.48" width="10.31" height="10.31" transform="translate(224.29 1262.72) rotate(-45)"/><rect class="cls-7" x="1588.27" y="355.48" width="10.31" height="10.31" transform="translate(211.78 1232.47) rotate(-45.01)"/><rect class="cls-7" x="1802.58" y="355.48" width="10.31" height="10.31" transform="translate(274.51 1383.96) rotate(-45)"/><rect class="cls-7" x="1759.71" y="416.39" width="10.31" height="10.31" transform="translate(218.88 1371.49) rotate(-45)"/><rect class="cls-7" x="1716.85" y="416.39" width="10.31" height="10.31" transform="translate(206.28 1341.11) rotate(-45)"/><rect class="cls-7" x="1673.99" y="416.39" width="10.31" height="10.31" transform="translate(193.77 1310.87) rotate(-45)"/><rect class="cls-7" x="1631.13" y="416.39" width="10.31" height="10.31" transform="translate(181.22 1280.56) rotate(-45)"/><rect class="cls-7" x="1588.27" y="416.39" width="10.31" height="10.31" transform="translate(168.7 1250.32) rotate(-45.01)"/><rect class="cls-7" x="1802.58" y="416.39" width="10.31" height="10.31" transform="translate(231.44 1401.8) rotate(-45)"/><rect class="cls-7" x="1759.71" y="477.31" width="10.31" height="10.31" transform="translate(175.81 1389.34) rotate(-45)"/><rect class="cls-7" x="1716.85" y="477.31" width="10.31" height="10.31" transform="translate(163.21 1358.95) rotate(-45)"/><rect class="cls-7" x="1673.99" y="477.31" width="10.31" height="10.31" transform="translate(150.69 1328.72) rotate(-45)"/><rect class="cls-7" x="1631.13" y="477.31" width="10.31" height="10.31" transform="translate(138.14 1298.41) rotate(-45)"/><rect class="cls-7" x="1588.27" y="477.31" width="10.31" height="10.31" transform="translate(125.62 1268.17) rotate(-45.01)"/><rect class="cls-7" x="1802.58" y="477.31" width="10.31" height="10.31" transform="translate(188.36 1419.64) rotate(-45)"/><rect class="cls-7" x="1759.71" y="538.23" width="10.31" height="10.31" transform="translate(132.69 1407.1) rotate(-45)"/><rect class="cls-7" x="1716.85" y="538.23" width="10.31" height="10.31" transform="translate(120.1 1376.72) rotate(-45)"/><rect class="cls-7" x="1673.99" y="538.23" width="10.31" height="10.31" transform="translate(107.58 1346.49) rotate(-45)"/><rect class="cls-7" x="1631.13" y="538.23" width="10.31" height="10.31" transform="translate(95.03 1316.18) rotate(-45)"/><rect class="cls-7" x="1588.27" y="538.23" width="10.31" height="10.31" transform="translate(82.51 1285.94) rotate(-45)"/><rect class="cls-7" x="1802.58" y="538.23" width="10.31" height="10.31" transform="translate(145.28 1437.49) rotate(-45)"/><rect class="cls-7" x="1759.71" y="599.14" width="10.31" height="10.31" transform="translate(89.62 1424.95) rotate(-45)"/><rect class="cls-7" x="1716.85" y="599.14" width="10.31" height="10.31" transform="translate(77.03 1394.56) rotate(-45)"/><rect class="cls-7" x="1673.99" y="599.14" width="10.31" height="10.31" transform="translate(64.51 1364.33) rotate(-45)"/><rect class="cls-7" x="1631.13" y="599.14" width="10.31" height="10.31" transform="translate(51.95 1334.02) rotate(-45)"/><rect class="cls-7" x="1588.27" y="599.14" width="10.31" height="10.31" transform="translate(39.43 1303.79) rotate(-45)"/><rect class="cls-7" x="1802.58" y="599.14" width="10.31" height="10.31" transform="translate(102.21 1455.33) rotate(-45)"/><rect class="cls-7" x="1759.71" y="660.06" width="10.31" height="10.31" transform="translate(46.54 1442.79) rotate(-45)"/><rect class="cls-7" x="1716.85" y="660.06" width="10.31" height="10.31" transform="translate(33.95 1412.4) rotate(-45)"/><rect class="cls-7" x="1673.99" y="660.06" width="10.31" height="10.31" transform="translate(21.43 1382.17) rotate(-45)"/><rect class="cls-7" x="1631.13" y="660.06" width="10.31" height="10.31" transform="translate(8.88 1351.86) rotate(-45)"/><rect class="cls-7" x="1588.27" y="660.06" width="10.31" height="10.31" transform="translate(-3.64 1321.63) rotate(-45)"/><rect class="cls-7" x="1802.58" y="660.06" width="10.31" height="10.31" transform="translate(59.13 1473.18) rotate(-45)"/><rect class="cls-7" x="1759.71" y="720.97" width="10.31" height="10.31" transform="translate(3.47 1460.63) rotate(-45)"/><rect class="cls-7" x="1716.85" y="720.97" width="10.31" height="10.31" transform="translate(-9.12 1430.24) rotate(-45)"/><rect class="cls-7" x="1673.99" y="720.97" width="10.31" height="10.31" transform="translate(-21.64 1400.01) rotate(-45)"/><rect class="cls-7" x="1631.13" y="720.97" width="10.31" height="10.31" transform="translate(-34.19 1369.71) rotate(-45)"/><rect class="cls-7" x="1588.27" y="720.97" width="10.31" height="10.31" transform="translate(-46.72 1339.47) rotate(-45)"/><rect class="cls-7" x="1802.58" y="720.97" width="10.31" height="10.31" transform="translate(16.06 1491.02) rotate(-45)"/><rect class="cls-7" x="1759.71" y="781.89" width="10.31" height="10.31" transform="translate(-39.61 1478.47) rotate(-45)"/><rect class="cls-7" x="1716.85" y="781.89" width="10.31" height="10.31" transform="translate(-52.19 1448.08) rotate(-45)"/><rect class="cls-7" x="1673.99" y="781.89" width="10.31" height="10.31" transform="translate(-64.71 1417.86) rotate(-45)"/><rect class="cls-7" x="1631.13" y="781.89" width="10.31" height="10.31" transform="translate(-77.27 1387.55) rotate(-45)"/><rect class="cls-7" x="1588.27" y="781.89" width="10.31" height="10.31" transform="translate(-89.8 1357.32) rotate(-45)"/><rect class="cls-7" x="1802.58" y="781.89" width="10.31" height="10.31" transform="translate(-27.02 1508.86) rotate(-45)"/><rect class="cls-7" x="1759.71" y="233.65" width="10.31" height="10.31" transform="translate(348.06 1317.89) rotate(-45)"/><rect class="cls-7" x="1716.85" y="233.65" width="10.31" height="10.31" transform="translate(335.46 1287.52) rotate(-45)"/><rect class="cls-7" x="1673.99" y="233.65" width="10.31" height="10.31" transform="translate(322.95 1257.28) rotate(-45)"/><rect class="cls-7" x="1631.13" y="233.65" width="10.31" height="10.31" transform="translate(310.4 1226.97) rotate(-45)"/><rect class="cls-7" x="1588.27" y="233.65" width="10.31" height="10.31" transform="translate(297.89 1196.72) rotate(-45)"/><rect class="cls-7" x="1802.58" y="233.65" width="10.31" height="10.31" transform="translate(360.66 1348.27) rotate(-45)"/><rect class="cls-7" x="1759.71" y="842.81" width="10.31" height="10.31" transform="translate(-82.68 1496.31) rotate(-45)"/><rect class="cls-7" x="1716.85" y="842.81" width="10.31" height="10.31" transform="translate(-95.26 1465.92) rotate(-45)"/><rect class="cls-7" x="1673.99" y="842.81" width="10.31" height="10.31" transform="translate(-107.79 1435.7) rotate(-45)"/><rect class="cls-7" x="1631.13" y="842.81" width="10.31" height="10.31" transform="translate(-120.34 1405.39) rotate(-45)"/><rect class="cls-7" x="1588.27" y="842.81" width="10.31" height="10.31" transform="translate(-132.87 1375.16) rotate(-45)"/><rect class="cls-7" x="1802.58" y="842.81" width="10.31" height="10.31" transform="translate(-70.1 1526.71) rotate(-45)"/></g><g class="cls-6"><rect class="cls-7" x="550.38" y="1376.8" width="10.31" height="10.31" transform="translate(-814.45 797.52) rotate(-45)"/><rect class="cls-7" x="550.38" y="1333.93" width="10.31" height="10.31" transform="translate(-784.17 785.03) rotate(-45)"/><rect class="cls-7" x="550.38" y="1291.07" width="10.31" height="10.31" transform="translate(-753.84 772.42) rotate(-45)"/><rect class="cls-7" x="550.38" y="1248.21" width="10.31" height="10.31" transform="translate(-723.55 759.92) rotate(-45)"/><rect class="cls-7" x="550.38" y="1205.35" width="10.31" height="10.31" transform="translate(-693.27 747.43) rotate(-45)"/><rect class="cls-7" x="550.38" y="1419.66" width="10.31" height="10.31" transform="translate(-844.81 810.2) rotate(-45)"/><rect class="cls-7" x="489.46" y="1376.8" width="10.31" height="10.31" transform="translate(-832.29 754.45) rotate(-45)"/><rect class="cls-7" x="489.46" y="1333.93" width="10.31" height="10.31" transform="translate(-802.01 741.96) rotate(-45)"/><rect class="cls-7" x="489.46" y="1291.07" width="10.31" height="10.31" transform="translate(-771.68 729.35) rotate(-45)"/><rect class="cls-7" x="489.46" y="1248.21" width="10.31" height="10.31" transform="translate(-741.39 716.85) rotate(-45)"/><rect class="cls-7" x="489.46" y="1205.35" width="10.31" height="10.31" transform="translate(-711.11 704.35) rotate(-45)"/><rect class="cls-7" x="489.46" y="1419.66" width="10.31" height="10.31" transform="translate(-862.66 767.13) rotate(-45)"/><rect class="cls-7" x="428.55" y="1376.8" width="10.31" height="10.31" transform="translate(-850.16 711.44) rotate(-45)"/><rect class="cls-7" x="428.55" y="1333.93" width="10.31" height="10.31" transform="translate(-819.88 698.94) rotate(-45)"/><rect class="cls-7" x="428.55" y="1291.07" width="10.31" height="10.31" transform="translate(-789.54 686.33) rotate(-45)"/><rect class="cls-7" x="428.55" y="1248.21" width="10.31" height="10.31" transform="translate(-759.26 673.83) rotate(-45)"/><rect class="cls-7" x="428.55" y="1205.35" width="10.31" height="10.31" transform="translate(-728.98 661.33) rotate(-45.01)"/><rect class="cls-7" x="428.55" y="1419.66" width="10.31" height="10.31" transform="translate(-880.5 724.05) rotate(-45)"/><rect class="cls-7" x="367.63" y="1376.8" width="10.31" height="10.31" transform="translate(-868 668.36) rotate(-45)"/><rect class="cls-7" x="367.63" y="1333.93" width="10.31" height="10.31" transform="translate(-837.72 655.87) rotate(-45)"/><rect class="cls-7" x="367.63" y="1291.07" width="10.31" height="10.31" transform="translate(-807.39 643.26) rotate(-45)"/><rect class="cls-7" x="367.63" y="1248.21" width="10.31" height="10.31" transform="translate(-777.11 630.76) rotate(-45)"/><rect class="cls-7" x="367.63" y="1205.35" width="10.31" height="10.31" transform="translate(-746.82 618.25) rotate(-45.01)"/><rect class="cls-7" x="367.63" y="1419.66" width="10.31" height="10.31" transform="translate(-898.34 680.98) rotate(-45)"/><rect class="cls-7" x="306.71" y="1376.8" width="10.31" height="10.31" transform="translate(-885.84 625.29) rotate(-45)"/><rect class="cls-7" x="306.71" y="1333.93" width="10.31" height="10.31" transform="translate(-855.57 612.79) rotate(-45)"/><rect class="cls-7" x="306.71" y="1291.07" width="10.31" height="10.31" transform="translate(-825.23 600.18) rotate(-45)"/><rect class="cls-7" x="306.71" y="1248.21" width="10.31" height="10.31" transform="translate(-794.95 587.68) rotate(-45)"/><rect class="cls-7" x="306.71" y="1205.35" width="10.31" height="10.31" transform="translate(-764.67 575.17) rotate(-45.01)"/><rect class="cls-7" x="306.71" y="1419.66" width="10.31" height="10.31" transform="translate(-916.19 637.9) rotate(-45)"/><rect class="cls-7" x="245.8" y="1376.8" width="10.31" height="10.31" transform="translate(-903.65 582.16) rotate(-45)"/><rect class="cls-7" x="245.8" y="1333.93" width="10.31" height="10.31" transform="translate(-873.38 569.66) rotate(-45)"/><rect class="cls-7" x="245.8" y="1291.07" width="10.31" height="10.31" transform="translate(-843.03 557.06) rotate(-45)"/><rect class="cls-7" x="245.8" y="1248.21" width="10.31" height="10.31" transform="translate(-812.76 544.55) rotate(-45)"/><rect class="cls-7" x="245.8" y="1205.35" width="10.31" height="10.31" transform="translate(-782.48 532.05) rotate(-45)"/><rect class="cls-7" x="245.8" y="1419.66" width="10.31" height="10.31" transform="translate(-934.03 594.83) rotate(-45)"/><rect class="cls-7" x="184.88" y="1376.8" width="10.31" height="10.31" transform="translate(-921.49 539.09) rotate(-45)"/><rect class="cls-7" x="184.88" y="1333.93" width="10.31" height="10.31" transform="translate(-891.22 526.59) rotate(-45)"/><rect class="cls-7" x="184.88" y="1291.07" width="10.31" height="10.31" transform="translate(-860.87 513.99) rotate(-45)"/><rect class="cls-7" x="184.88" y="1248.21" width="10.31" height="10.31" transform="translate(-830.6 501.48) rotate(-45)"/><rect class="cls-7" x="184.88" y="1205.35" width="10.31" height="10.31" transform="translate(-800.33 488.97) rotate(-45)"/><rect class="cls-7" x="184.88" y="1419.66" width="10.31" height="10.31" transform="translate(-951.87 551.75) rotate(-45)"/><rect class="cls-7" x="123.97" y="1376.8" width="10.31" height="10.31" transform="translate(-939.33 496.02) rotate(-45)"/><rect class="cls-7" x="123.97" y="1333.93" width="10.31" height="10.31" transform="translate(-909.06 483.51) rotate(-45)"/><rect class="cls-7" x="123.97" y="1291.07" width="10.31" height="10.31" transform="translate(-878.71 470.91) rotate(-45)"/><rect class="cls-7" x="123.97" y="1248.21" width="10.31" height="10.31" transform="translate(-848.44 458.41) rotate(-45)"/><rect class="cls-7" x="123.97" y="1205.35" width="10.31" height="10.31" transform="translate(-818.17 445.9) rotate(-45)"/><rect class="cls-7" x="123.97" y="1419.66" width="10.31" height="10.31" transform="translate(-969.72 508.67) rotate(-45)"/><rect class="cls-7" x="63.05" y="1376.8" width="10.31" height="10.31" transform="translate(-957.17 452.95) rotate(-45)"/><rect class="cls-7" x="63.05" y="1333.93" width="10.31" height="10.31" transform="translate(-926.9 440.44) rotate(-45)"/><rect class="cls-7" x="63.05" y="1291.07" width="10.31" height="10.31" transform="translate(-896.55 427.84) rotate(-45)"/><rect class="cls-7" x="63.05" y="1248.21" width="10.31" height="10.31" transform="translate(-866.29 415.33) rotate(-45)"/><rect class="cls-7" x="63.05" y="1205.35" width="10.31" height="10.31" transform="translate(-836.02 402.82) rotate(-45)"/><rect class="cls-7" x="63.05" y="1419.66" width="10.31" height="10.31" transform="translate(-987.56 465.6) rotate(-45)"/><rect class="cls-7" x="611.29" y="1376.8" width="10.31" height="10.31" transform="translate(-796.61 840.6) rotate(-45)"/><rect class="cls-7" x="611.29" y="1333.93" width="10.31" height="10.31" transform="translate(-766.33 828.11) rotate(-45)"/><rect class="cls-7" x="611.29" y="1291.07" width="10.31" height="10.31" transform="translate(-736 815.49) rotate(-45)"/><rect class="cls-7" x="611.29" y="1248.21" width="10.31" height="10.31" transform="translate(-705.71 803) rotate(-45)"/><rect class="cls-7" x="611.29" y="1205.35" width="10.31" height="10.31" transform="translate(-675.42 790.5) rotate(-45)"/><rect class="cls-7" x="611.29" y="1419.66" width="10.31" height="10.31" transform="translate(-826.97 853.28) rotate(-45)"/><rect class="cls-7" x="2.14" y="1376.8" width="10.31" height="10.31" transform="translate(-975.01 409.87) rotate(-45)"/><rect class="cls-7" x="2.14" y="1333.93" width="10.31" height="10.31" transform="translate(-944.74 397.37) rotate(-45)"/><rect class="cls-7" x="2.14" y="1291.07" width="10.31" height="10.31" transform="translate(-914.39 384.77) rotate(-45)"/><rect class="cls-7" x="2.14" y="1248.21" width="10.31" height="10.31" transform="translate(-884.13 372.26) rotate(-45)"/><rect class="cls-7" x="2.14" y="1205.35" width="10.31" height="10.31" transform="translate(-853.86 359.74) rotate(-45)"/><rect class="cls-7" x="2.14" y="1419.66" width="10.31" height="10.31" transform="translate(-1005.41 422.52) rotate(-45)"/></g><path class="cls-8" d="M997.94,542.53c-131.53-16.95-258.82-17.38-389.55,0V447.17H997.94Z"/><polygon class="cls-8" points="803.17 508.37 515.92 417.85 803.17 316 1111.47 412.19 803.17 508.37"/><rect class="cls-8" x="1046.41" y="420.17" width="10.45" height="148.09"/><path class="cls-8" d="M1068.4,579.81A16.77,16.77,0,1,1,1051.63,563,16.77,16.77,0,0,1,1068.4,579.81Z"/><polygon class="cls-9" points="1392.19 329.76 1206.61 331.9 1372.51 439.05 1376.11 388.75 1407.37 371.61 1262.88 340.25 1388.47 354.46 1397.12 345.14 1411.68 329.44 1392.19 329.76"/><path class="cls-10" d="M1456.3,380.94l-1.45,5.26q-4.38-1.23-8.79-2.35l1.36-5.29Q1451.88,379.7,1456.3,380.94Z"/><polygon class="cls-10" points="1431.4 374.69 1440.35 376.79 1439.06 382.1 1430.21 380.02 1431.4 374.69"/><polygon class="cls-10" points="1415.29 371.37 1424.32 373.16 1423.21 378.5 1414.29 376.74 1415.29 371.37"/><polygon class="cls-10" points="1492.76 398.5 1494.7 393.39 1503.28 396.79 1501.2 401.84 1492.76 398.5"/><path class="cls-10" d="M1479.13,387.87c2.9,1,5.83,1.93,8.7,3L1486,396c-2.83-1.06-5.72-2-8.58-3Z"/><path class="cls-10" d="M1472.23,385.65l-1.64,5.21c-2.88-.94-5.78-1.8-8.69-2.65l1.53-5.24C1466.38,383.83,1469.31,384.7,1472.23,385.65Z"/><path class="cls-10" d="M1539.56,415c2.59,1.72,5.25,3.33,7.78,5.15l-3.14,4.46c-2.44-1.75-5-3.31-7.52-5Z"/><path class="cls-10" d="M1533.21,411.24,1530.5,416c-2.58-1.55-5.27-2.91-8-4.3l2.5-4.86C1527.79,408.25,1530.55,409.64,1533.21,411.24Z"/><path class="cls-10" d="M1507.93,404.72l2.19-5c2.85,1.17,5.61,2.55,8.4,3.85l-2.36,4.93C1513.43,407.22,1510.72,405.87,1507.93,404.72Z"/><path class="cls-10" d="M1571.43,452.42l4.72-2.75c1.55,2.81,2.94,5.75,4.21,8.71l-5.09,2C1574.1,457.67,1572.85,455,1571.43,452.42Z"/><path class="cls-10" d="M1561.85,439.71l4-3.72c2.18,2.29,4.08,4.87,6.13,7.3l-4.4,3.24C1565.66,444.27,1563.9,441.87,1561.85,439.71Z"/><polygon class="cls-10" points="1550.04 428.91 1553.41 424.62 1560.59 430.71 1556.88 434.72 1550.04 428.91"/><path class="cls-10" d="M1579.73,500c-1.25,2.92-2.63,5.78-4,8.67l-4.85-2.51c1.22-2.7,2.52-5.38,3.69-8.1Z"/><path class="cls-10" d="M1578.3,482.71l5.44.53L1583,488a26.56,26.56,0,0,1-1,4.72l-5.29-1.37a22.62,22.62,0,0,0,.9-4.31Z"/><path class="cls-10" d="M1578,471.45l-.67-4.34,5.33-1.22.76,4.83a23.31,23.31,0,0,1,.46,4.85l-5.46.23A18.72,18.72,0,0,0,1578,471.45Z"/><path class="cls-10" d="M1550.79,541.21c-2.24,2.14-4.39,4.4-6.8,6.34l-3.62-4.09c2.36-1.9,4.43-4.08,6.61-6.16Z"/><polygon class="cls-10" points="1562.22 528.98 1556.01 535.97 1552.03 532.23 1558.01 525.5 1562.22 528.98"/><polygon class="cls-10" points="1567.31 512.44 1571.96 515.3 1569.51 519.33 1566.7 523.1 1562.3 519.87 1564.99 516.27 1567.31 512.44"/><polygon class="cls-10" points="1511.39 571.69 1503.57 576.58 1500.76 571.89 1508.46 567.08 1511.39 571.69"/><polygon class="cls-10" points="1525.15 562.47 1517.54 567.71 1514.51 563.17 1521.98 558.03 1525.15 562.47"/><path class="cls-10" d="M1538.3,552.41c-2.33,2.05-4.88,3.8-7.3,5.71l-3.3-4.35c2.37-1.87,4.87-3.58,7.13-5.58Z"/><polygon class="cls-10" points="1465.62 590.71 1467.99 595.63 1459.67 599.52 1457.38 594.56 1465.62 590.71"/><path class="cls-10" d="M1482.71,588.2c-2.69,1.48-5.44,2.81-8.19,4.18l-2.44-4.88c2.71-1.36,5.44-2.68,8.1-4.14Z"/><path class="cls-10" d="M1497.14,580.29c-2.66,1.53-5.31,3.09-8,4.5l-2.61-4.8c2.69-1.39,5.3-2.93,7.92-4.44Z"/><polygon class="cls-10" points="1420.63 610.18 1422.62 615.27 1414.07 618.58 1412.14 613.47 1420.63 610.18"/><polygon class="cls-10" points="1435.77 604.07 1437.87 609.11 1429.39 612.6 1427.35 607.53 1435.77 604.07"/><polygon class="cls-10" points="1450.71 597.63 1452.94 602.61 1444.53 606.28 1442.37 601.26 1450.71 597.63"/><polygon class="cls-10" points="1374.44 626.73 1376.14 631.92 1367.41 634.72 1365.76 629.52 1374.44 626.73"/><polygon class="cls-10" points="1389.92 621.5 1391.71 626.66 1383.03 629.62 1381.29 624.44 1389.92 621.5"/><polygon class="cls-10" points="1405.25 616.01 1407.13 621.14 1398.52 624.27 1396.69 619.12 1405.25 616.01"/><polygon class="cls-10" points="1327.44 640.91 1328.9 646.17 1320.06 648.58 1318.65 643.3 1327.44 640.91"/><polygon class="cls-10" points="1343.15 636.42 1344.69 641.66 1335.89 644.2 1334.4 638.95 1343.15 636.42"/><polygon class="cls-10" points="1358.75 631.72 1360.37 636.94 1351.61 639.62 1350.04 634.39 1358.75 631.72"/><polygon class="cls-10" points="1270.96 654.93 1279.85 652.96 1281.06 658.28 1272.11 660.27 1270.96 654.93"/><polygon class="cls-10" points="1295.75 649.19 1297.05 654.49 1288.15 656.64 1286.89 651.32 1295.75 649.19"/><polygon class="cls-10" points="1311.54 645.18 1312.92 650.47 1304.05 652.75 1302.72 647.45 1311.54 645.18"/><path class="cls-9" d="M309.92,1095.3c-4.31-5.46-9.3-10.57-12-17-3.77-9-2.51-19.26.35-28.55s7.23-18.07,9.73-27.46a73.08,73.08,0,0,0-16.32-66.77c-3.57-3.91-7.6-7.46-10.54-11.86-6.84-10.22-6.88-23.52-5.06-35.68s5.26-24.25,4.53-36.52A54.84,54.84,0,0,0,261,832.92c-11.22-9.23-26.29-12.48-40.85-12.69h-.92c-14.55,0-29.66,3.13-41,12.23a54.89,54.89,0,0,0-20.07,38.34c-.87,12.26,2.43,24.38,4.12,36.56s1.49,25.48-5.46,35.62c-3,4.37-7.06,7.87-10.67,11.75a73.07,73.07,0,0,0-17.08,66.58c2.39,9.42,6.67,18.25,9.42,27.57s3.89,19.63,0,28.55c-2.77,6.38-7.82,11.43-12.19,16.84-16.18,20-23.16,50.07-9.14,71.67,5.6,8.62,13.94,15.1,22.58,20.67,13.43,8.65,28.21,15.56,43.87,19,6.87,1.5,14,2.85,20.87,1.11,4.59-1.16,8.1-.48,13-.49s8.4-.58,13,.63c6.88,1.82,14,.55,20.88-.87,15.69-3.23,30.56-10,44.08-18.47,8.71-5.47,17.12-11.86,22.81-20.42C332.51,1145.62,325.88,1115.51,309.92,1095.3Z"/><path class="cls-11" d="M292.15,1074.41l-67.32,72.12-2.39-141.82,50.48-67.19-50.7,54.31-1.45-86.17c4.4-5.84,36.47-48.53,36.47-48.53l-36.62,39.23-1-60.56-1.22,77.69-35-38.4,34.9,47.56-1.37,87.57L166.75,955.3s40.27,54.9,49.91,68L214.41,1167,146,1092s61.13,83.33,68.15,92.88l-.33,21.2,12,.07-.71-42.49C238.21,1146.22,292.15,1074.41,292.15,1074.41Z"/><rect class="cls-11" x="213.92" y="1206.05" width="12.08" height="23.17"/><polygon class="cls-12" points="166.48 1229.5 273.45 1229.5 253.41 1314.07 186.81 1314.07 166.48 1229.5"/><rect class="cls-13" x="166.48" y="1223.09" width="106.96" height="6.41"/><polygon class="cls-7" points="363.37 357.66 388.82 371.58 363.37 385.49 349.45 410.94 335.53 385.49 310.09 371.58 335.53 357.66 349.45 332.21 363.37 357.66"/><polygon class="cls-7" points="425.04 402.88 439.77 410.94 425.04 419 416.98 433.73 408.92 419 394.19 410.94 408.92 402.88 416.98 388.15 425.04 402.88"/><polygon class="cls-7" points="1120.06 239.92 1094.62 253.84 1120.06 267.76 1133.98 293.2 1147.9 267.76 1173.34 253.84 1147.9 239.92 1133.98 214.47 1120.06 239.92"/><polygon class="cls-7" points="1058.39 285.15 1043.66 293.2 1058.39 301.26 1066.45 316 1074.51 301.26 1089.24 293.2 1074.51 285.15 1066.45 270.41 1058.39 285.15"/><path class="cls-9" d="M1797.2,1117.44c6.21,11.44,19.57,3.43,19.57,3.43s-.77-3.77-6.77-6.92c-4.47-2.35-10.9-.4-13.18.42l-7.37-.2h-.12c-1.64.08-3.27.21-4.89.36,21-7.43,11.12-32.27,11.12-32.27s-6.6.27-13.6,9.6c-5.61,7.48-3.41,20.17-2.75,23.29a122,122,0,0,0-24.24,6.13,43.76,43.76,0,0,0,3.07-3.3c8-9.6,4.48-27.81,4.48-27.81-28.71,3.69-23,30.69-21.29,36.89a178.59,178.59,0,0,0-26,15.44,37.77,37.77,0,0,0,5.67-12.49c3.62-13.52-8.54-30.35-8.54-30.35-28.14,17.71-7.89,43.3-3.92,47.87-5,3.9-9.69,7.83-13.86,11.6-4.57,4.15-8.79,8.28-12.62,12.26,1.4-3.77,2.58-9.72,1.44-18.25-2-15.17-21.35-27.05-21.35-27.05-20.51,29,8.83,46.24,15.7,49.75a240.42,240.42,0,0,0-20.67,25.38l2.54,1.71a215.68,215.68,0,0,1,13.78-17.59c10.86,34.41,48.27,16.92,48.27,16.92s-.93-9.39-14.8-18.6c-8.93-5.93-22.25-4.39-29.42-2.94a265.79,265.79,0,0,1,19.24-19.37c2.44-2.2,5-4.46,7.8-6.74,9.63,32.48,44.37,16.23,44.37,16.23s-.85-8.58-13.53-17c-8-5.3-19.76-4.09-26.42-2.79a190.5,190.5,0,0,1,27.2-18c5.95,30.71,38.63,18.33,38.63,18.33s-.18-7.71-10.91-16.07c-7-5.46-18.18-4.93-24-4.17A132.05,132.05,0,0,1,1775,1119c-.52,27.85,29.64,22.46,29.64,22.46s1.07-6.52-6.65-15.25c-6-6.8-18.31-7.38-22-7.4a106.16,106.16,0,0,1,13.42-1.53Z"/><path class="cls-12" d="M1553.59,1283s-62.6-141.3-17.3-272.59,154.65-169.66,154.65-169.66-64.91,75.17-27.23,192.41C1699.35,1144,1631.39,1283,1631.39,1283Z"/><path class="cls-13" d="M1575.73,1283s-16-287.45,51.79-363.06c-61.69,95.3-36,363.06-36,363.06Z"/><path class="cls-11" d="M1683.25,1283h-67c2.67-11.79,12.3-47.43,36.33-74.31,29.19-32.66,66-29.5,66-29.5s-20,22-23.1,61.48C1694.32,1256.39,1689,1271.15,1683.25,1283Z"/><path class="cls-11" d="M1528.44,1126.71c48.74,63.54,59.67,146.4,60.83,156.28h-94.76c-24-22.13-53.37-57.93-53.6-101-.41-76.89-36.09-122.49-36.09-122.49S1476.53,1059,1528.44,1126.71Z"/><path class="cls-14" d="M1638,1283h-5c9.53-21.82,33.84-73,56.61-83.37C1667.34,1214.55,1646.85,1260.82,1638,1283Z"/><path class="cls-14" d="M1559.33,1283h-9.84c-11.54-38.15-46.81-144.4-91.32-179.48C1504.14,1129,1547.08,1246.92,1559.33,1283Z"/><rect class="cls-11" x="1439.74" y="1282.99" width="282.5" height="11.21" transform="translate(3161.99 2577.2) rotate(180)"/><circle class="cls-11" cx="1283.55" cy="720.78" r="107.35"/><circle class="cls-7" cx="1283.55" cy="720.78" r="86.68"/><circle class="cls-15" cx="1283.55" cy="720.78" r="65.56"/><circle class="cls-7" cx="1283.55" cy="720.78" r="40.52"/><path class="cls-11" d="M1300,720.78a16.45,16.45,0,1,1-16.44-16.45A16.44,16.44,0,0,1,1300,720.78Z"/><polygon class="cls-9" points="1422.53 586.62 1421.51 561.57 1395.88 587.2 1397.64 606.78 1304.3 700.13 1295.08 690.92 1284.92 721.75 1317.33 713.17 1307.52 703.36 1400.23 610.65 1418.47 613.26 1446.85 584.88 1422.53 586.62"/><polygon class="cls-11" points="368.78 521.84 304.21 563.52 368.78 607.89 433.36 563.52 368.78 521.84"/><rect class="cls-13" x="326.09" y="536.13" width="82.24" height="82.24"/><polygon points="472.61 573.39 472.61 573.39 472.61 573.39 472.61 573.39"/><polygon points="298.32 573.39 298.32 573.39 298.32 573.39 298.32 573.39"/><path class="cls-11" d="M368.78,616l-70.46-48.41v82.76a10,10,0,0,0,10,10H429.22a10,10,0,0,0,10-10V567.56Z"/><path class="cls-16" d="M565.65,885a39.28,39.28,0,1,1-39.29-39.26A39.27,39.27,0,0,1,565.65,885Z"/><path class="cls-17" d="M522.63,897.14c0,.45,0,.83,0,1.14a4.91,4.91,0,0,1-.13.81,2.07,2.07,0,0,1-.21.58,3,3,0,0,1-.43.55,5.22,5.22,0,0,1-1.15.8,14.17,14.17,0,0,1-2.07.93,19,19,0,0,1-2.81.74,18.15,18.15,0,0,1-3.4.3,17.89,17.89,0,0,1-6.47-1.11,12.91,12.91,0,0,1-4.91-3.3,14.84,14.84,0,0,1-3.1-5.48,25,25,0,0,1-1.07-7.66,24.24,24.24,0,0,1,1.18-7.89,16.52,16.52,0,0,1,3.32-5.8,13.93,13.93,0,0,1,5.1-3.55A17.27,17.27,0,0,1,513,867a15.94,15.94,0,0,1,2.8.25,16.76,16.76,0,0,1,2.49.63,12.64,12.64,0,0,1,2.06.9,6.15,6.15,0,0,1,1.28.88,3.12,3.12,0,0,1,.5.6,2.62,2.62,0,0,1,.22.62,8.78,8.78,0,0,1,.12.89c0,.35,0,.77,0,1.27a13.47,13.47,0,0,1-.06,1.38,3.32,3.32,0,0,1-.18.91,1.19,1.19,0,0,1-.33.51.62.62,0,0,1-.43.16,1.8,1.8,0,0,1-1-.47,19.05,19.05,0,0,0-1.61-1,13.58,13.58,0,0,0-2.34-1.05,10.09,10.09,0,0,0-3.25-.47,7.7,7.7,0,0,0-6.48,3.27,11.59,11.59,0,0,0-1.74,3.82,22.3,22.3,0,0,0,0,10.36,10.4,10.4,0,0,0,1.81,3.7,7.21,7.21,0,0,0,2.83,2.17,9.26,9.26,0,0,0,3.73.72,10.52,10.52,0,0,0,3.26-.45,13.22,13.22,0,0,0,2.36-1c.65-.36,1.19-.68,1.62-1a2,2,0,0,1,1-.43.71.71,0,0,1,.43.11.76.76,0,0,1,.27.43,3.87,3.87,0,0,1,.16.9C522.61,896,522.63,896.49,522.63,897.14Z"/><path class="cls-17" d="M545.07,901.18a2.12,2.12,0,0,1-.35.74,1.3,1.3,0,0,1-.7.43,5.66,5.66,0,0,1-1.32.19c-.56,0-1.28,0-2.18,0h-1.85c-.51,0-.94,0-1.3-.07a4.23,4.23,0,0,1-.88-.16,2.15,2.15,0,0,1-.57-.27,1.18,1.18,0,0,1-.35-.39,3.38,3.38,0,0,1-.22-.58L525,870.19a7.63,7.63,0,0,1-.39-1.54.86.86,0,0,1,.27-.84,2,2,0,0,1,1.14-.35c.54-.05,1.3-.07,2.27-.07s1.47,0,1.94.05a4.61,4.61,0,0,1,1.08.19.92.92,0,0,1,.52.41,4,4,0,0,1,.28.67l8.49,26.89h0l8.33-26.76a2.74,2.74,0,0,1,.27-.74,1,1,0,0,1,.55-.44,3.79,3.79,0,0,1,1.12-.22c.48,0,1.15-.05,2-.05a18.68,18.68,0,0,1,1.93.08,1.35,1.35,0,0,1,.94.39,1,1,0,0,1,.16.88,9.17,9.17,0,0,1-.42,1.5Z"/><path class="cls-7" d="M341.41,720a105.22,105.22,0,0,0-86.17,44.89l7.81,7.81a94.32,94.32,0,0,1,156.73,0l7.81-7.81A105.22,105.22,0,0,0,341.41,720Z"/><path class="cls-7" d="M341.41,738.75a86.54,86.54,0,0,0-72.7,39.64l7.61,7.61a76,76,0,0,1,130.18,0l7.62-7.61A86.56,86.56,0,0,0,341.41,738.75Z"/><path class="cls-7" d="M341.41,760.53a64.84,64.84,0,0,0-56.83,33.73l7.5,7.5a54.66,54.66,0,0,1,98.67,0l7.49-7.5A64.81,64.81,0,0,0,341.41,760.53Z"/><path class="cls-7" d="M341.41,783.91a41.45,41.45,0,0,0-39.16,28l10.3,10.3a29,29,0,0,1,57.72,0l10.31-10.3A41.46,41.46,0,0,0,341.41,783.91Z"/><path class="cls-7" d="M341.41,811.07a14.24,14.24,0,1,0,14.24,14.24A14.24,14.24,0,0,0,341.41,811.07Z"/><path class="cls-7" d="M490.75,739.71h530.19a0,0,0,0,1,0,0V858.45a0,0,0,0,1,0,0H490.75a5.31,5.31,0,0,1-5.31-5.31V745A5.31,5.31,0,0,1,490.75,739.71Z"/><path class="cls-11" d="M1039.53,858.45h-533c-9.24,0-16.77-8.24-16.77-18.36V761.92c0-10.12,7.53-18.35,16.77-18.35h533V732.35h-533c-14.9,0-27,13.26-27,29.57v78.17c0,16.31,12.12,29.58,27,29.58h533Z"/><polygon class="cls-11" points="566.57 850.89 541.57 816.69 516.56 850.89 516.56 762.49 566.57 762.49 566.57 850.89"/><path class="cls-7" d="M1114.08,721.13H519.86a33.39,33.39,0,0,1-33.39-33.4h0a33.39,33.39,0,0,1,33.39-33.39h594.22Z"/><path class="cls-12" d="M1135.88,721.13H511.14c-10.83,0-19.65-8.23-19.65-18.35V676.54c0-10.11,8.82-18.35,19.65-18.35h624.74V647H511.14c-17.46,0-31.67,13.27-31.67,29.57v26.24c0,16.3,14.21,29.57,31.67,29.57h624.74Z"/><path class="cls-7" d="M559.8,551.23H986.19a0,0,0,0,1,0,0v87.48a0,0,0,0,1,0,0H559.8a5.31,5.31,0,0,1-5.31-5.31V556.54A5.3,5.3,0,0,1,559.8,551.23Z"/><path class="cls-14" d="M1001.18,638.71H571.47A13.54,13.54,0,0,1,558,625.19v-57.6a13.53,13.53,0,0,1,13.52-13.51h429.71v-8.27H571.47a21.8,21.8,0,0,0-21.78,21.78v57.6A21.8,21.8,0,0,0,571.47,647h429.71Z"/><rect class="cls-14" x="557.14" y="551.23" width="200.42" height="90.68"/><polygon class="cls-18" points="619.9 633.14 599.74 607.95 579.59 633.14 579.59 568.01 619.9 568.01 619.9 633.14"/><rect class="cls-11" x="506.58" y="760.34" width="79.1" height="2.05"/><path class="cls-7" d="M507.6,1072.81h605.46a0,0,0,0,1,0,0v123.76a0,0,0,0,1,0,0H507.6a5.31,5.31,0,0,1-5.31-5.31V1078.11A5.31,5.31,0,0,1,507.6,1072.81Z" transform="translate(1615.35 2269.38) rotate(180)"/><path class="cls-8" d="M481.08,1196.57h608a19.15,19.15,0,0,0,19.13-19.13V1096a19.15,19.15,0,0,0-19.13-19.13h-608v-11.69h608a30.86,30.86,0,0,1,30.83,30.82v81.48a30.86,30.86,0,0,1-30.83,30.83h-608Z"/><rect class="cls-8" x="825.76" y="1072.81" width="283.57" height="128.3" transform="translate(1935.09 2273.92) rotate(180)"/><polygon class="cls-18" points="1020.52 1188.7 1049.05 1153.05 1077.57 1188.7 1077.57 1096.55 1020.52 1096.55 1020.52 1188.7"/><path class="cls-7" d="M489.28,880.08h752.33a0,0,0,0,1,0,0v168a0,0,0,0,1,0,0H489.28a5.3,5.3,0,0,1-5.3-5.3V885.39A5.3,5.3,0,0,1,489.28,880.08Z"/><path class="cls-9" d="M1267.92,1048.08H513.76c-13.08,0-23.73-11.65-23.73-26V911.5c0-14.31,10.65-26,23.73-26h754.16V869.67H513.76c-21.08,0-38.23,18.76-38.23,41.83v110.61c0,23.07,17.15,41.84,38.23,41.84h754.16Z"/><polygon class="cls-11" points="598.76 1037.39 563.38 989 528 1037.39 528 912.31 598.76 912.31 598.76 1037.39"/><rect class="cls-11" x="513.88" y="909.27" width="111.91" height="2.91"/><path class="cls-18" d="M464.53,1216.49h882.66a0,0,0,0,1,0,0V1311a0,0,0,0,1,0,0H464.53a5.3,5.3,0,0,1-5.3-5.3v-83.89A5.31,5.31,0,0,1,464.53,1216.49Z" transform="translate(1806.42 2527.47) rotate(180)"/><path class="cls-11" d="M428.38,1311h883.9c15.33,0,27.81-11.65,27.81-26v-37.11c0-14.32-12.48-26-27.81-26H428.38v-15.87h883.9c24.71,0,44.81,18.77,44.81,41.84V1285c0,23.07-20.1,41.84-44.81,41.84H428.38Z"/><rect class="cls-7" x="636.55" y="922.92" width="580.77" height="2.91"/><rect class="cls-7" x="636.55" y="934.9" width="580.77" height="2.91"/><rect class="cls-7" x="636.55" y="946.89" width="580.77" height="2.91"/><rect class="cls-7" x="636.55" y="958.88" width="580.77" height="2.91"/><rect class="cls-7" x="636.55" y="970.86" width="580.77" height="2.91"/><rect class="cls-7" x="636.55" y="982.85" width="580.77" height="2.91"/><rect class="cls-7" x="636.55" y="994.83" width="580.77" height="2.91"/><rect class="cls-7" x="636.55" y="1006.82" width="580.77" height="2.91"/><rect class="cls-7" x="636.55" y="910.93" width="580.77" height="2.91"/><rect class="cls-7" x="636.55" y="1018.81" width="580.77" height="2.91"/><rect class="cls-7" x="469.12" y="1236.51" width="859.98" height="2.04"/><rect class="cls-7" x="469.12" y="1244.93" width="859.98" height="2.04"/><rect class="cls-7" x="469.12" y="1253.34" width="859.98" height="2.04"/><rect class="cls-7" x="469.12" y="1261.75" width="859.98" height="2.04"/><rect class="cls-7" x="469.12" y="1270.17" width="859.98" height="2.04"/><rect class="cls-7" x="469.12" y="1278.58" width="859.98" height="2.04"/><rect class="cls-7" x="469.12" y="1287" width="859.98" height="2.04"/><rect class="cls-7" x="469.12" y="1295.41" width="859.98" height="2.04"/><rect class="cls-7" x="469.12" y="1228.1" width="859.98" height="2.04"/><rect class="cls-7" x="469.12" y="1303.82" width="859.98" height="2.04"/><rect class="cls-18" x="590.54" y="769.99" width="425.49" height="2.38"/><rect class="cls-18" x="590.54" y="779.79" width="425.49" height="2.38"/><rect class="cls-18" x="590.54" y="789.58" width="425.49" height="2.38"/><rect class="cls-18" x="590.54" y="799.38" width="425.49" height="2.37"/><rect class="cls-18" x="590.54" y="809.17" width="425.49" height="2.38"/><rect class="cls-18" x="590.54" y="818.97" width="425.49" height="2.38"/><rect class="cls-18" x="590.54" y="828.77" width="425.49" height="2.38"/><rect class="cls-18" x="590.54" y="838.56" width="425.49" height="2.38"/><rect class="cls-18" x="590.54" y="760.19" width="425.49" height="2.38"/><rect class="cls-18" x="590.54" y="848.36" width="425.49" height="2.38"/><rect class="cls-7" x="501.44" y="668.04" width="607.06" height="1.35"/><rect class="cls-7" x="501.44" y="673.6" width="607.06" height="1.35"/><rect class="cls-7" x="501.44" y="679.15" width="607.06" height="1.35"/><rect class="cls-7" x="501.44" y="684.71" width="607.06" height="1.35"/><rect class="cls-7" x="501.44" y="690.27" width="607.06" height="1.35"/><rect class="cls-7" x="501.44" y="695.82" width="607.06" height="1.35"/><rect class="cls-7" x="501.44" y="701.38" width="607.06" height="1.35"/><rect class="cls-7" x="501.44" y="706.93" width="607.06" height="1.35"/><rect class="cls-7" x="501.44" y="662.48" width="607.06" height="1.35"/><rect class="cls-7" x="501.44" y="712.49" width="607.06" height="1.35"/><rect class="cls-19" x="513.88" y="1091.29" width="310.54" height="2.91"/><rect class="cls-19" x="513.88" y="1103.27" width="310.54" height="2.91"/><rect class="cls-19" x="513.88" y="1115.26" width="310.54" height="2.91"/><rect class="cls-19" x="513.88" y="1127.24" width="310.54" height="2.91"/><rect class="cls-19" x="513.88" y="1139.23" width="310.54" height="2.91"/><rect class="cls-19" x="513.88" y="1151.22" width="310.54" height="2.91"/><rect class="cls-19" x="513.88" y="1163.2" width="310.54" height="2.91"/><rect class="cls-19" x="513.88" y="1175.19" width="310.54" height="2.91"/><rect class="cls-19" x="513.88" y="1079.3" width="310.54" height="2.91"/><rect class="cls-19" x="513.88" y="1187.17" width="310.54" height="2.91"/><rect class="cls-18" x="757.56" y="564.62" width="228.63" height="2.06"/><rect class="cls-18" x="757.56" y="573.1" width="228.63" height="2.06"/><rect class="cls-18" x="757.56" y="581.58" width="228.63" height="2.06"/><rect class="cls-18" x="757.56" y="590.06" width="228.63" height="2.06"/><rect class="cls-18" x="757.56" y="598.54" width="228.63" height="2.06"/><rect class="cls-18" x="757.56" y="607.02" width="228.63" height="2.06"/><rect class="cls-18" x="757.56" y="615.5" width="228.63" height="2.06"/><rect class="cls-18" x="757.56" y="623.98" width="228.63" height="2.06"/><rect class="cls-18" x="757.56" y="556.14" width="228.63" height="2.06"/><rect class="cls-18" x="757.56" y="632.46" width="228.63" height="2.06"/><path class="cls-20" d="M1357.05,843.76a20.33,20.33,0,0,1,.83-17.37,17.29,17.29,0,0,1,14.7-8.84,7.69,7.69,0,0,1,4,.93,11.81,11.81,0,0,1,2.42,2.27,35.27,35.27,0,0,0,12.46,8.83c5.88,2.46,12.29,3.29,18.42,5,3.53,1,7.19,2.45,9.36,5.42,2.74,3.75,2.41,8.9,1.41,13.45s-1,9.15-1.81,13.73c-.64,3.54-.48,3.64-1.1,7.9a28.43,28.43,0,0,1-3.7,10.06c-1,2-1.52,9.06-3.72,9.27-1.49.14-1.07-5.48-2-6.67a11.4,11.4,0,0,1-1.69-4.12c-1.77-7.21-2.07-15.26-6.9-20.89a16.24,16.24,0,0,0-10.68-5.45c-4.4-.44-8.37,2.5-12.58,2C1368.48,858.24,1360,851,1357.05,843.76Z"/><rect class="cls-21" x="1383.87" y="877.58" width="24.31" height="32.07"/><path class="cls-21" d="M1370.92,857.93s-1.34,31.85,8.25,36.82,22.45-3,26.87-6.44,7.07-10.63,7.07-10.63,3.34-5.1,3.21-8.93-.34-8.77-3.86-6.34c-5.61,3.85-3,1-3,1s2.11-3.91-2.15-8.6S1371,840.61,1370.92,857.93Z"/><path class="cls-21" d="M1428.35,1325l.19,10.42c1-.08,14-.26,14-.26l-.2-10.42Z"/><path class="cls-8" d="M1425,1331.82s-29.87,15.71-30.49,16c-.28.13-1.77.51-3.35.89a5.57,5.57,0,0,0-4,6.78c.32.43,58.15-1.11,58.15-1.11s1-18.6-2.08-19.27S1429.79,1337.1,1425,1331.82Z"/><polygon class="cls-7" points="1407.89 1340.8 1410.71 1345.66 1408.87 1346.74 1406 1341.8 1407.89 1340.8"/><polygon class="cls-7" points="1404.56 1342.56 1407.26 1347.2 1405.41 1348.27 1402.67 1343.55 1404.56 1342.56"/><polygon class="cls-7" points="1401.42 1344.21 1404.01 1348.69 1402.17 1349.76 1399.53 1345.21 1401.42 1344.21"/><path class="cls-21" d="M1357.24,1324.79l-1,10.43c1-.08,14-.12,14-.12l.63-10.42Z"/><path class="cls-8" d="M1352.72,1331.55s-30,15.38-30.67,15.66c-.28.12-1.77.48-3.35.85a5.25,5.25,0,0,0-4.2,5.07,5,5,0,0,0,.15,1.67c.31.43,58.15-.47,58.15-.47s1.2-18.59-1.86-19.3S1357.43,1336.88,1352.72,1331.55Z"/><polygon class="cls-7" points="1335.5 1340.34 1338.27 1345.24 1336.41 1346.29 1333.6 1341.32 1335.5 1340.34"/><polygon class="cls-7" points="1332.15 1342.06 1334.8 1346.74 1332.94 1347.79 1330.25 1343.04 1332.15 1342.06"/><polygon class="cls-7" points="1328.99 1343.69 1331.53 1348.19 1329.68 1349.24 1327.09 1344.66 1328.99 1343.69"/><polygon class="cls-8" points="1356.77 1071.13 1351.74 1326.29 1371.43 1325.62 1408.02 1071.37 1356.77 1071.13"/><polygon class="cls-8" points="1385.24 1076.57 1421.43 1326.29 1444.4 1326.29 1444.03 1071.52 1383.12 1071.28 1385.24 1076.57"/><path class="cls-21" d="M1284.24,915.51s-3.11-3.88-3.86-7.66-2.7-14.05-4.6-11.45.85,8-2.25,5.88-8.59-14.3-10.33-12-4.81,7.62-.47,15.36,7.16,8.65,9.53,10.61a81.31,81.31,0,0,1,6.68,6.92Z"/><path class="cls-11" d="M1354.31,914.59l-29.88,24.35a1.72,1.72,0,0,1-3,.28l-38.7-26.46-8.08,10,50.12,47a1,1,0,0,0,1.56-.12L1357.21,946Z"/><path class="cls-15" d="M1354.31,914.59l15.31-5.76,14.25-5.5c7.83,5.73,15.93,4.45,24.31-1.48l13.39,5.29,28.07,11.06L1444,1071.52l-22.67-.1v.21h-52.19v-.39l-12.4-.11Z"/><rect class="cls-22" x="1346.98" y="924.8" width="48.29" height="83.47"/><path class="cls-21" d="M1403.4,978.77a3.3,3.3,0,0,1-3.34-2.76c-.8-3-3.56-7.82-4.25-5.75s-10.12-3.45-11,1.38-.46,11.5,2.53,13.57,12.76,6.43,12.76,6.43Z"/><path class="cls-11" d="M1449.64,918.2s21.79,55.65,20.69,71.39-69.38,4.94-69.38,4.94-4-6.45-1.22-11,4.57-5.85,4.57-5.85l41.32,1.07S1419.87,905.35,1449.64,918.2Z"/><path class="cls-8" d="M366.81,1132.76s-41.21,62.75-35.24,77.34,28.77,36.8,28.77,36.8l17.07-6.44s-15.42-25.6-14.19-30.86,16.32-34.81,16.32-34.81Z"/><path class="cls-8" d="M472.36,1132.48s40.17,62.61,34.2,77.11S478.83,1246,478.83,1246l-17.07-6.4s13.57-28.55,14.38-31.23c1.59-5.23-16.51-34.06-16.51-34.06Z"/><path class="cls-8" d="M473,1133.6c-3-6.21-42.29-14.57-42.29-14.57s-6.47,7.71-7.22,7.71c-.54,0-2.7,8.84-3.91,14-1.23-5.13-3.42-14-4-14-.75,0-7.3-6.7-7.3-6.7s-39.18,7.52-42.19,13.74,4.53,136.27,8.81,138.83,23.39,7.42,29.42,10.7c5,2.74,13,.89,15.49.2,2.5.68,7.81-1.65,12.85-4.41,6-3.31,27.3-8.18,31.56-10.75S476,1139.81,473,1133.6Z"/><path class="cls-12" d="M349.27,1241.21s-21.51-9.09-32.27-4.45-18.73,23.37-7.61,34.68,102.76,45.63,110.74,48,27.82,2.23,27.82,2.23l4.27-16.88S382.66,1255.86,349.27,1241.21Z"/><path class="cls-12" d="M484.07,1241.21s21.52-9.09,32.28-4.45,18.73,23.37,7.6,34.68-102.75,45.63-110.73,48-27.82,2.23-27.82,2.23l-4.27-16.88S450.69,1255.86,484.07,1241.21Z"/><path d="M350.42,1294.73s-3.9-3.18-7.23-3.18-5.49,3.9-7.22,9.54-2.61,23-.44,24.71,10.12.58,10.12.58Z"/><path class="cls-8" d="M385,1320s-22.26-.87-27.17,1.16-12.58,7.8-14.45,3.61-.12-33.47,7.08-30.06c3.91,1.86,9.83,4.34,15.17,6.79s15.54,3.31,15.54,3.31Z"/><path d="M482.54,1294.73s3.9-3.18,7.23-3.18,5.49,3.9,7.22,9.54,2.6,23,.43,24.71-10.11.58-10.11.58Z"/><path class="cls-8" d="M448,1320s22.25-.87,27.17,1.16,12.57,7.8,14.45,3.61.12-33.47-7.08-30.06c-3.91,1.86-9.83,4.34-15.18,6.79s-15.53,3.31-15.53,3.31Z"/><path class="cls-22" d="M478.49,1268.21H353.57a4.74,4.74,0,0,1-4.73-4.42L344.41,1196a4.74,4.74,0,0,1,4.73-5H482.75a4.74,4.74,0,0,1,4.73,5l-4.26,67.83A4.74,4.74,0,0,1,478.49,1268.21Z"/><path class="cls-21" d="M447.35,1100.83a2.42,2.42,0,0,0-1-2,1.82,1.82,0,0,0-.8-.13c-1.31,0-2.55,1.09-3.53,2,0-1.44,0-2.33,0-2.33.51-11.59-22.27-10.91-22.46-10.88s-23-.71-22.45,10.88c0,0,0,.89,0,2.33-1-.86-2.23-1.9-3.53-2a1.82,1.82,0,0,0-.8.13,2.39,2.39,0,0,0-1,2,21.09,21.09,0,0,0,.07,7.64,12.51,12.51,0,0,0,3.65,6.62,6,6,0,0,0,2.32,1.4,36.93,36.93,0,0,0,1.11,7.38c1.67,4.94,11.73,16.1,20.64,16.46h0c8.9-.36,19-11.52,20.64-16.46a36.93,36.93,0,0,0,1.11-7.38,6.1,6.1,0,0,0,2.32-1.4,12.51,12.51,0,0,0,3.65-6.62A21.09,21.09,0,0,0,447.35,1100.83Z"/><path d="M446.53,1099.42c.34-2.06.42-4.67.69-6.74a19.83,19.83,0,0,0,.09-6.43,20.14,20.14,0,0,0-1.5-4.21c-1.42-3.17-3-6.39-5.52-8.76-3.69-3.45-8.94-4.63-14-5.18-8.9-1-18-.45-26.71-2.64-2.41-.61-4.59-2.52-6.5-4.1-1.21-1-2.65-2.21-4.15-1.75s-2,2-2,3.41c-.17,3.34,1.61,6.45,2.27,9.73.37,1.88.38,3.81.79,5.68a7,7,0,0,0,3,4.7l-3.67-1.92a14.74,14.74,0,0,0,3.13,7.08c.45.56.85,1.54.2,1.82-.16.07-.36.06-.49.18s-.12.54,0,.8a83.2,83.2,0,0,0,4.45,8.66c.53.89.13,1.57,1.17,1.55s2.79-.63,3.32-1.45c2-3,4.48-6.15,8-6.71a18.23,18.23,0,0,1,4.88.27,28.59,28.59,0,0,0,8-.2c2-.33,4.05-.88,6.08-.62a13.86,13.86,0,0,1,5.88,2.68,66.63,66.63,0,0,1,6.26,4.85,2.44,2.44,0,0,0,1.12.67,2.9,2.9,0,0,0,2.54-1C444.6,1099,446.23,1098.47,446.53,1099.42Z"/><path class="cls-12" d="M1248.15,481.69v-14H1145.58v14h-28.13v7.47a53.15,53.15,0,0,0,35.92,50.21,49.88,49.88,0,0,0,34,22.48v13.09h-6.69a12.59,12.59,0,0,0-12.59,12.59h-14.62v6.25h86.71v-6.25H1225.6A12.58,12.58,0,0,0,1213,574.94h-6.69V561.85a49.9,49.9,0,0,0,34-22.48,53.16,53.16,0,0,0,35.91-50.21v-7.47Zm-124.33,7.47v-1.1h21.76v24.56a49.78,49.78,0,0,0,3.33,17.92A46.74,46.74,0,0,1,1123.82,489.16Zm146.09,0a46.74,46.74,0,0,1-25.09,41.38,49.57,49.57,0,0,0,3.33-17.92V488.06h21.76Z"/><path class="cls-7" d="M1196.87,490.09l4.39,8.9,1.52,3.08,3.4.49L1216,504l-7.11,6.93-2.46,2.4.58,3.38,1.68,9.78-8.78-4.62-3-1.6-3,1.6-8.78,4.62,1.68-9.78.58-3.38-2.46-2.4-7.11-6.93,9.82-1.43,3.4-.49,1.52-3.08,4.4-8.9m0-14.77-10.26,20.78-22.92,3.33,16.59,16.17-3.92,22.83,20.51-10.78,20.5,10.78-3.91-22.83L1230,499.43l-22.92-3.33-10.25-20.78Z"/></g></g></svg>