<svg xmlns="http://www.w3.org/2000/svg" viewBox="0 0 210.35 79.17"><defs><style>.cls-1{fill:#002ea0;}</style></defs><g id="Layer_2" data-name="Layer 2"><g id="Layer_1-2" data-name="Layer 1"><path class="cls-1" d="M53.69,51.24a5,5,0,0,1-2.2-2,5.71,5.71,0,0,1-.76-3,8.46,8.46,0,0,1,1-4.15,7.65,7.65,0,0,1,2.93-3A8.55,8.55,0,0,1,59.08,38a7.8,7.8,0,0,1,2.92.52A4.39,4.39,0,0,1,64,40l-1,.9a4.83,4.83,0,0,0-4-1.6,6.78,6.78,0,0,0-3.56.93,6.41,6.41,0,0,0-2.4,2.5,7.16,7.16,0,0,0-.84,3.45,4.23,4.23,0,0,0,1.32,3.27,5.4,5.4,0,0,0,3.78,1.22A6,6,0,0,0,61.61,49l.84,1a5.88,5.88,0,0,1-2.29,1.45,8.7,8.7,0,0,1-3,.51A7.7,7.7,0,0,1,53.69,51.24Z" transform="translate(-0.16)"/><path class="cls-1" d="M67.39,37.3h1.39l-2.9,14.54H64.49Z" transform="translate(-0.16)"/><path class="cls-1" d="M71.8,41.53h1.39l-2,10.31h-1.4ZM72.42,39a.88.88,0,0,1-.26-.65,1,1,0,0,1,.3-.75,1,1,0,0,1,.77-.3.93.93,0,0,1,.69.26.84.84,0,0,1,.27.62,1.08,1.08,0,0,1-1.09,1.1A.88.88,0,0,1,72.42,39Z" transform="translate(-0.16)"/><path class="cls-1" d="M86.5,41.53,83.68,55.64H82.29l1.06-5.35a4.81,4.81,0,0,1-1.73,1.23,5.55,5.55,0,0,1-2.19.42,5,5,0,0,1-2.33-.53,3.82,3.82,0,0,1-1.59-1.52,4.56,4.56,0,0,1-.57-2.32,6.51,6.51,0,0,1,.75-3.14,5.55,5.55,0,0,1,2.09-2.18,5.71,5.71,0,0,1,3-.8,4.73,4.73,0,0,1,2.5.61,3.52,3.52,0,0,1,1.46,1.72l.45-2.25ZM82,50.09a4.29,4.29,0,0,0,1.59-1.73,5.21,5.21,0,0,0,.58-2.48,3.14,3.14,0,0,0-.89-2.36,3.48,3.48,0,0,0-2.5-.85A4.26,4.26,0,0,0,76.91,45a5.21,5.21,0,0,0-.58,2.48,3.08,3.08,0,0,0,.89,2.35,3.52,3.52,0,0,0,2.5.84A4.37,4.37,0,0,0,82,50.09Z" transform="translate(-0.16)"/><path class="cls-1" d="M99.68,41.53,97.62,51.84H96.29l.33-1.65a4.88,4.88,0,0,1-4,1.75,3.87,3.87,0,0,1-2.7-.89,3.23,3.23,0,0,1-1-2.48,6,6,0,0,1,.12-1.16l1.18-5.88h1.39l-1.18,5.88a5.88,5.88,0,0,0-.09.92A2.26,2.26,0,0,0,91,50.08a2.85,2.85,0,0,0,2,.61,4,4,0,0,0,2.73-.93,4.66,4.66,0,0,0,1.45-2.68l1.1-5.55Z" transform="translate(-0.16)"/><path class="cls-1" d="M102.81,47.08a3.81,3.81,0,0,0,0,.41,3.07,3.07,0,0,0,.9,2.39,3.77,3.77,0,0,0,2.65.82,5.22,5.22,0,0,0,1.91-.34,3.78,3.78,0,0,0,1.46-1l.63,1a5,5,0,0,1-1.81,1.13,6.6,6.6,0,0,1-2.31.4,5,5,0,0,1-3.51-1.18,4.12,4.12,0,0,1-1.29-3.21,6.59,6.59,0,0,1,.74-3.12,5.53,5.53,0,0,1,5-3,4.52,4.52,0,0,1,3.27,1.17,4.22,4.22,0,0,1,1.21,3.2,6.57,6.57,0,0,1-.13,1.26Zm1.63-3.53A4.57,4.57,0,0,0,103,46h7.35a3.41,3.41,0,0,0,0-.37,2.87,2.87,0,0,0-.88-2.25,3.38,3.38,0,0,0-2.35-.79A4,4,0,0,0,104.44,43.55Z" transform="translate(-0.16)"/><path class="cls-1" d="M128.29,42.34a3.21,3.21,0,0,1,1,2.46,6.3,6.3,0,0,1-.12,1.18L128,51.84h-1.39L127.75,46a5.89,5.89,0,0,0,.09-.94,2.17,2.17,0,0,0-.67-1.72,3,3,0,0,0-2-.59,4.11,4.11,0,0,0-2.75.91A4.68,4.68,0,0,0,121,46.31l-1.09,5.53h-1.4l2-10.31h1.34l-.34,1.65a5,5,0,0,1,4-1.73A3.91,3.91,0,0,1,128.29,42.34Z" transform="translate(-0.16)"/><path class="cls-1" d="M133.92,51.4a4,4,0,0,1-1.64-1.53,4.54,4.54,0,0,1-.57-2.3,6.4,6.4,0,0,1,.76-3.14,5.51,5.51,0,0,1,2.13-2.18,6,6,0,0,1,3.07-.8,4.82,4.82,0,0,1,3.42,1.18,4.12,4.12,0,0,1,1.26,3.17,6.44,6.44,0,0,1-.76,3.15,5.63,5.63,0,0,1-2.13,2.2,6.07,6.07,0,0,1-3.07.79A5.38,5.38,0,0,1,133.92,51.4Zm4.86-1.31a4.25,4.25,0,0,0,1.6-1.73,5.21,5.21,0,0,0,.58-2.48,3.14,3.14,0,0,0-.89-2.36,3.48,3.48,0,0,0-2.5-.85,4.38,4.38,0,0,0-2.3.62A4.32,4.32,0,0,0,133.68,45a5.21,5.21,0,0,0-.58,2.48,3.08,3.08,0,0,0,.89,2.35,3.5,3.5,0,0,0,2.5.84A4.34,4.34,0,0,0,138.78,50.09Z" transform="translate(-0.16)"/><path class="cls-1" d="M158.63,42a3.82,3.82,0,0,1,1.6,1.51,4.52,4.52,0,0,1,.57,2.31A6.55,6.55,0,0,1,160,49a5.6,5.6,0,0,1-2.09,2.2,5.82,5.82,0,0,1-3,.79,4.83,4.83,0,0,1-2.47-.58A3.35,3.35,0,0,1,151,49.69l-1.17,6h-1.39l2.8-14.11h1.33l-.33,1.65A5.08,5.08,0,0,1,154,41.89a5.69,5.69,0,0,1,2.26-.44A5.1,5.1,0,0,1,158.63,42Zm-1.41,8.11a4.4,4.4,0,0,0,1.59-1.72,5.31,5.31,0,0,0,.57-2.49,3.1,3.1,0,0,0-.89-2.36,3.46,3.46,0,0,0-2.5-.85,4.28,4.28,0,0,0-2.28.61A4.43,4.43,0,0,0,152.12,45a5.39,5.39,0,0,0-.58,2.5,3.05,3.05,0,0,0,.9,2.35,3.48,3.48,0,0,0,2.5.84A4.3,4.3,0,0,0,157.22,50.09Z" transform="translate(-0.16)"/><path class="cls-1" d="M165.42,37.3h1.39l-2.9,14.54h-1.39Z" transform="translate(-0.16)"/><path class="cls-1" d="M179.26,41.53,177.2,51.84h-1.33l.33-1.63a5.09,5.09,0,0,1-1.76,1.28,5.53,5.53,0,0,1-2.26.45,5,5,0,0,1-2.33-.53,3.82,3.82,0,0,1-1.59-1.52,4.66,4.66,0,0,1-.56-2.32,6.51,6.51,0,0,1,.75-3.14,5.48,5.48,0,0,1,2.09-2.18,5.71,5.71,0,0,1,3-.8A4.93,4.93,0,0,1,176,42a3.41,3.41,0,0,1,1.45,1.66l.43-2.16Zm-4.49,8.56a4.32,4.32,0,0,0,1.6-1.73,5.21,5.21,0,0,0,.58-2.48,3.14,3.14,0,0,0-.89-2.36,3.48,3.48,0,0,0-2.5-.85,4.38,4.38,0,0,0-2.3.62A4.32,4.32,0,0,0,169.67,45a5.21,5.21,0,0,0-.58,2.48,3,3,0,0,0,.89,2.35,3.5,3.5,0,0,0,2.5.84A4.34,4.34,0,0,0,174.77,50.09Z" transform="translate(-0.16)"/><path class="cls-1" d="M191.81,41.53l-7.53,11.64a7,7,0,0,1-1.77,2,3.33,3.33,0,0,1-2,.56,4.18,4.18,0,0,1-1.41-.24,2.55,2.55,0,0,1-1-.68l.75-1a2.39,2.39,0,0,0,1.82.75,2.16,2.16,0,0,0,1.24-.38A4.4,4.4,0,0,0,183,52.88l.73-1.1L181.2,41.53h1.41l2.14,8.78,5.63-8.78Z" transform="translate(-0.16)"/><path class="cls-1" d="M192.71,47.08a2.25,2.25,0,0,0,0,.41,3.1,3.1,0,0,0,.89,2.39,3.78,3.78,0,0,0,2.66.82,5.26,5.26,0,0,0,1.91-.34,3.86,3.86,0,0,0,1.46-1l.63,1a5.07,5.07,0,0,1-1.82,1.13,6.51,6.51,0,0,1-2.3.4,5,5,0,0,1-3.52-1.18,4.11,4.11,0,0,1-1.28-3.21,6.59,6.59,0,0,1,.73-3.12,5.43,5.43,0,0,1,2-2.18,5.53,5.53,0,0,1,2.93-.8,4.52,4.52,0,0,1,3.27,1.17,4.23,4.23,0,0,1,1.22,3.2,6.64,6.64,0,0,1-.14,1.26Zm1.63-3.53A4.52,4.52,0,0,0,192.85,46h7.35a3.41,3.41,0,0,0,0-.37,2.87,2.87,0,0,0-.89-2.25,3.36,3.36,0,0,0-2.35-.79A4,4,0,0,0,194.34,43.55Z" transform="translate(-0.16)"/><path class="cls-1" d="M208,41.93a6,6,0,0,1,2.51-.48l-.26,1.35-.39,0a3.88,3.88,0,0,0-2.73,1,5,5,0,0,0-1.45,2.86l-1,5.23h-1.4l2-10.31h1.34l-.36,1.88A4.25,4.25,0,0,1,208,41.93Z" transform="translate(-0.16)"/><path class="cls-1" d="M10.32,65.5A3.89,3.89,0,0,1,11.92,67a4.56,4.56,0,0,1,.57,2.32,6.54,6.54,0,0,1-.76,3.14,5.54,5.54,0,0,1-2.09,2.2,5.69,5.69,0,0,1-3,.79,4.8,4.8,0,0,1-2.47-.58,3.36,3.36,0,0,1-1.46-1.67l-1.17,6H.16L3,65.05H4.29L4,66.7a4.93,4.93,0,0,1,1.76-1.28A5.53,5.53,0,0,1,8,65,5.1,5.1,0,0,1,10.32,65.5ZM8.91,73.61a4.34,4.34,0,0,0,1.59-1.72,5.32,5.32,0,0,0,.58-2.49,3.1,3.1,0,0,0-.9-2.36,3.44,3.44,0,0,0-2.5-.85,4.28,4.28,0,0,0-2.28.62,4.34,4.34,0,0,0-1.59,1.72A5.39,5.39,0,0,0,3.23,71a3.05,3.05,0,0,0,.9,2.35,3.44,3.44,0,0,0,2.5.85A4.28,4.28,0,0,0,8.91,73.61Z" transform="translate(-0.16)"/><path class="cls-1" d="M25.68,65.05,23.62,75.36H22.29l.33-1.62A5.15,5.15,0,0,1,20.86,75a5.53,5.53,0,0,1-2.26.45,4.91,4.91,0,0,1-2.33-.53,3.82,3.82,0,0,1-1.59-1.52,4.56,4.56,0,0,1-.57-2.32A6.43,6.43,0,0,1,14.87,68,5.62,5.62,0,0,1,17,65.77a5.68,5.68,0,0,1,3-.8,4.93,4.93,0,0,1,2.47.58,3.46,3.46,0,0,1,1.45,1.66l.43-2.16Zm-4.49,8.56a4.32,4.32,0,0,0,1.6-1.73,5.31,5.31,0,0,0,.58-2.48,3.1,3.1,0,0,0-.9-2.36,3.44,3.44,0,0,0-2.5-.85,4.29,4.29,0,0,0-2.29.63,4.38,4.38,0,0,0-1.6,1.73A5.36,5.36,0,0,0,15.5,71a3.05,3.05,0,0,0,.9,2.35,3.44,3.44,0,0,0,2.5.85A4.34,4.34,0,0,0,21.19,73.61Z" transform="translate(-0.16)"/><path class="cls-1" d="M32.25,65.45a5.9,5.9,0,0,1,2.5-.48l-.25,1.36-.39,0a4,4,0,0,0-2.74,1,5,5,0,0,0-1.44,2.86l-1,5.23H27.5l2-10.31h1.33l-.35,1.89A4.2,4.2,0,0,1,32.25,65.45Z" transform="translate(-0.16)"/><path class="cls-1" d="M46.57,65.05l-2,10.31H43.18l.34-1.62A5.19,5.19,0,0,1,41.75,75a5.51,5.51,0,0,1-2.25.45,4.85,4.85,0,0,1-2.33-.53,3.82,3.82,0,0,1-1.59-1.52A4.56,4.56,0,0,1,35,71.09,6.53,6.53,0,0,1,35.76,68a5.68,5.68,0,0,1,5.07-3,4.93,4.93,0,0,1,2.47.58,3.36,3.36,0,0,1,1.45,1.66l.43-2.16Zm-4.48,8.56a4.23,4.23,0,0,0,1.59-1.73,5.19,5.19,0,0,0,.58-2.48A3.14,3.14,0,0,0,43.37,67a3.48,3.48,0,0,0-2.5-.85,4.26,4.26,0,0,0-2.29.63A4.31,4.31,0,0,0,37,68.55,5.24,5.24,0,0,0,36.4,71a3.08,3.08,0,0,0,.89,2.35,3.48,3.48,0,0,0,2.5.85A4.38,4.38,0,0,0,42.09,73.61Z" transform="translate(-0.16)"/><path class="cls-1" d="M65,65.05,62.94,75.36H61.61l.33-1.62A5.06,5.06,0,0,1,60.18,75a5.53,5.53,0,0,1-2.26.45,4.91,4.91,0,0,1-2.33-.53A3.82,3.82,0,0,1,54,73.41a4.56,4.56,0,0,1-.56-2.32A6.53,6.53,0,0,1,54.19,68a5.62,5.62,0,0,1,2.09-2.18,5.71,5.71,0,0,1,3-.8,4.93,4.93,0,0,1,2.47.58,3.41,3.41,0,0,1,1.45,1.66l.43-2.16Zm-4.49,8.56a4.32,4.32,0,0,0,1.6-1.73,5.31,5.31,0,0,0,.58-2.48A3.14,3.14,0,0,0,61.8,67a3.48,3.48,0,0,0-2.5-.85,4.28,4.28,0,0,0-3.89,2.36A5.24,5.24,0,0,0,54.83,71a3,3,0,0,0,.89,2.35,3.46,3.46,0,0,0,2.5.85A4.34,4.34,0,0,0,60.51,73.61Z" transform="translate(-0.16)"/><path class="cls-1" d="M67.46,75.11a4.74,4.74,0,0,1-1.73-.9l.66-1.1a4.44,4.44,0,0,0,1.55.82,6.42,6.42,0,0,0,2,.32,4.39,4.39,0,0,0,2.26-.48A1.52,1.52,0,0,0,73,72.4a1,1,0,0,0-.33-.78,2,2,0,0,0-.79-.45,12.44,12.44,0,0,0-1.37-.35,17.92,17.92,0,0,1-1.75-.47,2.81,2.81,0,0,1-1.13-.75,2,2,0,0,1-.47-1.41,2.73,2.73,0,0,1,1.21-2.34A5.5,5.5,0,0,1,71.65,65a7.17,7.17,0,0,1,1.95.27,4.89,4.89,0,0,1,1.54.7l-.59,1.11a4.63,4.63,0,0,0-1.38-.65,6,6,0,0,0-1.64-.23,4,4,0,0,0-2.2.51,1.57,1.57,0,0,0-.78,1.37,1.1,1.1,0,0,0,.33.83,2.31,2.31,0,0,0,.83.47c.34.1.79.21,1.37.33s1.27.31,1.71.46a2.76,2.76,0,0,1,1.13.73,2,2,0,0,1,.47,1.38,2.71,2.71,0,0,1-1.24,2.36,5.79,5.79,0,0,1-3.33.85A8,8,0,0,1,67.46,75.11Z" transform="translate(-0.16)"/><path class="cls-1" d="M77.05,75.11a4.79,4.79,0,0,1-1.74-.9l.67-1.1a4.44,4.44,0,0,0,1.55.82,6.42,6.42,0,0,0,2,.32,4.39,4.39,0,0,0,2.26-.48,1.51,1.51,0,0,0,.79-1.37,1,1,0,0,0-.32-.78,2.12,2.12,0,0,0-.79-.45,13.38,13.38,0,0,0-1.38-.35,17.62,17.62,0,0,1-1.74-.47,2.84,2.84,0,0,1-1.14-.75,2,2,0,0,1-.47-1.41A2.74,2.74,0,0,1,78,65.85,5.47,5.47,0,0,1,81.23,65a7.06,7.06,0,0,1,2,.27,4.69,4.69,0,0,1,1.54.7l-.59,1.11a4.4,4.4,0,0,0-1.38-.65,6,6,0,0,0-1.64-.23,4,4,0,0,0-2.19.51,1.58,1.58,0,0,0-.79,1.37,1.11,1.11,0,0,0,.34.83,2.31,2.31,0,0,0,.83.47c.33.1.79.21,1.36.33a17.38,17.38,0,0,1,1.72.46,2.73,2.73,0,0,1,1.12.73A1.93,1.93,0,0,1,84,72.25a2.72,2.72,0,0,1-1.25,2.36,5.77,5.77,0,0,1-3.32.85A8,8,0,0,1,77.05,75.11Z" transform="translate(-0.16)"/><path class="cls-1" d="M88,65.05h1.39l-2,10.31H86Zm.62-2.53a.86.86,0,0,1-.26-.64,1,1,0,0,1,1.07-1.06,1,1,0,0,1,.69.26.86.86,0,0,1,.27.62,1,1,0,0,1-.31.78,1.06,1.06,0,0,1-.78.32A.88.88,0,0,1,88.65,62.52Z" transform="translate(-0.16)"/><path class="cls-1" d="M91.9,75.11a4.74,4.74,0,0,1-1.73-.9l.67-1.1a4.39,4.39,0,0,0,1.54.82,6.47,6.47,0,0,0,2,.32,4.43,4.43,0,0,0,2.27-.48,1.51,1.51,0,0,0,.79-1.37,1,1,0,0,0-.32-.78,2.09,2.09,0,0,0-.8-.45A12.44,12.44,0,0,0,95,70.82a16.88,16.88,0,0,1-1.74-.47,2.77,2.77,0,0,1-1.14-.75,2,2,0,0,1-.47-1.41,2.74,2.74,0,0,1,1.22-2.34A5.47,5.47,0,0,1,96.09,65a7.06,7.06,0,0,1,2,.27,4.79,4.79,0,0,1,1.54.7L99,67.05a4.4,4.4,0,0,0-1.38-.65A6,6,0,0,0,96,66.17a4,4,0,0,0-2.19.51A1.56,1.56,0,0,0,93,68.05a1.07,1.07,0,0,0,.34.83,2.31,2.31,0,0,0,.83.47c.33.1.79.21,1.36.33a17.38,17.38,0,0,1,1.72.46,2.79,2.79,0,0,1,1.12.73,1.93,1.93,0,0,1,.47,1.38,2.71,2.71,0,0,1-1.24,2.36,5.77,5.77,0,0,1-3.32.85A8.09,8.09,0,0,1,91.9,75.11Z" transform="translate(-0.16)"/><path class="cls-1" d="M103.09,72.25a5.28,5.28,0,0,0-.08.64c0,.92.5,1.38,1.49,1.38a2.6,2.6,0,0,0,1.59-.53l.33,1.06a3.72,3.72,0,0,1-2.29.66,2.6,2.6,0,0,1-1.84-.63,2.22,2.22,0,0,1-.67-1.72,3.34,3.34,0,0,1,.08-.8l1.19-6.08h-1.82l.21-1.18h1.85l.45-2.25H105l-.45,2.25h3.13l-.23,1.18h-3.14Z" transform="translate(-0.16)"/><path class="cls-1" d="M110.85,65.05h1.39l-2,10.31h-1.39Zm.62-2.53a.87.87,0,0,1-.27-.64,1,1,0,0,1,.31-.76,1,1,0,0,1,.77-.3,1,1,0,0,1,.69.26.86.86,0,0,1,.27.62,1,1,0,0,1-.31.78,1.07,1.07,0,0,1-.79.32A.86.86,0,0,1,111.47,62.52Z" transform="translate(-0.16)"/><path class="cls-1" d="M118.83,65.45a6,6,0,0,1,2.51-.48l-.26,1.36-.39,0a3.92,3.92,0,0,0-2.73,1,4.9,4.9,0,0,0-1.44,2.86l-1,5.23h-1.4l2-10.31h1.34l-.36,1.89A4.26,4.26,0,0,1,118.83,65.45Z" transform="translate(-0.16)"/><path class="cls-1" d="M138.55,65.05l-2.06,10.31h-1.33l.33-1.62A5.25,5.25,0,0,1,133.73,75a5.56,5.56,0,0,1-2.26.45,4.91,4.91,0,0,1-2.33-.53,3.82,3.82,0,0,1-1.59-1.52,4.56,4.56,0,0,1-.57-2.32,6.43,6.43,0,0,1,.76-3.14,5.66,5.66,0,0,1,2.08-2.18,5.73,5.73,0,0,1,3-.8,4.91,4.91,0,0,1,2.47.58,3.36,3.36,0,0,1,1.45,1.66l.44-2.16Zm-4.49,8.56a4.32,4.32,0,0,0,1.6-1.73,5.3,5.3,0,0,0,.57-2.48,3.1,3.1,0,0,0-.89-2.36,3.46,3.46,0,0,0-2.5-.85,4.26,4.26,0,0,0-2.29.63,4.38,4.38,0,0,0-1.6,1.73,5.36,5.36,0,0,0-.58,2.48,3.05,3.05,0,0,0,.9,2.35,3.44,3.44,0,0,0,2.5.85A4.37,4.37,0,0,0,134.06,73.61Z" transform="translate(-0.16)"/><path class="cls-1" d="M142.49,74.92a3.91,3.91,0,0,1-1.64-1.53,4.51,4.51,0,0,1-.58-2.3A6.43,6.43,0,0,1,141,68a5.69,5.69,0,0,1,2.12-2.18,6,6,0,0,1,3.07-.8,4.83,4.83,0,0,1,3.42,1.18,4.11,4.11,0,0,1,1.27,3.18,6.43,6.43,0,0,1-.77,3.14,5.61,5.61,0,0,1-2.12,2.2,6,6,0,0,1-3.07.79A5.35,5.35,0,0,1,142.49,74.92Zm4.86-1.31a4.32,4.32,0,0,0,1.6-1.73,5.3,5.3,0,0,0,.57-2.48,3.1,3.1,0,0,0-.89-2.36,3.44,3.44,0,0,0-2.5-.85,4.26,4.26,0,0,0-2.29.63,4.38,4.38,0,0,0-1.6,1.73,5.36,5.36,0,0,0-.58,2.48,3.05,3.05,0,0,0,.9,2.35,3.44,3.44,0,0,0,2.5.85A4.37,4.37,0,0,0,147.35,73.61Z" transform="translate(-0.16)"/><path class="cls-1" d="M168.52,65.05l-6.63,10.31h-1.43l-2.55-10.31h1.4l2.13,8.8,5.63-8.8Z" transform="translate(-0.16)"/><path class="cls-1" d="M170.46,65.05h1.39l-2,10.31h-1.39Zm2.69-4h1.9l-3.43,2.43h-1.45Z" transform="translate(-0.16)"/><path class="cls-1" d="M186,60.82l-2.9,14.54h-1.33l.33-1.62A5.06,5.06,0,0,1,180.34,75a5.53,5.53,0,0,1-2.26.45,4.91,4.91,0,0,1-2.33-.53,3.82,3.82,0,0,1-1.59-1.52,4.66,4.66,0,0,1-.56-2.32,6.53,6.53,0,0,1,.75-3.14,5.62,5.62,0,0,1,2.09-2.18,5.71,5.71,0,0,1,3-.8,5,5,0,0,1,2.46.58,3.38,3.38,0,0,1,1.46,1.66l1.27-6.39Zm-5.33,12.79a4.32,4.32,0,0,0,1.6-1.73,5.19,5.19,0,0,0,.58-2.48A3.14,3.14,0,0,0,182,67a3.48,3.48,0,0,0-2.5-.85,4.28,4.28,0,0,0-3.89,2.36A5.24,5.24,0,0,0,175,71a3,3,0,0,0,.89,2.35,3.46,3.46,0,0,0,2.5.85A4.34,4.34,0,0,0,180.67,73.61Z" transform="translate(-0.16)"/><path class="cls-1" d="M188.28,70.6a2.25,2.25,0,0,0,0,.41,3.1,3.1,0,0,0,.89,2.39,3.78,3.78,0,0,0,2.66.83,5.27,5.27,0,0,0,1.91-.35,3.74,3.74,0,0,0,1.46-.95l.63,1A4.93,4.93,0,0,1,194,75.06a6.51,6.51,0,0,1-2.3.4,5,5,0,0,1-3.52-1.17,4.15,4.15,0,0,1-1.28-3.22,6.59,6.59,0,0,1,.73-3.12,5.53,5.53,0,0,1,5-3,4.52,4.52,0,0,1,3.27,1.17,4.25,4.25,0,0,1,1.22,3.21,6.54,6.54,0,0,1-.14,1.25Zm1.63-3.53a4.59,4.59,0,0,0-1.49,2.49h7.35a3.26,3.26,0,0,0,0-.37,2.87,2.87,0,0,0-.89-2.25,3.41,3.41,0,0,0-2.35-.79A4,4,0,0,0,189.91,67.07Z" transform="translate(-0.16)"/><path class="cls-1" d="M200.94,74.92a3.91,3.91,0,0,1-1.64-1.53,4.51,4.51,0,0,1-.57-2.3,6.43,6.43,0,0,1,.76-3.14,5.65,5.65,0,0,1,2.13-2.18,5.94,5.94,0,0,1,3.06-.8,4.88,4.88,0,0,1,3.43,1.18,4.14,4.14,0,0,1,1.26,3.18,6.43,6.43,0,0,1-.77,3.14,5.48,5.48,0,0,1-2.12,2.2,6,6,0,0,1-3.07.79A5.38,5.38,0,0,1,200.94,74.92Zm4.86-1.31a4.32,4.32,0,0,0,1.6-1.73A5.19,5.19,0,0,0,208,69.4a3.14,3.14,0,0,0-.89-2.36,3.48,3.48,0,0,0-2.5-.85,4.28,4.28,0,0,0-3.89,2.36,5.24,5.24,0,0,0-.58,2.48,3,3,0,0,0,.89,2.35,3.46,3.46,0,0,0,2.5.85A4.34,4.34,0,0,0,205.8,73.61Z" transform="translate(-0.16)"/><path class="cls-1" d="M44.13,46A44,44,0,0,1,28,43,29,29,0,0,1,14.83,33a24.29,24.29,0,0,1-3.57-7.54,30.26,30.26,0,0,1-1.18-8.23A46.48,46.48,0,0,1,10.76,9c.27-1.35.57-2.69.88-4l1.14-4,.08,0a56.4,56.4,0,0,0-2,16.2,31.29,31.29,0,0,0,1.27,8,24,24,0,0,0,3.5,7.23,25.71,25.71,0,0,0,5.59,5.77,35.48,35.48,0,0,0,7,4A44.48,44.48,0,0,0,36,44.78,49.16,49.16,0,0,0,44.13,46Z" transform="translate(-0.16)"/><polygon class="cls-1" points="15.76 5.32 14.87 5.79 12.59 1.42 8.4 4.01 7.87 3.16 12.97 0 15.76 5.32"/></g></g></svg>