<svg xmlns="http://www.w3.org/2000/svg" viewBox="0 0 944.37 117.42"><defs><style>.cls-1{fill:#002ea0;}.cls-2{fill:#09b3ff;}</style></defs><g id="Layer_2" data-name="Layer 2"><g id="Layer_1-2" data-name="Layer 1"><path class="cls-1" d="M58.58,138.63c0-2.87-.06-4.62,3-13.72l5.83-17.55C70.82,97,68.58,93.15,60.6,93.15H54.53l-15.1,45.48H21.87L59,26.93H85.47c18.19,0,23.2,8.46,17.48,25.69L100,61.4c-3.82,11.49-10,19-19,22.66,7.56,3.67,7.62,12.13,3.75,23.77L79,125.07c-1.8,5.42-3,9.41-2.59,13.56ZM71.23,42.89,59.84,77.2H66.7c6.54,0,11.48-2.88,14.45-11.81l3.66-11c2.65-8,1.11-11.49-5.12-11.49Z" transform="translate(-15.87 -22.65)"/><path class="cls-1" d="M137,74h24.1L155.8,90H131.71l-10.87,32.71h30.32l-5.3,16H98L135.1,26.93H183l-5.3,16H147.35Z" transform="translate(-15.87 -22.65)"/><path class="cls-1" d="M233.42,97l-4.93,14.85c-5.94,17.87-18.27,28.08-35.51,28.08s-22.77-10.21-16.83-28.08l19.29-58.09c5.94-17.87,18.27-28.09,35.5-28.09s22.78,10.22,16.84,28.09l-3.6,10.85h-16.6l4-12c2.65-8,.15-11-5.44-11s-10.1,3-12.75,11l-20,60.32c-2.65,8-.1,10.85,5.49,10.85s10.05-2.87,12.7-10.85l5.3-16Z" transform="translate(-15.87 -22.65)"/><path class="cls-1" d="M299,138.63H281.33l3.7-20.26H263.49l-9.77,20.26H237.61l55-111.7h25.69Zm-28.28-35.42h16.91L298,46.72Z" transform="translate(-15.87 -22.65)"/><path class="cls-1" d="M399.11,54.54l-4.83,14.52c-5.93,17.87-17.79,27.61-35.34,27.61h-8.3l-13.94,42H319.15l37.11-111.7h25.85C399.66,26.93,405,36.66,399.11,54.54Zm-30.6-11.65L355.94,80.71h8.3c5.59,0,9.47-2.56,12.12-10.53l5.56-16.76c2.65-8,.47-10.53-5.11-10.53Z" transform="translate(-15.87 -22.65)"/><path class="cls-1" d="M428.38,26.93h17.56l-37.11,111.7H391.27Z" transform="translate(-15.87 -22.65)"/><path class="cls-1" d="M465.56,26.93h54.25l-5.3,16H496.16l-31.81,95.74H446.8l31.81-95.74H460.26Z" transform="translate(-15.87 -22.65)"/><path class="cls-1" d="M556.19,26.93,527.57,113.1c-2.65,8-.1,10.85,5.49,10.85s10.05-2.87,12.7-10.85l28.63-86.17H591L562.73,112c-5.94,17.88-18.27,28.09-35.51,28.09S504.45,129.86,510.38,112l28.26-85.05Z" transform="translate(-15.87 -22.65)"/><path class="cls-1" d="M614.91,26.93h17.56l-31.81,95.74h28.88l-5.3,16H577.8Z" transform="translate(-15.87 -22.65)"/><path class="cls-1" d="M700.67,138.63H683l3.7-20.26H665.12l-9.77,20.26H639.24l55-111.7h25.69Zm-28.28-35.42h16.92l10.3-56.49Z" transform="translate(-15.87 -22.65)"/><path class="cls-1" d="M763.29,57.73l-26.87,80.9h-15.8l37.11-111.7h22l-4.18,66.86,22.21-66.86h15.64l-37.11,111.7h-18Z" transform="translate(-15.87 -22.65)"/><path class="cls-1" d="M838,26.93h27.77c17.55,0,22.93,9.73,17,27.61L864,111c-5.94,17.87-17.79,27.6-35.34,27.6H800.88Zm12.25,16-26.51,79.78h9.9c5.58,0,9.89-2.87,12.54-10.84l19.3-58.09c2.65-8,.25-10.85-5.33-10.85Z" transform="translate(-15.87 -22.65)"/><path class="cls-1" d="M904.72,53.74c5.93-17.87,18.74-28.09,36-28.09S964,35.87,958,53.74l-19.3,58.09c-5.94,17.87-18.75,28.08-36,28.08s-23.26-10.21-17.32-28.08Zm-2.12,59.2c-2.65,8-.15,11,5.44,11s10.1-3,12.75-11l20-60.32c2.65-8,.15-11-5.43-11s-10.11,3-12.76,11Z" transform="translate(-15.87 -22.65)"/><path class="cls-2" d="M52.58,135.63c0-2.87-.06-4.62,3-13.72l5.83-17.55C64.82,94,62.58,90.15,54.6,90.15H48.53l-15.1,45.48H15.87L53,23.93H79.47c18.19,0,23.2,8.46,17.48,25.69L94,58.4c-3.82,11.49-10,19-19,22.66,7.56,3.67,7.62,12.13,3.75,23.77L73,122.07c-1.8,5.42-3,9.41-2.59,13.56ZM65.23,39.89,53.84,74.2H60.7c6.54,0,11.48-2.88,14.45-11.81l3.66-11c2.65-8,1.11-11.49-5.12-11.49Z" transform="translate(-15.87 -22.65)"/><path class="cls-2" d="M131,71h24.1L149.8,87H125.71l-10.87,32.71h30.32l-5.3,16H92L129.1,23.93H177l-5.3,16H141.35Z" transform="translate(-15.87 -22.65)"/><path class="cls-2" d="M227.42,94l-4.93,14.85c-5.94,17.87-18.27,28.08-35.51,28.08s-22.77-10.21-16.83-28.08l19.29-58.09c5.94-17.87,18.27-28.09,35.5-28.09s22.78,10.22,16.84,28.09l-3.6,10.85h-16.6l4-12c2.65-8,.15-11-5.44-11s-10.1,3-12.75,11l-20,60.32c-2.65,8-.1,10.85,5.49,10.85s10.05-2.87,12.7-10.85l5.3-16Z" transform="translate(-15.87 -22.65)"/><path class="cls-2" d="M293,135.63H275.33l3.7-20.26H257.49l-9.77,20.26H231.61l55-111.7h25.69Zm-28.28-35.42h16.91L292,43.72Z" transform="translate(-15.87 -22.65)"/><path class="cls-2" d="M393.11,51.54l-4.83,14.52c-5.93,17.87-17.79,27.61-35.34,27.61h-8.3l-13.94,42H313.15l37.11-111.7h25.85C393.66,23.93,399,33.66,393.11,51.54Zm-30.6-11.65L349.94,77.71h8.3c5.59,0,9.47-2.56,12.12-10.53l5.56-16.76c2.65-8,.47-10.53-5.11-10.53Z" transform="translate(-15.87 -22.65)"/><path class="cls-2" d="M422.38,23.93h17.56l-37.11,111.7H385.27Z" transform="translate(-15.87 -22.65)"/><path class="cls-2" d="M459.56,23.93h54.25l-5.3,16H490.16l-31.81,95.74H440.8l31.81-95.74H454.26Z" transform="translate(-15.87 -22.65)"/><path class="cls-2" d="M550.19,23.93,521.57,110.1c-2.65,8-.1,10.85,5.49,10.85s10.05-2.87,12.7-10.85l28.63-86.17H585L556.73,109c-5.94,17.88-18.27,28.09-35.51,28.09S498.45,126.86,504.38,109l28.26-85.05Z" transform="translate(-15.87 -22.65)"/><path class="cls-2" d="M608.91,23.93h17.56l-31.81,95.74h28.88l-5.3,16H571.8Z" transform="translate(-15.87 -22.65)"/><path class="cls-2" d="M694.67,135.63H677l3.7-20.26H659.12l-9.77,20.26H633.24l55-111.7h25.69Zm-28.28-35.42h16.92l10.3-56.49Z" transform="translate(-15.87 -22.65)"/><path class="cls-2" d="M757.29,54.73l-26.87,80.9h-15.8l37.11-111.7h22l-4.18,66.86,22.21-66.86h15.64l-37.11,111.7h-18Z" transform="translate(-15.87 -22.65)"/><path class="cls-2" d="M832,23.93h27.77c17.55,0,22.93,9.73,17,27.61L858,108c-5.94,17.87-17.79,27.6-35.34,27.6H794.88Zm12.25,16-26.51,79.78h9.9c5.58,0,9.89-2.87,12.54-10.84l19.3-58.09c2.65-8,.25-10.85-5.33-10.85Z" transform="translate(-15.87 -22.65)"/><path class="cls-2" d="M898.72,50.74c5.93-17.87,18.74-28.09,36-28.09S958,32.87,952,50.74l-19.3,58.09c-5.94,17.87-18.75,28.08-36,28.08s-23.26-10.21-17.32-28.08Zm-2.12,59.2c-2.65,8-.15,11,5.44,11s10.1-3,12.75-11l20-60.32c2.65-8,.15-11-5.43-11s-10.11,3-12.76,11Z" transform="translate(-15.87 -22.65)"/></g></g></svg>