<svg xmlns="http://www.w3.org/2000/svg" viewBox="0 0 144.85 1080"><defs><style>.cls-1{isolation:isolate;}.cls-2,.cls-4{fill:#6c933b;}.cls-13,.cls-17,.cls-3,.cls-8{fill:#acd780;}.cls-4{stroke:#6c933b;stroke-miterlimit:10;}.cls-10,.cls-12,.cls-14,.cls-15,.cls-18,.cls-21,.cls-23,.cls-5,.cls-6,.cls-7,.cls-9{fill:#fff;}.cls-5{opacity:0.9;}.cls-6{opacity:0.8;}.cls-7{opacity:0.3;}.cls-18,.cls-7,.cls-9{mix-blend-mode:lighten;}.cls-21,.cls-8{opacity:0.1;}.cls-12,.cls-9{opacity:0.5;}.cls-10{opacity:0.7;}.cls-11{fill:#00dfbf;}.cls-13,.cls-15{opacity:0.2;}.cls-14,.cls-18{opacity:0.6;}.cls-16{fill:#265c2e;opacity:0.05;mix-blend-mode:multiply;}.cls-17,.cls-22{opacity:0.15;}.cls-19{fill:#375a64;}.cls-20{fill:#416015;}.cls-23{opacity:0.35;}.cls-24{fill:#eaffc5;}</style></defs><g class="cls-1"><g id="Layer_2" data-name="Layer 2"><g id="Layer_1-2" data-name="Layer 1"><rect class="cls-2" x="49.85" width="95" height="1080"/><rect class="cls-3" x="54.85" width="90" height="1080"/><path class="cls-4" d="M134,539.73c0,31.33-26.38,56.72-58.93,56.72s-56.66-25.39-56.66-56.72S42.56,483,75.1,483,134,508.4,134,539.73Z"/><ellipse class="cls-3" cx="80.77" cy="540.27" rx="58.93" ry="56.73"/><path class="cls-3" d="M121.33,518.09c4.75.22,8.18,9.78,7.66,21.37s-4.8,20.8-9.55,20.59-8.17-9.78-7.65-21.37S116.58,517.88,121.33,518.09Z"/><path class="cls-3" d="M121.33,518.09c4.75.22,8.18,9.78,7.66,21.37s-4.8,20.8-9.55,20.59-8.17-9.78-7.65-21.37S116.58,517.88,121.33,518.09Z"/><ellipse class="cls-5" cx="120.39" cy="539.07" rx="22.72" ry="9.31" transform="translate(-423.55 635.11) rotate(-87.42)"/><path class="cls-3" d="M111.8,560.09a9.33,9.33,0,0,1,.84-18.63h.26l.26,0c1.29.16,2.51,1.13,3.42,2.89a14.58,14.58,0,0,1-.59,13.19,4.81,4.81,0,0,1-3.67,2.56h-.26Z"/><path class="cls-6" d="M111.8,560.09a9.33,9.33,0,0,1,.84-18.63h.26l.26,0c1.29.16,2.51,1.13,3.42,2.89a14.58,14.58,0,0,1-.59,13.19,4.81,4.81,0,0,1-3.67,2.56h-.26Z"/><path class="cls-7" d="M103.9,554.45h0a9.31,9.31,0,0,1,8.74-13h.26l.26,0c1.29.16,2.51,1.13,3.42,2.89a12.38,12.38,0,0,1,1.25,4.74c-.31-2.44-2.94-4.12-6-3.51C108.38,546.3,103.23,549.57,103.9,554.45Z"/><path class="cls-8" d="M112.32,560.12h-.26l-.26,0a9.29,9.29,0,0,1-6.59-3.46c1,1.06,4.82,3.48,7.92,1.17,2-1.52,5.19-9,1.86-15.49a6.53,6.53,0,0,1,1.59,2.06,14.58,14.58,0,0,1-.59,13.19A4.81,4.81,0,0,1,112.32,560.12Z"/><path class="cls-9" d="M105.26,550.37c.93.46,2.24-.29,2.92-1.67s.48-2.86-.45-3.32-2.24.28-2.92,1.66S104.33,549.91,105.26,550.37Z"/><path class="cls-9" d="M109.37,545.14a1.22,1.22,0,1,0-.35-1.51A1.11,1.11,0,0,0,109.37,545.14Z"/><path class="cls-3" d="M113.41,521.12A7.93,7.93,0,0,0,112.7,537l.22,0h.22a4.07,4.07,0,0,0,3.12-2.18,12.39,12.39,0,0,0,.5-11.2,4.09,4.09,0,0,0-2.91-2.45h-.44Z"/><path class="cls-6" d="M113.41,521.12A7.93,7.93,0,0,0,112.7,537l.22,0h.22a4.07,4.07,0,0,0,3.12-2.18,12.39,12.39,0,0,0,.5-11.2,4.09,4.09,0,0,0-2.91-2.45h-.44Z"/><path class="cls-7" d="M106.3,525.29h0a7.81,7.81,0,0,0-.94,3.4A7.92,7.92,0,0,0,112.7,537l.22,0h.22a4.07,4.07,0,0,0,3.12-2.18,10.59,10.59,0,0,0,1.41-3.92c-.44,2-2.79,3.27-5.3,2.52C109.47,532.53,105.36,529.37,106.3,525.29Z"/><path class="cls-8" d="M113.85,521.14h-.44a7.92,7.92,0,0,0-5.84,2.43c.92-.82,4.34-2.58,6.79-.39,1.61,1.45,3.7,8,.4,13.24a5.6,5.6,0,0,0,1.5-1.61,12.39,12.39,0,0,0,.5-11.2A4.09,4.09,0,0,0,113.85,521.14Z"/><path class="cls-9" d="M107.14,528.85c.82-.32,1.87.41,2.34,1.63s.18,2.46-.64,2.78-1.87-.41-2.34-1.63S106.31,529.17,107.14,528.85Z"/><path class="cls-9" d="M110.21,533.58a1,1,0,1,1-.4,1.26A1,1,0,0,1,110.21,533.58Z"/><path class="cls-3" d="M114.67,513.44a5.24,5.24,0,0,0-.47,10.46h.29a2.66,2.66,0,0,0,2.06-1.44,8.22,8.22,0,0,0,.34-7.4,2.7,2.7,0,0,0-1.93-1.62h-.14A.75.75,0,0,0,114.67,513.44Z"/><path class="cls-5" d="M114.67,513.44a5.24,5.24,0,0,0-.47,10.46h.29a2.66,2.66,0,0,0,2.06-1.44,8.22,8.22,0,0,0,.34-7.4,2.7,2.7,0,0,0-1.93-1.62h-.14A.75.75,0,0,0,114.67,513.44Z"/><path class="cls-9" d="M110,516.19h0a5.22,5.22,0,0,0,4.23,7.71h.29a2.66,2.66,0,0,0,2.06-1.44,6.84,6.84,0,0,0,.94-2.59,2.65,2.65,0,0,1-3.51,1.67C112.06,521,109.34,518.89,110,516.19Z"/><path class="cls-8" d="M115,513.45h-.14a.75.75,0,0,0-.15,0,5.22,5.22,0,0,0-3.86,1.6c.61-.54,2.87-1.71,4.49-.26,1.06,1,2.44,5.32.26,8.76a3.69,3.69,0,0,0,1-1.07,8.22,8.22,0,0,0,.34-7.4A2.7,2.7,0,0,0,115,513.45Z"/><path class="cls-9" d="M110.52,518.55c.55-.21,1.24.27,1.55,1.07s.12,1.63-.42,1.84-1.24-.27-1.55-1.08S110,518.76,110.52,518.55Z"/><path class="cls-9" d="M112.56,521.68a.61.61,0,0,1,.75.43.61.61,0,0,1-.27.82.61.61,0,0,1-.75-.43A.61.61,0,0,1,112.56,521.68Z"/><path class="cls-3" d="M117.45,502.39a7.12,7.12,0,0,0-.64,14.22h.4a3.7,3.7,0,0,0,2.8-2,11.14,11.14,0,0,0,.45-10.07,3.7,3.7,0,0,0-2.61-2.2h-.4Z"/><path class="cls-10" d="M117.45,502.39a7.12,7.12,0,0,0-.64,14.22h.4a3.7,3.7,0,0,0,2.8-2,11.14,11.14,0,0,0,.45-10.07,3.7,3.7,0,0,0-2.61-2.2h-.4Z"/><path class="cls-7" d="M111.06,506.13h0a7.11,7.11,0,0,0,5.75,10.48h.4a3.7,3.7,0,0,0,2.8-2,9.59,9.59,0,0,0,1.27-3.52c-.4,1.83-2.51,2.93-4.76,2.26C113.91,512.63,110.21,509.79,111.06,506.13Z"/><path class="cls-8" d="M117.85,502.4h-.4a7.08,7.08,0,0,0-5.25,2.18c.83-.74,3.9-2.32,6.1-.35,1.45,1.3,3.33,7.22.36,11.9a5,5,0,0,0,1.35-1.45,11.14,11.14,0,0,0,.45-10.07A3.7,3.7,0,0,0,117.85,502.4Z"/><path class="cls-9" d="M111.81,509.33c.74-.28,1.68.37,2.11,1.47s.16,2.21-.58,2.49-1.68-.37-2.1-1.46S111.07,509.62,111.81,509.33Z"/><path class="cls-9" d="M114.58,513.58a.85.85,0,0,1,1,.59.76.76,0,1,1-1.39.54A.85.85,0,0,1,114.58,513.58Z"/><path class="cls-11" d="M89.11,529.13a8.52,8.52,0,0,1,6.34,3.29,5.55,5.55,0,0,0,4.12,2.21l20.37.91a1.76,1.76,0,0,1,1.38,1.09,4.27,4.27,0,0,1,.41,1.31,5.91,5.91,0,0,1-.1,2.37,4.35,4.35,0,0,1-.53,1.26,1.77,1.77,0,0,1-1.48,1l-20.4-.92A5.52,5.52,0,0,0,95,543.43a8.45,8.45,0,0,1-6.69,2.71,8.52,8.52,0,0,1,.84-17Z"/><path class="cls-2" d="M89.11,529.13a8.52,8.52,0,0,1,6.34,3.29,5.55,5.55,0,0,0,4.12,2.21l20.37.91a1.76,1.76,0,0,1,1.38,1.09,4.27,4.27,0,0,1,.41,1.31,5.91,5.91,0,0,1-.1,2.37,4.35,4.35,0,0,1-.53,1.26,1.77,1.77,0,0,1-1.48,1l-20.4-.92A5.52,5.52,0,0,0,95,543.43a8.45,8.45,0,0,1-6.69,2.71,8.52,8.52,0,0,1,.84-17Z"/><path class="cls-11" d="M88.94,532.89a4.74,4.74,0,0,1,3.77,2.18,3.89,3.89,0,0,0,3.09,1.7l24.54,1.1a1.2,1.2,0,0,1,1.16,1.24v0a1.2,1.2,0,0,1-1.27,1.12l-24.6-1.11a3.83,3.83,0,0,0-3.17,1.42,4.72,4.72,0,0,1-4.08,1.82,4.75,4.75,0,0,1,.56-9.49Z"/><path class="cls-3" d="M88.94,532.89a4.74,4.74,0,0,1,3.77,2.18,3.89,3.89,0,0,0,3.09,1.7l24.54,1.1a1.2,1.2,0,0,1,1.16,1.24v0a1.2,1.2,0,0,1-1.27,1.12l-24.6-1.11a3.83,3.83,0,0,0-3.17,1.42,4.72,4.72,0,0,1-4.08,1.82,4.75,4.75,0,0,1,.56-9.49Z"/><circle class="cls-6" cx="92.99" cy="533.51" r="1.8"/><path class="cls-10" d="M87.55,535.39a1.36,1.36,0,1,1,1.42-1.3A1.37,1.37,0,0,1,87.55,535.39Z"/><path class="cls-6" d="M85.27,537.88a.68.68,0,0,1-.64-.7.67.67,0,1,1,.64.7Z"/><path class="cls-10" d="M85.84,543.28a1.82,1.82,0,1,1,1.9-1.74A1.82,1.82,0,0,1,85.84,543.28Z"/><path class="cls-6" d="M89.12,543.73a.85.85,0,0,0,.89-.81.86.86,0,1,0-.89.81Z"/><path class="cls-10" d="M92.39,543.79a1.66,1.66,0,1,1,1.73-1.59A1.67,1.67,0,0,1,92.39,543.79Z"/><path class="cls-10" d="M95,539.77a1.14,1.14,0,1,1,1.2-1.09A1.15,1.15,0,0,1,95,539.77Z"/><path class="cls-10" d="M87.11,545.27a.59.59,0,1,1,.61-.56A.6.6,0,0,1,87.11,545.27Z"/><path class="cls-6" d="M85.27,532.49a.77.77,0,0,1-.73-.81.76.76,0,0,1,.8-.73.77.77,0,0,1,.73.8A.78.78,0,0,1,85.27,532.49Z"/><path class="cls-10" d="M89.07,531.89a.77.77,0,1,1,.8-.74A.77.77,0,0,1,89.07,531.89Z"/><path class="cls-6" d="M89.51,539.15a.77.77,0,0,1,.07-1.54.77.77,0,1,1-.07,1.54Z"/><path class="cls-3" d="M119,494.41a4.34,4.34,0,0,0-.39,8.67h.24a2.23,2.23,0,0,0,1.71-1.19,6.79,6.79,0,0,0,.28-6.14,2.27,2.27,0,0,0-1.6-1.34H119Z"/><path class="cls-12" d="M119,494.41a4.34,4.34,0,0,0-.39,8.67h.24a2.23,2.23,0,0,0,1.71-1.19,6.79,6.79,0,0,0,.28-6.14,2.27,2.27,0,0,0-1.6-1.34H119Z"/><path class="cls-9" d="M115.15,496.69h0a4.33,4.33,0,0,0,3.5,6.39h.24a2.23,2.23,0,0,0,1.71-1.19,5.76,5.76,0,0,0,.78-2.15,2.2,2.2,0,0,1-2.91,1.38C116.88,500.66,114.63,498.93,115.15,496.69Z"/><path class="cls-13" d="M119.28,494.42H119a4.34,4.34,0,0,0-3.2,1.33c.51-.45,2.38-1.41,3.72-.21.88.79,2,4.4.22,7.25a3.05,3.05,0,0,0,.82-.88,6.79,6.79,0,0,0,.28-6.14A2.27,2.27,0,0,0,119.28,494.42Z"/><path class="cls-9" d="M115.61,498.64c.45-.17,1,.23,1.28.9s.1,1.34-.35,1.52-1-.23-1.28-.89S115.16,498.82,115.61,498.64Z"/><path class="cls-9" d="M117.29,501.24a.57.57,0,0,1,.4,1,.57.57,0,0,1-.4-1Z"/><path class="cls-3" d="M122.32,501.06a6,6,0,0,0-.54,11.94h.33a3.12,3.12,0,0,0,2.36-1.65,9.36,9.36,0,0,0,.38-8.45,3.06,3.06,0,0,0-2.2-1.84h-.33Z"/><path class="cls-14" d="M122.32,501.06a6,6,0,0,0-.54,11.94h.33a3.12,3.12,0,0,0,2.36-1.65,9.36,9.36,0,0,0,.38-8.45,3.06,3.06,0,0,0-2.2-1.84h-.33Z"/><path class="cls-9" d="M117,504.21h0a6,6,0,0,0,4.82,8.79h.33a3.12,3.12,0,0,0,2.36-1.65,7.92,7.92,0,0,0,1.06-2.95,3,3,0,0,1-4,1.9C119.35,509.66,116.24,507.28,117,504.21Z"/><path class="cls-8" d="M122.65,501.08h-.33a6,6,0,0,0-4.41,1.84c.7-.62,3.28-1.95,5.12-.3,1.22,1.09,2.8,6.07.3,10a4.1,4.1,0,0,0,1.14-1.22,9.36,9.36,0,0,0,.38-8.45A3.06,3.06,0,0,0,122.65,501.08Z"/><path class="cls-7" d="M117.59,506.89c.62-.24,1.41.31,1.76,1.23s.14,1.86-.48,2.1-1.41-.31-1.76-1.23S117,507.13,117.59,506.89Z"/><path class="cls-7" d="M119.91,510.46a.79.79,0,1,1-.31,1A.72.72,0,0,1,119.91,510.46Z"/><path class="cls-3" d="M124.75,511.78a7.42,7.42,0,0,0-.67,14.82h.41a3.83,3.83,0,0,0,2.92-2,11.6,11.6,0,0,0,.47-10.48,3.81,3.81,0,0,0-2.72-2.29h-.41Z"/><path class="cls-6" d="M124.75,511.78a7.42,7.42,0,0,0-.67,14.82h.41a3.83,3.83,0,0,0,2.92-2,11.6,11.6,0,0,0,.47-10.48,3.81,3.81,0,0,0-2.72-2.29h-.41Z"/><path class="cls-7" d="M118.09,515.68h0a7.42,7.42,0,0,0,6,10.92h.41a3.83,3.83,0,0,0,2.92-2,9.87,9.87,0,0,0,1.33-3.66c-.42,1.91-2.62,3.05-5,2.36C121.06,522.46,117.21,519.5,118.09,515.68Z"/><path class="cls-8" d="M125.16,511.8h-.41a7.37,7.37,0,0,0-5.47,2.28c.86-.77,4.06-2.42,6.36-.37,1.5,1.35,3.46,7.53.37,12.4a5.2,5.2,0,0,0,1.4-1.52,11.6,11.6,0,0,0,.47-10.48A3.81,3.81,0,0,0,125.16,511.8Z"/><path class="cls-7" d="M118.88,519c.77-.3,1.75.38,2.19,1.52s.17,2.31-.6,2.6-1.75-.38-2.19-1.52S118.11,519.31,118.88,519Z"/><path class="cls-7" d="M121.76,523.45a1,1,0,0,1,.68,1.78,1,1,0,0,1-.68-1.78Z"/><path class="cls-3" d="M122.1,538.23a6.21,6.21,0,0,0-.56,12.4h.35a3.17,3.17,0,0,0,2.44-1.7,9.74,9.74,0,0,0,.4-8.78,3.21,3.21,0,0,0-2.28-1.91h-.35Z"/><path class="cls-6" d="M122.1,538.23a6.21,6.21,0,0,0-.56,12.4h.35a3.17,3.17,0,0,0,2.44-1.7,9.74,9.74,0,0,0,.4-8.78,3.21,3.21,0,0,0-2.28-1.91h-.35Z"/><path class="cls-7" d="M116.53,541.5h0a6.2,6.2,0,0,0,5,9.13h.35a3.17,3.17,0,0,0,2.44-1.7,8.33,8.33,0,0,0,1.11-3.07c-.35,1.59-2.19,2.55-4.15,2C119,547.16,115.79,544.69,116.53,541.5Z"/><path class="cls-8" d="M122.45,538.25h-.35a6.19,6.19,0,0,0-4.57,1.91c.72-.65,3.4-2,5.31-.31,1.26,1.13,2.9,6.3.32,10.37a4.36,4.36,0,0,0,1.17-1.26,9.74,9.74,0,0,0,.4-8.78A3.21,3.21,0,0,0,122.45,538.25Z"/><path class="cls-7" d="M117.19,544.29c.64-.25,1.46.32,1.83,1.27s.15,1.93-.5,2.18-1.46-.32-1.83-1.28S116.54,544.53,117.19,544.29Z"/><path class="cls-7" d="M119.6,548a.73.73,0,0,1,.89.51.66.66,0,1,1-.89-.51Z"/><path class="cls-3" d="M123.85,528a5.45,5.45,0,0,0-.49,10.88h.3a2.79,2.79,0,0,0,2.15-1.49,8.53,8.53,0,0,0,.34-7.7,2.8,2.8,0,0,0-2-1.69h-.3Z"/><path class="cls-6" d="M123.85,528a5.45,5.45,0,0,0-.49,10.88h.3a2.79,2.79,0,0,0,2.15-1.49,8.53,8.53,0,0,0,.34-7.7,2.8,2.8,0,0,0-2-1.69h-.3Z"/><path class="cls-7" d="M119,530.86h0a5.55,5.55,0,0,0-.65,2.33,5.46,5.46,0,0,0,5,5.68h.3a2.79,2.79,0,0,0,2.15-1.49,7.24,7.24,0,0,0,1-2.7,2.74,2.74,0,0,1-3.64,1.73C121.14,535.83,118.31,533.66,119,530.86Z"/><path class="cls-8" d="M124.15,528h-.3a5.45,5.45,0,0,0-4,1.67c.64-.56,3-1.77,4.67-.27,1.11,1,2.55,5.53.27,9.11a3.86,3.86,0,0,0,1-1.11,8.53,8.53,0,0,0,.34-7.7A2.8,2.8,0,0,0,124.15,528Z"/><path class="cls-7" d="M119.54,533.3c.56-.22,1.28.29,1.61,1.12s.12,1.7-.44,1.91-1.29-.28-1.61-1.12S119,533.52,119.54,533.3Z"/><path class="cls-7" d="M121.65,536.56a.71.71,0,1,1-.28.86A.65.65,0,0,1,121.65,536.56Z"/><path class="cls-3" d="M120.22,490.79A2.62,2.62,0,0,0,120,496h.14a1.34,1.34,0,0,0,1-.72,4.11,4.11,0,0,0,.16-3.71,1.31,1.31,0,0,0-1-.8h-.15Z"/><path class="cls-15" d="M120.22,490.79A2.62,2.62,0,0,0,120,496h.14a1.34,1.34,0,0,0,1-.72,4.11,4.11,0,0,0,.16-3.71,1.31,1.31,0,0,0-1-.8h-.15Z"/><path class="cls-9" d="M117.87,492.17h0a2.6,2.6,0,0,0-.31,1.12A2.63,2.63,0,0,0,120,496h.14a1.34,1.34,0,0,0,1-.72,3.54,3.54,0,0,0,.46-1.29,1.31,1.31,0,0,1-1.75.83C118.92,494.56,117.56,493.52,117.87,492.17Z"/><path class="cls-16" d="M120.37,490.8h-.15a2.62,2.62,0,0,0-1.93.8,1.83,1.83,0,0,1,2.25-.13,4.05,4.05,0,0,1,.13,4.39,1.88,1.88,0,0,0,.5-.54,4.11,4.11,0,0,0,.16-3.71A1.31,1.31,0,0,0,120.37,490.8Z"/><path class="cls-7" d="M118.15,493.35c.27-.11.62.13.77.54s.06.81-.21.92-.62-.14-.77-.54S117.87,493.45,118.15,493.35Z"/><path class="cls-7" d="M119.17,494.91a.35.35,0,0,1,.24.63.34.34,0,0,1-.24-.63Z"/><path class="cls-3" d="M113,580.53a4.34,4.34,0,0,1,.39-8.66h.25a2.22,2.22,0,0,1,1.59,1.34,6.77,6.77,0,0,1-.28,6.13,2.19,2.19,0,0,1-1.71,1.19H113Z"/><path class="cls-12" d="M113,580.53a4.34,4.34,0,0,1,.39-8.66h.25a2.22,2.22,0,0,1,1.59,1.34,6.77,6.77,0,0,1-.28,6.13,2.19,2.19,0,0,1-1.71,1.19H113Z"/><path class="cls-9" d="M109.28,577.91h0a4.33,4.33,0,0,1,4.06-6h.25a2.22,2.22,0,0,1,1.59,1.34,5.72,5.72,0,0,1,.58,2.2,2.2,2.2,0,0,0-2.77-1.63C111.36,574.12,109,575.64,109.28,577.91Z"/><path class="cls-13" d="M113.19,580.54H113a4.32,4.32,0,0,1-3.06-1.61c.46.49,2.24,1.62,3.68.55,1-.71,2.42-4.21.87-7.21a3.29,3.29,0,0,1,.74,1,6.77,6.77,0,0,1-.28,6.13A2.19,2.19,0,0,1,113.19,580.54Z"/><path class="cls-7" d="M109.91,576c.43.21,1-.13,1.36-.77s.22-1.34-.21-1.55-1,.13-1.36.77S109.48,575.8,109.91,576Z"/><path class="cls-7" d="M111.82,573.58a.52.52,0,0,0,.66-.3.51.51,0,0,0-.16-.7.57.57,0,0,0-.5,1Z"/><path class="cls-3" d="M115,571.31a6.29,6.29,0,0,1,.56-12.57h.35a3.26,3.26,0,0,1,2.31,2,9.84,9.84,0,0,1-.4,8.9,3.24,3.24,0,0,1-2.47,1.73h-.18Z"/><path class="cls-10" d="M115,571.31a6.29,6.29,0,0,1,.56-12.57h.35a3.26,3.26,0,0,1,2.31,2,9.84,9.84,0,0,1-.4,8.9,3.24,3.24,0,0,1-2.47,1.73h-.18Z"/><path class="cls-7" d="M109.7,567.51h0a6.37,6.37,0,0,1-.51-2.76,6.3,6.3,0,0,1,6.4-6h.35a3.26,3.26,0,0,1,2.31,2,8.41,8.41,0,0,1,.85,3.2c-.21-1.64-2-2.78-4-2.37C112.72,562,109.24,564.22,109.7,567.51Z"/><path class="cls-8" d="M115.38,571.33h-.18l-.17,0a6.27,6.27,0,0,1-4.45-2.34c.67.72,3.25,2.36,5.34.8,1.38-1,3.5-6.1,1.26-10.45a4.21,4.21,0,0,1,1.07,1.38,9.84,9.84,0,0,1-.4,8.9A3.24,3.24,0,0,1,115.38,571.33Z"/><path class="cls-9" d="M110.61,564.75c.63.31,1.51-.19,2-1.12s.32-1.94-.3-2.25-1.51.19-2,1.12S110,564.44,110.61,564.75Z"/><path class="cls-9" d="M113.39,561.22a.82.82,0,1,0-.24-1A.74.74,0,0,0,113.39,561.22Z"/><path class="cls-3" d="M118.47,577a6,6,0,0,1,.54-11.93h.33a3.09,3.09,0,0,1,2.19,1.85,9.36,9.36,0,0,1-.38,8.45A3.08,3.08,0,0,1,118.8,577h-.17Z"/><path class="cls-14" d="M118.47,577a6,6,0,0,1,.54-11.93h.33a3.09,3.09,0,0,1,2.19,1.85,9.36,9.36,0,0,1-.38,8.45A3.08,3.08,0,0,1,118.8,577h-.17Z"/><path class="cls-9" d="M113.41,573.4h0a6,6,0,0,1,5.6-8.32h.33a3.09,3.09,0,0,1,2.19,1.85,7.85,7.85,0,0,1,.8,3,3,3,0,0,0-3.81-2.25C116.28,568.18,113,570.28,113.41,573.4Z"/><path class="cls-17" d="M118.8,577h-.17l-.16,0a5.89,5.89,0,0,1-4.22-2.22c.63.68,3.08,2.24,5.07.76,1.3-1,3.32-5.79,1.19-9.92a4,4,0,0,1,1,1.31,9.36,9.36,0,0,1-.38,8.45A3.08,3.08,0,0,1,118.8,577Z"/><path class="cls-7" d="M114.28,570.79c.6.29,1.43-.19,1.87-1.07s.3-1.84-.29-2.13-1.44.18-1.87,1.06S113.68,570.49,114.28,570.79Z"/><path class="cls-7" d="M116.91,567.44a.79.79,0,1,0-.22-1A.71.71,0,0,0,116.91,567.44Z"/><path class="cls-3" d="M121.66,564.47a7.41,7.41,0,0,1,.66-14.81h.42a3.82,3.82,0,0,1,2.72,2.3,11.6,11.6,0,0,1-.47,10.48,3.84,3.84,0,0,1-2.92,2h-.41Z"/><path class="cls-6" d="M121.66,564.47a7.41,7.41,0,0,1,.66-14.81h.42a3.82,3.82,0,0,1,2.72,2.3,11.6,11.6,0,0,1-.47,10.48,3.84,3.84,0,0,1-2.92,2h-.41Z"/><path class="cls-7" d="M115.38,560h0a7.4,7.4,0,0,1,6.94-10.33h.42a3.82,3.82,0,0,1,2.72,2.3,9.85,9.85,0,0,1,1,3.77c-.24-1.94-2.33-3.28-4.73-2.8C118.94,553.51,114.84,556.11,115.38,560Z"/><path class="cls-8" d="M122.07,564.49h-.41a7.36,7.36,0,0,1-5.24-2.76c.79.84,3.83,2.78,6.29.94,1.62-1.21,4.13-7.19,1.49-12.31a5.2,5.2,0,0,1,1.26,1.63,11.6,11.6,0,0,1-.47,10.48A3.84,3.84,0,0,1,122.07,564.49Z"/><path class="cls-7" d="M116.46,556.74c.74.36,1.78-.23,2.32-1.32s.38-2.28-.36-2.65-1.78.23-2.32,1.32S115.72,556.37,116.46,556.74Z"/><path class="cls-7" d="M119.73,552.58a1,1,0,1,0-.28-1.2A.88.88,0,0,0,119.73,552.58Z"/><path class="cls-3" d="M128.35,525a6.77,6.77,0,0,0-.61,13.53h.38a3.47,3.47,0,0,0,2.66-1.86,10.59,10.59,0,0,0,.43-9.57,3.48,3.48,0,0,0-2.49-2.09h-.37Z"/><path class="cls-5" d="M128.35,525a6.77,6.77,0,0,0-.61,13.53h.38a3.47,3.47,0,0,0,2.66-1.86,10.59,10.59,0,0,0,.43-9.57,3.48,3.48,0,0,0-2.49-2.09h-.37Z"/><path class="cls-9" d="M122.27,528.54h0a6.76,6.76,0,0,0,5.47,10h.38a3.47,3.47,0,0,0,2.66-1.86,9.1,9.1,0,0,0,1.21-3.35c-.38,1.75-2.39,2.79-4.53,2.16C125,534.73,121.46,532,122.27,528.54Z"/><path class="cls-8" d="M128.72,525h-.37a6.76,6.76,0,0,0-5,2.08c.78-.7,3.71-2.21,5.8-.33,1.37,1.23,3.16,6.87.34,11.31a4.78,4.78,0,0,0,1.28-1.38,10.59,10.59,0,0,0,.43-9.57A3.48,3.48,0,0,0,128.72,525Z"/><path class="cls-9" d="M123,531.59c.7-.27,1.59.35,2,1.39s.16,2.1-.55,2.37-1.6-.35-2-1.39S122.28,531.86,123,531.59Z"/><path class="cls-9" d="M125.62,535.63a.89.89,0,1,1-.35,1.07A.8.8,0,0,1,125.62,535.63Z"/><path class="cls-3" d="M127.81,553.26a6.44,6.44,0,0,1,.58-12.86h.36a3.31,3.31,0,0,1,2.36,2,10,10,0,0,1-.41,9.1,3.32,3.32,0,0,1-2.53,1.77h-.36Z"/><path class="cls-5" d="M127.81,553.26a6.44,6.44,0,0,1,.58-12.86h.36a3.31,3.31,0,0,1,2.36,2,10,10,0,0,1-.41,9.1,3.32,3.32,0,0,1-2.53,1.77h-.36Z"/><path class="cls-9" d="M122.36,549.37h0a6.43,6.43,0,0,1,6-9h.36a3.31,3.31,0,0,1,2.36,2,8.54,8.54,0,0,1,.86,3.27c-.21-1.68-2-2.85-4.1-2.42C125.45,543.74,121.89,546,122.36,549.37Z"/><path class="cls-8" d="M128.17,553.28h-.36a6.41,6.41,0,0,1-4.55-2.39c.69.73,3.33,2.41,5.47.81,1.4-1,3.58-6.24,1.29-10.69a4.59,4.59,0,0,1,1.09,1.42,10,10,0,0,1-.41,9.1A3.32,3.32,0,0,1,128.17,553.28Z"/><path class="cls-9" d="M123.3,546.55c.64.32,1.54-.2,2-1.15s.33-2-.31-2.3-1.55.2-2,1.15S122.65,546.23,123.3,546.55Z"/><path class="cls-9" d="M126.13,542.94a.84.84,0,1,0-.24-1A.77.77,0,0,0,126.13,542.94Z"/><path class="cls-3" d="M130.81,536.67a2.62,2.62,0,0,0-.23,5.24h.14a1.35,1.35,0,0,0,1-.72,4.11,4.11,0,0,0,.17-3.71,1.37,1.37,0,0,0-1-.81h-.15Z"/><path class="cls-5" d="M130.81,536.67a2.62,2.62,0,0,0-.23,5.24h.14a1.35,1.35,0,0,0,1-.72,4.11,4.11,0,0,0,.17-3.71,1.37,1.37,0,0,0-1-.81h-.15Z"/><path class="cls-18" d="M128.46,538.05h0a2.54,2.54,0,0,0-.31,1.13,2.61,2.61,0,0,0,2.43,2.73h.14a1.35,1.35,0,0,0,1-.72,3.42,3.42,0,0,0,.47-1.3,1.32,1.32,0,0,1-1.75.83C129.51,540.45,128.15,539.4,128.46,538.05Z"/><path class="cls-8" d="M131,536.68h-.15a2.63,2.63,0,0,0-1.93.81,1.8,1.8,0,0,1,2.24-.13,4,4,0,0,1,.14,4.38,2,2,0,0,0,.49-.53,4.11,4.11,0,0,0,.17-3.71A1.37,1.37,0,0,0,131,536.68Z"/><path class="cls-9" d="M128.73,539.23c.28-.1.62.14.78.54s.06.82-.21.92-.62-.14-.78-.54S128.46,539.34,128.73,539.23Z"/><path class="cls-9" d="M129.75,540.8a.31.31,0,0,1,.38.21.32.32,0,0,1-.13.42.31.31,0,0,1-.38-.22A.3.3,0,0,1,129.75,540.8Z"/><path class="cls-3" d="M113.8,584.25A2.62,2.62,0,0,1,114,579h.15a1.32,1.32,0,0,1,1,.81,4.09,4.09,0,0,1-.17,3.7,1.34,1.34,0,0,1-1,.72h-.15Z"/><path class="cls-15" d="M113.8,584.25A2.62,2.62,0,0,1,114,579h.15a1.32,1.32,0,0,1,1,.81,4.09,4.09,0,0,1-.17,3.7,1.34,1.34,0,0,1-1,.72h-.15Z"/><path class="cls-9" d="M111.58,582.66h0a2.74,2.74,0,0,1-.21-1.15A2.62,2.62,0,0,1,114,579h.15a1.32,1.32,0,0,1,1,.81,3.53,3.53,0,0,1,.35,1.33,1.33,1.33,0,0,0-1.67-1C112.84,580.37,111.39,581.29,111.58,582.66Z"/><path class="cls-16" d="M114,584.25h-.15a2.63,2.63,0,0,1-1.85-1,1.81,1.81,0,0,0,2.23.33,4,4,0,0,0,.52-4.35,1.83,1.83,0,0,1,.45.58,4.09,4.09,0,0,1-.17,3.7A1.34,1.34,0,0,1,114,584.25Z"/><path class="cls-7" d="M112,581.51c.26.13.62-.08.82-.46s.13-.81-.13-.94-.63.08-.82.47S111.7,581.38,112,581.51Z"/><path class="cls-7" d="M113.12,580.05a.33.33,0,0,0,.4-.19.31.31,0,0,0-.1-.42.31.31,0,0,0-.4.18A.32.32,0,0,0,113.12,580.05Z"/><path class="cls-2" d="M70.34,528.18,53,526l3.6-5.64c1.73-2.71,5.9-3.76,11.94-3l9.72,1.17-5.47,1.31c-3,.72-4.09,2.84-3.15,6Z"/><path class="cls-2" d="M69.56,545.42l-17.47.65L55.17,552c1.47,2.85,5.53,4.28,11.61,4.1l9.79-.3L71.24,554c-2.91-1-3.82-3.19-2.6-6.26Z"/><path class="cls-3" d="M78.76,528.62h0l-4.85.87-.67,14.94,4.75,1.3h0c1.44.35,3-.39,4.18-2.27a13.46,13.46,0,0,0,.55-12.18C81.69,529.29,80.22,528.41,78.76,528.62Z"/><ellipse class="cls-19" cx="74.16" cy="536.99" rx="7.55" ry="4.36" transform="translate(-465.61 586.94) rotate(-87.42)"/><path class="cls-20" d="M78,545.72c1.44.35,3-.39,4.18-2.27a13.46,13.46,0,0,0,.55-12.18c-1-2-2.5-2.86-4-2.65l-1.39.25c1.33-.24,2.71.56,3.66,2.41a13.29,13.29,0,0,1-.54,12c-1.11,1.74-2.55,2.42-3.85,2.07Z"/><path class="cls-20" d="M75,544.91c1.28.36,2.68-.3,3.77-2a12.62,12.62,0,0,0,.51-11.41c-.92-1.78-2.25-2.56-3.55-2.34l-1.82.33c1.32-.25,2.65.53,3.57,2.3A11.79,11.79,0,0,1,77,542.45c-1.08,1.69-2.47,2.34-3.76,2Z"/><path class="cls-21" d="M73.83,531.38l-.06,1.13c1.64-.3,6-1.1,7-1.18,1.23-.11,3.16,2.69,2.46,9.79a13.69,13.69,0,0,0-.53-9.85,6,6,0,0,0-1.36-1.8Z"/><ellipse class="cls-19" cx="74.16" cy="536.99" rx="7.55" ry="4.36" transform="translate(-465.61 586.94) rotate(-87.42)"/><path class="cls-3" d="M39.5,520.38c-18.6-.84-35,6.3-39,12l-.11.15,0,0h0A2.28,2.28,0,0,0,0,533.65a2.2,2.2,0,0,0,.26,1.14h0v0c0,.06.07.11.1.16,3.46,6,19.18,14.59,37.77,15.43a125.5,125.5,0,0,0,35.48-3.91l.12,0h0a5.62,5.62,0,0,0,3-2.51,15.13,15.13,0,0,0,.62-13.69,5.51,5.51,0,0,0-2.83-2.81A125.33,125.33,0,0,0,39.5,520.38Z"/><path class="cls-2" d="M5.15,528.28a16.3,16.3,0,0,0-4.66,4.07l-.11.15,0,0h0A2.28,2.28,0,0,0,0,533.65a2.2,2.2,0,0,0,.26,1.14h0a0,0,0,0,1,0,0c0,.06.06.11.1.16a16.38,16.38,0,0,0,4.28,4.48,37.13,37.13,0,0,0,4.06,2.69A4.55,4.55,0,0,0,11.44,540,12.84,12.84,0,0,0,12,528.38,4.57,4.57,0,0,0,9.44,526,36.14,36.14,0,0,0,5.15,528.28Z"/><path class="cls-22" d="M38.14,550.41a125.5,125.5,0,0,0,35.48-3.91l.12,0h0a5.62,5.62,0,0,0,3-2.51,11.39,11.39,0,0,0,1-2.07,154.76,154.76,0,0,1-38.89,3.58c-20.61-.92-35-6.65-38.45-10.49C3.83,541,19.55,549.57,38.14,550.41Z"/><path class="cls-23" d="M39.5,520.38a125.23,125.23,0,0,1,35,7.08l.11,0h0a5.61,5.61,0,0,1,2.72,2.77c-10.24-3.3-22.55-7.1-37.46-7.77-20.6-.93-35.56,6.35-39.36,9.85C4.47,526.68,20.9,519.54,39.5,520.38Z"/><path class="cls-20" d="M65.81,519.66l-10.27,5,.77,1.47L72,529.32l2-2.27a17.57,17.57,0,0,1,10.23-5.69l7.28-1.23s-4.55-.9-10.06-1.9C76.48,517.34,70.74,517.1,65.81,519.66Z"/><path class="cls-2" d="M72,529.32l-15.64-3.21,10.26-5c4.94-2.56,10.51-2.85,16-2.14l8.87,1.14-7.28,1.23A17.57,17.57,0,0,0,74,527.05Z"/><path class="cls-20" d="M64.28,553.5l-9.77-5.88.89-1.4,15.87-1.79,1.8,2.44a17.61,17.61,0,0,0,9.68,6.59l7.13,1.88s-4.61.48-10.18,1C74.7,556.77,69,556.49,64.28,553.5Z"/><path class="cls-2" d="M71.27,544.43,55.4,546.22l9.78,5.88c4.69,3,10.21,3.78,15.76,3.57l8.94-.33-7.13-1.88a17.61,17.61,0,0,1-9.68-6.59Z"/><circle class="cls-2" cx="28.91" cy="534.95" r="6.58" transform="translate(-505.37 495.58) rotate(-82.69)"/><circle class="cls-11" cx="28.91" cy="534.95" r="5.23"/><circle class="cls-24" cx="28.91" cy="534.95" r="5.23"/><path class="cls-2" d="M44.88,531a4.69,4.69,0,1,1-4.9,4.48A4.69,4.69,0,0,1,44.88,531Z"/><circle class="cls-11" cx="44.67" cy="535.66" r="3.41" transform="translate(-482.81 432.25) rotate(-74.14)"/><circle class="cls-24" cx="44.67" cy="535.66" r="3.41" transform="translate(-482.81 432.25) rotate(-74.14)"/></g></g></g></svg>