<svg xmlns="http://www.w3.org/2000/svg" xmlns:xlink="http://www.w3.org/1999/xlink" viewBox="0 0 235.87 60.56"><defs><style>.cls-1{fill:#fff;}.cls-2{fill:url(#linear-gradient);}.cls-3{opacity:0.5;fill:url(#linear-gradient-2);}.cls-4{fill:url(#linear-gradient-3);}</style><linearGradient id="linear-gradient" x1="518.77" y1="30.28" x2="721.69" y2="30.28" gradientTransform="matrix(1, 0, -0.18, 1, -486.87, 0)" gradientUnits="userSpaceOnUse"><stop offset="0" stop-color="#6a0070"/><stop offset="1" stop-color="#ba00ba"/></linearGradient><linearGradient id="linear-gradient-2" x1="220.66" y1="9.01" x2="170.41" y2="50.32" gradientUnits="userSpaceOnUse"><stop offset="0" stop-color="#fff"/><stop offset="1" stop-color="#fff" stop-opacity="0"/></linearGradient><linearGradient id="linear-gradient-3" x1="30.28" y1="4.38" x2="30.28" y2="52.12" gradientTransform="translate(30.28 -12.54) rotate(45)" xlink:href="#linear-gradient"/></defs><g id="Layer_2" data-name="Layer 2"><g id="Layer_1-2" data-name="Layer 1"><polygon class="cls-1" points="222.03 53.03 25.77 53.03 39.61 12.44 235.87 12.44 222.03 53.03"/><polygon class="cls-2" points="219.08 50.08 22.82 50.08 36.66 10.48 232.92 10.48 219.08 50.08"/><path class="cls-3" d="M209.83,50.24h-8.47l14.37-39.92h8.47Zm2.37-39.92h-8.47L189.36,50.24h8.47Zm-12,0h-8.47L177.36,50.24h8.47Zm-12,0h-8.47L165.36,50.24h8.48Z"/><path class="cls-1" d="M68.2,37.67a10.09,10.09,0,0,1,.25-2.2l.17-.85h3.72l-.28,1.52a5.14,5.14,0,0,0-.11,1c0,1.28.71,1.63,1.85,1.63,1.87,0,2.41-1.73,2.41-3.47,0-1.52-.64-2.94-2.16-4.71a10,10,0,0,1-3-6.66c0-4.08,2.41-7.13,6.49-7.13,3.51,0,5.31,1.6,5.31,4.57a10.53,10.53,0,0,1-.28,2.24l-.11.46H78.79L79,23a6,6,0,0,0,.1-1.06c0-1.2-.64-1.59-1.77-1.59-1.74,0-2.3,1.63-2.3,3.22,0,1.42.63,2.84,2.16,4.61,2,2.3,2.94,4.43,2.94,6.8,0,4.22-2.38,7.33-6.59,7.33C69.93,42.27,68.2,40.71,68.2,37.67Z"/><path class="cls-1" d="M94.49,17.12l-1.24,24.8h-4l.35-4.85H85.24l-1.7,4.85H79.78l9.32-24.8ZM89.84,33.7l.89-12.08L86.44,33.7Z"/><path class="cls-1" d="M100.36,17.12h4l-5.28,24.8h-4Z"/><path class="cls-1" d="M107.24,17.12h5.67c3.36,0,5,1.38,5,4.07a7.77,7.77,0,0,1-.22,1.77l-.21,1c-.57,2.73-1.45,4.32-3.54,4.79v0a3.61,3.61,0,0,1,2,3.51,7.52,7.52,0,0,1-.21,1.7l-.47,2.16c-.81,3.86-2.87,5.74-6.8,5.74H102Zm1.56,21.26c1.31,0,2.23-.75,2.62-2.59l.46-2.16a7.58,7.58,0,0,0,.17-1.31c0-1.21-.67-1.56-2-1.56h-1.67l-1.62,7.62Zm1.66-11.16c1.45,0,2.55-.78,3-2.77l.28-1.34a6.57,6.57,0,0,0,.14-1c0-1-.53-1.42-1.59-1.42h-1.81l-1.38,6.56Z"/><path class="cls-1" d="M130,17.12l-1.24,24.8h-4l.36-4.85h-4.4L119,41.92h-3.75l9.32-24.8ZM125.34,33.7l.88-12.08L121.94,33.7Z"/><path class="cls-1" d="M141.53,17.12H147l-1.24,18,6.42-18h5.59l-5.28,24.8h-3.75l4-18.78-6.91,18.78h-3.18l1.09-18.78-4,18.78h-3.47Z"/><path class="cls-1" d="M169,17.12l-1.24,24.8h-4l.35-4.85H159.7L158,41.92h-3.76l9.32-24.8ZM164.3,33.7l.89-12.08L160.9,33.7Z"/><path class="cls-1" d="M174.83,17.12h4l-5.28,24.8h-4Z"/><path class="cls-1" d="M176.77,37.67a10.09,10.09,0,0,1,.25-2.2l.18-.85h3.72l-.28,1.52a4.42,4.42,0,0,0-.11,1c0,1.28.71,1.63,1.84,1.63,1.88,0,2.41-1.73,2.41-3.47,0-1.52-.64-2.94-2.16-4.71a10.05,10.05,0,0,1-2.94-6.66c0-4.08,2.41-7.13,6.48-7.13,3.51,0,5.32,1.6,5.32,4.57a10.59,10.59,0,0,1-.29,2.24l-.1.46h-3.72l.21-1.07a6.06,6.06,0,0,0,.11-1.06c0-1.2-.64-1.59-1.78-1.59-1.73,0-2.3,1.63-2.3,3.22,0,1.42.64,2.84,2.16,4.61,1.95,2.3,2.94,4.43,2.94,6.8,0,4.22-2.37,7.33-6.59,7.33C178.51,42.27,176.77,40.71,176.77,37.67Z"/><rect class="cls-1" x="8.87" y="8.87" width="42.82" height="42.82" transform="translate(-12.54 30.28) rotate(-45)"/><rect class="cls-4" x="12.38" y="12.38" width="35.79" height="35.79" transform="translate(-12.54 30.28) rotate(-45)"/><path class="cls-1" d="M22.89,43.68a2.39,2.39,0,0,1-1.44-.47,2.43,2.43,0,0,1-1-2.39L21.63,34a.91.91,0,0,0-.27-.83l-5-4.84a2.45,2.45,0,0,1,1.35-4.19l6.87-1a.94.94,0,0,0,.7-.52l3.07-6.22a2.45,2.45,0,0,1,4.39,0l3.08,6.22a.92.92,0,0,0,.71.51l6.87,1a2.45,2.45,0,0,1,1.36,4.18l-5,4.85a1,1,0,0,0-.27.83l1.18,6.84a2.45,2.45,0,0,1-3.55,2.59L31,40.16a1,1,0,0,0-.87,0L24,43.4A2.43,2.43,0,0,1,22.89,43.68Zm7.71-5.14a2.4,2.4,0,0,1,1.14.28L37.89,42a.94.94,0,0,0,1.36-1l-1.18-6.84a2.43,2.43,0,0,1,.7-2.17l5-4.85a.94.94,0,0,0-.52-1.6l-6.87-1a2.4,2.4,0,0,1-1.84-1.34l-3.08-6.21a.94.94,0,0,0-.84-.53.91.91,0,0,0-.84.53l-3.07,6.22a2.43,2.43,0,0,1-1.84,1.35l-6.87,1a.93.93,0,0,0-.75.64.9.9,0,0,0,.23,1l5,4.84a2.46,2.46,0,0,1,.71,2.17L22,41.07a.93.93,0,0,0,.38.92.92.92,0,0,0,1,.07l6.14-3.24A2.43,2.43,0,0,1,30.6,38.54Z"/><path class="cls-1" d="M21.92,28.49A.76.76,0,0,1,21.84,27l5.44-.59,2.66-5.17a.76.76,0,0,1,1.35.69l-2.85,5.54a.74.74,0,0,1-.59.4L22,28.49Z"/><path class="cls-1" d="M35.82,37.78a.75.75,0,0,1-.74-.6l-.79-3.75a.76.76,0,1,1,1.48-.31l.79,3.75a.76.76,0,0,1-.58.9Z"/></g></g></svg>