<svg xmlns="http://www.w3.org/2000/svg" viewBox="0 0 162.11 229.99"><defs><style>.cls-1{isolation:isolate;}.cls-12,.cls-16,.cls-2,.cls-6{fill:#acd780;}.cls-11,.cls-13,.cls-14,.cls-17,.cls-20,.cls-22,.cls-3,.cls-4,.cls-5,.cls-7,.cls-8{fill:#fff;}.cls-3{opacity:0.9;}.cls-4{opacity:0.8;}.cls-5{opacity:0.3;}.cls-17,.cls-5,.cls-7{mix-blend-mode:lighten;}.cls-20,.cls-6{opacity:0.1;}.cls-11,.cls-7{opacity:0.5;}.cls-8{opacity:0.7;}.cls-9{fill:#00dfbf;}.cls-10{fill:#6c933b;}.cls-12,.cls-14{opacity:0.2;}.cls-13,.cls-17{opacity:0.6;}.cls-15{fill:#265c2e;opacity:0.05;mix-blend-mode:multiply;}.cls-16,.cls-21{opacity:0.15;}.cls-18{fill:#375a64;}.cls-19{fill:#416015;}.cls-22{opacity:0.35;}.cls-23{fill:#eaffc5;}</style></defs><g class="cls-1"><g id="Layer_2" data-name="Layer 2"><g id="Layer_1-2" data-name="Layer 1"><path class="cls-2" d="M114.54,212.09c-.7,8.25-17.57,13.54-37.69,11.83s-35.84-9.79-35.14-18,17.58-13.53,37.69-11.82S115.24,203.85,114.54,212.09Z"/><path class="cls-2" d="M114.54,212.09c-.7,8.25-17.57,13.54-37.69,11.83s-35.84-9.79-35.14-18,17.58-13.53,37.69-11.82S115.24,203.85,114.54,212.09Z"/><ellipse class="cls-3" cx="78.13" cy="208.99" rx="16.21" ry="39.54" transform="translate(-136.74 269.08) rotate(-85.13)"/><path class="cls-2" d="M42.17,192.59a16.24,16.24,0,0,1,32.35,2.76c0,.15,0,.29,0,.45a3.44,3.44,0,0,1,0,.45c-.38,2.22-2.14,4.29-5.26,5.75-6.62,3.11-16.88,2.24-22.9-1.95-2.81-2-4.2-4.3-4.19-6.56,0-.16,0-.3,0-.45S42.14,192.74,42.17,192.59Z"/><path class="cls-4" d="M42.17,192.59a16.24,16.24,0,0,1,32.35,2.76c0,.15,0,.29,0,.45a3.44,3.44,0,0,1,0,.45c-.38,2.22-2.14,4.29-5.26,5.75-6.62,3.11-16.88,2.24-22.9-1.95-2.81-2-4.2-4.3-4.19-6.56,0-.16,0-.3,0-.45S42.14,192.74,42.17,192.59Z"/><path class="cls-5" d="M52.52,179.25h0a16.22,16.22,0,0,1,22,16.1c0,.15,0,.29,0,.45a3.44,3.44,0,0,1,0,.45c-.38,2.22-2.14,4.29-5.26,5.75a21.47,21.47,0,0,1-8.34,1.84c4.26-.36,7.38-4.82,6.53-10.1C66.39,187.61,61.06,178.41,52.52,179.25Z"/><path class="cls-6" d="M42.09,193.49c0-.16,0-.3,0-.45s0-.3.06-.45a16.11,16.11,0,0,1,6.49-11.22c-1.92,1.65-6.41,8.13-2.6,13.69,2.5,3.65,15.35,9.65,26.8,4.32A11.33,11.33,0,0,1,69.18,202c-6.62,3.11-16.88,2.24-22.9-1.95C43.47,198.08,42.08,195.75,42.09,193.49Z"/><path class="cls-7" d="M59.54,181.89c-.87,1.59.33,3.91,2.68,5.19s5,1,5.82-.55-.33-3.91-2.68-5.19S60.4,180.31,59.54,181.89Z"/><path class="cls-7" d="M68.34,189.41a2.13,2.13,0,1,0,2.65-.5A1.92,1.92,0,0,0,68.34,189.41Z"/><path class="cls-2" d="M109.82,198.11a13.79,13.79,0,0,0-27.47-2.35c0,.14,0,.25,0,.39a1.62,1.62,0,0,0,0,.38c0,1.92,1.17,3.9,3.57,5.57,5.1,3.56,13.81,4.3,19.44,1.66,2.64-1.25,4.14-3,4.46-4.89,0-.13,0-.25,0-.38S109.82,198.24,109.82,198.11Z"/><path class="cls-4" d="M109.82,198.11a13.79,13.79,0,0,0-27.47-2.35c0,.14,0,.25,0,.39a1.62,1.62,0,0,0,0,.38c0,1.92,1.17,3.9,3.57,5.57,5.1,3.56,13.81,4.3,19.44,1.66,2.64-1.25,4.14-3,4.46-4.89,0-.13,0-.25,0-.38S109.82,198.24,109.82,198.11Z"/><path class="cls-5" d="M103.07,185.45h0a13.77,13.77,0,0,0-20.72,10.31c0,.14,0,.25,0,.39a1.62,1.62,0,0,0,0,.38c0,1.92,1.17,3.9,3.57,5.57a18.33,18.33,0,0,0,6.71,2.74c-3.51-.92-5.48-5.09-4-9.4C90.27,190.45,96.05,183.53,103.07,185.45Z"/><path class="cls-6" d="M109.76,198.87c0-.13,0-.25,0-.38s0-.25,0-.38A13.72,13.72,0,0,0,106,187.78c1.36,1.66,4.18,7.73.2,11.83-2.62,2.7-14.24,5.88-23-.23a9.51,9.51,0,0,0,2.7,2.72c5.1,3.56,13.81,4.3,19.44,1.66C107.94,202.51,109.44,200.76,109.76,198.87Z"/><path class="cls-7" d="M96.82,186.66c.5,1.45-.84,3.22-3,4s-4.3.15-4.79-1.31.84-3.22,3-4S96.33,185.2,96.82,186.66Z"/><path class="cls-7" d="M88.38,191.68a1.81,1.81,0,1,1-2.15-.8A1.64,1.64,0,0,1,88.38,191.68Z"/><path class="cls-2" d="M123.1,200.83a9.12,9.12,0,0,0-18.16-1.54,1.9,1.9,0,0,0,0,.25,2,2,0,0,0,0,.25,4.71,4.71,0,0,0,2.37,3.69,14.26,14.26,0,0,0,12.86,1.09,4.68,4.68,0,0,0,2.94-3.23,2.13,2.13,0,0,0,0-.25A2.26,2.26,0,0,0,123.1,200.83Z"/><path class="cls-3" d="M123.1,200.83a9.12,9.12,0,0,0-18.16-1.54,1.9,1.9,0,0,0,0,.25,2,2,0,0,0,0,.25,4.71,4.71,0,0,0,2.37,3.69,14.26,14.26,0,0,0,12.86,1.09,4.68,4.68,0,0,0,2.94-3.23,2.13,2.13,0,0,0,0-.25A2.26,2.26,0,0,0,123.1,200.83Z"/><path class="cls-7" d="M118.64,192.47h0a9.09,9.09,0,0,0-13.7,6.82,1.9,1.9,0,0,0,0,.25,2,2,0,0,0,0,.25,4.71,4.71,0,0,0,2.37,3.69,12.18,12.18,0,0,0,4.44,1.81c-2.33-.61-3.63-3.37-2.66-6.22C110.17,195.77,114,191.19,118.64,192.47Z"/><path class="cls-6" d="M123.06,201.34a2.13,2.13,0,0,0,0-.25,2.26,2.26,0,0,0,0-.26,9,9,0,0,0-2.52-6.82c.9,1.09,2.77,5.11.14,7.82-1.74,1.78-9.42,3.89-15.25-.15a6.35,6.35,0,0,0,1.79,1.8,14.26,14.26,0,0,0,12.86,1.09A4.68,4.68,0,0,0,123.06,201.34Z"/><path class="cls-7" d="M114.51,193.26c.33,1-.56,2.14-2,2.62s-2.84.1-3.17-.86.56-2.13,2-2.62S114.18,192.3,114.51,193.26Z"/><path class="cls-7" d="M108.92,196.58a1.2,1.2,0,1,1-1.42-.52A1.08,1.08,0,0,1,108.92,196.58Z"/><path class="cls-2" d="M142.12,206.44a12.39,12.39,0,0,0-24.68-2.11c0,.12,0,.23,0,.35s0,.22,0,.34c0,1.72,1.05,3.5,3.21,5,4.58,3.19,12.41,3.86,17.47,1.49,2.37-1.12,3.72-2.7,4-4.39,0-.12,0-.23.05-.35S142.12,206.56,142.12,206.44Z"/><path class="cls-8" d="M142.12,206.44a12.39,12.39,0,0,0-24.68-2.11c0,.12,0,.23,0,.35s0,.22,0,.34c0,1.72,1.05,3.5,3.21,5,4.58,3.19,12.41,3.86,17.47,1.49,2.37-1.12,3.72-2.7,4-4.39,0-.12,0-.23.05-.35S142.12,206.56,142.12,206.44Z"/><path class="cls-5" d="M136.06,195.06h0a12.38,12.38,0,0,0-18.62,9.27c0,.12,0,.23,0,.35s0,.22,0,.34c0,1.72,1.05,3.5,3.21,5a16.62,16.62,0,0,0,6,2.46c-3.16-.83-4.92-4.58-3.6-8.45C124.55,199.56,129.75,193.33,136.06,195.06Z"/><path class="cls-6" d="M142.06,207.13c0-.12,0-.23.05-.35s0-.22,0-.34a12.26,12.26,0,0,0-3.43-9.28c1.23,1.49,3.77,6.94.19,10.63-2.36,2.42-12.8,5.28-20.72-.21a8.53,8.53,0,0,0,2.43,2.45c4.58,3.19,12.41,3.86,17.47,1.49C140.43,210.4,141.78,208.82,142.06,207.13Z"/><path class="cls-7" d="M130.44,196.15c.45,1.3-.76,2.9-2.69,3.56s-3.86.13-4.31-1.18.76-2.89,2.7-3.55S130,194.84,130.44,196.15Z"/><path class="cls-7" d="M122.85,200.66a1.63,1.63,0,1,1-1.93-.72A1.47,1.47,0,0,1,122.85,200.66Z"/><path class="cls-9" d="M97.59,155.28a14.78,14.78,0,0,1-6.17,10.8,9.68,9.68,0,0,0-4.12,7l-3,35.35a3,3,0,0,1-2,2.33,7.89,7.89,0,0,1-2.29.63,10.46,10.46,0,0,1-4.13-.36,7.74,7.74,0,0,1-2.15-1,3.05,3.05,0,0,1-1.57-2.63l3-35.42a9.51,9.51,0,0,0-2.86-7.53,14.74,14.74,0,0,1-4.25-11.82,14.82,14.82,0,0,1,29.52,2.63Z"/><path class="cls-10" d="M97.59,155.28a14.78,14.78,0,0,1-6.17,10.8,9.68,9.68,0,0,0-4.12,7l-3,35.35a3,3,0,0,1-2,2.33,7.89,7.89,0,0,1-2.29.63,10.46,10.46,0,0,1-4.13-.36,7.74,7.74,0,0,1-2.15-1,3.05,3.05,0,0,1-1.57-2.63l3-35.42a9.51,9.51,0,0,0-2.86-7.53,14.74,14.74,0,0,1-4.25-11.82,14.82,14.82,0,0,1,29.52,2.63Z"/><path class="cls-9" d="M91.06,154.73a8.24,8.24,0,0,1-4,6.41,6.75,6.75,0,0,0-3.17,5.25L80.21,209A2.1,2.1,0,0,1,78,210.93h0a2.1,2.1,0,0,1-1.87-2.28l3.64-42.71a6.61,6.61,0,0,0-2.24-5.61,8.25,8.25,0,0,1-2.88-7.23,8.37,8.37,0,0,1,8.59-7.33A8.27,8.27,0,0,1,91.06,154.73Z"/><path class="cls-2" d="M91.06,154.73a8.24,8.24,0,0,1-4,6.41,6.75,6.75,0,0,0-3.17,5.25L80.21,209A2.1,2.1,0,0,1,78,210.93h0a2.1,2.1,0,0,1-1.87-2.28l3.64-42.71a6.61,6.61,0,0,0-2.24-5.61,8.25,8.25,0,0,1-2.88-7.23,8.37,8.37,0,0,1,8.59-7.33A8.27,8.27,0,0,1,91.06,154.73Z"/><circle class="cls-4" cx="89.7" cy="161.72" r="3.13"/><path class="cls-8" d="M86.82,152.14A2.36,2.36,0,1,1,89,154.69,2.36,2.36,0,0,1,86.82,152.14Z"/><path class="cls-4" d="M82.64,148a1.17,1.17,0,1,1,1.07,1.26A1.18,1.18,0,0,1,82.64,148Z"/><path class="cls-8" d="M73.22,148.61a3.17,3.17,0,1,1,2.89,3.44A3.17,3.17,0,0,1,73.22,148.61Z"/><path class="cls-4" d="M72.2,154.28a1.49,1.49,0,1,0,1.61-1.35A1.49,1.49,0,0,0,72.2,154.28Z"/><path class="cls-8" d="M71.88,160a2.89,2.89,0,1,1,2.63,3.13A2.89,2.89,0,0,1,71.88,160Z"/><path class="cls-8" d="M78.68,164.78a2,2,0,1,1,1.81,2.15A2,2,0,0,1,78.68,164.78Z"/><path class="cls-8" d="M69.67,150.68a1,1,0,0,1,1.1-.92,1,1,0,0,1-.17,2A1,1,0,0,1,69.67,150.68Z"/><path class="cls-4" d="M92,148.37a1.33,1.33,0,1,1,1.22,1.45A1.33,1.33,0,0,1,92,148.37Z"/><path class="cls-8" d="M92.79,155A1.35,1.35,0,1,1,94,156.48,1.36,1.36,0,0,1,92.79,155Z"/><path class="cls-4" d="M80.13,155.29a1.35,1.35,0,0,1,1.46-1.22,1.33,1.33,0,0,1,1.22,1.45,1.34,1.34,0,0,1-1.45,1.23A1.36,1.36,0,0,1,80.13,155.29Z"/><path class="cls-2" d="M155.88,209.76a7.55,7.55,0,0,0-15-1.28,1.52,1.52,0,0,0,0,.21c0,.07,0,.14,0,.21a3.87,3.87,0,0,0,2,3,11.8,11.8,0,0,0,10.65.91,3.9,3.9,0,0,0,2.44-2.68c0-.07,0-.13,0-.21A1.41,1.41,0,0,0,155.88,209.76Z"/><path class="cls-11" d="M155.88,209.76a7.55,7.55,0,0,0-15-1.28,1.52,1.52,0,0,0,0,.21c0,.07,0,.14,0,.21a3.87,3.87,0,0,0,2,3,11.8,11.8,0,0,0,10.65.91,3.9,3.9,0,0,0,2.44-2.68c0-.07,0-.13,0-.21A1.41,1.41,0,0,0,155.88,209.76Z"/><path class="cls-7" d="M152.18,202.83h0a7.53,7.53,0,0,0-11.34,5.65,1.52,1.52,0,0,0,0,.21c0,.07,0,.14,0,.21a3.87,3.87,0,0,0,2,3,10,10,0,0,0,3.67,1.5c-1.92-.5-3-2.79-2.19-5.14C145.17,205.57,148.34,201.78,152.18,202.83Z"/><path class="cls-12" d="M155.85,210.18c0-.07,0-.13,0-.21a1.41,1.41,0,0,0,0-.21,7.47,7.47,0,0,0-2.09-5.65c.75.91,2.3,4.23.11,6.48-1.43,1.48-7.79,3.22-12.62-.13a5.09,5.09,0,0,0,1.48,1.49,11.8,11.8,0,0,0,10.65.91A3.9,3.9,0,0,0,155.85,210.18Z"/><path class="cls-7" d="M148.76,203.49c.27.8-.46,1.77-1.64,2.17s-2.35.08-2.62-.71.46-1.77,1.64-2.17S148.49,202.7,148.76,203.49Z"/><path class="cls-7" d="M144.14,206.24a.9.9,0,0,1-.67,1.07.81.81,0,1,1-.51-1.5A.9.9,0,0,1,144.14,206.24Z"/><path class="cls-2" d="M144.08,215a10.4,10.4,0,0,0-20.72-1.77l0,.29a1.41,1.41,0,0,0,0,.29c0,1.44.88,2.94,2.69,4.2a16.29,16.29,0,0,0,14.67,1.25c2-.94,3.12-2.26,3.35-3.68a2.89,2.89,0,0,0,0-.29A2.81,2.81,0,0,0,144.08,215Z"/><path class="cls-13" d="M144.08,215a10.4,10.4,0,0,0-20.72-1.77l0,.29a1.41,1.41,0,0,0,0,.29c0,1.44.88,2.94,2.69,4.2a16.29,16.29,0,0,0,14.67,1.25c2-.94,3.12-2.26,3.35-3.68a2.89,2.89,0,0,0,0-.29A2.81,2.81,0,0,0,144.08,215Z"/><path class="cls-7" d="M139,205.45h0a10.24,10.24,0,0,0-4.41-1.41,10.4,10.4,0,0,0-11.22,9.19l0,.29a1.41,1.41,0,0,0,0,.29c0,1.44.88,2.94,2.69,4.2a14.06,14.06,0,0,0,5.06,2.07c-2.65-.7-4.13-3.85-3-7.09C129.34,209.23,133.7,204,139,205.45Z"/><path class="cls-6" d="M144,215.58a2.89,2.89,0,0,0,0-.29,2.81,2.81,0,0,0,0-.29,10.32,10.32,0,0,0-2.88-7.79c1,1.25,3.16,5.83.16,8.92-2,2-10.74,4.44-17.39-.17a7.33,7.33,0,0,0,2,2,16.29,16.29,0,0,0,14.67,1.25C142.66,218.32,143.8,217,144,215.58Z"/><path class="cls-5" d="M134.28,206.36c.37,1.1-.64,2.44-2.26,3s-3.24.11-3.61-1,.63-2.44,2.26-3S133.91,205.27,134.28,206.36Z"/><path class="cls-5" d="M127.91,210.15a1.25,1.25,0,0,1-.91,1.47,1.24,1.24,0,0,1-1.62-.61,1.22,1.22,0,0,1,.91-1.46A1.24,1.24,0,0,1,127.91,210.15Z"/><path class="cls-2" d="M125.27,218.47a12.91,12.91,0,0,0-25.71-2.19c0,.12,0,.24,0,.36s0,.23,0,.36c0,1.79,1.1,3.65,3.34,5.21,4.77,3.33,12.93,4,18.2,1.56,2.47-1.17,3.88-2.81,4.17-4.58,0-.12,0-.23,0-.36A2.11,2.11,0,0,0,125.27,218.47Z"/><path class="cls-4" d="M125.27,218.47a12.91,12.91,0,0,0-25.71-2.19c0,.12,0,.24,0,.36s0,.23,0,.36c0,1.79,1.1,3.65,3.34,5.21,4.77,3.33,12.93,4,18.2,1.56,2.47-1.17,3.88-2.81,4.17-4.58,0-.12,0-.23,0-.36A2.11,2.11,0,0,0,125.27,218.47Z"/><path class="cls-5" d="M119,206.63h0a12.9,12.9,0,0,0-19.4,9.65c0,.12,0,.24,0,.36s0,.23,0,.36c0,1.79,1.1,3.65,3.34,5.21a17.27,17.27,0,0,0,6.29,2.57c-3.29-.86-5.13-4.77-3.76-8.8C107,211.31,112.38,204.83,119,206.63Z"/><path class="cls-6" d="M125.21,219.19c0-.12,0-.23,0-.36a2.11,2.11,0,0,0,0-.36,12.82,12.82,0,0,0-3.57-9.66c1.28,1.55,3.92,7.23.19,11.07-2.45,2.53-13.32,5.5-21.58-.21a9.08,9.08,0,0,0,2.53,2.54c4.77,3.33,12.93,4,18.2,1.56C123.51,222.6,124.92,221,125.21,219.19Z"/><path class="cls-5" d="M113.11,207.76c.46,1.36-.8,3-2.81,3.7s-4,.14-4.48-1.22.79-3,2.8-3.7S112.64,206.4,113.11,207.76Z"/><path class="cls-5" d="M105.2,212.46a1.69,1.69,0,0,1-3.14,1.07,1.69,1.69,0,0,1,3.14-1.07Z"/><path class="cls-2" d="M79.46,212A10.8,10.8,0,0,0,58,210.19c0,.11,0,.2,0,.3a1.53,1.53,0,0,0,0,.3c0,1.5.91,3.06,2.79,4.37a16.94,16.94,0,0,0,15.23,1.3c2.07-1,3.24-2.35,3.49-3.83,0-.1,0-.2,0-.3S79.46,212.13,79.46,212Z"/><path class="cls-4" d="M79.46,212A10.8,10.8,0,0,0,58,210.19c0,.11,0,.2,0,.3a1.53,1.53,0,0,0,0,.3c0,1.5.91,3.06,2.79,4.37a16.94,16.94,0,0,0,15.23,1.3c2.07-1,3.24-2.35,3.49-3.83,0-.1,0-.2,0-.3S79.46,212.13,79.46,212Z"/><path class="cls-5" d="M74.17,202.12h0A10.77,10.77,0,0,0,58,210.19c0,.11,0,.2,0,.3a1.53,1.53,0,0,0,0,.3c0,1.5.91,3.06,2.79,4.37A14.57,14.57,0,0,0,66,217.3c-2.75-.72-4.29-4-3.14-7.36C64.15,206,68.68,200.61,74.17,202.12Z"/><path class="cls-6" d="M79.41,212.63c0-.1,0-.2,0-.3s0-.2,0-.3a10.72,10.72,0,0,0-3-8.09c1.07,1.3,3.28,6.05.16,9.27-2,2.11-11.15,4.6-18-.19a7.6,7.6,0,0,0,2.11,2.14,16.94,16.94,0,0,0,15.23,1.3C78,215.48,79.16,214.11,79.41,212.63Z"/><path class="cls-5" d="M69.28,203.06c.39,1.14-.66,2.53-2.35,3.1s-3.36.12-3.75-1,.66-2.53,2.35-3.1S68.89,201.92,69.28,203.06Z"/><path class="cls-5" d="M62.67,207a1.43,1.43,0,1,1-1.69-.62A1.3,1.3,0,0,1,62.67,207Z"/><path class="cls-2" d="M97.15,215.78a9.48,9.48,0,0,0-18.88-1.61,1.15,1.15,0,0,0,0,.26,2.45,2.45,0,0,0,0,.27,4.9,4.9,0,0,0,2.46,3.83A14.85,14.85,0,0,0,94,219.67c1.82-.86,2.85-2.06,3.07-3.36l0-.26C97.14,216,97.15,215.87,97.15,215.78Z"/><path class="cls-4" d="M97.15,215.78a9.48,9.48,0,0,0-18.88-1.61,1.15,1.15,0,0,0,0,.26,2.45,2.45,0,0,0,0,.27,4.9,4.9,0,0,0,2.46,3.83A14.85,14.85,0,0,0,94,219.67c1.82-.86,2.85-2.06,3.07-3.36l0-.26C97.14,216,97.15,215.87,97.15,215.78Z"/><path class="cls-5" d="M92.51,207.08h0a9.47,9.47,0,0,0-14.24,7.09,1.15,1.15,0,0,0,0,.26,2.45,2.45,0,0,0,0,.27,4.9,4.9,0,0,0,2.46,3.83,12.69,12.69,0,0,0,4.61,1.88c-2.41-.63-3.77-3.5-2.75-6.46C83.71,210.52,87.68,205.76,92.51,207.08Z"/><path class="cls-6" d="M97.11,216.31l0-.26c0-.09,0-.18,0-.27a9.44,9.44,0,0,0-2.62-7.1c.93,1.14,2.88,5.32.14,8.14-1.8,1.85-9.79,4-15.85-.16a6.71,6.71,0,0,0,1.86,1.87A14.85,14.85,0,0,0,94,219.67C95.86,218.81,96.89,217.61,97.11,216.31Z"/><path class="cls-5" d="M88.21,207.91c.35,1-.58,2.22-2.06,2.72s-3,.11-3.29-.89.58-2.22,2.06-2.73S87.87,206.91,88.21,207.91Z"/><path class="cls-5" d="M82.41,211.36a1.25,1.25,0,1,1-1.48-.55A1.13,1.13,0,0,1,82.41,211.36Z"/><path class="cls-2" d="M162.1,212.07a4.56,4.56,0,0,0-9.09-.77s0,.08,0,.12v.13a2.3,2.3,0,0,0,1.18,1.84,7.1,7.1,0,0,0,6.43.55,2.34,2.34,0,0,0,1.48-1.62.49.49,0,0,0,0-.12A.57.57,0,0,0,162.1,212.07Z"/><path class="cls-14" d="M162.1,212.07a4.56,4.56,0,0,0-9.09-.77s0,.08,0,.12v.13a2.3,2.3,0,0,0,1.18,1.84,7.1,7.1,0,0,0,6.43.55,2.34,2.34,0,0,0,1.48-1.62.49.49,0,0,0,0-.12A.57.57,0,0,0,162.1,212.07Z"/><path class="cls-7" d="M159.87,207.88h0A4.56,4.56,0,0,0,153,211.3s0,.08,0,.12v.13a2.3,2.3,0,0,0,1.18,1.84,6,6,0,0,0,2.22.91,2.31,2.31,0,0,1-1.33-3.11C155.63,209.54,157.54,207.25,159.87,207.88Z"/><path class="cls-15" d="M162.08,212.32a.49.49,0,0,0,0-.12.57.57,0,0,0,0-.13,4.54,4.54,0,0,0-1.26-3.42c.45.55,1.38,2.56.06,3.92-.86.89-4.71,1.94-7.63-.08a3.2,3.2,0,0,0,.9.9,7.1,7.1,0,0,0,6.43.55A2.34,2.34,0,0,0,162.08,212.32Z"/><path class="cls-5" d="M157.8,208.28c.16.48-.28,1.07-1,1.31s-1.43,0-1.59-.43.28-1.07,1-1.31S157.63,207.8,157.8,208.28Z"/><path class="cls-5" d="M155,209.94a.6.6,0,0,1-1.11.38.6.6,0,0,1,1.11-.38Z"/><path class="cls-2" d="M6.54,193.17a7.56,7.56,0,0,1,15.05,1.28c0,.07,0,.14,0,.21l0,.21a3.86,3.86,0,0,1-2.45,2.67,11.81,11.81,0,0,1-10.64-.9,3.92,3.92,0,0,1-2-3,1.36,1.36,0,0,1,0-.21A1.36,1.36,0,0,1,6.54,193.17Z"/><path class="cls-11" d="M6.54,193.17a7.56,7.56,0,0,1,15.05,1.28c0,.07,0,.14,0,.21l0,.21a3.86,3.86,0,0,1-2.45,2.67,11.81,11.81,0,0,1-10.64-.9,3.92,3.92,0,0,1-2-3,1.36,1.36,0,0,1,0-.21A1.36,1.36,0,0,1,6.54,193.17Z"/><path class="cls-7" d="M11.36,187h0a7.55,7.55,0,0,1,10.23,7.49c0,.07,0,.14,0,.21l0,.21a3.86,3.86,0,0,1-2.45,2.67,10,10,0,0,1-3.87.86c2-.17,3.43-2.24,3-4.7C17.81,190.85,15.33,186.57,11.36,187Z"/><path class="cls-12" d="M6.5,193.59a1.36,1.36,0,0,1,0-.21,1.36,1.36,0,0,1,0-.21,7.49,7.49,0,0,1,3-5.22c-.89.77-3,3.78-1.21,6.36,1.17,1.7,7.14,4.5,12.47,2a5.15,5.15,0,0,1-1.72,1.21,11.81,11.81,0,0,1-10.64-.9A3.92,3.92,0,0,1,6.5,193.59Z"/><path class="cls-5" d="M14.62,188.19c-.4.74.16,1.82,1.25,2.42s2.3.48,2.71-.26-.16-1.82-1.25-2.42S15,187.45,14.62,188.19Z"/><path class="cls-5" d="M18.71,191.69a1,1,0,1,0,1.24-.24A.9.9,0,0,0,18.71,191.69Z"/><path class="cls-2" d="M22.43,197.41a11,11,0,0,1,21.83,1.87c0,.1,0,.2,0,.3a2.72,2.72,0,0,1,0,.3c-.25,1.51-1.44,2.9-3.54,3.89a17.19,17.19,0,0,1-15.45-1.32c-1.9-1.33-2.84-2.9-2.83-4.43,0-.1,0-.2,0-.3A1.63,1.63,0,0,1,22.43,197.41Z"/><path class="cls-8" d="M22.43,197.41a11,11,0,0,1,21.83,1.87c0,.1,0,.2,0,.3a2.72,2.72,0,0,1,0,.3c-.25,1.51-1.44,2.9-3.54,3.89a17.19,17.19,0,0,1-15.45-1.32c-1.9-1.33-2.84-2.9-2.83-4.43,0-.1,0-.2,0-.3A1.63,1.63,0,0,1,22.43,197.41Z"/><path class="cls-5" d="M29.42,188.41h0a10.82,10.82,0,0,1,4.83-.68,11,11,0,0,1,10,11.55c0,.1,0,.2,0,.3a2.72,2.72,0,0,1,0,.3c-.25,1.51-1.44,2.9-3.54,3.89A14.75,14.75,0,0,1,35,205c2.88-.25,5-3.25,4.41-6.82C38.77,194.05,35.18,187.85,29.42,188.41Z"/><path class="cls-6" d="M22.38,198c0-.1,0-.2,0-.3a1.63,1.63,0,0,1,0-.31,10.91,10.91,0,0,1,4.38-7.57c-1.29,1.12-4.32,5.49-1.75,9.24,1.69,2.46,10.36,6.52,18.08,2.92a7.71,7.71,0,0,1-2.48,1.77,17.19,17.19,0,0,1-15.45-1.32C23.31,201.12,22.37,199.55,22.38,198Z"/><path class="cls-7" d="M34.15,190.2c-.58,1.07.23,2.64,1.81,3.5s3.35.7,3.93-.37-.23-2.64-1.81-3.51S34.73,189.13,34.15,190.2Z"/><path class="cls-7" d="M40.09,195.27a1.43,1.43,0,1,0,1.79-.34A1.3,1.3,0,0,0,40.09,195.27Z"/><path class="cls-2" d="M12.27,203A10.4,10.4,0,0,1,33,204.77a2.81,2.81,0,0,1,0,.29,2.89,2.89,0,0,1,0,.29c-.23,1.42-1.37,2.74-3.36,3.68a16.3,16.3,0,0,1-14.67-1.25c-1.8-1.26-2.69-2.76-2.68-4.2a1.41,1.41,0,0,1,0-.29Z"/><path class="cls-13" d="M12.27,203A10.4,10.4,0,0,1,33,204.77a2.81,2.81,0,0,1,0,.29,2.89,2.89,0,0,1,0,.29c-.23,1.42-1.37,2.74-3.36,3.68a16.3,16.3,0,0,1-14.67-1.25c-1.8-1.26-2.69-2.76-2.68-4.2a1.41,1.41,0,0,1,0-.29Z"/><path class="cls-7" d="M18.91,194.46h0A10.39,10.39,0,0,1,33,204.77a2.81,2.81,0,0,1,0,.29,2.89,2.89,0,0,1,0,.29c-.23,1.42-1.37,2.74-3.36,3.68a13.89,13.89,0,0,1-5.34,1.18c2.73-.23,4.72-3.09,4.18-6.47C27.79,199.81,24.37,193.92,18.91,194.46Z"/><path class="cls-16" d="M12.23,203.58a1.41,1.41,0,0,1,0-.29l0-.29a10.39,10.39,0,0,1,4.16-7.19c-1.22,1.07-4.1,5.21-1.66,8.77,1.6,2.34,9.83,6.19,17.16,2.77A7.1,7.1,0,0,1,29.58,209a16.3,16.3,0,0,1-14.67-1.25C13.11,206.52,12.22,205,12.23,203.58Z"/><path class="cls-5" d="M23.4,196.15c-.55,1,.22,2.51,1.72,3.33s3.18.66,3.73-.36-.22-2.51-1.72-3.33S24,195.13,23.4,196.15Z"/><path class="cls-5" d="M29,201a1.37,1.37,0,1,0,1.69-.32A1.23,1.23,0,0,0,29,201Z"/><path class="cls-2" d="M33.87,209.42a12.91,12.91,0,0,1,25.71,2.2,2.23,2.23,0,0,1,0,.36c0,.12,0,.23,0,.35-.29,1.77-1.7,3.41-4.18,4.58-5.26,2.47-13.42,1.78-18.2-1.55-2.23-1.57-3.34-3.43-3.33-5.22,0-.12,0-.23,0-.36S33.85,209.55,33.87,209.42Z"/><path class="cls-4" d="M33.87,209.42a12.91,12.91,0,0,1,25.71,2.2,2.23,2.23,0,0,1,0,.36c0,.12,0,.23,0,.35-.29,1.77-1.7,3.41-4.18,4.58-5.26,2.47-13.42,1.78-18.2-1.55-2.23-1.57-3.34-3.43-3.33-5.22,0-.12,0-.23,0-.36S33.85,209.55,33.87,209.42Z"/><path class="cls-5" d="M42.1,198.82h0a12.89,12.89,0,0,1,17.48,12.8,2.23,2.23,0,0,1,0,.36c0,.12,0,.23,0,.35-.29,1.77-1.7,3.41-4.18,4.58a17.14,17.14,0,0,1-6.62,1.46c3.38-.29,5.86-3.83,5.19-8C53.12,205.46,48.89,198.16,42.1,198.82Z"/><path class="cls-6" d="M33.81,210.14c0-.12,0-.23,0-.36s0-.23,0-.36A12.86,12.86,0,0,1,39,200.5c-1.52,1.32-5.09,6.47-2.07,10.89,2,2.9,12.21,7.67,21.31,3.43a9,9,0,0,1-2.93,2.09c-5.26,2.47-13.42,1.78-18.2-1.55C34.91,213.79,33.8,211.93,33.81,210.14Z"/><path class="cls-5" d="M47.68,200.92c-.69,1.26.27,3.11,2.13,4.13s3.94.82,4.63-.44-.27-3.11-2.14-4.13S48.36,199.66,47.68,200.92Z"/><path class="cls-5" d="M54.67,206.89a1.7,1.7,0,0,0,2.92,1.59,1.52,1.52,0,0,0-.81-2A1.54,1.54,0,0,0,54.67,206.89Z"/><path class="cls-2" d="M102.07,223.81a11.79,11.79,0,0,0-23.48-2,3.31,3.31,0,0,0,0,.33c0,.11,0,.21,0,.32,0,1.64,1,3.33,3,4.77,4.36,3,11.8,3.67,16.62,1.41,2.25-1.06,3.53-2.56,3.8-4.17,0-.12,0-.22,0-.33S102.07,223.93,102.07,223.81Z"/><path class="cls-3" d="M102.07,223.81a11.79,11.79,0,0,0-23.48-2,3.31,3.31,0,0,0,0,.33c0,.11,0,.21,0,.32,0,1.64,1,3.33,3,4.77,4.36,3,11.8,3.67,16.62,1.41,2.25-1.06,3.53-2.56,3.8-4.17,0-.12,0-.22,0-.33S102.07,223.93,102.07,223.81Z"/><path class="cls-7" d="M96.3,213h0a11.77,11.77,0,0,0-17.71,8.81,3.31,3.31,0,0,0,0,.33c0,.11,0,.21,0,.32,0,1.64,1,3.33,3,4.77a15.78,15.78,0,0,0,5.74,2.34c-3-.79-4.69-4.36-3.43-8C85.36,217.27,90.3,211.35,96.3,213Z"/><path class="cls-6" d="M102,224.47c0-.12,0-.22,0-.33s0-.21,0-.33A11.71,11.71,0,0,0,98.81,215c1.16,1.42,3.58,6.6.17,10.11-2.24,2.3-12.17,5-19.7-.2a8.47,8.47,0,0,0,2.31,2.33c4.36,3,11.8,3.67,16.62,1.41C100.46,227.58,101.74,226.08,102,224.47Z"/><path class="cls-7" d="M91,214c.42,1.24-.72,2.75-2.56,3.38s-3.67.13-4.1-1.11.73-2.76,2.56-3.39S90.54,212.79,91,214Z"/><path class="cls-7" d="M83.74,218.32a1.55,1.55,0,1,1-1.83-.68A1.39,1.39,0,0,1,83.74,218.32Z"/><path class="cls-2" d="M52.93,220.91a11.21,11.21,0,0,1,22.33,1.9,3,3,0,0,1,0,.31,2.91,2.91,0,0,1,0,.31c-.25,1.54-1.47,3-3.63,4a17.52,17.52,0,0,1-15.8-1.34c-1.94-1.36-2.9-3-2.89-4.53,0-.11,0-.21,0-.31A2.91,2.91,0,0,1,52.93,220.91Z"/><path class="cls-3" d="M52.93,220.91a11.21,11.21,0,0,1,22.33,1.9,3,3,0,0,1,0,.31,2.91,2.91,0,0,1,0,.31c-.25,1.54-1.47,3-3.63,4a17.52,17.52,0,0,1-15.8-1.34c-1.94-1.36-2.9-3-2.89-4.53,0-.11,0-.21,0-.31A2.91,2.91,0,0,1,52.93,220.91Z"/><path class="cls-7" d="M60.08,211.7h0a11.2,11.2,0,0,1,15.18,11.11,3,3,0,0,1,0,.31,2.91,2.91,0,0,1,0,.31c-.25,1.54-1.47,3-3.63,4a14.74,14.74,0,0,1-5.75,1.27c2.94-.25,5.09-3.32,4.51-7C69.65,217.47,66,211.12,60.08,211.7Z"/><path class="cls-6" d="M52.88,221.53c0-.11,0-.21,0-.31a2.91,2.91,0,0,1,0-.31,11.17,11.17,0,0,1,4.48-7.75c-1.32,1.14-4.42,5.62-1.79,9.45,1.73,2.52,10.59,6.67,18.5,3a7.85,7.85,0,0,1-2.55,1.8,17.52,17.52,0,0,1-15.8-1.34C53.83,224.7,52.87,223.09,52.88,221.53Z"/><path class="cls-7" d="M64.92,213.52c-.6,1.1.23,2.7,1.85,3.59s3.42.71,4-.39-.23-2.7-1.85-3.58S65.52,212.43,64.92,213.52Z"/><path class="cls-7" d="M71,218.71a1.48,1.48,0,1,0,1.83-.34A1.33,1.33,0,0,0,71,218.71Z"/><path class="cls-2" d="M81.57,227.28a4.57,4.57,0,0,0-9.1-.77s0,.08,0,.12,0,.09,0,.13a2.34,2.34,0,0,0,1.19,1.84,7.1,7.1,0,0,0,6.43.55,2.33,2.33,0,0,0,1.47-1.62.5.5,0,0,0,0-.12S81.57,227.33,81.57,227.28Z"/><path class="cls-3" d="M81.57,227.28a4.57,4.57,0,0,0-9.1-.77s0,.08,0,.12,0,.09,0,.13a2.34,2.34,0,0,0,1.19,1.84,7.1,7.1,0,0,0,6.43.55,2.33,2.33,0,0,0,1.47-1.62.5.5,0,0,0,0-.12S81.57,227.33,81.57,227.28Z"/><path class="cls-17" d="M79.33,223.09h0a4.48,4.48,0,0,0-1.93-.62,4.58,4.58,0,0,0-4.93,4s0,.08,0,.12,0,.09,0,.13a2.34,2.34,0,0,0,1.19,1.84,6,6,0,0,0,2.22.91,2.3,2.3,0,0,1-1.33-3.11C75.09,224.75,77,222.46,79.33,223.09Z"/><path class="cls-6" d="M81.54,227.53a.5.5,0,0,0,0-.12s0-.08,0-.13a4.59,4.59,0,0,0-1.27-3.42c.45.55,1.39,2.56.07,3.92-.87.89-4.71,1.94-7.63-.08a3.07,3.07,0,0,0,.9.9,7.1,7.1,0,0,0,6.43.55A2.33,2.33,0,0,0,81.54,227.53Z"/><path class="cls-7" d="M77.26,223.49c.17.48-.28,1.07-1,1.31s-1.42,0-1.58-.43.28-1.07,1-1.31S77.1,223,77.26,223.49Z"/><path class="cls-7" d="M74.47,225.15a.56.56,0,0,1-.4.65.54.54,0,0,1-.71-.27.53.53,0,0,1,.4-.64A.55.55,0,0,1,74.47,225.15Z"/><path class="cls-2" d="M0,194.39a4.56,4.56,0,0,1,9.09.77v.13s0,.08,0,.13A2.33,2.33,0,0,1,7.61,197a7.1,7.1,0,0,1-6.43-.55A2.35,2.35,0,0,1,0,194.64a.62.62,0,0,1,0-.13A.49.49,0,0,1,0,194.39Z"/><path class="cls-14" d="M0,194.39a4.56,4.56,0,0,1,9.09.77v.13s0,.08,0,.13A2.33,2.33,0,0,1,7.61,197a7.1,7.1,0,0,1-6.43-.55A2.35,2.35,0,0,1,0,194.64a.62.62,0,0,1,0-.13A.49.49,0,0,1,0,194.39Z"/><path class="cls-7" d="M2.93,190.64h0a4.55,4.55,0,0,1,6.18,4.52v.13s0,.08,0,.13A2.33,2.33,0,0,1,7.61,197a6,6,0,0,1-2.34.52,2.31,2.31,0,0,0,1.84-2.84C6.83,193,5.33,190.4,2.93,190.64Z"/><path class="cls-15" d="M0,194.64a.62.62,0,0,1,0-.13.49.49,0,0,1,0-.12,4.56,4.56,0,0,1,1.83-3.16c-.54.47-1.8,2.29-.73,3.85.7,1,4.31,2.71,7.53,1.22a3.29,3.29,0,0,1-1,.73,7.1,7.1,0,0,1-6.43-.55A2.35,2.35,0,0,1,0,194.64Z"/><path class="cls-5" d="M4.9,191.38c-.24.45.1,1.1.76,1.46s1.39.29,1.63-.16-.09-1.1-.75-1.46S5.15,190.93,4.9,191.38Z"/><path class="cls-5" d="M7.38,193.49a.54.54,0,0,0,.28.7.49.49,0,1,0,.46-.84A.54.54,0,0,0,7.38,193.49Z"/><path class="cls-10" d="M100.55,122.71l5.07-30,9.55,6.65c4.58,3.2,6.13,10.51,4.44,21l-2.72,16.82-1.9-9.61c-1-5.23-4.65-7.32-10.23-5.9Z"/><path class="cls-10" d="M70.64,120.16l.08-30.44L60.18,94.66C55.12,97,52.36,104,52.25,114.58l-.17,17,3.51-9.15c1.91-5,5.82-6.42,11.08-4.08Z"/><path class="cls-2" d="M99.2,137.32h0L98,128.83,72.1,126.62l-2.6,8.17h0c-.71,2.48.49,5.22,3.67,7.44,5.55,3.86,15,4.67,21.14,1.8C97.83,142.38,99.48,139.88,99.2,137.32Z"/><ellipse class="cls-18" cx="84.98" cy="128.75" rx="7.58" ry="13.13" transform="translate(-50.53 202.48) rotate(-85.13)"/><path class="cls-19" d="M69.51,134.79c-.71,2.48.49,5.22,3.67,7.44,5.55,3.86,15,4.67,21.14,1.8,3.51-1.65,5.16-4.15,4.88-6.71l-.33-2.43c.33,2.33-1.17,4.67-4.44,6.2-6,2.83-15.38,2-20.85-1.78-3-2.06-4-4.6-3.34-6.84Z"/><path class="cls-19" d="M71.14,129.65c-.71,2.2.34,4.68,3.21,6.69,5.2,3.62,14.07,4.38,19.81,1.69,3.16-1.48,4.62-3.74,4.31-6L98,128.83c.34,2.31-1.1,4.57-4.25,6-5.37,2.51-13.65,1.81-18.51-1.58-2.86-2-3.9-4.47-3.17-6.68Z"/><path class="cls-20" d="M94.75,128.55l-2-.16c.41,2.86,1.49,10.54,1.57,12.27.09,2.15-4.91,5.31-17.2,3.59,5.43,2,12.33,2,17.16-.22a10.54,10.54,0,0,0,3.23-2.25Z"/><ellipse class="cls-18" cx="84.98" cy="128.75" rx="7.58" ry="13.13" transform="translate(-50.53 202.48) rotate(-85.13)"/><path class="cls-2" d="M116.28,69.62C119,37.34,107.77,8.27,98.18,1l-.26-.2,0,0h0A4,4,0,0,0,96,0a3.89,3.89,0,0,0-2,.37h0l-.06,0-.28.16C82.91,6.16,66.9,32.89,64.14,65.17c-2.65,31.07,3.71,59.35,4.33,62,0,.07,0,.14,0,.2h0a9.72,9.72,0,0,0,4.17,5.32c6.24,4.35,16.87,5.26,23.76,2a9.6,9.6,0,0,0,5.08-4.73C102.57,127.47,113.63,100.68,116.28,69.62Z"/><path class="cls-10" d="M104.93,9.34A28.34,28.34,0,0,0,98.18,1l-.26-.2,0,0h0A3.93,3.93,0,0,0,96,0a3.77,3.77,0,0,0-2,.36h0a.05.05,0,0,1,0,0l-.28.16a28.74,28.74,0,0,0-8.09,7.13,66.55,66.55,0,0,0-5,6.87,7.92,7.92,0,0,0,3.61,4.9c5.28,3.68,14.28,4.45,20.11,1.71A8,8,0,0,0,108.67,17,64.5,64.5,0,0,0,104.93,9.34Z"/><path class="cls-21" d="M64.14,65.17c-2.65,31.07,3.71,59.35,4.33,62,0,.07,0,.14,0,.2h0a9.72,9.72,0,0,0,4.17,5.32,19.09,19.09,0,0,0,3.52,1.91A269.21,269.21,0,0,1,72.68,66.7c3-35.78,14-60.37,20.93-66.14C82.91,6.16,66.9,32.89,64.14,65.17Z"/><path class="cls-22" d="M116.28,69.62c-2.65,31.07-13.71,57.86-14.76,60.34a1.08,1.08,0,0,1-.08.19h0a9.76,9.76,0,0,1-5,4.54c6.45-17.58,13.92-38.72,16.13-64.59C115.62,34.33,104,7.81,98.18,1,107.77,8.27,119,37.34,116.28,69.62Z"/><path class="cls-19" d="M115.69,115.43l-8-18.2-2.61,1.22-6.67,27,3.81,3.65a30.71,30.71,0,0,1,9.18,18.2L113.09,160s1.87-7.85,4-17.36C119,134.14,119.8,124.19,115.69,115.43Z"/><path class="cls-10" d="M98.46,125.43l6.67-27,7.94,18.2c4.11,8.77,4.22,18.47,2.61,28L113.09,160l-1.64-12.74a30.71,30.71,0,0,0-9.18-18.2Z"/><path class="cls-19" d="M57,110.42,67.86,93.83l2.37,1.65,2,27.71-4.37,3a30.71,30.71,0,0,0-12.13,16.38L52,154.81s-.51-8.05-1-17.79C50.53,128.3,51.41,118.36,57,110.42Z"/><path class="cls-10" d="M72.23,123.19l-2-27.71L59.32,112.07C53.78,120,52,129.56,52,139.24l0,15.57,3.77-12.28a30.71,30.71,0,0,1,12.13-16.38Z"/><circle class="cls-10" cx="91.68" cy="50.19" r="11.46" transform="translate(26.89 132.21) rotate(-80.39)"/><circle class="cls-9" cx="91.68" cy="50.19" r="9.11"/><circle class="cls-23" cx="91.68" cy="50.19" r="9.11"/><path class="cls-10" d="M97.48,78.25A8.17,8.17,0,1,1,90,69.41,8.16,8.16,0,0,1,97.48,78.25Z"/><circle class="cls-9" cx="89.34" cy="77.56" r="5.94" transform="translate(-12.19 138.28) rotate(-71.84)"/><circle class="cls-23" cx="89.34" cy="77.56" r="5.94" transform="translate(-12.19 138.28) rotate(-71.84)"/></g></g></g></svg>