<svg xmlns="http://www.w3.org/2000/svg" xmlns:xlink="http://www.w3.org/1999/xlink" viewBox="0 0 66 66"><defs><style>.cls-1{fill:#6d390c;}.cls-2{fill:url(#linear-gradient);}.cls-3{fill:url(#linear-gradient-2);}.cls-4{fill:#4c2203;}</style><linearGradient id="linear-gradient" x1="64.79" y1="-18.89" x2="-6.53" y2="97.52" gradientUnits="userSpaceOnUse"><stop offset="0.04" stop-color="#f5f22a"/><stop offset="1" stop-color="#f0d332"/></linearGradient><linearGradient id="linear-gradient-2" x1="64.79" y1="-18.89" x2="-6.53" y2="97.52" gradientUnits="userSpaceOnUse"><stop offset="0" stop-color="#d79323"/><stop offset="1" stop-color="#ce7c1d"/></linearGradient></defs><g id="Layer_2" data-name="Layer 2"><g id="Layer_1-2" data-name="Layer 1"><circle class="cls-1" cx="33" cy="33" r="33"/><circle class="cls-2" cx="33" cy="33" r="31"/><path class="cls-3" d="M34.52,2a29.5,29.5,0,1,1-3,0,31,31,0,1,0,3,0Z"/><path class="cls-4" d="M30.88,52.6,21.81,43a3,3,0,0,1,.11-4.18h0A3,3,0,0,1,26.1,39l4.77,5a3,3,0,0,0,4.3,0l4.73-5a3,3,0,0,1,4.17-.13h0A3,3,0,0,1,44.2,43l-9,9.58A3,3,0,0,1,30.88,52.6ZM33,8.48a2.95,2.95,0,1,0,3,2.95A3,3,0,0,0,33,8.48Zm0,11.81a3,3,0,1,0,3,2.95A3,3,0,0,0,33,20.29ZM33,32.1a3,3,0,1,0,3,2.95A3,3,0,0,0,33,32.1Z"/></g></g></svg>