<svg xmlns="http://www.w3.org/2000/svg" xmlns:xlink="http://www.w3.org/1999/xlink" viewBox="0 0 214.41 98.41"><defs><style>.cls-1{isolation:isolate;}.cls-2{fill:url(#Áåçûìÿííûé_ãðàäèåíò_163);}.cls-3{fill:url(#Áåçûìÿííûé_ãðàäèåíò_160);}.cls-4{fill:url(#Áåçûìÿííûé_ãðàäèåíò_169);}.cls-10,.cls-11,.cls-12,.cls-13,.cls-14,.cls-15,.cls-17,.cls-5,.cls-6,.cls-8,.cls-9{mix-blend-mode:screen;}.cls-5{fill:url(#Áåçûìÿííûé_ãðàäèåíò_155);}.cls-6{fill:url(#Áåçûìÿííûé_ãðàäèåíò_168);}.cls-7{fill:#ffffab;}.cls-8{fill:url(#Áåçûìÿííûé_ãðàäèåíò_168-2);}.cls-9{fill:url(#Áåçûìÿííûé_ãðàäèåíò_168-3);}.cls-10{fill:url(#Áåçûìÿííûé_ãðàäèåíò_168-4);}.cls-11{fill:url(#Áåçûìÿííûé_ãðàäèåíò_168-5);}.cls-12{fill:url(#Áåçûìÿííûé_ãðàäèåíò_168-6);}.cls-13{fill:url(#Áåçûìÿííûé_ãðàäèåíò_168-7);}.cls-14{fill:url(#Áåçûìÿííûé_ãðàäèåíò_168-8);}.cls-15{fill:url(#Áåçûìÿííûé_ãðàäèåíò_168-9);}.cls-16{fill:#fff;}.cls-17{fill:url(#Áåçûìÿííûé_ãðàäèåíò_172);}.cls-18{fill:#ff5200;}</style><radialGradient id="Áåçûìÿííûé_ãðàäèåíò_163" cx="2996.12" cy="392.43" r="155.2" gradientTransform="translate(-1487.14 -213.57) scale(0.53 0.78)" gradientUnits="userSpaceOnUse"><stop offset="0" stop-color="#ffbd00"/><stop offset="1" stop-color="#ff772c"/></radialGradient><linearGradient id="Áåçûìÿííûé_ãðàäèåíò_160" x1="107.22" y1="93.24" x2="107.22" y2="0.91" gradientUnits="userSpaceOnUse"><stop offset="0" stop-color="#fff300"/><stop offset="1" stop-color="#ff9700"/></linearGradient><linearGradient id="Áåçûìÿííûé_ãðàäèåíò_169" x1="107.22" y1="91.5" x2="107.22" y2="1.91" gradientUnits="userSpaceOnUse"><stop offset="0" stop-color="#fc0"/><stop offset="1" stop-color="#ff9700"/></linearGradient><linearGradient id="Áåçûìÿííûé_ãðàäèåíò_155" x1="-6855.37" y1="80.42" x2="-6662.41" y2="80.42" gradientTransform="matrix(-1, 0, 0, 1, -6651.25, 0)" gradientUnits="userSpaceOnUse"><stop offset="0" stop-color="#ff6140"/><stop offset="0.1" stop-color="#ef5b3c"/><stop offset="0.29" stop-color="#c54b31"/><stop offset="0.55" stop-color="#813120"/><stop offset="0.88" stop-color="#240e09"/><stop offset="1"/></linearGradient><radialGradient id="Áåçûìÿííûé_ãðàäèåíò_168" cx="-4028.87" cy="2259.66" r="3.72" gradientTransform="matrix(-0.06, -0.78, 1, -0.05, -2450.04, -2989.73)" gradientUnits="userSpaceOnUse"><stop offset="0" stop-color="#00b359"/><stop offset="0.13" stop-color="#009148"/><stop offset="0.34" stop-color="#005e2f"/><stop offset="0.54" stop-color="#00351a"/><stop offset="0.73" stop-color="#00180c"/><stop offset="0.89" stop-color="#000603"/><stop offset="1"/></radialGradient><radialGradient id="Áåçûìÿííûé_ãðàäèåíò_168-2" cx="-4013.22" cy="2265.66" r="3.72" xlink:href="#Áåçûìÿííûé_ãðàäèåíò_168"/><radialGradient id="Áåçûìÿííûé_ãðàäèåíò_168-3" cx="-4058.82" cy="2259.95" r="3.72" xlink:href="#Áåçûìÿííûé_ãðàäèåíò_168"/><radialGradient id="Áåçûìÿííûé_ãðàäèåíò_168-4" cx="-4010.52" cy="2245.67" r="10.42" xlink:href="#Áåçûìÿííûé_ãðàäèåíò_168"/><radialGradient id="Áåçûìÿííûé_ãðàäèåíò_168-5" cx="-4086.25" cy="2270.6" r="4.98" xlink:href="#Áåçûìÿííûé_ãðàäèåíò_168"/><radialGradient id="Áåçûìÿííûé_ãðàäèåíò_168-6" cx="-4094.24" cy="2225.71" r="2.49" xlink:href="#Áåçûìÿííûé_ãðàäèåíò_168"/><radialGradient id="Áåçûìÿííûé_ãðàäèåíò_168-7" cx="-4055.77" cy="2298.05" r="2.49" xlink:href="#Áåçûìÿííûé_ãðàäèåíò_168"/><radialGradient id="Áåçûìÿííûé_ãðàäèåíò_168-8" cx="-4092.06" cy="2261.27" r="1.86" xlink:href="#Áåçûìÿííûé_ãðàäèåíò_168"/><radialGradient id="Áåçûìÿííûé_ãðàäèåíò_168-9" cx="-4094.29" cy="2290.13" r="3.89" xlink:href="#Áåçûìÿííûé_ãðàäèåíò_168"/><linearGradient id="Áåçûìÿííûé_ãðàäèåíò_172" x1="10.94" y1="22.02" x2="210.35" y2="22.02" gradientUnits="userSpaceOnUse"><stop offset="0" stop-color="#ff9840"/><stop offset="0.1" stop-color="#ef8e3c"/><stop offset="0.29" stop-color="#c57531"/><stop offset="0.55" stop-color="#814d20"/><stop offset="0.88" stop-color="#241609"/><stop offset="1"/></linearGradient></defs><g class="cls-1"><g id="Layer_2" data-name="Layer 2"><g id="Layer_1-2" data-name="Layer 1"><path class="cls-2" d="M2.58,84c5.3,16.1,195.06,20.63,206,3.89,9.94-15.22,5.89-69.67-2.61-80.53C194.39-7.49,19,2.9,9.57,14.55.83,25.4-2.92,67.26,2.58,84Z"/><path class="cls-3" d="M3,81.11c5.28,15.52,194.28,16.63,205.18.49,9.9-14.67,6-63.17-2.46-73.64-11.54-14.27-186.56-4.25-195.9,7C1.11,25.41-2.47,65,3,81.11Z"/><path class="cls-4" d="M4.59,79.73C9.76,94.8,196,95.88,206.66,80.21c9.69-14.23,5.88-61.3-2.41-71.46C193-5.1,20.4,4.62,11.26,15.52,2.74,25.68-.77,64.12,4.59,79.73Z"/><path class="cls-5" d="M204.12,80.5s-119.58,15-193,1.76c0,0,47.67,6,68.88,0C116.05,72,194.66,69,204.12,80.5Z"/><path class="cls-6" d="M45.45,28.61c2-.09,3.82,1.12,3.94,2.72s-1.44,3-3.49,3.06S42.08,33.27,42,31.67,43.4,28.71,45.45,28.61Z"/><path class="cls-7" d="M45.9,30.69a1,1,0,0,1,1.09.75c0,.44-.4.82-1,.85a1,1,0,0,1-1.09-.75A.9.9,0,0,1,45.9,30.69Z"/><path class="cls-8" d="M50.51,16.19c2.05-.1,3.82,1.12,3.94,2.72S53,21.87,51,22,47.14,20.85,47,19.25,48.46,16.28,50.51,16.19Z"/><path class="cls-7" d="M51,18.26a1,1,0,0,1,1.09.76.9.9,0,0,1-1,.84A1,1,0,0,1,50,19.11C50,18.67,50.39,18.29,51,18.26Z"/><path class="cls-9" d="M47.53,51.83c2-.09,3.81,1.13,3.93,2.72S50,57.52,48,57.61,44.15,56.49,44,54.9,45.47,51.93,47.53,51.83Z"/><path class="cls-7" d="M48,53.91a1,1,0,0,1,1.09.75c0,.44-.4.82-1,.85A1,1,0,0,1,47,54.76C47,54.32,47.41,53.94,48,53.91Z"/><ellipse class="cls-10" cx="30.62" cy="17.91" rx="10.42" ry="8.1"/><path class="cls-7" d="M31.26,15.64c1.59-.07,2.95.87,3.05,2.1S33.19,20,31.6,20.12s-3-.87-3.05-2.11S29.67,15.71,31.26,15.64Z"/><path class="cls-11" d="M59.72,71.65c2.75-.12,5.1,1.5,5.27,3.63s-1.93,4-4.67,4.09-5.1-1.49-5.27-3.63S57,71.78,59.72,71.65Z"/><path class="cls-7" d="M60.32,74.43a1.29,1.29,0,0,1,1.46,1c0,.59-.53,1.1-1.29,1.13a1.3,1.3,0,0,1-1.46-1A1.2,1.2,0,0,1,60.32,74.43Z"/><path class="cls-12" d="M15.54,81.86a2.35,2.35,0,0,1,2.63,1.82c.08,1.07-1,2-2.33,2a2.36,2.36,0,0,1-2.64-1.82C13.12,82.84,14.17,81.93,15.54,81.86Z"/><path class="cls-7" d="M15.84,83.25a.65.65,0,0,1,.73.5c0,.3-.27.55-.65.57a.66.66,0,0,1-.73-.5C15.17,83.52,15.46,83.27,15.84,83.25Z"/><path class="cls-13" d="M85.45,48.67a2.34,2.34,0,0,1,2.64,1.81c.08,1.07-1,2-2.34,2.05a2.35,2.35,0,0,1-2.63-1.82C83,49.64,84.08,48.73,85.45,48.67Z"/><path class="cls-7" d="M85.75,50.05a.65.65,0,0,1,.73.5c0,.3-.26.55-.64.57a.65.65,0,0,1-.73-.5C85.08,50.32,85.37,50.07,85.75,50.05Z"/><path class="cls-14" d="M50.94,79a1.75,1.75,0,0,1,2,1.35c.06.8-.72,1.48-1.74,1.53a1.75,1.75,0,0,1-2-1.36C49.14,79.75,49.91,79.06,50.94,79Z"/><path class="cls-7" d="M51.16,80.05a.48.48,0,0,1,.54.38c0,.22-.19.4-.48.42a.49.49,0,0,1-.54-.38C50.66,80.25,50.88,80.06,51.16,80.05Z"/><path class="cls-15" d="M79.76,77.83c2.14-.1,4,1.17,4.11,2.84s-1.5,3.09-3.65,3.19-4-1.17-4.11-2.83S77.62,77.93,79.76,77.83Z"/><path class="cls-7" d="M80.23,80a1,1,0,0,1,1.14.78c0,.47-.42.86-1,.89a1,1,0,0,1-1.14-.79C79.18,80.42,79.63,80,80.23,80Z"/><path class="cls-16" d="M200.7,83.39c-.66-1.72,5.21-9.58,6.7-9.55s.16,5.17-.74,6.37S201,84.25,200.7,83.39Z"/><path class="cls-17" d="M10.94,15.59S159.36-10.15,204.56,9a63.12,63.12,0,0,1,5.79,18.7s-14.29,13-41.34,14.38C145.74,43.31,61.77,20.21,42.14,17.35S10.94,15.59,10.94,15.59Z"/><path class="cls-16" d="M10.94,18.36A23.54,23.54,0,0,1,22.31,10c8-2.93,20.22-1.83,21.51-1.09s-2.09,2.7-8.46,4.52S14.18,19.75,10.94,18.36Z"/><path class="cls-16" d="M11.35,19.82C9.71,20,5.63,29.88,5.87,31.5S11,28,11.8,25.27A9,9,0,0,0,11.35,19.82Z"/><path class="cls-18" d="M51.38,23c7.23,0,9.5,4.32,7,11.88l-.49,1.49h-7l.65-2c1.12-3.37.2-4.66-2.17-4.66s-4.13,1.29-5.25,4.66c-3.23,9.72,10.67,11.54,6.19,25-2.51,7.56-7.73,11.88-15,11.88S25.63,67,28.14,59.47l1-2.9h7L35,60c-1.12,3.37,0,4.59,2.32,4.59S41.58,63.32,42.7,60C45.93,50.23,32,48.4,36.5,34.9,39,27.34,44.16,23,51.38,23Z"/><path class="cls-18" d="M67.15,34.9C69.66,27.34,75.08,23,82.37,23s9.83,4.32,7.32,11.88L81.53,59.47C79,67,73.6,71.35,66.31,71.35S56.47,67,59,59.47ZM66.25,60c-1.12,3.37-.06,4.65,2.3,4.65S72.83,63.32,74,60l8.47-25.52c1.13-3.37.07-4.66-2.3-4.66s-4.27,1.29-5.39,4.66Z"/><path class="cls-18" d="M121.91,34.43l-.56,1.69c-1.61,4.86-4.13,8-7.95,9.52,3.46,1.55,3.83,5.13,2.17,10.12l-1.28,3.85c-2.42,7.29-7.57,11.2-15,11.2H87.62l15.7-47.25h11.2C122.21,23.56,124.33,27.14,121.91,34.43Zm-19.8,15.12L97.29,64.06h4.25c2.5,0,4.23-1.14,5.39-4.65l1.37-4.12c1.46-4.39.49-5.74-2.89-5.74Zm6.39-19.24L104.35,42.8h2.9c2.77,0,4.86-1.21,6.12-5l.87-2.64c1.12-3.37.47-4.86-2.17-4.86Z"/><path class="cls-18" d="M135.61,70.81c0-1.21,0-2,1.25-5.8l2.47-7.43c1.46-4.38.51-6-2.86-6H133.9l-6.39,19.23h-7.43l15.7-47.25H147c7.69,0,9.81,3.58,7.39,10.87l-1.23,3.71c-1.62,4.86-4.23,8-8.05,9.59,3.2,1.55,3.22,5.13,1.59,10.06l-2.42,7.29a14,14,0,0,0-1.1,5.73ZM141,30.31l-4.82,14.52h2.91c2.76,0,4.85-1.22,6.11-5l1.55-4.66c1.12-3.37.46-4.86-2.17-4.86Z"/><path class="cls-18" d="M168.79,43.48H179l-2.24,6.75H166.55L162,64.06h12.82l-2.24,6.75H152.28L168,23.56h20.25L186,30.31H173.16Z"/><path class="cls-16" d="M50.38,20.16c7.22,0,9.5,4.32,7,11.88l-.49,1.49h-7l.65-2c1.12-3.38.19-4.66-2.17-4.66s-4.14,1.28-5.26,4.66c-3.23,9.72,10.68,11.54,6.2,25-2.52,7.56-7.73,11.88-15,11.88s-9.64-4.32-7.13-11.88l1-2.9h7L34,57.08c-1.12,3.38,0,4.59,2.32,4.59s4.25-1.21,5.37-4.59C44.92,47.36,31,45.54,35.5,32,38,24.48,43.16,20.16,50.38,20.16Z"/><path class="cls-16" d="M66.14,32c2.51-7.56,7.93-11.88,15.22-11.88S91.2,24.48,88.69,32L80.53,56.61C78,64.17,72.6,68.49,65.31,68.49S55.47,64.17,58,56.61Zm-.89,25c-1.12,3.38-.06,4.66,2.3,4.66s4.27-1.28,5.4-4.66l8.47-25.51c1.12-3.38.06-4.66-2.3-4.66s-4.27,1.28-5.4,4.66Z"/><path class="cls-16" d="M120.91,31.57l-.56,1.69c-1.62,4.86-4.13,8-8,9.51,3.47,1.56,3.84,5.13,2.18,10.13l-1.28,3.85C110.87,64,105.72,68,98.29,68H86.61l15.7-47.25h11.21C121.21,20.7,123.33,24.28,120.91,31.57ZM101.1,46.69,96.28,61.2h4.26c2.49,0,4.22-1.15,5.39-4.66l1.37-4.11c1.46-4.39.49-5.74-2.89-5.74Zm6.39-19.24-4.14,12.49h2.9c2.77,0,4.86-1.22,6.11-5l.88-2.63c1.12-3.37.46-4.86-2.17-4.86Z"/><path class="cls-16" d="M134.61,68c0-1.22,0-2,1.25-5.81l2.47-7.42c1.45-4.39.51-6-2.87-6H132.9L126.51,68h-7.43l15.7-47.25H146c7.7,0,9.82,3.58,7.4,10.87l-1.24,3.71c-1.61,4.86-4.22,8-8,9.59,3.2,1.55,3.22,5.13,1.58,10.05l-2.42,7.29A14.21,14.21,0,0,0,142.17,68ZM140,27.45,135.14,42H138c2.77,0,4.86-1.21,6.12-5l1.54-4.66c1.12-3.37.47-4.86-2.16-4.86Z"/><path class="cls-16" d="M167.78,40.61H178l-2.24,6.75h-10.2L161,61.2h12.82L171.53,68H151.28L167,20.7h20.25L185,27.45H172.16Z"/></g></g></g></svg>