<svg xmlns="http://www.w3.org/2000/svg" viewBox="0 0 385.9 168.38"><defs><style>.cls-1{fill:#fff;}</style></defs><g id="Layer_2" data-name="Layer 2"><g id="Layer_1-2" data-name="Layer 1"><path class="cls-1" d="M383.54,167.2a1.18,1.18,0,1,1,1.18,1.18A1.17,1.17,0,0,1,383.54,167.2Z"/><path class="cls-1" d="M356.14,167.2a1.18,1.18,0,1,1,1.18,1.18A1.17,1.17,0,0,1,356.14,167.2Z"/><path class="cls-1" d="M328.75,167.2a1.18,1.18,0,1,1,1.18,1.18A1.17,1.17,0,0,1,328.75,167.2Z"/><path class="cls-1" d="M301.35,167.2a1.18,1.18,0,1,1,1.18,1.18A1.17,1.17,0,0,1,301.35,167.2Z"/><path class="cls-1" d="M274,167.2a1.18,1.18,0,1,1,1.18,1.18A1.17,1.17,0,0,1,274,167.2Z"/><path class="cls-1" d="M246.56,167.2a1.18,1.18,0,1,1,1.18,1.18A1.17,1.17,0,0,1,246.56,167.2Z"/><path class="cls-1" d="M219.16,167.2a1.18,1.18,0,1,1,1.18,1.18A1.17,1.17,0,0,1,219.16,167.2Z"/><path class="cls-1" d="M191.77,167.2a1.18,1.18,0,1,1,1.18,1.18A1.17,1.17,0,0,1,191.77,167.2Z"/><path class="cls-1" d="M164.37,167.2a1.18,1.18,0,1,1,1.18,1.18A1.17,1.17,0,0,1,164.37,167.2Z"/><path class="cls-1" d="M137,167.2a1.18,1.18,0,1,1,1.18,1.18A1.17,1.17,0,0,1,137,167.2Z"/><path class="cls-1" d="M109.58,167.2a1.18,1.18,0,1,1,1.18,1.18A1.17,1.17,0,0,1,109.58,167.2Z"/><path class="cls-1" d="M82.19,167.2a1.18,1.18,0,1,1,1.18,1.18A1.17,1.17,0,0,1,82.19,167.2Z"/><path class="cls-1" d="M54.79,167.2A1.18,1.18,0,1,1,56,168.38,1.17,1.17,0,0,1,54.79,167.2Z"/><path class="cls-1" d="M27.4,167.2a1.18,1.18,0,1,1,1.18,1.18A1.17,1.17,0,0,1,27.4,167.2Z"/><path class="cls-1" d="M0,167.2A1.17,1.17,0,0,1,1.18,166,1.18,1.18,0,1,1,0,167.2Z"/><path class="cls-1" d="M383.54,142.53a1.18,1.18,0,1,1,1.18,1.17A1.18,1.18,0,0,1,383.54,142.53Z"/><path class="cls-1" d="M356.14,142.53a1.18,1.18,0,1,1,1.18,1.17A1.18,1.18,0,0,1,356.14,142.53Z"/><path class="cls-1" d="M328.75,142.53a1.18,1.18,0,1,1,1.18,1.17A1.17,1.17,0,0,1,328.75,142.53Z"/><path class="cls-1" d="M301.35,142.53a1.18,1.18,0,1,1,1.18,1.17A1.18,1.18,0,0,1,301.35,142.53Z"/><path class="cls-1" d="M274,142.53a1.18,1.18,0,1,1,1.18,1.17A1.17,1.17,0,0,1,274,142.53Z"/><path class="cls-1" d="M246.56,142.53a1.18,1.18,0,1,1,1.18,1.17A1.18,1.18,0,0,1,246.56,142.53Z"/><path class="cls-1" d="M219.16,142.53a1.18,1.18,0,1,1,1.18,1.17A1.18,1.18,0,0,1,219.16,142.53Z"/><path class="cls-1" d="M191.77,142.53A1.18,1.18,0,1,1,193,143.7,1.18,1.18,0,0,1,191.77,142.53Z"/><path class="cls-1" d="M164.37,142.53a1.18,1.18,0,1,1,1.18,1.17A1.18,1.18,0,0,1,164.37,142.53Z"/><path class="cls-1" d="M137,142.53a1.18,1.18,0,1,1,1.18,1.17A1.18,1.18,0,0,1,137,142.53Z"/><path class="cls-1" d="M109.58,142.53a1.18,1.18,0,1,1,1.18,1.17A1.18,1.18,0,0,1,109.58,142.53Z"/><path class="cls-1" d="M82.19,142.53a1.18,1.18,0,1,1,1.18,1.17A1.17,1.17,0,0,1,82.19,142.53Z"/><path class="cls-1" d="M54.79,142.53A1.18,1.18,0,1,1,56,143.7,1.18,1.18,0,0,1,54.79,142.53Z"/><path class="cls-1" d="M27.4,142.53a1.18,1.18,0,1,1,1.18,1.17A1.17,1.17,0,0,1,27.4,142.53Z"/><path class="cls-1" d="M0,142.53a1.18,1.18,0,1,1,1.18,1.17A1.18,1.18,0,0,1,0,142.53Z"/><path class="cls-1" d="M383.54,121.21a1.18,1.18,0,1,1,1.18,1.18A1.18,1.18,0,0,1,383.54,121.21Z"/><path class="cls-1" d="M356.14,121.21a1.18,1.18,0,1,1,1.18,1.18A1.18,1.18,0,0,1,356.14,121.21Z"/><path class="cls-1" d="M328.75,121.21a1.18,1.18,0,1,1,1.18,1.18A1.18,1.18,0,0,1,328.75,121.21Z"/><path class="cls-1" d="M301.35,121.21a1.18,1.18,0,1,1,1.18,1.18A1.18,1.18,0,0,1,301.35,121.21Z"/><path class="cls-1" d="M274,121.21a1.18,1.18,0,1,1,1.18,1.18A1.18,1.18,0,0,1,274,121.21Z"/><path class="cls-1" d="M246.56,121.21a1.18,1.18,0,1,1,1.18,1.18A1.18,1.18,0,0,1,246.56,121.21Z"/><path class="cls-1" d="M219.16,121.21a1.18,1.18,0,1,1,1.18,1.18A1.18,1.18,0,0,1,219.16,121.21Z"/><circle class="cls-1" cx="192.95" cy="121.21" r="1.18"/><circle class="cls-1" cx="165.55" cy="121.21" r="1.18"/><path class="cls-1" d="M137,121.21a1.18,1.18,0,1,1,1.18,1.18A1.18,1.18,0,0,1,137,121.21Z"/><path class="cls-1" d="M109.58,121.21a1.18,1.18,0,1,1,1.18,1.18A1.18,1.18,0,0,1,109.58,121.21Z"/><path class="cls-1" d="M82.19,121.21a1.18,1.18,0,1,1,1.18,1.18A1.18,1.18,0,0,1,82.19,121.21Z"/><path class="cls-1" d="M54.79,121.21A1.18,1.18,0,1,1,56,122.39,1.18,1.18,0,0,1,54.79,121.21Z"/><path class="cls-1" d="M27.4,121.21a1.18,1.18,0,1,1,1.18,1.18A1.18,1.18,0,0,1,27.4,121.21Z"/><path class="cls-1" d="M0,121.21a1.18,1.18,0,1,1,1.18,1.18A1.18,1.18,0,0,1,0,121.21Z"/><path class="cls-1" d="M383.54,96.53a1.18,1.18,0,1,1,1.18,1.18A1.18,1.18,0,0,1,383.54,96.53Z"/><path class="cls-1" d="M356.14,96.53a1.18,1.18,0,1,1,1.18,1.18A1.18,1.18,0,0,1,356.14,96.53Z"/><path class="cls-1" d="M328.75,96.53a1.18,1.18,0,1,1,1.18,1.18A1.18,1.18,0,0,1,328.75,96.53Z"/><path class="cls-1" d="M301.35,96.53a1.18,1.18,0,1,1,1.18,1.18A1.18,1.18,0,0,1,301.35,96.53Z"/><path class="cls-1" d="M274,96.53a1.18,1.18,0,1,1,1.18,1.18A1.18,1.18,0,0,1,274,96.53Z"/><path class="cls-1" d="M246.56,96.53a1.18,1.18,0,1,1,1.18,1.18A1.18,1.18,0,0,1,246.56,96.53Z"/><path class="cls-1" d="M219.16,96.53a1.18,1.18,0,1,1,1.18,1.18A1.18,1.18,0,0,1,219.16,96.53Z"/><path class="cls-1" d="M191.77,96.53A1.18,1.18,0,1,1,193,97.71,1.18,1.18,0,0,1,191.77,96.53Z"/><path class="cls-1" d="M164.37,96.53a1.18,1.18,0,1,1,1.18,1.18A1.18,1.18,0,0,1,164.37,96.53Z"/><path class="cls-1" d="M137,96.53a1.18,1.18,0,1,1,1.18,1.18A1.18,1.18,0,0,1,137,96.53Z"/><path class="cls-1" d="M109.58,96.53a1.18,1.18,0,1,1,1.18,1.18A1.18,1.18,0,0,1,109.58,96.53Z"/><path class="cls-1" d="M82.19,96.53a1.18,1.18,0,1,1,1.18,1.18A1.18,1.18,0,0,1,82.19,96.53Z"/><path class="cls-1" d="M54.79,96.53A1.18,1.18,0,1,1,56,97.71,1.18,1.18,0,0,1,54.79,96.53Z"/><path class="cls-1" d="M27.4,96.53a1.18,1.18,0,1,1,1.18,1.18A1.18,1.18,0,0,1,27.4,96.53Z"/><path class="cls-1" d="M0,96.53a1.18,1.18,0,1,1,1.18,1.18A1.18,1.18,0,0,1,0,96.53Z"/><path class="cls-1" d="M383.54,71.85A1.18,1.18,0,1,1,384.72,73,1.18,1.18,0,0,1,383.54,71.85Z"/><path class="cls-1" d="M356.14,71.85A1.18,1.18,0,1,1,357.32,73,1.18,1.18,0,0,1,356.14,71.85Z"/><path class="cls-1" d="M328.75,71.85A1.18,1.18,0,1,1,329.93,73,1.18,1.18,0,0,1,328.75,71.85Z"/><path class="cls-1" d="M301.35,71.85A1.18,1.18,0,1,1,302.53,73,1.18,1.18,0,0,1,301.35,71.85Z"/><path class="cls-1" d="M274,71.85A1.18,1.18,0,1,1,275.14,73,1.18,1.18,0,0,1,274,71.85Z"/><path class="cls-1" d="M246.56,71.85A1.18,1.18,0,1,1,247.74,73,1.18,1.18,0,0,1,246.56,71.85Z"/><path class="cls-1" d="M219.16,71.85A1.18,1.18,0,1,1,220.34,73,1.18,1.18,0,0,1,219.16,71.85Z"/><path class="cls-1" d="M191.77,71.85A1.18,1.18,0,1,1,193,73,1.18,1.18,0,0,1,191.77,71.85Z"/><path class="cls-1" d="M164.37,71.85A1.18,1.18,0,1,1,165.55,73,1.18,1.18,0,0,1,164.37,71.85Z"/><path class="cls-1" d="M137,71.85A1.18,1.18,0,1,1,138.16,73,1.18,1.18,0,0,1,137,71.85Z"/><path class="cls-1" d="M109.58,71.85A1.18,1.18,0,1,1,110.76,73,1.18,1.18,0,0,1,109.58,71.85Z"/><path class="cls-1" d="M82.19,71.85A1.18,1.18,0,1,1,83.37,73,1.18,1.18,0,0,1,82.19,71.85Z"/><path class="cls-1" d="M54.79,71.85A1.18,1.18,0,1,1,56,73,1.18,1.18,0,0,1,54.79,71.85Z"/><path class="cls-1" d="M27.4,71.85A1.18,1.18,0,1,1,28.58,73,1.18,1.18,0,0,1,27.4,71.85Z"/><path class="cls-1" d="M0,71.85A1.18,1.18,0,1,1,1.18,73,1.18,1.18,0,0,1,0,71.85Z"/><path class="cls-1" d="M383.54,47.17a1.18,1.18,0,1,1,1.18,1.18A1.18,1.18,0,0,1,383.54,47.17Z"/><path class="cls-1" d="M356.14,47.17a1.18,1.18,0,1,1,1.18,1.18A1.18,1.18,0,0,1,356.14,47.17Z"/><path class="cls-1" d="M328.75,47.17a1.18,1.18,0,1,1,1.18,1.18A1.18,1.18,0,0,1,328.75,47.17Z"/><path class="cls-1" d="M301.35,47.17a1.18,1.18,0,1,1,1.18,1.18A1.18,1.18,0,0,1,301.35,47.17Z"/><path class="cls-1" d="M274,47.17a1.18,1.18,0,1,1,1.18,1.18A1.18,1.18,0,0,1,274,47.17Z"/><path class="cls-1" d="M246.56,47.17a1.18,1.18,0,1,1,1.18,1.18A1.18,1.18,0,0,1,246.56,47.17Z"/><path class="cls-1" d="M219.16,47.17a1.18,1.18,0,1,1,1.18,1.18A1.18,1.18,0,0,1,219.16,47.17Z"/><path class="cls-1" d="M191.77,47.17A1.18,1.18,0,1,1,193,48.35,1.18,1.18,0,0,1,191.77,47.17Z"/><path class="cls-1" d="M164.37,47.17a1.18,1.18,0,1,1,1.18,1.18A1.18,1.18,0,0,1,164.37,47.17Z"/><path class="cls-1" d="M137,47.17a1.18,1.18,0,1,1,1.18,1.18A1.18,1.18,0,0,1,137,47.17Z"/><path class="cls-1" d="M109.58,47.17a1.18,1.18,0,1,1,1.18,1.18A1.18,1.18,0,0,1,109.58,47.17Z"/><path class="cls-1" d="M82.19,47.17a1.18,1.18,0,1,1,1.18,1.18A1.18,1.18,0,0,1,82.19,47.17Z"/><path class="cls-1" d="M54.79,47.17A1.18,1.18,0,1,1,56,48.35,1.18,1.18,0,0,1,54.79,47.17Z"/><path class="cls-1" d="M27.4,47.17a1.18,1.18,0,1,1,1.18,1.18A1.18,1.18,0,0,1,27.4,47.17Z"/><path class="cls-1" d="M0,47.17a1.18,1.18,0,1,1,1.18,1.18A1.18,1.18,0,0,1,0,47.17Z"/><path class="cls-1" d="M383.54,25.86A1.18,1.18,0,1,1,384.72,27,1.18,1.18,0,0,1,383.54,25.86Z"/><path class="cls-1" d="M356.14,25.86A1.18,1.18,0,1,1,357.32,27,1.18,1.18,0,0,1,356.14,25.86Z"/><path class="cls-1" d="M328.75,25.86A1.18,1.18,0,1,1,329.93,27,1.18,1.18,0,0,1,328.75,25.86Z"/><path class="cls-1" d="M301.35,25.86A1.18,1.18,0,1,1,302.53,27,1.18,1.18,0,0,1,301.35,25.86Z"/><path class="cls-1" d="M274,25.86A1.18,1.18,0,1,1,275.14,27,1.18,1.18,0,0,1,274,25.86Z"/><path class="cls-1" d="M246.56,25.86A1.18,1.18,0,1,1,247.74,27,1.18,1.18,0,0,1,246.56,25.86Z"/><path class="cls-1" d="M219.16,25.86A1.18,1.18,0,1,1,220.34,27,1.18,1.18,0,0,1,219.16,25.86Z"/><path class="cls-1" d="M191.77,25.86A1.18,1.18,0,1,1,193,27,1.18,1.18,0,0,1,191.77,25.86Z"/><path class="cls-1" d="M164.37,25.86A1.18,1.18,0,1,1,165.55,27,1.18,1.18,0,0,1,164.37,25.86Z"/><path class="cls-1" d="M137,25.86A1.18,1.18,0,1,1,138.16,27,1.18,1.18,0,0,1,137,25.86Z"/><path class="cls-1" d="M109.58,25.86A1.18,1.18,0,1,1,110.76,27,1.18,1.18,0,0,1,109.58,25.86Z"/><path class="cls-1" d="M82.19,25.86A1.18,1.18,0,1,1,83.37,27,1.18,1.18,0,0,1,82.19,25.86Z"/><path class="cls-1" d="M54.79,25.86A1.18,1.18,0,1,1,56,27,1.18,1.18,0,0,1,54.79,25.86Z"/><path class="cls-1" d="M27.4,25.86A1.18,1.18,0,1,1,28.58,27,1.18,1.18,0,0,1,27.4,25.86Z"/><path class="cls-1" d="M0,25.86A1.18,1.18,0,1,1,1.18,27,1.18,1.18,0,0,1,0,25.86Z"/><path class="cls-1" d="M383.54,1.18a1.18,1.18,0,1,1,1.18,1.18A1.18,1.18,0,0,1,383.54,1.18Z"/><path class="cls-1" d="M356.14,1.18a1.18,1.18,0,1,1,1.18,1.18A1.18,1.18,0,0,1,356.14,1.18Z"/><path class="cls-1" d="M328.75,1.18a1.18,1.18,0,1,1,1.18,1.18A1.18,1.18,0,0,1,328.75,1.18Z"/><path class="cls-1" d="M301.35,1.18a1.18,1.18,0,1,1,1.18,1.18A1.18,1.18,0,0,1,301.35,1.18Z"/><path class="cls-1" d="M274,1.18a1.18,1.18,0,1,1,1.18,1.18A1.18,1.18,0,0,1,274,1.18Z"/><path class="cls-1" d="M246.56,1.18a1.18,1.18,0,1,1,1.18,1.18A1.18,1.18,0,0,1,246.56,1.18Z"/><path class="cls-1" d="M219.16,1.18a1.18,1.18,0,1,1,1.18,1.18A1.18,1.18,0,0,1,219.16,1.18Z"/><path class="cls-1" d="M191.77,1.18A1.18,1.18,0,1,1,193,2.36,1.18,1.18,0,0,1,191.77,1.18Z"/><path class="cls-1" d="M164.37,1.18a1.18,1.18,0,1,1,1.18,1.18A1.18,1.18,0,0,1,164.37,1.18Z"/><path class="cls-1" d="M137,1.18a1.18,1.18,0,1,1,1.18,1.18A1.18,1.18,0,0,1,137,1.18Z"/><path class="cls-1" d="M109.58,1.18a1.18,1.18,0,1,1,1.18,1.18A1.18,1.18,0,0,1,109.58,1.18Z"/><path class="cls-1" d="M82.19,1.18a1.18,1.18,0,1,1,1.18,1.18A1.18,1.18,0,0,1,82.19,1.18Z"/><path class="cls-1" d="M54.79,1.18A1.18,1.18,0,1,1,56,2.36,1.18,1.18,0,0,1,54.79,1.18Z"/><path class="cls-1" d="M27.4,1.18a1.18,1.18,0,1,1,1.18,1.18A1.18,1.18,0,0,1,27.4,1.18Z"/><path class="cls-1" d="M0,1.18A1.18,1.18,0,1,1,1.18,2.36,1.18,1.18,0,0,1,0,1.18Z"/></g></g></svg>