<svg xmlns="http://www.w3.org/2000/svg" viewBox="0 0 168.38 385.9"><defs><style>.cls-1{fill:#fff;}</style></defs><g id="Layer_2" data-name="Layer 2"><g id="Layer_1-2" data-name="Layer 1"><path class="cls-1" d="M1.18,383.54A1.18,1.18,0,1,1,0,384.72,1.18,1.18,0,0,1,1.18,383.54Z"/><path class="cls-1" d="M1.18,356.14A1.18,1.18,0,1,1,0,357.32,1.18,1.18,0,0,1,1.18,356.14Z"/><path class="cls-1" d="M1.18,328.75A1.18,1.18,0,1,1,0,329.93,1.18,1.18,0,0,1,1.18,328.75Z"/><path class="cls-1" d="M1.18,301.35A1.18,1.18,0,1,1,0,302.53,1.18,1.18,0,0,1,1.18,301.35Z"/><path class="cls-1" d="M1.18,274A1.18,1.18,0,1,1,0,275.14,1.18,1.18,0,0,1,1.18,274Z"/><path class="cls-1" d="M1.18,246.56A1.18,1.18,0,1,1,0,247.74,1.18,1.18,0,0,1,1.18,246.56Z"/><path class="cls-1" d="M1.18,219.16A1.18,1.18,0,1,1,0,220.34,1.18,1.18,0,0,1,1.18,219.16Z"/><path class="cls-1" d="M1.18,191.77A1.18,1.18,0,1,1,0,193,1.18,1.18,0,0,1,1.18,191.77Z"/><path class="cls-1" d="M1.18,164.37A1.18,1.18,0,1,1,0,165.55,1.18,1.18,0,0,1,1.18,164.37Z"/><path class="cls-1" d="M1.18,137A1.18,1.18,0,1,1,0,138.16,1.18,1.18,0,0,1,1.18,137Z"/><path class="cls-1" d="M1.18,109.58A1.18,1.18,0,1,1,0,110.76,1.18,1.18,0,0,1,1.18,109.58Z"/><path class="cls-1" d="M1.18,82.19A1.18,1.18,0,1,1,0,83.37,1.18,1.18,0,0,1,1.18,82.19Z"/><path class="cls-1" d="M1.18,54.79A1.18,1.18,0,1,1,0,56,1.18,1.18,0,0,1,1.18,54.79Z"/><path class="cls-1" d="M1.18,27.4A1.18,1.18,0,1,1,0,28.58,1.18,1.18,0,0,1,1.18,27.4Z"/><path class="cls-1" d="M1.18,0A1.18,1.18,0,1,1,0,1.18,1.18,1.18,0,0,1,1.18,0Z"/><path class="cls-1" d="M25.86,383.54a1.18,1.18,0,1,1-1.18,1.18A1.18,1.18,0,0,1,25.86,383.54Z"/><path class="cls-1" d="M25.86,356.14a1.18,1.18,0,1,1-1.18,1.18A1.18,1.18,0,0,1,25.86,356.14Z"/><path class="cls-1" d="M25.86,328.75a1.18,1.18,0,1,1-1.18,1.18A1.18,1.18,0,0,1,25.86,328.75Z"/><path class="cls-1" d="M25.86,301.35a1.18,1.18,0,1,1-1.18,1.18A1.18,1.18,0,0,1,25.86,301.35Z"/><path class="cls-1" d="M25.86,274a1.18,1.18,0,1,1-1.18,1.18A1.18,1.18,0,0,1,25.86,274Z"/><path class="cls-1" d="M25.86,246.56a1.18,1.18,0,1,1-1.18,1.18A1.18,1.18,0,0,1,25.86,246.56Z"/><path class="cls-1" d="M25.86,219.16a1.18,1.18,0,1,1-1.18,1.18A1.18,1.18,0,0,1,25.86,219.16Z"/><path class="cls-1" d="M25.86,191.77A1.18,1.18,0,1,1,24.68,193,1.18,1.18,0,0,1,25.86,191.77Z"/><path class="cls-1" d="M25.86,164.37a1.18,1.18,0,1,1-1.18,1.18A1.18,1.18,0,0,1,25.86,164.37Z"/><path class="cls-1" d="M25.86,137a1.18,1.18,0,1,1-1.18,1.18A1.18,1.18,0,0,1,25.86,137Z"/><path class="cls-1" d="M25.86,109.58a1.18,1.18,0,1,1-1.18,1.18A1.18,1.18,0,0,1,25.86,109.58Z"/><path class="cls-1" d="M25.86,82.19a1.18,1.18,0,1,1-1.18,1.18A1.18,1.18,0,0,1,25.86,82.19Z"/><path class="cls-1" d="M25.86,54.79A1.18,1.18,0,1,1,24.68,56,1.18,1.18,0,0,1,25.86,54.79Z"/><path class="cls-1" d="M25.86,27.4a1.18,1.18,0,1,1-1.18,1.18A1.18,1.18,0,0,1,25.86,27.4Z"/><path class="cls-1" d="M25.86,0a1.18,1.18,0,1,1-1.18,1.18A1.18,1.18,0,0,1,25.86,0Z"/><path class="cls-1" d="M47.17,383.54A1.18,1.18,0,1,1,46,384.72,1.18,1.18,0,0,1,47.17,383.54Z"/><path class="cls-1" d="M47.17,356.14A1.18,1.18,0,1,1,46,357.32,1.18,1.18,0,0,1,47.17,356.14Z"/><path class="cls-1" d="M47.17,328.75A1.18,1.18,0,1,1,46,329.93,1.18,1.18,0,0,1,47.17,328.75Z"/><path class="cls-1" d="M47.17,301.35A1.18,1.18,0,1,1,46,302.53,1.18,1.18,0,0,1,47.17,301.35Z"/><path class="cls-1" d="M47.17,274A1.18,1.18,0,1,1,46,275.14,1.18,1.18,0,0,1,47.17,274Z"/><path class="cls-1" d="M47.17,246.56A1.18,1.18,0,1,1,46,247.74,1.18,1.18,0,0,1,47.17,246.56Z"/><path class="cls-1" d="M47.17,219.16A1.18,1.18,0,1,1,46,220.34,1.18,1.18,0,0,1,47.17,219.16Z"/><circle class="cls-1" cx="47.17" cy="192.95" r="1.18"/><circle class="cls-1" cx="47.17" cy="165.55" r="1.18"/><path class="cls-1" d="M47.17,137A1.18,1.18,0,1,1,46,138.16,1.18,1.18,0,0,1,47.17,137Z"/><path class="cls-1" d="M47.17,109.58A1.18,1.18,0,1,1,46,110.76,1.18,1.18,0,0,1,47.17,109.58Z"/><path class="cls-1" d="M47.17,82.19A1.18,1.18,0,1,1,46,83.37,1.18,1.18,0,0,1,47.17,82.19Z"/><path class="cls-1" d="M47.17,54.79A1.18,1.18,0,1,1,46,56,1.18,1.18,0,0,1,47.17,54.79Z"/><path class="cls-1" d="M47.17,27.4A1.18,1.18,0,1,1,46,28.58,1.18,1.18,0,0,1,47.17,27.4Z"/><path class="cls-1" d="M47.17,0A1.18,1.18,0,1,1,46,1.18,1.18,1.18,0,0,1,47.17,0Z"/><path class="cls-1" d="M71.85,383.54a1.18,1.18,0,1,1-1.18,1.18A1.18,1.18,0,0,1,71.85,383.54Z"/><path class="cls-1" d="M71.85,356.14a1.18,1.18,0,1,1-1.18,1.18A1.18,1.18,0,0,1,71.85,356.14Z"/><path class="cls-1" d="M71.85,328.75a1.18,1.18,0,1,1-1.18,1.18A1.18,1.18,0,0,1,71.85,328.75Z"/><path class="cls-1" d="M71.85,301.35a1.18,1.18,0,1,1-1.18,1.18A1.18,1.18,0,0,1,71.85,301.35Z"/><path class="cls-1" d="M71.85,274a1.18,1.18,0,1,1-1.18,1.18A1.18,1.18,0,0,1,71.85,274Z"/><path class="cls-1" d="M71.85,246.56a1.18,1.18,0,1,1-1.18,1.18A1.18,1.18,0,0,1,71.85,246.56Z"/><path class="cls-1" d="M71.85,219.16a1.18,1.18,0,1,1-1.18,1.18A1.18,1.18,0,0,1,71.85,219.16Z"/><path class="cls-1" d="M71.85,191.77A1.18,1.18,0,1,1,70.67,193,1.18,1.18,0,0,1,71.85,191.77Z"/><path class="cls-1" d="M71.85,164.37a1.18,1.18,0,1,1-1.18,1.18A1.18,1.18,0,0,1,71.85,164.37Z"/><path class="cls-1" d="M71.85,137a1.18,1.18,0,1,1-1.18,1.18A1.18,1.18,0,0,1,71.85,137Z"/><path class="cls-1" d="M71.85,109.58a1.18,1.18,0,1,1-1.18,1.18A1.18,1.18,0,0,1,71.85,109.58Z"/><path class="cls-1" d="M71.85,82.19a1.18,1.18,0,1,1-1.18,1.18A1.18,1.18,0,0,1,71.85,82.19Z"/><path class="cls-1" d="M71.85,54.79A1.18,1.18,0,1,1,70.67,56,1.18,1.18,0,0,1,71.85,54.79Z"/><path class="cls-1" d="M71.85,27.4a1.18,1.18,0,1,1-1.18,1.18A1.18,1.18,0,0,1,71.85,27.4Z"/><path class="cls-1" d="M71.85,0a1.18,1.18,0,1,1-1.18,1.18A1.18,1.18,0,0,1,71.85,0Z"/><path class="cls-1" d="M96.53,383.54a1.18,1.18,0,1,1-1.18,1.18A1.18,1.18,0,0,1,96.53,383.54Z"/><path class="cls-1" d="M96.53,356.14a1.18,1.18,0,1,1-1.18,1.18A1.18,1.18,0,0,1,96.53,356.14Z"/><path class="cls-1" d="M96.53,328.75a1.18,1.18,0,1,1-1.18,1.18A1.18,1.18,0,0,1,96.53,328.75Z"/><path class="cls-1" d="M96.53,301.35a1.18,1.18,0,1,1-1.18,1.18A1.18,1.18,0,0,1,96.53,301.35Z"/><path class="cls-1" d="M96.53,274a1.18,1.18,0,1,1-1.18,1.18A1.18,1.18,0,0,1,96.53,274Z"/><path class="cls-1" d="M96.53,246.56a1.18,1.18,0,1,1-1.18,1.18A1.18,1.18,0,0,1,96.53,246.56Z"/><path class="cls-1" d="M96.53,219.16a1.18,1.18,0,1,1-1.18,1.18A1.18,1.18,0,0,1,96.53,219.16Z"/><path class="cls-1" d="M96.53,191.77A1.18,1.18,0,1,1,95.35,193,1.18,1.18,0,0,1,96.53,191.77Z"/><path class="cls-1" d="M96.53,164.37a1.18,1.18,0,1,1-1.18,1.18A1.18,1.18,0,0,1,96.53,164.37Z"/><path class="cls-1" d="M96.53,137a1.18,1.18,0,1,1-1.18,1.18A1.18,1.18,0,0,1,96.53,137Z"/><path class="cls-1" d="M96.53,109.58a1.18,1.18,0,1,1-1.18,1.18A1.18,1.18,0,0,1,96.53,109.58Z"/><path class="cls-1" d="M96.53,82.19a1.18,1.18,0,1,1-1.18,1.18A1.18,1.18,0,0,1,96.53,82.19Z"/><path class="cls-1" d="M96.53,54.79A1.18,1.18,0,1,1,95.35,56,1.18,1.18,0,0,1,96.53,54.79Z"/><path class="cls-1" d="M96.53,27.4a1.18,1.18,0,1,1-1.18,1.18A1.18,1.18,0,0,1,96.53,27.4Z"/><path class="cls-1" d="M96.53,0a1.18,1.18,0,1,1-1.18,1.18A1.18,1.18,0,0,1,96.53,0Z"/><path class="cls-1" d="M121.21,383.54a1.18,1.18,0,1,1-1.18,1.18A1.18,1.18,0,0,1,121.21,383.54Z"/><path class="cls-1" d="M121.21,356.14a1.18,1.18,0,1,1-1.18,1.18A1.18,1.18,0,0,1,121.21,356.14Z"/><path class="cls-1" d="M121.21,328.75a1.18,1.18,0,1,1-1.18,1.18A1.18,1.18,0,0,1,121.21,328.75Z"/><path class="cls-1" d="M121.21,301.35a1.18,1.18,0,1,1-1.18,1.18A1.18,1.18,0,0,1,121.21,301.35Z"/><path class="cls-1" d="M121.21,274a1.18,1.18,0,1,1-1.18,1.18A1.18,1.18,0,0,1,121.21,274Z"/><path class="cls-1" d="M121.21,246.56a1.18,1.18,0,1,1-1.18,1.18A1.18,1.18,0,0,1,121.21,246.56Z"/><path class="cls-1" d="M121.21,219.16a1.18,1.18,0,1,1-1.18,1.18A1.18,1.18,0,0,1,121.21,219.16Z"/><path class="cls-1" d="M121.21,191.77A1.18,1.18,0,1,1,120,193,1.18,1.18,0,0,1,121.21,191.77Z"/><path class="cls-1" d="M121.21,164.37a1.18,1.18,0,1,1-1.18,1.18A1.18,1.18,0,0,1,121.21,164.37Z"/><path class="cls-1" d="M121.21,137a1.18,1.18,0,1,1-1.18,1.18A1.18,1.18,0,0,1,121.21,137Z"/><path class="cls-1" d="M121.21,109.58a1.18,1.18,0,1,1-1.18,1.18A1.18,1.18,0,0,1,121.21,109.58Z"/><path class="cls-1" d="M121.21,82.19A1.18,1.18,0,1,1,120,83.37,1.18,1.18,0,0,1,121.21,82.19Z"/><path class="cls-1" d="M121.21,54.79A1.18,1.18,0,1,1,120,56,1.18,1.18,0,0,1,121.21,54.79Z"/><path class="cls-1" d="M121.21,27.4A1.18,1.18,0,1,1,120,28.58,1.18,1.18,0,0,1,121.21,27.4Z"/><path class="cls-1" d="M121.21,0A1.18,1.18,0,1,1,120,1.18,1.18,1.18,0,0,1,121.21,0Z"/><path class="cls-1" d="M142.53,383.54a1.18,1.18,0,1,1-1.18,1.18A1.17,1.17,0,0,1,142.53,383.54Z"/><path class="cls-1" d="M142.53,356.14a1.18,1.18,0,1,1-1.18,1.18A1.17,1.17,0,0,1,142.53,356.14Z"/><path class="cls-1" d="M142.53,328.75a1.18,1.18,0,1,1-1.18,1.18A1.17,1.17,0,0,1,142.53,328.75Z"/><path class="cls-1" d="M142.53,301.35a1.18,1.18,0,1,1-1.18,1.18A1.17,1.17,0,0,1,142.53,301.35Z"/><path class="cls-1" d="M142.53,274a1.18,1.18,0,1,1-1.18,1.18A1.17,1.17,0,0,1,142.53,274Z"/><path class="cls-1" d="M142.53,246.56a1.18,1.18,0,1,1-1.18,1.18A1.17,1.17,0,0,1,142.53,246.56Z"/><path class="cls-1" d="M142.53,219.16a1.18,1.18,0,1,1-1.18,1.18A1.17,1.17,0,0,1,142.53,219.16Z"/><path class="cls-1" d="M142.53,191.77a1.18,1.18,0,1,1-1.18,1.18A1.17,1.17,0,0,1,142.53,191.77Z"/><path class="cls-1" d="M142.53,164.37a1.18,1.18,0,1,1-1.18,1.18A1.17,1.17,0,0,1,142.53,164.37Z"/><path class="cls-1" d="M142.53,137a1.18,1.18,0,1,1-1.18,1.18A1.17,1.17,0,0,1,142.53,137Z"/><path class="cls-1" d="M142.53,109.58a1.18,1.18,0,1,1-1.18,1.18A1.17,1.17,0,0,1,142.53,109.58Z"/><path class="cls-1" d="M142.53,82.19a1.18,1.18,0,1,1-1.18,1.18A1.17,1.17,0,0,1,142.53,82.19Z"/><path class="cls-1" d="M142.53,54.79A1.18,1.18,0,1,1,141.35,56,1.17,1.17,0,0,1,142.53,54.79Z"/><path class="cls-1" d="M142.53,27.4a1.18,1.18,0,1,1-1.18,1.18A1.17,1.17,0,0,1,142.53,27.4Z"/><path class="cls-1" d="M142.53,0a1.17,1.17,0,0,1,1.17,1.18A1.18,1.18,0,1,1,142.53,0Z"/><path class="cls-1" d="M167.2,383.54a1.18,1.18,0,1,1-1.17,1.18A1.18,1.18,0,0,1,167.2,383.54Z"/><path class="cls-1" d="M167.2,356.14a1.18,1.18,0,1,1-1.17,1.18A1.18,1.18,0,0,1,167.2,356.14Z"/><path class="cls-1" d="M167.2,328.75a1.18,1.18,0,1,1-1.17,1.18A1.17,1.17,0,0,1,167.2,328.75Z"/><path class="cls-1" d="M167.2,301.35a1.18,1.18,0,1,1-1.17,1.18A1.18,1.18,0,0,1,167.2,301.35Z"/><path class="cls-1" d="M167.2,274a1.18,1.18,0,1,1-1.17,1.18A1.17,1.17,0,0,1,167.2,274Z"/><path class="cls-1" d="M167.2,246.56a1.18,1.18,0,1,1-1.17,1.18A1.18,1.18,0,0,1,167.2,246.56Z"/><path class="cls-1" d="M167.2,219.16a1.18,1.18,0,1,1-1.17,1.18A1.18,1.18,0,0,1,167.2,219.16Z"/><path class="cls-1" d="M167.2,191.77A1.18,1.18,0,1,1,166,193,1.18,1.18,0,0,1,167.2,191.77Z"/><path class="cls-1" d="M167.2,164.37a1.18,1.18,0,1,1-1.17,1.18A1.18,1.18,0,0,1,167.2,164.37Z"/><path class="cls-1" d="M167.2,137a1.18,1.18,0,1,1-1.17,1.18A1.18,1.18,0,0,1,167.2,137Z"/><path class="cls-1" d="M167.2,109.58a1.18,1.18,0,1,1-1.17,1.18A1.18,1.18,0,0,1,167.2,109.58Z"/><path class="cls-1" d="M167.2,82.19A1.18,1.18,0,1,1,166,83.37,1.17,1.17,0,0,1,167.2,82.19Z"/><path class="cls-1" d="M167.2,54.79A1.18,1.18,0,1,1,166,56,1.18,1.18,0,0,1,167.2,54.79Z"/><path class="cls-1" d="M167.2,27.4A1.18,1.18,0,1,1,166,28.58,1.17,1.17,0,0,1,167.2,27.4Z"/><path class="cls-1" d="M167.2,0A1.18,1.18,0,1,1,166,1.18,1.18,1.18,0,0,1,167.2,0Z"/></g></g></svg>