<svg xmlns="http://www.w3.org/2000/svg" viewBox="0 0 1438 2289.54"><defs><style>.cls-1{fill:#ffe6f1;}.cls-2{fill:#ee3f4f;}.cls-3{fill:#cb364f;}.cls-4{fill:#1a1239;}.cls-5{fill:#1f1a50;}.cls-6{fill:#e72944;}.cls-7{fill:#fffafc;}.cls-8{fill:#fff;}.cls-9{fill:#d2e4f0;}.cls-10{fill:#dbd9d8;}.cls-11{fill:#585958;}.cls-12{fill:#ddb99c;}.cls-13{fill:#f2a87a;}.cls-14{fill:#7b563e;}.cls-15{fill:#f9b180;}.cls-16{fill:#f3be8e;}.cls-17{fill:#443933;}.cls-18{fill:#473227;}.cls-19{fill:#cb335f;}.cls-20{fill:#f4a779;}.cls-21{fill:#d34072;}.cls-22{fill:#cd8bb9;}.cls-23{fill:#ddddd7;}.cls-24{fill:#2460ac;}.cls-25{fill:#d6d6d3;}.cls-26{fill:#e3e4e2;}.cls-27{fill:#f4a87e;}.cls-28{fill:#f2f2f2;}.cls-29{fill:#015075;}.cls-30{fill:#3c3c3c;}.cls-31{fill:#8ebbd8;}.cls-32{fill:#005278;}.cls-33{fill:#5e4440;}.cls-34{fill:#6d0800;}</style></defs><g id="Camada_2" data-name="Camada 2"><g id="Layer_1" data-name="Layer 1"><rect class="cls-1" width="1438" height="2259.54"/><rect class="cls-2" y="2020.24" width="1438" height="269.31"/><ellipse class="cls-3" cx="1180.09" cy="2129.71" rx="120.08" ry="13.01"/><ellipse class="cls-3" cx="718.87" cy="2072.84" rx="477.72" ry="29.25"/><path class="cls-4" d="M1136.43,1568.34a28.87,28.87,0,0,0-28.86-28.86H330.17a28.86,28.86,0,0,0-28.86,28.86v426h835.12Z"/><path class="cls-5" d="M301.31,1994.33v48.39a28.87,28.87,0,0,0,28.86,28.86h777.4a28.87,28.87,0,0,0,28.86-28.86v-48.39Z"/><circle class="cls-6" cx="731.43" cy="1766.9" r="125.36"/><rect class="cls-6" x="301.31" y="1981.7" width="269.61" height="12.63"/><rect class="cls-7" x="570.91" y="1981.7" width="565.51" height="12.63"/><circle class="cls-7" cx="514.05" cy="1988.01" r="14.84"/><polygon class="cls-7" points="357.77 2030.95 357.77 2015.58 371.08 2023.27 384.39 2030.95 371.08 2038.63 357.77 2046.32 357.77 2030.95"/><rect class="cls-7" x="413.12" y="2015.58" width="5.67" height="30.73"/><rect class="cls-7" x="402.18" y="2015.58" width="5.67" height="30.73"/><rect class="cls-7" x="440.01" y="2016" width="29.9" height="29.9"/><polygon class="cls-7" points="988.24 2022.82 979.91 2022.82 979.91 2039.08 988.24 2039.08 997.96 2044.54 997.96 2017.36 988.24 2022.82"/><path class="cls-7" d="M1010.7,2030.77a13.43,13.43,0,0,0-11.35-13.25v3.2a10.26,10.26,0,0,1,0,20.1v3.2A13.43,13.43,0,0,0,1010.7,2030.77Z"/><path class="cls-7" d="M1006.56,2030.77a9.28,9.28,0,0,0-7.21-9V2025a6.1,6.1,0,0,1,0,11.5v3.28A9.28,9.28,0,0,0,1006.56,2030.77Z"/><path class="cls-8" d="M1024.43,2035l1.61,3.37,3.3-1.57a9.88,9.88,0,0,0,2.93,2.63l-1.22,3.46,3.52,1.24,1.22-3.45a9.84,9.84,0,0,0,3.94-.2l1.57,3.3,3.36-1.6-1.56-3.3a10.14,10.14,0,0,0,2.63-2.93l3.45,1.22,1.25-3.52-3.46-1.22a9.82,9.82,0,0,0-.19-3.94l3.3-1.58-1.61-3.36-3.3,1.57a9.73,9.73,0,0,0-2.93-2.63l1.22-3.46-3.52-1.25-1.22,3.46a9.65,9.65,0,0,0-3.94.2l-1.57-3.31-3.37,1.61,1.57,3.3a9.92,9.92,0,0,0-2.63,2.94l-3.46-1.23-1.24,3.52,3.46,1.22a9.65,9.65,0,0,0,.19,3.94Zm9-5.4a4.07,4.07,0,1,1,2.47,5.2A4.06,4.06,0,0,1,1033.42,2029.59Z"/><polygon class="cls-8" points="1073.22 2021.49 1077.85 2021.49 1077.85 2017.83 1069.56 2017.83 1069.56 2026.12 1073.22 2026.12 1073.22 2021.49"/><polygon class="cls-8" points="1092.14 2021.49 1092.14 2026.12 1095.8 2026.12 1095.8 2017.83 1087.51 2017.83 1087.51 2021.49 1092.14 2021.49"/><polygon class="cls-8" points="1073.22 2040.41 1073.22 2035.78 1069.56 2035.78 1069.56 2044.07 1077.85 2044.07 1077.85 2040.41 1073.22 2040.41"/><polygon class="cls-8" points="1092.14 2040.41 1087.51 2040.41 1087.51 2044.07 1095.8 2044.07 1095.8 2035.78 1092.14 2035.78 1092.14 2040.41"/><polygon class="cls-9" points="742.14 1739.42 695.85 1712.7 765.64 1780.82 789.74 1766.9 742.14 1739.42"/><polygon class="cls-7" points="694.55 1711.94 694.55 1766.9 694.55 1821.86 742.14 1794.38 765.64 1780.82 695.85 1712.7 694.55 1711.94"/><path class="cls-7" d="M622.48,1785.66a2.9,2.9,0,0,1-2.84-2.37c-.09-.52-2.28-12.92-.21-30.22,1.92-16,8-39.3,26.21-59.59a2.88,2.88,0,1,1,4.29,3.85c-32.91,36.72-24.7,84.45-24.61,84.93a2.89,2.89,0,0,1-2.32,3.35A3.15,3.15,0,0,1,622.48,1785.66Z"/><path class="cls-7" d="M653.89,1691.71a2.89,2.89,0,0,1-2.24-4.7,72.4,72.4,0,0,1,20.63-16.33,2.89,2.89,0,0,1,2.72,5.09,67.68,67.68,0,0,0-18.87,14.88A2.94,2.94,0,0,1,653.89,1691.71Z"/><path class="cls-7" d="M683.28,1670.8a2.89,2.89,0,0,1-1.4-5.41c1.15-.64,28.73-15.57,67.21-10.08a2.88,2.88,0,1,1-.82,5.71c-36.48-5.2-63.34,9.27-63.61,9.42A2.87,2.87,0,0,1,683.28,1670.8Z"/><path class="cls-7" d="M309.11,1610.22a2.89,2.89,0,0,1-2.88-2.89v-22.67a2.89,2.89,0,0,1,5.77,0v22.67A2.9,2.9,0,0,1,309.11,1610.22Z"/><path class="cls-7" d="M309.11,1577.26a2.88,2.88,0,0,1-2.88-2.88c0-24,12-29.06,22-29.06h39.49a2.89,2.89,0,1,1,0,5.77H328.28c-7,0-16.28,2.41-16.28,23.29A2.89,2.89,0,0,1,309.11,1577.26Z"/><path class="cls-7" d="M399.32,1551.09H378.76a2.89,2.89,0,1,1,0-5.77h20.56a2.89,2.89,0,1,1,0,5.77Z"/><path class="cls-10" d="M593.26,1658.55s2.32.39,2.13,4.26-11.24,6.59-19.57,4.85-23.05-9.69-23.05-9.69-.58-4.26.58-5S593.26,1658.55,593.26,1658.55Z"/><path class="cls-11" d="M556.45,1644.8h.26c-.31,2,.44,4.29,5.08,4.7,0,0,4.07-4.86,7.71-5.42l.85,0s3.34-.58,8.38,2.72,15.11,3.29,15.88,13.17c0,0-2.13,3.68-11.23,3.68s-29.44-8.72-29.44-8.72S551,1645.77,556.45,1644.8Z"/><path class="cls-12" d="M555.54,1645.88a41.32,41.32,0,0,1,1.38-5.42l.15-5.61,15.29,3.22v5.79l-1.07.06c-4.58.71-9.7,7-9.7,7C555.76,1650.38,555.16,1648.5,555.54,1645.88Z"/><path class="cls-10" d="M464,1658.55s-2.32.39-2.13,4.26,11.24,6.59,19.57,4.85,23.05-9.69,23.05-9.69.58-4.26-.58-5S464,1658.55,464,1658.55Z"/><path class="cls-11" d="M500.76,1644.8h-.25c.3,2-.45,4.29-5.09,4.7,0,0-4.06-4.86-7.71-5.42l-.85,0s-3.34-.58-8.38,2.72-15.11,3.29-15.88,13.17c0,0,2.13,3.68,11.23,3.68s29.45-8.72,29.45-8.72S506.18,1645.77,500.76,1644.8Z"/><path class="cls-12" d="M501.67,1645.88a42,42,0,0,0-1.37-5.42l-.16-5.61-15.29,3.22v5.79l1.07.06c4.58.71,9.7,7,9.7,7C501.46,1650.38,502.06,1648.5,501.67,1645.88Z"/><path class="cls-2" d="M454.61,1531.49l38.69-33.79,30.69,6.57,4.89-.54,4.89.54,24.48-9.38,44.9,36.6s14.5,7.25,8.7,21-37,88.46-37,88.46h-20.3s19.57-74.69,28.28-84.12c0,0-33-12.46-40.78-17.83a27.19,27.19,0,0,0-4.42-1.34,52.34,52.34,0,0,0-17.54,0,27.19,27.19,0,0,0-4.42,1.34c-7.81,5.37-40.77,17.83-40.77,17.83,13.24,11.81,28.27,84.12,28.27,84.12h-20.3s-31.18-74.68-37-88.46S454.61,1531.49,454.61,1531.49Z"/><path class="cls-7" d="M480.16,1401.46c7.89-5.81,34.63-8.71,34.63-8.71l31.59.59s36.45,6,39.49,13.88c1.62,4.22,8.13,20.46,13.07,35.76l-23.33,12.21-3.66-5.86-11.3,47.51-68.65,2-3.44-51.09-3.72,8-24.65-9.25C465.82,1427.26,475.35,1405,480.16,1401.46Z"/><path class="cls-13" d="M547.35,1387.61v16.7s-2.78,9.54-15.11,9.54a22.06,22.06,0,0,1-18.09-8.95v-23.06Z"/><path class="cls-14" d="M548.34,1378.66l5-2s4.38-9.76,4.38-12.13,3.38-23.25-6.36-27.63c0,0-1.2-9.94-18.49-9.34s-29.82,12.72-28.23,24,4.37,25.45,5.36,25.45S548.34,1378.66,548.34,1378.66Z"/><path class="cls-15" d="M551.33,1379.5s-.6,24-19.29,24-20.87-22.46-20.87-22.46l-1.2-23.51,27.24-9.89,14.12,9.89Z"/><path class="cls-15" d="M550.3,1372.32c-.95,3.79,0,7.29,2.14,7.83s4.63-2.11,5.58-5.9,0-7.29-2.14-7.83S551.25,1368.53,550.3,1372.32Z"/><path class="cls-15" d="M511.54,1372.32c.95,3.79,0,7.29-2.14,7.83s-4.63-2.11-5.58-5.9,0-7.29,2.14-7.83S510.59,1368.53,511.54,1372.32Z"/><path class="cls-16" d="M598.3,1443.32s8.07,32.56,7.8,39.86.88,13.86-4.22,15.29a25.32,25.32,0,0,1-15.42-.32c-6-1.79-35.22-20.14-37.25-20.15s-9.35-3.46-9.35-3.46l-16.19-13.41s-2.59-3,2.17-4.66,16.33-5.72,27.27,8.58a27.79,27.79,0,0,0,11,4.15c6.65,1,17.52,4.7,17.52,4.7s-5.17-17.62-5.54-19S591.21,1447,598.3,1443.32Z"/><rect class="cls-17" x="511.36" y="1458.79" width="38.57" height="54.39" rx="4.71"/><path class="cls-16" d="M484.84,1455.74s-8,14-9.7,18.6,27.21,20.55,32.54,19c0,0,2.4-1.9,3.68-1.9s0,4.64,0,4.64,1.92,2.72,7.61,3.47,11.32,1.38,11.78,3.28-1.87,1.69-1.87,1.69l-9.7-1-4-1.27,3.79,2.33,9.91,1.47s2.42.21,2.48,1.69-2.48,1.68-2.48,1.68l-10.33-1.9-4.4-1.47,4.26,1.79,9.56,2.17s2.61.48,2.22,1.87-2.87,1-2.87,1-8.52-1.6-9.12-1.91-3.3-1.13-3.3-1.13l3.17,1.44s8.6,1.52,8.73,2.17-.57,1.69-3.52.91-7.07-.72-7.92-1.19c0,0-8.15-1.46-10-2.94s-5.1-4.32-6.49-5.36-38.19-9.57-40.41-11.66-1-33.26,2.82-46.28Z"/><path class="cls-18" d="M1017.58,1436.59c.92-13.11,14-14.8,14-23.26s-3.9-8.48-3.81-15.47c.17-13.39,7.7-11,7.28-18.24s-2.21-34.75,22.74-31.38c0,0,10.15-9.75,25,3.36s5.08,23.68,6.77,29.17,10.57,5.08,10.57,14.38-8,11-6.35,17.76c1.31,5.23,15,11.46,13,27.64a70.4,70.4,0,0,1-89,1.72A31.35,31.35,0,0,1,1017.58,1436.59Z"/><path class="cls-5" d="M1020.65,1422.78c3.64-2.43,14.85-3.27,23.18-3.54,2.2,3.94,7.82,11.09,19.62,10.8s15.58-8,16.53-10.52l17.38,2.24c17.15-1,26.25,36.31,26.25,36.31l-16.18,33.33-6.32-40.5-6.67,52.52-5.18,9.17L1062,1542.86c-25.23,0-24.22-27.24-24.22-27.24l-.8-8c11.69-2.94,26.45-8.14,26.45-8.14v-10.21l-1.74,0-26.57.08-3.4-34.23,1,34.31,2.39-.32,1.86,18.55a54.41,54.41,0,0,1-11.27,2c-9.08,0-9.12-9.08-9.12-9.08s-4-49.45-5.05-60.55S1014.59,1426.81,1020.65,1422.78Z"/><path class="cls-19" d="M1153,1685s15.15-1,12.82,2.23-6.28,8.31-16.51,6.82-9.16-4.28-15-6.5-14.31-2.93-13.8-6.71,6.18-8.91,6.92-9.54,7.78,2.21,7.78,2.21l4.83,6.69Z"/><path class="cls-20" d="M1136.76,1668l-9-.87-.32,4.12a11,11,0,0,1,8,6.21c2.38,5.44,8.8,9.5,14.51,9.16s4.74-.9,4.74-.9-6.12-3.14-8.46-5.76-4.06-10.41-8.62-11.14"/><path class="cls-19" d="M1240.59,1610.11s13.27-7.39,12.55-3.44-2.14,10.19-12,13.2-10.11,0-16.33.51-14.19,3.44-15.34-.2,1.79-10.68,2.19-11.57,8-1.32,8-1.32l7.23,4Z"/><path class="cls-20" d="M1218.69,1601.7l-8.52,3,1.46,3.86a11,11,0,0,1,9.93,2.19c4.47,3.91,12,4.84,17,2.1s3.9-2.83,3.9-2.83-6.87-.23-10.11-1.61-8.1-7.68-12.54-6.4"/><path class="cls-21" d="M1221.79,1601.88l-12.08,4.12s-45.08-50.09-46.55-58c0,0-111.67,10-113.14-15.32s26.81-29.76,55.68-31.53,60.11,1.77,60.11,1.77,5,2.95,9.72,10.9S1221.79,1601.88,1221.79,1601.88Z"/><path class="cls-19" d="M1153.13,1537.32c14.37,6.2,7.78,20.32,7.78,20.32-11.87,40.57-19.79,113.8-19.79,113.8l-14.84-3s-2-57.39-5.94-77.18a39.05,39.05,0,0,1,7.92-32.66l-42.55-9.89S1134.22,1535.65,1153.13,1537.32Z"/><path class="cls-20" d="M1050,1419.11c.23-.22.45-.46.68-.71,6-6.8,2.27-19.91,2.27-19.91h18.58a35.19,35.19,0,0,0-1.14,10c.14,3.49,1,7.22,3.41,9.94.11.13.23.25.34.37l5.87.75c-1,2.55-4.76,10.23-16.53,10.52s-17.42-6.86-19.62-10.8C1046.19,1419.16,1048.31,1419.13,1050,1419.11Z"/><path class="cls-15" d="M1062.21,1354.7c12.46,0,22.57,12.87,22.57,28.76s-10.11,28.75-22.57,28.75-22.57-12.87-22.57-28.75S1049.74,1354.7,1062.21,1354.7Z"/><path class="cls-18" d="M1052.94,1364.65s8,12.41,31.27,12.41c0,0,1.09-24.82-22-24.82s-23.77,23.13-23.77,23.13S1042.88,1371.14,1052.94,1364.65Z"/><polygon class="cls-22" points="1063.88 1489.42 1063.78 1485.89 1032.16 1489.59 1063.88 1489.42"/><path class="cls-20" d="M1061.48,1488.67s24.4-4.76,29.63,7.48l-.6,2.85-15.57,1s-3.56-1.18-4.63-.59a6.07,6.07,0,0,1-5.71.83,20,20,0,0,1-4.59-2.53Z"/><polygon class="cls-8" points="1183.34 1448.05 1157.98 1500.08 1082.62 1500.08 1105.33 1447.94 1183.34 1448.05"/><path class="cls-23" d="M1071.69,1501.12a1.19,1.19,0,0,0,1.17,1.2h84.79a1.2,1.2,0,0,0,1.16-1.22h0a1.12,1.12,0,0,0-1.16-1.13h-84.79c-.65,0-.92,0-.92.62Z"/><path class="cls-23" d="M1125.76,1477.35c0,1.22,4,2.21,8.84,2.21s8.84-1,8.84-2.21-4-2.21-8.84-2.21S1125.76,1476.13,1125.76,1477.35Z"/><path class="cls-5" d="M1063.36,1486.65l.09,2.61.09,11.7s-14.85,3.71-26.54,6.65l-1.89-18Z"/><ellipse class="cls-3" cx="234.72" cy="2091.43" rx="94.89" ry="18.59"/><path class="cls-24" d="M1233.85,2072.42s51.61-34.87,62.62-18.35.52,47.43-73.36,71.93l-36.87-7.82H1183v-40.26Z"/><path class="cls-24" d="M1134.91,2072.42s-51.61-34.87-62.62-18.35-.52,47.43,73.36,71.93l36.87-7.82h3.22v-40.26Z"/><path class="cls-6" d="M1203.49,1954.06s39.83,6.57,43.15,15.17,25.22,63,19.91,71-17.92,22.35-43.14,24.78l-2-22.13,14-16.64v-11.66l-23.31,35.6h-61.06l-12.61-35.6-3.32,11.66,13.27,27.83-4.64,10.94s-33.19-11.51-38.5-22.79,17.26-72.93,25.89-79.28,37.83-9.52,37.83-9.52Z"/><path class="cls-13" d="M1204.56,1947.81v18.24s-3,10.43-16.51,10.43a24.12,24.12,0,0,1-19.77-9.78v-25.19Z"/><path class="cls-14" d="M1205.64,1938l5.43-2.17s4.78-10.66,4.78-13.26,3.69-25.4-6.95-30.18c0,0-1.3-10.86-20.2-10.21s-32.58,13.9-30.84,26.28,4.78,27.8,5.86,27.81S1205.64,1938,1205.64,1938Z"/><polygon class="cls-25" points="1217.43 2084.7 1226.72 2084.7 1245.31 2065.01 1127.16 2065.01 1147.74 2084.7 1217.43 2084.7"/><polygon class="cls-26" points="1185.92 2084.7 1226.72 2084.7 1245.31 2023.5 1127.16 2023.5 1147.74 2084.7 1185.92 2084.7"/><path class="cls-15" d="M1208.9,1939s-.65,26.23-21.07,26.23-22.8-24.54-22.8-24.54l-1.31-25.68,29.76-10.81L1208.9,1915Z"/><path class="cls-15" d="M1207.78,1931.1c-1,4.14,0,8,2.34,8.56s5.06-2.3,6.1-6.44,0-8-2.34-8.56S1208.81,1927,1207.78,1931.1Z"/><path class="cls-15" d="M1165.44,1931.1c1,4.14,0,8-2.34,8.56s-5.06-2.3-6.1-6.44,0-8,2.34-8.56S1164.4,1927,1165.44,1931.1Z"/><path class="cls-14" d="M1166.89,1956.68c-4.29-7.35-7-20-4.83-41.72,0,0,3.85,26.12,6.38,30.07,1.35,2.11,3.42,2,6.14,1.38a38.34,38.34,0,0,1,20.52-.3c3.35.79,5.87,1.35,7.42-1.08,2.53-4,6.38-30.07,6.38-30.07,2,19.8,0,32.07-3.49,39.63h0s-4.78,12.88-19,12.88a23.28,23.28,0,0,1-10.94-2.56,18.65,18.65,0,0,1-6.91-5.71,15.56,15.56,0,0,1-1.68-2.52Z"/><path class="cls-15" d="M1177.3,1952.12a1.5,1.5,0,0,0,1.5,1.49h12.6a1.49,1.49,0,0,0,1.49-1.49h0a1.5,1.5,0,0,0-1.49-1.5h-12.6a1.5,1.5,0,0,0-1.5,1.5Z"/><polygon class="cls-27" points="1200.05 2096.78 1200.05 2111.45 1184.07 2121.15 1173.33 2110.67 1200.05 2096.78"/><path class="cls-28" d="M1229.66,2117.19l3.4-4.56s12.74,1.75,8.73,14.83-40,6-56-1.46S1229.66,2117.19,1229.66,2117.19Z"/><path class="cls-29" d="M1183,2120.48s-1.37,4.08,2.72,5.52,22.69,7.24,27.67,7.35,26,3.78,28.18-9.32-15.34-11.48-15.34-11.48l-40.33-5.43Z"/><path class="cls-28" d="M1192.19,2124.36a.86.86,0,0,0,.41-.1c5.76-3.11,4.68-13.06,4.63-13.49a.86.86,0,0,0-1-.75.87.87,0,0,0-.75.95h0c0,.09,1,9.22-3.75,11.79a.85.85,0,0,0,.41,1.6Z"/><path class="cls-28" d="M1197.69,2125.41a.84.84,0,0,0,.64-.29,16.06,16.06,0,0,0,3.85-14.49.85.85,0,0,0-1.64.48,12.64,12.64,0,0,1,.29,4.15,14.75,14.75,0,0,1-3.78,8.73.85.85,0,0,0,.64,1.42Z"/><path class="cls-28" d="M1203.46,2128.31a.86.86,0,0,0,.71-.38c6.49-9.71,3.58-15.53,3.45-15.77a.85.85,0,0,0-1.52.78,8.24,8.24,0,0,1,.56,3.65c-.08,2.19-.83,5.78-3.91,10.39a.85.85,0,0,0,.23,1.19A.84.84,0,0,0,1203.46,2128.31Z"/><path class="cls-28" d="M1136.72,2114.9l-3.4-4.56s-12.74,1.75-8.73,14.83,40,6,56.05-1.46S1136.72,2114.9,1136.72,2114.9Z"/><path class="cls-29" d="M1183.36,2118.19s1.37,4.07-2.72,5.52-22.7,7.24-27.67,7.35-26,3.78-28.19-9.32,15.35-11.48,15.35-11.48l40.33-5.43Z"/><path class="cls-28" d="M1174.19,2122.07a.86.86,0,0,1-.41-.1c-5.77-3.11-4.68-13.07-4.63-13.49a.85.85,0,1,1,1.69.2h0c0,.09-1,9.22,3.75,11.79a.85.85,0,0,1-.4,1.6Z"/><path class="cls-28" d="M1168.69,2123.12a.87.87,0,0,1-.65-.29,16.08,16.08,0,0,1-3.84-14.49.85.85,0,0,1,1.64.48,12.64,12.64,0,0,0-.29,4.15,14.75,14.75,0,0,0,3.78,8.73.87.87,0,0,1-.08,1.21A.85.85,0,0,1,1168.69,2123.12Z"/><path class="cls-28" d="M1162.92,2126a.86.86,0,0,1-.71-.38c-6.49-9.72-3.58-15.53-3.45-15.77a.85.85,0,0,1,1.15-.36.86.86,0,0,1,.37,1.15,8,8,0,0,0-.56,3.64c.08,2.19.82,5.78,3.91,10.4a.85.85,0,0,1-.23,1.18A.84.84,0,0,1,1162.92,2126Z"/><path class="cls-27" d="M1172.28,2100.59l-4.72,16.1,18.18,4.46a7.11,7.11,0,0,0,4.62-8.52C1189.05,2106,1172.28,2100.59,1172.28,2100.59Z"/><path class="cls-24" d="M1172.28,2100.59l-4.72,16.1s-34.32-5.52-46.37-9.57,17-17.67,17-17.67Z"/><polygon class="cls-17" points="227.26 1788.32 206.02 1765.18 212.43 1752.49 238.67 1778.35 234.89 1789.29 227.26 1788.32"/><polygon class="cls-8" points="208.88 1764.39 226.8 1784.54 232.99 1775.65 213.16 1755.82 208.88 1764.39"/><path class="cls-30" d="M218.54,2094.21c5.57-1,27.57-10.84,34.91-12.64a38.24,38.24,0,0,0-.56-8.26c-2.27-14.58-19.28-4.67-19.28-4.67s-9,7.3-14.75,10.47-17.92,6.23-18.47,9.37c-.16.9-.34,1.76-.48,2.54C204.2,2092.34,213.92,2095.07,218.54,2094.21Z"/><path class="cls-31" d="M218.54,2094.21c-4.62.86-14.34-1.87-18.63-3.19-.33,1.93-.38,3.39.88,3.9,1.76.72,15.44,3,20.23,2.46s22.77-6,26.18-7.76c2.59-1.35,5.82-1.65,6.25-8C246.11,2083.37,224.11,2093.18,218.54,2094.21Z"/><path class="cls-30" d="M252.38,2096.41c5.45-1.54,26.48-13.31,33.62-15.77a38.38,38.38,0,0,0-1.31-8.17c-3.59-14.32-19.63-2.9-19.63-2.9s-8.27,8.08-13.73,11.76-17.28,7.85-17.55,11c-.07.92-.17,1.79-.24,2.59C237.93,2095.85,247.86,2097.68,252.38,2096.41Z"/><path class="cls-31" d="M252.38,2096.41c-4.52,1.27-14.45-.56-18.84-1.48-.15,1.94-.07,3.4,1.22,3.8,1.83.55,15.67,1.63,20.38.6s22.13-8,25.37-10.11c2.45-1.57,5.64-2.16,5.49-8.58C278.86,2083.1,257.83,2094.87,252.38,2096.41Z"/><path class="cls-20" d="M240.91,1758.91l-2.93,3.87s-3.83,48.93-5.09,58.64-9.72,47.31-7.61,51.95,7.65-8,7.65-8l19.46-99.26Z"/><path class="cls-32" d="M240.91,1860.7l-15.63,12.67s-3.2,22.81-.33,39.7-3.72,58.29,0,67.58,6.31,89.85,6.31,89.85,17.13,1.55,21.78.7,2.23-43.67,2.23-43.67,1.27-47.3,0-50.68,5.07-54.06,5.07-54.06,2.53,61.66,3,76.44-.36,71.8-.36,71.8,17.68,1.41,22.06-.43c3.91-1.65,9.13-88.21,11.66-100.06s9.72-57.47,9.72-57.47,8.44-24.07,2.53-42.23S240.91,1860.7,240.91,1860.7Z"/><path class="cls-24" d="M316,1721.82l-3.7-2.9s-25.7,8.42-35.4,6l1-3.11s-16.79,0-26.5,7.39-12.88,29.14-13.72,36.32l6.33,1.69s-2.32,30.83-2.32,32.94c0,1.57-3.41,33.26-6.64,52.3l-3.92,13.36s21.11,14.15,30.41,14.36,49.83,0,49.83,0,2.11-34.2,3.59-40.54,16.46-43.71,18.58-53S350.38,1740.82,316,1721.82Z"/><path class="cls-20" d="M273,1716.4s-.23,5.75-1.53,9.15-2.11,12.54,3.29,13.48,29.43-5.18,38-19.18c0,0-3.75-6.38-4.92-11.89s-4-18.06-2.47-23.1-.34-25-5-25.41S273,1716.4,273,1716.4Z"/><path class="cls-15" d="M301.68,1688.28s2.55,17-11.05,23.5-22,9.41-23.82,7.47-1.87-4.14-2.22-5-1.88-2-1.76-3.4a1.87,1.87,0,0,1-1.18-2.11c.12-1.76-.35-5.16-.7-5.51s-4.1,2-4.1-1.76,1.4-9.15.47-11.38-5-8.2-4.93-12.78c0,0,3.05-21.69,23.92-21.81s25.33,3.17,26.62,7.86-1.17,24.29-1.17,24.29"/><path class="cls-20" d="M305.53,1769.9s12.67,10.13,24.08,14.36c0,0-15.85,39.7-18.28,46s-2.84,4.23-5.8,3.38-64.2-31.4-72.64-34.07-14.79-2.25-16.47-8.16-1-16.21-3.12-18.33,14.28,8.19,17.78,8.19-1.57-8-1.57-11.4,4.22-3.81,5.07,0,6.41,5.49,9.71,11.82-.16,7.15,3.3,8.86,37.06,5.92,50.25,14C297.84,1804.53,297.51,1783.41,305.53,1769.9Z"/><path class="cls-33" d="M308.44,1654.25c-1.05-3.4-7.83-19.64-37.89-13.72-29.43,5.8-21.68,34.24-19.45,37.06,1.2,1.51,4.48-1.6,8.47-5.51,0,0,8.19-6.66,12.45-7.09s14.16,2.61,17.62,4.29h0c6.4,4.38,5.43,12.88,5.43,12.88l3.7,1s2.52-5.2,5.12-6.26,1.24,15.38,1.24,15.38C316,1683.36,309.5,1657.65,308.44,1654.25Z"/><path class="cls-15" d="M298,1680.5c-.68,4.62,1.15,8.71,4.09,9.15s5.88-3,6.56-7.58-1.15-8.71-4.09-9.15S298.66,1675.88,298,1680.5Z"/><polygon class="cls-34" points="1191.55 302.66 237.57 302.66 256.02 97.84 1210 97.84 1191.55 302.66"/><polygon class="cls-2" points="1183.98 293.83 230 293.83 248.45 89.02 1202.43 89.02 1183.98 293.83"/><path class="cls-34" d="M270.46,154.11c0-22.6,16.55-39.73,41.15-39.73,11.73,0,21.28,4.17,26,11.73l-11.07,9.08c-3.4-5-8.7-7.75-16-7.75-14.95,0-24.6,11.44-24.6,25.73,0,10,6.63,16.64,18.54,16.64a23.06,23.06,0,0,0,17.6-7.66l9.08,9.27c-7,8.14-16.65,11.45-28,11.45C283,182.87,270.46,171.14,270.46,154.11Z"/><path class="cls-34" d="M378.67,130.09,376,143.71c-1.33-.1-2.18-.19-3.41-.19-8.7,0-14.28,4.07-16.17,13.62l-4.92,24.59H336.77l10.12-50.89h14l-1.23,6.06C364.2,132,370.45,130.09,378.67,130.09Z"/><path class="cls-34" d="M387.28,130.84H402l-10.12,50.89H377.16Zm1.23-14.75c0-4.92,3.88-8.8,9.75-8.8,5.2,0,8.7,3.22,8.7,7.38,0,5.39-4,9.08-9.84,9.08C391.92,123.75,388.51,120.34,388.51,116.09Z"/><path class="cls-34" d="M467.31,130.84l-10.12,50.89h-14l.94-5a22.63,22.63,0,0,1-15.6,5.77c-11.83,0-21.95-8.33-21.95-22.8,0-17.12,12.39-29.6,28.09-29.6,7.38,0,13.25,2.36,16.56,7.66l1.32-6.91ZM448,153.54c0-6.9-4.26-11.25-11.63-11.25-8.71,0-14.95,6.81-14.95,16.74,0,6.91,4.26,11.26,11.64,11.26C441.77,170.29,448,163.48,448,153.54Z"/><path class="cls-34" d="M529.08,147.4a29.1,29.1,0,0,1-.66,6.14l-5.68,28.19H508l5.49-27.24a16,16,0,0,0,.38-3.5c0-5.2-2.84-8.13-8.7-8.13-7.48,0-12.68,4.16-14.48,13l-5.1,25.82H470.81l10.12-50.89h14l-1.14,5.49a24.24,24.24,0,0,1,16.75-6.24C521.7,130.09,529.08,136.14,529.08,147.4Z"/><path class="cls-34" d="M602.48,111.55l-14,70.18h-14l1-5.11a22.54,22.54,0,0,1-15.6,5.87c-11.83,0-21.95-8.33-21.95-22.8,0-17.12,12.39-29.6,28.09-29.6,7.38,0,13.15,2.46,16.46,7.47l5.21-26Zm-23.08,42c0-6.9-4.26-11.25-11.63-11.25-8.71,0-14.95,6.81-14.95,16.74,0,6.91,4.26,11.26,11.64,11.26C573.16,170.29,579.4,163.48,579.4,153.54Z"/><path class="cls-34" d="M603.15,159.69c0-16.93,12.86-29.6,30.74-29.6,15.6,0,25.63,9,25.63,22.79,0,16.93-12.77,29.61-30.74,29.61C613.27,182.49,603.15,173.41,603.15,159.69Zm41.43-6.15c0-6.9-4.17-11.25-11.54-11.25-8.71,0-14.95,6.81-14.95,16.74,0,6.91,4.26,11.26,11.63,11.26C638.33,170.29,644.58,163.48,644.58,153.54Z"/><path class="cls-34" d="M752.22,130.84,742.1,181.73h-14l1-5.48a23.8,23.8,0,0,1-16.55,6.24c-10.88,0-18.26-6.05-18.26-17.31A28.65,28.65,0,0,1,695,159l5.58-28.19h14.75l-5.39,27.24a17.79,17.79,0,0,0-.38,3.69c0,5.11,2.74,7.95,8.52,7.95,7.28,0,12.39-4.16,14.18-13.05l5.21-25.83Z"/><path class="cls-34" d="M848,147.3a30,30,0,0,1-.66,6.24l-5.58,28.19H827l5.39-27.15a18.62,18.62,0,0,0,.38-3.87c0-5.11-2.74-7.85-8-7.85-6.81,0-11.54,4-13.34,12.77l-5.2,26.1H791.38l5.4-27.15a19,19,0,0,0,.37-3.78c0-5.2-2.74-7.94-8-7.94-6.9,0-11.54,4-13.43,12.95l-5.11,25.92H755.82l10.12-50.89h14l-1.14,5.3a23.26,23.26,0,0,1,16-6c7,0,12.77,2.83,15.61,8.32a25.43,25.43,0,0,1,19.39-8.32C840.67,130.09,848,136.05,848,147.3Z"/><path class="cls-34" d="M882.76,159.69c0-16.93,12.87-29.6,31-29.6,10.88,0,19,4.63,22.89,12.86l-12.49,6.24c-2.27-4.73-6.15-6.9-11.35-6.9-8.7,0-15.13,6.81-15.13,16.65,0,6.9,4.25,11.35,11.82,11.35A14.06,14.06,0,0,0,922,163.48l10.88,6.81c-4.92,7.66-13.81,12.2-24.22,12.2C892.88,182.49,882.76,173.41,882.76,159.69Z"/><path class="cls-34" d="M998.83,130.84l-10.12,50.89h-14l.94-5a22.63,22.63,0,0,1-15.6,5.77c-11.83,0-21.95-8.33-21.95-22.8,0-17.12,12.39-29.6,28.09-29.6,7.38,0,13.25,2.36,16.56,7.66l1.32-6.91Zm-19.3,22.7c0-6.9-4.25-11.25-11.63-11.25-8.71,0-14.95,6.81-14.95,16.74,0,6.91,4.26,11.26,11.64,11.26C973.29,170.29,979.53,163.48,979.53,153.54Z"/><path class="cls-34" d="M1060.6,147.4a29.1,29.1,0,0,1-.66,6.14l-5.68,28.19H1039.5l5.49-27.24a16,16,0,0,0,.38-3.5c0-5.2-2.84-8.13-8.7-8.13-7.48,0-12.68,4.16-14.48,13l-5.1,25.82h-14.76l10.12-50.89h14l-1.13,5.49a24.22,24.22,0,0,1,16.74-6.24C1053.22,130.09,1060.6,136.14,1060.6,147.4Z"/><path class="cls-34" d="M1130,130.84l-10.12,50.89h-14l.94-5a22.63,22.63,0,0,1-15.6,5.77c-11.83,0-22-8.33-22-22.8,0-17.12,12.39-29.6,28.1-29.6,7.37,0,13.24,2.36,16.55,7.66l1.32-6.91Zm-19.3,22.7c0-6.9-4.25-11.25-11.63-11.25-8.7,0-14.95,6.81-14.95,16.74,0,6.91,4.26,11.26,11.64,11.26C1104.49,170.29,1110.73,163.48,1110.73,153.54Z"/><path class="cls-34" d="M1147.53,111.55h14.76l-14,70.18h-14.76Z"/><path class="cls-34" d="M496.06,243.25a29.26,29.26,0,0,1-.66,6.15l-5.67,28.19H475l5.49-27.24a16,16,0,0,0,.37-3.5c0-5.21-2.83-8.14-8.7-8.14-7.47,0-12.67,4.16-14.47,13l-5.11,25.83H437.8l10.12-50.89h14l-1.14,5.48a24.28,24.28,0,0,1,16.74-6.24C488.69,225.94,496.06,232,496.06,243.25Z"/><path class="cls-34" d="M504.67,255.55c0-16.93,12.87-29.61,30.75-29.61,15.6,0,25.63,9,25.63,22.8,0,16.93-12.77,29.6-30.74,29.6C514.79,278.34,504.67,269.26,504.67,255.55Zm41.43-6.15c0-6.91-4.16-11.26-11.54-11.26-8.7,0-14.94,6.81-14.94,16.75,0,6.9,4.26,11.25,11.63,11.25C539.86,266.14,546.1,259.33,546.1,249.4Z"/><path class="cls-34" d="M629.63,254.6l-4.54,23H609.76l4.64-23.65-17-42.57H612.7l11.82,29.52,23.74-29.52h15.8Z"/><path class="cls-34" d="M651.58,255.55c0-16.93,12.86-29.61,30.74-29.61,15.61,0,25.63,9,25.63,22.8,0,16.93-12.77,29.6-30.74,29.6C661.7,278.34,651.58,269.26,651.58,255.55ZM693,249.4c0-6.91-4.16-11.26-11.54-11.26-8.71,0-15,6.81-15,16.75,0,6.9,4.26,11.25,11.64,11.25C686.76,266.14,693,259.33,693,249.4Z"/><path class="cls-34" d="M773.88,226.7l-10.12,50.89h-14l1-5.49a23.75,23.75,0,0,1-16.55,6.24c-10.88,0-18.25-6-18.25-17.31a28.46,28.46,0,0,1,.66-6.14l5.58-28.19H737l-5.39,27.24a17.65,17.65,0,0,0-.38,3.69c0,5.11,2.75,7.94,8.52,7.94,7.28,0,12.39-4.16,14.19-13l5.2-25.82Z"/><path class="cls-34" d="M796.78,223.86H775.59l2.55-12.49h57.7l-2.55,12.49H812.2l-10.79,53.73H786.09Z"/><path class="cls-34" d="M890.14,226.7,880,277.59H866l1-5.49a23.75,23.75,0,0,1-16.55,6.24c-10.88,0-18.26-6-18.26-17.31a29.1,29.1,0,0,1,.66-6.14l5.59-28.19h14.75l-5.39,27.24a17.65,17.65,0,0,0-.38,3.69c0,5.11,2.74,7.94,8.51,7.94,7.29,0,12.39-4.16,14.19-13l5.2-25.82Z"/><path class="cls-34" d="M954.46,248.74c0,17.12-12.39,29.6-28.18,29.6-7.85,0-13.81-2.74-17-8.32l-1.51,7.57h-14l14-70.19h14.75l-4.73,23.65a22.43,22.43,0,0,1,14.67-5.11C944.25,225.94,954.46,234.27,954.46,248.74Zm-14.94.66c0-6.91-4.26-11.26-11.63-11.26-8.61,0-14.85,6.81-14.85,16.75,0,6.9,4.16,11.25,11.53,11.25C933.28,266.14,939.52,259.33,939.52,249.4Z"/><path class="cls-34" d="M1013.4,256.12h-39c.48,6.9,4.73,10.4,13.15,10.4a20.86,20.86,0,0,0,13.62-4.73l6.15,9.74c-5.86,4.73-13.52,6.81-21.28,6.81-15.89,0-26-9-26-22.79,0-17,12.29-29.61,30-29.61,14.85,0,24.22,8.8,24.22,22.42A40.09,40.09,0,0,1,1013.4,256.12Zm-37.93-8.61h25.25c0-6.72-4.54-10.5-11.35-10.5C982.28,237,977.45,241.17,975.47,247.51Z"/><path class="cls-8" d="M265.42,150.33c0-22.61,16.55-39.73,41.14-39.73,11.73,0,21.29,4.16,26,11.73l-11.07,9.08c-3.41-5-8.7-7.76-16-7.76-14.94,0-24.59,11.45-24.59,25.73,0,10,6.62,16.65,18.54,16.65a23.05,23.05,0,0,0,17.59-7.66l9.08,9.27c-7,8.13-16.64,11.44-28,11.44C277.9,179.08,265.42,167.35,265.42,150.33Z"/><path class="cls-8" d="M373.63,126.3,371,139.92c-1.32-.09-2.17-.19-3.4-.19-8.71,0-14.29,4.07-16.18,13.63L346.48,178H331.73l10.12-50.89h14l-1.23,6.05C359.16,128.19,365.4,126.3,373.63,126.3Z"/><path class="cls-8" d="M382.24,127.06H396.9L386.78,178H372.12Zm1.23-14.76c0-4.91,3.88-8.79,9.74-8.79,5.2,0,8.7,3.21,8.7,7.38,0,5.39-4,9.08-9.83,9.08C386.87,120,383.47,116.56,383.47,112.3Z"/><path class="cls-8" d="M462.26,127.06,452.14,178h-14l.95-5a22.72,22.72,0,0,1-15.61,5.77c-11.82,0-21.94-8.33-21.94-22.8,0-17.12,12.39-29.61,28.09-29.61,7.38,0,13.24,2.37,16.55,7.66l1.33-6.9ZM443,149.76c0-6.9-4.26-11.25-11.64-11.25-8.7,0-14.94,6.81-14.94,16.74,0,6.9,4.25,11.25,11.63,11.25C436.72,166.5,443,159.69,443,149.76Z"/><path class="cls-8" d="M524,143.61a29.19,29.19,0,0,1-.66,6.15L517.69,178H502.94l5.48-27.24a15.44,15.44,0,0,0,.38-3.5c0-5.21-2.83-8.14-8.7-8.14-7.47,0-12.67,4.16-14.47,13.06L480.52,178H465.76l10.13-50.89h14l-1.13,5.49a24.22,24.22,0,0,1,16.74-6.25C516.65,126.3,524,132.36,524,143.61Z"/><path class="cls-8" d="M597.44,107.76l-14,70.19h-14l1-5.11a22.57,22.57,0,0,1-15.61,5.87c-11.82,0-21.94-8.33-21.94-22.8,0-17.12,12.39-29.61,28.09-29.61,7.38,0,13.15,2.46,16.46,7.48l5.2-26Zm-23.08,42c0-6.9-4.26-11.25-11.64-11.25-8.7,0-14.94,6.81-14.94,16.74,0,6.9,4.25,11.25,11.63,11.25C568.11,166.5,574.36,159.69,574.36,149.76Z"/><path class="cls-8" d="M598.1,155.91c0-16.93,12.86-29.61,30.74-29.61,15.61,0,25.64,9,25.64,22.8,0,16.93-12.77,29.61-30.75,29.61C608.22,178.71,598.1,169.62,598.1,155.91Zm41.43-6.15c0-6.9-4.16-11.25-11.54-11.25-8.7,0-14.94,6.81-14.94,16.74,0,6.9,4.25,11.25,11.63,11.25C633.29,166.5,639.53,159.69,639.53,149.76Z"/><path class="cls-8" d="M747.18,127.06,737.06,178h-14l1-5.49a23.79,23.79,0,0,1-16.56,6.25c-10.87,0-18.25-6.06-18.25-17.31a29.12,29.12,0,0,1,.66-6.15l5.58-28.19h14.76L704.9,154.3a17.07,17.07,0,0,0-.38,3.69c0,5.11,2.74,7.95,8.51,7.95,7.28,0,12.39-4.17,14.19-13.06l5.2-25.82Z"/><path class="cls-8" d="M842.9,143.52a30.07,30.07,0,0,1-.66,6.24L836.66,178H821.91l5.39-27.15a19.44,19.44,0,0,0,.37-3.88c0-5.1-2.74-7.85-8-7.85-6.81,0-11.54,4-13.33,12.77L801.1,178H786.34l5.39-27.15a19.25,19.25,0,0,0,.38-3.78c0-5.2-2.74-8-8-8-6.91,0-11.54,4-13.43,13L765.53,178H750.77l10.12-50.89h14l-1.13,5.3a23.26,23.26,0,0,1,16-6.06c7,0,12.77,2.84,15.61,8.33a25.4,25.4,0,0,1,19.39-8.33C835.62,126.3,842.9,132.26,842.9,143.52Z"/><path class="cls-8" d="M877.72,155.91c0-16.93,12.86-29.61,31-29.61,10.88,0,19,4.64,22.89,12.87l-12.48,6.24c-2.27-4.73-6.15-6.9-11.35-6.9-8.7,0-15.14,6.81-15.14,16.64,0,6.91,4.26,11.35,11.83,11.35A14,14,0,0,0,917,159.69l10.88,6.81c-4.92,7.67-13.81,12.21-24.21,12.21C887.84,178.71,877.72,169.62,877.72,155.91Z"/><path class="cls-8" d="M993.78,127.06,983.66,178h-14l1-5A22.72,22.72,0,0,1,955,178.71c-11.82,0-21.94-8.33-21.94-22.8,0-17.12,12.39-29.61,28.09-29.61,7.38,0,13.24,2.37,16.55,7.66l1.33-6.9Zm-19.29,22.7c0-6.9-4.26-11.25-11.64-11.25-8.7,0-14.94,6.81-14.94,16.74,0,6.9,4.25,11.25,11.63,11.25C968.24,166.5,974.49,159.69,974.49,149.76Z"/><path class="cls-8" d="M1055.55,143.61a29.19,29.19,0,0,1-.66,6.15L1049.21,178h-14.75l5.49-27.24a16,16,0,0,0,.37-3.5c0-5.21-2.83-8.14-8.7-8.14-7.47,0-12.67,4.16-14.47,13.06L1012,178H997.29l10.12-50.89h14l-1.14,5.49A24.24,24.24,0,0,1,1037,126.3C1048.17,126.3,1055.55,132.36,1055.55,143.61Z"/><path class="cls-8" d="M1125,127.06,1114.86,178h-14l1-5a22.71,22.71,0,0,1-15.61,5.77c-11.82,0-21.94-8.33-21.94-22.8,0-17.12,12.39-29.61,28.09-29.61,7.38,0,13.24,2.37,16.55,7.66l1.33-6.9Zm-19.29,22.7c0-6.9-4.26-11.25-11.64-11.25-8.7,0-14.94,6.81-14.94,16.74,0,6.9,4.25,11.25,11.63,11.25C1099.44,166.5,1105.69,159.69,1105.69,149.76Z"/><path class="cls-8" d="M1142.49,107.76h14.75l-14,70.19h-14.75Z"/><path class="cls-8" d="M491,239.47a29.26,29.26,0,0,1-.66,6.15l-5.68,28.18H469.92l5.49-27.24a16,16,0,0,0,.38-3.5c0-5.2-2.84-8.13-8.7-8.13-7.48,0-12.68,4.16-14.47,13l-5.11,25.82H432.75l10.12-50.88h14l-1.13,5.48a24.22,24.22,0,0,1,16.74-6.24C483.64,222.16,491,228.21,491,239.47Z"/><path class="cls-8" d="M499.63,251.77c0-16.94,12.86-29.61,30.74-29.61,15.61,0,25.63,9,25.63,22.79,0,16.94-12.77,29.61-30.74,29.61C509.75,274.56,499.63,265.48,499.63,251.77Zm41.43-6.15c0-6.91-4.16-11.26-11.54-11.26-8.7,0-14.95,6.81-14.95,16.74,0,6.91,4.26,11.26,11.64,11.26C534.82,262.36,541.06,255.55,541.06,245.62Z"/><path class="cls-8" d="M624.58,250.82l-4.54,23H604.72l4.64-23.64-17-42.57h15.32l11.83,29.51,23.74-29.51H659Z"/><path class="cls-8" d="M646.53,251.77c0-16.94,12.87-29.61,30.74-29.61,15.61,0,25.64,9,25.64,22.79,0,16.94-12.77,29.61-30.74,29.61C656.65,274.56,646.53,265.48,646.53,251.77ZM688,245.62c0-6.91-4.16-11.26-11.54-11.26-8.7,0-14.94,6.81-14.94,16.74,0,6.91,4.25,11.26,11.63,11.26C681.72,262.36,688,255.55,688,245.62Z"/><path class="cls-8" d="M768.84,222.92,758.72,273.8h-14l1-5.48a23.81,23.81,0,0,1-16.55,6.24c-10.88,0-18.26-6.05-18.26-17.31a29.26,29.26,0,0,1,.66-6.15l5.58-28.18H732l-5.39,27.24a17,17,0,0,0-.38,3.69c0,5.1,2.74,7.94,8.51,7.94,7.29,0,12.39-4.16,14.19-13.05l5.2-25.82Z"/><path class="cls-8" d="M791.73,220.08H770.54l2.56-12.49h57.7l-2.56,12.49H807.15L796.37,273.8H781Z"/><path class="cls-8" d="M885.1,222.92,875,273.8H861l1-5.48a23.82,23.82,0,0,1-16.56,6.24c-10.88,0-18.25-6.05-18.25-17.31a29.26,29.26,0,0,1,.66-6.15l5.58-28.18h14.76l-5.4,27.24a17.61,17.61,0,0,0-.37,3.69c0,5.1,2.74,7.94,8.51,7.94,7.28,0,12.39-4.16,14.19-13.05l5.2-25.82Z"/><path class="cls-8" d="M949.42,245c0,17.12-12.39,29.61-28.19,29.61-7.85,0-13.81-2.74-17-8.32l-1.52,7.56h-14l14-70.18h14.76l-4.73,23.65a22.42,22.42,0,0,1,14.66-5.11C939.2,222.16,949.42,230.48,949.42,245Zm-14.95.67c0-6.91-4.25-11.26-11.63-11.26-8.61,0-14.85,6.81-14.85,16.74,0,6.91,4.16,11.26,11.54,11.26C928.23,262.36,934.47,255.55,934.47,245.62Z"/><path class="cls-8" d="M1008.35,252.33h-39c.47,6.91,4.73,10.41,13.15,10.41A20.94,20.94,0,0,0,996.15,258l6.15,9.74c-5.87,4.73-13.53,6.81-21.29,6.81-15.89,0-26-9-26-22.79,0-17,12.3-29.61,30-29.61,14.85,0,24.21,8.8,24.21,22.42A39.89,39.89,0,0,1,1008.35,252.33Zm-37.93-8.6h25.26c0-6.72-4.54-10.5-11.35-10.5C977.23,233.23,972.41,237.39,970.42,243.73Z"/><circle class="cls-2" cx="130.95" cy="494.46" r="70.67"/><circle class="cls-1" cx="130.95" cy="494.46" r="62.04"/><path class="cls-34" d="M130.26,535.15V478.67c-3.85,2-11.78,3.5-15.17,3.62V468.4A36.62,36.62,0,0,0,134.93,457h14v78.19Z"/><path class="cls-2" d="M123.88,532V475.48c-3.85,2-11.78,3.5-15.17,3.62V465.21a36.62,36.62,0,0,0,19.84-11.44h14V532Z"/><path class="cls-34" d="M252.68,459.72v8.14h12.91v4.2H252.68v10.23h-5V455.56h19.52v4.16Z"/><path class="cls-34" d="M288,470.34v12H283.5v-2.48c-1.14,1.76-3.36,2.75-6.41,2.75-4.66,0-7.6-2.56-7.6-6.11,0-3.4,2.29-6.07,8.47-6.07h5.27v-.31c0-2.79-1.68-4.43-5.07-4.43a10.09,10.09,0,0,0-6.19,2l-1.87-3.47a14.31,14.31,0,0,1,8.63-2.52C284.61,461.67,288,464.46,288,470.34Zm-4.78,5.57v-2.36h-4.92c-3.25,0-4.13,1.22-4.13,2.71,0,1.72,1.45,2.82,3.9,2.82A5.18,5.18,0,0,0,283.23,475.91Z"/><path class="cls-34" d="M308.71,475.65l3.67,2.14c-1.53,3-4.59,4.69-8.41,4.77l-.42,1.6c2.26.27,3.33,1.57,3.33,3.21,0,2.22-2.07,3.63-5.2,3.63a7.17,7.17,0,0,1-3.51-.8l.88-2.26a5.41,5.41,0,0,0,2.59.62c1.42,0,2-.54,2-1.38s-.58-1.26-2-1.26h-1.18l1-3.55a10.11,10.11,0,0,1-8.78-10.27c0-6.12,4.58-10.43,11-10.43,4,0,7.14,1.64,8.71,4.73l-3.67,2.14a5.78,5.78,0,0,0-5.08-2.82,6.38,6.38,0,0,0,0,12.75A5.76,5.76,0,0,0,308.71,475.65Z"/><path class="cls-34" d="M333.57,470.34v12h-4.5v-2.48c-1.15,1.76-3.37,2.75-6.42,2.75-4.66,0-7.6-2.56-7.6-6.11,0-3.4,2.29-6.07,8.48-6.07h5.27v-.31c0-2.79-1.68-4.43-5.08-4.43a10.11,10.11,0,0,0-6.19,2l-1.87-3.47a14.35,14.35,0,0,1,8.63-2.52C330.17,461.67,333.57,464.46,333.57,470.34Zm-4.77,5.57v-2.36h-4.93c-3.24,0-4.12,1.22-4.12,2.71,0,1.72,1.45,2.82,3.89,2.82A5.19,5.19,0,0,0,328.8,475.91Z"/><path class="cls-34" d="M353.85,454h4.78L353,482.29H348.2Z"/><path class="cls-34" d="M359.43,473.58c0-6.83,5-11.91,12.1-11.91,6,0,9.93,3.51,9.93,8.94,0,6.83-5.08,11.95-12.14,11.95C363.32,482.56,359.43,479,359.43,473.58Zm17.22-2.75c0-3.17-1.95-5.11-5.38-5.11-4,0-7,3.13-7,7.63,0,3.17,1.95,5.12,5.39,5.12C373.67,478.47,376.65,475.34,376.65,470.83Z"/><path class="cls-34" d="M408.2,461.9l-3.48,17.3C403.2,486.8,399,490,392.12,490c-3.93,0-7.22-1-9.55-2.79l2.49-3.59a11.49,11.49,0,0,0,7.37,2.29c4.46,0,6.6-2,7.37-5.88l.19-1a10,10,0,0,1-6.69,2.37c-5.3,0-9.12-3.21-9.12-8.44a11.15,11.15,0,0,1,11.57-11.27c3.05,0,5.84,1.07,7.22,3.59l.65-3.36Zm-6.84,8.48c0-2.87-1.94-4.66-5.34-4.66a6.74,6.74,0,0,0-7,6.95c0,2.86,2,4.66,5.38,4.66A6.71,6.71,0,0,0,401.36,470.38Z"/><path class="cls-34" d="M414.42,461.9h4.78l-4.05,20.39h-4.77Zm.62-6a3,3,0,0,1,3.24-3.05,2.64,2.64,0,0,1,2.87,2.56,3.05,3.05,0,0,1-3.25,3.17A2.71,2.71,0,0,1,415,455.86Z"/><path class="cls-34" d="M444,468.54a14.71,14.71,0,0,1-.26,2.45l-2.26,11.3h-4.77l2.21-11.19a7.64,7.64,0,0,0,.16-1.56c0-2.37-1.3-3.71-4.09-3.71-3.48,0-5.88,1.91-6.68,5.88l-2.14,10.58h-4.78l4-20.39H430l-.46,2.25a10.27,10.27,0,0,1,7-2.48C441.08,461.67,444,464.07,444,468.54Z"/><path class="cls-34" d="M480.23,470.61v11.68h-4.77V471.22c0-3.63-1.8-5.39-4.85-5.39-3.4,0-5.69,2.06-5.69,6.15v10.31h-4.78V461.9h4.55v2.63a8.84,8.84,0,0,1,7-2.86C476.6,461.67,480.23,464.46,480.23,470.61Z"/><path class="cls-34" d="M484.81,472.1c0-6.12,4.59-10.43,10.85-10.43s10.88,4.31,10.88,10.43-4.54,10.46-10.88,10.46S484.81,478.21,484.81,472.1Zm16.92,0c0-3.9-2.6-6.38-6.07-6.38s-6,2.48-6,6.38,2.59,6.37,6,6.37S501.73,476,501.73,472.1Z"/><path class="cls-34" d="M533.66,472.86v9.43h-5v-9.35l-10.51-17.38h5.31l7.83,13,7.91-13h4.89Z"/><path class="cls-34" d="M542.94,472.1c0-6.12,4.58-10.43,10.85-10.43s10.88,4.31,10.88,10.43-4.54,10.46-10.88,10.46S542.94,478.21,542.94,472.1Zm16.92,0c0-3.9-2.6-6.38-6.07-6.38s-6,2.48-6,6.38,2.6,6.37,6,6.37S559.86,476,559.86,472.1Z"/><path class="cls-34" d="M589,461.9v20.39h-4.54V479.7a8.35,8.35,0,0,1-6.57,2.86c-5.23,0-8.79-2.86-8.79-9V461.9h4.78v11c0,3.7,1.75,5.46,4.77,5.46,3.32,0,5.58-2.06,5.58-6.15V461.9Z"/><path class="cls-34" d="M598.32,459.76h-8.86v-4.2h22.69v4.2h-8.86v22.53h-5Z"/><path class="cls-34" d="M634.68,461.9v20.39h-4.54V479.7a8.35,8.35,0,0,1-6.57,2.86c-5.24,0-8.79-2.86-8.79-9V461.9h4.78v11c0,3.7,1.75,5.46,4.77,5.46,3.32,0,5.58-2.06,5.58-6.15V461.9Z"/><path class="cls-34" d="M662.6,472.1c0,6.34-4.39,10.46-10.35,10.46a8.42,8.42,0,0,1-6.76-2.9v2.63H641V454h4.77v10.43a8.48,8.48,0,0,1,6.53-2.71C658.21,461.67,662.6,465.76,662.6,472.1Zm-4.85,0c0-3.9-2.6-6.38-6-6.38s-6.08,2.48-6.08,6.38,2.64,6.37,6.08,6.37S657.75,476,657.75,472.1Z"/><path class="cls-34" d="M686.24,473.62h-16c.57,3,3,4.89,6.61,4.89a7.29,7.29,0,0,0,5.53-2.21l2.56,2.94c-1.83,2.17-4.69,3.32-8.21,3.32-6.83,0-11.27-4.39-11.27-10.46A10.14,10.14,0,0,1,676,461.67c6,0,10.31,4.16,10.31,10.54C686.32,472.59,686.28,473.16,686.24,473.62Zm-16-3.17h11.57a5.54,5.54,0,0,0-5.76-5A5.63,5.63,0,0,0,670.2,470.45Z"/><path class="cls-34" d="M720.54,473.62h-16c.57,3,3.05,4.89,6.6,4.89a7.31,7.31,0,0,0,5.54-2.21l2.56,2.94c-1.83,2.17-4.7,3.32-8.21,3.32-6.84,0-11.27-4.39-11.27-10.46a10.14,10.14,0,0,1,10.54-10.43c6,0,10.32,4.16,10.32,10.54C720.62,472.59,720.58,473.16,720.54,473.62Zm-16-3.17h11.57a5.55,5.55,0,0,0-5.77-5A5.63,5.63,0,0,0,704.5,470.45Z"/><path class="cls-34" d="M759.3,470.61v11.68h-4.77V471.22c0-3.63-1.68-5.39-4.58-5.39-3.13,0-5.31,2.06-5.31,6.11v10.35h-4.78V471.22c0-3.63-1.68-5.39-4.58-5.39-3.17,0-5.31,2.06-5.31,6.11v10.35H725.2V461.9h4.54v2.59a8.47,8.47,0,0,1,6.69-2.82c3,0,5.46,1.11,6.87,3.4a9.52,9.52,0,0,1,7.64-3.4C755.87,461.67,759.3,464.46,759.3,470.61Z"/><path class="cls-34" d="M795.7,461.9v20.39h-4.54V479.7a8.35,8.35,0,0,1-6.57,2.86c-5.23,0-8.79-2.86-8.79-9V461.9h4.78v11c0,3.7,1.75,5.46,4.77,5.46,3.32,0,5.58-2.06,5.58-6.15V461.9Z"/><path class="cls-34" d="M836.07,470.61v11.68H831.3V471.22c0-3.63-1.68-5.39-4.59-5.39-3.13,0-5.3,2.06-5.3,6.11v10.35h-4.78V471.22c0-3.63-1.68-5.39-4.58-5.39-3.17,0-5.31,2.06-5.31,6.11v10.35H802V461.9h4.54v2.59a8.46,8.46,0,0,1,6.68-2.82c3,0,5.47,1.11,6.88,3.4a9.52,9.52,0,0,1,7.64-3.4C832.63,461.67,836.07,464.46,836.07,470.61Z"/><path class="cls-34" d="M851,472.1c0-6.12,4.59-10.43,11-10.43,4,0,7.14,1.64,8.71,4.73l-3.67,2.14a5.77,5.77,0,0,0-5.08-2.82,6.38,6.38,0,0,0,0,12.75,5.75,5.75,0,0,0,5.08-2.82l3.67,2.14c-1.57,3-4.74,4.77-8.71,4.77C855.63,482.56,851,478.21,851,472.1Z"/><path class="cls-34" d="M872.93,472.1c0-6.12,4.58-10.43,10.84-10.43s10.89,4.31,10.89,10.43-4.55,10.46-10.89,10.46S872.93,478.21,872.93,472.1Zm16.92,0c0-3.9-2.6-6.38-6.08-6.38s-6,2.48-6,6.38,2.6,6.37,6,6.37S889.85,476,889.85,472.1Z"/><path class="cls-34" d="M933.35,470.61v11.68h-4.78V471.22c0-3.63-1.68-5.39-4.58-5.39-3.13,0-5.31,2.06-5.31,6.11v10.35h-4.77V471.22c0-3.63-1.68-5.39-4.58-5.39-3.17,0-5.31,2.06-5.31,6.11v10.35h-4.78V461.9h4.55v2.59a8.43,8.43,0,0,1,6.68-2.82c3,0,5.46,1.11,6.88,3.4a9.51,9.51,0,0,1,7.63-3.4C929.91,461.67,933.35,464.46,933.35,470.61Z"/><path class="cls-34" d="M961.11,472.1c0,6.34-4.39,10.46-10.35,10.46a8.4,8.4,0,0,1-6.53-2.75v9.89h-4.77V461.9H944v2.67a8.42,8.42,0,0,1,6.76-2.9C956.72,461.67,961.11,465.79,961.11,472.1Zm-4.85,0c0-3.9-2.59-6.38-6-6.38s-6.07,2.48-6.07,6.38,2.63,6.37,6.07,6.37S956.26,476,956.26,472.1Z"/><path class="cls-34" d="M985.41,461.9v20.39h-4.55V479.7a8.33,8.33,0,0,1-6.57,2.86c-5.23,0-8.78-2.86-8.78-9V461.9h4.77v11c0,3.7,1.76,5.46,4.77,5.46,3.33,0,5.58-2.06,5.58-6.15V461.9Z"/><path class="cls-34" d="M1003.93,481.19a7.56,7.56,0,0,1-4.58,1.37c-4.47,0-7-2.37-7-6.87v-9.82H989v-3.82h3.36v-4.66h4.77v4.66h5.46v3.82h-5.46v9.7c0,2,1,3.06,2.83,3.06a4.3,4.3,0,0,0,2.67-.84Z"/><path class="cls-34" d="M1024.93,470.34v12h-4.5v-2.48c-1.15,1.76-3.36,2.75-6.42,2.75-4.66,0-7.6-2.56-7.6-6.11,0-3.4,2.29-6.07,8.48-6.07h5.27v-.31c0-2.79-1.68-4.43-5.08-4.43a10.11,10.11,0,0,0-6.19,2l-1.87-3.47a14.35,14.35,0,0,1,8.63-2.52C1021.54,461.67,1024.93,464.46,1024.93,470.34Zm-4.77,5.57v-2.36h-4.93c-3.24,0-4.12,1.22-4.12,2.71,0,1.72,1.45,2.82,3.89,2.82A5.19,5.19,0,0,0,1020.16,475.91Z"/><path class="cls-34" d="M1051.21,454v28.34h-4.58v-2.63a8.44,8.44,0,0,1-6.76,2.9c-5.92,0-10.32-4.12-10.32-10.46s4.4-10.43,10.32-10.43a8.37,8.37,0,0,1,6.57,2.75V454Zm-4.7,18.15c0-3.9-2.63-6.38-6.07-6.38s-6.07,2.48-6.07,6.38,2.63,6.37,6.07,6.37S1046.51,476,1046.51,472.1Z"/><path class="cls-34" d="M1055.79,472.1c0-6.12,4.59-10.43,10.85-10.43s10.89,4.31,10.89,10.43-4.55,10.46-10.89,10.46S1055.79,478.21,1055.79,472.1Zm16.92,0c0-3.9-2.59-6.38-6.07-6.38s-6,2.48-6,6.38,2.59,6.37,6,6.37S1072.71,476,1072.71,472.1Z"/><path class="cls-34" d="M1093.91,461.67v4.54a6.6,6.6,0,0,0-1.11-.11c-3.63,0-5.92,2.14-5.92,6.3v9.89h-4.77V461.9h4.54v3C1088,462.74,1090.51,461.67,1093.91,461.67Z"/><path class="cls-34" d="M245.58,518.78c0-6.12,4.58-10.43,10.84-10.43s10.89,4.31,10.89,10.43-4.55,10.46-10.89,10.46S245.58,524.89,245.58,518.78Zm16.92,0c0-3.9-2.6-6.38-6.08-6.38s-6,2.48-6,6.38,2.6,6.37,6,6.37S262.5,522.67,262.5,518.78Z"/><path class="cls-34" d="M291.64,508.58V529h-4.55v-2.59a8.33,8.33,0,0,1-6.57,2.86c-5.23,0-8.78-2.86-8.78-9V508.58h4.77v11c0,3.7,1.76,5.46,4.78,5.46,3.32,0,5.57-2.06,5.57-6.15V508.58Z"/><path class="cls-34" d="M328.53,517.29V529h-4.77V517.9c0-3.63-1.8-5.39-4.85-5.39-3.4,0-5.69,2.06-5.69,6.15V529h-4.78V508.58H313v2.63a8.86,8.86,0,0,1,7-2.86C324.9,508.35,328.53,511.14,328.53,517.29Z"/><path class="cls-34" d="M333.11,518.78c0-6.12,4.59-10.43,10.85-10.43s10.88,4.31,10.88,10.43S350.3,529.24,344,529.24,333.11,524.89,333.11,518.78Zm16.92,0c0-3.9-2.59-6.38-6.07-6.38s-6,2.48-6,6.38,2.59,6.37,6,6.37S350,522.67,350,518.78Z"/><path class="cls-34" d="M367.64,527l1.83-3.63a13.8,13.8,0,0,0,7.11,2c3,0,4.27-.85,4.27-2.26,0-3.89-12.6-.23-12.6-8.36,0-3.86,3.48-6.38,9-6.38a16.16,16.16,0,0,1,7.63,1.76L383,513.73a11.22,11.22,0,0,0-5.84-1.52c-2.91,0-4.28.95-4.28,2.29,0,4.12,12.6.46,12.6,8.44,0,3.82-3.51,6.3-9.24,6.3A16.17,16.17,0,0,1,367.64,527Z"/><path class="cls-34" d="M389,502.35a2.91,2.91,0,0,1,3.05-2.86,2.84,2.84,0,0,1,3.06,2.75,3.06,3.06,0,0,1-6.11.11Zm.65,6.23h4.77V529h-4.77Z"/><path class="cls-34" d="M412.94,527.87a7.57,7.57,0,0,1-4.59,1.37c-4.47,0-7-2.37-7-6.87v-9.82H398v-3.82h3.37v-4.66h4.77v4.66h5.46v3.82H406.1v9.7c0,2,1,3.06,2.83,3.06a4.32,4.32,0,0,0,2.67-.84Z"/><path class="cls-34" d="M435.28,520.3h-16c.57,3,3.05,4.89,6.6,4.89a7.31,7.31,0,0,0,5.54-2.21l2.56,2.94c-1.83,2.17-4.7,3.32-8.21,3.32-6.84,0-11.27-4.39-11.27-10.46A10.14,10.14,0,0,1,425,508.35c6,0,10.32,4.16,10.32,10.54C435.36,519.27,435.32,519.85,435.28,520.3Zm-16-3.17h11.57a5.55,5.55,0,0,0-5.77-5A5.63,5.63,0,0,0,419.24,517.13Z"/><path class="cls-34" d="M472.13,518.78c0,6.34-4.39,10.46-10.35,10.46a8.39,8.39,0,0,1-6.53-2.75v9.89h-4.77v-27.8H455v2.67a8.42,8.42,0,0,1,6.76-2.9C467.74,508.35,472.13,512.47,472.13,518.78Zm-4.85,0c0-3.9-2.59-6.38-6-6.38s-6.07,2.48-6.07,6.38,2.63,6.37,6.07,6.37S467.28,522.67,467.28,518.78Z"/><path class="cls-34" d="M493.48,517v12H489v-2.48c-1.15,1.76-3.36,2.75-6.42,2.75-4.66,0-7.6-2.56-7.6-6.11s2.29-6.07,8.48-6.07h5.27v-.31c0-2.79-1.68-4.43-5.08-4.43a10.06,10.06,0,0,0-6.19,2l-1.87-3.48a14.35,14.35,0,0,1,8.63-2.52C490.08,508.35,493.48,511.14,493.48,517Zm-4.77,5.58v-2.37h-4.93c-3.24,0-4.12,1.22-4.12,2.71,0,1.72,1.45,2.83,3.89,2.83A5.2,5.2,0,0,0,488.71,522.6Z"/><path class="cls-34" d="M511.4,508.35v4.54a6.7,6.7,0,0,0-1.11-.11c-3.63,0-5.92,2.14-5.92,6.3V529h-4.78V508.58h4.55v3C505.51,509.42,508,508.35,511.4,508.35Z"/><path class="cls-34" d="M532.4,517v12h-4.5v-2.48c-1.15,1.76-3.36,2.75-6.42,2.75-4.66,0-7.6-2.56-7.6-6.11s2.29-6.07,8.48-6.07h5.27v-.31c0-2.79-1.68-4.43-5.08-4.43a10.06,10.06,0,0,0-6.19,2l-1.87-3.48a14.35,14.35,0,0,1,8.63-2.52C529,508.35,532.4,511.14,532.4,517Zm-4.77,5.58v-2.37H522.7c-3.24,0-4.12,1.22-4.12,2.71,0,1.72,1.45,2.83,3.89,2.83A5.2,5.2,0,0,0,527.63,522.6Z"/><path class="cls-34" d="M569,500.63V529h-4.58v-2.63a8.42,8.42,0,0,1-6.76,2.9c-5.92,0-10.32-4.12-10.32-10.46s4.4-10.43,10.32-10.43a8.37,8.37,0,0,1,6.57,2.75V500.63Zm-4.7,18.15c0-3.9-2.63-6.38-6.07-6.38s-6.07,2.48-6.07,6.38,2.63,6.37,6.07,6.37S564.33,522.67,564.33,518.78Z"/><path class="cls-34" d="M574.64,502.35a2.91,2.91,0,0,1,3.06-2.86,2.83,2.83,0,0,1,3,2.75,3.06,3.06,0,0,1-6.11.11Zm.65,6.23h4.78V529h-4.78Z"/><path class="cls-34" d="M584,527l1.83-3.63a13.8,13.8,0,0,0,7.11,2c3,0,4.27-.85,4.27-2.26,0-3.89-12.6-.23-12.6-8.36,0-3.86,3.48-6.38,9-6.38a16.23,16.23,0,0,1,7.64,1.76l-1.84,3.62a11.2,11.2,0,0,0-5.84-1.52c-2.9,0-4.28.95-4.28,2.29,0,4.12,12.6.46,12.6,8.44,0,3.82-3.51,6.3-9.24,6.3A16.17,16.17,0,0,1,584,527Z"/><path class="cls-34" d="M627.66,518.78c0,6.34-4.4,10.46-10.36,10.46a8.4,8.4,0,0,1-6.53-2.75v9.89H606v-27.8h4.54v2.67a8.42,8.42,0,0,1,6.76-2.9C623.26,508.35,627.66,512.47,627.66,518.78Zm-4.86,0c0-3.9-2.59-6.38-6-6.38s-6.07,2.48-6.07,6.38,2.63,6.37,6.07,6.37S622.8,522.67,622.8,518.78Z"/><path class="cls-34" d="M630.52,518.78c0-6.12,4.58-10.43,10.85-10.43s10.88,4.31,10.88,10.43-4.54,10.46-10.88,10.46S630.52,524.89,630.52,518.78Zm16.92,0c0-3.9-2.6-6.38-6.07-6.38s-6,2.48-6,6.38,2.6,6.37,6,6.37S647.44,522.67,647.44,518.78Z"/><path class="cls-34" d="M654.5,527l1.84-3.63a13.73,13.73,0,0,0,7.1,2c3,0,4.28-.85,4.28-2.26,0-3.89-12.6-.23-12.6-8.36,0-3.86,3.47-6.38,9-6.38a16.2,16.2,0,0,1,7.64,1.76l-1.83,3.62a11.23,11.23,0,0,0-5.85-1.52c-2.9,0-4.28.95-4.28,2.29,0,4.12,12.61.46,12.61,8.44,0,3.82-3.52,6.3-9.24,6.3A16.24,16.24,0,0,1,654.5,527Z"/><path class="cls-34" d="M675.85,502.35a2.91,2.91,0,0,1,3.06-2.86,2.83,2.83,0,0,1,3.05,2.75,3.06,3.06,0,0,1-6.11.11Zm.65,6.23h4.78V529H676.5Z"/><path class="cls-34" d="M699.8,527.87a7.52,7.52,0,0,1-4.58,1.37c-4.47,0-7-2.37-7-6.87v-9.82h-3.36v-3.82h3.36v-4.66H693v4.66h5.47v3.82H693v9.7c0,2,1,3.06,2.83,3.06a4.3,4.3,0,0,0,2.67-.84Z"/><path class="cls-34" d="M703.08,502.35a2.91,2.91,0,0,1,3.06-2.86,2.84,2.84,0,0,1,3.06,2.75,3.06,3.06,0,0,1-6.12.11Zm.65,6.23h4.78V529h-4.78Z"/><path class="cls-34" d="M733.87,508.58,725.12,529H720.2l-8.75-20.39h5l6.34,15.12,6.54-15.12Z"/><path class="cls-34" d="M734.59,518.78c0-6.12,4.59-10.43,10.85-10.43s10.88,4.31,10.88,10.43-4.54,10.46-10.88,10.46S734.59,524.89,734.59,518.78Zm16.92,0c0-3.9-2.59-6.38-6.07-6.38s-6,2.48-6,6.38,2.59,6.37,6,6.37S751.51,522.67,751.51,518.78Z"/><path class="cls-34" d="M758.58,527l1.83-3.63a13.8,13.8,0,0,0,7.11,2c3,0,4.27-.85,4.27-2.26,0-3.89-12.6-.23-12.6-8.36,0-3.86,3.48-6.38,9-6.38a16.16,16.16,0,0,1,7.63,1.76L774,513.73a11.22,11.22,0,0,0-5.84-1.52c-2.91,0-4.28.95-4.28,2.29,0,4.12,12.6.46,12.6,8.44,0,3.82-3.51,6.3-9.24,6.3A16.17,16.17,0,0,1,758.58,527Z"/><path class="cls-34" d="M825.22,517.29V529h-4.77V517.9c0-3.63-1.68-5.39-4.58-5.39-3.13,0-5.31,2.06-5.31,6.11V529h-4.78V517.9c0-3.63-1.68-5.39-4.58-5.39-3.17,0-5.31,2.06-5.31,6.11V529h-4.77V508.58h4.54v2.6a8.44,8.44,0,0,1,6.69-2.83c3,0,5.46,1.11,6.87,3.4a9.52,9.52,0,0,1,7.64-3.4C821.79,508.35,825.22,511.14,825.22,517.29Z"/><path class="cls-34" d="M829.85,518.78c0-6.12,4.58-10.43,10.84-10.43s10.89,4.31,10.89,10.43-4.55,10.46-10.89,10.46S829.85,524.89,829.85,518.78Zm16.92,0c0-3.9-2.6-6.38-6.08-6.38s-6,2.48-6,6.38,2.59,6.37,6,6.37S846.77,522.67,846.77,518.78Zm-4.17-18.22h5.62l-6.65,5.23h-4.12Z"/><path class="cls-34" d="M874.68,508.58,865.94,529H861l-8.75-20.39h5l6.34,15.12,6.53-15.12Z"/><path class="cls-34" d="M896.19,520.3h-16c.58,3,3.06,4.89,6.61,4.89a7.31,7.31,0,0,0,5.54-2.21l2.56,2.94c-1.84,2.17-4.7,3.32-8.21,3.32-6.84,0-11.27-4.39-11.27-10.46A10.14,10.14,0,0,1,886,508.35c6,0,10.31,4.16,10.31,10.54C896.26,519.27,896.22,519.85,896.19,520.3Zm-16-3.17h11.57a5.55,5.55,0,0,0-5.77-5A5.62,5.62,0,0,0,880.15,517.13Z"/><path class="cls-34" d="M900.2,502.35a2.91,2.91,0,0,1,3-2.86,2.84,2.84,0,0,1,3.06,2.75,3.06,3.06,0,0,1-6.11.11Zm.65,6.23h4.77V529h-4.77Z"/><path class="cls-34" d="M909.55,527l1.84-3.63a13.73,13.73,0,0,0,7.1,2c3,0,4.28-.85,4.28-2.26,0-3.89-12.61-.23-12.61-8.36,0-3.86,3.48-6.38,9-6.38a16.23,16.23,0,0,1,7.64,1.76l-1.84,3.62a11.17,11.17,0,0,0-5.84-1.52c-2.9,0-4.28.95-4.28,2.29,0,4.12,12.61.46,12.61,8.44,0,3.82-3.52,6.3-9.25,6.3A16.23,16.23,0,0,1,909.55,527Z"/><path class="cls-34" d="M930,526.07a3.13,3.13,0,1,1,6.26,0,3.13,3.13,0,1,1-6.26,0Z"/><circle class="cls-2" cx="130.95" cy="735.27" r="70.67"/><circle class="cls-1" cx="130.95" cy="735.27" r="62.04"/><path class="cls-34" d="M103.23,774.65v-.81c0-14.83,6.41-25.8,26.6-38.28,12.84-8.06,16.23-10.27,16.23-16.46,0-5.25-2.81-9.68-11.56-9.68-8.4,0-11.55,5.13-12.6,12.13H103.58c1.16-15.87,12.83-26.72,31.62-26.72C153.41,694.83,165,705,165,719c0,11.79-4.9,17.39-21,26.73-9.21,5.37-15.4,9.8-17.73,14h42l-2.34,14.94Z"/><path class="cls-2" d="M93.66,771.46v-.81c0-14.83,6.42-25.8,26.61-38.28,12.84-8.06,16.22-10.27,16.22-16.46,0-5.25-2.8-9.68-11.55-9.68-8.4,0-11.55,5.13-12.6,12.13H94c1.17-15.87,12.84-26.72,31.63-26.72,18.21,0,29.76,10.15,29.76,24.15,0,11.79-4.9,17.39-21,26.73-9.22,5.37-15.4,9.8-17.74,14h42l-2.34,14.94Z"/><path class="cls-34" d="M253.14,700.56h-8.86v-4.2H267v4.2H258.1V723.1h-5Z"/><path class="cls-34" d="M287.25,714.43h-16c.57,3,3.06,4.88,6.61,4.88a7.31,7.31,0,0,0,5.54-2.21L286,720c-1.84,2.18-4.7,3.32-8.22,3.32-6.83,0-11.26-4.39-11.26-10.46A10.15,10.15,0,0,1,277,702.47c6,0,10.31,4.17,10.31,10.54C287.32,713.39,287.28,714,287.25,714.43Zm-16.05-3.17h11.58a5.57,5.57,0,0,0-5.77-5A5.65,5.65,0,0,0,271.2,711.26Z"/><path class="cls-34" d="M312,711.41V723.1h-4.77V712c0-3.63-1.8-5.38-4.85-5.38-3.4,0-5.69,2.06-5.69,6.14V723.1H291.9V702.7h4.55v2.64a8.87,8.87,0,0,1,7-2.87C308.37,702.47,312,705.26,312,711.41Z"/><path class="cls-34" d="M330.33,722a7.57,7.57,0,0,1-4.59,1.37c-4.47,0-7-2.36-7-6.87v-9.82h-3.37v-3.82h3.37v-4.66h4.77v4.66H329v3.82h-5.46v9.7c0,2,1,3.06,2.83,3.06a4.32,4.32,0,0,0,2.67-.84Z"/><path class="cls-34" d="M352.67,714.43h-16c.57,3,3.05,4.88,6.6,4.88a7.29,7.29,0,0,0,5.54-2.21l2.56,2.94c-1.83,2.18-4.7,3.32-8.21,3.32-6.84,0-11.27-4.39-11.27-10.46a10.15,10.15,0,0,1,10.54-10.43c6,0,10.32,4.17,10.32,10.54C352.75,713.39,352.71,714,352.67,714.43Zm-16-3.17H348.2a5.55,5.55,0,0,0-5.77-5A5.64,5.64,0,0,0,336.63,711.26Z"/><path class="cls-34" d="M379.67,702.47V707a5.77,5.77,0,0,0-1.11-.12c-3.62,0-5.92,2.14-5.92,6.3v9.9h-4.77V702.7h4.55v3C373.79,703.54,376.27,702.47,379.67,702.47Z"/><path class="cls-34" d="M402.63,714.43h-16c.58,3,3.06,4.88,6.61,4.88a7.31,7.31,0,0,0,5.54-2.21l2.56,2.94c-1.84,2.18-4.7,3.32-8.21,3.32-6.84,0-11.27-4.39-11.27-10.46a10.15,10.15,0,0,1,10.54-10.43c6,0,10.31,4.17,10.31,10.54C402.7,713.39,402.66,714,402.63,714.43Zm-16.05-3.17h11.58a5.56,5.56,0,0,0-5.77-5A5.65,5.65,0,0,0,386.58,711.26Z"/><path class="cls-34" d="M423.78,711.14v12h-4.5v-2.49c-1.15,1.76-3.36,2.75-6.42,2.75-4.66,0-7.6-2.56-7.6-6.11s2.29-6.07,8.48-6.07H419v-.31c0-2.78-1.68-4.43-5.08-4.43a10.12,10.12,0,0,0-6.19,2L405.87,705a14.35,14.35,0,0,1,8.63-2.52C420.38,702.47,423.78,705.26,423.78,711.14ZM419,716.72v-2.37h-4.93c-3.24,0-4.12,1.22-4.12,2.71,0,1.72,1.45,2.83,3.89,2.83A5.2,5.2,0,0,0,419,716.72Z"/><path class="cls-34" d="M429.9,694.76h4.77V723.1H429.9Z"/><path class="cls-34" d="M440.28,696.48a2.91,2.91,0,0,1,3.06-2.87,2.84,2.84,0,0,1,3.05,2.75,3.06,3.06,0,0,1-6.11.12Zm.65,6.22h4.78v20.4h-4.78Z"/><path class="cls-34" d="M467.9,719.28v3.82H450.29v-3l11.19-13.56h-11V702.7h17.07v3l-11.23,13.56Z"/><path class="cls-34" d="M489.36,711.14v12h-4.51v-2.49c-1.14,1.76-3.36,2.75-6.41,2.75-4.66,0-7.6-2.56-7.6-6.11s2.29-6.07,8.48-6.07h5.27v-.31c0-2.78-1.68-4.43-5.08-4.43a10.1,10.1,0,0,0-6.19,2L471.45,705a14.33,14.33,0,0,1,8.63-2.52C486,702.47,489.36,705.26,489.36,711.14Zm-4.77,5.58v-2.37h-4.93c-3.25,0-4.13,1.22-4.13,2.71,0,1.72,1.46,2.83,3.9,2.83A5.21,5.21,0,0,0,484.59,716.72Z"/><path class="cls-34" d="M507.27,702.47V707a5.75,5.75,0,0,0-1.1-.12c-3.63,0-5.92,2.14-5.92,6.3v9.9h-4.78V702.7H500v3C501.39,703.54,503.87,702.47,507.27,702.47Z"/><path class="cls-34" d="M541.8,702.7v20.4h-4.55v-2.6a8.32,8.32,0,0,1-6.57,2.86c-5.23,0-8.78-2.86-8.78-9V702.7h4.77v11c0,3.71,1.76,5.46,4.78,5.46,3.32,0,5.57-2.06,5.57-6.15V702.7Z"/><path class="cls-34" d="M582.17,711.41V723.1h-4.78V712c0-3.63-1.68-5.38-4.58-5.38-3.13,0-5.31,2.06-5.31,6.11V723.1h-4.77V712c0-3.63-1.68-5.38-4.58-5.38-3.17,0-5.31,2.06-5.31,6.11V723.1h-4.78V702.7h4.55v2.6a8.44,8.44,0,0,1,6.68-2.83c3,0,5.46,1.11,6.88,3.4a9.51,9.51,0,0,1,7.63-3.4C578.73,702.47,582.17,705.26,582.17,711.41Z"/><path class="cls-34" d="M605.35,711.14v12h-4.51v-2.49c-1.14,1.76-3.36,2.75-6.41,2.75-4.66,0-7.6-2.56-7.6-6.11s2.29-6.07,8.48-6.07h5.27v-.31c0-2.78-1.68-4.43-5.08-4.43a10.12,10.12,0,0,0-6.19,2L587.44,705a14.35,14.35,0,0,1,8.63-2.52C602,702.47,605.35,705.26,605.35,711.14Zm-4.77,5.58v-2.37h-4.93c-3.25,0-4.12,1.22-4.12,2.71,0,1.72,1.45,2.83,3.89,2.83A5.2,5.2,0,0,0,600.58,716.72Z"/><path class="cls-34" d="M639.08,711.14v12h-4.51v-2.49c-1.15,1.76-3.36,2.75-6.42,2.75-4.66,0-7.6-2.56-7.6-6.11s2.29-6.07,8.48-6.07h5.27v-.31c0-2.78-1.68-4.43-5.08-4.43a10.12,10.12,0,0,0-6.19,2L621.16,705a14.35,14.35,0,0,1,8.63-2.52C635.68,702.47,639.08,705.26,639.08,711.14Zm-4.78,5.58v-2.37h-4.93c-3.24,0-4.12,1.22-4.12,2.71,0,1.72,1.45,2.83,3.89,2.83A5.2,5.2,0,0,0,634.3,716.72Z"/><path class="cls-34" d="M659.78,716.45l3.66,2.14c-1.53,3-4.58,4.7-8.4,4.77l-.42,1.61c2.25.26,3.32,1.56,3.32,3.21,0,2.21-2.06,3.62-5.19,3.62a7.1,7.1,0,0,1-3.52-.8l.88-2.25a5.45,5.45,0,0,0,2.6.61c1.41,0,2-.54,2-1.38s-.57-1.26-2-1.26h-1.18l1-3.55a10.11,10.11,0,0,1-8.78-10.27c0-6.11,4.58-10.43,11-10.43,4,0,7.15,1.64,8.71,4.74l-3.66,2.14a5.78,5.78,0,0,0-5.08-2.83,6.38,6.38,0,0,0,0,12.76A5.78,5.78,0,0,0,659.78,716.45Z"/><path class="cls-34" d="M684.64,711.14v12h-4.51v-2.49c-1.14,1.76-3.36,2.75-6.41,2.75-4.66,0-7.6-2.56-7.6-6.11s2.29-6.07,8.47-6.07h5.28v-.31c0-2.78-1.69-4.43-5.08-4.43a10.1,10.1,0,0,0-6.19,2L666.73,705a14.31,14.31,0,0,1,8.63-2.52C681.24,702.47,684.64,705.26,684.64,711.14Zm-13.18-11.46H668.9c.08-3.13,1.68-5.11,4.13-5.11s3.82,2.52,5.19,2.52c1.07,0,1.8-.81,1.87-2.18h2.56c-.07,3-1.68,5-4.12,5s-3.82-2.52-5.2-2.52C672.26,697.39,671.54,698.23,671.46,699.68Zm8.41,17v-2.37h-4.93c-3.25,0-4.13,1.22-4.13,2.71,0,1.72,1.45,2.83,3.9,2.83A5.21,5.21,0,0,0,679.87,716.72Z"/><path class="cls-34" d="M689.26,712.9c0-6.11,4.58-10.43,10.85-10.43S711,706.79,711,712.9s-4.54,10.46-10.88,10.46S689.26,719,689.26,712.9Zm16.92,0c0-3.9-2.6-6.38-6.07-6.38s-6,2.48-6,6.38,2.6,6.38,6,6.38S706.18,716.79,706.18,712.9Z"/><path class="cls-34" d="M746.05,702.7v27.81h-4.77v-9.9a8.39,8.39,0,0,1-6.53,2.75c-6,0-10.32-4.12-10.32-10.46s4.36-10.43,10.32-10.43a8.44,8.44,0,0,1,6.76,2.9V702.7Zm-4.7,10.2c0-3.9-2.59-6.38-6.07-6.38s-6,2.48-6,6.38,2.59,6.38,6,6.38S741.35,716.79,741.35,712.9Z"/><path class="cls-34" d="M772.06,702.7v20.4h-4.54v-2.6a8.35,8.35,0,0,1-6.57,2.86c-5.24,0-8.79-2.86-8.79-9V702.7h4.78v11c0,3.71,1.75,5.46,4.77,5.46,3.32,0,5.58-2.06,5.58-6.15V702.7Z"/><path class="cls-34" d="M797.42,714.43h-16c.57,3,3.05,4.88,6.61,4.88a7.29,7.29,0,0,0,5.53-2.21l2.56,2.94c-1.83,2.18-4.7,3.32-8.21,3.32-6.83,0-11.27-4.39-11.27-10.46a10.15,10.15,0,0,1,10.55-10.43c5.95,0,10.31,4.17,10.31,10.54C797.5,713.39,797.46,714,797.42,714.43Zm-16-3.17H793a5.55,5.55,0,0,0-5.76-5A5.64,5.64,0,0,0,781.38,711.26Z"/><path class="cls-34" d="M831.72,714.43h-16c.57,3,3,4.88,6.6,4.88a7.31,7.31,0,0,0,5.54-2.21l2.56,2.94c-1.83,2.18-4.7,3.32-8.21,3.32-6.84,0-11.27-4.39-11.27-10.46a10.15,10.15,0,0,1,10.54-10.43c6,0,10.31,4.17,10.31,10.54C831.79,713.39,831.76,714,831.72,714.43Zm-16-3.17h11.57a5.56,5.56,0,0,0-5.77-5A5.64,5.64,0,0,0,815.68,711.26Z"/><path class="cls-34" d="M848.79,723.1,843.56,716l-5.27,7.07H833L841,712.75l-7.6-10h5.31l5,6.69,5-6.69h5.15l-7.64,10,8,10.43Z"/><path class="cls-34" d="M857,696.48a2.91,2.91,0,0,1,3.06-2.87,2.85,2.85,0,0,1,3,2.75,3.06,3.06,0,0,1-6.11.12Zm.65,6.22h4.77v20.4h-4.77Z"/><path class="cls-34" d="M862,729.59l1.38-3.55a4.74,4.74,0,0,0,2.79.8c1.75,0,2.75-1.07,2.75-3.25V702.7h4.77v20.78c0,4.47-2.56,7.29-7.1,7.29A7.83,7.83,0,0,1,862,729.59Zm6.23-33.11a2.91,2.91,0,0,1,3.05-2.87,2.85,2.85,0,0,1,3.06,2.75,3.06,3.06,0,0,1-6.11.12Z"/><path class="cls-34" d="M897.07,711.14v12h-4.51v-2.49c-1.15,1.76-3.36,2.75-6.42,2.75-4.66,0-7.6-2.56-7.6-6.11s2.29-6.07,8.48-6.07h5.27v-.31c0-2.78-1.68-4.43-5.08-4.43a10.12,10.12,0,0,0-6.19,2L879.15,705a14.35,14.35,0,0,1,8.63-2.52C893.67,702.47,897.07,705.26,897.07,711.14Zm-4.78,5.58v-2.37h-4.93c-3.24,0-4.12,1.22-4.12,2.71,0,1.72,1.45,2.83,3.89,2.83A5.2,5.2,0,0,0,892.29,716.72Z"/><path class="cls-34" d="M933.46,702.7v20.4h-4.54v-2.6a8.35,8.35,0,0,1-6.57,2.86c-5.23,0-8.79-2.86-8.79-9V702.7h4.78v11c0,3.71,1.75,5.46,4.77,5.46,3.32,0,5.58-2.06,5.58-6.15V702.7Z"/><path class="cls-34" d="M973.83,711.41V723.1h-4.77V712c0-3.63-1.68-5.38-4.58-5.38-3.14,0-5.31,2.06-5.31,6.11V723.1h-4.78V712c0-3.63-1.68-5.38-4.58-5.38-3.17,0-5.31,2.06-5.31,6.11V723.1h-4.77V702.7h4.54v2.6a8.47,8.47,0,0,1,6.69-2.83c3,0,5.46,1.11,6.87,3.4a9.52,9.52,0,0,1,7.64-3.4C970.4,702.47,973.83,705.26,973.83,711.41Z"/><path class="cls-34" d="M988.8,712.9c0-6.11,4.59-10.43,11-10.43,4,0,7.14,1.64,8.71,4.74l-3.67,2.14a5.76,5.76,0,0,0-5.08-2.83,6,6,0,0,0-6.18,6.38c0,4,2.67,6.38,6.18,6.38a5.76,5.76,0,0,0,5.08-2.83l3.67,2.14c-1.57,3-4.74,4.77-8.71,4.77C993.39,723.36,988.8,719,988.8,712.9Z"/><path class="cls-34" d="M1029.75,711.14v12h-4.51v-2.49c-1.15,1.76-3.36,2.75-6.42,2.75-4.66,0-7.6-2.56-7.6-6.11s2.29-6.07,8.48-6.07H1025v-.31c0-2.78-1.68-4.43-5.08-4.43a10.07,10.07,0,0,0-6.18,2l-1.88-3.48a14.36,14.36,0,0,1,8.64-2.52C1026.35,702.47,1029.75,705.26,1029.75,711.14Zm-4.78,5.58v-2.37h-4.92c-3.25,0-4.13,1.22-4.13,2.71,0,1.72,1.45,2.83,3.9,2.83A5.19,5.19,0,0,0,1025,716.72Z"/><path class="cls-34" d="M1056,711.41V723.1h-4.78V712c0-3.63-1.79-5.38-4.85-5.38-3.4,0-5.69,2.06-5.69,6.14V723.1h-4.77V702.7h4.54v2.64a8.89,8.89,0,0,1,7-2.87C1052.32,702.47,1056,705.26,1056,711.41Z"/><path class="cls-34" d="M1079.09,711.14v12h-4.51v-2.49c-1.14,1.76-3.36,2.75-6.41,2.75-4.66,0-7.6-2.56-7.6-6.11s2.29-6.07,8.48-6.07h5.27v-.31c0-2.78-1.68-4.43-5.08-4.43a10.12,10.12,0,0,0-6.19,2l-1.87-3.48a14.35,14.35,0,0,1,8.63-2.52C1075.69,702.47,1079.09,705.26,1079.09,711.14Zm-4.77,5.58v-2.37h-4.93c-3.25,0-4.12,1.22-4.12,2.71,0,1.72,1.45,2.83,3.89,2.83A5.2,5.2,0,0,0,1074.32,716.72Z"/><path class="cls-34" d="M1085.2,694.76H1090V723.1h-4.78Z"/><path class="cls-34" d="M1100.9,720.19a8.61,8.61,0,0,1-.88,3.29l-2,5.38H1095l1.53-5.84a2.94,2.94,0,0,1-1.8-2.83,3.1,3.1,0,1,1,6.19,0Z"/><path class="cls-34" d="M245.58,759.58c0-6.11,4.58-10.43,11-10.43,4,0,7.15,1.65,8.71,4.74L261.66,756a5.78,5.78,0,0,0-5.08-2.83,6.38,6.38,0,0,0,0,12.76,5.78,5.78,0,0,0,5.08-2.83l3.66,2.14c-1.56,3.06-4.73,4.77-8.71,4.77C250.16,770,245.58,765.69,245.58,759.58Z"/><path class="cls-34" d="M267.46,759.58c0-6.11,4.58-10.43,10.85-10.43s10.88,4.32,10.88,10.43S284.65,770,278.31,770,267.46,765.69,267.46,759.58Zm16.92,0c0-3.9-2.6-6.38-6.07-6.38s-6,2.48-6,6.38,2.6,6.38,6,6.38S284.38,763.48,284.38,759.58Z"/><path class="cls-34" d="M327.88,758.09v11.69h-4.77V758.7c0-3.63-1.68-5.38-4.59-5.38-3.13,0-5.3,2.06-5.3,6.11v10.35h-4.78V758.7c0-3.63-1.68-5.38-4.58-5.38-3.17,0-5.31,2.06-5.31,6.11v10.35h-4.77v-20.4h4.54V752a8.47,8.47,0,0,1,6.68-2.83c3,0,5.47,1.11,6.88,3.4a9.52,9.52,0,0,1,7.64-3.4C324.44,749.15,327.88,751.94,327.88,758.09Z"/><path class="cls-34" d="M332.5,759.58c0-6.11,4.59-10.43,10.85-10.43s10.88,4.32,10.88,10.43S349.69,770,343.35,770,332.5,765.69,332.5,759.58Zm16.92,0c0-3.9-2.59-6.38-6.07-6.38s-6,2.48-6,6.38,2.59,6.38,6,6.38S349.42,763.48,349.42,759.58Z"/><path class="cls-34" d="M388.46,761.11h-16c.57,3,3.06,4.89,6.61,4.89a7.32,7.32,0,0,0,5.54-2.22l2.56,2.94c-1.84,2.18-4.7,3.32-8.22,3.32-6.83,0-11.26-4.39-11.26-10.46a10.15,10.15,0,0,1,10.54-10.43c6,0,10.31,4.17,10.31,10.54C388.53,760.08,388.49,760.65,388.46,761.11Zm-16-3.17H384a5.57,5.57,0,0,0-5.77-5A5.65,5.65,0,0,0,372.41,757.94Z"/><path class="cls-34" d="M413.2,758.09v11.69h-4.77V758.7c0-3.63-1.8-5.38-4.85-5.38-3.4,0-5.69,2.06-5.69,6.14v10.32h-4.78v-20.4h4.55V752a8.87,8.87,0,0,1,7-2.87C409.58,749.15,413.2,751.94,413.2,758.09Z"/><path class="cls-34" d="M438,749.38l-8.74,20.4h-4.93l-8.75-20.4h5l6.34,15.13,6.53-15.13Z"/><path class="cls-34" d="M440.32,743.16a2.91,2.91,0,0,1,3.06-2.87,2.85,2.85,0,0,1,3.05,2.75,3.06,3.06,0,0,1-6.11.12Zm.65,6.22h4.77v20.4H441Z"/><path class="cls-34" d="M469.08,757.82v12h-4.51v-2.49c-1.14,1.76-3.36,2.75-6.41,2.75-4.66,0-7.6-2.56-7.6-6.11,0-3.4,2.29-6.07,8.47-6.07h5.27v-.3c0-2.79-1.68-4.44-5.07-4.44a10.1,10.1,0,0,0-6.19,2l-1.87-3.48a14.31,14.31,0,0,1,8.63-2.52C465.68,749.15,469.08,751.94,469.08,757.82Zm-4.78,5.58V761h-4.92c-3.25,0-4.13,1.22-4.13,2.71,0,1.72,1.45,2.83,3.9,2.83A5.19,5.19,0,0,0,464.3,763.4Z"/><path class="cls-34" d="M487,749.15v4.55a5.77,5.77,0,0,0-1.11-.12c-3.63,0-5.92,2.14-5.92,6.31v9.89h-4.77v-20.4h4.54v3C481.11,750.22,483.59,749.15,487,749.15Z"/><path class="cls-34" d="M521.52,749.38v20.4H517v-2.6A8.33,8.33,0,0,1,510.4,770c-5.23,0-8.78-2.86-8.78-9V749.38h4.77v11c0,3.71,1.76,5.46,4.78,5.46,3.32,0,5.57-2.06,5.57-6.15V749.38Z"/><path class="cls-34" d="M561.89,758.09v11.69h-4.78V758.7c0-3.63-1.68-5.38-4.58-5.38-3.13,0-5.31,2.06-5.31,6.11v10.35h-4.77V758.7c0-3.63-1.68-5.38-4.59-5.38-3.17,0-5.3,2.06-5.3,6.11v10.35h-4.78v-20.4h4.55V752a8.44,8.44,0,0,1,6.68-2.83c3,0,5.46,1.11,6.87,3.4a9.54,9.54,0,0,1,7.64-3.4C558.45,749.15,561.89,751.94,561.89,758.09Z"/><path class="cls-34" d="M597.64,749.38l-8.75,20.4H584l-8.74-20.4h5l6.34,15.13,6.53-15.13Z"/><path class="cls-34" d="M605,741.36h5.61l-6.64,5.23h-4.13Zm-4.36,8h4.78v20.4h-4.78Z"/><path class="cls-34" d="M631.63,741.44v28.34H627v-2.64a8.39,8.39,0,0,1-6.76,2.9c-5.92,0-10.31-4.12-10.31-10.46s4.39-10.43,10.31-10.43a8.35,8.35,0,0,1,6.57,2.75V741.44Zm-4.7,18.14c0-3.9-2.64-6.38-6.07-6.38s-6.08,2.48-6.08,6.38,2.64,6.38,6.08,6.38S626.93,763.48,626.93,759.58Z"/><path class="cls-34" d="M657,761.11H641c.58,3,3.06,4.89,6.61,4.89a7.32,7.32,0,0,0,5.54-2.22l2.56,2.94c-1.84,2.18-4.7,3.32-8.21,3.32-6.84,0-11.27-4.39-11.27-10.46a10.15,10.15,0,0,1,10.54-10.43c6,0,10.31,4.17,10.31,10.54C657.06,760.08,657,760.65,657,761.11Zm-16-3.17h11.57a5.56,5.56,0,0,0-5.77-5A5.63,5.63,0,0,0,641,757.94Z"/><path class="cls-34" d="M660,759.58c0-6.11,4.59-10.43,10.85-10.43s10.89,4.32,10.89,10.43S677.15,770,670.81,770,660,765.69,660,759.58Zm16.92,0c0-3.9-2.59-6.38-6.07-6.38s-6,2.48-6,6.38,2.59,6.38,6,6.38S676.88,763.48,676.88,759.58Z"/><path class="cls-34" d="M695.14,759.58c0-6.11,4.58-10.43,10.85-10.43s10.88,4.32,10.88,10.43S712.33,770,706,770,695.14,765.69,695.14,759.58Zm16.92,0c0-3.9-2.6-6.38-6.07-6.38s-6,2.48-6,6.38,2.6,6.38,6,6.38S712.06,763.48,712.06,759.58Z"/><path class="cls-34" d="M741.2,749.38v20.4h-4.54v-2.6a8.35,8.35,0,0,1-6.57,2.86c-5.24,0-8.79-2.86-8.79-9V749.38h4.78v11c0,3.71,1.75,5.46,4.77,5.46,3.32,0,5.58-2.06,5.58-6.15V749.38Z"/><path class="cls-34" d="M779.66,759.58c0,6.34-4.39,10.46-10.35,10.46a8.34,8.34,0,0,1-6.53-2.75v9.9H758V749.38h4.55v2.68a8.4,8.4,0,0,1,6.76-2.91C775.27,749.15,779.66,753.28,779.66,759.58Zm-4.85,0c0-3.9-2.6-6.38-6-6.38s-6.08,2.48-6.08,6.38,2.64,6.38,6.08,6.38S774.81,763.48,774.81,759.58Z"/><path class="cls-34" d="M782.52,759.58c0-6.11,4.59-10.43,10.85-10.43s10.89,4.32,10.89,10.43S799.71,770,793.37,770,782.52,765.69,782.52,759.58Zm16.92,0c0-3.9-2.59-6.38-6.07-6.38s-6,2.48-6,6.38,2.59,6.38,6,6.38S799.44,763.48,799.44,759.58Z"/><path class="cls-34" d="M806.51,767.75l1.83-3.63a13.7,13.7,0,0,0,7.11,2c3,0,4.27-.84,4.27-2.26,0-3.89-12.6-.22-12.6-8.36,0-3.86,3.48-6.38,9-6.38a16.16,16.16,0,0,1,7.63,1.76l-1.83,3.63a11.14,11.14,0,0,0-5.84-1.53c-2.91,0-4.28,1-4.28,2.29,0,4.13,12.6.46,12.6,8.44,0,3.82-3.51,6.3-9.24,6.3A16.17,16.17,0,0,1,806.51,767.75Z"/><path class="cls-34" d="M840.77,768.67a7.49,7.49,0,0,1-4.58,1.37c-4.47,0-7-2.36-7-6.87v-9.82H825.8v-3.82h3.36v-4.65h4.77v4.65h5.46v3.82h-5.46v9.71c0,2,1,3.05,2.83,3.05a4.3,4.3,0,0,0,2.67-.84Z"/><path class="cls-34" d="M861.77,757.82v12h-4.5v-2.49c-1.15,1.76-3.36,2.75-6.42,2.75-4.66,0-7.6-2.56-7.6-6.11,0-3.4,2.29-6.07,8.48-6.07H857v-.3c0-2.79-1.68-4.44-5.08-4.44a10.12,10.12,0,0,0-6.19,2l-1.87-3.48a14.35,14.35,0,0,1,8.63-2.52C858.38,749.15,861.77,751.94,861.77,757.82ZM857,763.4V761h-4.93c-3.24,0-4.12,1.22-4.12,2.71,0,1.72,1.45,2.83,3.89,2.83A5.2,5.2,0,0,0,857,763.4Z"/><path class="cls-34" d="M879.69,749.15v4.55a5.85,5.85,0,0,0-1.11-.12c-3.63,0-5.92,2.14-5.92,6.31v9.89h-4.77v-20.4h4.54v3C873.81,750.22,876.29,749.15,879.69,749.15Z"/><path class="cls-34" d="M914.21,749.38v20.4h-4.54v-2.6A8.35,8.35,0,0,1,903.1,770c-5.23,0-8.78-2.86-8.78-9V749.38h4.77v11c0,3.71,1.76,5.46,4.77,5.46,3.33,0,5.58-2.06,5.58-6.15V749.38Z"/><path class="cls-34" d="M954.58,758.09v11.69h-4.77V758.7c0-3.63-1.68-5.38-4.58-5.38-3.14,0-5.31,2.06-5.31,6.11v10.35h-4.78V758.7c0-3.63-1.68-5.38-4.58-5.38-3.17,0-5.31,2.06-5.31,6.11v10.35h-4.77v-20.4H925V752a8.47,8.47,0,0,1,6.69-2.83c3,0,5.46,1.11,6.87,3.4a9.52,9.52,0,0,1,7.64-3.4C951.15,749.15,954.58,751.94,954.58,758.09Z"/><path class="cls-34" d="M969.55,759.58c0-6.11,4.59-10.43,11-10.43,4,0,7.14,1.65,8.71,4.74L985.63,756a5.76,5.76,0,0,0-5.08-2.83,6,6,0,0,0-6.18,6.38c0,4,2.67,6.38,6.18,6.38a5.76,5.76,0,0,0,5.08-2.83l3.67,2.14c-1.57,3.06-4.74,4.77-8.71,4.77C974.14,770,969.55,765.69,969.55,759.58Z"/><path class="cls-34" d="M991.44,759.58c0-6.11,4.58-10.43,10.85-10.43s10.88,4.32,10.88,10.43S1008.63,770,1002.29,770,991.44,765.69,991.44,759.58Zm16.92,0c0-3.9-2.6-6.38-6.07-6.38s-6,2.48-6,6.38,2.6,6.38,6,6.38S1008.36,763.48,1008.36,759.58Z"/><path class="cls-34" d="M1051.86,758.09v11.69h-4.78V758.7c0-3.63-1.68-5.38-4.58-5.38-3.13,0-5.31,2.06-5.31,6.11v10.35h-4.77V758.7c0-3.63-1.68-5.38-4.58-5.38-3.17,0-5.31,2.06-5.31,6.11v10.35h-4.78v-20.4h4.55V752a8.45,8.45,0,0,1,6.68-2.83c3,0,5.46,1.11,6.88,3.4a9.52,9.52,0,0,1,7.64-3.4C1048.42,749.15,1051.86,751.94,1051.86,758.09Z"/><path class="cls-34" d="M1077.26,761.11h-16c.58,3,3.06,4.89,6.61,4.89a7.32,7.32,0,0,0,5.54-2.22l2.56,2.94c-1.83,2.18-4.7,3.32-8.21,3.32-6.84,0-11.27-4.39-11.27-10.46A10.15,10.15,0,0,1,1067,749.15c6,0,10.31,4.17,10.31,10.54C1077.33,760.08,1077.3,760.65,1077.26,761.11Zm-16-3.17h11.57a5.56,5.56,0,0,0-5.77-5A5.63,5.63,0,0,0,1061.22,757.94Z"/><path class="cls-34" d="M1102,758.09v11.69h-4.78V758.7c0-3.63-1.79-5.38-4.85-5.38-3.4,0-5.69,2.06-5.69,6.14v10.32h-4.77v-20.4h4.54V752a8.89,8.89,0,0,1,7-2.87C1098.38,749.15,1102,751.94,1102,758.09Z"/><path class="cls-34" d="M1120.34,768.67a7.49,7.49,0,0,1-4.58,1.37c-4.47,0-7-2.36-7-6.87v-9.82h-3.36v-3.82h3.36v-4.65h4.77v4.65H1119v3.82h-5.46v9.71c0,2,1,3.05,2.83,3.05a4.3,4.3,0,0,0,2.67-.84Z"/><path class="cls-34" d="M1141.34,757.82v12h-4.5v-2.49c-1.15,1.76-3.36,2.75-6.42,2.75-4.66,0-7.6-2.56-7.6-6.11,0-3.4,2.29-6.07,8.48-6.07h5.27v-.3c0-2.79-1.68-4.44-5.08-4.44a10.12,10.12,0,0,0-6.19,2l-1.87-3.48a14.35,14.35,0,0,1,8.63-2.52C1138,749.15,1141.34,751.94,1141.34,757.82Zm-4.77,5.58V761h-4.93c-3.24,0-4.12,1.22-4.12,2.71,0,1.72,1.45,2.83,3.89,2.83A5.2,5.2,0,0,0,1136.57,763.4Zm-3.17-16.81h-4.12l5.15-5.23h5.62Z"/><path class="cls-34" d="M1159.26,749.15v4.55a5.85,5.85,0,0,0-1.11-.12c-3.63,0-5.92,2.14-5.92,6.31v9.89h-4.77v-20.4H1152v3C1153.38,750.22,1155.86,749.15,1159.26,749.15Z"/><path class="cls-34" d="M1162.66,743.16a2.91,2.91,0,0,1,3-2.87,2.85,2.85,0,0,1,3.06,2.75,3.06,3.06,0,0,1-6.11.12Zm.65,6.22h4.77v20.4h-4.77Z"/><path class="cls-34" d="M1172.66,759.58c0-6.11,4.59-10.43,10.85-10.43s10.88,4.32,10.88,10.43S1189.85,770,1183.51,770,1172.66,765.69,1172.66,759.58Zm16.92,0c0-3.9-2.59-6.38-6.07-6.38s-6,2.48-6,6.38,2.59,6.38,6,6.38S1189.58,763.48,1189.58,759.58Z"/><path class="cls-34" d="M1197,766.87a3.13,3.13,0,1,1,6.26,0,3.13,3.13,0,1,1-6.26,0Z"/><circle class="cls-2" cx="130.95" cy="976.07" r="70.67"/><circle class="cls-1" cx="130.95" cy="976.07" r="62.04"/><path class="cls-34" d="M103.27,960.46c1.4-9.81,9.22-23,31.51-23,20.07,0,30,9.8,30,22.17A15.69,15.69,0,0,1,153.92,975v.24c5.49,1.87,13.89,6.53,13.89,19,0,14-11.09,24.62-33.26,24.62-21.59,0-31.16-11.43-33-24.5h18.91c1.52,5.72,5.83,9.8,15,9.8,7.94,0,13-3.5,13-10.62,0-6.89-4.56-10.27-13.77-10.27h-6.54v-14.7h4.79c9.22,0,12.48-2.34,12.48-7.82,0-5-3.15-9-11.32-9s-11.08,4.44-12,8.64Z"/><path class="cls-2" d="M95.83,956.21c1.4-9.81,9.22-23,31.51-23,20.07,0,30,9.8,30,22.17a15.69,15.69,0,0,1-10.86,15.4V971c5.49,1.86,13.89,6.53,13.89,19,0,14-11.09,24.62-33.26,24.62-21.59,0-31.16-11.43-33-24.5H113c1.52,5.71,5.83,9.8,15,9.8,7.94,0,13-3.5,13-10.62,0-6.89-4.55-10.27-13.77-10.27h-6.54v-14.7h4.79c9.22,0,12.48-2.34,12.48-7.82,0-5-3.15-9-11.32-9s-11.08,4.43-12,8.64Z"/><path class="cls-34" d="M245.46,961.07l1.72-3.85a14.81,14.81,0,0,0,8.82,2.94c4.17,0,5.92-1.49,5.92-3.48,0-5.76-15.89-2-15.89-11.91,0-4.32,3.44-8,10.77-8a16.88,16.88,0,0,1,8.9,2.37L264.14,943a14.89,14.89,0,0,0-7.37-2.1c-4.13,0-5.81,1.6-5.81,3.63,0,5.69,15.85,2,15.85,11.8,0,4.28-3.47,7.94-10.81,7.94C251.84,964.28,247.68,963,245.46,961.07Z"/><path class="cls-34" d="M290.38,955.23h-16c.58,3,3.06,4.89,6.61,4.89a7.32,7.32,0,0,0,5.54-2.22l2.56,3c-1.83,2.17-4.7,3.32-8.21,3.32-6.84,0-11.27-4.39-11.27-10.47a10.14,10.14,0,0,1,10.54-10.42c6,0,10.31,4.16,10.31,10.54C290.45,954.2,290.42,954.77,290.38,955.23Zm-16-3.17h11.57a5.55,5.55,0,0,0-5.77-5A5.62,5.62,0,0,0,274.34,952.06Z"/><path class="cls-34" d="M324.67,943.51l-8.74,20.39H311l-8.75-20.39h5l6.34,15.12,6.53-15.12Z"/><path class="cls-34" d="M325.4,953.7c0-6.11,4.58-10.42,10.85-10.42s10.88,4.31,10.88,10.42-4.55,10.47-10.88,10.47S325.4,959.81,325.4,953.7Zm16.92,0c0-3.89-2.6-6.37-6.07-6.37s-6,2.48-6,6.37,2.6,6.38,6,6.38S342.32,957.6,342.32,953.7Z"/><path class="cls-34" d="M350,953.7c0-6.11,4.59-10.42,11-10.42,4,0,7.14,1.64,8.71,4.73l-3.67,2.14a5.75,5.75,0,0,0-5.08-2.82,6.38,6.38,0,0,0,0,12.75,5.77,5.77,0,0,0,5.08-2.82l3.67,2.13c-1.57,3.06-4.74,4.78-8.71,4.78C354.62,964.17,350,959.81,350,953.7Z"/><path class="cls-34" d="M392.69,955.23h-16c.57,3,3.06,4.89,6.61,4.89a7.33,7.33,0,0,0,5.54-2.22l2.56,3c-1.84,2.17-4.7,3.32-8.22,3.32-6.83,0-11.26-4.39-11.26-10.47a10.14,10.14,0,0,1,10.54-10.42c6,0,10.31,4.16,10.31,10.54C392.77,954.2,392.73,954.77,392.69,955.23ZM379,940.72h-3.93l5.12-5.23h4.35l5.12,5.23h-3.93l-3.37-2.83Zm-2.33,11.34h11.58a5.56,5.56,0,0,0-5.77-5A5.63,5.63,0,0,0,376.65,952.06Z"/><path class="cls-34" d="M425,952V963.9h-4.51v-2.48c-1.15,1.76-3.36,2.75-6.42,2.75-4.66,0-7.6-2.56-7.6-6.11,0-3.4,2.29-6.08,8.48-6.08h5.27v-.3c0-2.79-1.68-4.43-5.08-4.43a10.06,10.06,0,0,0-6.18,2l-1.88-3.47a14.36,14.36,0,0,1,8.64-2.52C421.57,943.28,425,946.06,425,952Zm-4.78,5.57v-2.37h-4.92c-3.25,0-4.13,1.23-4.13,2.72,0,1.72,1.45,2.82,3.9,2.82A5.19,5.19,0,0,0,420.19,957.52Z"/><path class="cls-34" d="M430.43,937.28a2.91,2.91,0,0,1,3.05-2.86,2.84,2.84,0,0,1,3.06,2.75,3.06,3.06,0,0,1-6.11.11Zm.65,6.23h4.77V963.9h-4.77Z"/><path class="cls-34" d="M462.21,952.21V963.9h-4.78V952.82c0-3.62-1.79-5.38-4.85-5.38-3.4,0-5.69,2.06-5.69,6.15V963.9h-4.77V943.51h4.54v2.63a8.88,8.88,0,0,1,7-2.86C458.58,943.28,462.21,946.06,462.21,952.21Z"/><path class="cls-34" d="M488.44,935.56V963.9h-4.58v-2.63a8.44,8.44,0,0,1-6.76,2.9c-5.92,0-10.31-4.13-10.31-10.47s4.39-10.42,10.31-10.42a8.34,8.34,0,0,1,6.57,2.75V935.56Zm-4.69,18.14c0-3.89-2.64-6.37-6.08-6.37s-6.07,2.48-6.07,6.37,2.63,6.38,6.07,6.38S483.75,957.6,483.75,953.7Z"/><path class="cls-34" d="M511.78,952V963.9h-4.51v-2.48c-1.14,1.76-3.36,2.75-6.41,2.75-4.66,0-7.61-2.56-7.61-6.11,0-3.4,2.3-6.08,8.48-6.08H507v-.3c0-2.79-1.68-4.43-5.08-4.43a10.06,10.06,0,0,0-6.18,2l-1.87-3.47a14.31,14.31,0,0,1,8.63-2.52C508.38,943.28,511.78,946.06,511.78,952ZM507,957.52v-2.37h-4.92c-3.25,0-4.13,1.23-4.13,2.72,0,1.72,1.45,2.82,3.9,2.82A5.19,5.19,0,0,0,507,957.52Z"/><path class="cls-34" d="M548.52,952.21V963.9h-4.77V952.82c0-3.62-1.8-5.38-4.86-5.38-3.39,0-5.69,2.06-5.69,6.15V963.9h-4.77V943.51H533v2.63a8.88,8.88,0,0,1,7-2.86C544.89,943.28,548.52,946.06,548.52,952.21Z"/><path class="cls-34" d="M571.66,952V963.9h-4.5v-2.48c-1.15,1.76-3.36,2.75-6.42,2.75-4.66,0-7.6-2.56-7.6-6.11,0-3.4,2.29-6.08,8.48-6.08h5.27v-.3c0-2.79-1.68-4.43-5.08-4.43a10.11,10.11,0,0,0-6.19,2l-1.87-3.47a14.35,14.35,0,0,1,8.63-2.52C568.26,943.28,571.66,946.06,571.66,952Zm-13.17-11.46h-2.56c.07-3.13,1.68-5.12,4.12-5.12s3.82,2.52,5.2,2.52c1.07,0,1.79-.8,1.87-2.18h2.56c-.08,3-1.68,5-4.13,5s-3.82-2.52-5.19-2.52C559.29,938.2,558.56,939,558.49,940.49Zm8.4,17v-2.37H562c-3.24,0-4.12,1.23-4.12,2.72,0,1.72,1.45,2.82,3.89,2.82A5.2,5.2,0,0,0,566.89,957.52Z"/><path class="cls-34" d="M576.29,953.7c0-6.11,4.58-10.42,10.84-10.42S598,947.59,598,953.7s-4.55,10.47-10.89,10.47S576.29,959.81,576.29,953.7Zm16.92,0c0-3.89-2.6-6.37-6.08-6.37s-6,2.48-6,6.37,2.59,6.38,6,6.38S593.21,957.6,593.21,953.7Z"/><path class="cls-34" d="M625.4,962.79a7.48,7.48,0,0,1-4.58,1.38c-4.47,0-7-2.37-7-6.88v-9.81h-3.36v-3.82h3.36V939h4.77v4.66H624v3.82h-5.47v9.7c0,2,1,3.05,2.83,3.05a4.23,4.23,0,0,0,2.67-.84Z"/><path class="cls-34" d="M647.74,955.23h-16c.57,3,3.06,4.89,6.61,4.89a7.33,7.33,0,0,0,5.54-2.22l2.56,3c-1.84,2.17-4.7,3.32-8.22,3.32-6.83,0-11.26-4.39-11.26-10.47a10.14,10.14,0,0,1,10.54-10.42c6,0,10.31,4.16,10.31,10.54C647.82,954.2,647.78,954.77,647.74,955.23Zm-16-3.17h11.58a5.56,5.56,0,0,0-5.77-5A5.63,5.63,0,0,0,631.7,952.06Z"/><path class="cls-34" d="M686.51,952.21V963.9h-4.77V952.82c0-3.62-1.69-5.38-4.59-5.38-3.13,0-5.31,2.06-5.31,6.11V963.9h-4.77V952.82c0-3.62-1.68-5.38-4.58-5.38-3.17,0-5.31,2.06-5.31,6.11V963.9H652.4V943.51H657v2.59a8.45,8.45,0,0,1,6.68-2.82c3,0,5.46,1.1,6.88,3.4a9.52,9.52,0,0,1,7.64-3.4C683.07,943.28,686.51,946.06,686.51,952.21Z"/><path class="cls-34" d="M722.91,943.51V963.9h-4.55v-2.6a8.31,8.31,0,0,1-6.57,2.87c-5.23,0-8.78-2.87-8.78-9V943.51h4.77v11c0,3.7,1.76,5.46,4.78,5.46,3.32,0,5.57-2.07,5.57-6.15V943.51Z"/><path class="cls-34" d="M763.28,952.21V963.9H758.5V952.82c0-3.62-1.68-5.38-4.58-5.38-3.13,0-5.31,2.06-5.31,6.11V963.9h-4.77V952.82c0-3.62-1.68-5.38-4.59-5.38-3.17,0-5.31,2.06-5.31,6.11V963.9h-4.77V943.51h4.54v2.59a8.47,8.47,0,0,1,6.69-2.82c3,0,5.46,1.1,6.87,3.4a9.54,9.54,0,0,1,7.64-3.4C759.84,943.28,763.28,946.06,763.28,952.21Z"/><path class="cls-34" d="M778.25,953.7c0-6.11,4.58-10.42,11-10.42,4,0,7.14,1.64,8.7,4.73l-3.66,2.14a5.77,5.77,0,0,0-5.08-2.82,6,6,0,0,0-6.19,6.37c0,4,2.67,6.38,6.19,6.38a5.8,5.8,0,0,0,5.08-2.82l3.66,2.13c-1.56,3.06-4.73,4.78-8.7,4.78C782.83,964.17,778.25,959.81,778.25,953.7Z"/><path class="cls-34" d="M819.19,952V963.9h-4.51v-2.48c-1.14,1.76-3.36,2.75-6.41,2.75-4.66,0-7.6-2.56-7.6-6.11,0-3.4,2.29-6.08,8.48-6.08h5.27v-.3c0-2.79-1.68-4.43-5.08-4.43a10.09,10.09,0,0,0-6.19,2l-1.87-3.47a14.35,14.35,0,0,1,8.63-2.52C815.79,943.28,819.19,946.06,819.19,952Zm-4.77,5.57v-2.37h-4.93c-3.25,0-4.13,1.23-4.13,2.72,0,1.72,1.46,2.82,3.9,2.82A5.21,5.21,0,0,0,814.42,957.52Z"/><path class="cls-34" d="M845.39,952.21V963.9h-4.77V952.82c0-3.62-1.8-5.38-4.85-5.38-3.4,0-5.69,2.06-5.69,6.15V963.9H825.3V943.51h4.55v2.63a8.84,8.84,0,0,1,7-2.86C841.76,943.28,845.39,946.06,845.39,952.21Z"/><path class="cls-34" d="M868.54,952V963.9H864v-2.48c-1.15,1.76-3.36,2.75-6.42,2.75-4.66,0-7.6-2.56-7.6-6.11,0-3.4,2.29-6.08,8.48-6.08h5.27v-.3c0-2.79-1.68-4.43-5.08-4.43a10.11,10.11,0,0,0-6.19,2l-1.87-3.47a14.35,14.35,0,0,1,8.63-2.52C865.14,943.28,868.54,946.06,868.54,952Zm-4.78,5.57v-2.37h-4.93c-3.24,0-4.12,1.23-4.12,2.72,0,1.72,1.45,2.82,3.89,2.82A5.2,5.2,0,0,0,863.76,957.52Z"/><path class="cls-34" d="M874.65,935.56h4.77V963.9h-4.77Z"/><path class="cls-34" d="M890.34,961a8.53,8.53,0,0,1-.88,3.28l-1.94,5.39h-3.1l1.53-5.85a2.92,2.92,0,0,1-1.79-2.82,3.09,3.09,0,1,1,6.18,0Z"/><path class="cls-34" d="M266.35,990.19l-8.74,20.39h-4.93l-8.75-20.39h5l6.34,15.12,6.53-15.12Z"/><path class="cls-34" d="M287.86,1001.91h-16c.57,3,3.06,4.89,6.61,4.89a7.34,7.34,0,0,0,5.54-2.21l2.56,2.94c-1.84,2.17-4.7,3.32-8.22,3.32-6.83,0-11.26-4.39-11.26-10.47A10.14,10.14,0,0,1,277.62,990c6,0,10.31,4.16,10.31,10.54C287.93,1000.88,287.89,1001.45,287.86,1001.91Zm-16.05-3.17h11.58a5.56,5.56,0,0,0-5.77-5A5.64,5.64,0,0,0,271.81,998.74Z"/><path class="cls-34" d="M304.32,990v4.54a6.7,6.7,0,0,0-1.11-.11c-3.63,0-5.92,2.14-5.92,6.3v9.89h-4.78V990.19h4.55v3C298.43,991,300.92,990,304.32,990Z"/><path class="cls-34" d="M325.32,998.63v12h-4.5v-2.48c-1.15,1.76-3.36,2.75-6.42,2.75-4.66,0-7.6-2.56-7.6-6.11s2.29-6.07,8.48-6.07h5.27v-.31c0-2.79-1.68-4.43-5.08-4.43a10.11,10.11,0,0,0-6.19,2l-1.87-3.47A14.35,14.35,0,0,1,316,990C321.92,990,325.32,992.75,325.32,998.63Zm-4.77,5.57v-2.36h-4.93c-3.24,0-4.12,1.22-4.12,2.71,0,1.72,1.45,2.82,3.89,2.82A5.2,5.2,0,0,0,320.55,1004.2Zm-3.17-16.8h-4.13l5.16-5.23H324Z"/><path class="cls-34" d="M361.72,990.19v20.39h-4.54V1008a8.32,8.32,0,0,1-6.57,2.87c-5.24,0-8.79-2.87-8.79-9V990.19h4.78v11c0,3.7,1.75,5.46,4.77,5.46,3.32,0,5.58-2.06,5.58-6.15V990.19Z"/><path class="cls-34" d="M402.09,998.89v11.69h-4.77V999.51c0-3.63-1.68-5.39-4.59-5.39-3.13,0-5.31,2.06-5.31,6.11v10.35h-4.77V999.51c0-3.63-1.68-5.39-4.58-5.39-3.17,0-5.31,2.06-5.31,6.11v10.35H368V990.19h4.55v2.59a8.45,8.45,0,0,1,6.68-2.82c3,0,5.46,1.1,6.88,3.4a9.52,9.52,0,0,1,7.64-3.4C398.65,990,402.09,992.75,402.09,998.89Z"/><path class="cls-34" d="M425.27,998.63v12h-4.5v-2.48c-1.15,1.76-3.36,2.75-6.42,2.75-4.66,0-7.6-2.56-7.6-6.11s2.29-6.07,8.48-6.07h5.27v-.31c0-2.79-1.68-4.43-5.08-4.43a10.11,10.11,0,0,0-6.19,2l-1.87-3.47A14.35,14.35,0,0,1,416,990C421.87,990,425.27,992.75,425.27,998.63Zm-4.77,5.57v-2.36h-4.93c-3.24,0-4.12,1.22-4.12,2.71,0,1.72,1.45,2.82,3.89,2.82A5.2,5.2,0,0,0,420.5,1004.2Z"/><path class="cls-34" d="M476,998.89v11.69h-4.77V999.51c0-3.63-1.68-5.39-4.59-5.39-3.13,0-5.3,2.06-5.3,6.11v10.35h-4.78V999.51c0-3.63-1.68-5.39-4.58-5.39-3.17,0-5.31,2.06-5.31,6.11v10.35h-4.78V990.19h4.55v2.59a8.46,8.46,0,0,1,6.68-2.82c3,0,5.47,1.1,6.88,3.4a9.52,9.52,0,0,1,7.64-3.4C472.59,990,476,992.75,476,998.89Z"/><path class="cls-34" d="M501.43,1001.91h-16c.57,3,3.05,4.89,6.6,4.89a7.34,7.34,0,0,0,5.54-2.21l2.56,2.94c-1.83,2.17-4.7,3.32-8.21,3.32-6.84,0-11.27-4.39-11.27-10.47A10.14,10.14,0,0,1,491.19,990c6,0,10.31,4.16,10.31,10.54C501.5,1000.88,501.47,1001.45,501.43,1001.91Zm-16-3.17H497a5.55,5.55,0,0,0-5.77-5A5.63,5.63,0,0,0,485.39,998.74Z"/><path class="cls-34" d="M526.18,998.89v11.69H521.4V999.51c0-3.63-1.79-5.39-4.85-5.39-3.4,0-5.69,2.06-5.69,6.15v10.31h-4.77V990.19h4.54v2.63a8.88,8.88,0,0,1,7-2.86C522.55,990,526.18,992.75,526.18,998.89Z"/><path class="cls-34" d="M529.92,1008.56l1.83-3.63a13.79,13.79,0,0,0,7.11,2c3,0,4.28-.84,4.28-2.25,0-3.9-12.61-.23-12.61-8.36,0-3.86,3.48-6.38,9-6.38a16.35,16.35,0,0,1,7.64,1.75l-1.84,3.63a11.19,11.19,0,0,0-5.84-1.53c-2.9,0-4.28,1-4.28,2.3,0,4.12,12.6.45,12.6,8.44,0,3.82-3.51,6.3-9.24,6.3A16.17,16.17,0,0,1,529.92,1008.56Z"/><path class="cls-34" d="M569,998.63v12h-4.5v-2.48c-1.15,1.76-3.37,2.75-6.42,2.75-4.66,0-7.6-2.56-7.6-6.11s2.29-6.07,8.48-6.07h5.27v-.31c0-2.79-1.68-4.43-5.08-4.43a10.11,10.11,0,0,0-6.19,2l-1.87-3.47a14.35,14.35,0,0,1,8.63-2.52C565.59,990,569,992.75,569,998.63Zm-4.77,5.57v-2.36h-4.93c-3.25,0-4.12,1.22-4.12,2.71,0,1.72,1.45,2.82,3.89,2.82A5.2,5.2,0,0,0,564.22,1004.2Z"/><path class="cls-34" d="M595.54,990.19v17.3c0,7.41-3.86,10.77-11,10.77-3.82,0-7.6-1-9.93-2.9l2.14-3.59a12.28,12.28,0,0,0,7.52,2.44c4.51,0,6.49-2.06,6.49-6.19V1007a8.94,8.94,0,0,1-6.83,2.71c-5.85,0-10.32-4-10.32-9.89s4.47-9.81,10.32-9.81A8.81,8.81,0,0,1,591,992.9v-2.71Zm-4.7,9.58c0-3.43-2.6-5.76-6.19-5.76s-6.22,2.33-6.22,5.76,2.59,5.85,6.22,5.85S590.84,1003.25,590.84,999.77Z"/><path class="cls-34" d="M620.9,1001.91h-16c.57,3,3.06,4.89,6.61,4.89a7.34,7.34,0,0,0,5.54-2.21l2.56,2.94c-1.84,2.17-4.7,3.32-8.22,3.32-6.83,0-11.26-4.39-11.26-10.47A10.14,10.14,0,0,1,610.66,990c6,0,10.31,4.16,10.31,10.54C621,1000.88,620.93,1001.45,620.9,1001.91Zm-16-3.17h11.58a5.56,5.56,0,0,0-5.77-5A5.64,5.64,0,0,0,604.85,998.74Z"/><path class="cls-34" d="M659.66,998.89v11.69h-4.77V999.51c0-3.63-1.68-5.39-4.59-5.39-3.13,0-5.3,2.06-5.3,6.11v10.35h-4.78V999.51c0-3.63-1.68-5.39-4.58-5.39-3.17,0-5.31,2.06-5.31,6.11v10.35h-4.78V990.19h4.55v2.59a8.46,8.46,0,0,1,6.68-2.82c3,0,5.47,1.1,6.88,3.4a9.52,9.52,0,0,1,7.64-3.4C656.22,990,659.66,992.75,659.66,998.89Z"/><path class="cls-34" d="M698,1000.38c0,6.34-4.39,10.47-10.35,10.47a8.37,8.37,0,0,1-6.53-2.75V1018h-4.78v-27.8h4.55v2.67a8.39,8.39,0,0,1,6.76-2.9C693.58,990,698,994.08,698,1000.38Zm-4.85,0c0-3.89-2.6-6.37-6-6.37s-6.07,2.48-6.07,6.37,2.64,6.38,6.07,6.38S693.12,1004.28,693.12,1000.38Z"/><path class="cls-34" d="M719.32,998.63v12h-4.51v-2.48c-1.14,1.76-3.36,2.75-6.41,2.75-4.66,0-7.61-2.56-7.61-6.11s2.3-6.07,8.48-6.07h5.27v-.31c0-2.79-1.68-4.43-5.08-4.43a10.06,10.06,0,0,0-6.18,2l-1.87-3.47A14.31,14.31,0,0,1,710,990C715.92,990,719.32,992.75,719.32,998.63Zm-4.78,5.57v-2.36h-4.92c-3.25,0-4.13,1.22-4.13,2.71,0,1.72,1.45,2.82,3.9,2.82A5.19,5.19,0,0,0,714.54,1004.2Z"/><path class="cls-34" d="M737.23,990v4.54a6.6,6.6,0,0,0-1.11-.11c-3.63,0-5.92,2.14-5.92,6.3v9.89h-4.77V990.19H730v3C731.35,991,733.83,990,737.23,990Z"/><path class="cls-34" d="M758.24,998.63v12h-4.51v-2.48c-1.15,1.76-3.36,2.75-6.42,2.75-4.66,0-7.6-2.56-7.6-6.11s2.29-6.07,8.48-6.07h5.27v-.31c0-2.79-1.68-4.43-5.08-4.43a10.06,10.06,0,0,0-6.18,2l-1.87-3.47A14.31,14.31,0,0,1,749,990C754.84,990,758.24,992.75,758.24,998.63Zm-4.78,5.57v-2.36h-4.92c-3.25,0-4.13,1.22-4.13,2.71,0,1.72,1.45,2.82,3.9,2.82A5.19,5.19,0,0,0,753.46,1004.2Z"/><path class="cls-34" d="M773.21,1000.38c0-6.11,4.58-10.42,11-10.42,4,0,7.14,1.64,8.7,4.73l-3.66,2.14a5.76,5.76,0,0,0-5.08-2.82,6,6,0,0,0-6.19,6.37c0,4,2.67,6.38,6.19,6.38a5.78,5.78,0,0,0,5.08-2.82l3.66,2.13c-1.56,3.06-4.73,4.78-8.7,4.78C777.79,1010.85,773.21,1006.49,773.21,1000.38Z"/><path class="cls-34" d="M808.88,990v4.54a6.6,6.6,0,0,0-1.11-.11c-3.63,0-5.92,2.14-5.92,6.3v9.89h-4.77V990.19h4.54v3C803,991,805.48,990,808.88,990Z"/><path class="cls-34" d="M812.28,984a2.91,2.91,0,0,1,3.05-2.86,2.84,2.84,0,0,1,3.06,2.75,3.06,3.06,0,0,1-6.11.11Zm.65,6.23h4.77v20.39h-4.77Z"/><path class="cls-34" d="M841,998.63v12h-4.51v-2.48c-1.14,1.76-3.36,2.75-6.41,2.75-4.66,0-7.61-2.56-7.61-6.11s2.3-6.07,8.48-6.07h5.27v-.31c0-2.79-1.68-4.43-5.08-4.43a10.06,10.06,0,0,0-6.18,2l-1.87-3.47a14.31,14.31,0,0,1,8.63-2.52C837.64,990,841,992.75,841,998.63Zm-4.78,5.57v-2.36h-4.92c-3.25,0-4.13,1.22-4.13,2.71,0,1.72,1.45,2.82,3.9,2.82A5.19,5.19,0,0,0,836.26,1004.2Z"/><path class="cls-34" d="M859,990v4.54a6.6,6.6,0,0,0-1.11-.11c-3.63,0-5.92,2.14-5.92,6.3v9.89h-4.77V990.19h4.54v3C853.07,991,855.55,990,859,990Z"/><path class="cls-34" d="M893.48,990.19v20.39h-4.55V1008a8.31,8.31,0,0,1-6.57,2.87c-5.23,0-8.78-2.87-8.78-9V990.19h4.77v11c0,3.7,1.76,5.46,4.78,5.46,3.32,0,5.57-2.06,5.57-6.15V990.19Z"/><path class="cls-34" d="M933.85,998.89v11.69h-4.78V999.51c0-3.63-1.68-5.39-4.58-5.39-3.13,0-5.31,2.06-5.31,6.11v10.35h-4.77V999.51c0-3.63-1.68-5.39-4.59-5.39-3.17,0-5.31,2.06-5.31,6.11v10.35h-4.77V990.19h4.55v2.59A8.43,8.43,0,0,1,911,990c3,0,5.46,1.1,6.87,3.4a9.54,9.54,0,0,1,7.64-3.4C930.41,990,933.85,992.75,933.85,998.89Z"/><path class="cls-34" d="M938.35,1007.68a3.14,3.14,0,1,1,6.27,0,3.14,3.14,0,1,1-6.27,0Z"/><circle class="cls-2" cx="130.95" cy="1216.87" r="70.67"/><circle class="cls-1" cx="130.95" cy="1216.87" r="62.04"/><path class="cls-34" d="M137.14,1256v-17H97.23v-15.52l36.06-45.63h21.59v46h10.86l-1.52,15.17h-9.34v17Zm0-44.34c0-4.44.12-13,.24-16.93-3.27,4.91-10.16,14.36-21.48,29.06h21.24Z"/><path class="cls-2" d="M131.83,1253.84v-17H91.91v-15.52L128,1175.65h21.59v46h10.86l-1.52,15.17h-9.34v17Zm0-44.34c0-4.44.11-13,.23-16.92-3.27,4.9-10.15,14.35-21.47,29.05h21.24Z"/><path class="cls-34" d="M272.16,1178l-11.65,26.73h-4.89L243.93,1178h5.39l8.9,20.62,9-20.62Z"/><path class="cls-34" d="M292.1,1196h-16c.58,3,3.06,4.89,6.61,4.89a7.31,7.31,0,0,0,5.54-2.21l2.56,2.94c-1.84,2.17-4.7,3.32-8.22,3.32-6.83,0-11.26-4.39-11.26-10.46a10.14,10.14,0,0,1,10.54-10.43c6,0,10.31,4.16,10.31,10.54C292.17,1195,292.13,1195.58,292.1,1196Zm-16.05-3.17h11.58a5.55,5.55,0,0,0-5.77-5A5.65,5.65,0,0,0,276.05,1192.86Z"/><path class="cls-34" d="M308.56,1184.08v4.54a6.7,6.7,0,0,0-1.11-.11c-3.63,0-5.92,2.14-5.92,6.3v9.89h-4.78v-20.39h4.55v3C302.67,1185.15,305.16,1184.08,308.56,1184.08Z"/><path class="cls-34" d="M312,1178.08a2.9,2.9,0,0,1,3.05-2.86,2.84,2.84,0,0,1,3.06,2.75,2.93,2.93,0,0,1-3.06,3A2.9,2.9,0,0,1,312,1178.08Zm.65,6.23h4.77v20.39h-4.77Z"/><path class="cls-34" d="M331.59,1176.1a7.65,7.65,0,0,1,4.31,1.1l-1.33,3.6a4.72,4.72,0,0,0-2.64-.85c-2,0-3,1.11-3,3.29v1.22h5.62v3.82h-5.46v16.42h-4.78v-16.42h-3.36v-3.82h3.36v-1.3C324.29,1178.89,326.85,1176.1,331.59,1176.1Zm8.55,2a2.91,2.91,0,0,1,3.06-2.86,2.84,2.84,0,0,1,3.05,2.75,3.06,3.06,0,0,1-6.11.11Zm.65,6.23h4.78v20.39h-4.78Z"/><path class="cls-34" d="M371.77,1184.31v27.8H367v-9.89a8.37,8.37,0,0,1-6.53,2.75c-6,0-10.31-4.12-10.31-10.46s4.35-10.43,10.31-10.43a8.39,8.39,0,0,1,6.76,2.9v-2.67Zm-4.7,10.2c0-3.9-2.6-6.38-6.07-6.38s-6,2.48-6,6.38,2.6,6.37,6,6.37S367.07,1198.4,367.07,1194.51Z"/><path class="cls-34" d="M397.77,1184.31v20.39h-4.54v-2.59a8.35,8.35,0,0,1-6.57,2.86c-5.23,0-8.78-2.86-8.78-9v-11.65h4.77v11c0,3.7,1.76,5.46,4.77,5.46,3.33,0,5.58-2.06,5.58-6.15v-10.31Z"/><path class="cls-34" d="M423.13,1196h-16c.57,3,3.06,4.89,6.61,4.89a7.31,7.31,0,0,0,5.54-2.21l2.56,2.94c-1.84,2.17-4.7,3.32-8.22,3.32-6.83,0-11.26-4.39-11.26-10.46a10.14,10.14,0,0,1,10.54-10.43c6,0,10.31,4.16,10.31,10.54C423.21,1195,423.17,1195.58,423.13,1196Zm-16-3.17h11.58a5.56,5.56,0,0,0-5.77-5A5.64,5.64,0,0,0,407.09,1192.86Z"/><path class="cls-34" d="M436.65,1194.51c0-6.12,4.59-10.43,10.85-10.43s10.89,4.31,10.89,10.43S453.84,1205,447.5,1205,436.65,1200.62,436.65,1194.51Zm16.92,0c0-3.9-2.59-6.38-6.07-6.38s-6,2.48-6,6.38,2.59,6.37,6,6.37S453.57,1198.4,453.57,1194.51Z"/><path class="cls-34" d="M460.64,1202.68l1.83-3.63a13.8,13.8,0,0,0,7.11,2c3,0,4.27-.85,4.27-2.26,0-3.89-12.6-.23-12.6-8.36,0-3.86,3.48-6.38,9-6.38a16.16,16.16,0,0,1,7.63,1.76l-1.83,3.62a11.22,11.22,0,0,0-5.84-1.52c-2.91,0-4.28,1-4.28,2.29,0,4.12,12.6.46,12.6,8.44,0,3.82-3.51,6.3-9.24,6.3A16.17,16.17,0,0,1,460.64,1202.68Z"/><path class="cls-34" d="M513.15,1176.36v28.34h-4.58v-2.63a8.39,8.39,0,0,1-6.76,2.9c-5.92,0-10.31-4.12-10.31-10.46s4.39-10.43,10.31-10.43a8.35,8.35,0,0,1,6.57,2.75v-10.47Zm-4.69,18.15c0-3.9-2.64-6.38-6.08-6.38s-6.07,2.48-6.07,6.38,2.64,6.37,6.07,6.37S508.46,1198.4,508.46,1194.51Z"/><path class="cls-34" d="M538.51,1196h-16c.57,3,3.06,4.89,6.61,4.89a7.31,7.31,0,0,0,5.54-2.21l2.56,2.94c-1.84,2.17-4.7,3.32-8.22,3.32-6.83,0-11.26-4.39-11.26-10.46a10.14,10.14,0,0,1,10.54-10.43c6,0,10.31,4.16,10.31,10.54C538.59,1195,538.55,1195.58,538.51,1196Zm-16-3.17h11.58a5.56,5.56,0,0,0-5.77-5A5.64,5.64,0,0,0,522.47,1192.86Z"/><path class="cls-34" d="M555.43,1203.6a7.52,7.52,0,0,1-4.58,1.37c-4.47,0-7-2.37-7-6.87v-9.82h-3.36v-3.82h3.36v-4.66h4.78v4.66h5.46v3.82H548.6v9.7c0,2,1,3.06,2.82,3.06a4.32,4.32,0,0,0,2.68-.84Z"/><path class="cls-34" d="M576.44,1192.75v12h-4.51v-2.48c-1.14,1.76-3.36,2.75-6.41,2.75-4.66,0-7.6-2.56-7.6-6.11,0-3.4,2.29-6.07,8.47-6.07h5.28v-.31c0-2.79-1.69-4.43-5.08-4.43a10,10,0,0,0-6.19,2l-1.87-3.48a14.31,14.31,0,0,1,8.63-2.52C573,1184.08,576.44,1186.87,576.44,1192.75Zm-4.77,5.58V1196h-4.93c-3.25,0-4.13,1.22-4.13,2.71,0,1.72,1.45,2.83,3.9,2.83A5.21,5.21,0,0,0,571.67,1198.33Z"/><path class="cls-34" d="M582.55,1176.36h4.77v28.34h-4.77Z"/><path class="cls-34" d="M613.68,1193v11.68H608.9v-11.07c0-3.63-1.79-5.39-4.85-5.39-3.4,0-5.69,2.07-5.69,6.15v10.31h-4.77v-28.34h4.77v10.32a9.1,9.1,0,0,1,6.8-2.6C610.05,1184.08,613.68,1186.87,613.68,1193Z"/><path class="cls-34" d="M639,1196H623c.58,3,3.06,4.89,6.61,4.89a7.31,7.31,0,0,0,5.54-2.21l2.56,2.94c-1.83,2.17-4.7,3.32-8.21,3.32-6.84,0-11.27-4.39-11.27-10.46a10.14,10.14,0,0,1,10.54-10.43c6,0,10.31,4.16,10.31,10.54C639.11,1195,639.08,1195.58,639,1196Zm-16-3.17h11.57a5.55,5.55,0,0,0-5.77-5A5.63,5.63,0,0,0,623,1192.86Z"/><path class="cls-34" d="M641.37,1202.68l1.83-3.63a13.79,13.79,0,0,0,7.1,2c3,0,4.28-.85,4.28-2.26,0-3.89-12.6-.23-12.6-8.36,0-3.86,3.47-6.38,9-6.38a16.17,16.17,0,0,1,7.64,1.76l-1.83,3.62a11.22,11.22,0,0,0-5.84-1.52c-2.91,0-4.28,1-4.28,2.29,0,4.12,12.6.46,12.6,8.44,0,3.82-3.51,6.3-9.24,6.3A16.17,16.17,0,0,1,641.37,1202.68Z"/><path class="cls-34" d="M674.36,1176.36h9.13v3.82h-4.35v28.11h4.35v3.82h-9.13Z"/><path class="cls-34" d="M685.67,1201.8a3.13,3.13,0,1,1,6.26,0,3.13,3.13,0,1,1-6.26,0Z"/><path class="cls-34" d="M695,1201.8a3.13,3.13,0,1,1,6.26,0,3.13,3.13,0,1,1-6.26,0Z"/><path class="cls-34" d="M704.31,1201.8a3.13,3.13,0,1,1,6.26,0,3.13,3.13,0,1,1-6.26,0Z"/><path class="cls-34" d="M712.75,1212.11v-3.82h4.31v-28.11h-4.31v-3.82h9.09v35.75Z"/><path class="cls-34" d="M758.23,1196h-16c.57,3,3.06,4.89,6.61,4.89a7.32,7.32,0,0,0,5.54-2.21l2.56,2.94c-1.84,2.17-4.7,3.32-8.22,3.32-6.83,0-11.26-4.39-11.26-10.46A10.14,10.14,0,0,1,748,1184.08c6,0,10.31,4.16,10.31,10.54C758.31,1195,758.27,1195.58,758.23,1196Zm-16-3.17h11.58a5.56,5.56,0,0,0-5.77-5A5.64,5.64,0,0,0,742.19,1192.86Z"/><path class="cls-34" d="M771.75,1194.51c0-6.12,4.59-10.43,11-10.43,4,0,7.14,1.64,8.71,4.73l-3.67,2.14a5.77,5.77,0,0,0-5.08-2.82,6.38,6.38,0,0,0,0,12.75,5.75,5.75,0,0,0,5.08-2.82l3.67,2.14c-1.57,3-4.74,4.77-8.71,4.77C776.34,1205,771.75,1200.62,771.75,1194.51Z"/><path class="cls-34" d="M793.64,1194.51c0-6.12,4.58-10.43,10.84-10.43s10.89,4.31,10.89,10.43S810.82,1205,804.48,1205,793.64,1200.62,793.64,1194.51Zm16.92,0c0-3.9-2.6-6.38-6.08-6.38s-6,2.48-6,6.38,2.6,6.37,6,6.37S810.56,1198.4,810.56,1194.51Z"/><path class="cls-34" d="M840,1193v11.68h-4.77v-11.07c0-3.63-1.8-5.39-4.85-5.39-3.4,0-5.69,2.07-5.69,6.15v10.31H820v-20.39h4.55v2.63a8.87,8.87,0,0,1,7-2.86C836.41,1184.08,840,1186.87,840,1193Z"/><path class="cls-34" d="M854.06,1176.1a7.69,7.69,0,0,1,4.32,1.1l-1.34,3.6a4.69,4.69,0,0,0-2.64-.85c-2,0-3,1.11-3,3.29v1.22H857v3.82h-5.46v16.42h-4.78v-16.42H843.4v-3.82h3.36v-1.3C846.76,1178.89,849.32,1176.1,854.06,1176.1Zm8.55,2a2.91,2.91,0,0,1,3.06-2.86,2.84,2.84,0,0,1,3.06,2.75,3.06,3.06,0,0,1-6.12.11Zm.65,6.23H868v20.39h-4.78Z"/><path class="cls-34" d="M886.1,1184.08v4.54a6.59,6.59,0,0,0-1.1-.11c-3.63,0-5.92,2.14-5.92,6.3v9.89H874.3v-20.39h4.55v3C880.22,1185.15,882.7,1184.08,886.1,1184.08Z"/><path class="cls-34" d="M924.26,1193v11.68h-4.78v-11.07c0-3.63-1.68-5.39-4.58-5.39-3.13,0-5.31,2.07-5.31,6.11v10.35h-4.77v-11.07c0-3.63-1.68-5.39-4.59-5.39-3.17,0-5.3,2.07-5.3,6.11v10.35h-4.78v-20.39h4.55v2.6a8.41,8.41,0,0,1,6.68-2.83c3,0,5.46,1.11,6.87,3.4a9.54,9.54,0,0,1,7.64-3.4C920.82,1184.08,924.26,1186.87,924.26,1193Z"/><path class="cls-34" d="M949.66,1196h-16c.58,3,3.06,4.89,6.61,4.89a7.31,7.31,0,0,0,5.54-2.21l2.56,2.94c-1.84,2.17-4.7,3.32-8.21,3.32-6.84,0-11.27-4.39-11.27-10.46a10.14,10.14,0,0,1,10.54-10.43c6,0,10.31,4.16,10.31,10.54C949.73,1195,949.69,1195.58,949.66,1196Zm-16-3.17h11.57a5.55,5.55,0,0,0-5.77-5A5.63,5.63,0,0,0,933.62,1192.86Z"/><path class="cls-34" d="M268.91,1241.19c0,6.34-4.39,10.46-10.35,10.46a8.37,8.37,0,0,1-6.53-2.75v9.89h-4.77V1231h4.54v2.67a8.44,8.44,0,0,1,6.76-2.9C264.52,1230.76,268.91,1234.89,268.91,1241.19Zm-4.85,0c0-3.9-2.6-6.38-6-6.38s-6.08,2.48-6.08,6.38,2.64,6.37,6.08,6.37S264.06,1245.08,264.06,1241.19Z"/><path class="cls-34" d="M290.26,1239.43v12h-4.5v-2.48c-1.15,1.76-3.37,2.75-6.42,2.75-4.66,0-7.6-2.56-7.6-6.11,0-3.4,2.29-6.07,8.48-6.07h5.27v-.31c0-2.79-1.68-4.43-5.08-4.43a10.12,10.12,0,0,0-6.19,2l-1.87-3.48a14.35,14.35,0,0,1,8.63-2.52C286.86,1230.76,290.26,1233.55,290.26,1239.43Zm-4.77,5.58v-2.37h-4.93c-3.24,0-4.12,1.22-4.12,2.71,0,1.72,1.45,2.83,3.89,2.83A5.2,5.2,0,0,0,285.49,1245Z"/><path class="cls-34" d="M308.17,1230.76v4.55a5.75,5.75,0,0,0-1.1-.12c-3.63,0-5.92,2.14-5.92,6.3v9.89h-4.78V1231h4.55v3C302.29,1231.83,304.78,1230.76,308.17,1230.76Z"/><path class="cls-34" d="M329.18,1239.43v12h-4.51v-2.48c-1.14,1.76-3.36,2.75-6.41,2.75-4.66,0-7.6-2.56-7.6-6.11,0-3.4,2.29-6.07,8.48-6.07h5.27v-.31c0-2.79-1.68-4.43-5.08-4.43a10.12,10.12,0,0,0-6.19,2l-1.87-3.48a14.35,14.35,0,0,1,8.63-2.52C325.78,1230.76,329.18,1233.55,329.18,1239.43Zm-4.77,5.58v-2.37h-4.93c-3.25,0-4.13,1.22-4.13,2.71,0,1.72,1.46,2.83,3.9,2.83A5.21,5.21,0,0,0,324.41,1245Z"/><path class="cls-34" d="M344.15,1241.19c0-6.11,4.58-10.43,11-10.43,4,0,7.14,1.64,8.71,4.74l-3.67,2.14a5.77,5.77,0,0,0-5.08-2.83,6.38,6.38,0,0,0,0,12.75,5.76,5.76,0,0,0,5.08-2.82l3.67,2.14c-1.57,3-4.74,4.77-8.71,4.77C348.73,1251.65,344.15,1247.3,344.15,1241.19Z"/><path class="cls-34" d="M379.82,1230.76v4.55a5.75,5.75,0,0,0-1.1-.12c-3.63,0-5.92,2.14-5.92,6.3v9.89H368V1231h4.55v3C373.94,1231.83,376.42,1230.76,379.82,1230.76Z"/><path class="cls-34" d="M383.22,1224.76a2.91,2.91,0,0,1,3.06-2.86,2.83,2.83,0,0,1,3.05,2.75,3.06,3.06,0,0,1-6.11.11Zm.65,6.23h4.78v20.39h-4.78Z"/><path class="cls-34" d="M412,1239.43v12h-4.5v-2.48c-1.15,1.76-3.37,2.75-6.42,2.75-4.66,0-7.6-2.56-7.6-6.11,0-3.4,2.29-6.07,8.48-6.07h5.27v-.31c0-2.79-1.68-4.43-5.08-4.43a10.12,10.12,0,0,0-6.19,2l-1.87-3.48a14.35,14.35,0,0,1,8.63-2.52C408.58,1230.76,412,1233.55,412,1239.43Zm-4.77,5.58v-2.37h-4.93c-3.24,0-4.12,1.22-4.12,2.71,0,1.72,1.45,2.83,3.89,2.83A5.2,5.2,0,0,0,407.21,1245Z"/><path class="cls-34" d="M429.89,1230.76v4.55a5.75,5.75,0,0,0-1.1-.12c-3.63,0-5.92,2.14-5.92,6.3v9.89h-4.78V1231h4.55v3C424,1231.83,426.5,1230.76,429.89,1230.76Z"/><path class="cls-34" d="M442.34,1249.36l1.84-3.63a13.64,13.64,0,0,0,7.1,2c3,0,4.28-.84,4.28-2.26,0-3.89-12.6-.23-12.6-8.36,0-3.86,3.47-6.38,9-6.38a16.2,16.2,0,0,1,7.64,1.76l-1.83,3.62a11.23,11.23,0,0,0-5.85-1.52c-2.9,0-4.27,1-4.27,2.29,0,4.12,12.6.46,12.6,8.44,0,3.82-3.51,6.3-9.24,6.3A16.24,16.24,0,0,1,442.34,1249.36Z"/><path class="cls-34" d="M483.44,1242.71h-16c.57,3,3.05,4.89,6.61,4.89a7.29,7.29,0,0,0,5.53-2.21l2.56,2.94c-1.83,2.18-4.7,3.32-8.21,3.32-6.84,0-11.27-4.39-11.27-10.46a10.14,10.14,0,0,1,10.55-10.43c6,0,10.31,4.16,10.31,10.54C483.52,1241.68,483.48,1242.26,483.44,1242.71Zm-16-3.17H479a5.54,5.54,0,0,0-5.76-5A5.64,5.64,0,0,0,467.4,1239.54Z"/><path class="cls-34" d="M507.85,1231v20.39H503.3v-2.59a8.33,8.33,0,0,1-6.57,2.86c-5.23,0-8.78-2.86-8.78-9V1231h4.77v11c0,3.7,1.76,5.46,4.78,5.46,3.32,0,5.57-2.06,5.57-6.15V1231Z"/><path class="cls-34" d="M523,1241.19c0-6.11,4.58-10.43,11-10.43,4,0,7.14,1.64,8.71,4.74l-3.67,2.14a5.77,5.77,0,0,0-5.08-2.83,6.38,6.38,0,0,0,0,12.75,5.76,5.76,0,0,0,5.08-2.82l3.67,2.14c-1.57,3-4.74,4.77-8.71,4.77C527.55,1251.65,523,1247.3,523,1241.19Z"/><path class="cls-34" d="M563.91,1239.43v12h-4.5v-2.48c-1.15,1.76-3.37,2.75-6.42,2.75-4.66,0-7.6-2.56-7.6-6.11,0-3.4,2.29-6.07,8.48-6.07h5.27v-.31c0-2.79-1.68-4.43-5.08-4.43a10.12,10.12,0,0,0-6.19,2l-1.87-3.48a14.35,14.35,0,0,1,8.63-2.52C560.51,1230.76,563.91,1233.55,563.91,1239.43Zm-4.77,5.58v-2.37h-4.93c-3.24,0-4.12,1.22-4.12,2.71,0,1.72,1.45,2.83,3.89,2.83A5.2,5.2,0,0,0,559.14,1245Z"/><path class="cls-34" d="M590.11,1239.7v11.68h-4.77v-11.07c0-3.63-1.8-5.39-4.85-5.39-3.4,0-5.69,2.07-5.69,6.15v10.31H570V1231h4.55v2.63a8.87,8.87,0,0,1,7-2.86C586.48,1230.76,590.11,1233.55,590.11,1239.7Z"/><path class="cls-34" d="M613.26,1239.43v12h-4.51v-2.48c-1.14,1.76-3.36,2.75-6.42,2.75-4.66,0-7.6-2.56-7.6-6.11,0-3.4,2.3-6.07,8.48-6.07h5.27v-.31c0-2.79-1.68-4.43-5.08-4.43a10.07,10.07,0,0,0-6.18,2l-1.87-3.48a14.31,14.31,0,0,1,8.63-2.52C609.86,1230.76,613.26,1233.55,613.26,1239.43Zm-4.78,5.58v-2.37h-4.92c-3.25,0-4.13,1.22-4.13,2.71,0,1.72,1.45,2.83,3.9,2.83A5.19,5.19,0,0,0,608.48,1245Z"/><path class="cls-34" d="M619.37,1223.05h4.77v28.33h-4.77Z"/><path class="cls-34" d="M661,1239.7v11.68h-4.78v-11.07c0-3.63-1.79-5.39-4.85-5.39-3.4,0-5.69,2.07-5.69,6.15v10.31H641V1231h4.54v2.63a8.88,8.88,0,0,1,7-2.86C657.41,1230.76,661,1233.55,661,1239.7Z"/><path class="cls-34" d="M665.62,1241.19c0-6.11,4.58-10.43,10.85-10.43s10.88,4.32,10.88,10.43-4.54,10.46-10.88,10.46S665.62,1247.3,665.62,1241.19Zm16.92,0c0-3.9-2.6-6.38-6.07-6.38s-6,2.48-6,6.38,2.6,6.37,6,6.37S682.54,1245.08,682.54,1241.19Z"/><path class="cls-34" d="M710.46,1231l-8.75,20.39h-4.93L688,1231h5l6.34,15.12,6.53-15.12Z"/><path class="cls-34" d="M711.18,1241.19c0-6.11,4.59-10.43,10.85-10.43s10.88,4.32,10.88,10.43-4.54,10.46-10.88,10.46S711.18,1247.3,711.18,1241.19Zm16.92,0c0-3.9-2.6-6.38-6.07-6.38s-6,2.48-6,6.38,2.59,6.37,6,6.37S728.1,1245.08,728.1,1241.19Z"/><path class="cls-34" d="M735.51,1248.48a3.13,3.13,0,1,1,6.26,0,3.13,3.13,0,1,1-6.26,0Z"/></g></g></svg>