<svg xmlns="http://www.w3.org/2000/svg" viewBox="0 0 1300.77 1377.8"><defs><style>.cls-1{fill:#d21e2f;}.cls-2{fill:none;stroke:#bdbdbd;stroke-miterlimit:10;stroke-width:4px;}.cls-3{fill:#00ffb3;}.cls-4{fill:#ffd053;}.cls-5{fill:#ffc448;}.cls-6{fill:#ffd77a;}.cls-7{fill:#2c2c2c;}.cls-8{fill:#71523f;}.cls-9{fill:#ff6669;}.cls-10{fill:#3f3e40;}.cls-11{fill:#654735;}.cls-12{fill:#fc9c12;}</style></defs><g id="Layer_2" data-name="Layer 2"><g id="Layer_1-2" data-name="Layer 1"><path class="cls-1" d="M244.22,451.27H230.75l-2.66,6.23h-5.15l12.12-26.93H240l12.16,26.93h-5.23Zm-1.66-3.92-5.08-11.78-5,11.78Z" transform="translate(-5.39)"/><path class="cls-1" d="M273,439c1.56,1.51,2.34,3.76,2.34,6.73V457.5h-4.81V446.35a5.75,5.75,0,0,0-1.27-4.06,4.68,4.68,0,0,0-3.61-1.37,5.59,5.59,0,0,0-4.2,1.6,6.39,6.39,0,0,0-1.54,4.6V457.5H255.1V437h4.58v2.65a7.69,7.69,0,0,1,3-2.15,10.79,10.79,0,0,1,4.08-.73A8.63,8.63,0,0,1,273,439Z" transform="translate(-5.39)"/><path class="cls-1" d="M282.92,457.12a12.58,12.58,0,0,1-3.81-1.65l1.85-3.66a11.61,11.61,0,0,0,3.33,1.48,13.87,13.87,0,0,0,3.83.56q4.31,0,4.3-2.27a1.51,1.51,0,0,0-1.09-1.5,19.47,19.47,0,0,0-3.52-.81,30,30,0,0,1-4.14-.88,6.45,6.45,0,0,1-2.77-1.75,4.93,4.93,0,0,1-1.17-3.49,5.46,5.46,0,0,1,2.44-4.67,11.11,11.11,0,0,1,6.6-1.75,19.06,19.06,0,0,1,4.23.48,11.71,11.71,0,0,1,3.46,1.29l-1.84,3.65a11.48,11.48,0,0,0-5.89-1.54,6.54,6.54,0,0,0-3.21.64,1.89,1.89,0,0,0-1.1,1.67,1.67,1.67,0,0,0,1.18,1.64,18.5,18.5,0,0,0,3.63.9,27.57,27.57,0,0,1,4,.89A6.3,6.3,0,0,1,296,448a4.7,4.7,0,0,1,1.14,3.39,5.34,5.34,0,0,1-2.5,4.61,11.76,11.76,0,0,1-6.81,1.73A18.24,18.24,0,0,1,282.92,457.12Z" transform="translate(-5.39)"/><path class="cls-1" d="M301.51,432.75a2.83,2.83,0,0,1,0-4.12,3.09,3.09,0,0,1,2.19-.83,3.2,3.2,0,0,1,2.19.79,2.56,2.56,0,0,1,.89,2,2.9,2.9,0,0,1-.87,2.14,3,3,0,0,1-2.21.86A3.09,3.09,0,0,1,301.51,432.75Zm-.23,4.21h4.8V457.5h-4.8Z" transform="translate(-5.39)"/><path class="cls-1" d="M331.63,448.77H315.51a5.59,5.59,0,0,0,2.21,3.6,7.32,7.32,0,0,0,4.45,1.33,7.51,7.51,0,0,0,5.58-2.24l2.57,3a8.74,8.74,0,0,1-3.5,2.5,12.83,12.83,0,0,1-4.77.84,12.62,12.62,0,0,1-6-1.34,9.77,9.77,0,0,1-4-3.75,11.32,11.32,0,0,1,0-10.85,9.56,9.56,0,0,1,3.79-3.75,11,11,0,0,1,5.46-1.35,10.75,10.75,0,0,1,5.37,1.33,9.33,9.33,0,0,1,3.69,3.73,11.24,11.24,0,0,1,1.33,5.56C331.71,447.68,331.68,448.16,331.63,448.77Zm-14.22-6.83a5.75,5.75,0,0,0-1.94,3.64h11.66a5.65,5.65,0,0,0-1.89-3.62,5.74,5.74,0,0,0-3.92-1.38A5.82,5.82,0,0,0,317.41,441.94Z" transform="translate(-5.39)"/><path class="cls-1" d="M356.45,429V457.5h-4.62v-2.65a7.32,7.32,0,0,1-2.94,2.19,9.92,9.92,0,0,1-3.87.73,10.84,10.84,0,0,1-5.33-1.3,9.42,9.42,0,0,1-3.71-3.72,11.92,11.92,0,0,1,0-11,9.4,9.4,0,0,1,3.71-3.69,10.85,10.85,0,0,1,5.33-1.31,9.79,9.79,0,0,1,3.73.69,7.57,7.57,0,0,1,2.89,2.08V429Zm-7.74,23.91a5.74,5.74,0,0,0,2.2-2.25,7.56,7.56,0,0,0,0-6.77,5.61,5.61,0,0,0-2.2-2.25,6.54,6.54,0,0,0-6.23,0,5.65,5.65,0,0,0-2.19,2.25,7.48,7.48,0,0,0,0,6.77,5.78,5.78,0,0,0,2.19,2.25,6.54,6.54,0,0,0,6.23,0Z" transform="translate(-5.39)"/><path class="cls-1" d="M377.55,438.9c1.6,1.45,2.41,3.64,2.41,6.56v12h-4.54V455a5.56,5.56,0,0,1-2.52,2.06,11.09,11.09,0,0,1-8-.07,6.28,6.28,0,0,1-2.67-2.2,5.52,5.52,0,0,1-.94-3.17,5.45,5.45,0,0,1,2.05-4.45q2.07-1.67,6.49-1.67h5.31v-.31a4.22,4.22,0,0,0-1.29-3.31,5.58,5.58,0,0,0-3.83-1.15,11.1,11.1,0,0,0-3.41.54,8.42,8.42,0,0,0-2.82,1.5l-1.89-3.5a11.76,11.76,0,0,1,3.89-1.89,17.47,17.47,0,0,1,4.81-.65C373.63,436.73,376,437.45,377.55,438.9Zm-4.38,14.55a4.58,4.58,0,0,0,2-2.37v-2.39h-5q-4.15,0-4.15,2.74a2.42,2.42,0,0,0,1,2.07,4.69,4.69,0,0,0,2.88.77A6.25,6.25,0,0,0,373.17,453.45Z" transform="translate(-5.39)"/><path class="cls-1" d="M406.43,429V457.5h-4.62v-2.65a7.39,7.39,0,0,1-2.94,2.19,9.92,9.92,0,0,1-3.87.73,10.84,10.84,0,0,1-5.33-1.3,9.35,9.35,0,0,1-3.71-3.72,11.92,11.92,0,0,1,0-11,9.34,9.34,0,0,1,3.71-3.69,10.85,10.85,0,0,1,5.33-1.31,9.79,9.79,0,0,1,3.73.69,7.57,7.57,0,0,1,2.89,2.08V429Zm-7.74,23.91a5.74,5.74,0,0,0,2.2-2.25,7.56,7.56,0,0,0,0-6.77,5.61,5.61,0,0,0-2.2-2.25,6.54,6.54,0,0,0-6.23,0,5.59,5.59,0,0,0-2.19,2.25,7.48,7.48,0,0,0,0,6.77,5.71,5.71,0,0,0,2.19,2.25,6.54,6.54,0,0,0,6.23,0Z" transform="translate(-5.39)"/><path class="cls-1" d="M432,448.77H415.85a5.59,5.59,0,0,0,2.21,3.6,7.32,7.32,0,0,0,4.45,1.33,7.48,7.48,0,0,0,5.58-2.24l2.58,3a8.85,8.85,0,0,1-3.51,2.5,12.83,12.83,0,0,1-4.77.84,12.68,12.68,0,0,1-6-1.34,9.68,9.68,0,0,1-4-3.75,10.59,10.59,0,0,1-1.41-5.45,10.73,10.73,0,0,1,1.37-5.4,9.56,9.56,0,0,1,3.79-3.75,11,11,0,0,1,5.46-1.35,10.75,10.75,0,0,1,5.37,1.33,9.27,9.27,0,0,1,3.69,3.73,11.24,11.24,0,0,1,1.33,5.56C432.05,447.68,432,448.16,432,448.77Zm-14.21-6.83a5.72,5.72,0,0,0-1.95,3.64h11.66a5.64,5.64,0,0,0-1.88-3.62,6.28,6.28,0,0,0-7.83,0Z" transform="translate(-5.39)"/><path class="cls-1" d="M93.14,242.32H86.33v6.73H82.21v-6.73H75.4v-3.85h6.81v-6.73h4.12v6.73h6.81Z" transform="translate(-5.39)"/><path class="cls-1" d="M997.86,1357.36h-6.81v6.73h-4.12v-6.73h-6.81v-3.85h6.81v-6.73h4.12v6.73h6.81Z" transform="translate(-5.39)"/><path class="cls-1" d="M58.33,1356.2H68.91v4H58.33Z" transform="translate(-5.39)"/><path class="cls-1" d="M201.64,754.44a8.9,8.9,0,0,1,4,3.31,10.09,10.09,0,0,1,0,10.22,8.73,8.73,0,0,1-4,3.32,14.88,14.88,0,0,1-6.1,1.16h-6.08v7.77h-5V753.29h11.08A14.89,14.89,0,0,1,201.64,754.44Zm-1.37,12.39a5.46,5.46,0,0,0,0-7.92,7.62,7.62,0,0,0-5-1.39h-5.85v10.7h5.85A7.62,7.62,0,0,0,200.27,766.83Z" transform="translate(-5.39)"/><path class="cls-1" d="M223.24,759.45V764a6.7,6.7,0,0,0-1.11-.11,5.82,5.82,0,0,0-4.39,1.63,6.55,6.55,0,0,0-1.57,4.72v10h-4.81V759.68h4.57v3C217.32,760.52,219.76,759.45,223.24,759.45Z" transform="translate(-5.39)"/><path class="cls-1" d="M246.37,771.49H230.25a5.57,5.57,0,0,0,2.21,3.59,7.2,7.2,0,0,0,4.44,1.33,7.47,7.47,0,0,0,5.58-2.23l2.58,3a8.56,8.56,0,0,1-3.5,2.5,13.85,13.85,0,0,1-10.74-.5,9.67,9.67,0,0,1-4-3.75,10.62,10.62,0,0,1-1.4-5.44,10.79,10.79,0,0,1,1.36-5.41,9.76,9.76,0,0,1,3.79-3.75,11.06,11.06,0,0,1,5.47-1.34,10.78,10.78,0,0,1,5.36,1.32,9.48,9.48,0,0,1,3.7,3.73,11.4,11.4,0,0,1,1.33,5.56C246.45,770.4,246.42,770.87,246.37,771.49Zm-14.22-6.83a5.75,5.75,0,0,0-1.94,3.63h11.66a5.64,5.64,0,0,0-5.81-5A5.83,5.83,0,0,0,232.15,764.66Z" transform="translate(-5.39)"/><path class="cls-1" d="M254.68,779.14a9.74,9.74,0,0,1-3.91-3.75,11.25,11.25,0,0,1,0-10.87,9.89,9.89,0,0,1,3.91-3.73,12.52,12.52,0,0,1,11.27,0,9.89,9.89,0,0,1,3.91,3.73,11.25,11.25,0,0,1,0,10.87,9.74,9.74,0,0,1-3.91,3.75,12.44,12.44,0,0,1-11.27,0Zm10-4.54a7.13,7.13,0,0,0,0-9.31,6.29,6.29,0,0,0-8.75,0,7.19,7.19,0,0,0,0,9.31,6.29,6.29,0,0,0,8.75,0Z" transform="translate(-5.39)"/><path class="cls-1" d="M279.57,779.14a9.8,9.8,0,0,1-4-3.75,11.11,11.11,0,0,1,0-10.87,10,10,0,0,1,3.94-3.73,12,12,0,0,1,5.75-1.34,11.07,11.07,0,0,1,5.33,1.23,8,8,0,0,1,3.45,3.54l-3.7,2.15a5.77,5.77,0,0,0-2.21-2.13,6,6,0,0,0-2.9-.72,6.12,6.12,0,0,0-4.47,1.75,7.09,7.09,0,0,0,0,9.35,6.08,6.08,0,0,0,4.49,1.75,6,6,0,0,0,2.9-.71,5.77,5.77,0,0,0,2.21-2.13l3.7,2.15a8.36,8.36,0,0,1-3.48,3.56,10.92,10.92,0,0,1-5.3,1.25A12.06,12.06,0,0,1,279.57,779.14Z" transform="translate(-5.39)"/><path class="cls-1" d="M318.12,759.68v20.54h-4.58v-2.61a7.61,7.61,0,0,1-2.88,2.13,9.28,9.28,0,0,1-3.73.75,8.93,8.93,0,0,1-6.49-2.29c-1.57-1.52-2.36-3.79-2.36-6.79V759.68h4.81v11.08a5.92,5.92,0,0,0,1.25,4.13,4.58,4.58,0,0,0,3.56,1.37,5.35,5.35,0,0,0,4.09-1.6,6.38,6.38,0,0,0,1.52-4.6V759.68Z" transform="translate(-5.39)"/><path class="cls-1" d="M341.19,760.75a9.43,9.43,0,0,1,3.71,3.7,11.92,11.92,0,0,1,0,11,9.39,9.39,0,0,1-3.71,3.71,11,11,0,0,1-5.37,1.31,8.29,8.29,0,0,1-6.58-2.77v10h-4.81v-28H329v2.69a7.35,7.35,0,0,1,2.95-2.19,9.83,9.83,0,0,1,3.86-.73A10.94,10.94,0,0,1,341.19,760.75Zm-1.54,13.85a7.19,7.19,0,0,0,0-9.31,5.82,5.82,0,0,0-4.37-1.77,6.22,6.22,0,0,0-3.11.79,5.74,5.74,0,0,0-2.2,2.25,7.56,7.56,0,0,0,0,6.77,5.61,5.61,0,0,0,2.2,2.25,6.12,6.12,0,0,0,3.11.79A5.82,5.82,0,0,0,339.65,774.6Z" transform="translate(-5.39)"/><path class="cls-1" d="M365.35,761.62c1.61,1.45,2.41,3.63,2.41,6.56v12h-4.54v-2.5a5.62,5.62,0,0,1-2.52,2.06,10,10,0,0,1-3.95.71,9.61,9.61,0,0,1-4-.79,6.19,6.19,0,0,1-2.67-2.19,5.58,5.58,0,0,1-.94-3.18,5.45,5.45,0,0,1,2-4.44q2.07-1.67,6.49-1.67H363v-.31a4.21,4.21,0,0,0-1.29-3.31,5.58,5.58,0,0,0-3.83-1.15,11.1,11.1,0,0,0-3.41.54,8.08,8.08,0,0,0-2.82,1.5L349.71,762a11.74,11.74,0,0,1,3.89-1.88,17.1,17.1,0,0,1,4.81-.65C361.43,759.45,363.75,760.17,365.35,761.62ZM361,776.16a4.55,4.55,0,0,0,2-2.36v-2.39h-5q-4.16,0-4.15,2.73a2.44,2.44,0,0,0,1,2.08,4.76,4.76,0,0,0,2.88.77A6.25,6.25,0,0,0,361,776.16Z" transform="translate(-5.39)"/><path class="cls-1" d="M377.8,779.14a9.74,9.74,0,0,1-4-3.75,11,11,0,0,1,0-10.87,9.91,9.91,0,0,1,3.94-3.73,12,12,0,0,1,5.75-1.34,11.1,11.1,0,0,1,5.33,1.23,8,8,0,0,1,3.44,3.54l-3.69,2.15a5.84,5.84,0,0,0-2.21-2.13,6,6,0,0,0-2.91-.72,6.12,6.12,0,0,0-4.46,1.75,7.09,7.09,0,0,0,0,9.35,6.5,6.5,0,0,0,7.39,1,5.84,5.84,0,0,0,2.21-2.13l3.69,2.15a8.25,8.25,0,0,1-3.48,3.56,10.88,10.88,0,0,1-5.29,1.25A12,12,0,0,1,377.8,779.14Zm.19,9.05.89-2.27a5.58,5.58,0,0,0,2.61.61q2,0,2-1.38a1.08,1.08,0,0,0-.5-.93,2.75,2.75,0,0,0-1.54-.34H380.3l1-3.93H384l-.54,2.16a4,4,0,0,1,2.5,1.06,3,3,0,0,1,.84,2.17,3.08,3.08,0,0,1-1.42,2.65,6.49,6.49,0,0,1-3.81,1A7.35,7.35,0,0,1,378,788.19Z" transform="translate(-5.39)"/><path class="cls-1" d="M411.25,761.62c1.61,1.45,2.41,3.63,2.41,6.56v12h-4.54v-2.5a5.62,5.62,0,0,1-2.52,2.06,10,10,0,0,1-4,.71,9.61,9.61,0,0,1-4-.79,6.19,6.19,0,0,1-2.67-2.19,5.58,5.58,0,0,1-.94-3.18,5.45,5.45,0,0,1,2.05-4.44q2.07-1.67,6.49-1.67h5.31v-.31a4.21,4.21,0,0,0-1.29-3.31,5.58,5.58,0,0,0-3.83-1.15,11,11,0,0,0-3.4.54,8,8,0,0,0-2.83,1.5L395.61,762a11.74,11.74,0,0,1,3.89-1.88,17.15,17.15,0,0,1,4.81-.65C407.33,759.45,409.65,760.17,411.25,761.62Zm-5.42-5.14a14.17,14.17,0,0,1-1.75-1.15,11.46,11.46,0,0,0-1-.75,1.49,1.49,0,0,0-.79-.25,1.66,1.66,0,0,0-1.33.61,2.72,2.72,0,0,0-.56,1.7h-2.57a5.92,5.92,0,0,1,1.17-3.76,3.66,3.66,0,0,1,3-1.4,3.41,3.41,0,0,1,1.67.39,14.17,14.17,0,0,1,1.75,1.15,11.46,11.46,0,0,0,1,.75,1.49,1.49,0,0,0,.79.25,1.7,1.7,0,0,0,1.33-.58,2.46,2.46,0,0,0,.56-1.61h2.58a6,6,0,0,1-1.2,3.65,3.59,3.59,0,0,1-3,1.39A3.41,3.41,0,0,1,405.83,756.48Zm1,19.68a4.55,4.55,0,0,0,2-2.36v-2.39h-5q-4.15,0-4.15,2.73a2.46,2.46,0,0,0,1,2.08,4.76,4.76,0,0,0,2.88.77A6.25,6.25,0,0,0,406.87,776.16Z" transform="translate(-5.39)"/><path class="cls-1" d="M423.62,779.14a9.65,9.65,0,0,1-3.9-3.75,11.18,11.18,0,0,1,0-10.87,9.8,9.8,0,0,1,3.9-3.73,12.54,12.54,0,0,1,11.28,0,9.93,9.93,0,0,1,3.9,3.73,11.18,11.18,0,0,1,0,10.87,9.78,9.78,0,0,1-3.9,3.75,12.46,12.46,0,0,1-11.28,0Zm10-4.54a7.13,7.13,0,0,0,0-9.31,5.89,5.89,0,0,0-4.39-1.77,5.82,5.82,0,0,0-4.37,1.77,7.19,7.19,0,0,0,0,9.31,5.82,5.82,0,0,0,4.37,1.77A5.89,5.89,0,0,0,433.63,774.6Z" transform="translate(-5.39)"/><path class="cls-1" d="M233.09,1116.74H219.62L217,1123h-5.16L223.93,1096h4.93L241,1123h-5.23Zm-1.66-3.93L226.35,1101l-5,11.77Z" transform="translate(-5.39)"/><path class="cls-1" d="M260.73,1103.5a9.34,9.34,0,0,1,3.71,3.69,11,11,0,0,1,1.35,5.51,11.12,11.12,0,0,1-1.35,5.52,9.33,9.33,0,0,1-3.71,3.71,11,11,0,0,1-5.37,1.31,8.29,8.29,0,0,1-6.57-2.77v10H244v-28h4.57v2.7a7.47,7.47,0,0,1,2.95-2.2,10,10,0,0,1,3.86-.73A11,11,0,0,1,260.73,1103.5Zm-1.54,13.85a7.19,7.19,0,0,0,0-9.31,5.81,5.81,0,0,0-4.36-1.77,6.13,6.13,0,0,0-3.12.79,5.65,5.65,0,0,0-2.19,2.25,7.48,7.48,0,0,0,0,6.77,5.59,5.59,0,0,0,2.19,2.25,6.13,6.13,0,0,0,3.12.79A5.81,5.81,0,0,0,259.19,1117.35Z" transform="translate(-5.39)"/><path class="cls-1" d="M284.89,1104.37c1.61,1.45,2.41,3.63,2.41,6.56v12h-4.54v-2.5a5.62,5.62,0,0,1-2.52,2.06,10,10,0,0,1-3.95.71,9.8,9.8,0,0,1-4-.79,6.33,6.33,0,0,1-2.67-2.19,5.58,5.58,0,0,1-.94-3.18,5.41,5.41,0,0,1,2.06-4.44q2.06-1.68,6.48-1.68h5.31v-.3a4.21,4.21,0,0,0-1.29-3.31,5.57,5.57,0,0,0-3.83-1.16,11,11,0,0,0-3.4.54,8.38,8.38,0,0,0-2.83,1.5l-1.89-3.5a11.64,11.64,0,0,1,3.89-1.88,17.15,17.15,0,0,1,4.81-.66Q282.5,1102.19,284.89,1104.37Zm-4.38,14.54a4.54,4.54,0,0,0,2-2.37v-2.38h-5q-4.15,0-4.16,2.73a2.48,2.48,0,0,0,1,2.08,4.76,4.76,0,0,0,2.88.77A6.25,6.25,0,0,0,280.51,1118.91Z" transform="translate(-5.39)"/><path class="cls-1" d="M305.81,1121.85a5.8,5.8,0,0,1-2.06,1,9.31,9.31,0,0,1-2.56.35,7.25,7.25,0,0,1-5.23-1.77,6.79,6.79,0,0,1-1.85-5.16v-9.89h-3.39v-3.84h3.39v-4.7h4.81v4.7h5.5v3.84h-5.5v9.78a3.25,3.25,0,0,0,.73,2.29,2.77,2.77,0,0,0,2.12.79,4.26,4.26,0,0,0,2.69-.85Z" transform="translate(-5.39)"/><path class="cls-1" d="M310,1098.21a2.83,2.83,0,0,1,0-4.12,3.09,3.09,0,0,1,2.19-.82,3.24,3.24,0,0,1,2.2.78,2.59,2.59,0,0,1,.88,2,2.9,2.9,0,0,1-.87,2.13,3,3,0,0,1-2.21.87A3.09,3.09,0,0,1,310,1098.21Zm-.23,4.21h4.81V1123h-4.81Z" transform="translate(-5.39)"/><path class="cls-1" d="M335.68,1104.37c1.6,1.45,2.41,3.63,2.41,6.56v12h-4.54v-2.5a5.62,5.62,0,0,1-2.52,2.06,10,10,0,0,1-3.95.71,9.77,9.77,0,0,1-4-.79,6.33,6.33,0,0,1-2.67-2.19,5.58,5.58,0,0,1-.94-3.18,5.43,5.43,0,0,1,2.05-4.44q2.07-1.68,6.49-1.68h5.31v-.3a4.21,4.21,0,0,0-1.29-3.31,5.59,5.59,0,0,0-3.83-1.16,11,11,0,0,0-3.41.54,8.42,8.42,0,0,0-2.82,1.5l-1.89-3.5a11.55,11.55,0,0,1,3.89-1.88,17.1,17.1,0,0,1,4.81-.66C331.76,1102.19,334.08,1102.92,335.68,1104.37Zm-4.39,14.54a4.51,4.51,0,0,0,2-2.37v-2.38h-5q-4.15,0-4.15,2.73a2.45,2.45,0,0,0,1,2.08,4.76,4.76,0,0,0,2.88.77A6.19,6.19,0,0,0,331.29,1118.91Z" transform="translate(-5.39)"/><path class="cls-1" d="M498.17,1100.27h-8.92V1096H512.1v4.23h-8.92V1123h-5Z" transform="translate(-5.39)"/><path class="cls-1" d="M532.53,1114.23H516.41a5.56,5.56,0,0,0,2.21,3.6,7.25,7.25,0,0,0,4.45,1.33,7.5,7.5,0,0,0,5.58-2.23l2.57,3a8.65,8.65,0,0,1-3.5,2.5,13.82,13.82,0,0,1-10.73-.5,9.68,9.68,0,0,1-4-3.75,10.55,10.55,0,0,1-1.41-5.44,10.77,10.77,0,0,1,1.37-5.41,9.69,9.69,0,0,1,3.79-3.75,11,11,0,0,1,5.46-1.35,10.75,10.75,0,0,1,5.37,1.33,9.33,9.33,0,0,1,3.69,3.73,11.26,11.26,0,0,1,1.33,5.56C532.61,1113.14,532.58,1113.62,532.53,1114.23Zm-14.21-6.82a5.72,5.72,0,0,0-2,3.63H528a5.67,5.67,0,0,0-1.88-3.62,6.26,6.26,0,0,0-7.83,0Zm5.75-13.07h5.65l-6.69,5.27h-4.16Z" transform="translate(-5.39)"/><path class="cls-1" d="M557.35,1094.42V1123h-4.62v-2.66a7.37,7.37,0,0,1-2.94,2.2,10.11,10.11,0,0,1-3.87.73,10.88,10.88,0,0,1-5.33-1.31,9.45,9.45,0,0,1-3.71-3.71,11.12,11.12,0,0,1-1.35-5.52,11,11,0,0,1,1.35-5.51,9.47,9.47,0,0,1,3.71-3.69,10.88,10.88,0,0,1,5.33-1.31,9.79,9.79,0,0,1,3.73.69,7.68,7.68,0,0,1,2.89,2.08v-10.54Zm-7.73,23.91a5.65,5.65,0,0,0,2.19-2.25,7.48,7.48,0,0,0,0-6.77,5.72,5.72,0,0,0-2.19-2.25,6.56,6.56,0,0,0-6.24,0,5.72,5.72,0,0,0-2.19,2.25,7.48,7.48,0,0,0,0,6.77,5.65,5.65,0,0,0,2.19,2.25,6.56,6.56,0,0,0,6.24,0Z" transform="translate(-5.39)"/><path class="cls-1" d="M563.89,1098.21a2.83,2.83,0,0,1,0-4.12,3.09,3.09,0,0,1,2.19-.82,3.22,3.22,0,0,1,2.2.78,2.55,2.55,0,0,1,.88,2,2.9,2.9,0,0,1-.87,2.13,3,3,0,0,1-2.21.87A3.09,3.09,0,0,1,563.89,1098.21Zm-.23,4.21h4.81V1123h-4.81Z" transform="translate(-5.39)"/><path class="cls-1" d="M578.39,1121.89a9.84,9.84,0,0,1-3.9-3.75,11.18,11.18,0,0,1,0-10.87,9.86,9.86,0,0,1,3.9-3.73,12.46,12.46,0,0,1,11.28,0,9.86,9.86,0,0,1,3.9,3.73,11.18,11.18,0,0,1,0,10.87,9.84,9.84,0,0,1-3.9,3.75,12.46,12.46,0,0,1-11.28,0Zm10-4.54a7.13,7.13,0,0,0,0-9.31,5.89,5.89,0,0,0-4.39-1.77,5.83,5.83,0,0,0-4.37,1.77,7.19,7.19,0,0,0,0,9.31,5.83,5.83,0,0,0,4.37,1.77A5.89,5.89,0,0,0,588.4,1117.35Z" transform="translate(-5.39)"/><path class="cls-1" d="M787.42,1117.4l-5.5-7.88c-.23,0-.58,0-1,0H774.8v7.84h-5v-26.93h11.08a14.88,14.88,0,0,1,6.1,1.16,8.88,8.88,0,0,1,4,3.3,10.05,10.05,0,0,1-.09,10.35,8.76,8.76,0,0,1-4.25,3.27l6.19,8.85Zm-1.8-21.31a7.73,7.73,0,0,0-5-1.39H774.8v10.74h5.85a7.61,7.61,0,0,0,5-1.41,4.89,4.89,0,0,0,1.69-4A4.84,4.84,0,0,0,785.62,1096.09Z" transform="translate(-5.39)"/><path class="cls-1" d="M816.7,1108.67H800.58a5.61,5.61,0,0,0,2.21,3.6,7.32,7.32,0,0,0,4.45,1.33,7.48,7.48,0,0,0,5.58-2.24l2.58,3a8.85,8.85,0,0,1-3.51,2.5,12.83,12.83,0,0,1-4.77.84,12.68,12.68,0,0,1-6-1.34,9.68,9.68,0,0,1-4-3.75,10.59,10.59,0,0,1-1.41-5.45,10.73,10.73,0,0,1,1.37-5.4,9.65,9.65,0,0,1,3.79-3.76,11.12,11.12,0,0,1,5.46-1.34,10.75,10.75,0,0,1,5.37,1.33,9.27,9.27,0,0,1,3.69,3.73,11.24,11.24,0,0,1,1.33,5.56C816.78,1107.58,816.75,1108.05,816.7,1108.67Zm-14.21-6.83a5.72,5.72,0,0,0-2,3.64H812.2a5.64,5.64,0,0,0-1.88-3.62,6.28,6.28,0,0,0-7.83,0Z" transform="translate(-5.39)"/><path class="cls-1" d="M821.4,1088.86h4.81v28.54H821.4Z" transform="translate(-5.39)"/><path class="cls-1" d="M847.31,1098.8q2.4,2.17,2.4,6.56v12h-4.54v-2.5a5.56,5.56,0,0,1-2.52,2.06,9.74,9.74,0,0,1-3.94.71,9.58,9.58,0,0,1-4-.79,6.13,6.13,0,0,1-2.67-2.19,5.53,5.53,0,0,1-1-3.17,5.46,5.46,0,0,1,2.06-4.45q2.05-1.66,6.48-1.67h5.31v-.31a4.25,4.25,0,0,0-1.28-3.31,5.58,5.58,0,0,0-3.83-1.15,11,11,0,0,0-3.41.54,8.47,8.47,0,0,0-2.83,1.5l-1.88-3.5a11.8,11.8,0,0,1,3.88-1.89,17.57,17.57,0,0,1,4.81-.65Q844.91,1096.63,847.31,1098.8Zm-4.39,14.54a4.46,4.46,0,0,0,2-2.36v-2.39h-5q-4.16,0-4.15,2.74a2.44,2.44,0,0,0,1,2.07,4.75,4.75,0,0,0,2.89.77A6.09,6.09,0,0,0,842.92,1113.34Z" transform="translate(-5.39)"/><path class="cls-1" d="M869,1117.4l-5.27-7.11-5.31,7.11h-5.31l8-10.42-7.65-10.12h5.35l5,6.73,5-6.73H874l-7.7,10,8,10.5Z" transform="translate(-5.39)"/><path class="cls-1" d="M892.33,1098.8q2.4,2.17,2.4,6.56v12h-4.54v-2.5a5.56,5.56,0,0,1-2.52,2.06,9.74,9.74,0,0,1-3.94.71,9.58,9.58,0,0,1-4-.79,6.16,6.16,0,0,1-2.68-2.19,5.52,5.52,0,0,1-.94-3.17,5.46,5.46,0,0,1,2.06-4.45q2.05-1.66,6.48-1.67h5.31v-.31a4.22,4.22,0,0,0-1.29-3.31,5.57,5.57,0,0,0-3.83-1.15,11,11,0,0,0-3.4.54,8.38,8.38,0,0,0-2.83,1.5l-1.88-3.5a11.7,11.7,0,0,1,3.88-1.89,17.52,17.52,0,0,1,4.81-.65C888.41,1096.63,890.72,1097.35,892.33,1098.8Zm-4.39,14.54a4.46,4.46,0,0,0,2-2.36v-2.39h-5q-4.15,0-4.16,2.74a2.44,2.44,0,0,0,1,2.07,4.73,4.73,0,0,0,2.89.77A6.14,6.14,0,0,0,887.94,1113.34Z" transform="translate(-5.39)"/><path class="cls-1" d="M933,1098.88q2.28,2.25,2.28,6.75v11.77h-4.81v-11.15a6,6,0,0,0-1.2-4.06,4.29,4.29,0,0,0-3.42-1.37,5,5,0,0,0-3.89,1.6,6.52,6.52,0,0,0-1.46,4.56v10.42h-4.81v-11.15a6,6,0,0,0-1.19-4.06,4.32,4.32,0,0,0-3.43-1.37,5,5,0,0,0-3.9,1.58,6.57,6.57,0,0,0-1.44,4.58v10.42h-4.81v-20.54h4.57v2.61a7.58,7.58,0,0,1,2.89-2.11,9.75,9.75,0,0,1,3.85-.73,9.42,9.42,0,0,1,4.1.86,6.64,6.64,0,0,1,2.82,2.56,8.56,8.56,0,0,1,3.27-2.52,10.7,10.7,0,0,1,4.43-.9A8.34,8.34,0,0,1,933,1098.88Z" transform="translate(-5.39)"/><path class="cls-1" d="M960.83,1108.67H944.71a5.61,5.61,0,0,0,2.21,3.6,7.3,7.3,0,0,0,4.45,1.33,7.47,7.47,0,0,0,5.57-2.24l2.58,3a8.74,8.74,0,0,1-3.5,2.5,12.83,12.83,0,0,1-4.77.84,12.62,12.62,0,0,1-6-1.34,9.77,9.77,0,0,1-4-3.75,11.32,11.32,0,0,1,0-10.85,9.65,9.65,0,0,1,3.79-3.76,11.1,11.1,0,0,1,5.46-1.34,10.75,10.75,0,0,1,5.37,1.33,9.39,9.39,0,0,1,3.69,3.73,11.35,11.35,0,0,1,1.33,5.56C960.91,1107.58,960.88,1108.05,960.83,1108.67Zm-14.22-6.83a5.75,5.75,0,0,0-1.94,3.64h11.66a5.65,5.65,0,0,0-1.89-3.62,5.74,5.74,0,0,0-3.92-1.38A5.82,5.82,0,0,0,946.61,1101.84Z" transform="translate(-5.39)"/><path class="cls-1" d="M983.42,1098.9c1.56,1.51,2.34,3.76,2.34,6.73v11.77H981v-11.15a5.75,5.75,0,0,0-1.27-4.06,4.68,4.68,0,0,0-3.61-1.37,5.55,5.55,0,0,0-4.2,1.6,6.39,6.39,0,0,0-1.54,4.6v10.38h-4.81v-20.54h4.58v2.65a7.59,7.59,0,0,1,3-2.15,10.79,10.79,0,0,1,4.08-.73A8.58,8.58,0,0,1,983.42,1098.9Z" transform="translate(-5.39)"/><path class="cls-1" d="M1004.23,1116.29a5.63,5.63,0,0,1-2.06,1,9.31,9.31,0,0,1-2.56.34,7.26,7.26,0,0,1-5.23-1.77,6.8,6.8,0,0,1-1.85-5.15v-9.89h-3.38V1097h3.38v-4.69h4.81V1097h5.5v3.85h-5.5v9.77a3.28,3.28,0,0,0,.73,2.29,2.75,2.75,0,0,0,2.12.79,4.16,4.16,0,0,0,2.69-.85Z" transform="translate(-5.39)"/><path class="cls-1" d="M1011.12,1116.33a9.87,9.87,0,0,1-3.91-3.75,10.68,10.68,0,0,1-1.4-5.45,10.55,10.55,0,0,1,1.4-5.42,9.91,9.91,0,0,1,3.91-3.74,12.52,12.52,0,0,1,11.27,0,9.91,9.91,0,0,1,3.91,3.74,10.55,10.55,0,0,1,1.4,5.42,10.68,10.68,0,0,1-1.4,5.45,9.87,9.87,0,0,1-3.91,3.75,12.52,12.52,0,0,1-11.27,0Zm10-4.54a7.13,7.13,0,0,0,0-9.31,5.88,5.88,0,0,0-4.39-1.77,5.8,5.8,0,0,0-4.36,1.77,7.19,7.19,0,0,0,0,9.31,5.8,5.8,0,0,0,4.36,1.77A5.88,5.88,0,0,0,1021.12,1111.79Z" transform="translate(-5.39)"/><path class="cls-1" d="M800.5,778.82a13.15,13.15,0,0,1-5.16-5,14.4,14.4,0,0,1,0-14.23,13.38,13.38,0,0,1,5.17-4.95,16.17,16.17,0,0,1,13.41-.63,12.29,12.29,0,0,1,4.62,3.35l-3.23,3a9.41,9.41,0,0,0-7.2-3.16,10.07,10.07,0,0,0-5,1.21,8.73,8.73,0,0,0-3.42,3.37,10.24,10.24,0,0,0,0,9.77,8.73,8.73,0,0,0,3.42,3.37,10.07,10.07,0,0,0,5,1.21,9.37,9.37,0,0,0,7.2-3.19l3.23,3.07a12.21,12.21,0,0,1-4.64,3.35,15.47,15.47,0,0,1-6.06,1.16A15.16,15.16,0,0,1,800.5,778.82Z" transform="translate(-5.39)"/><path class="cls-1" d="M825.75,779.14a9.78,9.78,0,0,1-3.9-3.75,11.18,11.18,0,0,1,0-10.87,9.93,9.93,0,0,1,3.9-3.73,12.54,12.54,0,0,1,11.28,0,9.86,9.86,0,0,1,3.9,3.73,11.18,11.18,0,0,1,0,10.87,9.71,9.71,0,0,1-3.9,3.75,12.46,12.46,0,0,1-11.28,0Zm10-4.54a7.13,7.13,0,0,0,0-9.31,5.89,5.89,0,0,0-4.39-1.77,5.83,5.83,0,0,0-4.37,1.77,7.19,7.19,0,0,0,0,9.31,5.83,5.83,0,0,0,4.37,1.77A5.89,5.89,0,0,0,835.76,774.6Z" transform="translate(-5.39)"/><path class="cls-1" d="M864.84,761.71c1.57,1.52,2.35,3.76,2.35,6.74v11.77h-4.81V769.06a5.78,5.78,0,0,0-1.27-4.06,4.68,4.68,0,0,0-3.61-1.36,5.55,5.55,0,0,0-4.2,1.6,6.36,6.36,0,0,0-1.54,4.59v10.39H847V759.68h4.58v2.65a7.5,7.5,0,0,1,3-2.15,10.79,10.79,0,0,1,4.08-.73A8.58,8.58,0,0,1,864.84,761.71Z" transform="translate(-5.39)"/><path class="cls-1" d="M885.66,779.11a5.62,5.62,0,0,1-2.06,1,9,9,0,0,1-2.56.35,7.26,7.26,0,0,1-5.23-1.77,6.82,6.82,0,0,1-1.85-5.15v-9.89h-3.38v-3.85H874v-4.69h4.81v4.69h5.5v3.85h-5.5v9.77a3.3,3.3,0,0,0,.73,2.29,2.75,2.75,0,0,0,2.12.79,4.18,4.18,0,0,0,2.69-.85Z" transform="translate(-5.39)"/><path class="cls-1" d="M901.51,759.45V764a6.7,6.7,0,0,0-1.11-.11,5.8,5.8,0,0,0-4.39,1.63,6.55,6.55,0,0,0-1.58,4.72v10h-4.81V759.68h4.58v3C895.59,760.52,898,759.45,901.51,759.45Z" transform="translate(-5.39)"/><path class="cls-1" d="M909,779.14a9.71,9.71,0,0,1-3.9-3.75,11.18,11.18,0,0,1,0-10.87,9.86,9.86,0,0,1,3.9-3.73,12.54,12.54,0,0,1,11.28,0,9.86,9.86,0,0,1,3.9,3.73,11.18,11.18,0,0,1,0,10.87,9.71,9.71,0,0,1-3.9,3.75,12.46,12.46,0,0,1-11.28,0Zm10-4.54a7.13,7.13,0,0,0,0-9.31,5.89,5.89,0,0,0-4.39-1.77,5.83,5.83,0,0,0-4.37,1.77,7.19,7.19,0,0,0,0,9.31,5.83,5.83,0,0,0,4.37,1.77A5.89,5.89,0,0,0,919,774.6Z" transform="translate(-5.39)"/><path class="cls-1" d="M930.21,751.67H935v28.55h-4.81Z" transform="translate(-5.39)"/><path class="cls-1" d="M960.57,771.49H944.45a5.57,5.57,0,0,0,2.21,3.59,7.23,7.23,0,0,0,4.45,1.33,7.47,7.47,0,0,0,5.57-2.23l2.58,3a8.56,8.56,0,0,1-3.5,2.5,13.82,13.82,0,0,1-10.73-.5,9.64,9.64,0,0,1-4-3.75,11.32,11.32,0,0,1,0-10.85,9.69,9.69,0,0,1,3.79-3.75,11,11,0,0,1,5.46-1.34,10.85,10.85,0,0,1,5.37,1.32,9.52,9.52,0,0,1,3.69,3.73,11.29,11.29,0,0,1,1.33,5.56C960.65,770.4,960.62,770.87,960.57,771.49Zm-14.22-6.83a5.75,5.75,0,0,0-1.94,3.63h11.66a5.64,5.64,0,0,0-5.81-5A5.83,5.83,0,0,0,946.35,764.66Z" transform="translate(-5.39)"/><path class="cls-1" d="M558.54,373.19v4.19h-20.2V350.45H558v4.19H543.34v7h13v4.11h-13v7.43Z" transform="translate(-5.39)"/><path class="cls-1" d="M576.35,377.38l-5.27-7.12-5.31,7.12h-5.31l8-10.42-7.65-10.12h5.34l5,6.73,5-6.73h5.2l-7.7,10,8,10.5Z" transform="translate(-5.39)"/><path class="cls-1" d="M599.72,358.78q2.41,2.18,2.41,6.56v12h-4.54v-2.5a5.62,5.62,0,0,1-2.52,2.06,10,10,0,0,1-4,.71,9.64,9.64,0,0,1-4-.79,6.19,6.19,0,0,1-2.67-2.19,5.57,5.57,0,0,1-.94-3.17,5.43,5.43,0,0,1,2.06-4.45q2.06-1.67,6.48-1.67h5.31v-.31a4.21,4.21,0,0,0-1.29-3.31,5.57,5.57,0,0,0-3.83-1.15,11,11,0,0,0-3.4.54,8,8,0,0,0-2.83,1.5l-1.89-3.51a11.84,11.84,0,0,1,3.89-1.88,17.15,17.15,0,0,1,4.81-.65Q597.32,356.61,599.72,358.78Zm-4.38,14.54a4.55,4.55,0,0,0,2-2.36v-2.39h-5q-4.15,0-4.16,2.73a2.46,2.46,0,0,0,1,2.08,4.76,4.76,0,0,0,2.88.77A6.16,6.16,0,0,0,595.34,373.32Z" transform="translate(-5.39)"/><path class="cls-1" d="M608.29,348.83h4.8v28.55h-4.8Z" transform="translate(-5.39)"/><path class="cls-1" d="M632.75,376.27a5.65,5.65,0,0,1-2,1,9,9,0,0,1-2.56.35,7.27,7.27,0,0,1-5.24-1.77,6.81,6.81,0,0,1-1.84-5.15v-9.89h-3.39V357h3.39V352.3h4.81V357h5.5v3.85h-5.5v9.77a3.25,3.25,0,0,0,.73,2.29,2.71,2.71,0,0,0,2.11.79,4.21,4.21,0,0,0,2.7-.85Z" transform="translate(-5.39)"/><path class="cls-1" d="M651.51,358.78c1.6,1.45,2.41,3.64,2.41,6.56v12h-4.54v-2.5a5.7,5.7,0,0,1-2.53,2.06,9.91,9.91,0,0,1-3.94.71,9.61,9.61,0,0,1-4-.79,6.19,6.19,0,0,1-2.67-2.19,5.58,5.58,0,0,1-1-3.17,5.46,5.46,0,0,1,2.06-4.45c1.37-1.11,3.54-1.67,6.49-1.67h5.31v-.31a4.21,4.21,0,0,0-1.29-3.31,5.58,5.58,0,0,0-3.83-1.15,11,11,0,0,0-3.41.54,8.13,8.13,0,0,0-2.83,1.5l-1.88-3.51a11.74,11.74,0,0,1,3.89-1.88,17.1,17.1,0,0,1,4.81-.65C647.59,356.61,649.91,357.33,651.51,358.78Zm-4.39,14.54a4.53,4.53,0,0,0,2-2.36v-2.39h-5q-4.15,0-4.15,2.73a2.44,2.44,0,0,0,1,2.08,4.76,4.76,0,0,0,2.88.77A6.09,6.09,0,0,0,647.12,373.32Z" transform="translate(-5.39)"/><path class="cls-1" d="M664,376.3a9.77,9.77,0,0,1-4-3.75,11.11,11.11,0,0,1,0-10.87,10,10,0,0,1,4-3.73,12,12,0,0,1,5.75-1.34,11.1,11.1,0,0,1,5.33,1.23,8,8,0,0,1,3.44,3.54l-3.69,2.15a5.84,5.84,0,0,0-2.21-2.13,6,6,0,0,0-2.91-.72,6.12,6.12,0,0,0-4.46,1.75,7.09,7.09,0,0,0,0,9.35,6.5,6.5,0,0,0,7.39,1,5.84,5.84,0,0,0,2.21-2.13l3.69,2.15A8.25,8.25,0,0,1,675,376.4a10.91,10.91,0,0,1-5.29,1.25A12,12,0,0,1,664,376.3Zm.19,9.05.88-2.27a5.65,5.65,0,0,0,2.62.61q2,0,2-1.38a1.08,1.08,0,0,0-.5-.93,2.75,2.75,0,0,0-1.54-.34h-1.19l1-3.93h2.61l-.54,2.16a4,4,0,0,1,2.51,1.06,3,3,0,0,1,.84,2.17,3.08,3.08,0,0,1-1.42,2.65,6.49,6.49,0,0,1-3.81,1A7.29,7.29,0,0,1,664.15,385.35Z" transform="translate(-5.39)"/><path class="cls-1" d="M697.41,358.78c1.6,1.45,2.41,3.64,2.41,6.56v12h-4.54v-2.5a5.7,5.7,0,0,1-2.53,2.06,9.87,9.87,0,0,1-3.94.71,9.61,9.61,0,0,1-4-.79,6.19,6.19,0,0,1-2.67-2.19,5.57,5.57,0,0,1-.94-3.17,5.45,5.45,0,0,1,2.05-4.45c1.37-1.11,3.54-1.67,6.49-1.67H695v-.31a4.21,4.21,0,0,0-1.29-3.31,5.58,5.58,0,0,0-3.83-1.15,11,11,0,0,0-3.41.54,8,8,0,0,0-2.82,1.5l-1.89-3.51a11.74,11.74,0,0,1,3.89-1.88,17.1,17.1,0,0,1,4.81-.65C693.49,356.61,695.81,357.33,697.41,358.78ZM692,353.64a14.17,14.17,0,0,1-1.75-1.15q-.63-.5-1-.75a1.49,1.49,0,0,0-.79-.25,1.66,1.66,0,0,0-1.33.61,2.72,2.72,0,0,0-.56,1.7H684a6,6,0,0,1,1.18-3.76,3.65,3.65,0,0,1,3-1.4,3.41,3.41,0,0,1,1.67.39,14.17,14.17,0,0,1,1.75,1.15,11.46,11.46,0,0,0,1,.75,1.46,1.46,0,0,0,.79.25,1.7,1.7,0,0,0,1.33-.58,2.46,2.46,0,0,0,.56-1.61h2.57a5.93,5.93,0,0,1-1.19,3.65,3.59,3.59,0,0,1-3,1.39A3.41,3.41,0,0,1,692,353.64Zm1,19.68a4.53,4.53,0,0,0,2-2.36v-2.39h-5q-4.15,0-4.15,2.73a2.44,2.44,0,0,0,1,2.08,4.76,4.76,0,0,0,2.88.77A6.09,6.09,0,0,0,693,373.32Z" transform="translate(-5.39)"/><path class="cls-1" d="M709.78,376.3a9.74,9.74,0,0,1-3.91-3.75,11.25,11.25,0,0,1,0-10.87,9.89,9.89,0,0,1,3.91-3.73,12.52,12.52,0,0,1,11.27,0,9.89,9.89,0,0,1,3.91,3.73,11.25,11.25,0,0,1,0,10.87,9.74,9.74,0,0,1-3.91,3.75,12.44,12.44,0,0,1-11.27,0Zm10-4.54a7.13,7.13,0,0,0,0-9.31,6.29,6.29,0,0,0-8.75,0,7.19,7.19,0,0,0,0,9.31,6.29,6.29,0,0,0,8.75,0Z" transform="translate(-5.39)"/><path class="cls-1" d="M442.3,37.3H428.83l-2.65,6.24H421L433.14,16.6h4.93l12.15,26.94H445Zm-1.66-3.92-5.08-11.77-5,11.77Z" transform="translate(-5.39)"/><path class="cls-1" d="M469.94,24.07a9.34,9.34,0,0,1,3.71,3.69,11,11,0,0,1,1.35,5.5,11.13,11.13,0,0,1-1.35,5.53,9.33,9.33,0,0,1-3.71,3.71,11,11,0,0,1-5.37,1.31A8.29,8.29,0,0,1,458,41V51h-4.81V23h4.57v2.69a7.54,7.54,0,0,1,2.95-2.19,9.83,9.83,0,0,1,3.86-.73A11,11,0,0,1,469.94,24.07ZM468.4,37.92a6.42,6.42,0,0,0,1.71-4.66,6.41,6.41,0,0,0-1.71-4.65A5.81,5.81,0,0,0,464,26.84a6.13,6.13,0,0,0-3.12.79,5.59,5.59,0,0,0-2.19,2.25,7.48,7.48,0,0,0,0,6.77,5.65,5.65,0,0,0,2.19,2.25,6.13,6.13,0,0,0,3.12.79A5.81,5.81,0,0,0,468.4,37.92Z" transform="translate(-5.39)"/><path class="cls-1" d="M491.47,22.76v4.58a5.86,5.86,0,0,0-1.12-.12A5.8,5.8,0,0,0,486,28.86a6.52,6.52,0,0,0-1.58,4.71v10h-4.81V23h4.58v3Q486.23,22.77,491.47,22.76Z" transform="translate(-5.39)"/><path class="cls-1" d="M514.59,34.8H498.47a5.56,5.56,0,0,0,2.21,3.6,7.25,7.25,0,0,0,4.45,1.33,7.54,7.54,0,0,0,5.58-2.23l2.57,3a8.65,8.65,0,0,1-3.5,2.5,12.83,12.83,0,0,1-4.77.85,12.65,12.65,0,0,1-6-1.35,9.68,9.68,0,0,1-4-3.75,10.56,10.56,0,0,1-1.41-5.45,10.73,10.73,0,0,1,1.37-5.4,9.63,9.63,0,0,1,3.79-3.75,11,11,0,0,1,5.46-1.35,10.75,10.75,0,0,1,5.37,1.33,9.33,9.33,0,0,1,3.69,3.73,11.26,11.26,0,0,1,1.33,5.56C514.67,33.71,514.64,34.19,514.59,34.8ZM500.38,28a5.74,5.74,0,0,0-1.95,3.64h11.66A5.71,5.71,0,0,0,508.21,28a6.28,6.28,0,0,0-7.83,0Z" transform="translate(-5.39)"/><path class="cls-1" d="M537.18,25c1.56,1.51,2.34,3.76,2.34,6.73V43.54h-4.81V32.38a5.75,5.75,0,0,0-1.27-4.06A4.68,4.68,0,0,0,529.83,27a5.59,5.59,0,0,0-4.2,1.6,6.4,6.4,0,0,0-1.53,4.6V43.54h-4.81V23h4.57v2.66a7.58,7.58,0,0,1,3-2.16,10.7,10.7,0,0,1,4.07-.73A8.63,8.63,0,0,1,537.18,25Z" transform="translate(-5.39)"/><path class="cls-1" d="M566,15V43.54h-4.62V40.88a7.51,7.51,0,0,1-2.94,2.2,10.11,10.11,0,0,1-3.87.73,10.85,10.85,0,0,1-5.33-1.31,9.33,9.33,0,0,1-3.71-3.71,11.13,11.13,0,0,1-1.35-5.53,11,11,0,0,1,1.35-5.5,9.34,9.34,0,0,1,3.71-3.69,10.85,10.85,0,0,1,5.33-1.31,9.79,9.79,0,0,1,3.73.69,7.68,7.68,0,0,1,2.89,2.08V15ZM558.22,38.9a5.67,5.67,0,0,0,2.2-2.25,7.56,7.56,0,0,0,0-6.77,5.61,5.61,0,0,0-2.2-2.25,6.54,6.54,0,0,0-6.23,0,5.59,5.59,0,0,0-2.19,2.25,7.48,7.48,0,0,0,0,6.77A5.65,5.65,0,0,0,552,38.9a6.54,6.54,0,0,0,6.23,0Z" transform="translate(-5.39)"/><path class="cls-1" d="M591.5,34.8H575.38a5.56,5.56,0,0,0,2.21,3.6A7.25,7.25,0,0,0,582,39.73a7.53,7.53,0,0,0,5.58-2.23l2.58,3a8.75,8.75,0,0,1-3.51,2.5,12.83,12.83,0,0,1-4.77.85,12.68,12.68,0,0,1-6-1.35,9.68,9.68,0,0,1-4-3.75,10.56,10.56,0,0,1-1.41-5.45,10.73,10.73,0,0,1,1.37-5.4,9.63,9.63,0,0,1,3.79-3.75,11,11,0,0,1,5.46-1.35,10.75,10.75,0,0,1,5.37,1.33,9.33,9.33,0,0,1,3.69,3.73,11.26,11.26,0,0,1,1.33,5.56C591.58,33.71,591.55,34.19,591.5,34.8ZM577.29,28a5.74,5.74,0,0,0-1.95,3.64H587A5.67,5.67,0,0,0,585.12,28a6.28,6.28,0,0,0-7.83,0Z" transform="translate(-5.39)"/><path class="cls-1" d="M608.09,22.76v4.58a6,6,0,0,0-1.12-.12,5.84,5.84,0,0,0-4.39,1.64A6.52,6.52,0,0,0,601,33.57v10H596.2V23h4.58v3Q602.85,22.77,608.09,22.76Z" transform="translate(-5.39)"/><path class="cls-1" d="M655.06,25c1.52,1.5,2.27,3.75,2.27,6.75V43.54h-4.81V32.38a6,6,0,0,0-1.19-4.06A4.3,4.3,0,0,0,647.91,27a5,5,0,0,0-3.89,1.6,6.56,6.56,0,0,0-1.46,4.56V43.54h-4.81V32.38a6,6,0,0,0-1.19-4.06A4.32,4.32,0,0,0,633.13,27a5,5,0,0,0-3.9,1.58,6.57,6.57,0,0,0-1.44,4.58V43.54H623V23h4.57v2.62a7.5,7.5,0,0,1,2.89-2.12,9.75,9.75,0,0,1,3.85-.73,9.21,9.21,0,0,1,4.09.87,6.59,6.59,0,0,1,2.83,2.55,8.64,8.64,0,0,1,3.27-2.51,10.54,10.54,0,0,1,4.43-.91A8.34,8.34,0,0,1,655.06,25Z" transform="translate(-5.39)"/><path class="cls-1" d="M678.28,24.93q2.41,2.17,2.41,6.56V43.54h-4.54V41a5.6,5.6,0,0,1-2.52,2.05,11,11,0,0,1-8-.07,6.28,6.28,0,0,1-2.67-2.2,5.52,5.52,0,0,1-.94-3.17,5.4,5.4,0,0,1,2.06-4.44q2.05-1.68,6.48-1.68h5.31v-.31a4.2,4.2,0,0,0-1.29-3.3,5.57,5.57,0,0,0-3.83-1.16,11,11,0,0,0-3.4.54,8.38,8.38,0,0,0-2.83,1.5l-1.89-3.5a11.85,11.85,0,0,1,3.89-1.89,17.52,17.52,0,0,1,4.81-.65C674.37,22.76,676.68,23.49,678.28,24.93ZM673.9,39.48a4.54,4.54,0,0,0,2-2.37V34.73h-5q-4.15,0-4.16,2.73a2.48,2.48,0,0,0,1,2.08,4.76,4.76,0,0,0,2.88.77A6.25,6.25,0,0,0,673.9,39.48Z" transform="translate(-5.39)"/><path class="cls-1" d="M687.08,18.78a2.83,2.83,0,0,1,0-4.12,3.09,3.09,0,0,1,2.19-.83,3.2,3.2,0,0,1,2.19.79,2.56,2.56,0,0,1,.89,2,2.9,2.9,0,0,1-.87,2.14,3,3,0,0,1-2.21.87A3.09,3.09,0,0,1,687.08,18.78ZM686.84,23h4.81V43.54h-4.81Z" transform="translate(-5.39)"/><path class="cls-1" d="M699.42,43.15a11.94,11.94,0,0,1-3.8-1.65l1.84-3.66a11.86,11.86,0,0,0,3.33,1.48,13.55,13.55,0,0,0,3.83.56c2.87,0,4.31-.75,4.31-2.27a1.52,1.52,0,0,0-1.1-1.5,19.26,19.26,0,0,0-3.52-.81,28.55,28.55,0,0,1-4.14-.88,6.51,6.51,0,0,1-2.77-1.75,4.92,4.92,0,0,1-1.17-3.48,5.48,5.48,0,0,1,2.44-4.68,11.11,11.11,0,0,1,6.6-1.75,19.06,19.06,0,0,1,4.23.48A11.78,11.78,0,0,1,713,24.53l-1.85,3.66a11.36,11.36,0,0,0-5.89-1.54,6.55,6.55,0,0,0-3.21.63,1.9,1.9,0,0,0-1.1,1.68,1.68,1.68,0,0,0,1.18,1.63,18.5,18.5,0,0,0,3.63.9,28.62,28.62,0,0,1,4,.89,6.33,6.33,0,0,1,2.72,1.69,4.77,4.77,0,0,1,1.13,3.39,5.37,5.37,0,0,1-2.5,4.62,11.84,11.84,0,0,1-6.81,1.73A18.25,18.25,0,0,1,699.42,43.15Z" transform="translate(-5.39)"/><path class="cls-1" d="M852.7,461.47v8.2h13v4.23h-13v10.31h-5V457.28h19.66v4.19Z" transform="translate(-5.39)"/><path class="cls-1" d="M872.21,457.28h5V480h14.08v4.23H872.21Z" transform="translate(-5.39)"/><path class="cls-1" d="M897.75,481.46q-3.11-3.13-3.11-9v-15.2h5v15q0,7.94,6.85,7.93t6.81-7.93v-15h4.92v15.2q0,5.85-3.09,9t-8.68,3.14Q900.87,484.6,897.75,481.46Z" transform="translate(-5.39)"/><path class="cls-1" d="M941.81,484.21,934.5,474l-7.23,10.23h-5.7l10-13.73-9.46-13.2h5.66l6.88,9.58,6.81-9.58h5.43l-9.43,13,10.12,13.93Z" transform="translate(-5.39)"/><path class="cls-1" d="M955.7,482.81a13.23,13.23,0,0,1-5.2-5,14.33,14.33,0,0,1,0-14.19,13.3,13.3,0,0,1,5.2-5,16.29,16.29,0,0,1,14.85,0,13.23,13.23,0,0,1,5.19,4.95,14.34,14.34,0,0,1,0,14.23,13.16,13.16,0,0,1-5.19,4.95,16.29,16.29,0,0,1-14.85,0ZM968,479a8.77,8.77,0,0,0,3.39-3.39,10.24,10.24,0,0,0,0-9.73,8.77,8.77,0,0,0-3.39-3.39,10.31,10.31,0,0,0-9.69,0,8.77,8.77,0,0,0-3.39,3.39,10.24,10.24,0,0,0,0,9.73,8.77,8.77,0,0,0,3.39,3.39,10.31,10.31,0,0,0,9.69,0Z" transform="translate(-5.39)"/><path class="cls-1" d="M467.68,1350.87v26.93h-5v-11.54H448.75v11.54h-5v-26.93h5V1362h13.93v-11.12Z" transform="translate(-5.39)"/><path class="cls-1" d="M492.38,1371.57H478.91l-2.65,6.23H471.1l12.12-26.93h4.93l12.16,26.93h-5.24Zm-1.65-3.92-5.08-11.78-5,11.78Z" transform="translate(-5.39)"/><path class="cls-1" d="M526.35,1366.24a6.75,6.75,0,0,1,1.31,4.25,6.24,6.24,0,0,1-2.69,5.41c-1.8,1.27-4.41,1.9-7.85,1.9H503.73v-26.93h12.62q4.77,0,7.35,1.87a6,6,0,0,1,2.58,5.13,6.68,6.68,0,0,1-.93,3.54,6.29,6.29,0,0,1-2.54,2.39A7.11,7.11,0,0,1,526.35,1366.24Zm-17.62-11.44v7.42h7.08a7.15,7.15,0,0,0,4-.94,3.11,3.11,0,0,0,1.41-2.75,3.14,3.14,0,0,0-1.41-2.79,7.15,7.15,0,0,0-4-.94ZM522.62,1370q0-3.88-5.81-3.88h-8.08v7.77h8.08Q522.62,1373.88,522.62,1370Z" transform="translate(-5.39)"/><path class="cls-1" d="M533,1350.87h5v26.93h-5Z" transform="translate(-5.39)"/><path class="cls-1" d="M545.28,1350.87h5v22.7h14.09v4.23H545.28Z" transform="translate(-5.39)"/><path class="cls-1" d="M568.33,1350.87h5v26.93h-5Z" transform="translate(-5.39)"/><path class="cls-1" d="M580.6,1350.87h11.78a16.94,16.94,0,0,1,7.65,1.67,12.44,12.44,0,0,1,5.2,4.74,14.46,14.46,0,0,1,0,14.12,12.42,12.42,0,0,1-5.2,4.73,16.81,16.81,0,0,1-7.65,1.67H580.6Zm11.54,22.7a11.53,11.53,0,0,0,5.22-1.13,8.15,8.15,0,0,0,3.46-3.24,10.39,10.39,0,0,0,0-9.73,8.13,8.13,0,0,0-3.46-3.23,11.4,11.4,0,0,0-5.22-1.14H585.6v18.47Z" transform="translate(-5.39)"/><path class="cls-1" d="M629.47,1371.57H616l-2.66,6.23h-5.15l12.12-26.93h4.92l12.16,26.93h-5.23Zm-1.66-3.92-5.08-11.78-5,11.78Z" transform="translate(-5.39)"/><path class="cls-1" d="M640.82,1350.87h11.77a17,17,0,0,1,7.66,1.67,12.42,12.42,0,0,1,5.19,4.74,14.4,14.4,0,0,1,0,14.12,12.39,12.39,0,0,1-5.19,4.73,16.89,16.89,0,0,1-7.66,1.67H640.82Zm11.54,22.7a11.52,11.52,0,0,0,5.21-1.13,8.18,8.18,0,0,0,3.47-3.24,10.39,10.39,0,0,0,0-9.73,8.16,8.16,0,0,0-3.47-3.23,11.39,11.39,0,0,0-5.21-1.14h-6.54v18.47Z" transform="translate(-5.39)"/><path class="cls-1" d="M692.8,1373.61v4.19H672.6v-26.93h19.66v4.19H677.6v7h13v4.11h-13v7.43Z" transform="translate(-5.39)"/><path class="cls-1" d="M1250.5,942.63V930.86a16.83,16.83,0,0,1,1.68-7.66,12.33,12.33,0,0,1,4.73-5.19,14.4,14.4,0,0,1,14.12,0,12.33,12.33,0,0,1,4.73,5.19,16.83,16.83,0,0,1,1.67,7.66v11.77Zm22.7-11.54a11.56,11.56,0,0,0-1.13-5.22,8.15,8.15,0,0,0-3.24-3.46,10.39,10.39,0,0,0-9.73,0,8.13,8.13,0,0,0-3.23,3.46,11.43,11.43,0,0,0-1.14,5.22v6.54h18.47Z" transform="translate(-5.39)"/><path class="cls-1" d="M1268.7,892.07V908.2a5.63,5.63,0,0,0,3.6-2.22,7.27,7.27,0,0,0,1.33-4.44,7.48,7.48,0,0,0-2.24-5.58l3-2.58a8.81,8.81,0,0,1,2.5,3.5,12.83,12.83,0,0,1,.84,4.77,12.69,12.69,0,0,1-1.34,6,9.74,9.74,0,0,1-3.75,4,10.58,10.58,0,0,1-5.45,1.4,10.72,10.72,0,0,1-5.4-1.36,9.72,9.72,0,0,1-3.76-3.79,11.15,11.15,0,0,1-1.34-5.46A10.72,10.72,0,0,1,1258,897a9.35,9.35,0,0,1,3.73-3.7,11.34,11.34,0,0,1,5.56-1.32C1267.61,892,1268.08,892,1268.7,892.07Zm-6.83,14.22a5.7,5.7,0,0,0,3.64,1.94V896.58a5.64,5.64,0,0,0-3.62,1.88,6.28,6.28,0,0,0,0,7.83Z" transform="translate(-5.39)"/><path class="cls-1" d="M1277.05,885.92a12.58,12.58,0,0,1-1.65,3.81l-3.66-1.85a11.61,11.61,0,0,0,1.48-3.33,13.87,13.87,0,0,0,.56-3.83q0-4.31-2.27-4.3a1.51,1.51,0,0,0-1.5,1.09,19.47,19.47,0,0,0-.81,3.52,30,30,0,0,1-.88,4.14,6.45,6.45,0,0,1-1.75,2.77,4.93,4.93,0,0,1-3.49,1.17,5.46,5.46,0,0,1-4.67-2.44,11.11,11.11,0,0,1-1.75-6.6,19.06,19.06,0,0,1,.48-4.23,11.71,11.71,0,0,1,1.29-3.46l3.65,1.84a11.48,11.48,0,0,0-1.54,5.89,6.54,6.54,0,0,0,.64,3.21,1.89,1.89,0,0,0,1.67,1.1,1.67,1.67,0,0,0,1.64-1.18,18.5,18.5,0,0,0,.9-3.63,27.57,27.57,0,0,1,.89-4,6.2,6.2,0,0,1,1.69-2.71,4.7,4.7,0,0,1,3.39-1.14,5.34,5.34,0,0,1,4.61,2.5,11.76,11.76,0,0,1,1.73,6.81A18.24,18.24,0,0,1,1277.05,885.92Z" transform="translate(-5.39)"/><path class="cls-1" d="M1258.83,852.77q2.18-2.4,6.56-2.4h12v4.54h-2.5a5.56,5.56,0,0,1,2.06,2.52,11.06,11.06,0,0,1-.07,8,6.16,6.16,0,0,1-2.2,2.67,5.53,5.53,0,0,1-3.17.95,5.46,5.46,0,0,1-4.45-2.06q-1.66-2.06-1.67-6.48v-5.31h-.31a4.22,4.22,0,0,0-3.31,1.29,5.56,5.56,0,0,0-1.15,3.82,11,11,0,0,0,.54,3.41,8.47,8.47,0,0,0,1.5,2.83l-3.5,1.88a11.8,11.8,0,0,1-1.89-3.88,17.57,17.57,0,0,1-.65-4.81C1256.66,856.69,1257.38,854.38,1258.83,852.77Zm14.55,4.39a4.49,4.49,0,0,0-2.37-2h-2.39v5q0,4.15,2.74,4.15a2.44,2.44,0,0,0,2.07-1,4.75,4.75,0,0,0,.77-2.89A6.21,6.21,0,0,0,1273.38,857.16Z" transform="translate(-5.39)"/><path class="cls-1" d="M1252.68,826.71a2.85,2.85,0,0,1-4.12,0,3.12,3.12,0,0,1-.83-2.2,3.2,3.2,0,0,1,.79-2.19,2.56,2.56,0,0,1,2-.89,2.9,2.9,0,0,1,2.14.87,3,3,0,0,1,.86,2.21A3.11,3.11,0,0,1,1252.68,826.71Zm3.13,12.19H1257v-5.65h3.85v5.5h16.54v4.81h-16.54v3.38H1257v-3.38h-1.31a7,7,0,0,1-5.21-1.93,7.37,7.37,0,0,1-1.9-5.42,7.45,7.45,0,0,1,1.11-4.35l3.62,1.35a4.61,4.61,0,0,0-.85,2.65C1252.5,837.89,1253.61,838.9,1255.81,838.9Zm1.08-12v-4.81h20.54v4.81Z" transform="translate(-5.39)"/><path class="cls-1" d="M1258.83,801q2.18-2.4,6.56-2.4h12v4.54h-2.5a5.56,5.56,0,0,1,2.06,2.52,11.06,11.06,0,0,1-.07,8,6.25,6.25,0,0,1-2.2,2.68,5.6,5.6,0,0,1-3.17.94,5.46,5.46,0,0,1-4.45-2.06q-1.66-2.06-1.67-6.48v-5.31h-.31a4.22,4.22,0,0,0-3.31,1.29,5.56,5.56,0,0,0-1.15,3.82,11,11,0,0,0,.54,3.41,8.38,8.38,0,0,0,1.5,2.83l-3.5,1.88a11.7,11.7,0,0,1-1.89-3.88,17.57,17.57,0,0,1-.65-4.81C1256.66,804.94,1257.38,802.63,1258.83,801Zm14.55,4.39a4.49,4.49,0,0,0-2.37-2h-2.39v5q0,4.15,2.74,4.16a2.44,2.44,0,0,0,2.07-1,4.75,4.75,0,0,0,.77-2.89A6.23,6.23,0,0,0,1273.38,805.41Z" transform="translate(-5.39)"/><path class="cls-1" d="M1256.66,780.57h4.58a6,6,0,0,0-.12,1.12,5.84,5.84,0,0,0,1.64,4.39,6.52,6.52,0,0,0,4.71,1.57h10v4.81h-20.54v-4.58h3Q1256.67,785.81,1256.66,780.57Z" transform="translate(-5.39)"/><path class="cls-1" d="M1258.91,733.6c1.5-1.52,3.75-2.27,6.75-2.27h11.77v4.8h-11.15a6,6,0,0,0-4.06,1.2,4.29,4.29,0,0,0-1.37,3.42,5,5,0,0,0,1.6,3.89,6.52,6.52,0,0,0,4.56,1.46h10.42v4.81h-11.15a6,6,0,0,0-4.06,1.19,4.32,4.32,0,0,0-1.37,3.43,5,5,0,0,0,1.58,3.9,6.57,6.57,0,0,0,4.58,1.44h10.42v4.81h-20.54v-4.57h2.61a7.58,7.58,0,0,1-2.11-2.89,9.75,9.75,0,0,1-.73-3.85,9.42,9.42,0,0,1,.86-4.1,6.64,6.64,0,0,1,2.56-2.82,8.66,8.66,0,0,1-2.52-3.27,10.7,10.7,0,0,1-.9-4.43A8.34,8.34,0,0,1,1258.91,733.6Z" transform="translate(-5.39)"/><path class="cls-1" d="M1258.83,710.38q2.18-2.42,6.56-2.41h12v4.54h-2.5A5.56,5.56,0,0,1,1277,715a11.09,11.09,0,0,1-.07,8,6.28,6.28,0,0,1-2.2,2.67,5.52,5.52,0,0,1-3.17.94,5.43,5.43,0,0,1-4.45-2.06q-1.66-2.05-1.67-6.48v-5.31h-.31a4.22,4.22,0,0,0-3.31,1.29,5.58,5.58,0,0,0-1.15,3.83,11,11,0,0,0,.54,3.4,8.38,8.38,0,0,0,1.5,2.83l-3.5,1.89a11.85,11.85,0,0,1-1.89-3.89,17.52,17.52,0,0,1-.65-4.81Q1256.66,712.77,1258.83,710.38Zm14.55,4.38a4.58,4.58,0,0,0-2.37-2h-2.39v5q0,4.15,2.74,4.16a2.44,2.44,0,0,0,2.07-1,4.69,4.69,0,0,0,.77-2.88A6.25,6.25,0,0,0,1273.38,714.76Z" transform="translate(-5.39)"/><path class="cls-1" d="M1252.68,701.58a2.83,2.83,0,0,1-4.12,0,3.08,3.08,0,0,1-.83-2.19,3.2,3.2,0,0,1,.79-2.19,2.56,2.56,0,0,1,2-.89,2.9,2.9,0,0,1,2.14.87,3,3,0,0,1,.86,2.21A3.07,3.07,0,0,1,1252.68,701.58Zm4.21.24V697h20.54v4.81Z" transform="translate(-5.39)"/><path class="cls-1" d="M1277.05,689.23a12.47,12.47,0,0,1-1.65,3.81l-3.66-1.84a11.86,11.86,0,0,0,1.48-3.33,13.92,13.92,0,0,0,.56-3.83q0-4.31-2.27-4.31a1.52,1.52,0,0,0-1.5,1.1,19.26,19.26,0,0,0-.81,3.52,29.45,29.45,0,0,1-.88,4.13,6.39,6.39,0,0,1-1.75,2.77,4.89,4.89,0,0,1-3.49,1.18,5.47,5.47,0,0,1-4.67-2.45,11.05,11.05,0,0,1-1.75-6.59,19.15,19.15,0,0,1,.48-4.24,11.82,11.82,0,0,1,1.29-3.46l3.65,1.85a11.44,11.44,0,0,0-1.54,5.88,6.56,6.56,0,0,0,.64,3.22,1.88,1.88,0,0,0,1.67,1.09,1.68,1.68,0,0,0,1.64-1.17,18.45,18.45,0,0,0,.9-3.64,27.87,27.87,0,0,1,.89-4,6.26,6.26,0,0,1,1.69-2.71,4.74,4.74,0,0,1,3.39-1.13,5.34,5.34,0,0,1,4.61,2.5,11.76,11.76,0,0,1,1.73,6.81A18.17,18.17,0,0,1,1277.05,689.23Z" transform="translate(-5.39)"/><path class="cls-1" d="M5.77,815.17V803.39a16.82,16.82,0,0,1,1.68-7.65,12.36,12.36,0,0,1,4.73-5.2,13.39,13.39,0,0,1,7.06-1.84,13.39,13.39,0,0,1,7.06,1.84,12.36,12.36,0,0,1,4.73,5.2,16.81,16.81,0,0,1,1.67,7.65v11.78Zm22.7-11.55a11.52,11.52,0,0,0-1.13-5.21A8.15,8.15,0,0,0,24.1,795a9.5,9.5,0,0,0-4.86-1.21A9.54,9.54,0,0,0,14.37,795a8.13,8.13,0,0,0-3.23,3.46A11.39,11.39,0,0,0,10,803.62v6.55H28.47Z" transform="translate(-5.39)"/><path class="cls-1" d="M28.51,763.19H32.7v20.2H5.77V763.73H10v14.66h7v-13h4.11v13h7.43Z" transform="translate(-5.39)"/><path class="cls-1" d="M32.2,755.28a12.63,12.63,0,0,1-2.34,4.6L26,758.15a14,14,0,0,0,2.14-4.06,14.76,14.76,0,0,0,.82-4.83,8.33,8.33,0,0,0-1-4.48,2.91,2.91,0,0,0-2.54-1.48,2.45,2.45,0,0,0-1.9.82,5.91,5.91,0,0,0-1.18,2.1c-.28.85-.6,2-1,3.46a38.51,38.51,0,0,1-1.46,5,8.21,8.21,0,0,1-2.29,3.27,6.16,6.16,0,0,1-4.21,1.36,7.17,7.17,0,0,1-4.06-1.21,8.23,8.23,0,0,1-2.91-3.66,14.91,14.91,0,0,1-1.07-6A19.36,19.36,0,0,1,6,743.6a13.3,13.3,0,0,1,1.77-4.11l3.89,1.57a15.8,15.8,0,0,0-1.58,3.7,13.79,13.79,0,0,0-.54,3.73,7.88,7.88,0,0,0,1,4.41,3.09,3.09,0,0,0,2.66,1.44,2.39,2.39,0,0,0,1.88-.83,5.88,5.88,0,0,0,1.16-2.1c.28-.84.6-2,1-3.46A36.09,36.09,0,0,1,18.64,743a8.44,8.44,0,0,1,2.29-3.29,6,6,0,0,1,4.16-1.37,7.18,7.18,0,0,1,4,1.21A8.32,8.32,0,0,1,32,743.26a14.9,14.9,0,0,1,1.08,6A20.55,20.55,0,0,1,32.2,755.28Z" transform="translate(-5.39)"/><path class="cls-1" d="M26.47,715.94v13.47l6.23,2.65v5.16L5.77,725.1v-4.93L32.7,708v5.24Zm-3.92,1.65-11.78,5.08,11.78,5Z" transform="translate(-5.39)"/><path class="cls-1" d="M10,699.59h8.2v-13h4.23v13H32.7v5H5.77V684.93H10Z" transform="translate(-5.39)"/><path class="cls-1" d="M5.77,680.08v-5H32.7v5Z" transform="translate(-5.39)"/><path class="cls-1" d="M31.3,662.65a13.27,13.27,0,0,1-5,5.2,13.73,13.73,0,0,1-7.1,1.88,13.68,13.68,0,0,1-7.1-1.88,13.2,13.2,0,0,1-5-5.2,16.29,16.29,0,0,1,0-14.85,13.2,13.2,0,0,1,4.94-5.19,13.59,13.59,0,0,1,7.12-1.89,13.61,13.61,0,0,1,7.12,1.89,13.2,13.2,0,0,1,4.94,5.19,16.29,16.29,0,0,1,0,14.85Zm-3.81-12.27A8.77,8.77,0,0,0,24.1,647a9.67,9.67,0,0,0-4.86-1.23A9.71,9.71,0,0,0,14.37,647,8.77,8.77,0,0,0,11,650.38a10.31,10.31,0,0,0,0,9.69,8.77,8.77,0,0,0,3.39,3.39,9.71,9.71,0,0,0,4.87,1.23,9.67,9.67,0,0,0,4.86-1.23,8.77,8.77,0,0,0,3.39-3.39,10.31,10.31,0,0,0,0-9.69Z" transform="translate(-5.39)"/><polyline class="cls-2" points="121.19 189.18 121.19 1309.69 1035.67 1309.69"/><line class="cls-2" x1="332.7" y1="1309.69" x2="842.31" y2="207.23"/><line class="cls-2" x1="426.66" y1="207.23" x2="733.24" y2="1309.78"/><line class="cls-2" x1="121.19" y1="585.09" x2="1010.33" y2="939.22"/><line class="cls-2" x1="1010.33" y1="531.68" x2="121.19" y2="1012.42"/><polygon class="cls-3" points="434.82 80.12 434.82 135.38 728.78 135.38 728.78 216.63 870.48 107.03 728.78 0 728.78 80.12 434.82 80.12"/><rect class="cls-3" x="390.49" y="80.12" width="27.82" height="54.53"/><rect class="cls-3" x="341.53" y="80.12" width="27.82" height="54.53"/><polygon class="cls-3" points="1164.27 946.08 1219.53 946.08 1219.53 652.11 1300.77 652.11 1191.17 510.41 1084.14 652.11 1164.27 652.11 1164.27 946.08"/><rect class="cls-3" x="1183.01" y="949.23" width="27.82" height="54.53" transform="translate(215.03 2173.41) rotate(-90)"/><rect class="cls-3" x="1183.01" y="998.2" width="27.82" height="54.53" transform="translate(166.07 2222.38) rotate(-90)"/><circle class="cls-4" cx="1153.75" cy="242.41" r="143.37" transform="translate(161.13 886.82) rotate(-45)"/><path class="cls-5" d="M1228.76,120a143.39,143.39,0,0,1-195.82,199.42A143.38,143.38,0,1,0,1228.76,120Z" transform="translate(-5.39)"/><path class="cls-6" d="M1029.87,257.53a133.11,133.11,0,0,1,238.62-81.14,133.12,133.12,0,1,0-220.94,147.49A132.51,132.51,0,0,1,1029.87,257.53Z" transform="translate(-5.39)"/><path class="cls-7" d="M1111.49,207.63c0,9.83-4.72,17.8-10.56,17.8s-10.56-8-10.56-17.8,4.73-17.81,10.56-17.81S1111.49,197.79,1111.49,207.63Z" transform="translate(-5.39)"/><path class="cls-7" d="M1217.13,207.63c0,9.83-4.73,17.8-10.56,17.8s-10.57-8-10.57-17.8,4.73-17.81,10.57-17.81S1217.13,197.79,1217.13,207.63Z" transform="translate(-5.39)"/><path class="cls-8" d="M1057.41,256a97,97,0,0,0,192.68,0Z" transform="translate(-5.39)"/><path class="cls-9" d="M1087.2,315.47a96.89,96.89,0,0,0,130.82,2.1l-.89-2.09C1152.44,283.94,1088.08,315,1087.2,315.47Z" transform="translate(-5.39)"/><circle class="cls-4" cx="212.76" cy="1200.98" r="54.78" transform="translate(-792.29 502.2) rotate(-45)"/><path class="cls-5" d="M241.41,1154.22a54.79,54.79,0,0,1-74.81,76.2,54.78,54.78,0,1,0,74.81-76.2Z" transform="translate(-5.39)"/><path class="cls-6" d="M165.43,1206.75a50.85,50.85,0,0,1,91.16-31,50.86,50.86,0,1,0-84.41,56.35A50.6,50.6,0,0,1,165.43,1206.75Z" transform="translate(-5.39)"/><path class="cls-7" d="M196.61,1187.69c0,3.75-1.81,6.8-4,6.8s-4-3-4-6.8,1.81-6.81,4-6.81S196.61,1183.93,196.61,1187.69Z" transform="translate(-5.39)"/><path class="cls-7" d="M237,1187.69c0,3.75-1.81,6.8-4,6.8s-4-3-4-6.8,1.81-6.81,4-6.81S237,1183.93,237,1187.69Z" transform="translate(-5.39)"/><path class="cls-10" d="M245.11,1176.2l-1.72-.49c-1.23-.34-2.4-.66-3.52-1a30.29,30.29,0,0,1-4.61-2,27.41,27.41,0,0,1-4.18-2.7,43.28,43.28,0,0,1-4-3.64.23.23,0,0,0-.26,0,.23.23,0,0,0-.14.23,10.42,10.42,0,0,0,2.14,5.59,13.6,13.6,0,0,0,4.63,3.94,14.5,14.5,0,0,0,5.6,1.61h.23a12,12,0,0,0,5.84-1,.26.26,0,0,0,.13-.24A.23.23,0,0,0,245.11,1176.2Z" transform="translate(-5.39)"/><path class="cls-10" d="M180.4,1176.2l1.72-.49c1.23-.34,2.4-.66,3.52-1a30.85,30.85,0,0,0,4.62-2,27.82,27.82,0,0,0,4.17-2.7,43.28,43.28,0,0,0,4-3.64.23.23,0,0,1,.4.18,10.42,10.42,0,0,1-2.14,5.59,13.6,13.6,0,0,1-4.63,3.94,14.5,14.5,0,0,1-5.6,1.61h-.22a12,12,0,0,1-5.84-1,.25.25,0,0,1-.14-.24A.25.25,0,0,1,180.4,1176.2Z" transform="translate(-5.39)"/><path class="cls-11" d="M192,1224.55c-.57.06-.9-.64-.89-1.18a16.61,16.61,0,0,1,1.93-7.38,20.59,20.59,0,0,1,4.93-6.11,23.44,23.44,0,0,1,14.74-5.34,22.29,22.29,0,0,1,14.85,5.31,18.72,18.72,0,0,1,6.76,13.51c0,.56-.37,1.28-1,1.17s-.93-.79-1.31-1.11c-.59-.48-1.19-.94-1.81-1.38a37.59,37.59,0,0,0-3.88-2.37,29.14,29.14,0,0,0-16.14-3.57,28,28,0,0,0-10.21,3,35.31,35.31,0,0,0-5.42,3.46c-.65.49-1.71,1.82-2.51,2Z" transform="translate(-5.39)"/><polygon class="cls-12" points="297.66 1023.36 338.65 1060.43 747.25 642.08 807.51 696.57 821.26 517.96 646.84 551.28 706.27 605.01 297.66 1023.36"/></g></g></svg>