<svg xmlns="http://www.w3.org/2000/svg" xmlns:xlink="http://www.w3.org/1999/xlink" viewBox="0 0 1864.61 918.49"><defs><style>.cls-1{fill:url(#linear-gradient);}.cls-2{fill:#fff;}.cls-3{fill:#1c1b7f;}.cls-4{fill:none;stroke:#09b3ff;stroke-miterlimit:10;stroke-width:7px;}</style><linearGradient id="linear-gradient" x1="891.26" y1="13.65" x2="891.26" y2="880.02" gradientUnits="userSpaceOnUse"><stop offset="0" stop-color="#09b3ff"/><stop offset="1" stop-color="#1c1b7f"/></linearGradient></defs><g id="Layer_2" data-name="Layer 2"><g id="Layer_1-2" data-name="Layer 1"><polygon class="cls-1" points="891.26 0 287.7 915.38 1494.82 915.38 891.26 0"/><path class="cls-2" d="M814.41,190.17a18.48,18.48,0,0,1-7.29-6.87,20.06,20.06,0,0,1,0-19.93,18.46,18.46,0,0,1,7.29-6.86,22,22,0,0,1,10.47-2.46,22.53,22.53,0,0,1,9.17,1.8,17.61,17.61,0,0,1,6.78,5.19l-6.68,6a11,11,0,0,0-8.74-4.34,10.8,10.8,0,0,0-5.38,1.32,9.28,9.28,0,0,0-3.66,3.74,12.45,12.45,0,0,0,0,11.08,9.26,9.26,0,0,0,3.66,3.73,10.71,10.71,0,0,0,5.38,1.33,11,11,0,0,0,8.74-4.35l6.68,6a17.54,17.54,0,0,1-6.78,5.2,22.53,22.53,0,0,1-9.17,1.8A22,22,0,0,1,814.41,190.17Z"/><path class="cls-2" d="M861.71,182H856v9.86h-10.5v-37.1h17a21.08,21.08,0,0,1,8.75,1.67,12.92,12.92,0,0,1,5.72,4.77,13.06,13.06,0,0,1,2,7.28,12.9,12.9,0,0,1-1.89,7,12.69,12.69,0,0,1-5.38,4.69l8,11.66H868.44Zm5-17.54a7.19,7.19,0,0,0-4.87-1.43H856v10.86h5.83a7.35,7.35,0,0,0,4.87-1.4,5.71,5.71,0,0,0,0-8Z"/><path class="cls-2" d="M884.71,154.79h10.5v37.1h-10.5Z"/><path class="cls-2" d="M927.54,184.68H911.85l-2.92,7.21h-10.7l16.37-37.1h10.34l16.43,37.1H930.45Zm-3.08-7.74-4.77-11.87-4.77,11.87Z"/><path class="cls-2" d="M960.55,182h-5.72v9.86H944.34v-37.1h17a21,21,0,0,1,8.74,1.67,13.5,13.5,0,0,1,5.86,19.08,12.81,12.81,0,0,1-5.38,4.69l8,11.66H967.29Zm5-17.54a7.22,7.22,0,0,0-4.88-1.43h-5.83v10.86h5.83a7.38,7.38,0,0,0,4.88-1.4,5.73,5.73,0,0,0,0-8Z"/><path class="cls-2" d="M794.72,313.68H779l-2.91,7.21H765.41l16.38-37.1h10.33l16.43,37.1H797.63Zm-3.07-7.74-4.77-11.87-4.77,11.87Z"/><path class="cls-2" d="M847.08,283.79l-15.9,37.1H820.85L805,283.79h11.34L826.41,308l10.29-24.17Z"/><path class="cls-2" d="M872.84,313.68H857.15l-2.91,7.21H843.53l16.38-37.1h10.34l16.43,37.1H875.76Zm-3.07-7.74L865,294.07l-4.77,11.87Z"/><path class="cls-2" d="M889.64,283.79h10.5v28.78h17.7v8.32h-28.2Z"/><path class="cls-2" d="M922,283.79h10.5v37.1H922Z"/><path class="cls-2" d="M964.8,313.68H949.11l-2.92,7.21h-10.7l16.37-37.1H962.2l16.43,37.1H967.71Zm-3.08-7.74L957,294.07l-4.77,11.87Z"/><path class="cls-2" d="M997.81,311h-5.72v9.86H981.6v-37.1h17a21,21,0,0,1,8.74,1.67,13.5,13.5,0,0,1,5.86,19.08,12.81,12.81,0,0,1-5.38,4.69l8,11.66h-11.23Zm5-17.54a7.22,7.22,0,0,0-4.88-1.43h-5.83v10.86h5.83a7.38,7.38,0,0,0,4.88-1.4,5.73,5.73,0,0,0,0-8Z"/><path class="cls-2" d="M774.45,448.68H758.76l-2.92,7.21h-10.7l16.37-37.1h10.34l16.43,37.1H777.36Zm-3.08-7.74-4.77-11.87-4.77,11.87Z"/><path class="cls-2" d="M826.55,418.79v37.1h-8.64l-16.38-19.77v19.77H791.25v-37.1h8.64l16.37,19.77V418.79Z"/><path class="cls-2" d="M858.82,448.68H843.13l-2.91,7.21H829.51l16.38-37.1h10.34l16.43,37.1H861.74Zm-3.07-7.74L851,429.07l-4.77,11.87Z"/><path class="cls-2" d="M875.62,418.79h10.5v28.78h17.7v8.32h-28.2Z"/><path class="cls-2" d="M908,418.79h10.5v37.1H908Z"/><path class="cls-2" d="M930.21,455.52a21.61,21.61,0,0,1-6.89-3l3.45-7.74A23.47,23.47,0,0,0,939,448.47q6,0,6-3a2.5,2.5,0,0,0-1.72-2.36,32.43,32.43,0,0,0-5.54-1.62,53.13,53.13,0,0,1-7-1.93,11.79,11.79,0,0,1-4.82-3.32,8.92,8.92,0,0,1-2-6.14,10.72,10.72,0,0,1,1.85-6.13,12.45,12.45,0,0,1,5.54-4.31,22.83,22.83,0,0,1,9-1.59,31.76,31.76,0,0,1,7.21.82,22.18,22.18,0,0,1,6.25,2.41l-3.23,7.79a21.59,21.59,0,0,0-10.29-2.86,8.68,8.68,0,0,0-4.55.92,2.78,2.78,0,0,0-1.43,2.42,2.37,2.37,0,0,0,1.69,2.22,30.13,30.13,0,0,0,5.46,1.54,52,52,0,0,1,7,1.93,12.15,12.15,0,0,1,4.83,3.29,8.77,8.77,0,0,1,2,6.12,10.4,10.4,0,0,1-1.86,6A12.63,12.63,0,0,1,948,455a22.5,22.5,0,0,1-9,1.62A34.41,34.41,0,0,1,930.21,455.52Z"/><path class="cls-2" d="M985.07,448.68H969.38l-2.92,7.21h-10.7l16.37-37.1h10.34l16.43,37.1H988ZM982,440.94l-4.77-11.87-4.77,11.87Z"/><path class="cls-2" d="M1018.08,446h-5.72v9.86h-10.49v-37.1h17a21,21,0,0,1,8.74,1.67,13.5,13.5,0,0,1,5.86,19.08,12.81,12.81,0,0,1-5.38,4.69l8,11.66h-11.23Zm5-17.54a7.22,7.22,0,0,0-4.88-1.43h-5.83v10.86h5.83a7.38,7.38,0,0,0,4.88-1.4,5.73,5.73,0,0,0,0-8Z"/><path class="cls-2" d="M755.29,831.79h10.49v28.78h17.7v8.32H755.29Z"/><path class="cls-2" d="M817.4,860.78v8.11H787.62v-37.1h29.09v8.11H798v6.25h16.49V854H798v6.78Z"/><path class="cls-2" d="M856.73,868.89l-.11-19.67-9.54,16h-4.66l-9.49-15.48v19.14h-9.7v-37.1h8.64l13,21.41,12.72-21.41h8.64l.11,37.1Z"/><path class="cls-2" d="M907.29,853a9.15,9.15,0,0,1,1.8,5.7,8.55,8.55,0,0,1-3.92,7.53q-3.92,2.64-11.34,2.65h-20v-37.1h19q7.1,0,10.81,2.62a8.25,8.25,0,0,1,3.71,7.08,8.79,8.79,0,0,1-1.3,4.74,9,9,0,0,1-3.68,3.31A10.39,10.39,0,0,1,907.29,853Zm-23.11-13.64v7.15h7.21q5.29,0,5.3-3.6t-5.3-3.55Zm14.31,18.18c0-2.51-1.83-3.77-5.51-3.77h-8.8v7.53H893C896.66,861.31,898.49,860.05,898.49,857.55Z"/><path class="cls-2" d="M930.77,859h-5.72v9.86h-10.5v-37.1h17a21.08,21.08,0,0,1,8.75,1.67,12.92,12.92,0,0,1,5.72,4.77,13.06,13.06,0,0,1,2,7.28,12.9,12.9,0,0,1-1.89,7,12.69,12.69,0,0,1-5.38,4.69l8,11.66H937.5Zm5-17.54a7.19,7.19,0,0,0-4.87-1.43h-5.83v10.86h5.83a7.35,7.35,0,0,0,4.87-1.4,5.73,5.73,0,0,0,0-8Z"/><path class="cls-2" d="M978.63,861.68H962.94L960,868.89H949.32l16.38-37.1H976l16.43,37.1H981.54Zm-3.08-7.74-4.77-11.87L966,853.94Z"/><path class="cls-2" d="M1011.65,859h-5.73v9.86H995.43v-37.1h17a21,21,0,0,1,8.74,1.67,13.5,13.5,0,0,1,5.86,19.08,12.75,12.75,0,0,1-5.38,4.69l8,11.66h-11.23Zm5-17.54a7.22,7.22,0,0,0-4.88-1.43h-5.83v10.86h5.83a7.38,7.38,0,0,0,4.88-1.4,5.73,5.73,0,0,0,0-8Z"/><path class="cls-2" d="M770.29,715.78v8.11H740.5v-37.1h29.1v8.11H750.89v6.25h16.48V709H750.89v6.78Z"/><path class="cls-2" d="M811.41,686.79v37.1h-8.63L786.4,704.12v19.77H776.12v-37.1h8.63l16.38,19.77V686.79Z"/><path class="cls-2" d="M826.73,695.11H815.34v-8.32h33.23v8.32H837.22v28.78H826.73Z"/><path class="cls-2" d="M882.27,715.78v8.11H852.49v-37.1h29.09v8.11h-18.7v6.25h16.48V709H862.88v6.78Z"/><path class="cls-2" d="M923.4,686.79v37.1h-8.64l-16.37-19.77v19.77H888.1v-37.1h8.64l16.38,19.77V686.79Z"/><path class="cls-2" d="M930.82,686.79h17.55a24.57,24.57,0,0,1,10.81,2.28,17.11,17.11,0,0,1,7.31,6.46,19.79,19.79,0,0,1,0,19.61,17.2,17.2,0,0,1-7.31,6.47,24.57,24.57,0,0,1-10.81,2.28H930.82Zm17.12,28.72a10.77,10.77,0,0,0,7.66-2.7,11.11,11.11,0,0,0,0-14.95,10.77,10.77,0,0,0-7.66-2.7h-6.62v20.35Z"/><path class="cls-2" d="M1004.39,715.78v8.11H974.6v-37.1h29.1v8.11H985v6.25h16.48V709H985v6.78Z"/><path class="cls-2" d="M1026.43,714h-5.72v9.86h-10.49v-37.1h17a21,21,0,0,1,8.74,1.67,13,13,0,0,1,.48,23.77l8,11.66h-11.23Zm5-17.54a7.24,7.24,0,0,0-4.88-1.43h-5.83v10.86h5.83a7.4,7.4,0,0,0,4.88-1.4,5.73,5.73,0,0,0,0-8Z"/><path class="cls-2" d="M795.28,582.68H779.59l-2.92,7.21H766l16.37-37.1h10.34l16.43,37.1H798.19Zm-3.08-7.74-4.77-11.87-4.77,11.87Z"/><path class="cls-2" d="M837.78,554.46a13.08,13.08,0,0,1,0,24.06,21.19,21.19,0,0,1-8.74,1.67h-6.47v9.7H812.08v-37.1h17A21,21,0,0,1,837.78,554.46Zm-4.5,16.06a5.73,5.73,0,0,0,0-8,7.22,7.22,0,0,0-4.88-1.43h-5.83v10.86h5.83A7.38,7.38,0,0,0,833.28,570.52Z"/><path class="cls-2" d="M850.61,552.79H861.1v28.78h17.7v8.32H850.61Z"/><path class="cls-2" d="M882.94,552.79h10.49v37.1H882.94Z"/><path class="cls-2" d="M908.93,588.17a18.39,18.39,0,0,1-7.28-6.87,20.06,20.06,0,0,1,0-19.93,18.37,18.37,0,0,1,7.28-6.86,22,22,0,0,1,10.47-2.46,22.5,22.5,0,0,1,9.17,1.8,17.61,17.61,0,0,1,6.78,5.19l-6.67,6a11,11,0,0,0-8.75-4.34,10.83,10.83,0,0,0-5.38,1.32,9.28,9.28,0,0,0-3.66,3.74,12.54,12.54,0,0,0,0,11.08,9.26,9.26,0,0,0,3.66,3.73,10.73,10.73,0,0,0,5.38,1.33,11,11,0,0,0,8.75-4.35l6.67,6a17.54,17.54,0,0,1-6.78,5.2,22.5,22.5,0,0,1-9.17,1.8A22,22,0,0,1,908.93,588.17Z"/><path class="cls-2" d="M964.24,582.68H948.55l-2.91,7.21H934.93l16.38-37.1h10.33l16.43,37.1H967.15Zm-3.07-7.74-4.78-11.87-4.77,11.87Z"/><path class="cls-2" d="M997.26,580h-5.73v9.86H981v-37.1h17a21,21,0,0,1,8.74,1.67,13.5,13.5,0,0,1,5.86,19.08,12.75,12.75,0,0,1-5.38,4.69l8,11.66H1004Zm5-17.54a7.22,7.22,0,0,0-4.88-1.43h-5.83v10.86h5.83a7.38,7.38,0,0,0,4.88-1.4,5.73,5.73,0,0,0,0-8Z"/><path class="cls-3" d="M433.79,188.81a8.47,8.47,0,0,1,3.75,3.12,9.38,9.38,0,0,1,0,9.56,8.42,8.42,0,0,1-3.75,3.13,14,14,0,0,1-5.73,1.08h-5v6.85h-5.75V187.71h10.75A13.69,13.69,0,0,1,433.79,188.81Zm-2.11,11.09a4.46,4.46,0,0,0,0-6.39,6,6,0,0,0-3.94-1.12h-4.68V201h4.68A6.07,6.07,0,0,0,431.68,199.9Z"/><path class="cls-3" d="M450.51,193.88a10,10,0,0,1,3.89-.71v5.11c-.62-.05-1-.07-1.25-.07a5.06,5.06,0,0,0-3.72,1.33,5.38,5.38,0,0,0-1.35,4v9h-5.54v-19.1h5.29V196A6.15,6.15,0,0,1,450.51,193.88Z"/><path class="cls-3" d="M461.19,211.57a9.33,9.33,0,0,1-3.74-3.49,10.21,10.21,0,0,1,0-10.15,9.36,9.36,0,0,1,3.74-3.5,12.22,12.22,0,0,1,10.81,0,9.37,9.37,0,0,1,3.72,3.5,10.21,10.21,0,0,1,0,10.15,9.34,9.34,0,0,1-3.72,3.49,12.22,12.22,0,0,1-10.81,0Zm8.91-4.72a6.09,6.09,0,0,0,0-7.7,5,5,0,0,0-7,0,6.06,6.06,0,0,0,0,7.7,5,5,0,0,0,7,0Z"/><path class="cls-3" d="M474.91,218.65l1.49-4a4,4,0,0,0,2.34.67,2.1,2.1,0,0,0,1.67-.69,3.08,3.08,0,0,0,.6-2.07v-19.1h5.54v19.06a7.21,7.21,0,0,1-1.9,5.27,7.1,7.1,0,0,1-5.31,1.94A7.68,7.68,0,0,1,474.91,218.65Zm6.39-28.74a3,3,0,0,1,0-4.41,3.48,3.48,0,0,1,2.48-.88,3.57,3.57,0,0,1,2.48.85,2.74,2.74,0,0,1,1,2.13,3,3,0,0,1-1,2.29,3.9,3.9,0,0,1-5,0Z"/><path class="cls-3" d="M510.25,204.56H495.81a4.47,4.47,0,0,0,1.85,2.81,6.11,6.11,0,0,0,3.61,1,7.25,7.25,0,0,0,2.65-.44,6.37,6.37,0,0,0,2.15-1.4l2.94,3.19c-1.8,2.06-4.42,3.09-7.88,3.09a12.47,12.47,0,0,1-5.71-1.26,9.2,9.2,0,0,1-3.83-3.49,10.26,10.26,0,0,1,0-10.14,9.33,9.33,0,0,1,3.65-3.51,10.75,10.75,0,0,1,5.2-1.26,10.62,10.62,0,0,1,5.08,1.21,8.72,8.72,0,0,1,3.56,3.46,10.23,10.23,0,0,1,1.3,5.23C510.36,203.14,510.32,203.64,510.25,204.56Zm-12.95-6.14a4.54,4.54,0,0,0-1.56,2.91h9.4a4.59,4.59,0,0,0-1.56-2.89,4.66,4.66,0,0,0-3.12-1.08A4.75,4.75,0,0,0,497.3,198.42Z"/><path class="cls-3" d="M526.36,211.62a5.5,5.5,0,0,1-2,.91,10.19,10.19,0,0,1-2.5.3,7.43,7.43,0,0,1-5.27-1.74,6.66,6.66,0,0,1-1.87-5.11v-7.84h-2.94v-4.26h2.94v-4.65h5.54v4.65H525v4.26h-4.76v7.77a2.61,2.61,0,0,0,.62,1.86,2.29,2.29,0,0,0,1.76.66,3.56,3.56,0,0,0,2.23-.71Z"/><path class="cls-3" d="M544,195.28q2.38,2.11,2.38,6.37v10.9H541.2v-2.38q-1.56,2.66-5.82,2.66a9.17,9.17,0,0,1-3.82-.74A5.78,5.78,0,0,1,529.1,210a5.35,5.35,0,0,1-.85-3,5,5,0,0,1,2-4.19q2-1.53,6.19-1.53h4.4a3.5,3.5,0,0,0-1.1-2.78,4.84,4.84,0,0,0-3.3-1,9.7,9.7,0,0,0-3,.48,7.88,7.88,0,0,0-2.5,1.3l-2-3.87a11.94,11.94,0,0,1,3.74-1.71,16.82,16.82,0,0,1,4.49-.6C540.15,193.17,542.42,193.88,544,195.28Zm-4.72,13.17a3.52,3.52,0,0,0,1.56-1.94v-1.95h-3.79c-2.27,0-3.41.75-3.41,2.24a2,2,0,0,0,.83,1.68,3.73,3.73,0,0,0,2.29.62A4.78,4.78,0,0,0,539.28,208.45Z"/><path class="cls-3" d="M559.35,193.88a10,10,0,0,1,3.89-.71v5.11c-.62-.05-1-.07-1.25-.07a5.06,5.06,0,0,0-3.72,1.33,5.38,5.38,0,0,0-1.35,4v9h-5.54v-19.1h5.29V196A6.15,6.15,0,0,1,559.35,193.88Z"/><path class="cls-3" d="M570.9,206.89a3.28,3.28,0,0,1,1,2.46,5.7,5.7,0,0,1-.18,1.42,15.9,15.9,0,0,1-.78,2.13l-2,5.11h-3.51l1.56-5.64a2.88,2.88,0,0,1-1.4-1.15,3.35,3.35,0,0,1-.52-1.87,3.26,3.26,0,0,1,1-2.46,3.39,3.39,0,0,1,2.46-.94A3.33,3.33,0,0,1,570.9,206.89Z"/><path class="cls-3" d="M601.79,194.39a8.82,8.82,0,0,1,3.43,3.45,11.36,11.36,0,0,1,0,10.32,8.82,8.82,0,0,1-3.43,3.45,9.78,9.78,0,0,1-4.84,1.22,7.37,7.37,0,0,1-5.75-2.31v8.91h-5.54v-26H591v2.2a7.36,7.36,0,0,1,6-2.48A9.78,9.78,0,0,1,601.79,194.39Zm-2.3,12.46a6.13,6.13,0,0,0,0-7.7,5,5,0,0,0-7,0,6.09,6.09,0,0,0,0,7.7,5,5,0,0,0,7,0Z"/><path class="cls-3" d="M618.12,193.88a10,10,0,0,1,3.88-.71v5.11c-.61-.05-1-.07-1.24-.07a5.08,5.08,0,0,0-3.73,1.33,5.38,5.38,0,0,0-1.34,4v9h-5.54v-19.1h5.29V196A6.1,6.1,0,0,1,618.12,193.88Z"/><path class="cls-3" d="M628.8,211.57a9.27,9.27,0,0,1-3.74-3.49,10.21,10.21,0,0,1,0-10.15,9.29,9.29,0,0,1,3.74-3.5,12.22,12.22,0,0,1,10.81,0,9.43,9.43,0,0,1,3.72,3.5,10.21,10.21,0,0,1,0,10.15,9.41,9.41,0,0,1-3.72,3.49,12.22,12.22,0,0,1-10.81,0Zm8.91-4.72a6.13,6.13,0,0,0,0-7.7,5,5,0,0,0-7,0,6,6,0,0,0,0,7.7,5,5,0,0,0,7,0Z"/><path class="cls-3" d="M667.82,186.21v26.34h-5.29v-2.2a7.31,7.31,0,0,1-6,2.48,9.84,9.84,0,0,1-4.88-1.21,8.6,8.6,0,0,1-3.43-3.44,11.44,11.44,0,0,1,0-10.36,8.6,8.6,0,0,1,3.43-3.44,9.84,9.84,0,0,1,4.88-1.21,7.26,7.26,0,0,1,5.71,2.31v-9.27ZM661,206.85a6,6,0,0,0,0-7.7,4.61,4.61,0,0,0-3.47-1.44,4.69,4.69,0,0,0-3.52,1.44,6.06,6.06,0,0,0,0,7.7,4.69,4.69,0,0,0,3.52,1.44A4.61,4.61,0,0,0,661,206.85Z"/><path class="cls-3" d="M692.16,193.45v19.1h-5.25v-2.27a7.29,7.29,0,0,1-2.63,1.89,9,9,0,0,1-9.26-1.5q-2.21-2.17-2.2-6.43V193.45h5.54v10q0,4.6,3.87,4.61a4.13,4.13,0,0,0,3.19-1.3,5.47,5.47,0,0,0,1.21-3.85v-9.44Z"/><path class="cls-3" d="M713,208.29v4.26H696v-3.34l9.72-11.5h-9.48v-4.26h16.47v3.34L703,208.29Z"/><path class="cls-3" d="M716.86,189.91a3,3,0,0,1,0-4.41,3.53,3.53,0,0,1,2.49-.88,3.59,3.59,0,0,1,2.48.85,2.74,2.74,0,0,1,1,2.13,3,3,0,0,1-1,2.29,3.49,3.49,0,0,1-2.48.9A3.53,3.53,0,0,1,716.86,189.91Zm-.28,3.54h5.53v19.1h-5.53Z"/><path class="cls-3" d="M735.23,193.88a10,10,0,0,1,3.88-.71v5.11c-.61-.05-1-.07-1.24-.07a5.08,5.08,0,0,0-3.73,1.33,5.38,5.38,0,0,0-1.35,4v9h-5.53v-19.1h5.29V196A6.1,6.1,0,0,1,735.23,193.88Z"/><path class="cls-3" d="M330.33,347.32a12.28,12.28,0,0,1-4.82-4.58,13.31,13.31,0,0,1,0-13.23,12.35,12.35,0,0,1,4.82-4.58,15.38,15.38,0,0,1,12.74-.51,11.67,11.67,0,0,1,4.39,3.26l-3.7,3.41a7.93,7.93,0,0,0-6.24-2.91,8.25,8.25,0,0,0-4.12,1,7.15,7.15,0,0,0-2.82,2.82,8.89,8.89,0,0,0,0,8.23,7.15,7.15,0,0,0,2.82,2.82,8.25,8.25,0,0,0,4.12,1,7.91,7.91,0,0,0,6.24-2.95l3.7,3.41a11.66,11.66,0,0,1-4.41,3.3A14.71,14.71,0,0,1,337.2,349,14.3,14.3,0,0,1,330.33,347.32Z"/><path class="cls-3" d="M353.93,347.57a9.33,9.33,0,0,1-3.74-3.49,10.21,10.21,0,0,1,0-10.15,9.36,9.36,0,0,1,3.74-3.5,12.22,12.22,0,0,1,10.81,0,9.43,9.43,0,0,1,3.72,3.5,10.21,10.21,0,0,1,0,10.15,9.41,9.41,0,0,1-3.72,3.49,12.22,12.22,0,0,1-10.81,0Zm8.91-4.72a6.09,6.09,0,0,0,0-7.7,5,5,0,0,0-7,0,6.06,6.06,0,0,0,0,7.7,5,5,0,0,0,7,0Z"/><path class="cls-3" d="M403.65,331.28q2.12,2.12,2.11,6.34v10.93h-5.54V338.47a5.14,5.14,0,0,0-.94-3.39A3.28,3.28,0,0,0,396.6,334a3.92,3.92,0,0,0-3.08,1.26,5.42,5.42,0,0,0-1.14,3.74v9.59h-5.53V338.47q0-4.52-3.62-4.51a3.92,3.92,0,0,0-3.06,1.26A5.46,5.46,0,0,0,379,339v9.59H373.5v-19.1h5.29v2.2a7.07,7.07,0,0,1,2.61-1.84,8.71,8.71,0,0,1,3.39-.64,8.22,8.22,0,0,1,3.65.8,6.48,6.48,0,0,1,2.63,2.32,7.83,7.83,0,0,1,3-2.3,9.27,9.27,0,0,1,3.92-.82A7.74,7.74,0,0,1,403.65,331.28Z"/><path class="cls-3" d="M426.86,330.39a8.86,8.86,0,0,1,3.42,3.45,11.36,11.36,0,0,1,0,10.32,8.86,8.86,0,0,1-3.42,3.45,9.81,9.81,0,0,1-4.85,1.22,7.39,7.39,0,0,1-5.75-2.31v8.91h-5.53v-26H416v2.2a7.35,7.35,0,0,1,6-2.48A9.81,9.81,0,0,1,426.86,330.39Zm-2.31,12.46a6.09,6.09,0,0,0,0-7.7,5,5,0,0,0-7,0,6.09,6.09,0,0,0,0,7.7,5,5,0,0,0,7,0Z"/><path class="cls-3" d="M449.41,331.28q2.38,2.12,2.38,6.37v10.9h-5.18v-2.38q-1.56,2.65-5.82,2.66a9.17,9.17,0,0,1-3.82-.74,5.72,5.72,0,0,1-2.46-2.06,5.35,5.35,0,0,1-.85-3,5,5,0,0,1,2-4.19q2-1.53,6.19-1.53h4.4a3.5,3.5,0,0,0-1.1-2.78,4.84,4.84,0,0,0-3.3-1,9.61,9.61,0,0,0-3,.48,7.88,7.88,0,0,0-2.5,1.3l-2-3.87a12.1,12.1,0,0,1,3.75-1.71,16.82,16.82,0,0,1,4.49-.6C445.55,329.17,447.83,329.88,449.41,331.28Zm-4.72,13.17a3.56,3.56,0,0,0,1.56-1.94v-1.95h-3.79c-2.28,0-3.41.75-3.41,2.24a2,2,0,0,0,.83,1.68,3.73,3.73,0,0,0,2.29.62A4.78,4.78,0,0,0,444.69,344.45Z"/><path class="cls-3" d="M464.76,329.88a10,10,0,0,1,3.89-.71v5.11c-.62,0-1-.07-1.25-.07a5.06,5.06,0,0,0-3.72,1.33,5.38,5.38,0,0,0-1.35,4v9h-5.54v-19.1h5.29V332A6.15,6.15,0,0,1,464.76,329.88Z"/><path class="cls-3" d="M486.35,331.28q2.38,2.12,2.38,6.37v10.9h-5.18v-2.38q-1.56,2.65-5.82,2.66a9.09,9.09,0,0,1-3.81-.74,5.75,5.75,0,0,1-2.47-2.06,5.35,5.35,0,0,1-.85-3,5,5,0,0,1,2-4.19q2-1.53,6.19-1.53h4.41a3.54,3.54,0,0,0-1.1-2.78,4.88,4.88,0,0,0-3.31-1,9.59,9.59,0,0,0-3,.48,7.83,7.83,0,0,0-2.51,1.3l-2-3.87a12,12,0,0,1,3.74-1.71,16.88,16.88,0,0,1,4.49-.6C482.5,329.17,484.77,329.88,486.35,331.28Zm-4.72,13.17a3.58,3.58,0,0,0,1.57-1.94v-1.95h-3.8c-2.27,0-3.41.75-3.41,2.24a2,2,0,0,0,.84,1.68,3.68,3.68,0,0,0,2.28.62A4.78,4.78,0,0,0,481.63,344.45Z"/><path class="cls-3" d="M501.7,329.88a10,10,0,0,1,3.89-.71v5.11c-.62,0-1-.07-1.24-.07a5.07,5.07,0,0,0-3.73,1.33,5.38,5.38,0,0,0-1.35,4v9h-5.54v-19.1H499V332A6.15,6.15,0,0,1,501.7,329.88Z"/><path class="cls-3" d="M513.25,342.89a3.28,3.28,0,0,1,1,2.46,5.7,5.7,0,0,1-.18,1.42,13.47,13.47,0,0,1-.78,2.13l-2,5.11h-3.51l1.56-5.64a2.93,2.93,0,0,1-1.4-1.15,3.35,3.35,0,0,1-.52-1.87,3.26,3.26,0,0,1,1-2.46,3.39,3.39,0,0,1,2.46-.94A3.33,3.33,0,0,1,513.25,342.89Z"/><path class="cls-3" d="M531.76,347.57a9.43,9.43,0,0,1-3.8-3.49,10.15,10.15,0,0,1,0-10.15,9.45,9.45,0,0,1,3.8-3.5,11.74,11.74,0,0,1,5.48-1.26,10.62,10.62,0,0,1,5.27,1.26,7.52,7.52,0,0,1,3.29,3.6l-4.3,2.31a4.69,4.69,0,0,0-4.29-2.63,4.89,4.89,0,0,0-3.59,1.42,6,6,0,0,0,0,7.74,4.85,4.85,0,0,0,3.59,1.42,4.65,4.65,0,0,0,4.29-2.63l4.3,2.34a7.64,7.64,0,0,1-3.29,3.55,10.42,10.42,0,0,1-5.27,1.28A11.74,11.74,0,0,1,531.76,347.57Z"/><path class="cls-3" d="M557,329.88a10,10,0,0,1,3.88-.71v5.11c-.61,0-1-.07-1.24-.07a5.07,5.07,0,0,0-3.73,1.33,5.38,5.38,0,0,0-1.35,4v9H549v-19.1h5.29V332A6.1,6.1,0,0,1,557,329.88Z"/><path class="cls-3" d="M564.43,325.91a3,3,0,0,1,0-4.41,3.48,3.48,0,0,1,2.48-.88,3.56,3.56,0,0,1,2.48.85,2.74,2.74,0,0,1,1,2.13,3,3,0,0,1-1,2.29,3.9,3.9,0,0,1-5,0Zm-.29,3.54h5.54v19.1h-5.54Z"/><path class="cls-3" d="M587.14,347.62a5.63,5.63,0,0,1-2,.91,10.13,10.13,0,0,1-2.5.3,7.43,7.43,0,0,1-5.27-1.74A6.66,6.66,0,0,1,575.5,342v-7.84h-3v-4.26h3v-4.65H581v4.65h4.76v4.26H581v7.77a2.57,2.57,0,0,0,.63,1.86,2.27,2.27,0,0,0,1.75.66,3.59,3.59,0,0,0,2.24-.71Z"/><path class="cls-3" d="M590.54,325.91a3,3,0,0,1,0-4.41,3.53,3.53,0,0,1,2.49-.88,3.59,3.59,0,0,1,2.48.85,2.74,2.74,0,0,1,1,2.13,3,3,0,0,1-1,2.29,3.49,3.49,0,0,1-2.48.9A3.53,3.53,0,0,1,590.54,325.91Zm-.28,3.54h5.54v19.1h-5.54Z"/><path class="cls-3" d="M604.69,347.57a9.43,9.43,0,0,1-3.8-3.49,10.08,10.08,0,0,1,0-10.15,9.45,9.45,0,0,1,3.8-3.5,11.71,11.71,0,0,1,5.48-1.26,10.62,10.62,0,0,1,5.27,1.26,7.45,7.45,0,0,1,3.28,3.6l-4.29,2.31a4.71,4.71,0,0,0-4.3-2.63,4.88,4.88,0,0,0-3.58,1.42,6,6,0,0,0,0,7.74,4.85,4.85,0,0,0,3.58,1.42,4.65,4.65,0,0,0,4.3-2.63l4.29,2.34a7.56,7.56,0,0,1-3.28,3.55,10.42,10.42,0,0,1-5.27,1.28A11.71,11.71,0,0,1,604.69,347.57Z"/><path class="cls-3" d="M636.43,331.28c1.58,1.41,2.38,3.53,2.38,6.37v10.9h-5.18v-2.38c-1,1.77-3,2.66-5.82,2.66a9.17,9.17,0,0,1-3.82-.74,5.72,5.72,0,0,1-2.46-2.06,5.36,5.36,0,0,1-.86-3,5,5,0,0,1,2-4.19c1.33-1,3.4-1.53,6.19-1.53h4.4a3.54,3.54,0,0,0-1.1-2.78,4.84,4.84,0,0,0-3.3-1,9.61,9.61,0,0,0-3,.48,7.88,7.88,0,0,0-2.5,1.3l-2-3.87a12,12,0,0,1,3.75-1.71,16.82,16.82,0,0,1,4.49-.6C632.57,329.17,634.84,329.88,636.43,331.28Zm-4.72,13.17a3.61,3.61,0,0,0,1.56-1.94v-1.95h-3.8c-2.27,0-3.4.75-3.4,2.24a2,2,0,0,0,.83,1.68,3.73,3.73,0,0,0,2.29.62A4.78,4.78,0,0,0,631.71,344.45Z"/><path class="cls-3" d="M651.78,329.88a10,10,0,0,1,3.88-.71v5.11c-.61,0-1-.07-1.24-.07a5,5,0,0,0-3.72,1.33,5.38,5.38,0,0,0-1.35,4v9h-5.54v-19.1h5.29V332A6.1,6.1,0,0,1,651.78,329.88Z"/><path class="cls-3" d="M223.54,485.93v4.62H204.31V465.71h18.77v4.61H210v5.39h11.54v4.47H210v5.75Z"/><path class="cls-3" d="M239.62,490.55l-4.19-5.86-4.33,5.86h-6l7.35-9.62-7.1-9.48h6.21l4.05,5.58,4.15-5.58h5.89l-7.1,9.34,7.38,9.76Z"/><path class="cls-3" d="M262.76,473.28c1.58,1.41,2.38,3.53,2.38,6.37v10.9H260v-2.38q-1.57,2.65-5.82,2.66a9.17,9.17,0,0,1-3.82-.74,5.75,5.75,0,0,1-2.47-2.06,5.43,5.43,0,0,1-.85-3,5,5,0,0,1,2-4.19c1.33-1,3.4-1.53,6.19-1.53h4.4a3.54,3.54,0,0,0-1.1-2.78,4.84,4.84,0,0,0-3.3-1,9.61,9.61,0,0,0-3,.48,7.88,7.88,0,0,0-2.5,1.3l-2-3.87a12,12,0,0,1,3.75-1.71,16.82,16.82,0,0,1,4.49-.6C258.9,471.17,261.17,471.88,262.76,473.28ZM258,486.45a3.61,3.61,0,0,0,1.56-1.94v-1.95h-3.8c-2.27,0-3.4.75-3.4,2.24a2,2,0,0,0,.83,1.68,3.73,3.73,0,0,0,2.29.62A4.78,4.78,0,0,0,258,486.45Z"/><path class="cls-3" d="M300.29,473.28c1.4,1.41,2.11,3.52,2.11,6.34v10.93h-5.54V480.47a5.14,5.14,0,0,0-.94-3.39,3.3,3.3,0,0,0-2.68-1.12,3.92,3.92,0,0,0-3.08,1.26A5.42,5.42,0,0,0,289,481v9.59h-5.54V480.47c0-3-1.2-4.51-3.62-4.51a3.92,3.92,0,0,0-3.05,1.26,5.41,5.41,0,0,0-1.13,3.74v9.59h-5.54v-19.1h5.29v2.2a7.07,7.07,0,0,1,2.61-1.84,8.66,8.66,0,0,1,3.38-.64,8.26,8.26,0,0,1,3.66.8,6.55,6.55,0,0,1,2.63,2.32,7.75,7.75,0,0,1,3-2.3,9.24,9.24,0,0,1,3.92-.82A7.74,7.74,0,0,1,300.29,473.28Z"/><path class="cls-3" d="M307.65,467.91a3,3,0,0,1,0-4.41,3.52,3.52,0,0,1,2.48-.88,3.6,3.6,0,0,1,2.49.85,2.74,2.74,0,0,1,1,2.13,3,3,0,0,1-1,2.29,3.91,3.91,0,0,1-5,0Zm-.28,3.54h5.53v19.1h-5.53Z"/><path class="cls-3" d="M335.38,473.3q2.19,2.13,2.19,6.32v10.93H332V480.47a5,5,0,0,0-1-3.39,3.64,3.64,0,0,0-2.88-1.12,4.37,4.37,0,0,0-3.33,1.3,5.34,5.34,0,0,0-1.25,3.85v9.44h-5.53v-19.1h5.29v2.24a7.25,7.25,0,0,1,2.73-1.86,9.46,9.46,0,0,1,3.58-.66A7.84,7.84,0,0,1,335.38,473.3Z"/><path class="cls-3" d="M357.08,473.28q2.39,2.12,2.38,6.37v10.9h-5.18v-2.38q-1.56,2.65-5.82,2.66a9.09,9.09,0,0,1-3.81-.74,5.75,5.75,0,0,1-2.47-2.06,5.35,5.35,0,0,1-.85-3,5,5,0,0,1,2-4.19c1.34-1,3.4-1.53,6.2-1.53h4.4a3.54,3.54,0,0,0-1.1-2.78,4.87,4.87,0,0,0-3.3-1,9.61,9.61,0,0,0-3,.48,7.83,7.83,0,0,0-2.51,1.3l-2-3.87a12,12,0,0,1,3.74-1.71,16.88,16.88,0,0,1,4.49-.6C353.23,471.17,355.5,471.88,357.08,473.28Zm-4.72,13.17a3.58,3.58,0,0,0,1.57-1.94v-1.95h-3.8c-2.27,0-3.41.75-3.41,2.24a2,2,0,0,0,.84,1.68,3.68,3.68,0,0,0,2.28.62A4.78,4.78,0,0,0,352.36,486.45Z"/><path class="cls-3" d="M372.43,471.88a10,10,0,0,1,3.89-.71v5.11c-.62,0-1-.07-1.24-.07a5.07,5.07,0,0,0-3.73,1.33,5.38,5.38,0,0,0-1.35,4v9h-5.54v-19.1h5.29V474A6.21,6.21,0,0,1,372.43,471.88Z"/><path class="cls-3" d="M384,484.89a3.28,3.28,0,0,1,1,2.46,5.7,5.7,0,0,1-.18,1.42,13.47,13.47,0,0,1-.78,2.13L382,496h-3.51l1.56-5.64a2.93,2.93,0,0,1-1.4-1.15,3.35,3.35,0,0,1-.52-1.87,3.26,3.26,0,0,1,1-2.46,3.4,3.4,0,0,1,2.47-.94A3.32,3.32,0,0,1,384,484.89Z"/><path class="cls-3" d="M418.19,464.21v26.34h-5.28v-2.2a7.33,7.33,0,0,1-6,2.48,9.89,9.89,0,0,1-4.88-1.21,8.64,8.64,0,0,1-3.42-3.44,11.44,11.44,0,0,1,0-10.36,8.64,8.64,0,0,1,3.42-3.44,9.89,9.89,0,0,1,4.88-1.21,7.26,7.26,0,0,1,5.72,2.31v-9.27Zm-6.81,20.64a6.06,6.06,0,0,0,0-7.7,5,5,0,0,0-7,0,6,6,0,0,0,0,7.7,5,5,0,0,0,7,0Z"/><path class="cls-3" d="M423.59,467.91a3,3,0,0,1,0-4.41,3.5,3.5,0,0,1,2.48-.88,3.6,3.6,0,0,1,2.49.85,2.76,2.76,0,0,1,.95,2.13,3.05,3.05,0,0,1-.95,2.29,3.91,3.91,0,0,1-5,0Zm-.29,3.54h5.54v19.1H423.3Z"/><path class="cls-3" d="M435.76,490.25a12.5,12.5,0,0,1-3.62-1.48l1.84-4a11.89,11.89,0,0,0,3.09,1.33,13.07,13.07,0,0,0,3.55.51q3.51,0,3.51-1.74a1.24,1.24,0,0,0-.95-1.17,15,15,0,0,0-2.95-.6,28.67,28.67,0,0,1-3.87-.82,5.88,5.88,0,0,1-2.64-1.63,4.61,4.61,0,0,1-1.12-3.33,5.24,5.24,0,0,1,1-3.22A6.75,6.75,0,0,1,436.7,472a13.08,13.08,0,0,1,4.74-.78,18.82,18.82,0,0,1,4,.44,11.31,11.31,0,0,1,3.32,1.23l-1.84,3.94a11,11,0,0,0-5.5-1.42,5.59,5.59,0,0,0-2.66.49,1.46,1.46,0,0,0-.89,1.28,1.28,1.28,0,0,0,1,1.25,17.28,17.28,0,0,0,3,.67,33.77,33.77,0,0,1,3.83.83,5.81,5.81,0,0,1,2.59,1.62,4.59,4.59,0,0,1,1.1,3.26,5,5,0,0,1-1.06,3.16,6.85,6.85,0,0,1-3.11,2.15,13.78,13.78,0,0,1-4.84.76A18.52,18.52,0,0,1,435.76,490.25Z"/><path class="cls-3" d="M454.6,490.25a12.5,12.5,0,0,1-3.62-1.48l1.85-4a11.6,11.6,0,0,0,3.09,1.33,13,13,0,0,0,3.54.51c2.35,0,3.52-.58,3.52-1.74a1.24,1.24,0,0,0-1-1.17,15,15,0,0,0-2.95-.6,28.16,28.16,0,0,1-3.86-.82,6,6,0,0,1-2.65-1.63,4.65,4.65,0,0,1-1.12-3.33,5.24,5.24,0,0,1,1.05-3.22,6.81,6.81,0,0,1,3.05-2.18,13.08,13.08,0,0,1,4.74-.78,19,19,0,0,1,4,.44,11.42,11.42,0,0,1,3.32,1.23l-1.85,3.94a11,11,0,0,0-5.5-1.42,5.62,5.62,0,0,0-2.66.49,1.48,1.48,0,0,0-.89,1.28,1.28,1.28,0,0,0,1,1.25,17.5,17.5,0,0,0,3.05.67,34.51,34.51,0,0,1,3.84.83,5.87,5.87,0,0,1,2.59,1.62,4.59,4.59,0,0,1,1.1,3.26,5,5,0,0,1-1.07,3.16,6.82,6.82,0,0,1-3.1,2.15,13.84,13.84,0,0,1-4.85.76A18.63,18.63,0,0,1,454.6,490.25Z"/><path class="cls-3" d="M490.27,482.56H475.82a4.51,4.51,0,0,0,1.85,2.81,6.16,6.16,0,0,0,3.62,1,7.24,7.24,0,0,0,2.64-.44,6.27,6.27,0,0,0,2.15-1.4l2.95,3.19q-2.7,3.09-7.88,3.09a12.48,12.48,0,0,1-5.72-1.26,9.26,9.26,0,0,1-3.83-3.49,9.67,9.67,0,0,1-1.35-5.08,9.85,9.85,0,0,1,1.33-5.06,9.36,9.36,0,0,1,3.66-3.51,10.73,10.73,0,0,1,5.2-1.26,10.55,10.55,0,0,1,5.07,1.21,8.74,8.74,0,0,1,3.57,3.46,10.32,10.32,0,0,1,1.29,5.23C490.37,481.14,490.34,481.64,490.27,482.56Zm-13-6.14a4.54,4.54,0,0,0-1.56,2.91h9.41a4.59,4.59,0,0,0-1.56-2.89,4.71,4.71,0,0,0-3.13-1.08A4.79,4.79,0,0,0,477.31,476.42Z"/><path class="cls-3" d="M497.81,489.57a9.43,9.43,0,0,1-3.8-3.49,10.15,10.15,0,0,1,0-10.15,9.45,9.45,0,0,1,3.8-3.5,11.74,11.74,0,0,1,5.48-1.26,10.62,10.62,0,0,1,5.27,1.26,7.45,7.45,0,0,1,3.28,3.6l-4.29,2.31a4.7,4.7,0,0,0-4.29-2.63,4.89,4.89,0,0,0-3.59,1.42,6,6,0,0,0,0,7.74,4.85,4.85,0,0,0,3.59,1.42,4.65,4.65,0,0,0,4.29-2.63l4.29,2.34a7.56,7.56,0,0,1-3.28,3.55,10.42,10.42,0,0,1-5.27,1.28A11.74,11.74,0,0,1,497.81,489.57Z"/><path class="cls-3" d="M529.55,473.28q2.38,2.12,2.38,6.37v10.9h-5.18v-2.38q-1.56,2.65-5.82,2.66a9.17,9.17,0,0,1-3.82-.74,5.72,5.72,0,0,1-2.46-2.06,5.35,5.35,0,0,1-.85-3,5,5,0,0,1,2-4.19q2-1.53,6.19-1.53h4.4a3.5,3.5,0,0,0-1.1-2.78,4.84,4.84,0,0,0-3.3-1,9.7,9.7,0,0,0-3,.48,7.88,7.88,0,0,0-2.5,1.3l-2-3.87a12.1,12.1,0,0,1,3.75-1.71,16.82,16.82,0,0,1,4.49-.6C525.7,471.17,528,471.88,529.55,473.28Zm-4.72,13.17a3.52,3.52,0,0,0,1.56-1.94v-1.95H522.6c-2.27,0-3.41.75-3.41,2.24a2,2,0,0,0,.83,1.68,3.73,3.73,0,0,0,2.29.62A4.78,4.78,0,0,0,524.83,486.45Z"/><path class="cls-3" d="M544.9,471.88a10,10,0,0,1,3.89-.71v5.11c-.62,0-1-.07-1.25-.07a5.06,5.06,0,0,0-3.72,1.33,5.38,5.38,0,0,0-1.35,4v9h-5.54v-19.1h5.29V474A6.15,6.15,0,0,1,544.9,471.88Z"/><path class="cls-3" d="M154.37,624.3a12.37,12.37,0,0,1-6.62-11.17,12.5,12.5,0,0,1,1.76-6.59,12.35,12.35,0,0,1,4.86-4.59,15.36,15.36,0,0,1,13.93,0,12.66,12.66,0,0,1,0,22.35,15.36,15.36,0,0,1-13.93,0Zm10.95-4.24a7.18,7.18,0,0,0,2.78-2.82,8.89,8.89,0,0,0,0-8.23,7.18,7.18,0,0,0-2.78-2.82,8.33,8.33,0,0,0-7.95,0,7.14,7.14,0,0,0-2.79,2.82,8.89,8.89,0,0,0,0,8.23,7.14,7.14,0,0,0,2.79,2.82,8.26,8.26,0,0,0,7.95,0Z"/><path class="cls-3" d="M186.84,606.88a10,10,0,0,1,3.88-.71v5.11c-.61,0-1-.07-1.24-.07a5.06,5.06,0,0,0-3.72,1.33,5.38,5.38,0,0,0-1.35,4v9h-5.54v-19.1h5.29V609A6.1,6.1,0,0,1,186.84,606.88Z"/><path class="cls-3" d="M213.54,606.45v15.9c0,3.5-.91,6.11-2.73,7.81s-4.48,2.56-8,2.56a20,20,0,0,1-5.26-.68,11.55,11.55,0,0,1-4.11-1.95l2.2-4a8.87,8.87,0,0,0,3.05,1.58,12.16,12.16,0,0,0,3.69.59,6,6,0,0,0,4.24-1.3,5.16,5.16,0,0,0,1.37-3.92v-.81a7.78,7.78,0,0,1-6,2.37,10.07,10.07,0,0,1-4.8-1.15,8.73,8.73,0,0,1-3.46-3.25,9.73,9.73,0,0,1,0-9.65,8.8,8.8,0,0,1,3.46-3.25,10.19,10.19,0,0,1,4.8-1.15,7.58,7.58,0,0,1,6.32,2.73v-2.45Zm-6.86,12.34a4.8,4.8,0,0,0,0-6.78,5.66,5.66,0,0,0-7.22,0,4.76,4.76,0,0,0,0,6.78,5.7,5.7,0,0,0,7.22,0Z"/><path class="cls-3" d="M233.2,608.28q2.38,2.12,2.38,6.37v10.9H230.4v-2.38q-1.56,2.66-5.82,2.66a9.09,9.09,0,0,1-3.81-.74A5.75,5.75,0,0,1,218.3,623a5.35,5.35,0,0,1-.85-3,5,5,0,0,1,2-4.19c1.34-1,3.4-1.53,6.2-1.53h4.4a3.54,3.54,0,0,0-1.1-2.78,4.87,4.87,0,0,0-3.3-1,9.61,9.61,0,0,0-3,.48,7.94,7.94,0,0,0-2.51,1.3l-2-3.87a12,12,0,0,1,3.74-1.71,16.88,16.88,0,0,1,4.49-.6C229.35,606.17,231.62,606.88,233.2,608.28Zm-4.72,13.17a3.58,3.58,0,0,0,1.57-1.94v-2h-3.8c-2.27,0-3.41.75-3.41,2.24a2,2,0,0,0,.84,1.68,3.68,3.68,0,0,0,2.28.62A4.78,4.78,0,0,0,228.48,621.45Z"/><path class="cls-3" d="M257.92,608.3c1.46,1.42,2.18,3.53,2.18,6.32v10.93h-5.53V615.47a4.92,4.92,0,0,0-1-3.39A3.62,3.62,0,0,0,250.7,611a4.39,4.39,0,0,0-3.34,1.3,5.38,5.38,0,0,0-1.24,3.85v9.44h-5.54v-19.1h5.29v2.24a7.36,7.36,0,0,1,2.74-1.86,9.43,9.43,0,0,1,3.58-.66A7.84,7.84,0,0,1,257.92,608.3Z"/><path class="cls-3" d="M265.39,602.91a3,3,0,0,1,0-4.41,3.53,3.53,0,0,1,2.49-.88,3.59,3.59,0,0,1,2.48.85,2.74,2.74,0,0,1,1,2.13,3,3,0,0,1-1,2.29,3.49,3.49,0,0,1-2.48.9A3.53,3.53,0,0,1,265.39,602.91Zm-.28,3.54h5.53v19.1h-5.53Z"/><path class="cls-3" d="M291.51,621.29v4.26h-17v-3.34l9.72-11.5h-9.48v-4.26h16.47v3.34l-9.72,11.5Z"/><path class="cls-3" d="M309.57,608.28q2.39,2.12,2.38,6.37v10.9h-5.18v-2.38q-1.56,2.66-5.82,2.66a9.17,9.17,0,0,1-3.82-.74,5.78,5.78,0,0,1-2.46-2.06,5.35,5.35,0,0,1-.85-3,5,5,0,0,1,2-4.19q2-1.53,6.19-1.53h4.4a3.5,3.5,0,0,0-1.1-2.78,4.84,4.84,0,0,0-3.3-1,9.7,9.7,0,0,0-3,.48,7.88,7.88,0,0,0-2.5,1.3l-2-3.87a11.94,11.94,0,0,1,3.74-1.71,16.82,16.82,0,0,1,4.49-.6C305.72,606.17,308,606.88,309.57,608.28Zm-4.72,13.17a3.52,3.52,0,0,0,1.56-1.94v-2h-3.79c-2.27,0-3.41.75-3.41,2.24a2,2,0,0,0,.83,1.68,3.73,3.73,0,0,0,2.29.62A4.78,4.78,0,0,0,304.85,621.45Z"/><path class="cls-3" d="M324.92,606.88a10,10,0,0,1,3.89-.71v5.11c-.62,0-1-.07-1.25-.07a5.06,5.06,0,0,0-3.72,1.33,5.38,5.38,0,0,0-1.35,4v9H317v-19.1h5.29V609A6.15,6.15,0,0,1,324.92,606.88Z"/><path class="cls-3" d="M336.47,619.89a3.28,3.28,0,0,1,1,2.46,5.7,5.7,0,0,1-.18,1.42,14.59,14.59,0,0,1-.78,2.13l-2,5.11h-3.51l1.56-5.64a2.93,2.93,0,0,1-1.4-1.15,3.35,3.35,0,0,1-.52-1.87,3.26,3.26,0,0,1,1-2.46A3.39,3.39,0,0,1,334,619,3.33,3.33,0,0,1,336.47,619.89Z"/><path class="cls-3" d="M370.47,606.45v19.1h-5.25v-2.27a7.37,7.37,0,0,1-2.63,1.89,8.24,8.24,0,0,1-3.3.66,8.12,8.12,0,0,1-6-2.16q-2.2-2.17-2.2-6.43V606.45h5.53v10q0,4.61,3.87,4.61a4.15,4.15,0,0,0,3.2-1.3,5.47,5.47,0,0,0,1.2-3.85v-9.44Z"/><path class="cls-3" d="M377.39,625.25a12.5,12.5,0,0,1-3.62-1.48l1.84-4a11.89,11.89,0,0,0,3.09,1.33,13.07,13.07,0,0,0,3.55.51q3.51,0,3.51-1.74a1.24,1.24,0,0,0-.95-1.17,15,15,0,0,0-2.95-.6,28.67,28.67,0,0,1-3.87-.82,5.88,5.88,0,0,1-2.64-1.63,4.61,4.61,0,0,1-1.12-3.33,5.24,5.24,0,0,1,1-3.22,6.75,6.75,0,0,1,3.05-2.18,13.08,13.08,0,0,1,4.74-.78,18.82,18.82,0,0,1,4,.44,11.31,11.31,0,0,1,3.32,1.23l-1.84,3.94a11,11,0,0,0-5.5-1.42,5.59,5.59,0,0,0-2.66.49,1.46,1.46,0,0,0-.89,1.28,1.28,1.28,0,0,0,1,1.25,17.28,17.28,0,0,0,3,.67,33.77,33.77,0,0,1,3.83.83A5.81,5.81,0,0,1,390,616.5a4.59,4.59,0,0,1,1.1,3.26,5,5,0,0,1-1.06,3.16,6.85,6.85,0,0,1-3.11,2.15,13.78,13.78,0,0,1-4.84.76A18.52,18.52,0,0,1,377.39,625.25Z"/><path class="cls-3" d="M409,608.28q2.38,2.12,2.38,6.37v10.9h-5.18v-2.38q-1.56,2.66-5.82,2.66a9.17,9.17,0,0,1-3.82-.74,5.78,5.78,0,0,1-2.46-2.06,5.35,5.35,0,0,1-.85-3,5,5,0,0,1,2-4.19q2-1.53,6.19-1.53h4.4a3.5,3.5,0,0,0-1.1-2.78,4.84,4.84,0,0,0-3.3-1,9.59,9.59,0,0,0-3,.48,7.83,7.83,0,0,0-2.51,1.3l-2-3.87a11.94,11.94,0,0,1,3.74-1.71,16.82,16.82,0,0,1,4.49-.6C405.12,606.17,407.39,606.88,409,608.28Zm-4.72,13.17a3.52,3.52,0,0,0,1.56-1.94v-2H402c-2.27,0-3.41.75-3.41,2.24a2,2,0,0,0,.83,1.68,3.73,3.73,0,0,0,2.29.62A4.78,4.78,0,0,0,404.25,621.45Z"/><path class="cls-3" d="M424.32,606.88a10,10,0,0,1,3.89-.71v5.11c-.62,0-1-.07-1.25-.07a5.06,5.06,0,0,0-3.72,1.33,5.38,5.38,0,0,0-1.35,4v9h-5.54v-19.1h5.29V609A6.15,6.15,0,0,1,424.32,606.88Z"/><path class="cls-3" d="M78.31,732.71H89.6a15.87,15.87,0,0,1,7.15,1.54,11.56,11.56,0,0,1,4.82,4.35,13.26,13.26,0,0,1,0,13.06A11.54,11.54,0,0,1,96.75,756a15.87,15.87,0,0,1-7.15,1.55H78.31Zm11,20.12a8.38,8.38,0,0,0,6-2.08,8.26,8.26,0,0,0,0-11.25,8.37,8.37,0,0,0-6-2.07H84.06v15.4Z"/><path class="cls-3" d="M125.83,749.56H111.38a4.51,4.51,0,0,0,1.85,2.81,6.16,6.16,0,0,0,3.62,1,7.24,7.24,0,0,0,2.64-.44,6.27,6.27,0,0,0,2.15-1.4l3,3.19q-2.7,3.09-7.88,3.09a12.48,12.48,0,0,1-5.72-1.26,9.26,9.26,0,0,1-3.83-3.49,9.67,9.67,0,0,1-1.35-5.08,9.85,9.85,0,0,1,1.33-5.06,9.36,9.36,0,0,1,3.66-3.51,10.73,10.73,0,0,1,5.2-1.26,10.55,10.55,0,0,1,5.07,1.21,8.68,8.68,0,0,1,3.57,3.46,10.32,10.32,0,0,1,1.29,5.23C125.93,748.14,125.9,748.64,125.83,749.56Zm-13-6.14a4.51,4.51,0,0,0-1.57,2.91h9.41a4.59,4.59,0,0,0-1.56-2.89,5.14,5.14,0,0,0-6.28,0Z"/><path class="cls-3" d="M131.4,757.25a12.5,12.5,0,0,1-3.62-1.48l1.84-4a11.89,11.89,0,0,0,3.09,1.33,13.07,13.07,0,0,0,3.55.51c2.34,0,3.52-.58,3.52-1.74a1.24,1.24,0,0,0-1-1.17,15,15,0,0,0-2.95-.6,28.67,28.67,0,0,1-3.87-.82,5.93,5.93,0,0,1-2.64-1.63,4.61,4.61,0,0,1-1.12-3.33,5.24,5.24,0,0,1,1-3.22,6.75,6.75,0,0,1,3.05-2.18,13.08,13.08,0,0,1,4.74-.78,19,19,0,0,1,4,.44,11.35,11.35,0,0,1,3.31,1.23l-1.84,3.94a11,11,0,0,0-5.5-1.42,5.59,5.59,0,0,0-2.66.49,1.46,1.46,0,0,0-.89,1.28,1.28,1.28,0,0,0,1,1.25,17.28,17.28,0,0,0,3,.67,33.77,33.77,0,0,1,3.83.83A5.76,5.76,0,0,1,144,748.5a4.55,4.55,0,0,1,1.1,3.26,5,5,0,0,1-1.06,3.16,6.85,6.85,0,0,1-3.11,2.15,13.78,13.78,0,0,1-4.84.76A18.52,18.52,0,0,1,131.4,757.25Z"/><path class="cls-3" d="M152.21,756.57a9.4,9.4,0,0,1-3.79-3.49,9.64,9.64,0,0,1,3.79-13.65,11.75,11.75,0,0,1,5.49-1.26,10.65,10.65,0,0,1,5.27,1.26,7.5,7.5,0,0,1,3.28,3.6l-4.3,2.31a4.69,4.69,0,0,0-4.29-2.63,4.87,4.87,0,0,0-3.58,1.42,6,6,0,0,0,0,7.74,4.83,4.83,0,0,0,3.58,1.42,4.65,4.65,0,0,0,4.29-2.63l4.3,2.34a7.62,7.62,0,0,1-3.28,3.55,10.44,10.44,0,0,1-5.27,1.28A11.75,11.75,0,0,1,152.21,756.57Z"/><path class="cls-3" d="M177.41,738.88a10,10,0,0,1,3.88-.71v5.11c-.61,0-1-.07-1.24-.07a5.06,5.06,0,0,0-3.72,1.33,5.38,5.38,0,0,0-1.35,4v9h-5.54v-19.1h5.29V741A6.15,6.15,0,0,1,177.41,738.88Z"/><path class="cls-3" d="M203,749.56H188.57a4.51,4.51,0,0,0,1.85,2.81,6.14,6.14,0,0,0,3.62,1,7.24,7.24,0,0,0,2.64-.44,6.37,6.37,0,0,0,2.15-1.4l2.94,3.19c-1.8,2.06-4.42,3.09-7.88,3.09a12.47,12.47,0,0,1-5.71-1.26,9.2,9.2,0,0,1-3.83-3.49,10.26,10.26,0,0,1,0-10.14,9.36,9.36,0,0,1,3.66-3.51,11.29,11.29,0,0,1,10.27,0,8.8,8.8,0,0,1,3.57,3.46,10.32,10.32,0,0,1,1.29,5.23C203.12,748.14,203.08,748.64,203,749.56Zm-12.95-6.14a4.54,4.54,0,0,0-1.56,2.91h9.4a4.59,4.59,0,0,0-1.56-2.89,4.66,4.66,0,0,0-3.12-1.08A4.75,4.75,0,0,0,190.06,743.42Z"/><path class="cls-3" d="M225.41,738.45l-8.06,19.1h-5.71l-8-19.1h5.71l5.29,13,5.46-13Z"/><path class="cls-3" d="M245.74,749.56H231.3a4.5,4.5,0,0,0,1.84,2.81,6.16,6.16,0,0,0,3.62,1,7.25,7.25,0,0,0,2.65-.44,6.23,6.23,0,0,0,2.14-1.4l2.95,3.19c-1.8,2.06-4.42,3.09-7.88,3.09a12.44,12.44,0,0,1-5.71-1.26,9.14,9.14,0,0,1-3.83-3.49,10.26,10.26,0,0,1,0-10.14,9.27,9.27,0,0,1,3.65-3.51,10.75,10.75,0,0,1,5.2-1.26,10.62,10.62,0,0,1,5.08,1.21,8.72,8.72,0,0,1,3.56,3.46,10.23,10.23,0,0,1,1.3,5.23C245.85,748.14,245.81,748.64,245.74,749.56Zm-13-6.14a4.54,4.54,0,0,0-1.56,2.91h9.4a4.59,4.59,0,0,0-1.56-2.89,4.66,4.66,0,0,0-3.12-1.08A4.75,4.75,0,0,0,232.79,743.42Z"/><path class="cls-3" d="M257.51,738.88a10,10,0,0,1,3.88-.71v5.11c-.61,0-1-.07-1.24-.07a5.07,5.07,0,0,0-3.73,1.33,5.38,5.38,0,0,0-1.35,4v9h-5.53v-19.1h5.29V741A6.1,6.1,0,0,1,257.51,738.88Z"/><path class="cls-3" d="M269.06,751.89a3.28,3.28,0,0,1,.95,2.46,5.69,5.69,0,0,1-.17,1.42,15.9,15.9,0,0,1-.78,2.13L267,763h-3.51l1.56-5.64a2.93,2.93,0,0,1-1.4-1.15,3.43,3.43,0,0,1-.51-1.87,3.25,3.25,0,0,1,1-2.46,3.4,3.4,0,0,1,2.47-.94A3.35,3.35,0,0,1,269.06,751.89Z"/><path class="cls-3" d="M287.56,756.57a9.4,9.4,0,0,1-3.79-3.49,9.64,9.64,0,0,1,3.79-13.65,11.75,11.75,0,0,1,5.49-1.26,10.65,10.65,0,0,1,5.27,1.26,7.5,7.5,0,0,1,3.28,3.6l-4.3,2.31a4.69,4.69,0,0,0-4.29-2.63,4.87,4.87,0,0,0-3.58,1.42,6,6,0,0,0,0,7.74,4.83,4.83,0,0,0,3.58,1.42,4.65,4.65,0,0,0,4.29-2.63l4.3,2.34a7.62,7.62,0,0,1-3.28,3.55,10.44,10.44,0,0,1-5.27,1.28A11.75,11.75,0,0,1,287.56,756.57Z"/><path class="cls-3" d="M305.08,734.91a3,3,0,0,1,0-4.41,3.48,3.48,0,0,1,2.48-.88,3.56,3.56,0,0,1,2.48.85,2.74,2.74,0,0,1,1,2.13,3,3,0,0,1-1,2.29,3.9,3.9,0,0,1-5,0Zm-.29,3.54h5.54v19.1h-5.54Z"/><path class="cls-3" d="M327.79,756.62a5.63,5.63,0,0,1-2,.91,10.13,10.13,0,0,1-2.5.3,7.43,7.43,0,0,1-5.27-1.74,6.66,6.66,0,0,1-1.86-5.11v-7.84H313.2v-4.26h2.95v-4.65h5.53v4.65h4.76v4.26h-4.76v7.77a2.61,2.61,0,0,0,.62,1.86,2.31,2.31,0,0,0,1.76.66,3.59,3.59,0,0,0,2.24-.71Z"/><path class="cls-3" d="M345.42,740.28q2.38,2.12,2.38,6.37v10.9h-5.18v-2.38q-1.56,2.66-5.82,2.66a9.09,9.09,0,0,1-3.81-.74,5.75,5.75,0,0,1-2.47-2.06,5.35,5.35,0,0,1-.85-3,5,5,0,0,1,2-4.19c1.34-1,3.4-1.53,6.2-1.53h4.4a3.54,3.54,0,0,0-1.1-2.78,4.87,4.87,0,0,0-3.3-1,9.61,9.61,0,0,0-3,.48,7.78,7.78,0,0,0-2.5,1.3l-2-3.87a12,12,0,0,1,3.74-1.71,16.88,16.88,0,0,1,4.49-.6C341.57,738.17,343.84,738.88,345.42,740.28Zm-4.71,13.17a3.61,3.61,0,0,0,1.56-1.94v-2h-3.8c-2.27,0-3.41.75-3.41,2.24a2,2,0,0,0,.84,1.68,3.69,3.69,0,0,0,2.29.62A4.83,4.83,0,0,0,340.71,753.45Z"/><path class="cls-3" d="M360.77,738.88a10,10,0,0,1,3.89-.71v5.11c-.62,0-1-.07-1.24-.07a5.07,5.07,0,0,0-3.73,1.33,5.38,5.38,0,0,0-1.35,4v9h-5.53v-19.1h5.28V741A6.21,6.21,0,0,1,360.77,738.88Z"/><path class="cls-3" d="M43.31,864.71h5.75v20.15H61.52v4.69H43.31Z"/><path class="cls-3" d="M64.64,866.91a3,3,0,0,1,0-4.41,3.52,3.52,0,0,1,2.48-.88,3.6,3.6,0,0,1,2.49.85,2.74,2.74,0,0,1,1,2.13,3,3,0,0,1-1,2.29,3.91,3.91,0,0,1-5,0Zm-.29,3.54h5.54v19.1H64.35Z"/><path class="cls-3" d="M76.81,889.25a12.5,12.5,0,0,1-3.62-1.48l1.85-4a11.66,11.66,0,0,0,3.08,1.33,13.07,13.07,0,0,0,3.55.51c2.34,0,3.52-.58,3.52-1.74a1.24,1.24,0,0,0-1-1.17,15,15,0,0,0-3-.6,28.67,28.67,0,0,1-3.87-.82,6,6,0,0,1-2.64-1.63,4.65,4.65,0,0,1-1.12-3.33,5.24,5.24,0,0,1,1-3.22,6.75,6.75,0,0,1,3-2.18,13.08,13.08,0,0,1,4.74-.78,19,19,0,0,1,4,.44,11.35,11.35,0,0,1,3.31,1.23L88,875.78a11,11,0,0,0-5.5-1.42,5.62,5.62,0,0,0-2.66.49,1.48,1.48,0,0,0-.89,1.28,1.28,1.28,0,0,0,1,1.25,17.28,17.28,0,0,0,3,.67,33.77,33.77,0,0,1,3.83.83,5.76,5.76,0,0,1,2.59,1.62,4.55,4.55,0,0,1,1.1,3.26,5,5,0,0,1-1.06,3.16,6.85,6.85,0,0,1-3.11,2.15,13.78,13.78,0,0,1-4.84.76A18.63,18.63,0,0,1,76.81,889.25Z"/><path class="cls-3" d="M106.19,888.62a5.5,5.5,0,0,1-2,.91,10.19,10.19,0,0,1-2.5.3,7.43,7.43,0,0,1-5.27-1.74A6.66,6.66,0,0,1,94.55,883v-7.84H91.61v-4.26h2.94v-4.65h5.54v4.65h4.76v4.26h-4.76v7.77a2.61,2.61,0,0,0,.62,1.86,2.29,2.29,0,0,0,1.76.66,3.56,3.56,0,0,0,2.23-.71Z"/><path class="cls-3" d="M123.83,872.28q2.39,2.12,2.38,6.37v10.9H121v-2.38q-1.56,2.66-5.82,2.66a9.17,9.17,0,0,1-3.82-.74,5.72,5.72,0,0,1-2.46-2.06,5.35,5.35,0,0,1-.85-3,5,5,0,0,1,2-4.19q2-1.53,6.19-1.53h4.4a3.5,3.5,0,0,0-1.1-2.78,4.84,4.84,0,0,0-3.3-1,9.61,9.61,0,0,0-3,.48,7.88,7.88,0,0,0-2.5,1.3l-2-3.87a12.1,12.1,0,0,1,3.75-1.71,16.82,16.82,0,0,1,4.49-.6C120,870.17,122.25,870.88,123.83,872.28Zm-4.72,13.17a3.56,3.56,0,0,0,1.56-1.94v-2h-3.79c-2.28,0-3.41.75-3.41,2.24a2,2,0,0,0,.83,1.68,3.73,3.73,0,0,0,2.29.62A4.78,4.78,0,0,0,119.11,885.45Z"/><path class="cls-3" d="M139.18,870.88a10,10,0,0,1,3.89-.71v5.11c-.62,0-1-.07-1.25-.07a5.06,5.06,0,0,0-3.72,1.33,5.38,5.38,0,0,0-1.35,4v9h-5.54v-19.1h5.29V873A6.15,6.15,0,0,1,139.18,870.88Z"/><path class="cls-3" d="M150.73,883.89a3.28,3.28,0,0,1,1,2.46,5.7,5.7,0,0,1-.18,1.42,15.9,15.9,0,0,1-.78,2.13l-2,5.11h-3.52l1.57-5.64a3,3,0,0,1-1.41-1.15,3.43,3.43,0,0,1-.51-1.87,3.26,3.26,0,0,1,1-2.46,3.39,3.39,0,0,1,2.46-.94A3.33,3.33,0,0,1,150.73,883.89Z"/><path class="cls-3" d="M184.94,863.21v26.34h-5.29v-2.2a7.31,7.31,0,0,1-6,2.48,9.87,9.87,0,0,1-4.88-1.21,8.58,8.58,0,0,1-3.42-3.44,11.44,11.44,0,0,1,0-10.36,8.58,8.58,0,0,1,3.42-3.44,9.87,9.87,0,0,1,4.88-1.21,7.28,7.28,0,0,1,5.72,2.31v-9.27Zm-6.81,20.64a6.06,6.06,0,0,0,0-7.7,5,5,0,0,0-7,0,6,6,0,0,0,0,7.7,5,5,0,0,0,7,0Z"/><path class="cls-3" d="M208.65,881.56H194.2a4.51,4.51,0,0,0,1.85,2.81,6.14,6.14,0,0,0,3.62,1,7.24,7.24,0,0,0,2.64-.44,6.27,6.27,0,0,0,2.15-1.4l2.94,3.19c-1.79,2.06-4.42,3.09-7.87,3.09a12.48,12.48,0,0,1-5.72-1.26,9.26,9.26,0,0,1-3.83-3.49,10.26,10.26,0,0,1,0-10.14,9.36,9.36,0,0,1,3.66-3.51,10.73,10.73,0,0,1,5.2-1.26,10.58,10.58,0,0,1,5.07,1.21,8.8,8.8,0,0,1,3.57,3.46,10.32,10.32,0,0,1,1.29,5.23C208.75,880.14,208.72,880.64,208.65,881.56Zm-13-6.14a4.54,4.54,0,0,0-1.56,2.91h9.41a4.56,4.56,0,0,0-1.57-2.89,4.66,4.66,0,0,0-3.12-1.08A4.77,4.77,0,0,0,195.69,875.42Z"/><path class="cls-3" d="M218.51,870.88h4.9v4.26h-4.76v14.41h-5.53V875.14h-3v-4.26h3V870a7,7,0,0,1,1.93-5.18,7.41,7.41,0,0,1,5.45-1.92,10,10,0,0,1,2.36.27,5.88,5.88,0,0,1,1.86.76l-1.45,4a3.8,3.8,0,0,0-2.24-.67q-2.52,0-2.52,2.76Zm10.79-4a3,3,0,0,1,0-4.41,3.52,3.52,0,0,1,2.48-.88,3.6,3.6,0,0,1,2.49.85,2.74,2.74,0,0,1,1,2.13,3,3,0,0,1-1,2.29,3.91,3.91,0,0,1-5,0Zm-.28,3.54h5.53v19.1H229Z"/><path class="cls-3" d="M257,872.3q2.19,2.13,2.19,6.32v10.93h-5.54V879.47a5,5,0,0,0-1-3.39,3.64,3.64,0,0,0-2.88-1.12,4.37,4.37,0,0,0-3.33,1.3,5.34,5.34,0,0,0-1.25,3.85v9.44H239.7v-19.1H245v2.24a7.25,7.25,0,0,1,2.73-1.86,9.46,9.46,0,0,1,3.58-.66A7.84,7.84,0,0,1,257,872.3Z"/><path class="cls-3" d="M264.5,866.91a3,3,0,0,1,0-4.41,3.53,3.53,0,0,1,2.49-.88,3.59,3.59,0,0,1,2.48.85,2.74,2.74,0,0,1,1,2.13,3,3,0,0,1-1,2.29,3.49,3.49,0,0,1-2.48.9A3.53,3.53,0,0,1,264.5,866.91Zm-.28,3.54h5.53v19.1h-5.53Z"/><path class="cls-3" d="M282.87,870.88a10,10,0,0,1,3.88-.71v5.11c-.61,0-1-.07-1.24-.07a5,5,0,0,0-3.72,1.33,5.38,5.38,0,0,0-1.35,4v9H274.9v-19.1h5.29V873A6.1,6.1,0,0,1,282.87,870.88Z"/><path class="cls-3" d="M1514.33,888.32a12.28,12.28,0,0,1-4.82-4.58,13.31,13.31,0,0,1,0-13.23,12.35,12.35,0,0,1,4.82-4.58,15.38,15.38,0,0,1,12.74-.51,11.67,11.67,0,0,1,4.39,3.26l-3.7,3.41a7.93,7.93,0,0,0-6.24-2.91,8.25,8.25,0,0,0-4.12,1,7.15,7.15,0,0,0-2.82,2.82,8.89,8.89,0,0,0,0,8.23,7.15,7.15,0,0,0,2.82,2.82,8.25,8.25,0,0,0,4.12,1,7.91,7.91,0,0,0,6.24-3l3.7,3.41a11.66,11.66,0,0,1-4.41,3.3,14.71,14.71,0,0,1-5.85,1.13A14.3,14.3,0,0,1,1514.33,888.32Z"/><path class="cls-3" d="M1537.93,888.57a9.33,9.33,0,0,1-3.74-3.49,10.21,10.21,0,0,1,0-10.15,9.36,9.36,0,0,1,3.74-3.5,12.22,12.22,0,0,1,10.81,0,9.43,9.43,0,0,1,3.72,3.5,10.21,10.21,0,0,1,0,10.15,9.41,9.41,0,0,1-3.72,3.49,12.22,12.22,0,0,1-10.81,0Zm8.91-4.72a6.09,6.09,0,0,0,0-7.7,5,5,0,0,0-7,0,6.06,6.06,0,0,0,0,7.7,5,5,0,0,0,7,0Z"/><path class="cls-3" d="M1574.84,872.3q2.17,2.13,2.18,6.32v10.93h-5.54V879.47a5,5,0,0,0-1-3.39,3.62,3.62,0,0,0-2.87-1.12,4.39,4.39,0,0,0-3.34,1.3,5.34,5.34,0,0,0-1.24,3.85v9.44h-5.54v-19.1h5.29v2.24a7.25,7.25,0,0,1,2.73-1.86,9.52,9.52,0,0,1,3.59-.66A7.87,7.87,0,0,1,1574.84,872.3Z"/><path class="cls-3" d="M1599.36,872.3c1.46,1.42,2.18,3.53,2.18,6.32v10.93H1596V879.47a4.92,4.92,0,0,0-1-3.39,3.62,3.62,0,0,0-2.87-1.12,4.39,4.39,0,0,0-3.34,1.3,5.34,5.34,0,0,0-1.24,3.85v9.44H1582V863.21h5.54v9.23a7.37,7.37,0,0,1,2.66-1.68,9.65,9.65,0,0,1,3.41-.59A7.84,7.84,0,0,1,1599.36,872.3Z"/><path class="cls-3" d="M1625.35,881.56h-14.44a4.51,4.51,0,0,0,1.85,2.81,6.14,6.14,0,0,0,3.62,1A7.24,7.24,0,0,0,1619,885a6.37,6.37,0,0,0,2.15-1.4l2.94,3.19c-1.8,2.06-4.42,3.09-7.88,3.09a12.47,12.47,0,0,1-5.71-1.26,9.2,9.2,0,0,1-3.83-3.49,10.26,10.26,0,0,1,0-10.14,9.36,9.36,0,0,1,3.66-3.51,11.29,11.29,0,0,1,10.27,0,8.8,8.8,0,0,1,3.57,3.46,10.32,10.32,0,0,1,1.29,5.23C1625.46,880.14,1625.43,880.64,1625.35,881.56Zm-12.95-6.14a4.54,4.54,0,0,0-1.56,2.91h9.4a4.55,4.55,0,0,0-1.56-2.89,4.66,4.66,0,0,0-3.12-1.08A4.77,4.77,0,0,0,1612.4,875.42Z"/><path class="cls-3" d="M1632.9,888.57a9.43,9.43,0,0,1-3.8-3.49,10.08,10.08,0,0,1,0-10.15,9.45,9.45,0,0,1,3.8-3.5,11.71,11.71,0,0,1,5.48-1.26,10.62,10.62,0,0,1,5.27,1.26,7.45,7.45,0,0,1,3.28,3.6l-4.29,2.31a4.71,4.71,0,0,0-4.3-2.63,4.88,4.88,0,0,0-3.58,1.42,6,6,0,0,0,0,7.74,4.85,4.85,0,0,0,3.58,1.42,4.65,4.65,0,0,0,4.3-2.63l4.29,2.34a7.56,7.56,0,0,1-3.28,3.55,10.42,10.42,0,0,1-5.27,1.28A11.71,11.71,0,0,1,1632.9,888.57Z"/><path class="cls-3" d="M1668.47,881.56H1654a4.5,4.5,0,0,0,1.84,2.81,6.16,6.16,0,0,0,3.62,1,7.25,7.25,0,0,0,2.65-.44,6.23,6.23,0,0,0,2.14-1.4l3,3.19c-1.8,2.06-4.42,3.09-7.88,3.09a12.44,12.44,0,0,1-5.71-1.26,9.14,9.14,0,0,1-3.83-3.49,10.26,10.26,0,0,1,0-10.14,9.27,9.27,0,0,1,3.65-3.51,10.75,10.75,0,0,1,5.2-1.26,10.62,10.62,0,0,1,5.08,1.21,8.72,8.72,0,0,1,3.56,3.46,10.23,10.23,0,0,1,1.3,5.23C1668.58,880.14,1668.54,880.64,1668.47,881.56Zm-13-6.14a4.54,4.54,0,0,0-1.56,2.91h9.4a4.59,4.59,0,0,0-1.56-2.89,4.66,4.66,0,0,0-3.12-1.08A4.75,4.75,0,0,0,1655.52,875.42Z"/><path class="cls-3" d="M1680.24,870.88a10,10,0,0,1,3.88-.71v5.11c-.61,0-1-.07-1.24-.07a5.07,5.07,0,0,0-3.73,1.33,5.38,5.38,0,0,0-1.35,4v9h-5.53v-19.1h5.29V873A6.1,6.1,0,0,1,1680.24,870.88Z"/><path class="cls-3" d="M1691.79,883.89a3.28,3.28,0,0,1,1,2.46,5.7,5.7,0,0,1-.18,1.42,15.9,15.9,0,0,1-.78,2.13l-2,5.11h-3.52l1.56-5.64a2.93,2.93,0,0,1-1.4-1.15,3.43,3.43,0,0,1-.51-1.87,3.25,3.25,0,0,1,1-2.46,3.41,3.41,0,0,1,2.47-.94A3.35,3.35,0,0,1,1691.79,883.89Z"/><path class="cls-3" d="M1706.83,866.91a3,3,0,0,1,0-4.41,3.53,3.53,0,0,1,2.49-.88,3.59,3.59,0,0,1,2.48.85,2.74,2.74,0,0,1,1,2.13,3,3,0,0,1-1,2.29,3.49,3.49,0,0,1-2.48.9A3.53,3.53,0,0,1,1706.83,866.91Zm-.28,3.54h5.54v19.1h-5.54Z"/><path class="cls-3" d="M1734.57,872.3q2.17,2.13,2.18,6.32v10.93h-5.54V879.47a5,5,0,0,0-1-3.39,3.62,3.62,0,0,0-2.87-1.12,4.39,4.39,0,0,0-3.34,1.3,5.34,5.34,0,0,0-1.24,3.85v9.44h-5.54v-19.1h5.29v2.24a7.25,7.25,0,0,1,2.73-1.86,9.52,9.52,0,0,1,3.59-.66A7.87,7.87,0,0,1,1734.57,872.3Z"/><path class="cls-3" d="M1747.82,870.88h4.9v4.26H1748v14.41h-5.53V875.14h-3v-4.26h3V870a7,7,0,0,1,1.93-5.18,7.41,7.41,0,0,1,5.45-1.92,10,10,0,0,1,2.36.27,5.78,5.78,0,0,1,1.86.76l-1.45,4a3.8,3.8,0,0,0-2.24-.67q-2.52,0-2.52,2.76Z"/><path class="cls-3" d="M1758.91,888.57a9.4,9.4,0,0,1-3.74-3.49,10.21,10.21,0,0,1,0-10.15,9.42,9.42,0,0,1,3.74-3.5,12.22,12.22,0,0,1,10.81,0,9.46,9.46,0,0,1,3.73,3.5,10.28,10.28,0,0,1,0,10.15,9.44,9.44,0,0,1-3.73,3.49,12.22,12.22,0,0,1-10.81,0Zm8.91-4.72a6.09,6.09,0,0,0,0-7.7,4.61,4.61,0,0,0-3.5-1.44,4.67,4.67,0,0,0-3.51,1.44,6.06,6.06,0,0,0,0,7.7,4.67,4.67,0,0,0,3.51,1.44A4.61,4.61,0,0,0,1767.82,883.85Z"/><path class="cls-3" d="M1786.45,870.88a10,10,0,0,1,3.89-.71v5.11c-.62,0-1-.07-1.25-.07a5.06,5.06,0,0,0-3.72,1.33,5.38,5.38,0,0,0-1.35,4v9h-5.54v-19.1h5.29V873A6.15,6.15,0,0,1,1786.45,870.88Z"/><path class="cls-3" d="M1823.78,872.28q2.12,2.12,2.12,6.34v10.93h-5.54V879.47a5.14,5.14,0,0,0-.94-3.39,3.3,3.3,0,0,0-2.68-1.12,4,4,0,0,0-3.09,1.26,5.41,5.41,0,0,0-1.13,3.74v9.59H1807V879.47q0-4.51-3.62-4.51a3.9,3.9,0,0,0-3,1.26,5.42,5.42,0,0,0-1.14,3.74v9.59h-5.53v-19.1h5.28v2.2a7.07,7.07,0,0,1,2.61-1.84,8.71,8.71,0,0,1,3.39-.64,8.26,8.26,0,0,1,3.66.8,6.46,6.46,0,0,1,2.62,2.32,7.79,7.79,0,0,1,3-2.3,9.24,9.24,0,0,1,3.92-.82A7.7,7.7,0,0,1,1823.78,872.28Z"/><path class="cls-3" d="M1845.38,872.28c1.58,1.41,2.38,3.53,2.38,6.37v10.9h-5.19v-2.38q-1.56,2.66-5.82,2.66a9.15,9.15,0,0,1-3.81-.74,5.75,5.75,0,0,1-2.47-2.06,5.43,5.43,0,0,1-.85-3,5,5,0,0,1,2-4.19c1.33-1,3.4-1.53,6.19-1.53h4.4a3.54,3.54,0,0,0-1.1-2.78,4.84,4.84,0,0,0-3.3-1,9.61,9.61,0,0,0-3,.48,7.78,7.78,0,0,0-2.5,1.3l-2-3.87a12,12,0,0,1,3.75-1.71,16.81,16.81,0,0,1,4.48-.6C1841.52,870.17,1843.79,870.88,1845.38,872.28Zm-4.72,13.17a3.61,3.61,0,0,0,1.56-1.94v-2h-3.8c-2.27,0-3.4.75-3.4,2.24a2,2,0,0,0,.83,1.68,3.73,3.73,0,0,0,2.29.62A4.83,4.83,0,0,0,1840.66,885.45Z"/><path class="cls-3" d="M1860.73,870.88a10,10,0,0,1,3.88-.71v5.11c-.61,0-1-.07-1.24-.07a5.08,5.08,0,0,0-3.73,1.33,5.38,5.38,0,0,0-1.35,4v9h-5.53v-19.1h5.29V873A6.1,6.1,0,0,1,1860.73,870.88Z"/><path class="cls-3" d="M1435.79,729.81a8.47,8.47,0,0,1,3.75,3.12,9.38,9.38,0,0,1,0,9.56,8.42,8.42,0,0,1-3.75,3.13,14,14,0,0,1-5.73,1.08h-5v6.85h-5.75V728.71h10.75A13.69,13.69,0,0,1,1435.79,729.81Zm-2.11,11.09a4.46,4.46,0,0,0,0-6.39,6,6,0,0,0-3.94-1.12h-4.68V742h4.68A6.07,6.07,0,0,0,1433.68,740.9Z"/><path class="cls-3" d="M1463.1,745.56h-14.44a4.5,4.5,0,0,0,1.84,2.81,6.16,6.16,0,0,0,3.62,1,7.25,7.25,0,0,0,2.65-.44,6.37,6.37,0,0,0,2.15-1.4l2.94,3.19c-1.8,2.06-4.42,3.09-7.88,3.09a12.44,12.44,0,0,1-5.71-1.26,9.14,9.14,0,0,1-3.83-3.49,10.26,10.26,0,0,1,0-10.14,9.33,9.33,0,0,1,3.65-3.51,10.75,10.75,0,0,1,5.2-1.26,10.62,10.62,0,0,1,5.08,1.21,8.72,8.72,0,0,1,3.56,3.46,10.23,10.23,0,0,1,1.3,5.23C1463.21,744.14,1463.17,744.64,1463.1,745.56Zm-12.95-6.14a4.54,4.54,0,0,0-1.56,2.91h9.4a4.59,4.59,0,0,0-1.56-2.89,4.66,4.66,0,0,0-3.12-1.08A4.75,4.75,0,0,0,1450.15,739.42Z"/><path class="cls-3" d="M1474.87,734.88a10,10,0,0,1,3.88-.71v5.11c-.61,0-1-.07-1.24-.07a5.08,5.08,0,0,0-3.73,1.33,5.38,5.38,0,0,0-1.34,4v9h-5.54v-19.1h5.29V737A6.1,6.1,0,0,1,1474.87,734.88Z"/><path class="cls-3" d="M1501.57,734.45v15.9c0,3.5-.91,6.11-2.73,7.81s-4.48,2.56-8,2.56a20,20,0,0,1-5.25-.68,11.47,11.47,0,0,1-4.11-1.95l2.2-4a8.87,8.87,0,0,0,3,1.58,12.16,12.16,0,0,0,3.69.59,6,6,0,0,0,4.24-1.3,5.16,5.16,0,0,0,1.37-3.92v-.81a7.78,7.78,0,0,1-6,2.37,10.14,10.14,0,0,1-4.81-1.15,8.86,8.86,0,0,1-3.46-3.25,9.8,9.8,0,0,1,0-9.65,8.94,8.94,0,0,1,3.46-3.25,10.26,10.26,0,0,1,4.81-1.15,7.58,7.58,0,0,1,6.32,2.73v-2.45Zm-6.86,12.34a4.8,4.8,0,0,0,0-6.78,5.1,5.1,0,0,0-3.61-1.3,5.16,5.16,0,0,0-3.62,1.3,4.76,4.76,0,0,0,0,6.78,5.19,5.19,0,0,0,3.62,1.29A5.13,5.13,0,0,0,1494.71,746.79Z"/><path class="cls-3" d="M1526,734.45v19.1h-5.25v-2.27a7.29,7.29,0,0,1-2.63,1.89,9,9,0,0,1-9.26-1.5q-2.2-2.17-2.2-6.43V734.45h5.54v10q0,4.61,3.86,4.61a4.15,4.15,0,0,0,3.2-1.3,5.47,5.47,0,0,0,1.21-3.85v-9.44Z"/><path class="cls-3" d="M1548.43,736.3q2.19,2.13,2.19,6.32v10.93h-5.54V743.47a5,5,0,0,0-1-3.39,3.64,3.64,0,0,0-2.88-1.12,4.37,4.37,0,0,0-3.33,1.3,5.34,5.34,0,0,0-1.25,3.85v9.44h-5.53v-19.1h5.29v2.24a7.25,7.25,0,0,1,2.73-1.86,9.46,9.46,0,0,1,3.58-.66A7.84,7.84,0,0,1,1548.43,736.3Z"/><path class="cls-3" d="M1567.93,752.62a5.5,5.5,0,0,1-2,.91,10.19,10.19,0,0,1-2.5.3,7.43,7.43,0,0,1-5.27-1.74,6.66,6.66,0,0,1-1.87-5.11v-7.84h-2.94v-4.26h2.94v-4.65h5.54v4.65h4.75v4.26h-4.75v7.77a2.61,2.61,0,0,0,.62,1.86,2.29,2.29,0,0,0,1.76.66,3.56,3.56,0,0,0,2.23-.71Z"/><path class="cls-3" d="M1585.57,736.28q2.39,2.12,2.38,6.37v10.9h-5.18v-2.38q-1.56,2.66-5.82,2.66a9.17,9.17,0,0,1-3.82-.74,5.72,5.72,0,0,1-2.46-2.06,5.36,5.36,0,0,1-.86-3,5,5,0,0,1,2-4.19q2-1.53,6.19-1.53h4.4a3.54,3.54,0,0,0-1.1-2.78,4.84,4.84,0,0,0-3.3-1,9.61,9.61,0,0,0-3,.48,7.88,7.88,0,0,0-2.5,1.3l-2-3.87a12,12,0,0,1,3.75-1.71,16.82,16.82,0,0,1,4.49-.6C1581.71,734.17,1584,734.88,1585.57,736.28Zm-4.72,13.17a3.61,3.61,0,0,0,1.56-1.94v-2h-3.79c-2.28,0-3.41.75-3.41,2.24a2,2,0,0,0,.83,1.68,3.73,3.73,0,0,0,2.29.62A4.78,4.78,0,0,0,1580.85,749.45Z"/><path class="cls-3" d="M1600.92,734.88a10,10,0,0,1,3.89-.71v5.11c-.62,0-1-.07-1.25-.07a5.06,5.06,0,0,0-3.72,1.33,5.38,5.38,0,0,0-1.35,4v9H1593v-19.1h5.29V737A6.15,6.15,0,0,1,1600.92,734.88Z"/><path class="cls-3" d="M1612.47,747.89a3.28,3.28,0,0,1,1,2.46,5.7,5.7,0,0,1-.18,1.42,15.9,15.9,0,0,1-.78,2.13l-2,5.11h-3.52l1.57-5.64a3,3,0,0,1-1.41-1.15,3.43,3.43,0,0,1-.51-1.87,3.26,3.26,0,0,1,1-2.46A3.39,3.39,0,0,1,1610,747,3.33,3.33,0,0,1,1612.47,747.89Z"/><path class="cls-3" d="M1645.83,745.56h-14.45a4.51,4.51,0,0,0,1.85,2.81,6.16,6.16,0,0,0,3.62,1,7.24,7.24,0,0,0,2.64-.44,6.27,6.27,0,0,0,2.15-1.4l2.95,3.19q-2.7,3.09-7.88,3.09a12.48,12.48,0,0,1-5.72-1.26,9.26,9.26,0,0,1-3.83-3.49,9.67,9.67,0,0,1-1.35-5.08,9.85,9.85,0,0,1,1.33-5.06,9.36,9.36,0,0,1,3.66-3.51,10.73,10.73,0,0,1,5.2-1.26,10.55,10.55,0,0,1,5.07,1.21,8.68,8.68,0,0,1,3.57,3.46,10.32,10.32,0,0,1,1.29,5.23C1645.93,744.14,1645.9,744.64,1645.83,745.56Zm-12.95-6.14a4.51,4.51,0,0,0-1.57,2.91h9.41a4.59,4.59,0,0,0-1.56-2.89,5.14,5.14,0,0,0-6.28,0Z"/><path class="cls-3" d="M1651.4,753.25a12.5,12.5,0,0,1-3.62-1.48l1.84-4a11.89,11.89,0,0,0,3.09,1.33,13.07,13.07,0,0,0,3.55.51c2.34,0,3.52-.58,3.52-1.74a1.24,1.24,0,0,0-1-1.17,15,15,0,0,0-3-.6,28.67,28.67,0,0,1-3.87-.82,5.93,5.93,0,0,1-2.64-1.63,4.61,4.61,0,0,1-1.12-3.33,5.24,5.24,0,0,1,1-3.22,6.75,6.75,0,0,1,3-2.18,13.08,13.08,0,0,1,4.74-.78,19,19,0,0,1,4,.44,11.35,11.35,0,0,1,3.31,1.23l-1.84,3.94a11,11,0,0,0-5.5-1.42,5.59,5.59,0,0,0-2.66.49,1.46,1.46,0,0,0-.89,1.28,1.28,1.28,0,0,0,1,1.25,17.28,17.28,0,0,0,3,.67,33.77,33.77,0,0,1,3.83.83,5.76,5.76,0,0,1,2.59,1.62,4.55,4.55,0,0,1,1.1,3.26,5,5,0,0,1-1.06,3.16,6.85,6.85,0,0,1-3.11,2.15,13.78,13.78,0,0,1-4.84.76A18.52,18.52,0,0,1,1651.4,753.25Z"/><path class="cls-3" d="M1684.6,735.39a8.86,8.86,0,0,1,3.42,3.45,11.36,11.36,0,0,1,0,10.32,8.86,8.86,0,0,1-3.42,3.45,9.81,9.81,0,0,1-4.85,1.22,7.35,7.35,0,0,1-6-2.48v2.2h-5.29V727.21H1674v9.27a7.39,7.39,0,0,1,5.75-2.31A9.81,9.81,0,0,1,1684.6,735.39Zm-2.31,12.46a6.09,6.09,0,0,0,0-7.7,5,5,0,0,0-7,0,6.09,6.09,0,0,0,0,7.7,5,5,0,0,0,7,0Z"/><path class="cls-3" d="M1696.63,752.57a9.36,9.36,0,0,1-3.75-3.49,10.28,10.28,0,0,1,0-10.15,9.38,9.38,0,0,1,3.75-3.5,11.45,11.45,0,0,1,5.41-1.26,11.31,11.31,0,0,1,5.39,1.26,9.39,9.39,0,0,1,3.73,3.5,10.21,10.21,0,0,1,0,10.15,9.37,9.37,0,0,1-3.73,3.49,11.31,11.31,0,0,1-5.39,1.26A11.45,11.45,0,0,1,1696.63,752.57Zm8.91-4.72a6.13,6.13,0,0,0,0-7.7,5,5,0,0,0-7,0,6,6,0,0,0,0,7.7,5,5,0,0,0,7,0Z"/><path class="cls-3" d="M1719.94,752.57a9.4,9.4,0,0,1-3.79-3.49,10.08,10.08,0,0,1,0-10.15,9.43,9.43,0,0,1,3.79-3.5,11.75,11.75,0,0,1,5.49-1.26,10.65,10.65,0,0,1,5.27,1.26A7.5,7.5,0,0,1,1734,739l-4.3,2.31a4.69,4.69,0,0,0-4.29-2.63,4.87,4.87,0,0,0-3.58,1.42,6,6,0,0,0,0,7.74,4.83,4.83,0,0,0,3.58,1.42,4.65,4.65,0,0,0,4.29-2.63L1734,749a7.62,7.62,0,0,1-3.28,3.55,10.44,10.44,0,0,1-5.27,1.28A11.75,11.75,0,0,1,1719.94,752.57Zm1.65,9a5.28,5.28,0,0,1-1.49-.54l.86-2.38a5.4,5.4,0,0,0,2.3.53c1.23,0,1.85-.38,1.85-1.14s-.58-1-1.74-1h-1.21l.92-3.76h3l-.5,2.06a3.67,3.67,0,0,1,2.33,1,2.73,2.73,0,0,1,.76,2,2.94,2.94,0,0,1-1.42,2.57,6.77,6.77,0,0,1-3.8.94A8.44,8.44,0,0,1,1721.59,761.58Z"/><path class="cls-3" d="M1751.69,736.28q2.37,2.12,2.37,6.37v10.9h-5.18v-2.38q-1.56,2.66-5.82,2.66a9.12,9.12,0,0,1-3.81-.74,5.75,5.75,0,0,1-2.47-2.06,5.35,5.35,0,0,1-.85-3,5,5,0,0,1,2-4.19c1.33-1,3.4-1.53,6.19-1.53h4.4a3.54,3.54,0,0,0-1.1-2.78,4.87,4.87,0,0,0-3.3-1,9.61,9.61,0,0,0-3,.48,7.78,7.78,0,0,0-2.5,1.3l-2-3.87a12,12,0,0,1,3.74-1.71,16.88,16.88,0,0,1,4.49-.6C1747.83,734.17,1750.1,734.88,1751.69,736.28ZM1747,749.45a3.61,3.61,0,0,0,1.56-1.94v-2h-3.8c-2.27,0-3.41.75-3.41,2.24a2,2,0,0,0,.84,1.68,3.71,3.71,0,0,0,2.29.62A4.83,4.83,0,0,0,1747,749.45Z"/><path class="cls-3" d="M1767,734.88a10,10,0,0,1,3.88-.71v5.11c-.61,0-1-.07-1.24-.07a5.07,5.07,0,0,0-3.73,1.33,5.38,5.38,0,0,0-1.35,4v9h-5.53v-19.1h5.29V737A6.1,6.1,0,0,1,1767,734.88Z"/><path class="cls-3" d="M1331.31,597.71h5.75v24.84h-5.75Z"/><path class="cls-3" d="M1342.56,596.21h5.54v26.34h-5.54Z"/><path class="cls-3" d="M1372.48,603.45v19.1h-5.26v-2.27a7.34,7.34,0,0,1-2.62,1.89,9.06,9.06,0,0,1-9.27-1.5c-1.46-1.45-2.2-3.59-2.2-6.43V603.45h5.54v10q0,4.61,3.87,4.61a4.13,4.13,0,0,0,3.19-1.3,5.42,5.42,0,0,0,1.21-3.85v-9.44Z"/><path class="cls-3" d="M1379.4,622.25a12.27,12.27,0,0,1-3.62-1.48l1.84-4a11.6,11.6,0,0,0,3.09,1.33,13.07,13.07,0,0,0,3.55.51q3.51,0,3.51-1.74a1.24,1.24,0,0,0-1-1.17,15,15,0,0,0-2.94-.6,28.67,28.67,0,0,1-3.87-.82,5.88,5.88,0,0,1-2.64-1.63,4.61,4.61,0,0,1-1.12-3.33,5.3,5.3,0,0,1,1-3.22,6.78,6.78,0,0,1,3.06-2.18,13,13,0,0,1,4.73-.78,19,19,0,0,1,4,.44,11.42,11.42,0,0,1,3.32,1.23l-1.85,3.94a11,11,0,0,0-5.5-1.42,5.62,5.62,0,0,0-2.66.49,1.47,1.47,0,0,0-.88,1.28,1.27,1.27,0,0,0,1,1.25,17.44,17.44,0,0,0,3.06.67,34.26,34.26,0,0,1,3.83.83,5.87,5.87,0,0,1,2.59,1.62,4.59,4.59,0,0,1,1.1,3.26,5,5,0,0,1-1.07,3.16,6.82,6.82,0,0,1-3.1,2.15,13.84,13.84,0,0,1-4.85.76A18.5,18.5,0,0,1,1379.4,622.25Z"/><path class="cls-3" d="M1408.78,621.62a5.48,5.48,0,0,1-2,.91,10.13,10.13,0,0,1-2.5.3,7.45,7.45,0,0,1-5.27-1.74,6.66,6.66,0,0,1-1.86-5.11v-7.84h-3v-4.26h3v-4.65h5.54v4.65h4.75v4.26h-4.75v7.77a2.57,2.57,0,0,0,.62,1.86,2.28,2.28,0,0,0,1.75.66,3.59,3.59,0,0,0,2.24-.71Z"/><path class="cls-3" d="M1419.87,603.88a10,10,0,0,1,3.89-.71v5.11c-.62,0-1-.07-1.25-.07a5.06,5.06,0,0,0-3.72,1.33,5.38,5.38,0,0,0-1.35,4v9h-5.54v-19.1h5.29V606A6.15,6.15,0,0,1,1419.87,603.88Z"/><path class="cls-3" d="M1441.46,605.28q2.38,2.12,2.38,6.37v10.9h-5.18v-2.38q-1.56,2.66-5.82,2.66a9.09,9.09,0,0,1-3.81-.74,5.75,5.75,0,0,1-2.47-2.06,5.35,5.35,0,0,1-.85-3,5,5,0,0,1,2-4.19c1.34-1,3.4-1.53,6.2-1.53h4.4a3.54,3.54,0,0,0-1.1-2.78,4.87,4.87,0,0,0-3.3-1,9.61,9.61,0,0,0-3,.48,7.83,7.83,0,0,0-2.51,1.3l-2-3.87a12,12,0,0,1,3.74-1.71,16.88,16.88,0,0,1,4.49-.6C1437.61,603.17,1439.88,603.88,1441.46,605.28Zm-4.72,13.17a3.58,3.58,0,0,0,1.57-1.94v-2h-3.8c-2.27,0-3.41.75-3.41,2.24a2,2,0,0,0,.84,1.68,3.68,3.68,0,0,0,2.28.62A4.78,4.78,0,0,0,1436.74,618.45Z"/><path class="cls-3" d="M1456.81,603.88a10,10,0,0,1,3.89-.71v5.11c-.62,0-1-.07-1.24-.07a5.07,5.07,0,0,0-3.73,1.33,5.38,5.38,0,0,0-1.35,4v9h-5.54v-19.1h5.29V606A6.15,6.15,0,0,1,1456.81,603.88Z"/><path class="cls-3" d="M1468.36,616.89a3.28,3.28,0,0,1,1,2.46,5.7,5.7,0,0,1-.18,1.42,13.47,13.47,0,0,1-.78,2.13l-2,5.11h-3.51l1.56-5.64a2.93,2.93,0,0,1-1.4-1.15,3.35,3.35,0,0,1-.52-1.87,3.26,3.26,0,0,1,1-2.46,3.4,3.4,0,0,1,2.47-.94A3.32,3.32,0,0,1,1468.36,616.89Z"/><path class="cls-3" d="M1491.09,603.88a10,10,0,0,1,3.89-.71v5.11c-.62,0-1-.07-1.24-.07a5.07,5.07,0,0,0-3.73,1.33,5.38,5.38,0,0,0-1.35,4v9h-5.54v-19.1h5.29V606A6.21,6.21,0,0,1,1491.09,603.88Z"/><path class="cls-3" d="M1516.7,614.56h-14.45a4.51,4.51,0,0,0,1.85,2.81,6.16,6.16,0,0,0,3.62,1,7.24,7.24,0,0,0,2.64-.44,6.27,6.27,0,0,0,2.15-1.4l3,3.19q-2.7,3.09-7.88,3.09a12.48,12.48,0,0,1-5.72-1.26,9.26,9.26,0,0,1-3.83-3.49,9.67,9.67,0,0,1-1.35-5.08,9.85,9.85,0,0,1,1.33-5.06,9.36,9.36,0,0,1,3.66-3.51,10.73,10.73,0,0,1,5.2-1.26,10.55,10.55,0,0,1,5.07,1.21,8.74,8.74,0,0,1,3.57,3.46,10.32,10.32,0,0,1,1.29,5.23C1516.8,613.14,1516.77,613.64,1516.7,614.56Zm-13-6.14a4.54,4.54,0,0,0-1.56,2.91h9.41a4.59,4.59,0,0,0-1.56-2.89,4.71,4.71,0,0,0-3.13-1.08A4.79,4.79,0,0,0,1503.74,608.42Z"/><path class="cls-3" d="M1536.62,604.39a8.82,8.82,0,0,1,3.43,3.45,11.36,11.36,0,0,1,0,10.32,8.82,8.82,0,0,1-3.43,3.45,9.78,9.78,0,0,1-4.84,1.22,7.37,7.37,0,0,1-5.75-2.31v8.91h-5.54v-26h5.29v2.2a7.36,7.36,0,0,1,6-2.48A9.78,9.78,0,0,1,1536.62,604.39Zm-2.3,12.46a6.13,6.13,0,0,0,0-7.7,5,5,0,0,0-7,0,6.09,6.09,0,0,0,0,7.7,5,5,0,0,0,7,0Z"/><path class="cls-3" d="M1553,603.88a10,10,0,0,1,3.88-.71v5.11c-.61,0-1-.07-1.24-.07a5,5,0,0,0-3.72,1.33,5.38,5.38,0,0,0-1.35,4v9H1545v-19.1h5.29V606A6.1,6.1,0,0,1,1553,603.88Z"/><path class="cls-3" d="M1578.55,614.56h-14.44a4.47,4.47,0,0,0,1.85,2.81,6.11,6.11,0,0,0,3.61,1,7.25,7.25,0,0,0,2.65-.44,6.37,6.37,0,0,0,2.15-1.4l2.94,3.19c-1.8,2.06-4.42,3.09-7.88,3.09a12.47,12.47,0,0,1-5.71-1.26,9.2,9.2,0,0,1-3.83-3.49,10.26,10.26,0,0,1,0-10.14,9.33,9.33,0,0,1,3.65-3.51,10.75,10.75,0,0,1,5.2-1.26,10.62,10.62,0,0,1,5.08,1.21,8.72,8.72,0,0,1,3.56,3.46,10.23,10.23,0,0,1,1.3,5.23C1578.66,613.14,1578.62,613.64,1578.55,614.56Zm-13-6.14a4.54,4.54,0,0,0-1.56,2.91h9.4a4.59,4.59,0,0,0-1.56-2.89,4.66,4.66,0,0,0-3.12-1.08A4.75,4.75,0,0,0,1565.6,608.42Z"/><path class="cls-3" d="M1584.12,622.25a12.5,12.5,0,0,1-3.62-1.48l1.85-4a11.6,11.6,0,0,0,3.09,1.33,13,13,0,0,0,3.55.51q3.51,0,3.51-1.74a1.24,1.24,0,0,0-1-1.17,15,15,0,0,0-2.94-.6,28.34,28.34,0,0,1-3.87-.82,6,6,0,0,1-2.65-1.63,4.65,4.65,0,0,1-1.11-3.33,5.24,5.24,0,0,1,1-3.22,6.81,6.81,0,0,1,3-2.18,13.08,13.08,0,0,1,4.74-.78,19,19,0,0,1,4,.44,11.42,11.42,0,0,1,3.32,1.23l-1.85,3.94a11,11,0,0,0-5.5-1.42,5.62,5.62,0,0,0-2.66.49,1.48,1.48,0,0,0-.89,1.28,1.28,1.28,0,0,0,1,1.25,17.5,17.5,0,0,0,3,.67,34,34,0,0,1,3.84.83,5.87,5.87,0,0,1,2.59,1.62,4.59,4.59,0,0,1,1.1,3.26,5,5,0,0,1-1.07,3.16,6.82,6.82,0,0,1-3.1,2.15,13.84,13.84,0,0,1-4.85.76A18.63,18.63,0,0,1,1584.12,622.25Z"/><path class="cls-3" d="M1619.79,614.56h-14.44a4.5,4.5,0,0,0,1.84,2.81,6.16,6.16,0,0,0,3.62,1,7.29,7.29,0,0,0,2.65-.44,6.33,6.33,0,0,0,2.14-1.4l3,3.19q-2.7,3.09-7.88,3.09a12.44,12.44,0,0,1-5.71-1.26,9.23,9.23,0,0,1-3.84-3.49,10.23,10.23,0,0,1,0-10.14,9.27,9.27,0,0,1,3.65-3.51,10.73,10.73,0,0,1,5.2-1.26,10.55,10.55,0,0,1,5.07,1.21,8.68,8.68,0,0,1,3.57,3.46,10.33,10.33,0,0,1,1.3,5.23C1619.9,613.14,1619.86,613.64,1619.79,614.56Zm-13-6.14a4.51,4.51,0,0,0-1.57,2.91h9.41a4.59,4.59,0,0,0-1.56-2.89,4.68,4.68,0,0,0-3.12-1.08A4.75,4.75,0,0,0,1606.84,608.42Z"/><path class="cls-3" d="M1640.92,605.3c1.46,1.42,2.18,3.53,2.18,6.32v10.93h-5.53V612.47a5,5,0,0,0-1-3.39,3.66,3.66,0,0,0-2.88-1.12,4.39,4.39,0,0,0-3.34,1.3,5.38,5.38,0,0,0-1.24,3.85v9.44h-5.53v-19.1h5.28v2.24a7.36,7.36,0,0,1,2.74-1.86,9.43,9.43,0,0,1,3.58-.66A7.84,7.84,0,0,1,1640.92,605.3Z"/><path class="cls-3" d="M1660.42,621.62a5.5,5.5,0,0,1-2,.91,10.25,10.25,0,0,1-2.5.3,7.41,7.41,0,0,1-5.27-1.74,6.63,6.63,0,0,1-1.87-5.11v-7.84h-2.94v-4.26h2.94v-4.65h5.54v4.65h4.75v4.26h-4.75v7.77a2.61,2.61,0,0,0,.62,1.86,2.29,2.29,0,0,0,1.76.66,3.56,3.56,0,0,0,2.23-.71Z"/><path class="cls-3" d="M1678.06,605.28c1.58,1.41,2.38,3.53,2.38,6.37v10.9h-5.18v-2.38c-1,1.77-3,2.66-5.82,2.66a9.17,9.17,0,0,1-3.82-.74,5.67,5.67,0,0,1-2.46-2.06,5.36,5.36,0,0,1-.86-3,5,5,0,0,1,2-4.19c1.33-1,3.4-1.53,6.19-1.53h4.4a3.54,3.54,0,0,0-1.1-2.78,4.84,4.84,0,0,0-3.3-1,9.61,9.61,0,0,0-3,.48,7.88,7.88,0,0,0-2.5,1.3l-2-3.87a12,12,0,0,1,3.75-1.71,16.82,16.82,0,0,1,4.49-.6C1674.2,603.17,1676.47,603.88,1678.06,605.28Zm-4.72,13.17a3.61,3.61,0,0,0,1.56-1.94v-2h-3.8c-2.27,0-3.4.75-3.4,2.24a2,2,0,0,0,.83,1.68,3.73,3.73,0,0,0,2.29.62A4.78,4.78,0,0,0,1673.34,618.45Z"/><path class="cls-3" d="M1693.41,603.88a10,10,0,0,1,3.88-.71v5.11c-.61,0-1-.07-1.24-.07a5,5,0,0,0-3.72,1.33,5.38,5.38,0,0,0-1.35,4v9h-5.54v-19.1h5.29V606A6.1,6.1,0,0,1,1693.41,603.88Z"/><path class="cls-3" d="M1236.31,453.71h5.75v24.84h-5.75Z"/><path class="cls-3" d="M1264.9,461.3q2.17,2.13,2.18,6.32v10.93h-5.54V468.47a5,5,0,0,0-1-3.39,3.63,3.63,0,0,0-2.88-1.12,4.38,4.38,0,0,0-3.33,1.3,5.34,5.34,0,0,0-1.24,3.85v9.44h-5.54v-19.1h5.29v2.24a7.25,7.25,0,0,1,2.73-1.86,9.46,9.46,0,0,1,3.58-.66A7.88,7.88,0,0,1,1264.9,461.3Z"/><path class="cls-3" d="M1290.68,459.45l-8.06,19.1h-5.71l-8-19.1h5.71l5.29,13,5.46-13Z"/><path class="cls-3" d="M1311,470.56h-14.44a4.5,4.5,0,0,0,1.84,2.81,6.16,6.16,0,0,0,3.62,1,7.25,7.25,0,0,0,2.65-.44,6.23,6.23,0,0,0,2.14-1.4l3,3.19c-1.8,2.06-4.42,3.09-7.88,3.09a12.44,12.44,0,0,1-5.71-1.26,9.14,9.14,0,0,1-3.83-3.49,10.26,10.26,0,0,1,0-10.14,9.27,9.27,0,0,1,3.65-3.51,10.75,10.75,0,0,1,5.2-1.26,10.62,10.62,0,0,1,5.08,1.21,8.72,8.72,0,0,1,3.56,3.46,10.23,10.23,0,0,1,1.3,5.23C1311.12,469.14,1311.08,469.64,1311,470.56Zm-13-6.14a4.54,4.54,0,0,0-1.56,2.91h9.4a4.59,4.59,0,0,0-1.56-2.89,4.66,4.66,0,0,0-3.12-1.08A4.75,4.75,0,0,0,1298.06,464.42Z"/><path class="cls-3" d="M1316.58,478.25a12.5,12.5,0,0,1-3.62-1.48l1.85-4a11.6,11.6,0,0,0,3.09,1.33,13,13,0,0,0,3.55.51q3.51,0,3.51-1.74a1.24,1.24,0,0,0-1-1.17,15,15,0,0,0-3-.6,28.16,28.16,0,0,1-3.86-.82,6,6,0,0,1-2.65-1.63,4.65,4.65,0,0,1-1.12-3.33,5.24,5.24,0,0,1,1-3.22,6.81,6.81,0,0,1,3-2.18,13.08,13.08,0,0,1,4.74-.78,19,19,0,0,1,4,.44,11.42,11.42,0,0,1,3.32,1.23l-1.85,3.94a11,11,0,0,0-5.5-1.42,5.62,5.62,0,0,0-2.66.49,1.48,1.48,0,0,0-.89,1.28,1.28,1.28,0,0,0,1,1.25,17.5,17.5,0,0,0,3,.67,34.51,34.51,0,0,1,3.84.83,5.87,5.87,0,0,1,2.59,1.62,4.59,4.59,0,0,1,1.1,3.26,5,5,0,0,1-1.07,3.16,6.82,6.82,0,0,1-3.1,2.15,13.84,13.84,0,0,1-4.85.76A18.63,18.63,0,0,1,1316.58,478.25Z"/><path class="cls-3" d="M1346,477.62a5.63,5.63,0,0,1-2,.91,10.19,10.19,0,0,1-2.5.3,7.43,7.43,0,0,1-5.27-1.74,6.66,6.66,0,0,1-1.86-5.11v-7.84h-2.95v-4.26h2.95v-4.65h5.53v4.65h4.76v4.26h-4.76v7.77a2.61,2.61,0,0,0,.62,1.86,2.31,2.31,0,0,0,1.76.66,3.59,3.59,0,0,0,2.24-.71Z"/><path class="cls-3" d="M1349.37,455.91a3,3,0,0,1,0-4.41,3.53,3.53,0,0,1,2.49-.88,3.59,3.59,0,0,1,2.48.85,2.74,2.74,0,0,1,1,2.13,3,3,0,0,1-1,2.29,3.49,3.49,0,0,1-2.48.9A3.53,3.53,0,0,1,1349.37,455.91Zm-.28,3.54h5.53v19.1h-5.53Z"/><path class="cls-3" d="M1379.47,459.45v15.9c0,3.5-.91,6.11-2.74,7.81s-4.48,2.56-8,2.56a19.87,19.87,0,0,1-5.25-.68,11.52,11.52,0,0,1-4.12-2l2.2-4a8.87,8.87,0,0,0,3.05,1.58,12.16,12.16,0,0,0,3.69.59,6,6,0,0,0,4.24-1.3,5.16,5.16,0,0,0,1.37-3.92v-.81a7.75,7.75,0,0,1-6,2.37,10.11,10.11,0,0,1-4.81-1.15,8.73,8.73,0,0,1-3.46-3.25,9.73,9.73,0,0,1,0-9.65,8.8,8.8,0,0,1,3.46-3.25,10.23,10.23,0,0,1,4.81-1.15,7.56,7.56,0,0,1,6.31,2.73v-2.45Zm-6.87,12.34a4.8,4.8,0,0,0,0-6.78,5.66,5.66,0,0,0-7.22,0,4.76,4.76,0,0,0,0,6.78,5.7,5.7,0,0,0,7.22,0Z"/><path class="cls-3" d="M1399.13,461.28q2.37,2.12,2.37,6.37v10.9h-5.18v-2.38q-1.56,2.65-5.82,2.66a9.12,9.12,0,0,1-3.81-.74,5.75,5.75,0,0,1-2.47-2.06,5.35,5.35,0,0,1-.85-3,5,5,0,0,1,2-4.19c1.33-1,3.4-1.53,6.19-1.53h4.4a3.54,3.54,0,0,0-1.1-2.78,4.85,4.85,0,0,0-3.3-1,9.61,9.61,0,0,0-3,.48,7.78,7.78,0,0,0-2.5,1.3l-2-3.87a12,12,0,0,1,3.74-1.71,16.93,16.93,0,0,1,4.49-.6C1395.27,459.17,1397.54,459.88,1399.13,461.28Zm-4.72,13.17a3.61,3.61,0,0,0,1.56-1.94v-1.95h-3.8c-2.27,0-3.41.75-3.41,2.24a2,2,0,0,0,.84,1.68,3.71,3.71,0,0,0,2.29.62A4.83,4.83,0,0,0,1394.41,474.45Z"/><path class="cls-3" d="M1414.48,459.88a10,10,0,0,1,3.88-.71v5.11c-.61,0-1-.07-1.24-.07a5.07,5.07,0,0,0-3.73,1.33,5.38,5.38,0,0,0-1.35,4v9h-5.53v-19.1h5.29V462A6.1,6.1,0,0,1,1414.48,459.88Z"/><path class="cls-3" d="M1426,472.89a3.28,3.28,0,0,1,1,2.46,5.69,5.69,0,0,1-.17,1.42,15.9,15.9,0,0,1-.78,2.13l-2,5.11h-3.51l1.56-5.64a2.93,2.93,0,0,1-1.4-1.15,3.43,3.43,0,0,1-.51-1.87,3.25,3.25,0,0,1,1-2.46,3.4,3.4,0,0,1,2.47-.94A3.35,3.35,0,0,1,1426,472.89Z"/><path class="cls-3" d="M1444.46,477.57a9.33,9.33,0,0,1-3.74-3.49,10.21,10.21,0,0,1,0-10.15,9.36,9.36,0,0,1,3.74-3.5,12.22,12.22,0,0,1,10.81,0,9.43,9.43,0,0,1,3.72,3.5,10.21,10.21,0,0,1,0,10.15,9.41,9.41,0,0,1-3.72,3.49,12.22,12.22,0,0,1-10.81,0Zm8.91-4.72a6.09,6.09,0,0,0,0-7.7,5,5,0,0,0-7,0,6.06,6.06,0,0,0,0,7.7,5,5,0,0,0,7,0Z"/><path class="cls-3" d="M1472,459.88a10,10,0,0,1,3.89-.71v5.11c-.62,0-1-.07-1.25-.07a5.06,5.06,0,0,0-3.72,1.33,5.38,5.38,0,0,0-1.35,4v9H1464v-19.1h5.29V462A6.15,6.15,0,0,1,1472,459.88Z"/><path class="cls-3" d="M1498.46,452.21v26.34h-5.29v-2.2a7.31,7.31,0,0,1-6,2.48,9.84,9.84,0,0,1-4.88-1.21,8.6,8.6,0,0,1-3.43-3.44,11.44,11.44,0,0,1,0-10.36,8.6,8.6,0,0,1,3.43-3.44,9.84,9.84,0,0,1,4.88-1.21,7.26,7.26,0,0,1,5.71,2.31v-9.27Zm-6.82,20.64a6,6,0,0,0,0-7.7,4.61,4.61,0,0,0-3.47-1.44,4.69,4.69,0,0,0-3.52,1.44,6.06,6.06,0,0,0,0,7.7,4.69,4.69,0,0,0,3.52,1.44A4.61,4.61,0,0,0,1491.64,472.85Z"/><path class="cls-3" d="M1522.16,470.56h-14.44a4.5,4.5,0,0,0,1.84,2.81,6.16,6.16,0,0,0,3.62,1,7.25,7.25,0,0,0,2.65-.44,6.23,6.23,0,0,0,2.14-1.4l3,3.19c-1.8,2.06-4.42,3.09-7.88,3.09a12.44,12.44,0,0,1-5.71-1.26,9.14,9.14,0,0,1-3.83-3.49,10.26,10.26,0,0,1,0-10.14,9.33,9.33,0,0,1,3.65-3.51,10.75,10.75,0,0,1,5.2-1.26,10.62,10.62,0,0,1,5.08,1.21,8.72,8.72,0,0,1,3.56,3.46,10.23,10.23,0,0,1,1.3,5.23C1522.27,469.14,1522.23,469.64,1522.16,470.56Zm-13-6.14a4.54,4.54,0,0,0-1.56,2.91h9.4a4.59,4.59,0,0,0-1.56-2.89,4.66,4.66,0,0,0-3.12-1.08A4.75,4.75,0,0,0,1509.21,464.42Z"/><path class="cls-3" d="M1543.29,461.3q2.19,2.13,2.19,6.32v10.93h-5.54V468.47a5,5,0,0,0-1-3.39,3.63,3.63,0,0,0-2.88-1.12,4.38,4.38,0,0,0-3.33,1.3,5.34,5.34,0,0,0-1.24,3.85v9.44H1526v-19.1h5.29v2.24a7.25,7.25,0,0,1,2.73-1.86,9.46,9.46,0,0,1,3.58-.66A7.84,7.84,0,0,1,1543.29,461.3Z"/><path class="cls-3" d="M1565,461.28q2.37,2.12,2.37,6.37v10.9h-5.18v-2.38q-1.56,2.65-5.82,2.66a9.09,9.09,0,0,1-3.81-.74,5.75,5.75,0,0,1-2.47-2.06,5.35,5.35,0,0,1-.85-3,5,5,0,0,1,2-4.19c1.34-1,3.4-1.53,6.2-1.53h4.4a3.54,3.54,0,0,0-1.1-2.78,4.87,4.87,0,0,0-3.3-1,9.61,9.61,0,0,0-3,.48,7.78,7.78,0,0,0-2.5,1.3l-2-3.87a12,12,0,0,1,3.74-1.71,16.88,16.88,0,0,1,4.49-.6C1561.14,459.17,1563.41,459.88,1565,461.28Zm-4.72,13.17a3.61,3.61,0,0,0,1.56-1.94v-1.95H1558c-2.27,0-3.41.75-3.41,2.24a2,2,0,0,0,.84,1.68,3.71,3.71,0,0,0,2.29.62A4.83,4.83,0,0,0,1560.28,474.45Z"/><path class="cls-3" d="M1580.34,459.88a10,10,0,0,1,3.89-.71v5.11c-.62,0-1-.07-1.24-.07a5.07,5.07,0,0,0-3.73,1.33,5.38,5.38,0,0,0-1.35,4v9h-5.53v-19.1h5.28V462A6.21,6.21,0,0,1,1580.34,459.88Z"/><path class="cls-3" d="M1162.14,348.55l-4.79-6.92h-5.29v6.92h-5.75V323.71h10.75a13.69,13.69,0,0,1,5.73,1.1,8.47,8.47,0,0,1,3.75,3.12,8.64,8.64,0,0,1,1.31,4.79,8.09,8.09,0,0,1-5.11,7.84l5.57,8Zm-1.46-19a6,6,0,0,0-3.94-1.12h-4.68v8.66h4.68a6,6,0,0,0,3.94-1.14,4.47,4.47,0,0,0,0-6.4Z"/><path class="cls-3" d="M1190.6,340.56h-14.44a4.5,4.5,0,0,0,1.84,2.81,6.16,6.16,0,0,0,3.62,1,7.2,7.2,0,0,0,2.64-.44,6.27,6.27,0,0,0,2.15-1.4l2.95,3.19q-2.7,3.09-7.88,3.09a12.51,12.51,0,0,1-5.72-1.26,9.26,9.26,0,0,1-3.83-3.49,10.23,10.23,0,0,1,0-10.14,9.27,9.27,0,0,1,3.65-3.51,10.73,10.73,0,0,1,5.2-1.26,10.55,10.55,0,0,1,5.07,1.21,8.68,8.68,0,0,1,3.57,3.46,10.33,10.33,0,0,1,1.3,5.23C1190.71,339.14,1190.67,339.64,1190.6,340.56Zm-12.95-6.14a4.51,4.51,0,0,0-1.57,2.91h9.41a4.59,4.59,0,0,0-1.56-2.89,4.69,4.69,0,0,0-3.13-1.08A4.74,4.74,0,0,0,1177.65,334.42Z"/><path class="cls-3" d="M1198.14,347.57a9.43,9.43,0,0,1-3.8-3.49,10.15,10.15,0,0,1,0-10.15,9.45,9.45,0,0,1,3.8-3.5,11.74,11.74,0,0,1,5.48-1.26,10.62,10.62,0,0,1,5.27,1.26,7.52,7.52,0,0,1,3.29,3.6l-4.3,2.31a4.69,4.69,0,0,0-4.29-2.63,4.89,4.89,0,0,0-3.59,1.42,6,6,0,0,0,0,7.74,4.85,4.85,0,0,0,3.59,1.42,4.65,4.65,0,0,0,4.29-2.63l4.3,2.34a7.64,7.64,0,0,1-3.29,3.55,10.42,10.42,0,0,1-5.27,1.28A11.74,11.74,0,0,1,1198.14,347.57Z"/><path class="cls-3" d="M1218.79,347.57a9.4,9.4,0,0,1-3.74-3.49,10.21,10.21,0,0,1,0-10.15,9.42,9.42,0,0,1,3.74-3.5,11.46,11.46,0,0,1,5.42-1.26,11.34,11.34,0,0,1,5.39,1.26,9.46,9.46,0,0,1,3.73,3.5,10.28,10.28,0,0,1,0,10.15,9.44,9.44,0,0,1-3.73,3.49,11.34,11.34,0,0,1-5.39,1.26A11.46,11.46,0,0,1,1218.79,347.57Zm8.91-4.72a6.09,6.09,0,0,0,0-7.7,4.61,4.61,0,0,0-3.49-1.44,4.69,4.69,0,0,0-3.52,1.44,6.06,6.06,0,0,0,0,7.7,4.69,4.69,0,0,0,3.52,1.44A4.61,4.61,0,0,0,1227.7,342.85Z"/><path class="cls-3" d="M1268.51,331.28q2.12,2.12,2.11,6.34v10.93h-5.53V338.47a5.19,5.19,0,0,0-.94-3.39,3.3,3.3,0,0,0-2.68-1.12,4,4,0,0,0-3.09,1.26,5.41,5.41,0,0,0-1.13,3.74v9.59h-5.54V338.47q0-4.52-3.62-4.51a3.89,3.89,0,0,0-3,1.26,5.42,5.42,0,0,0-1.14,3.74v9.59h-5.53v-19.1h5.28v2.2a7.07,7.07,0,0,1,2.61-1.84,8.71,8.71,0,0,1,3.39-.64,8.26,8.26,0,0,1,3.66.8,6.52,6.52,0,0,1,2.62,2.32,7.79,7.79,0,0,1,3-2.3,9.24,9.24,0,0,1,3.92-.82A7.72,7.72,0,0,1,1268.51,331.28Z"/><path class="cls-3" d="M1294.4,340.56H1280a4.5,4.5,0,0,0,1.84,2.81,6.16,6.16,0,0,0,3.62,1,7.25,7.25,0,0,0,2.65-.44,6.33,6.33,0,0,0,2.14-1.4l3,3.19q-2.7,3.09-7.88,3.09a12.44,12.44,0,0,1-5.71-1.26,9.23,9.23,0,0,1-3.84-3.49,10.29,10.29,0,0,1,0-10.14,9.27,9.27,0,0,1,3.65-3.51,10.73,10.73,0,0,1,5.2-1.26,10.62,10.62,0,0,1,5.08,1.21,8.72,8.72,0,0,1,3.56,3.46,10.23,10.23,0,0,1,1.3,5.23C1294.51,339.14,1294.47,339.64,1294.4,340.56Zm-13-6.14a4.54,4.54,0,0,0-1.56,2.91h9.4a4.59,4.59,0,0,0-1.56-2.89,4.66,4.66,0,0,0-3.12-1.08A4.75,4.75,0,0,0,1281.45,334.42Z"/><path class="cls-3" d="M1315.53,331.3q2.19,2.13,2.19,6.32v10.93h-5.54V338.47a5,5,0,0,0-1-3.39,3.64,3.64,0,0,0-2.88-1.12,4.37,4.37,0,0,0-3.33,1.3,5.34,5.34,0,0,0-1.25,3.85v9.44h-5.53v-19.1h5.29v2.24a7.25,7.25,0,0,1,2.73-1.86,9.46,9.46,0,0,1,3.58-.66A7.84,7.84,0,0,1,1315.53,331.3Z"/><path class="cls-3" d="M1342.38,322.21v26.34h-5.29v-2.2a7.31,7.31,0,0,1-6,2.48,9.87,9.87,0,0,1-4.88-1.21,8.52,8.52,0,0,1-3.42-3.44,11.36,11.36,0,0,1,0-10.36,8.52,8.52,0,0,1,3.42-3.44,9.87,9.87,0,0,1,4.88-1.21,7.24,7.24,0,0,1,5.71,2.31v-9.27Zm-6.81,20.64a6.06,6.06,0,0,0,0-7.7,5,5,0,0,0-7,0,6.06,6.06,0,0,0,0,7.7,5,5,0,0,0,7,0Z"/><path class="cls-3" d="M1362,331.28q2.38,2.12,2.38,6.37v10.9h-5.18v-2.38q-1.56,2.65-5.82,2.66a9.17,9.17,0,0,1-3.82-.74,5.78,5.78,0,0,1-2.46-2.06,5.35,5.35,0,0,1-.85-3,5,5,0,0,1,2-4.19q2-1.53,6.19-1.53h4.4a3.53,3.53,0,0,0-1.09-2.78,4.88,4.88,0,0,0-3.31-1,9.59,9.59,0,0,0-3,.48,7.83,7.83,0,0,0-2.51,1.3l-2-3.87a12,12,0,0,1,3.74-1.71,16.88,16.88,0,0,1,4.49-.6C1358.15,329.17,1360.42,329.88,1362,331.28Zm-4.72,13.17a3.52,3.52,0,0,0,1.56-1.94v-1.95h-3.79c-2.27,0-3.41.75-3.41,2.24a2,2,0,0,0,.83,1.68,3.73,3.73,0,0,0,2.29.62A4.78,4.78,0,0,0,1357.28,344.45Z"/><path class="cls-3" d="M1377.35,329.88a10,10,0,0,1,3.89-.71v5.11c-.62,0-1-.07-1.24-.07a5.07,5.07,0,0,0-3.73,1.33,5.38,5.38,0,0,0-1.35,4v9h-5.54v-19.1h5.29V332A6.15,6.15,0,0,1,1377.35,329.88Z"/><path class="cls-3" d="M1388.9,342.89a3.28,3.28,0,0,1,1,2.46,5.7,5.7,0,0,1-.18,1.42,13.47,13.47,0,0,1-.78,2.13l-2,5.11h-3.51l1.56-5.64a2.93,2.93,0,0,1-1.4-1.15,3.35,3.35,0,0,1-.52-1.87,3.26,3.26,0,0,1,1-2.46,3.4,3.4,0,0,1,2.47-.94A3.32,3.32,0,0,1,1388.9,342.89Z"/><path class="cls-3" d="M1416,347.62a5.48,5.48,0,0,1-2,.91,10.13,10.13,0,0,1-2.5.3,7.45,7.45,0,0,1-5.27-1.74,6.66,6.66,0,0,1-1.86-5.11v-7.84h-2.95v-4.26h2.95v-4.65h5.54v4.65h4.75v4.26h-4.75v7.77a2.57,2.57,0,0,0,.62,1.86,2.28,2.28,0,0,0,1.75.66,3.59,3.59,0,0,0,2.24-.71Z"/><path class="cls-3" d="M1437.09,340.56h-14.44a4.51,4.51,0,0,0,1.85,2.81,6.14,6.14,0,0,0,3.62,1,7.24,7.24,0,0,0,2.64-.44,6.27,6.27,0,0,0,2.15-1.4l2.94,3.19c-1.8,2.06-4.42,3.09-7.88,3.09a12.47,12.47,0,0,1-5.71-1.26,9.2,9.2,0,0,1-3.83-3.49,10.26,10.26,0,0,1,0-10.14,9.36,9.36,0,0,1,3.66-3.51,10.71,10.71,0,0,1,5.19-1.26,10.59,10.59,0,0,1,5.08,1.21,8.8,8.8,0,0,1,3.57,3.46,10.32,10.32,0,0,1,1.29,5.23C1437.2,339.14,1437.17,339.64,1437.09,340.56Zm-12.95-6.14a4.54,4.54,0,0,0-1.56,2.91h9.4a4.55,4.55,0,0,0-1.56-2.89,4.66,4.66,0,0,0-3.12-1.08A4.77,4.77,0,0,0,1424.14,334.42Z"/><path class="cls-3" d="M1442.67,348.25a12.38,12.38,0,0,1-3.62-1.48l1.84-4a11.6,11.6,0,0,0,3.09,1.33,13.07,13.07,0,0,0,3.55.51q3.51,0,3.51-1.74a1.24,1.24,0,0,0-1-1.17,15,15,0,0,0-2.94-.6,28.67,28.67,0,0,1-3.87-.82,5.88,5.88,0,0,1-2.64-1.63,4.61,4.61,0,0,1-1.12-3.33,5.3,5.3,0,0,1,1-3.22,6.78,6.78,0,0,1,3.06-2.18,13,13,0,0,1,4.73-.78,18.91,18.91,0,0,1,4,.44,11.42,11.42,0,0,1,3.32,1.23l-1.85,3.94a10.94,10.94,0,0,0-5.5-1.42,5.62,5.62,0,0,0-2.66.49,1.47,1.47,0,0,0-.88,1.28,1.28,1.28,0,0,0,1,1.25,17.44,17.44,0,0,0,3.06.67,34.26,34.26,0,0,1,3.83.83,5.81,5.81,0,0,1,2.59,1.62,4.59,4.59,0,0,1,1.1,3.26,5,5,0,0,1-1.07,3.16,6.82,6.82,0,0,1-3.1,2.15,13.82,13.82,0,0,1-4.84.76A18.52,18.52,0,0,1,1442.67,348.25Z"/><path class="cls-3" d="M1472.05,347.62a5.48,5.48,0,0,1-2,.91,10.13,10.13,0,0,1-2.5.3,7.45,7.45,0,0,1-5.27-1.74,6.66,6.66,0,0,1-1.86-5.11v-7.84h-3v-4.26h3v-4.65H1466v4.65h4.75v4.26H1466v7.77a2.57,2.57,0,0,0,.62,1.86,2.28,2.28,0,0,0,1.75.66,3.59,3.59,0,0,0,2.24-.71Z"/><path class="cls-3" d="M1489.69,331.28q2.37,2.12,2.37,6.37v10.9h-5.18v-2.38q-1.56,2.65-5.82,2.66a9.12,9.12,0,0,1-3.81-.74,5.75,5.75,0,0,1-2.47-2.06,5.35,5.35,0,0,1-.85-3,5,5,0,0,1,2-4.19c1.33-1,3.4-1.53,6.19-1.53h4.4a3.54,3.54,0,0,0-1.1-2.78,4.87,4.87,0,0,0-3.3-1,9.61,9.61,0,0,0-3,.48,7.78,7.78,0,0,0-2.5,1.3l-2-3.87a12,12,0,0,1,3.74-1.71,16.88,16.88,0,0,1,4.49-.6C1485.83,329.17,1488.1,329.88,1489.69,331.28ZM1485,344.45a3.61,3.61,0,0,0,1.56-1.94v-1.95h-3.8c-2.27,0-3.41.75-3.41,2.24a2,2,0,0,0,.84,1.68,3.71,3.71,0,0,0,2.29.62A4.83,4.83,0,0,0,1485,344.45Z"/><path class="cls-3" d="M1505,329.88a10,10,0,0,1,3.88-.71v5.11c-.61,0-1-.07-1.24-.07a5.07,5.07,0,0,0-3.73,1.33,5.38,5.38,0,0,0-1.35,4v9h-5.53v-19.1h5.29V332A6.1,6.1,0,0,1,1505,329.88Z"/><path class="cls-3" d="M1072.31,187.71h5.75v24.84h-5.75Z"/><path class="cls-3" d="M1113.71,195.28c1.4,1.41,2.11,3.52,2.11,6.34v10.93h-5.54V202.47a5.14,5.14,0,0,0-.94-3.39,3.3,3.3,0,0,0-2.68-1.12,3.92,3.92,0,0,0-3.08,1.26,5.42,5.42,0,0,0-1.14,3.74v9.59h-5.54V202.47c0-3-1.2-4.51-3.62-4.51a3.92,3.92,0,0,0-3,1.26,5.41,5.41,0,0,0-1.13,3.74v9.59h-5.54v-19.1h5.29v2.2a7.07,7.07,0,0,1,2.61-1.84,8.66,8.66,0,0,1,3.38-.64,8.26,8.26,0,0,1,3.66.8,6.55,6.55,0,0,1,2.63,2.32,7.75,7.75,0,0,1,3-2.3,9.24,9.24,0,0,1,3.92-.82A7.74,7.74,0,0,1,1113.71,195.28Z"/><path class="cls-3" d="M1135.3,195.28q2.39,2.11,2.38,6.37v10.9h-5.18v-2.38q-1.56,2.66-5.82,2.66a9.17,9.17,0,0,1-3.82-.74,5.72,5.72,0,0,1-2.46-2.06,5.36,5.36,0,0,1-.86-3,5,5,0,0,1,2-4.19q2-1.53,6.19-1.53h4.4a3.5,3.5,0,0,0-1.1-2.78,4.84,4.84,0,0,0-3.3-1,9.61,9.61,0,0,0-3,.48,7.88,7.88,0,0,0-2.5,1.3l-2-3.87a12,12,0,0,1,3.75-1.71,16.82,16.82,0,0,1,4.49-.6C1131.44,193.17,1133.72,193.88,1135.3,195.28Zm-4.72,13.17a3.61,3.61,0,0,0,1.56-1.94v-1.95h-3.79c-2.28,0-3.41.75-3.41,2.24a2,2,0,0,0,.83,1.68,3.73,3.73,0,0,0,2.29.62A4.78,4.78,0,0,0,1130.58,208.45Z"/><path class="cls-3" d="M1162.59,193.45v15.9c0,3.5-.91,6.11-2.73,7.81s-4.49,2.56-8,2.56a20,20,0,0,1-5.25-.68,11.52,11.52,0,0,1-4.12-1.95l2.21-4a8.87,8.87,0,0,0,3,1.58,12.16,12.16,0,0,0,3.69.59,6,6,0,0,0,4.24-1.3,5.16,5.16,0,0,0,1.36-3.92v-.81a7.75,7.75,0,0,1-6,2.37,10.14,10.14,0,0,1-4.81-1.15,8.8,8.8,0,0,1-3.46-3.25,9.8,9.8,0,0,1,0-9.65,8.87,8.87,0,0,1,3.46-3.25,10.26,10.26,0,0,1,4.81-1.15,7.58,7.58,0,0,1,6.32,2.73v-2.45Zm-6.87,12.34a4.78,4.78,0,0,0,0-6.78,5.06,5.06,0,0,0-3.6-1.3,5.14,5.14,0,0,0-3.62,1.3,4.76,4.76,0,0,0,0,6.78,5.18,5.18,0,0,0,3.62,1.29A5.09,5.09,0,0,0,1155.72,205.79Z"/><path class="cls-3" d="M1168,189.91a3,3,0,0,1,0-4.41,3.52,3.52,0,0,1,2.48-.88,3.6,3.6,0,0,1,2.49.85,2.74,2.74,0,0,1,1,2.13,3,3,0,0,1-1,2.29,3.91,3.91,0,0,1-5,0Zm-.28,3.54h5.53v19.1h-5.53Z"/><path class="cls-3" d="M1195.75,195.3q2.19,2.13,2.19,6.32v10.93h-5.54V202.47a5,5,0,0,0-1-3.39,3.64,3.64,0,0,0-2.88-1.12,4.35,4.35,0,0,0-3.33,1.3,5.34,5.34,0,0,0-1.25,3.85v9.44h-5.53v-19.1h5.29v2.24a7.25,7.25,0,0,1,2.73-1.86,9.46,9.46,0,0,1,3.58-.66A7.84,7.84,0,0,1,1195.75,195.3Z"/><path class="cls-3" d="M1217.45,195.28q2.38,2.11,2.38,6.37v10.9h-5.18v-2.38q-1.56,2.66-5.82,2.66a9.09,9.09,0,0,1-3.81-.74,5.75,5.75,0,0,1-2.47-2.06,5.35,5.35,0,0,1-.85-3,5,5,0,0,1,2-4.19c1.34-1,3.4-1.53,6.2-1.53h4.4a3.54,3.54,0,0,0-1.1-2.78,4.87,4.87,0,0,0-3.3-1,9.61,9.61,0,0,0-3,.48,7.94,7.94,0,0,0-2.51,1.3l-2-3.87a12,12,0,0,1,3.74-1.71,16.88,16.88,0,0,1,4.49-.6C1213.6,193.17,1215.87,193.88,1217.45,195.28Zm-4.72,13.17a3.58,3.58,0,0,0,1.57-1.94v-1.95h-3.8c-2.27,0-3.41.75-3.41,2.24a2,2,0,0,0,.84,1.68,3.68,3.68,0,0,0,2.28.62A4.78,4.78,0,0,0,1212.73,208.45Z"/><path class="cls-3" d="M1232.8,193.88a10,10,0,0,1,3.89-.71v5.11c-.62-.05-1-.07-1.24-.07a5.07,5.07,0,0,0-3.73,1.33,5.38,5.38,0,0,0-1.35,4v9h-5.54v-19.1h5.29V196A6.21,6.21,0,0,1,1232.8,193.88Z"/><path class="cls-3" d="M1244.35,206.89a3.28,3.28,0,0,1,1,2.46,5.7,5.7,0,0,1-.18,1.42,13.47,13.47,0,0,1-.78,2.13l-2,5.11h-3.51l1.56-5.64a2.93,2.93,0,0,1-1.4-1.15,3.35,3.35,0,0,1-.52-1.87,3.26,3.26,0,0,1,1-2.46,3.4,3.4,0,0,1,2.47-.94A3.32,3.32,0,0,1,1244.35,206.89Z"/><path class="cls-3" d="M1259.4,189.91a3,3,0,0,1,0-4.41,3.52,3.52,0,0,1,2.48-.88,3.6,3.6,0,0,1,2.49.85,2.74,2.74,0,0,1,1,2.13,3,3,0,0,1-1,2.29,3.91,3.91,0,0,1-5,0Zm-.28,3.54h5.53v19.1h-5.53Z"/><path class="cls-3" d="M1287.13,195.3q2.19,2.13,2.19,6.32v10.93h-5.54V202.47a5,5,0,0,0-1-3.39,3.64,3.64,0,0,0-2.88-1.12,4.35,4.35,0,0,0-3.33,1.3,5.34,5.34,0,0,0-1.25,3.85v9.44h-5.53v-19.1h5.28v2.24a7.36,7.36,0,0,1,2.74-1.86,9.46,9.46,0,0,1,3.58-.66A7.84,7.84,0,0,1,1287.13,195.3Z"/><path class="cls-3" d="M1312.92,193.45l-8.06,19.1h-5.71l-8-19.1h5.71l5.29,13,5.46-13Z"/><path class="cls-3" d="M1333.25,204.56h-14.44a4.5,4.5,0,0,0,1.84,2.81,6.16,6.16,0,0,0,3.62,1,7.29,7.29,0,0,0,2.65-.44,6.33,6.33,0,0,0,2.14-1.4l3,3.19q-2.7,3.09-7.88,3.09a12.44,12.44,0,0,1-5.71-1.26,9.23,9.23,0,0,1-3.84-3.49,10.23,10.23,0,0,1,0-10.14,9.27,9.27,0,0,1,3.65-3.51,10.73,10.73,0,0,1,5.2-1.26,10.55,10.55,0,0,1,5.07,1.21,8.68,8.68,0,0,1,3.57,3.46,10.33,10.33,0,0,1,1.3,5.23C1333.36,203.14,1333.32,203.64,1333.25,204.56Zm-13-6.14a4.51,4.51,0,0,0-1.57,2.91h9.41a4.59,4.59,0,0,0-1.56-2.89,4.68,4.68,0,0,0-3.12-1.08A4.75,4.75,0,0,0,1320.3,198.42Z"/><path class="cls-3" d="M1354.38,195.3c1.46,1.42,2.18,3.53,2.18,6.32v10.93H1351V202.47a5,5,0,0,0-1-3.39,3.66,3.66,0,0,0-2.88-1.12,4.39,4.39,0,0,0-3.34,1.3,5.38,5.38,0,0,0-1.24,3.85v9.44h-5.53v-19.1h5.28v2.24a7.36,7.36,0,0,1,2.74-1.86,9.43,9.43,0,0,1,3.58-.66A7.84,7.84,0,0,1,1354.38,195.3Z"/><path class="cls-3" d="M1373.88,211.62a5.5,5.5,0,0,1-2,.91,10.25,10.25,0,0,1-2.5.3,7.41,7.41,0,0,1-5.27-1.74,6.63,6.63,0,0,1-1.87-5.11v-7.84h-2.94v-4.26h2.94v-4.65h5.54v4.65h4.75v4.26h-4.75v7.77a2.61,2.61,0,0,0,.62,1.86,2.29,2.29,0,0,0,1.76.66,3.56,3.56,0,0,0,2.23-.71Z"/><path class="cls-3" d="M1391.52,195.28c1.58,1.41,2.38,3.53,2.38,6.37v10.9h-5.18v-2.38c-1,1.77-3,2.66-5.82,2.66a9.17,9.17,0,0,1-3.82-.74,5.67,5.67,0,0,1-2.46-2.06,5.36,5.36,0,0,1-.86-3,5,5,0,0,1,2-4.19c1.33-1,3.4-1.53,6.19-1.53h4.4a3.54,3.54,0,0,0-1.1-2.78,4.84,4.84,0,0,0-3.3-1,9.61,9.61,0,0,0-3,.48,7.88,7.88,0,0,0-2.5,1.3l-2-3.87a12,12,0,0,1,3.75-1.71,16.82,16.82,0,0,1,4.49-.6C1387.66,193.17,1389.93,193.88,1391.52,195.28Zm-4.72,13.17a3.61,3.61,0,0,0,1.56-1.94v-1.95h-3.8c-2.27,0-3.4.75-3.4,2.24a2,2,0,0,0,.83,1.68,3.73,3.73,0,0,0,2.29.62A4.78,4.78,0,0,0,1386.8,208.45Z"/><path class="cls-3" d="M1406.87,193.88a10,10,0,0,1,3.88-.71v5.11c-.61-.05-1-.07-1.24-.07a5,5,0,0,0-3.72,1.33,5.38,5.38,0,0,0-1.35,4v9h-5.54v-19.1h5.29V196A6.1,6.1,0,0,1,1406.87,193.88Z"/><line class="cls-4" y1="914.99" x2="1854" y2="914.99"/><line class="cls-4" x1="43.31" y1="779.29" x2="1810.69" y2="779.29"/><line class="cls-4" x1="95.33" y1="643.59" x2="1758.67" y2="643.59"/><line class="cls-4" x1="195.78" y1="507.89" x2="1658.22" y2="507.89"/><line class="cls-4" x1="287.7" y1="372.19" x2="1566.3" y2="372.19"/><line class="cls-4" x1="389.56" y1="236.49" x2="1464.44" y2="236.49"/></g></g></svg>