<svg xmlns="http://www.w3.org/2000/svg" viewBox="0 0 177.78 176.78"><defs><style>.cls-1{fill:#930c20;}.cls-2{fill:#d21e2f;}</style></defs><g id="Layer_2" data-name="Layer 2"><g id="Layer_1-2" data-name="Layer 1"><path class="cls-1" d="M97.89,51.74l-7.5-13.22-7.5,13.22L68,54.79,78.26,66l-1.7,15.1,13.83-6.28,13.83,6.28L102.52,66l10.25-11.21Zm.23,21-7.73-3.52-7.74,3.52.95-8.45L77.87,58l8.33-1.7,4.19-7.39,4.19,7.39L102.9,58l-5.73,6.27Z"/><path class="cls-1" d="M139,22.48V17.36h5.12V2H62.23V7.12H139v5.12H41.74V7.12H57.11V2H36.62V17.36h5.12v5.12H3V65.09A19.85,19.85,0,0,0,9.57,80a29.39,29.39,0,0,0,14.92,7l28.53,5a49.2,49.2,0,0,0,19.89,14.32,10.23,10.23,0,0,0,4.61,17.13c-.38,6-2.48,14.92-10.89,20.1H50.4l-6.1,12.2v21.09h66.57v-5.12H49.43V156.9l4.14-8.29h73.64l4.14,8.29v14.76H116v5.12h20.48V155.69l-6.09-12.2H114.15c-8.41-5.18-10.52-14.06-10.89-20.1a10.23,10.23,0,0,0,4.61-17.13A49.24,49.24,0,0,0,127.75,92l28.53-5a29.5,29.5,0,0,0,14.93-7,19.89,19.89,0,0,0,6.57-14.88V22.48Zm0,15.36h23.39V65.09c0,5.09-7.87,6.61-8.77,6.76L137,74.75a48.39,48.39,0,0,0,2-13.86ZM43.79,74.75l-16.67-2.9c-.89-.15-8.76-1.67-8.76-6.76V37.84H41.74v23a48.4,48.4,0,0,0,2,13.86ZM8.12,65.09V27.6H41.74v5.12H13.24V65.09c0,7,6.72,10.72,13,11.81l19.58,3.4a49.8,49.8,0,0,0,3,5.71L25.37,81.94c-8-1.38-17.25-6.62-17.25-16.85Zm66.54,78.4c4.68-5,7.47-11.83,8-19.76H98.15c.5,7.93,3.29,14.77,8,19.76Zm26-24.88H80.15a5.12,5.12,0,0,1,0-10.24h20.48a5.12,5.12,0,1,1,0,10.24Zm-.3-15.36H80.45A43.88,43.88,0,0,1,46.87,60.89V17.36h87V60.89A43.89,43.89,0,0,1,100.33,103.25Zm72.33-38.16c0,10.23-9.3,15.47-17.25,16.85L132,86a49.8,49.8,0,0,0,3-5.71l19.58-3.4c6.29-1.09,13-4.77,13-11.81V32.72H139V27.6h33.63Z"/><path class="cls-1" d="M123.67,32.72h5.12v5.12h-5.12Z"/><path class="cls-1" d="M123.67,22.48h5.12V27.6h-5.12Z"/><path class="cls-1" d="M118.55,153.73h5.12v5.12h-5.12Z"/><path class="cls-1" d="M77.59,157.58h25.6v5.12H77.59Z"/><path class="cls-2" d="M94.89,49.74l-7.5-13.22-7.5,13.22L65,52.79,75.26,64l-1.7,15.1,13.83-6.28,13.83,6.28L99.52,64l10.25-11.21Zm.23,21-7.73-3.52-7.74,3.52.95-8.45L74.87,56l8.33-1.7,4.19-7.39,4.19,7.39L99.9,56l-5.73,6.27Z"/><path class="cls-2" d="M136,20.48V15.36h5.12V0H59.23V5.12H136v5.12H38.74V5.12H54.11V0H33.62V15.36h5.12v5.12H0V63.09A19.85,19.85,0,0,0,6.57,78a29.39,29.39,0,0,0,14.92,7l28.53,5a49.2,49.2,0,0,0,19.89,14.32,10.23,10.23,0,0,0,4.61,17.13c-.38,6-2.48,14.92-10.89,20.1H47.4l-6.1,12.2v21.09h66.57v-5.12H46.43V154.9l4.14-8.29h73.64l4.14,8.29v14.76H113v5.12h20.48V153.69l-6.09-12.2H111.15c-8.41-5.18-10.52-14.06-10.89-20.1a10.23,10.23,0,0,0,4.61-17.13A49.24,49.24,0,0,0,124.75,90l28.53-5a29.5,29.5,0,0,0,14.93-7,19.89,19.89,0,0,0,6.57-14.88V20.48Zm0,15.36h23.39V63.09c0,5.09-7.87,6.61-8.77,6.76L134,72.75a48.39,48.39,0,0,0,2-13.86ZM40.79,72.75l-16.67-2.9c-.89-.15-8.76-1.67-8.76-6.76V35.84H38.74v23a48.4,48.4,0,0,0,2,13.86ZM5.12,63.09V25.6H38.74v5.12H10.24V63.09c0,7,6.72,10.72,13,11.81l19.58,3.4a49.8,49.8,0,0,0,3,5.71L22.37,79.94c-8-1.38-17.25-6.62-17.25-16.85Zm66.54,78.4c4.68-5,7.47-11.83,8-19.76H95.15c.5,7.93,3.29,14.77,8,19.76Zm26-24.88H77.15a5.12,5.12,0,0,1,0-10.24H97.63a5.12,5.12,0,1,1,0,10.24Zm-.3-15.36H77.45A43.88,43.88,0,0,1,43.87,58.89V15.36h87V58.89A43.89,43.89,0,0,1,97.33,101.25Zm72.33-38.16c0,10.23-9.3,15.47-17.25,16.85L129,84a49.8,49.8,0,0,0,3-5.71l19.58-3.4c6.29-1.09,13-4.77,13-11.81V30.72H136V25.6h33.63Z"/><path class="cls-2" d="M120.67,30.72h5.12v5.12h-5.12Z"/><path class="cls-2" d="M120.67,20.48h5.12V25.6h-5.12Z"/><path class="cls-2" d="M115.55,151.73h5.12v5.12h-5.12Z"/><path class="cls-2" d="M74.59,155.58h25.6v5.12H74.59Z"/></g></g></svg>