<svg xmlns="http://www.w3.org/2000/svg" viewBox="0 0 152.06 162.44"><defs><style>.cls-1{fill:#930c20;}.cls-2{fill:#d21e2f;}</style></defs><g id="Layer_2" data-name="Layer 2"><g id="Layer_1-2" data-name="Layer 1"><path class="cls-1" d="M152.06,82.18a26.73,26.73,0,0,0-5.93-16.83c-5.28-6.48-13.36-9.82-20.21-8.66A31.05,31.05,0,0,0,116,45.26a32.77,32.77,0,0,0-21-6,29.08,29.08,0,0,0-7.37,1.43V34.9H93.2a6.28,6.28,0,0,0,6.27-6.26V20.8a6.28,6.28,0,0,0-6.27-6.26H87.71V8.27A6.27,6.27,0,0,0,81.45,2H73.61a6.27,6.27,0,0,0-6.26,6.27v6.27H61.86a6.28,6.28,0,0,0-6.27,6.26v7.84a6.28,6.28,0,0,0,6.27,6.26h5.49v5.79a29.69,29.69,0,0,0-8.43-1.48,3.14,3.14,0,0,0-.19,6.27,22,22,0,0,1,15.67,7v59.86H51L38.44,91.06c-6.32-10.73-7.91-20.91-4.71-29.31a2,2,0,0,0,.1-.21s0-.09,0-.14a24.37,24.37,0,0,1,2.87-5.21,3.13,3.13,0,1,0-5.07-3.68,29.24,29.24,0,0,0-2.53,4.18c-6.86-1.16-14.93,2.18-20.21,8.66A26.73,26.73,0,0,0,3,82.18C2.93,89.42,5.43,97,10.42,104.7l5.82,9a9.42,9.42,0,0,0-4.52,8V153a9.41,9.41,0,0,0,9.4,9.4H133.94a9.41,9.41,0,0,0,9.4-9.4V121.71a9.44,9.44,0,0,0-4.52-8l5.81-9c5-7.7,7.5-15.28,7.43-22.52ZM70.48,28.64H61.86V20.8h8.62a3.13,3.13,0,0,0,3.13-3.13V8.27h7.84v9.4a3.13,3.13,0,0,0,3.13,3.13H93.2v7.84H84.58a3.13,3.13,0,0,0-3.13,3.13V43.68a28,28,0,0,0-3.92,3,27.24,27.24,0,0,0-3.92-3V31.77a3.13,3.13,0,0,0-3.13-3.13ZM80.66,52.45c8.91-9.65,22.87-8.36,31.77-2.07,9.61,6.79,15.76,21.05,4.18,40.68l-12.52,21.25H80.66ZM13.79,69.31c3.5-4.3,8.7-6.8,13.1-6.58a32.39,32.39,0,0,0-1,8.1c0,7.48,2.42,15.36,7.17,23.41l10.64,18.07H22.83l-7.15-11c-11.17-17.23-5-28.11-1.89-32ZM137.07,153a3.14,3.14,0,0,1-3.13,3.14H21.12A3.14,3.14,0,0,1,18,153V121.71a3.14,3.14,0,0,1,3.13-3.14H133.94a3.14,3.14,0,0,1,3.13,3.14V153Zm-4.84-40.73H111.37L122,94.24c6-10.14,8.29-20.28,6.66-29.3-.14-.75-.3-1.49-.49-2.21,4.4-.22,9.59,2.29,13.09,6.58,3.15,3.87,9.28,14.75-1.89,32Z"/><path class="cls-1" d="M77.53,123.27c-6.91,0-12.53,6.33-12.53,14.11s5.62,14.1,12.53,14.1,12.53-6.33,12.53-14.1S84.44,123.27,77.53,123.27Zm0,21.94c-3.4,0-6.27-3.59-6.27-7.83s2.87-7.84,6.27-7.84,6.27,3.59,6.27,7.84S80.93,145.21,77.53,145.21Z"/><path class="cls-1" d="M42.66,127.19a10.19,10.19,0,1,0,10.18,10.19A10.2,10.2,0,0,0,42.66,127.19Zm0,14.1a3.92,3.92,0,1,1,3.92-3.91A3.92,3.92,0,0,1,42.66,141.29Z"/><path class="cls-1" d="M112.4,127.19a10.19,10.19,0,1,0,10.19,10.19A10.2,10.2,0,0,0,112.4,127.19Zm0,14.1a3.92,3.92,0,1,1,3.92-3.91A3.92,3.92,0,0,1,112.4,141.29Z"/><path class="cls-1" d="M45.05,48.46a3.13,3.13,0,1,0,0-6.26h0a3.13,3.13,0,1,0,0,6.26Z"/><path class="cls-2" d="M149.06,80.18a26.73,26.73,0,0,0-5.93-16.83c-5.28-6.48-13.36-9.82-20.21-8.66A31.05,31.05,0,0,0,113,43.26a32.77,32.77,0,0,0-21-6,29.08,29.08,0,0,0-7.37,1.43V32.9H90.2a6.28,6.28,0,0,0,6.27-6.26V18.8a6.28,6.28,0,0,0-6.27-6.26H84.71V6.27A6.27,6.27,0,0,0,78.45,0H70.61a6.27,6.27,0,0,0-6.26,6.27v6.27H58.86a6.28,6.28,0,0,0-6.27,6.26v7.84a6.28,6.28,0,0,0,6.27,6.26h5.49v5.79a29.69,29.69,0,0,0-8.43-1.48,3.14,3.14,0,0,0-.19,6.27,22,22,0,0,1,15.67,7v59.86H48L35.44,89.06c-6.32-10.73-7.91-20.91-4.71-29.31a2,2,0,0,0,.1-.21s0-.09,0-.14a24.37,24.37,0,0,1,2.87-5.21,3.13,3.13,0,1,0-5.07-3.68,29.24,29.24,0,0,0-2.53,4.18c-6.86-1.16-14.93,2.18-20.21,8.66A26.73,26.73,0,0,0,0,80.18C-.07,87.42,2.43,95,7.42,102.7l5.82,9a9.42,9.42,0,0,0-4.52,8V151a9.41,9.41,0,0,0,9.4,9.4H130.94a9.41,9.41,0,0,0,9.4-9.4V119.71a9.44,9.44,0,0,0-4.52-8l5.81-9c5-7.7,7.5-15.28,7.43-22.52ZM67.48,26.64H58.86V18.8h8.62a3.13,3.13,0,0,0,3.13-3.13V6.27h7.84v9.4a3.13,3.13,0,0,0,3.13,3.13H90.2v7.84H81.58a3.13,3.13,0,0,0-3.13,3.13V41.68a28,28,0,0,0-3.92,3,27.24,27.24,0,0,0-3.92-3V29.77a3.13,3.13,0,0,0-3.13-3.13ZM77.66,50.45c8.91-9.65,22.87-8.36,31.77-2.07,9.61,6.79,15.76,21.05,4.18,40.68l-12.52,21.25H77.66ZM10.79,67.31c3.5-4.3,8.7-6.8,13.1-6.58a32.39,32.39,0,0,0-1,8.1c0,7.48,2.42,15.36,7.17,23.41l10.64,18.07H19.83l-7.15-11c-11.17-17.23-5-28.11-1.89-32ZM134.07,151a3.14,3.14,0,0,1-3.13,3.14H18.12A3.14,3.14,0,0,1,15,151V119.71a3.14,3.14,0,0,1,3.13-3.14H130.94a3.14,3.14,0,0,1,3.13,3.14V151Zm-4.84-40.73H108.37L119,92.24c6-10.14,8.29-20.28,6.66-29.3-.14-.75-.3-1.49-.49-2.21,4.4-.22,9.59,2.29,13.09,6.58,3.15,3.87,9.28,14.75-1.89,32Z"/><path class="cls-2" d="M74.53,121.27c-6.91,0-12.53,6.33-12.53,14.11s5.62,14.1,12.53,14.1,12.53-6.33,12.53-14.1S81.44,121.27,74.53,121.27Zm0,21.94c-3.4,0-6.27-3.59-6.27-7.83s2.87-7.84,6.27-7.84,6.27,3.59,6.27,7.84S77.93,143.21,74.53,143.21Z"/><path class="cls-2" d="M39.66,125.19a10.19,10.19,0,1,0,10.18,10.19A10.2,10.2,0,0,0,39.66,125.19Zm0,14.1a3.92,3.92,0,1,1,3.92-3.91A3.92,3.92,0,0,1,39.66,139.29Z"/><path class="cls-2" d="M109.4,125.19a10.19,10.19,0,1,0,10.19,10.19A10.2,10.2,0,0,0,109.4,125.19Zm0,14.1a3.92,3.92,0,1,1,3.92-3.91A3.92,3.92,0,0,1,109.4,139.29Z"/><path class="cls-2" d="M42.05,46.46a3.13,3.13,0,1,0,0-6.26h0a3.13,3.13,0,1,0,0,6.26Z"/></g></g></svg>