<svg xmlns="http://www.w3.org/2000/svg" viewBox="0 0 140.55 171.89"><defs><style>.cls-1{fill:#930c20;}.cls-2{fill:#d21e2f;}</style></defs><g id="Layer_2" data-name="Layer 2"><g id="Layer_1-2" data-name="Layer 1"><path class="cls-1" d="M112.3,76.64a2.49,2.49,0,0,0,2.92-1.94,46.08,46.08,0,0,0,.92-9.17,45.43,45.43,0,1,0-5,20.85,2.48,2.48,0,0,0-4.4-2.28,40.38,40.38,0,1,1,3.66-10.39,2.49,2.49,0,0,0,1.93,2.93Z"/><path class="cls-1" d="M98.31,56.3a2.49,2.49,0,0,0-2-1.69L80.18,52.3,73,37.63a2.49,2.49,0,0,0-4.44,0L61.38,52.3,45.25,54.61a2.5,2.5,0,0,0-1.37,4.24L55.57,70.23l-2.79,16.1A2.49,2.49,0,0,0,56.37,89l14.41-7.63L85.18,89a2.5,2.5,0,0,0,3.6-2.62L86,70.23,97.68,58.85a2.51,2.51,0,0,0,.63-2.55ZM81.6,67.59a2.49,2.49,0,0,0-.71,2.2L83,82.2,71.93,76.32a2.43,2.43,0,0,0-2.31,0L58.52,82.2l2.15-12.41a2.47,2.47,0,0,0-.72-2.2l-9-8.78L63.37,57a2.45,2.45,0,0,0,1.87-1.36l5.54-11.31,5.53,11.31A2.45,2.45,0,0,0,78.18,57l12.43,1.79Z"/><path class="cls-1" d="M140.21,150.52l-24.18-42A62.44,62.44,0,0,0,40.56,10.82a2.48,2.48,0,0,0-1,3.38,2.46,2.46,0,0,0,3.36,1,57.61,57.61,0,1,1-9.12,6.3,2.47,2.47,0,0,0-3.18-3.79,62.6,62.6,0,0,0-5.08,90.89l-6.85,11.9c-1.64,2.76,2.7,5.3,4.29,2.48l6.22-10.81a62.29,62.29,0,0,0,26.51,14.1L34.4,163.32l-5.46-17.24a2.47,2.47,0,0,0-2.89-1.67L8.43,148.28,17.24,133A2.47,2.47,0,1,0,13,130.49L1.34,150.67A2.5,2.5,0,0,0,4,154.34l20.89-4.6,6.48,20.44a2.49,2.49,0,0,0,4.5.49l25-43.4a62,62,0,0,0,19.91,0l15,26.07a2.47,2.47,0,0,0,2.14,1.24,2.44,2.44,0,0,0,1.24-.34,2.49,2.49,0,0,0,.9-3.39L85.88,126.21a62.32,62.32,0,0,0,26.49-14.13l20.75,36.05-17.61-3.87a2.47,2.47,0,0,0-2.89,1.67l-5.46,17.24-1.33-2.3a2.48,2.48,0,0,0-4.28,2.49l4.12,7.16a2.49,2.49,0,0,0,4.5-.49l6.48-20.44,20.89,4.6a2.5,2.5,0,0,0,2.67-3.67Z"/><path class="cls-2" d="M111.3,73.64a2.49,2.49,0,0,0,2.92-1.94,46.08,46.08,0,0,0,.92-9.17,45.43,45.43,0,1,0-5,20.85,2.48,2.48,0,0,0-4.4-2.28,40.38,40.38,0,1,1,3.66-10.39,2.49,2.49,0,0,0,1.93,2.93Z"/><path class="cls-2" d="M97.31,53.3a2.49,2.49,0,0,0-2-1.69L79.18,49.3,72,34.63a2.49,2.49,0,0,0-4.44,0L60.38,49.3,44.25,51.61a2.5,2.5,0,0,0-1.37,4.24L54.57,67.23l-2.79,16.1A2.49,2.49,0,0,0,55.37,86l14.41-7.63L84.18,86a2.5,2.5,0,0,0,3.6-2.62L85,67.23,96.68,55.85a2.51,2.51,0,0,0,.63-2.55ZM80.6,64.59a2.49,2.49,0,0,0-.71,2.2L82,79.2,70.93,73.32a2.43,2.43,0,0,0-2.31,0L57.52,79.2l2.15-12.41a2.47,2.47,0,0,0-.72-2.2l-9-8.78L62.37,54a2.45,2.45,0,0,0,1.87-1.36l5.54-11.31,5.53,11.31A2.45,2.45,0,0,0,77.18,54l12.43,1.79Z"/><path class="cls-2" d="M139.21,147.52l-24.18-42A62.44,62.44,0,0,0,39.56,7.82a2.48,2.48,0,0,0-1,3.38,2.46,2.46,0,0,0,3.36,1,57.61,57.61,0,1,1-9.12,6.3,2.47,2.47,0,0,0-3.18-3.79,62.6,62.6,0,0,0-5.08,90.89l-6.85,11.9c-1.64,2.76,2.7,5.3,4.29,2.48l6.22-10.81a62.29,62.29,0,0,0,26.51,14.1L33.4,160.32l-5.46-17.24a2.47,2.47,0,0,0-2.89-1.67L7.43,145.28,16.24,130A2.47,2.47,0,1,0,12,127.49L.34,147.67A2.5,2.5,0,0,0,3,151.34l20.89-4.6,6.48,20.44a2.49,2.49,0,0,0,4.5.49l25-43.4a62,62,0,0,0,19.91,0l15,26.07a2.47,2.47,0,0,0,2.14,1.24,2.44,2.44,0,0,0,1.24-.34,2.49,2.49,0,0,0,.9-3.39L84.88,123.21a62.32,62.32,0,0,0,26.49-14.13l20.75,36.05-17.61-3.87a2.47,2.47,0,0,0-2.89,1.67l-5.46,17.24-1.33-2.3a2.48,2.48,0,0,0-4.28,2.49l4.12,7.16a2.49,2.49,0,0,0,4.5-.49l6.48-20.44,20.89,4.6a2.5,2.5,0,0,0,2.67-3.67Z"/></g></g></svg>