<svg xmlns="http://www.w3.org/2000/svg" viewBox="0 0 222.17 210.29"><defs><style>.cls-1{fill:#6067a8;}.cls-2{fill:#4d5389;}.cls-3{fill:#211f68;}.cls-4{fill:#a0a4da;}.cls-5{fill:#00dfbf;}.cls-17,.cls-6{opacity:0.2;}.cls-12,.cls-13,.cls-14,.cls-17,.cls-7,.cls-8{fill:#fff;}.cls-7{opacity:0.4;}.cls-11,.cls-9{fill:#27debf;}.cls-10{fill:#bdc7ff;}.cls-11,.cls-14{opacity:0.8;}.cls-12{opacity:0.5;}.cls-13{opacity:0.7;}.cls-15{opacity:0.3;}.cls-16{fill:#e1e4ff;}</style></defs><g id="Layer_2" data-name="Layer 2"><g id="Layer_1-2" data-name="Layer 1"><path class="cls-1" d="M196.37,48.55l-5.29-3.71a.55.55,0,0,1-.25-.25L190,42.71l3.48-1.62-.13.28Z"/><path class="cls-2" d="M192.91,41.32l3.28,7a.58.58,0,0,0,1.05,0l5.1-11.41Z"/><path class="cls-3" d="M214.2,7.26a6,6,0,0,0-2.29-4.9L209.82.9a6,6,0,0,0-5.39-.46L158.61,21.82a6,6,0,0,0-3.1,4.43l-1.92,22.1a6,6,0,0,0,2.29,4.9L158,54.71a6,6,0,0,0,5.39.47l46.1-21.55c2.54-1.17,2.68-2.55,2.83-4.27Z"/><path class="cls-1" d="M153.59,48.35a6,6,0,0,0,2.29,4.9L158,54.71a6.05,6.05,0,0,0,4.91.65c-1.31.37-2.21-.44-2.07-2l1.91-22.1a5.59,5.59,0,0,1,1-2.59l-7.2-5a5.59,5.59,0,0,0-1,2.59Z"/><path class="cls-2" d="M214.18,6.49c-.22-1.17-1.23-1.63-2.54-1L165.81,26.86a5.31,5.31,0,0,0-2.07,1.84l-7.2-5a5.41,5.41,0,0,1,2.07-1.85L204.43.44a6,6,0,0,1,5.39.46l2.09,1.47A6,6,0,0,1,214.18,6.49Z"/><path class="cls-4" d="M169.82,33.52l32.74-15.38c.95-.44,1.66-.14,1.59.67a3.3,3.3,0,0,1-1.85,2.28L169.56,36.46c-.95.45-1.66.15-1.59-.67A3.28,3.28,0,0,1,169.82,33.52Z"/><path class="cls-4" d="M169.17,40.92l32.74-15.37c1-.45,1.66-.14,1.59.67a3.3,3.3,0,0,1-1.84,2.28L168.92,43.87c-.95.44-1.66.14-1.59-.68A3.29,3.29,0,0,1,169.17,40.92Z"/><path class="cls-1" d="M32.42,185.55l5.29-3.71a.49.49,0,0,0,.24-.25l.87-1.88-3.47-1.62.12.28Z"/><path class="cls-2" d="M35.88,178.32l-3.28,7a.58.58,0,0,1-1.05,0l-5.1-11.41Z"/><path class="cls-3" d="M14.59,144.26a6,6,0,0,1,2.29-4.9L19,137.9a6,6,0,0,1,5.39-.46l45.83,21.38a6,6,0,0,1,3.1,4.43l1.92,22.1a6,6,0,0,1-2.29,4.9l-2.09,1.46a6,6,0,0,1-5.39.47L19.34,170.63c-2.54-1.17-2.68-2.55-2.83-4.27Z"/><path class="cls-1" d="M75.2,185.35a6,6,0,0,1-2.29,4.9l-2.09,1.46a6,6,0,0,1-4.91.65c1.31.37,2.22-.44,2.08-2l-1.92-22.1a5.49,5.49,0,0,0-1-2.59l7.21-5a5.59,5.59,0,0,1,1,2.59Z"/><path class="cls-2" d="M14.61,143.49c.22-1.17,1.23-1.63,2.54-1L63,163.86a5.38,5.38,0,0,1,2.07,1.84l7.2-5a5.41,5.41,0,0,0-2.07-1.85L24.36,137.44a6,6,0,0,0-5.39.46l-2.09,1.47A5.94,5.94,0,0,0,14.61,143.49Z"/><path class="cls-4" d="M59,170.52,26.23,155.14c-.95-.44-1.66-.14-1.59.67a3.27,3.27,0,0,0,1.85,2.28l32.74,15.37c.94.45,1.65.15,1.58-.67A3.26,3.26,0,0,0,59,170.52Z"/><path class="cls-4" d="M59.61,177.92,26.87,162.55c-.94-.45-1.65-.14-1.58.67a3.3,3.3,0,0,0,1.84,2.28l32.74,15.37c1,.44,1.66.14,1.59-.68A3.28,3.28,0,0,0,59.61,177.92Z"/><path class="cls-5" d="M25.7,73.39l-5.76-2.64a.56.56,0,0,1-.28-.2l-1.17-1.67,3.07-2.17-.07.29Z"/><path class="cls-1" d="M25.7,73.39l-5.76-2.64a.56.56,0,0,1-.28-.2l-1.17-1.67,3.07-2.17-.07.29Z"/><path class="cls-2" d="M21.09,67l4.4,6.2a.57.57,0,0,0,1-.2l2.91-11.91Z"/><path class="cls-1" d="M60.89,9a5.88,5.88,0,0,0-3.07-4.33l-2.27-1a5.88,5.88,0,0,0-5.28.5l-48,34.08A5.86,5.86,0,0,0,0,43L2.35,67.92a5.85,5.85,0,0,0,3.07,4.33l2.27,1A5.84,5.84,0,0,0,13,72.8L61.24,38.51c2.25-1.58,2.14-2.94,2-4.62Z"/><path class="cls-6" d="M2.35,67.92a5.85,5.85,0,0,0,3.07,4.33l2.27,1a5.92,5.92,0,0,0,4.85-.23c-1.2.59-2.21,0-2.35-1.54L7.85,46.59a5.39,5.39,0,0,1,.53-2.67L.55,40.32A5.41,5.41,0,0,0,0,43Z"/><path class="cls-7" d="M60.74,8.22c-.42-1.09-1.47-1.36-2.63-.54l-48,34.09a5.29,5.29,0,0,0-1.68,2.15L.56,40.33a5.29,5.29,0,0,1,1.67-2.15l48-34.09a5.88,5.88,0,0,1,5.28-.5l2.28,1A5.83,5.83,0,0,1,60.74,8.22Z"/><path class="cls-8" d="M15.61,52.93l26-18.48c.84-.59,1.58-.43,1.65.37a3.22,3.22,0,0,1-1.38,2.52l-26,18.48c-.84.59-1.58.42-1.65-.37A3.19,3.19,0,0,1,15.61,52.93Z"/><path class="cls-8" d="M16.29,60.18l36.47-26c.83-.59,1.57-.42,1.65.37A3.25,3.25,0,0,1,53,37.08l-36.47,26c-.84.6-1.58.43-1.65-.37A3.2,3.2,0,0,1,16.29,60.18Z"/><path class="cls-8" d="M14.89,45.31l36.48-26c.83-.59,1.57-.43,1.65.37a3.25,3.25,0,0,1-1.38,2.52l-36.47,26c-.84.59-1.58.43-1.65-.37A3.2,3.2,0,0,1,14.89,45.31Z"/><path class="cls-5" d="M201.44,163.75l4.65-2.13a.46.46,0,0,0,.22-.17l.94-1.34-2.47-1.75.06.24Z"/><path class="cls-1" d="M201.44,163.75l4.65-2.13a.46.46,0,0,0,.22-.17l.94-1.34-2.47-1.75.06.24Z"/><path class="cls-2" d="M205.16,158.61l-3.55,5a.45.45,0,0,1-.81-.16l-2.35-9.6Z"/><path class="cls-1" d="M173.06,111.78a4.75,4.75,0,0,1,2.47-3.49l1.83-.84a4.72,4.72,0,0,1,4.26.4l38.75,27.49a4.78,4.78,0,0,1,1.79,3.89l-1.89,20.11a4.7,4.7,0,0,1-2.47,3.49l-1.83.84a4.72,4.72,0,0,1-4.26-.4l-38.93-27.66a3.3,3.3,0,0,1-1.6-3.72Z"/><path class="cls-6" d="M220.27,159.34a4.7,4.7,0,0,1-2.47,3.49l-1.83.84a4.8,4.8,0,0,1-3.92-.19c1,.48,1.79,0,1.9-1.24l1.89-20.11a4.43,4.43,0,0,0-.43-2.15l6.32-2.9a4.41,4.41,0,0,1,.43,2.15Z"/><path class="cls-7" d="M173.18,111.18c.34-.88,1.19-1.09,2.12-.43l38.75,27.5A4.14,4.14,0,0,1,215.4,140l6.32-2.9a4.31,4.31,0,0,0-1.35-1.73l-38.74-27.5a4.81,4.81,0,0,0-4.27-.4l-1.83.85A4.73,4.73,0,0,0,173.18,111.18Z"/><path class="cls-8" d="M209.58,147.24l-21-14.9c-.67-.48-1.27-.34-1.33.3a2.57,2.57,0,0,0,1.12,2l20.94,14.9c.68.48,1.27.35,1.33-.29A2.59,2.59,0,0,0,209.58,147.24Z"/><path class="cls-8" d="M209,153.1l-29.41-21c-.68-.47-1.27-.34-1.33.3a2.61,2.61,0,0,0,1.11,2l29.41,21c.68.47,1.28.34,1.34-.3A2.57,2.57,0,0,0,209,153.1Z"/><path class="cls-8" d="M210.16,141.1l-29.42-21c-.67-.48-1.27-.35-1.33.3a2.61,2.61,0,0,0,1.11,2l29.42,21c.67.48,1.27.35,1.33-.3A2.61,2.61,0,0,0,210.16,141.1Z"/><g id="Microphone"><path class="cls-2" d="M143.79,195.32a7.56,7.56,0,0,0-.32-1.81c-1.63-6.74-9.37-10.93-15-12.48l-17.67,1.41c-5.13,2-12.25,7.77-12.79,14.68A7.65,7.65,0,0,0,98,199c0,.1,0,.3,0,.3.47,3.2,2.93,6.2,7.37,8.31,9.36,4.45,23.87,3.3,32.4-2.58,4-2.79,6-6.14,6-9.36A3.19,3.19,0,0,0,143.79,195.32Z"/><path class="cls-4" d="M108.75,183.66c-5.8,4-5.35,9.68,1,12.71s16.22,2.24,22-1.75,5.35-9.69-1-12.72S114.55,179.66,108.75,183.66Z"/><path class="cls-9" d="M119.08,122.31l-8.21.65L116,187.41h0a1.91,1.91,0,0,0,1.32,1.79,6.45,6.45,0,0,0,5.81-.46,1.93,1.93,0,0,0,1-2h0Z"/><path class="cls-10" d="M119.08,122.31l-8.21.65L116,187.41h0a1.91,1.91,0,0,0,1.32,1.79,6.45,6.45,0,0,0,5.81-.46,1.93,1.93,0,0,0,1-2h0Z"/><path class="cls-11" d="M137.36,63.64h0l-2.43,1.67A8.39,8.39,0,0,0,130.6,59l0,0a4.26,4.26,0,0,0-1.12-.36,2.17,2.17,0,0,0-1.64.34l2.43-1.67a2.65,2.65,0,0,1,2.76,0l0,0A8.44,8.44,0,0,1,137.36,63.64Z"/><path class="cls-9" d="M134.93,65.32l1.69,21.22,0,.42c.48,7.3-1.46,15.48-5,22.66-.31.63-.63,1.25-1,1.86a30.27,30.27,0,0,1-15.25,6.15l1-1c7.91-8.61,13.1-22.4,12.19-33.87l-1.69-21.22A2.75,2.75,0,0,1,127.8,59a2.17,2.17,0,0,1,1.64-.35,4.31,4.31,0,0,1,1.12.37l0,0,.3.16a6.65,6.65,0,0,1,1.38,1A8.42,8.42,0,0,1,134.93,65.32Z"/><path class="cls-12" d="M134.93,65.32l1.69,21.22,0,.42c.48,7.3-1.46,15.48-5,22.66-.31.63-.63,1.25-1,1.86a30.27,30.27,0,0,1-15.25,6.15l1-1c7.91-8.61,13.1-22.4,12.19-33.87l-1.69-21.22A2.75,2.75,0,0,1,127.8,59a2.17,2.17,0,0,1,1.64-.35,4.31,4.31,0,0,1,1.12.37l0,0,.3.16a6.65,6.65,0,0,1,1.38,1A8.42,8.42,0,0,1,134.93,65.32Z"/><path class="cls-9" d="M137.36,63.64l1.93,24.17a40.6,40.6,0,0,1-2.07,15.33c-.31,1-.64,1.9-1,2.85a29.23,29.23,0,0,1-5.51,5.49c.34-.61.66-1.23,1-1.86,3.52-7.18,5.46-15.36,5-22.66l0-.42-1.69-21.22Z"/><path class="cls-13" d="M137.36,63.64l1.93,24.17a40.6,40.6,0,0,1-2.07,15.33c-.31,1-.64,1.9-1,2.85a29.23,29.23,0,0,1-5.51,5.49c.34-.61.66-1.23,1-1.86,3.52-7.18,5.46-15.36,5-22.66l0-.42-1.69-21.22Z"/><path class="cls-14" d="M137.36,63.64h0l-2.43,1.67A8.39,8.39,0,0,0,130.6,59l0,0a4.26,4.26,0,0,0-1.12-.36,2.17,2.17,0,0,0-1.64.34l2.43-1.67a2.65,2.65,0,0,1,2.76,0l0,0A8.44,8.44,0,0,1,137.36,63.64Z"/><path class="cls-9" d="M84,52.18c-.31-3.89,2-8,6.86-11.37,9.81-6.76,26.49-8.08,37.26-3,5.37,2.56,8.26,6.24,8.57,10.13s-2,8-6.86,11.36c-9.82,6.76-26.5,8.09-37.26,3C87.19,59.75,84.3,56.06,84,52.16Z"/><path class="cls-2" d="M84,52.18c-.31-3.89,2-8,6.86-11.37,9.81-6.76,26.49-8.08,37.26-3,5.37,2.56,8.26,6.24,8.57,10.13s-2,8-6.86,11.36c-9.82,6.76-26.5,8.09-37.26,3C87.19,59.75,84.3,56.06,84,52.16Z"/><path class="cls-9" d="M85.31,68.65c-.31-3.9,2-8,6.86-11.38,9.81-6.75,26.5-8.08,37.26-3,5.37,2.56,8.26,6.24,8.57,10.13s-2,8-6.86,11.36c-9.82,6.76-26.5,8.09-37.26,3-5.38-2.56-8.27-6.25-8.58-10.14Z"/><path class="cls-2" d="M85.31,68.65c-.31-3.9,2-8,6.86-11.38,9.81-6.75,26.5-8.08,37.26-3,5.37,2.56,8.26,6.24,8.57,10.13s-2,8-6.86,11.36c-9.82,6.76-26.5,8.09-37.26,3-5.38-2.56-8.27-6.25-8.58-10.14Z"/><path class="cls-9" d="M86.61,85.07c-.31-3.89,2-8,6.86-11.37,9.82-6.76,26.5-8.09,37.26-3,5.38,2.56,8.26,6.25,8.58,10.14s-2,8-6.86,11.36c-9.82,6.76-26.5,8.08-37.27,3-5.38-2.56-8.26-6.25-8.57-10.14Z"/><path class="cls-2" d="M86.61,85.07c-.31-3.89,2-8,6.86-11.37,9.82-6.76,26.5-8.09,37.26-3,5.38,2.56,8.26,6.25,8.58,10.14s-2,8-6.86,11.36c-9.82,6.76-26.5,8.08-37.27,3-5.38-2.56-8.26-6.25-8.57-10.14Z"/><path class="cls-2" d="M128.32,58.63c-.25.18-.52.35-.79.52a1.78,1.78,0,0,0,2.27.21l0,0A23.09,23.09,0,0,0,132,57.68,16,16,0,0,0,135.12,54a12,12,0,0,0,1-2,9.24,9.24,0,0,0,.6-4.05l.68,8.53a9.33,9.33,0,0,1-.6,4,11.76,11.76,0,0,1-1,2L136,64.6c.23,2.89-1.08,5.9-4,8.58a19.63,19.63,0,0,1-2.38,1.9c-.26.18-.52.36-.8.53a1.79,1.79,0,0,0,2.28.21l0,0a21,21,0,0,0,2.15-1.67,16.34,16.34,0,0,0,3.14-3.66,11.32,11.32,0,0,0,1-2,9.22,9.22,0,0,0,.6-4l.68,8.52a9.24,9.24,0,0,1-.6,4,11.67,11.67,0,0,1-1,2l.16,2c.28,3.58-1.81,7.37-6.33,10.48-.27.18-.54.37-.82.54a1.8,1.8,0,0,0,2.3.24l0,0a18.14,18.14,0,0,0,5.29-5.33,10.65,10.65,0,0,0,1-2,9.24,9.24,0,0,0,.6-4l.66,8.25c0,.32,0,.64.05,1a26.43,26.43,0,0,1-52.65,4.19c0-.16,0-.32-.05-.48s0-.33,0-.48l-.66-8.27c0,.06,0,.12,0,.17A9.5,9.5,0,0,0,87.84,89a11.28,11.28,0,0,0,1.28,1.81,17.81,17.81,0,0,0,6.07,4.42c6.34,3,14.73,3.8,22.56,2.55a4.19,4.19,0,0,0,2.86-1.84c-8.08,2-17.32,1.51-24-1.69-4.81-2.3-7.46-5.56-7.88-9l-.19-2.35a11.35,11.35,0,0,1-1.28-1.82A9.51,9.51,0,0,1,86,77.33c0-.06,0-.12,0-.17l-.68-8.53c0,.06,0,.11,0,.17a9.46,9.46,0,0,0,1.21,3.73,11.35,11.35,0,0,0,1.28,1.82,15.92,15.92,0,0,0,3.67,3.11,21.52,21.52,0,0,0,2.39,1.31c6.34,3,14.74,3.79,22.57,2.55a4.19,4.19,0,0,0,2.82-1.79c-8.07,2-17.29,1.49-24-1.71a19.54,19.54,0,0,1-2.65-1.5c-3.14-2.12-4.89-4.76-5.23-7.52l-.19-2.39A11.74,11.74,0,0,1,85.9,64.6a9.5,9.5,0,0,1-1.21-3.74s0-.11,0-.17L84,52.17s0,.11,0,.16a9.5,9.5,0,0,0,1.21,3.74,11.28,11.28,0,0,0,1.28,1.81A16.16,16.16,0,0,0,90.2,61a25,25,0,0,0,2.36,1.3c6.34,3,14.73,3.79,22.56,2.54A4.17,4.17,0,0,0,118,63.07c-8.07,2-17.29,1.49-24-1.71a18.13,18.13,0,0,1-2.62-1.49c-3.16-2.11-4.92-4.75-5.26-7.53l-.19-2.4a11.28,11.28,0,0,1-1.28-1.81,9.43,9.43,0,0,1-1.06-2.76,7.47,7.47,0,0,1-.17-1.14c0-.5-.06-1-.07-1.5a26.43,26.43,0,0,1,52.6-4.19c.07.49.13,1,.17,1.5v0a8.53,8.53,0,0,1,0,1.13,9.79,9.79,0,0,1-.62,2.9,11.32,11.32,0,0,1-1,2l.16,2.07c.23,2.89-1.08,5.91-4,8.6A20.33,20.33,0,0,1,128.32,58.63Z"/><g class="cls-15"><path d="M118.68,60.34h0a4.21,4.21,0,0,1-.73,2.72c-8.07,2-17.29,1.49-24-1.71-4.81-2.29-7.46-5.55-7.88-9l-.19-2.4a2.62,2.62,0,0,0,.22.25,18.27,18.27,0,0,0,5.84,4.18c6.3,3,14.64,3.79,22.43,2.57A3.75,3.75,0,0,1,118.68,60.34Z"/><path d="M134.49,46.07l.16,2.07c.28,3.59-1.81,7.37-6.33,10.49-.25.18-.52.35-.79.52A1.76,1.76,0,0,1,127,58l-.13-1.64a5.41,5.41,0,0,1,2.33-4.91h0a18.46,18.46,0,0,0,5.11-5Z"/><path d="M120,76.81h0a4.2,4.2,0,0,1-.73,2.72c-8.07,2-17.29,1.49-24-1.71-4.81-2.29-7.46-5.55-7.88-9l-.19-2.39.22.25a18.26,18.26,0,0,0,5.84,4.17c6.3,3,14.64,3.79,22.43,2.57A3.76,3.76,0,0,1,120,76.81Z"/><path d="M135.8,62.54,136,64.6c.28,3.6-1.81,7.37-6.33,10.48-.26.18-.52.36-.8.53a1.82,1.82,0,0,1-.55-1.17l-.13-1.64a5.41,5.41,0,0,1,2.33-4.91l0,0a18.33,18.33,0,0,0,5.11-5.05Z"/><path d="M121.3,93.28a4.21,4.21,0,0,1-.69,2.66c-8.08,2-17.32,1.51-24-1.69-4.81-2.3-7.46-5.56-7.88-9l-.19-2.35.21.24a18.33,18.33,0,0,0,5.85,4.18c6.3,3,14.64,3.79,22.43,2.57A3.76,3.76,0,0,1,121.3,93.28Z"/><path d="M137.11,79l.16,2c.28,3.58-1.81,7.37-6.33,10.48-.27.18-.54.37-.82.54a1.85,1.85,0,0,1-.53-1.15l-.14-1.68a5.4,5.4,0,0,1,2.32-4.86l0,0a18.65,18.65,0,0,0,5.12-5Z"/></g><path class="cls-9" d="M130.7,111.48a38.75,38.75,0,0,1-11.54,13.57c-7.48,5.15-14.31,5.34-18.21-.49,3.08.23,6.58-.82,10.2-3.32a28.69,28.69,0,0,0,4.3-3.61A30.27,30.27,0,0,0,130.7,111.48Z"/><path class="cls-10" d="M130.7,111.48a38.75,38.75,0,0,1-11.54,13.57c-7.48,5.15-14.31,5.34-18.21-.49,3.08.23,6.58-.82,10.2-3.32a28.69,28.69,0,0,0,4.3-3.61A30.27,30.27,0,0,0,130.7,111.48Z"/><path class="cls-9" d="M97.39,123.64a23.92,23.92,0,0,1-2.11-8.46L93,86.18a8.43,8.43,0,0,0-4.33-6.29l0,0a4.1,4.1,0,0,0-1.13-.36,2.2,2.2,0,0,0-1.63.34A2.71,2.71,0,0,0,85,82.37l2.31,29c.61,7.63,3.73,12.81,8.28,15l8,3.83A13.32,13.32,0,0,1,97.39,123.64Z"/><path class="cls-10" d="M97.39,123.64a23.92,23.92,0,0,1-2.11-8.46L93,86.18a8.43,8.43,0,0,0-4.33-6.29l0,0a4.1,4.1,0,0,0-1.13-.36,2.2,2.2,0,0,0-1.63.34A2.71,2.71,0,0,0,85,82.37l2.31,29c.61,7.63,3.73,12.81,8.28,15l8,3.83A13.32,13.32,0,0,1,97.39,123.64Z"/><path class="cls-9" d="M95.4,84.5h0L93,86.18a8.43,8.43,0,0,0-4.33-6.29l0,0a4.14,4.14,0,0,0-1.13-.37,2.25,2.25,0,0,0-1.63.35l2.43-1.67a2.63,2.63,0,0,1,2.76,0h0A8.45,8.45,0,0,1,95.4,84.5Z"/><path class="cls-16" d="M95.4,84.5h0L93,86.18a8.43,8.43,0,0,0-4.33-6.29l0,0a4.14,4.14,0,0,0-1.13-.37,2.25,2.25,0,0,0-1.63.35l2.43-1.67a2.63,2.63,0,0,1,2.76,0h0A8.45,8.45,0,0,1,95.4,84.5Z"/><path class="cls-9" d="M136.21,106c-.41,1.07-.86,2.14-1.35,3.19-.12.27-.25.53-.37.79l-.33.68a1.4,1.4,0,0,0-.09.17c-.38.75-.77,1.5-1.19,2.22-.3.55-.62,1.09-.95,1.62s-.55.89-.83,1.33-.64,1-1,1.42c-.14.21-.29.41-.44.61l-.28.39c-.19.26-.37.51-.57.75a44.07,44.07,0,0,1-2.93,3.41c-.19.2-.37.39-.57.58l-.41.41a30.21,30.21,0,0,1-2.34,2.09c-.22.19-.45.37-.68.54l-.48.37c-.29.22-.59.43-.89.64-6.33,4.36-12.34,5.19-16.93,3a13.28,13.28,0,0,1-6.22-6.57,23.92,23.92,0,0,1-2.11-8.46L93,86.18l2.43-1.67,2.3,28.83c.39,5,1.54,8.66,3.25,11.22,3.9,5.83,10.73,5.64,18.21.49.23-.17.47-.33.7-.51l.31-.22.56-.44.27-.22.64-.54.71-.63.09-.09c.26-.24.53-.49.79-.75s.52-.52.77-.79a.3.3,0,0,0,.08-.08c.22-.24.44-.47.65-.71l.18-.2c.2-.22.39-.45.58-.67l.72-.88a42,42,0,0,0,2.69-3.78c.2-.3.39-.61.58-.92l.08-.13c.19-.32.39-.64.56-1s.4-.69.58-1a0,0,0,0,0,0,0A29.42,29.42,0,0,0,136.21,106Z"/><path class="cls-16" d="M136.21,106c-.41,1.07-.86,2.14-1.35,3.19-.12.27-.25.53-.37.79l-.33.68a1.4,1.4,0,0,0-.09.17c-.38.75-.77,1.5-1.19,2.22-.3.55-.62,1.09-.95,1.62s-.55.89-.83,1.33-.64,1-1,1.42c-.14.21-.29.41-.44.61l-.28.39c-.19.26-.37.51-.57.75a44.07,44.07,0,0,1-2.93,3.41c-.19.2-.37.39-.57.58l-.41.41a30.21,30.21,0,0,1-2.34,2.09c-.22.19-.45.37-.68.54l-.48.37c-.29.22-.59.43-.89.64-6.33,4.36-12.34,5.19-16.93,3a13.28,13.28,0,0,1-6.22-6.57,23.92,23.92,0,0,1-2.11-8.46L93,86.18l2.43-1.67,2.3,28.83c.39,5,1.54,8.66,3.25,11.22,3.9,5.83,10.73,5.64,18.21.49.23-.17.47-.33.7-.51l.31-.22.56-.44.27-.22.64-.54.71-.63.09-.09c.26-.24.53-.49.79-.75s.52-.52.77-.79a.3.3,0,0,0,.08-.08c.22-.24.44-.47.65-.71l.18-.2c.2-.22.39-.45.58-.67l.72-.88a42,42,0,0,0,2.69-3.78c.2-.3.39-.61.58-.92l.08-.13c.19-.32.39-.64.56-1s.4-.69.58-1a0,0,0,0,0,0,0A29.42,29.42,0,0,0,136.21,106Z"/><path class="cls-2" d="M88.55,82.27a1.76,1.76,0,0,0-1.85,0l-2.32,1.59,4.05,6,2.31-1.59.17-.11a1.88,1.88,0,0,0,.54-1.66A5.66,5.66,0,0,0,88.55,82.27Z"/><path class="cls-3" d="M89,88.16a1.79,1.79,0,0,1-.58,1.68,1.76,1.76,0,0,1-1.85,0,5.66,5.66,0,0,1-2.9-4.21A1.84,1.84,0,0,1,84.24,84l.14-.1a1.88,1.88,0,0,1,1.73.1A5.6,5.6,0,0,1,89,88.16Z"/><path class="cls-2" d="M87.89,87.62a.67.67,0,0,1,0,.2.92.92,0,0,1-.34.78,1,1,0,0,1-1.07,0,3.23,3.23,0,0,1-1.67-2.44,1,1,0,0,1,.32-1l.08-.06a1,1,0,0,1,.82,0l.18.07A3.25,3.25,0,0,1,87.89,87.62Z"/><path class="cls-3" d="M87.89,87.62a.67.67,0,0,1,0,.2l-.18-.07A3.3,3.3,0,0,1,86,85.3v-.19l.18.07A3.25,3.25,0,0,1,87.89,87.62Z"/><path class="cls-17" d="M129.34,29.39c-4.26-7.58-12.49-11-20.9-10.39a12.77,12.77,0,0,0-6.72,2.11,6.19,6.19,0,0,0-2.59,6.22c.57,2.19,2.56,3.66,4.43,5l13.22,9.15c2.83,2,6.15,4,9.49,3.16,2.9-.75,4.88-3.66,5.23-6.64A14.51,14.51,0,0,0,129.34,29.39Z"/></g></g></g></svg>